<?xml version="1.0" encoding="UTF-8"?>
<svg id="Camada_1" data-name="Camada 1" xmlns="http://www.w3.org/2000/svg" xmlns:xlink="http://www.w3.org/1999/xlink" viewBox="0 0 422.07 422.07">
  <defs>
    <style>
      .cls-1 {
        fill: #020304;
      }

      .cls-2 {
        stroke: #8bafc3;
      }

      .cls-2, .cls-3, .cls-4, .cls-5, .cls-6, .cls-7, .cls-8, .cls-9, .cls-10, .cls-11, .cls-12, .cls-13, .cls-14, .cls-15, .cls-16, .cls-17, .cls-18, .cls-19 {
        fill: none;
        stroke-miterlimit: 10;
      }

      .cls-20 {
        fill: #fff;
      }

      .cls-3 {
        stroke: #4b7082;
      }

      .cls-21 {
        fill: #94def7;
      }

      .cls-22 {
        fill: #63c9f0;
      }

      .cls-4 {
        stroke: #4b717e;
      }

      .cls-5 {
        stroke: #3d94bb;
      }

      .cls-6 {
        stroke: #379;
      }

      .cls-7 {
        stroke: #caeffb;
      }

      .cls-8 {
        stroke: #1b113f;
      }

      .cls-9 {
        stroke: #569ebf;
      }

      .cls-10 {
        stroke: #1b1047;
      }

      .cls-11 {
        stroke: #1b1043;
      }

      .cls-12 {
        stroke: #021428;
      }

      .cls-13 {
        stroke: #7cd4f4;
      }

      .cls-23 {
        fill: #332070;
      }

      .cls-14 {
        stroke: #0d4264;
      }

      .cls-24 {
        fill: #02020d;
      }

      .cls-15 {
        stroke: #1b2162;
      }

      .cls-25 {
        fill: url(#Gradiente_sem_nome_10);
      }

      .cls-26 {
        fill: #175e86;
      }

      .cls-16 {
        stroke: #1b2359;
      }

      .cls-27 {
        fill: #022542;
      }

      .cls-17 {
        stroke: #4b829d;
      }

      .cls-18 {
        stroke: #020309;
      }

      .cls-19 {
        stroke: #331f79;
      }
    </style>
    <linearGradient id="Gradiente_sem_nome_10" data-name="Gradiente sem nome 10" x1="15.59" y1="49.92" x2="371.99" y2="343.72" gradientUnits="userSpaceOnUse">
      <stop offset="0" stop-color="#331d81"/>
      <stop offset="1" stop-color="#16085e"/>
    </linearGradient>
  </defs>
  <rect class="cls-25" x="-.57" width="423.22" height="422.07"/>
  <g>
    <g>
      <path class="cls-21" d="M148.23,398.93l-9.61-12.41s3.58-10.97,6.71-12.53,18.9-11.32,18.9-11.32c0,0,41.48,3.79,42.37,5.65s13.33,20.32,16.55,20.32,15.52-15.27,19.28-17.2,11.17-8.77,11.17-8.77c0,0,7.35-.89,8.02-1.83s14.09,10.02,14.98,11.14,4.92,4.86,5.59,7.91-7.16,21.16-8.5,22.28-46.29,11.85-56.57,13.42-70.86-16.65-70.86-16.65"/>
      <path class="cls-22" d="M263.23,366.18c-3.26,12.4-11.64,22.03-25.34,27.37-21.14,8.23-42.72,6.95-61.19-3.44-10.19-5.73-16.34-13.94-18.73-23.83l9.18-5.31c16.62,21.62,51.14,24.65,75.26,10.47,3.92-2.31,7.86-5.9,11.69-10.6l9.13,5.34h0Z"/>
      <path class="cls-22" d="M177.07,385.45s-13.25-15.26-13.89-15.93-3.83-10.64,0-11.47,10.44-6.42,10.44-6.42l4.4-5.52s51.66.01,55.32.79,14.44-.03,15.2,0,11.12,4.06,11.12,4.06c0,0,3.93,4.57,4.05,7.09s-.77,6.68-2.56,7.73-5.19,5.75-12.54,10-21.27,13.2-22.25,12.86-12.2,1.9-15.76,1.9-32.64-5.09-32.64-5.09"/>
      <path class="cls-21" d="M145.27,378.34c7.28,10.99,17.16,19.02,29.67,24.13,20.5,8.37,41.82,9.34,63.96,2.89,15.59-4.54,28.03-13.58,37.29-27.14,16.32,9.36,28.88,24.33,37.62,44.95l-206.01.25c8.31-20.3,20.81-35.32,37.48-45.07h0Z"/>
      <path class="cls-24" d="M177.96,349.32c1.4,2.69-22.43,22.3-23.5,22.42l-9.19,6.59c-16.67,9.76-29.16,24.77-37.48,45.07-.2,1.88-1.7,1.83-4.5-.12-.53-.37-.77-1.16-.59-1.88,5.76-21.66,25.55-40.87,41.63-50.6,1.05-.64,27.38-23.86,26.42-24.7M262.62,347.38c.43,8.56,5.48,12.56,7.4,14.83,2.34,2.77,7.45,6.41,7.45,6.41h0c17.7,10.35,32.35,29.62,41.72,51.9.59,1.38.02,3.09-1.18,3.58-2.01.81-3.41.49-4.2-.94-8.74-20.62-21.29-35.59-37.62-44.95-2.22-.95-7.69-3.62-11.84-9.74-4.14-6.09-8.52-13.24-8.59-15.65"/>
    </g>
    <line class="cls-10" x1="207.49" y1="36.99" x2="165.95" y2="87.11"/>
    <line class="cls-15" x1="165.95" y1="87.11" x2="156.24" y2="96.2"/>
    <path class="cls-19" d="M156.24,96.2c-8.57,7.86-15.32,16.4-20.28,25.65-8.33,15.56-16.76,31.14-25.3,46.75-3.68,6.73-6.64,14.06-8.85,21.97-.26.94.19,1.92,1.06,2.37.14.07.63-.19,1.5-.77"/>
    <path class="cls-10" d="M104.37,192.15l-4.46,14.1s-.02.09-.05.12c-.12.19-.33.35-.59.49-.59.31-1.01.87-1.13,1.5-.8,4.13-1.88,10.89-3.21,20.25-15.37,107.24,106.66,177.95,193.25,114.26,26.47-19.48,45.39-50.15,48.04-83.64"/>
    <path class="cls-11" d="M336.23,259.25c2.23-19.74.07-38.91-6.48-57.52-16.85-47.99-45.57-91.4-77.98-131.16-13.24-16.22-21.14-25.81-33.63-37.08-1.31-1.2-3.26-1.34-4.74-.38l-5.91,3.87"/>
    <path class="cls-18" d="M336.23,259.25l-8.57,31.56h-.02l-.68-.07c-.19-.02-.33-.21-.3-.42,1.55-12.77,5.02-24.5,5.47-37.78.56-15.96-2.09-31.4-7.98-46.32"/>
    <path class="cls-4" d="M324.14,206.21c-7.77-23.11-18.14-45.17-31.09-66.15-21.85-35.41-46.89-68.48-75.12-99.15"/>
    <path class="cls-18" d="M217.93,40.91c-1.01-1.34-2.32-2.25-3.94-2.7-.61-.16-1.24-.12-1.83.12-1.85.8-3.4.35-4.67-1.34"/>
    <path class="cls-3" d="M217.93,40.91c-1.43-2.02-2.75-2.37-3.97-1.08-19.78,20.98-41.21,48.18-64.25,81.59-18.66,27.08-32.9,55.36-42.69,84.83-12.7,38.16-7.09,78.59,17.34,109.47,36.56,46.28,101.8,58.81,152.32,26.75,46.82-29.66,64.77-83.26,47.45-136.27"/>
    <line class="cls-8" x1="104.37" y1="192.15" x2="132.04" y2="137.31"/>
    <path class="cls-12" d="M132.04,137.31c10.3-17.27,21.61-34,33.91-50.2"/>
    <path class="cls-16" d="M132.04,137.31c3.31-9.39,7.46-17.39,12.44-23.98,5.19-6.9,9.11-12.6,11.76-17.13"/>
    <path class="cls-7" d="M184.75,100.04c-8.68,3.78-19.29,18.4-24.26,26.42-4.48,7.23-6.52,15.25-6.12,24.1.12,2.28,2.11,4.08,4.62,4.2,2.42.07,4.46-.59,6.12-1.99,7.42-6.31,13.35-14.27,17.79-23.82,4.06-8.75,5.7-17.76,4.95-27.06-.12-1.53-1.71-2.46-3.1-1.85"/>
    <path class="cls-13" d="M111.58,259.2c-1.13,2.51-1.41,4.83-.87,6.95,10.11,39.73,40.76,77.89,82.39,85.37,35.83,6.45,67.96-2.49,96.38-26.8,3.99-3.4,7.11-6.78,9.34-10.14,22.43-33.58,32.67-68.59,19.17-108.93-4.62-13.89-10.7-28.96-18.21-45.2-.21-.45-.73-.68-1.22-.54-.47.14-.77.63-.68,1.13,1.67,9.55,4.2,20.18,7.56,31.89,5.3,18.4,5.35,46.68-2.46,66.67-11.31,29.03-38.84,58.55-69.98,64.56-26.21,5.05-50.45,2.42-72.75-7.91-21.78-10.09-42.29-34.38-47.87-56.98-.09-.4-.63-.45-.8-.07"/>
    <path class="cls-7" d="M149.76,162.29c-2.21-1.11-5.23.44-6.73,3.43-1.51,2.99-.92,6.32,1.29,7.44,2.21,1.11,5.23-.44,6.73-3.43,1.51-2.99.92-6.32-1.29-7.44"/>
    <path class="cls-9" d="M151,193.7c-17.06,6.22-25.77,25.34-19.44,42.71,6.32,17.39,25.29,26.44,42.35,20.22,17.06-6.22,25.77-25.34,19.44-42.71-6.32-17.39-25.29-26.44-42.35-20.22M301.64,225.05c0-18.42-14.92-33.35-33.35-33.35s-33.35,14.93-33.35,33.35,14.93,33.35,33.35,33.35,33.35-14.93,33.35-33.35"/>
    <path class="cls-17" d="M215.68,318.31c10.87,0,20.58-2.39,29.1-7.2,9.53-5.35,19.59-16.36,21.43-28.16,1.43-9.08-4.81-16.54-14.17-13.31-12.88,4.44-24.99,6.66-36.37,6.66s-23.47-2.23-36.35-6.66c-9.36-3.21-15.61,4.25-14.17,13.33,1.83,11.8,11.9,22.79,21.43,28.16,8.52,4.79,18.23,7.18,29.12,7.18"/>
    <path class="cls-13" d="M297.7,296.49c-2.19-1.55-7.14,1.69-11.08,7.24-3.94,5.55-5.38,11.3-3.2,12.84,2.19,1.55,7.14-1.69,11.08-7.24,3.94-5.55,5.38-11.3,3.2-12.84"/>
    <path class="cls-2" d="M190.12,225.43c0-15.3-12.39-27.69-27.69-27.69s-27.69,12.39-27.69,27.69,12.39,27.69,27.69,27.69,27.69-12.39,27.69-27.69M296.17,225.17c0-15.39-12.46-27.86-27.86-27.86s-27.86,12.46-27.86,27.86,12.46,27.86,27.86,27.86,27.86-12.46,27.86-27.86M277.21,226.16c0-7.98-6.48-14.46-14.46-14.46s-14.46,6.48-14.46,14.46,6.48,14.46,14.46,14.46,14.46-6.48,14.46-14.46M182.36,226.16c0-8.12-6.57-14.69-14.69-14.69s-14.69,6.57-14.69,14.69,6.57,14.69,14.69,14.69,14.69-6.57,14.69-14.69"/>
    <path class="cls-6" d="M185.52,303.62c19.85,11.9,39.68,12.04,59.49.47"/>
    <path class="cls-14" d="M245.01,304.09c7.65-4.83,12.93-12.3,15.84-22.39.77-2.65-.59-5.42-3.1-6.27-3.07-1.03-11.48,1.71-21.47,3.99-8.68,1.97-20.7,2.21-36.07.68-8.47-.84-16.59-4.2-24.85-5.51-2.51-.38-4.86,1.38-5.19,3.9-.35,2.72.05,5.4,1.24,8,3.54,7.72,8.24,13.42,14.1,17.13"/>
    <path class="cls-5" d="M245.01,304.09c-19.9-11.85-39.73-12.02-59.49-.47"/>
    <path class="cls-1" d="M336.23,259.25l-8.57,31.56h-.02l-.68-.07c-.19-.02-.33-.21-.3-.42,1.55-12.77,5.02-24.5,5.47-37.78.56-15.96-2.09-31.4-7.98-46.32-7.77-23.11-18.14-45.17-31.09-66.15-21.85-35.41-46.89-68.48-75.12-99.15-1.01-1.34-2.32-2.25-3.94-2.7-.61-.16-1.24-.12-1.83.12-1.85.8-3.4.35-4.67-1.34l5.91-3.87c1.48-.96,3.43-.82,4.74.38,12.48,11.26,20.39,20.86,33.63,37.08,32.41,39.75,61.13,83.17,77.98,131.16,6.55,18.61,8.71,37.78,6.48,57.52h0Z"/>
    <path class="cls-24" d="M207.49,36.99c1.27,1.69,2.82,2.14,4.67,1.34.59-.23,1.22-.28,1.83-.12,1.62.45,2.93,1.36,3.94,2.7-1.43-2.02-2.75-2.37-3.97-1.08-19.78,20.98-41.21,48.18-64.25,81.59-18.66,27.08-32.9,55.36-42.69,84.83-12.7,38.16-7.09,78.59,17.34,109.47,36.56,46.28,101.8,58.81,152.32,26.75,46.82-29.66,64.77-83.26,47.45-136.27,5.89,14.93,8.54,30.37,7.98,46.32-.45,13.28-3.92,25.02-5.47,37.78-.02.21.12.4.3.42l.68.07h.02l8.57-31.56c-2.65,33.49-21.57,64.16-48.04,83.64-86.59,63.69-208.62-7.02-193.25-114.26,1.34-9.36,2.42-16.12,3.21-20.25.12-.63.54-1.2,1.13-1.5.26-.14.47-.31.59-.49.02-.02.02-.07.05-.12l4.46-14.1,27.67-54.84c10.3-17.27,21.61-34,33.91-50.2l41.54-50.13h0Z"/>
    <path class="cls-21" d="M217.93,40.91c28.23,30.67,53.27,63.74,75.12,99.15,12.95,20.98,23.33,43.04,31.09,66.15,17.32,53.01-.63,106.61-47.45,136.27-50.52,32.06-115.76,19.52-152.32-26.75-24.43-30.88-30.04-71.32-17.34-109.47,9.79-29.47,24.03-57.75,42.69-84.83,23.04-33.42,44.47-60.62,64.25-81.59,1.22-1.29,2.53-.94,3.97,1.08M184.75,100.04c-8.68,3.78-19.29,18.4-24.26,26.42-4.48,7.23-6.52,15.25-6.12,24.1.12,2.28,2.11,4.08,4.62,4.2,2.42.07,4.46-.59,6.12-1.99,7.42-6.31,13.35-14.27,17.79-23.82,4.06-8.75,5.7-17.76,4.95-27.06-.12-1.53-1.71-2.46-3.1-1.85M111.58,259.2c-1.13,2.51-1.41,4.83-.87,6.95,10.11,39.73,40.76,77.89,82.39,85.37,35.83,6.45,67.96-2.49,96.38-26.8,3.99-3.4,7.11-6.78,9.34-10.14,22.43-33.58,32.67-68.59,19.17-108.93-4.62-13.89-10.7-28.96-18.21-45.2-.21-.45-.73-.68-1.22-.54-.47.14-.77.63-.68,1.13,1.67,9.55,4.2,20.18,7.56,31.89,5.3,18.4,5.35,46.68-2.46,66.67-11.31,29.03-38.84,58.55-69.98,64.56-26.21,5.05-50.45,2.42-72.75-7.91-21.78-10.09-42.29-34.38-47.87-56.98-.09-.4-.63-.45-.8-.07M149.76,162.29c-2.21-1.11-5.23.44-6.73,3.43-1.51,2.99-.92,6.32,1.29,7.44,2.21,1.11,5.23-.44,6.73-3.43,1.51-2.99.92-6.32-1.29-7.44M151,193.7c-17.06,6.22-25.77,25.34-19.44,42.71,6.32,17.39,25.29,26.44,42.35,20.22,17.06-6.22,25.77-25.34,19.44-42.71-6.32-17.39-25.29-26.44-42.35-20.22M301.64,225.05c0-18.42-14.92-33.35-33.35-33.35s-33.35,14.93-33.35,33.35,14.93,33.35,33.35,33.35,33.35-14.93,33.35-33.35M215.68,318.31c10.87,0,20.58-2.39,29.1-7.2,9.53-5.35,19.59-16.36,21.43-28.16,1.43-9.08-4.81-16.54-14.17-13.31-12.88,4.44-24.99,6.66-36.37,6.66s-23.47-2.23-36.35-6.66c-9.36-3.21-15.61,4.25-14.17,13.33,1.83,11.8,11.9,22.79,21.43,28.16,8.52,4.79,18.23,7.18,29.12,7.18h0Z"/>
    <path class="cls-27" d="M165.95,87.11c-12.3,16.19-23.61,32.92-33.91,50.2,3.31-9.39,7.46-17.39,12.44-23.98,5.19-6.9,9.11-12.6,11.76-17.13l9.72-9.08h0Z"/>
    <path class="cls-23" d="M156.24,96.2c-2.65,4.53-6.57,10.23-11.76,17.13-4.97,6.59-9.13,14.6-12.44,23.98l-27.67,54.84c-.87.59-1.36.84-1.5.77-.87-.45-1.31-1.43-1.06-2.37,2.21-7.91,5.16-15.23,8.85-21.97,8.54-15.61,16.97-31.19,25.3-46.75,4.95-9.25,11.71-17.79,20.28-25.65h0Z"/>
    <path class="cls-20" d="M184.75,100.04c1.38-.61,2.98.33,3.1,1.85.75,9.29-.89,18.3-4.95,27.06-4.44,9.55-10.37,17.51-17.79,23.82-1.67,1.41-3.71,2.07-6.12,1.99-2.51-.12-4.51-1.92-4.62-4.2-.4-8.85,1.64-16.87,6.12-24.1,4.98-8.03,15.58-22.65,24.26-26.42h0Z"/>
    <path class="cls-22" d="M112.38,259.27c5.59,22.6,26.1,46.89,47.87,56.98,22.29,10.33,46.54,12.95,72.75,7.91,31.14-6.01,58.67-35.53,69.98-64.56,7.81-19.99,7.77-48.27,2.46-66.67-3.36-11.71-5.89-22.34-7.56-31.89-.09-.49.21-.99.68-1.13.49-.14,1.01.09,1.22.54,7.51,16.24,13.59,31.31,18.21,45.2,13.49,40.34,3.26,75.35-19.17,108.93-2.23,3.36-5.35,6.74-9.34,10.14-28.42,24.31-60.55,33.25-96.38,26.8-41.63-7.49-72.28-45.64-82.39-85.37-.54-2.11-.26-4.44.87-6.95.16-.38.7-.33.8.07M297.7,296.49c-2.19-1.55-7.14,1.69-11.08,7.24-3.94,5.55-5.38,11.3-3.2,12.84,2.19,1.55,7.14-1.69,11.08-7.24,3.94-5.55,5.38-11.3,3.2-12.84h0Z"/>
    <path class="cls-20" d="M149.76,162.29c2.21,1.12,2.79,4.45,1.29,7.44-1.5,2.99-4.52,4.54-6.73,3.43-2.21-1.12-2.79-4.45-1.29-7.44,1.5-2.99,4.52-4.54,6.73-3.43h0Z"/>
    <path class="cls-26" d="M151,193.7c17.06-6.22,36.02,2.84,42.35,20.22,6.32,17.37-2.38,36.5-19.44,42.71-17.06,6.22-36.02-2.84-42.35-20.22-6.32-17.37,2.38-36.5,19.44-42.71M190.12,225.43c0-15.3-12.39-27.69-27.69-27.69s-27.69,12.39-27.69,27.69,12.39,27.69,27.69,27.69,27.69-12.39,27.69-27.69h0Z"/>
    <path class="cls-26" d="M301.64,225.05c0,18.42-14.92,33.35-33.35,33.35s-33.35-14.93-33.35-33.35,14.93-33.35,33.35-33.35,33.35,14.93,33.35,33.35M296.17,225.17c0-15.39-12.46-27.86-27.86-27.86s-27.86,12.46-27.86,27.86,12.46,27.86,27.86,27.86,27.86-12.46,27.86-27.86h0Z"/>
    <path class="cls-20" d="M296.17,225.17c0,15.39-12.46,27.86-27.86,27.86s-27.86-12.46-27.86-27.86,12.46-27.86,27.86-27.86,27.86,12.46,27.86,27.86M277.21,226.16c0-7.98-6.48-14.46-14.46-14.46s-14.46,6.48-14.46,14.46,6.48,14.46,14.46,14.46,14.46-6.48,14.46-14.46h0Z"/>
    <path class="cls-20" d="M190.12,225.43c0,15.3-12.39,27.69-27.69,27.69s-27.69-12.39-27.69-27.69,12.39-27.69,27.69-27.69,27.69,12.39,27.69,27.69M182.36,226.16c0-8.12-6.57-14.69-14.69-14.69s-14.69,6.57-14.69,14.69,6.57,14.69,14.69,14.69,14.69-6.57,14.69-14.69h0Z"/>
    <path class="cls-26" d="M182.36,226.16c0,8.12-6.57,14.69-14.69,14.69s-14.69-6.57-14.69-14.69,6.57-14.69,14.69-14.69,14.69,6.57,14.69,14.69h0Z"/>
    <path class="cls-26" d="M277.21,226.16c0,7.98-6.48,14.46-14.46,14.46s-14.46-6.48-14.46-14.46,6.48-14.46,14.46-14.46,14.46,6.48,14.46,14.46h0Z"/>
    <path class="cls-27" d="M215.66,276.31c11.38,0,23.49-2.23,36.37-6.66,9.36-3.24,15.61,4.22,14.17,13.31-1.83,11.8-11.9,22.81-21.43,28.16-8.52,4.81-18.23,7.2-29.1,7.2s-20.6-2.39-29.12-7.18c-9.53-5.37-19.6-16.36-21.43-28.16-1.43-9.08,4.81-16.54,14.17-13.33,12.88,4.44,24.99,6.66,36.35,6.66M185.52,303.62c19.85,11.9,39.68,12.04,59.49.47,7.65-4.83,12.93-12.3,15.84-22.39.77-2.65-.59-5.42-3.1-6.27-3.07-1.03-11.48,1.71-21.47,3.99-8.68,1.97-20.7,2.21-36.07.68-8.47-.84-16.59-4.2-24.85-5.51-2.51-.38-4.86,1.38-5.19,3.9-.35,2.72.05,5.4,1.24,8,3.54,7.72,8.24,13.42,14.1,17.13h0Z"/>
    <path class="cls-26" d="M245.01,304.09c-19.9-11.85-39.73-12.02-59.49-.47-5.87-3.71-10.56-9.41-14.1-17.13-1.2-2.6-1.6-5.28-1.24-8,.33-2.51,2.68-4.27,5.19-3.9,8.26,1.31,16.38,4.67,24.85,5.51,15.37,1.53,27.39,1.29,36.07-.68,10-2.28,18.4-5.02,21.47-3.99,2.51.84,3.87,3.61,3.1,6.27-2.91,10.09-8.19,17.55-15.84,22.39h0Z"/>
    <path class="cls-22" d="M245.01,304.09c-19.81,11.57-39.64,11.43-59.49-.47,19.76-11.55,39.59-11.38,59.49.47h0Z"/>
    <path class="cls-21" d="M297.7,296.49c2.18,1.55.75,7.3-3.2,12.84-3.94,5.55-8.89,8.79-11.08,7.24-2.18-1.55-.75-7.3,3.2-12.84,3.94-5.55,8.89-8.79,11.08-7.24h0Z"/>
  </g>
</svg>