<?xml version="1.0" encoding="UTF-8"?>
<svg id="Camada_1" data-name="Camada 1" xmlns="http://www.w3.org/2000/svg" xmlns:xlink="http://www.w3.org/1999/xlink" viewBox="0 0 422.07 422.07">
  <defs>
    <style>
      .cls-1 {
        stroke: #bd547c;
      }

      .cls-1, .cls-2, .cls-3, .cls-4, .cls-5, .cls-6, .cls-7, .cls-8, .cls-9, .cls-10, .cls-11, .cls-12, .cls-13, .cls-14, .cls-15, .cls-16, .cls-17, .cls-18, .cls-19, .cls-20, .cls-21, .cls-22, .cls-23, .cls-24, .cls-25, .cls-26, .cls-27, .cls-28, .cls-29, .cls-30, .cls-31, .cls-32, .cls-33, .cls-34, .cls-35, .cls-36, .cls-37, .cls-38, .cls-39, .cls-40, .cls-41, .cls-42, .cls-43 {
        fill: none;
        stroke-miterlimit: 10;
      }

      .cls-2 {
        stroke: #a05867;
      }

      .cls-3 {
        stroke: #b9b6d1;
      }

      .cls-4 {
        stroke: #fdb6c2;
      }

      .cls-5 {
        stroke: #98385e;
      }

      .cls-44 {
        fill: #edc5dc;
      }

      .cls-6 {
        stroke: #98647c;
      }

      .cls-45 {
        fill: #f17074;
      }

      .cls-7 {
        stroke: #dc5f93;
      }

      .cls-8 {
        stroke: #f4a1b4;
      }

      .cls-9 {
        stroke: #b190a2;
      }

      .cls-10 {
        stroke: #817484;
      }

      .cls-46 {
        fill: #fff;
      }

      .cls-11 {
        stroke: #39112a;
      }

      .cls-12 {
        stroke: #a8c7e6;
      }

      .cls-13 {
        stroke: #211040;
      }

      .cls-14 {
        stroke: #f5a8c9;
      }

      .cls-15 {
        stroke: #9a3a48;
      }

      .cls-16 {
        stroke: #396580;
      }

      .cls-47 {
        fill: #fc8ab6;
      }

      .cls-48 {
        fill: #63c9f0;
      }

      .cls-49 {
        fill: #fdadb2;
      }

      .cls-17 {
        stroke: #f8d3e5;
      }

      .cls-18 {
        stroke: #f5b9c7;
      }

      .cls-19 {
        stroke: #210f48;
      }

      .cls-50 {
        fill: #f3e7f9;
      }

      .cls-51 {
        fill: #fdbed1;
      }

      .cls-20 {
        stroke: #f5c2d7;
      }

      .cls-21 {
        stroke: #b7475b;
      }

      .cls-52 {
        fill: #ed6ca0;
      }

      .cls-22 {
        stroke: #a04769;
      }

      .cls-53 {
        fill: #332070;
      }

      .cls-23 {
        stroke: #fda4c4;
      }

      .cls-24 {
        stroke: #be8ea0;
      }

      .cls-25 {
        stroke: #b54571;
      }

      .cls-26 {
        stroke: #7e3658;
      }

      .cls-27 {
        stroke: #e488ab;
      }

      .cls-28 {
        stroke: #b0708b;
      }

      .cls-54 {
        fill: #632145;
      }

      .cls-29 {
        stroke: #872a50;
      }

      .cls-55 {
        fill: #ca5185;
      }

      .cls-56 {
        fill: #eb8396;
      }

      .cls-30 {
        stroke: #abd8f5;
      }

      .cls-57 {
        fill: #0f000f;
      }

      .cls-31 {
        stroke: #bd6e89;
      }

      .cls-58 {
        fill: url(#Gradiente_sem_nome_10);
      }

      .cls-32 {
        stroke: #f0d6eb;
      }

      .cls-33 {
        stroke: #60102e;
      }

      .cls-34 {
        stroke: #b5718f;
      }

      .cls-35 {
        stroke: #bd657a;
      }

      .cls-59 {
        fill: #84a7c6;
      }

      .cls-36 {
        stroke: #864563;
      }

      .cls-37 {
        stroke: #290215;
      }

      .cls-38 {
        stroke: #a06176;
      }

      .cls-39 {
        stroke: #9b758a;
      }

      .cls-40 {
        stroke: #a43763;
      }

      .cls-60 {
        fill: #43031b;
      }

      .cls-61 {
        fill: #7d1d41;
      }

      .cls-41 {
        stroke: #331f79;
      }

      .cls-42 {
        stroke: #6d294a;
      }

      .cls-43 {
        stroke: #7e6376;
      }
    </style>
    <linearGradient id="Gradiente_sem_nome_10" data-name="Gradiente sem nome 10" x1="15.59" y1="49.92" x2="371.99" y2="343.72" gradientUnits="userSpaceOnUse">
      <stop offset="0" stop-color="#331d81"/>
      <stop offset="1" stop-color="#16085e"/>
    </linearGradient>
  </defs>
  <rect class="cls-58" x="-.57" width="423.22" height="422.07"/>
  <g>
    <path class="cls-19" d="M295.27,421.73c1.56,1.52,3.33,1.68,5.32.45.67-.42,1.01-1.23.8-2.01l-16.31-61.74c-.38-1.45.31-2.97,1.68-3.62,16.22-7.57,30.15-18.05,41.84-31.38.87-1.01,2.41-1.01,3.31-.02,5.03,5.54,16.66,12.49,23.27,5.74.87-.89,2.21-1.14,3.33-.6,9.92,4.69,19.86,7.04,25.42-5.63,1.23-2.84,3.69-4.31,7.33-4.42.49-.02.96-.11,1.43-.29,8.76-3.44,19.37-10.23,19.07-20.35-.38-12.44-11.7-11.99-21.51-12.64-.76-.07-1.45-.47-1.88-1.09-2.72-4.04-4-6.99-9.78-7.33-5.61-.31-9.63-.42-12.06-.34-1.5.07-2.37-1.68-1.41-2.84l3.22-3.84c1.34-1.59,3.28-2.55,5.34-2.61,6.72-.27,16.73-3.04,19.41-10.59.09-.22.13-.45.13-.69l.18-6.92c.02-.78.51-1.47,1.25-1.76,8.55-3.26,20.84-12.53,15.39-22.98-.56-1.05-1.14-2.17-1.74-3.35-.33-.63-.38-1.38-.09-2.03,3.73-8.91,7.13-15.68,6.39-25.78-.07-.71-.25-1.43-.56-2.1-3.73-7.97-9.94-10.25-18.65-6.83-2.66,1.05-6.39,4.27-11.19,9.65-.54.6-1.32.92-2.12.85-8.87-.69-16.33,2.9-22.38,10.79-.11.16-.34.22-.51.16l-1.38-.42c-.58-.18-.71-.94-.22-1.3,6.43-4.8,12.75-11.57,8.2-20.35-.47-.87-.29-1.94.42-2.61,5.52-5.36,10.94-10.03,12.31-17.38,1.01-5.47-.96-9.92-5.92-13.31-1.03-.69-1.5-1.99-1.12-3.17,2.08-6.86,2.57-13.65,1.43-20.37-2.08-12.17-8.91-17.58-20.5-16.22-8.33.98-13.76,13.98-15.37,20.79-.29,1.23-1.41,2.08-2.68,2.03-11.26-.31-14.85,7.68-17.87,17.38-.22.74-.98,1.18-1.72,1.03-7.3-1.45-12.46,1.41-15.48,8.6-.56,1.27-2.57,6.59-6.08,15.93-.36.94-1.47,1.3-2.32.76-15.7-10.12-32.77-16.71-51.17-19.81"/>
    <path class="cls-41" d="M239.7,157.14c-17.13-4.15-34.6-5.45-52.4-3.89-18.92,1.68-36.61,8.82-53,17.56-1.94,1.03-4.31-.18-4.6-2.37-2.03-15.68-13.4-20.04-25.46-26.71"/>
    <path class="cls-19" d="M104.23,141.73c-3.1-7.01-8.13-9.76-15.1-8.22-.83.2-1.7-.29-1.97-1.12-3.71-11.12-6.79-21.51-20.1-23.83-.83-.13-1.68-.02-2.46.29-16.51,6.83-16.19,24.19-11.68,39.07.22.74-.13,1.54-.85,1.85-15.34,6.63-3.24,23.7,5.52,31.07.92.78,1.05,1.74.45,2.93-3.91,7.59.22,15.81,6.88,20.73.34.25.4.71.13,1.03l-.76.92c-.36.4-.98.4-1.34,0-5.96-6.86-11.23-15.28-20.73-10.14-.74.4-1.65.18-2.14-.51-4.2-6.21-10.41-13.11-18.61-12.91-20.35.45-13.45,25.44-5.96,35.47.74.98.63,2.37-.27,3.22-8.49,8.2-.67,18.16,7.77,22.85,3.26,1.83,5.16,2.99,5.7,3.46.65.6,1.03,1.45,1.05,2.35.16,9,5.2,14.3,15.14,15.93,4.31.69,6.99.96,8.09.78,1.43-.22,2.81.58,3.33,1.92l2.55,6.5c.51,1.32-.58,2.68-1.97,2.48-6.46-.96-17.15-2.81-20.73,4.96-.8,1.74-2.17,2.55-4.11,2.39-8.24-.6-14.29,1.32-18.2,5.81-.42.47-.76.98-1.01,1.56-6.54,15.26,11.32,25.02,23.41,26.91,1.85.29,3.42,1.56,4.07,3.33,2.77,7.53,8.51,10.27,17.22,8.22,3.77-.89,6.08-1.61,6.92-2.17.58-.38,1.27-.49,1.94-.36,3.04.67,6.08,3.89,8.87,3.91,6.79.02,11.86-4.13,16.84-8.82.87-.83,2.26-.74,3.02.2,10.94,13.62,26.71,24.17,42.3,31.92,1.32.65,1.92,2.19,1.41,3.55-1.18,3.19-2.08,6.34-2.66,9.47-.16.92-.4,1.83-.74,2.7-5.61,14.99-9.87,30.8-12.8,47.44-.38,2.17.11,3.44,1.47,3.82,1.23.34,2.84-.11,4.82-1.38"/>
    <path class="cls-13" d="M104.23,141.73l2.55,8.73c.18.63.78,1.05,1.45.98,15.59-1.63,17.24,11.77,21.13,23.83.56,1.7,2.59,2.41,4.09,1.43,17.36-11.46,36.41-18.32,57.14-20.53,16.33-1.74,32.7-1.43,49.12.96"/>
    <line class="cls-16" x1="295.27" y1="421.73" x2="290.67" y2="402.61"/>
    <line class="cls-43" x1="290.67" y1="402.61" x2="286.42" y2="388.29"/>
    <line class="cls-16" x1="286.42" y1="388.29" x2="281.98" y2="372.86"/>
    <line class="cls-43" x1="281.98" y1="372.86" x2="280.1" y2="367.45"/>
    <line class="cls-36" x1="280.1" y1="367.45" x2="277.11" y2="356.28"/>
    <line class="cls-37" x1="277.11" y1="356.28" x2="276.24" y2="352.73"/>
    <path class="cls-36" d="M276.24,352.73c20.68-7.84,39.33-21.11,50.99-40.09"/>
    <line class="cls-37" x1="327.23" y1="312.64" x2="335.09" y2="316.88"/>
    <path class="cls-26" d="M335.09,316.88c2.46,2.06,4.76,4.22,6.92,6.5,2.12,2.21,5.54,2.37,7.62.34.67-.67,1.16-1.59,1.45-2.73.29-1.16,1.5-1.83,2.64-1.47l17.04,5.27c2.84.87,5.76-1.09,6.01-4.04l.34-3.82c.11-1.38,1.21-2.5,2.59-2.61,9.49-.87,20.35-4.13,25.11-12.58,1.5-2.66,1.32-5.67-.42-7.21-6.61-5.79-17.09-1.97-24.66-2.75-.54-.04-.8-.65-.51-1.09,2.39-3.6,3.02-5.76,1.85-6.48-.25-.16-.54-.29-.83-.38-7.57-2.23-12.6,1.32-18.9,1.23-1.63-.02-2.88-1.41-2.75-3.04l.27-2.97c.09-.98-.76-1.81-1.74-1.72l-11.41,1.03"/>
    <path class="cls-37" d="M345.7,278.35c-1.05-2.81-1.63-5.78-1.74-8.93"/>
    <path class="cls-42" d="M343.96,269.42c4.76.49,8.96.25,12.58-.71"/>
    <path class="cls-26" d="M356.54,268.7c2.28-.29,4-.92,5.18-1.9.6-.49.89-1.27.78-2.06-.16-1.05-.11-2.17.09-3.33.22-1.25,1.43-1.76,3.64-1.56,6.14.58,12.49-.51,19.07-3.31,2.1-.87,2.77-3.51,1.36-5.29l-3.31-4.18c-.92-1.16-.34-2.9,1.12-3.26,6.5-1.7,18.09-6.23,20.82-13.02.6-1.52,0-3.24-1.41-4.07l-4.22-2.43c-.89-.51-1.16-1.68-.58-2.52,4.74-6.97,14.72-24.88,6.68-32.12-1.83-1.63-4.89-1.79-7.71-.36-6.66,3.42-10.16,10.32-15.05,17.49-1.01,1.45-3.28.65-3.13-1.09l.18-1.94c.16-1.76-1.52-3.15-3.24-2.66-6.63,1.88-9.81,8.11-14.45,14.92-1.47,2.17-4.85,1.47-5.36-1.12l-.58-3.02c-.18-.87-.94-1.5-1.83-1.52-1.36-.02-2.88.54-4.6,1.68"/>
    <path class="cls-37" d="M349.99,212.04c-5.61,5.45-11.82,9.11-18.58,11.01-.42.11-.87-.09-1.05-.49-.18-.4-.04-.87.31-1.12,5.63-3.8,9.22-9.58,10.79-17.35"/>
    <path class="cls-26" d="M341.46,204.09c6.54-2.95,11.59-5.54,15.12-7.77,2.5-1.56,3.82-3.91,3.98-7.04.04-.65-.29-1.27-.87-1.61l-4.8-2.77c-1.25-.71-1.36-2.46-.25-3.35,7.19-5.72,16.39-11.59,17.96-20.33.4-2.21-1.21-4.29-3.44-4.49l-4.38-.38c-1.01-.09-1.7-1.03-1.5-2.01,2.1-10.1,9.09-30.71-3.57-38.06-5.9-3.42-11.86,3.82-13.69,8.78-3.28,8.85-5.61,15.08-6.95,18.7-.49,1.34-2.26,1.63-3.13.51l-2.66-3.39c-1.45-1.83-4.27-1.68-5.49.29-2.86,4.58-5.32,11.48-7.35,20.75-.38,1.72-2.59,2.23-3.69.85l-3.73-4.76c-.6-.76-1.56-1.12-2.5-.92-2.48.51-4.29,2.46-5.45,5.81-2.41,7.01-5.05,13.78-7.88,20.28"/>
    <path class="cls-37" d="M297.19,183.18c8.15,10.9,8.87,13.62,2.17,8.2"/>
    <path class="cls-10" d="M299.36,191.38c-27.56-21.76-59.21-31.83-94.97-30.22-28.41,1.27-53.85,10.45-76.34,27.54"/>
    <path class="cls-37" d="M128.04,188.7c-1.54-2.12-1.97-4.49-1.27-7.1"/>
    <path class="cls-26" d="M126.77,181.59c-3.1-4.76-5.63-10.63-7.59-17.62-.31-1.14-1.34-2.81-3.06-5.03-2.99-3.84-7.35-.42-8.24,3.1-.45,1.76-2.93,1.85-3.48.11-3.31-10.14-5.47-20.39-9.94-22.78-1.3-.67-2.95-.11-3.77,1.3-1.05,1.76-1.61,2.66-1.65,2.73-1.21,1.14-3.17.8-3.91-.69-1.01-2.03-3.64-8.49-7.95-19.32-3.55-8.93-13.31-11.37-18.27-1.94-5,9.47-1.23,22.38,1.81,32.66.31,1.01-.51,2.01-1.56,1.94-2.68-.22-4.62.09-5.85.92-1.76,1.21-2.43,3.6-1.68,5.85,2.75,8.09,9.72,12.91,17.33,19.01,1.25,1.01,1.01,2.99-.47,3.64l-4.33,1.92c-.78.36-1.32,1.12-1.36,1.97-.58,8.11,11.91,11.61,19.45,14.81,3.06,1.3,7.77,4.87,14.14,10.74"/>
    <path class="cls-37" d="M96.37,214.9c.83,5.79-1.94,9.34-8.31,10.7"/>
    <path class="cls-26" d="M88.06,225.6l-14.7-14.32c-1.88-1.83-5.03-1.03-5.81,1.47l-.65,2.1c-.69,2.23-3.64,2.75-5.03.85-4.07-5.56-7.68-9.96-10.88-13.2-1.92-1.97-4.76-2.32-6.41-.8-.38.36-.6,1.36-.63,3.02-.02,1.47-1.85,2.12-2.81,1.01-3.24-3.8-10.99-14.67-16.22-16.37-5.61-1.83-9.02.07-10.25,5.67-1.79,8,4.74,19.68,9.2,26.67.47.71.31,1.68-.38,2.21l-5.41,4.27c-.89.71-1.07,2.01-.36,2.93,5.25,6.77,11.77,10.7,19.57,11.84"/>
    <path class="cls-42" d="M37.31,242.93c1.32.67,2.41,1.47,3.28,2.43.6.67.51,1.7-.18,2.26l-2.21,1.74c-1.81,1.43-1.92,4.13-.25,5.72,5.18,4.89,14.65,4.8,22.2,5.27.16.02.31.11.4.27,2.55,5.38,4.89,8.18,7.06,8.35,3.82.31,7.71.47,11.66.49"/>
    <path class="cls-37" d="M79.28,269.46l1.38-.09c.63-.04,1.18.45,1.23,1.09.22,3.33-.11,5.9-1.01,7.71"/>
    <path class="cls-26" d="M80.89,278.17l-16.06-1.09c-1.16-.07-1.88,1.25-1.16,2.17l1.65,2.1c.56.74.34,1.79-.47,2.21-2.95,1.56-5.32,1.99-7.1,1.25-4.4-1.76-8.64-2.28-12.69-1.54-1.94.36-3.04,2.43-2.23,4.24l.67,1.54c.69,1.54-.54,3.24-2.21,3.1-7.24-.58-17.76-2.41-22.22,3.22-5.99,7.59,8.71,15.61,14.21,16.91,6.01,1.41,9.98,2.17,11.91,2.32.76.07,1.38.63,1.54,1.38.47,2.39.63,3.95.47,4.65-.56,2.64,2.19,4.91,5.34,4.42,5.2-.83,11.06-3.04,17.58-6.66.83-.47,1.88,0,2.05.92,1.18,5.47,3.46,7.3,6.86,5.45,4.02-2.19,7.75-5.36,11.19-9.52.42-.49.63-.98.65-1.5,0-.56-.11-1.12-.36-1.7"/>
    <line class="cls-37" x1="90.49" y1="312.06" x2="94.74" y2="308.62"/>
    <path class="cls-36" d="M94.74,308.62c11.77,23.52,32.36,36.14,56.02,46.01"/>
    <path class="cls-37" d="M150.76,354.63c-.6,1.23-1.34,2.21-2.21,2.99"/>
    <path class="cls-36" d="M148.54,357.62c-.38-.22-.71-.36-1.03-.42-.56-.11-1.09.25-1.23.78l-2.55,9.49"/>
    <line class="cls-43" x1="143.74" y1="367.47" x2="142" y2="372.3"/>
    <line class="cls-16" x1="142" y1="372.3" x2="137.13" y2="388.58"/>
    <line class="cls-43" x1="137.13" y1="388.58" x2="133.2" y2="403.12"/>
    <line class="cls-16" x1="133.2" y1="403.12" x2="128.96" y2="421.28"/>
    <path class="cls-25" d="M88.55,230.78c-21.02-2.41-37.21-11.91-54.86-22.74-1.25-.78-2.9-.49-3.82.67-4.69,5.78,8.73,24.55,12.66,29.01"/>
    <path class="cls-7" d="M42.54,237.72c-1.38,2.26-3.13,3.98-5.23,5.2"/>
    <path class="cls-5" d="M341.46,204.09c-4.91,2.3-9.58,5.58-14.03,9.83-.45.42-1.16.38-1.54-.11l-3.1-3.91"/>
    <path class="cls-25" d="M322.79,209.89c21.42-16.6,32.34-38.31,32.72-65.13.04-2.68-1.16-4.51-3.62-5.47-.71-.29-1.54-.13-2.1.4-1.85,1.76-4.42,5.18-7.71,10.3-9.96,15.48-23.74,27.41-41.32,35.8"/>
    <path class="cls-5" d="M300.76,185.79l-3.57-2.61M349.99,212.04l-11.1,11.68c-.16.16-.31.27-.49.38l-4.29,2.48c-.07.02-.11.07-.16.13-.6,1.05-.22,2.43,1.14,4.15"/>
    <path class="cls-33" d="M335.09,230.87c1.7.78,2.23,2.03,1.61,3.75"/>
    <line class="cls-6" x1="336.7" y1="234.62" x2="340.39" y2="248.2"/>
    <line class="cls-2" x1="340.39" y1="248.2" x2="341.39" y2="253.87"/>
    <path class="cls-33" d="M341.39,253.87c-.38,2.52-.2,4.65.49,6.34"/>
    <path class="cls-29" d="M341.88,260.22c-.18,4.09.51,7.15,2.08,9.2"/>
    <path class="cls-5" d="M345.7,278.35c-2.61-.11-3.4,1.81-2.35,5.72"/>
    <path class="cls-33" d="M343.36,284.07c.58.69.85,1.27.78,1.74-.07.4-.36.85-.92,1.36"/>
    <line class="cls-38" x1="343.22" y1="287.18" x2="336.99" y2="304.89"/>
    <path class="cls-33" d="M336.99,304.89c-1.41-.29-2.14,1.18-2.21,4.4"/>
    <path class="cls-5" d="M334.78,309.29c-2.52,3.95-2.43,6.5.31,7.59"/>
    <line class="cls-22" x1="327.23" y1="312.64" x2="329.15" y2="308.11"/>
    <path class="cls-38" d="M329.15,308.11c12.75-27.36,9.45-59.15-4.51-85.5"/>
    <path class="cls-25" d="M334.78,309.29c16.15,4.67,32.05,4.07,47.66-1.81,1.7-.65,3.42-1.61,5.14-2.9,2.39-1.79,1.76-5.52-1.07-6.46-3.42-1.14-8.93-2.35-16.55-3.66-7.21-1.25-16.08-4.71-26.6-10.39"/>
    <path class="cls-12" d="M286.42,388.29c-1.85,2.08-3.66,3.91-5.47,5.49-2.93,2.52-4.78,4.31-5.61,5.36-5.41,6.86-7.66,14.41-6.79,22.67"/>
    <path class="cls-22" d="M276.24,352.73l-26.78,8.91c-.87.29-1.43,1.09-1.32,1.94v.04c.11.87.89,1.47,1.76,1.38,9.16-1.01,18.23-3.91,27.21-8.73"/>
    <path class="cls-14" d="M280.1,367.45c-7.88,7.39-14.47,11.66-19.77,12.82-8.2,1.81-16.19,3.53-24.03,5.16"/>
    <path class="cls-23" d="M236.3,385.43c-17.47,3.19-34.64,2.75-51.55-1.34"/>
    <path class="cls-14" d="M184.75,384.09c-7.13-1.63-14.29-2.99-21.53-4.13-7.71-1.21-14.21-5.36-19.48-12.49"/>
    <path class="cls-22" d="M148.54,357.62c7.95,3.86,16.28,6.3,25.02,7.3.6.07,1.16-.31,1.34-.89l.16-.6c.25-.83-.25-1.7-1.09-1.94l-23.21-6.86"/>
    <line class="cls-5" x1="126.77" y1="181.59" x2="120.45" y2="185.99"/>
    <path class="cls-25" d="M120.45,185.99c-9.27-6.28-15.72-10.97-19.32-14.12-9.94-8.69-18.47-18.96-25.6-30.82-1.27-2.1-4.31-2.08-5.54.04l-1.68,2.93c-.25.4-.4.83-.49,1.3-.58,3.1.2,9.27,2.37,18.47,4.71,20.08,14.76,35.34,30.15,45.74"/>
    <path class="cls-5" d="M100.34,209.54c-.31,1.79-1.63,3.57-3.98,5.36"/>
    <path class="cls-38" d="M90.76,243.69c-7.04,22.98-5.78,44.43,3.77,64.33"/>
    <path class="cls-22" d="M94.54,308.02c.07.2.13.4.2.6"/>
    <path class="cls-5" d="M90.49,312.06c-.98-.8-1.76-1.92-2.35-3.37"/>
    <path class="cls-33" d="M88.15,308.69c-1.45-1.23-2.03-2.46-1.76-3.66"/>
    <line class="cls-22" x1="86.38" y1="305.02" x2="83.82" y2="298.72"/>
    <line class="cls-38" x1="83.82" y1="298.72" x2="81.13" y2="287.65"/>
    <path class="cls-33" d="M81.13,287.65c-.58-.76-.85-2.05-.78-3.86"/>
    <line class="cls-5" x1="80.35" y1="283.78" x2="80.89" y2="278.17"/>
    <line class="cls-29" x1="79.28" y1="269.46" x2="79.79" y2="264.84"/>
    <path class="cls-33" d="M79.79,264.84c2.3-2.37,2.84-5.23,1.65-8.55"/>
    <line class="cls-22" x1="81.45" y1="256.29" x2="83.41" y2="247.26"/>
    <line class="cls-38" x1="83.41" y1="247.26" x2="86.83" y2="236.7"/>
    <path class="cls-33" d="M86.83,236.7c1.45-1.68,2.03-3.64,1.72-5.92"/>
    <path class="cls-5" d="M88.55,230.78c.63-.76,1.05-1.45,1.25-2.06.2-.6.09-1.21-.36-1.76-.36-.47-.83-.92-1.38-1.36"/>
    <path class="cls-7" d="M356.54,268.7c-4.33-.83-8.15-3.71-11.48-8.64"/>
    <path class="cls-25" d="M345.06,260.06c23.18-7.88,42.57-22.56,49.59-46.75.78-2.68-1.12-5.38-3.82-5.43-1.63-.02-3.37.71-5.27,2.26-14.85,11.91-31.67,18.81-50.46,20.73"/>
    <path class="cls-12" d="M156.65,421.77c-.94-10.34-3.69-17.67-8.22-21.93-3.71-3.48-7.48-7.24-11.3-11.26M281.98,372.86c-5.11,1.63-9.18,5.11-12.22,10.45-1.47,2.61-2.14,5.38-1.99,8.35.29,5.67-4.38,11.03-9.09,15.32-.45.42-.8.89-1.09,1.41-2.3,4.31-3.15,8.8-2.57,13.47M170.46,421.95c.29-6.46-1.3-11.48-4.76-15.08-3.48-3.64-5.34-5.65-5.56-6.05-3.28-5.94-5.41-12.31-6.37-19.12-.11-.76-.54-1.43-1.14-1.88l-10.63-7.53"/>
    <path class="cls-20" d="M184.75,384.09c5.67,9.14,9.27,18.74,10.79,28.86.13.89.85,1.56,1.74,1.65l29.55,2.5c1.16.11,2.23-.67,2.5-1.81l6.97-29.86"/>
    <path class="cls-12" d="M290.67,402.61c-8.76,1.99-12.58,8.4-11.48,19.23"/>
    <path class="cls-25" d="M80.35,283.78c-14.94,9.22-27.12,11.06-43.33,13.29-1.61.22-2.57,1.92-1.9,3.42,1.25,2.86,3.51,5,6.77,6.46,15.23,6.79,30.64,7.37,46.26,1.74"/>
    <path class="cls-12" d="M146.53,421.77c-2.43-8.09-2.08-18.07-13.33-18.65"/>
    <path class="cls-39" d="M299.36,191.38c10.21,9.58,18.65,19.99,25.28,31.23"/>
    <path class="cls-17" d="M324.64,222.6c.2,1.18.18,2.12-.07,2.81-.25.67-1.12.85-1.59.31-6.43-7.37-12.02-16.53-18.92-22.67-7.57-6.75-16.42-12.37-26.51-16.91"/>
    <line class="cls-32" x1="277.56" y1="186.15" x2="266.9" y2="182.02"/>
    <line class="cls-30" x1="266.9" y1="182.02" x2="263.64" y2="180.52"/>
    <path class="cls-32" d="M263.64,180.52c-6.97-5.96-14.9-8.29-23.77-6.97"/>
    <path class="cls-30" d="M239.88,173.55c-7.5-1.94-15.12-2.39-22.87-1.3-3.04.42-5.87.49-8.51.16-9.54-1.21-18.05-1.54-27.14,2.1"/>
    <path class="cls-32" d="M181.36,174.51c-6.77-.2-13,1.52-18.74,5.16"/>
    <path class="cls-30" d="M162.62,179.67c-1.99.38-3.91,1.38-5.72,3.02"/>
    <line class="cls-32" x1="156.9" y1="182.69" x2="149.73" y2="184.97"/>
    <path class="cls-17" d="M149.73,184.97c-18.63,8.84-34.26,18.27-45.45,35.76-3.8,5.92-6.39,13.74-9.65,21.24-.65,1.47-1.92,2.05-3.86,1.72"/>
    <path class="cls-39" d="M90.76,243.69c6.63-21.6,19.07-39.91,37.28-54.99"/>
    <path class="cls-31" d="M86.83,236.7c.13-1.16-.16-1.79-.85-1.88-19.63-2.41-36.09-11.1-52.62-22.56-.49-.34-1.12.22-.83.74l10.14,17.96"/>
    <path class="cls-1" d="M42.67,230.96c10.16,11.99,23.1,20.44,38.78,25.33"/>
    <path class="cls-40" d="M79.79,264.84c.07-1.25-.02-2.35-.27-3.31-.2-.69-.69-1.27-1.34-1.59-13.2-6.41-24.88-9.98-35.65-22.22M345.06,260.06c-.71-.16-1.76-.11-3.17.16"/>
    <path class="cls-35" d="M341.39,253.87c.22,1.54.69,2.19,1.41,1.99,17.98-5.12,32.07-15.43,42.24-30.91"/>
    <path class="cls-34" d="M385.04,224.95l4.33-9.49c.36-.78-.29-1.65-1.18-1.56-.11.02-.36.16-.69.4-14.85,11.41-31.78,18.2-50.79,20.33"/>
    <path class="cls-33" d="M322.79,209.89c.65-1.59.09-2.84-1.65-3.75"/>
    <path class="cls-35" d="M321.13,206.14c14.76-11.68,24.19-26.49,28.25-44.47"/>
    <path class="cls-34" d="M349.39,161.67c1.23-4.94,2.03-10.07,2.41-15.39.04-.76-.63-1.38-1.38-1.3-.27.02-.54.27-.8.74-10.16,17.98-24.55,31.85-43.2,41.61-.29.18-.51.47-.58.8-.11.56,0,1.05.34,1.52"/>
    <path class="cls-33" d="M306.17,189.66c-2.01-.87-3.82-2.14-5.41-3.86"/>
    <path class="cls-31" d="M336.99,304.89c15.17,4.98,29.95,4.47,44.38-1.52.96-.4.83-1.81-.2-2.01-13-2.52-27.18-6.25-37.95-14.18"/>
    <line class="cls-2" x1="321.13" y1="206.14" x2="313.05" y2="196.76"/>
    <path class="cls-23" d="M329.15,308.11c-8.2,5.58-16.22,13.36-23.41,17.87-13.58,8.51-27.83,14.61-42.75,18.32-24.26,6.03-40.52,9.51-61.4,7.5-9.98-.96-24.68-3.77-44.14-8.44-16.62-4-29.62-9.76-39.02-17.31-7.44-5.99-15.39-11.99-23.9-18.03"/>
    <path class="cls-18" d="M349.39,161.67c-4.53,5.9-8.84,11.64-12.98,17.2-4.74,6.41-12.53,12.37-23.36,17.89"/>
    <line class="cls-6" x1="313.05" y1="196.76" x2="306.17" y2="189.66"/>
    <path class="cls-18" d="M385.04,224.95c-8.09,4.62-15.77,9.69-23.05,15.21-4.27,3.24-11.48,5.92-21.6,8.04"/>
    <path class="cls-33" d="M120.45,185.99c-1.63.11-2.41,1.09-2.35,2.93"/>
    <path class="cls-31" d="M118.1,188.92c-18.52-10.65-33.39-25.04-44.6-43.15-.45-.71-1.56-.31-1.43.54l3.15,19.68"/>
    <path class="cls-35" d="M75.22,165.98c4.87,17.24,14.88,28.37,27.52,40.58"/>
    <path class="cls-33" d="M102.73,206.57c-.16.6-.96,1.59-2.39,2.97"/>
    <line class="cls-23" x1="83.41" y1="247.26" x2="42.67" y2="230.96"/>
    <line class="cls-2" x1="110.13" y1="197.56" x2="102.73" y2="206.57"/>
    <line class="cls-23" x1="83.82" y1="298.72" x2="50.91" y2="306.03"/>
    <path class="cls-31" d="M81.13,287.65c-11.86,7.1-24.61,11.46-38.24,13.04-1.12.13-1.32,1.68-.27,2.08l8.29,3.26"/>
    <path class="cls-1" d="M50.91,306.03c11.55,3.24,23.36,2.9,35.47-1.01"/>
    <line class="cls-38" x1="118.1" y1="188.92" x2="110.13" y2="197.56"/>
    <line class="cls-4" x1="110.13" y1="197.56" x2="75.22" y2="165.98"/>
    <path class="cls-12" d="M239.88,173.55c1.63.49,2.68,1.01,3.15,1.52,1.3,1.43.74,3.73-1.07,4.4-8.53,3.15-16.06,3.6-19.45,14.38-2.77,8.78-4.04,21.02-13.51,17.42-1.61-.63-2.86-1.94-3.33-3.6-1.14-3.84-2.64-8.67-4.53-14.47-3.4-10.43-10.25-10.52-18.7-13.94-1.54-.65-2.26-1.76-2.14-3.35.02-.47.38-.94,1.07-1.41M263.64,180.52l-5.99-.54c-.78-.07-1.52.31-1.92,1.01l-2.75,4.74c-.38.69-1.03,1.21-1.79,1.47-6.81,2.26-13.8,1.41-18.45,8.78-1.05,1.65.18,3.82,2.14,3.77l21.82-.58c.63-.02,1.23-.18,1.76-.49,4.33-2.55,11.82-11.1,8.42-16.66"/>
    <path class="cls-20" d="M277.56,186.15c-4.4,2.88-8.64,6.48-12.78,10.77-3.46,3.6-6.25,6.12-8.42,7.62-8.44,5.76-11.46,17.53-18.16,21.38-9,5.16-16.08,9.96-21.29,14.43-.58.51-1.38.69-2.12.49-9.47-2.48-19.1-6.81-28.88-12.95-8.98-5.63-10.61-14.65-17.65-21.35-6.83-6.52-13.02-13.71-18.54-21.55"/>
    <path class="cls-12" d="M156.9,182.69c.34,18.16,19.14,18.56,32.14,16.26,1.38-.25,2.28-1.63,1.92-3.02-1.03-3.95-6.57-6.01-10.43-6.41-5.34-.54-9.34-3.08-11.99-7.66-1.34-2.28-3.46-2.88-5.92-2.19"/>
    <path class="cls-11" d="M93.08,219.95l.94-1.36c.13-.18.09-.45-.09-.58l-.25-.18c-5.11-3.57-9.52-6.12-9.83-5.65l-.27.38c-.31.45,3.55,3.73,8.67,7.33l.22.18c.2.13.47.09.6-.11"/>
    <path class="cls-12" d="M238.57,205.27c-3.58-1.29-8.01,1.93-9.9,7.19-1.9,5.26-.52,10.57,3.05,11.85,3.58,1.29,8.01-1.93,9.9-7.19,1.9-5.26.52-10.57-3.05-11.85M184.99,205.6c-3.53,1.53-4.55,6.91-2.34,11.99,2.23,5.08,6.88,7.96,10.39,6.43,3.53-1.53,4.55-6.91,2.34-11.99-2.23-5.08-6.88-7.96-10.39-6.43M218.81,220.97l-12.35-.74c-1.88-.11-3.46,1.32-3.57,3.17l-.13,2.17c-.31,5.32,3.69,9.87,8.91,10.19l.13.02c5.23.29,9.74-3.75,10.05-9.07l.11-2.17c.11-1.88-1.3-3.46-3.15-3.57"/>
    <path class="cls-27" d="M127.91,219.16l26.78-7.57c.54-.16.85-.71.69-1.23l-.25-.89c-1.18-4.2-6.99-6.23-12.98-4.53l-7.06,1.99c-5.99,1.7-9.87,6.48-8.67,10.68l.25.87c.16.54.71.85,1.23.69M268.44,211.52l28.48,7.57c.25.07.51-.07.58-.31l.47-1.79c1.05-3.91-3.19-8.44-9.45-10.12l-6.72-1.79c-6.25-1.65-12.17.18-13.22,4.09l-.47,1.76c-.07.27.07.51.34.58"/>
    <path class="cls-28" d="M172.24,255.95c0-16.82-13.62-30.44-30.44-30.44s-30.44,13.62-30.44,30.44,13.62,30.44,30.44,30.44,30.44-13.62,30.44-30.44"/>
    <path class="cls-31" d="M311.89,255.75c0-16.77-13.6-30.38-30.38-30.38s-30.38,13.6-30.38,30.38,13.6,30.38,30.38,30.38,30.38-13.6,30.38-30.38"/>
    <path class="cls-8" d="M100.34,295.73c6.46,7.1,14.56,8.96,24.28,5.56,3.46-1.21,5.54-2.57,6.19-4.11.89-2.03.83-4.6-.22-7.68-.25-.71-.8-1.32-1.52-1.61-10.72-4.36-20.1-3.62-28.14,2.19-1.83,1.34-2.1,3.98-.58,5.65M291.55,293.31c-.14,5.39,7.07,9.97,16.14,10.24,9.07.25,16.53-3.93,16.68-9.32.14-5.39-7.07-9.97-16.14-10.24-9.07-.25-16.53,3.93-16.68,9.32"/>
    <path class="cls-38" d="M211.62,333.52c21.2.02,37.35-6.68,53.63-20.42.67-.56,1.47-.96,2.32-1.21,6.59-1.81,14.32-4.18,17.44-10.39.54-1.07.22-2.39-.74-3.1-.98-.71-2.32-.63-3.19.22-7.53,7.26-16.89,9.18-28.1,5.76-15.41-4.74-26.29-8.13-41.34-8.13-15.03-.02-25.93,3.37-41.34,8.06-11.21,3.42-20.59,1.5-28.1-5.79-.87-.83-2.21-.92-3.19-.22-.96.71-1.27,2.03-.74,3.1,3.13,6.21,10.86,8.6,17.42,10.41.87.25,1.65.65,2.32,1.23,16.28,13.74,32.43,20.46,53.61,20.46"/>
    <path class="cls-9" d="M167.4,255.93c0-14.23-11.53-25.75-25.75-25.75s-25.75,11.53-25.75,25.75,11.53,25.75,25.75,25.75,25.75-11.53,25.75-25.75"/>
    <path class="cls-24" d="M307.06,255.91c0-14.14-11.46-25.6-25.6-25.6s-25.6,11.46-25.6,25.6,11.46,25.6,25.6,25.6,25.6-11.46,25.6-25.6"/>
    <path class="cls-24" d="M140.01,244.39c-6.59,3.74-8.82,12.27-4.97,19.06,3.86,6.77,12.32,9.23,18.92,5.49,6.59-3.74,8.82-12.27,4.97-19.06-3.86-6.77-12.32-9.23-18.92-5.49"/>
    <path class="cls-9" d="M290.15,256.84c0-7.71-6.25-13.96-13.96-13.96s-13.96,6.25-13.96,13.96,6.25,13.96,13.96,13.96,13.96-6.25,13.96-13.96"/>
    <path class="cls-15" d="M180.69,321.55c20.12,8.82,40.7,8.98,61.71.47"/>
    <path class="cls-33" d="M242.4,322.02c4.8-1.01,10.99-4.15,18.56-9.4.87-.6.6-1.99-.45-2.19-10.25-2.08-20.68-4.24-31.34-6.48-19.72-4.13-39.65-2.14-59.75,5.94-1.85.74-3.69,1.21-5.47,1.36-.8.07-1.09,1.09-.45,1.59,6.54,4.94,12.28,7.84,17.18,8.71"/>
    <path class="cls-21" d="M242.4,322.02c-20.37-13.6-40.94-13.76-61.71-.47"/>
    <path class="cls-3" d="M177.69,400.84c-1.92,6.48-.96,15.86,7.95,14.54,1.81-.27,3.22-1.9,3.33-3.91.85-14.76-7.75-20.82-20.44-23.05-1.5-.27-2.79,1.03-2.55,2.5,1.01,6.03,4.33,8.69,10.03,7.95,1.12-.16,2.01.89,1.68,1.97M246.11,401.36l8.24-3.66c1.83-.8,3.13-2.48,3.46-4.47l.16-.8c.4-2.06-1.45-3.82-3.48-3.33-12.53,3.13-21.42,11.06-18.94,24.1.42,2.26,2.99,3.57,5.49,2.81,4.02-1.23,6.41-4.24,7.17-9.05.13-.89-.2-1.79-.87-2.35l-1.52-1.27c-.67-.56-.51-1.63.29-1.99"/>
    <path class="cls-57" d="M104.23,141.73l2.55,8.73c.18.63.78,1.05,1.45.98,15.59-1.63,17.24,11.77,21.13,23.83.56,1.7,2.59,2.41,4.09,1.43,17.36-11.46,36.41-18.32,57.14-20.53,16.33-1.74,32.7-1.43,49.12.96,18.4,3.1,35.47,9.69,51.17,19.81.85.54,1.97.18,2.32-.76,3.51-9.34,5.52-14.65,6.08-15.93,3.02-7.19,8.17-10.05,15.48-8.6.74.16,1.5-.29,1.72-1.03,3.02-9.69,6.61-17.69,17.87-17.38,1.27.04,2.39-.8,2.68-2.03,1.61-6.81,7.04-19.81,15.37-20.79,11.59-1.36,18.43,4.04,20.5,16.22,1.14,6.72.65,13.51-1.43,20.37-.38,1.18.09,2.48,1.12,3.17,4.96,3.39,6.92,7.84,5.92,13.31-1.36,7.35-6.79,12.02-12.31,17.38-.71.67-.89,1.74-.42,2.61,4.56,8.78-1.76,15.55-8.2,20.35-.49.36-.36,1.12.22,1.3l1.38.42c.18.07.4,0,.51-.16,6.05-7.88,13.51-11.48,22.38-10.79.8.07,1.59-.25,2.12-.85,4.8-5.38,8.53-8.6,11.19-9.65,8.71-3.42,14.92-1.14,18.65,6.83.31.67.49,1.38.56,2.1.74,10.1-2.66,16.86-6.39,25.78-.29.65-.25,1.41.09,2.03.6,1.18,1.18,2.3,1.74,3.35,5.45,10.45-6.83,19.72-15.39,22.98-.74.29-1.23.98-1.25,1.76l-.18,6.92c0,.25-.04.47-.13.69-2.68,7.55-12.69,10.32-19.41,10.59-2.05.07-4,1.03-5.34,2.61l-3.22,3.84c-.96,1.16-.09,2.9,1.41,2.84,2.43-.09,6.45.02,12.06.34,5.79.34,7.06,3.28,9.78,7.33.42.63,1.12,1.03,1.88,1.09,9.81.65,21.13.2,21.51,12.64.29,10.12-10.32,16.91-19.07,20.35-.47.18-.94.27-1.43.29-3.64.11-6.1,1.59-7.33,4.42-5.56,12.66-15.5,10.32-25.42,5.63-1.12-.54-2.46-.29-3.33.6-6.61,6.75-18.25-.2-23.27-5.74-.89-.98-2.43-.98-3.31.02-11.68,13.33-25.62,23.81-41.84,31.38-1.36.65-2.05,2.17-1.68,3.62l16.31,61.74c.2.78-.13,1.59-.8,2.01-1.99,1.23-3.75,1.07-5.32-.45l-4.6-19.12-4.24-14.32-4.44-15.43-1.88-5.41-2.99-11.17-.87-3.55c20.68-7.84,39.33-21.11,50.99-40.09l7.86,4.24c2.46,2.06,4.76,4.22,6.92,6.5,2.12,2.21,5.54,2.37,7.62.34.67-.67,1.16-1.59,1.45-2.73.29-1.16,1.5-1.83,2.64-1.47l17.04,5.27c2.84.87,5.76-1.09,6.01-4.04l.34-3.82c.11-1.38,1.21-2.5,2.59-2.61,9.49-.87,20.35-4.13,25.11-12.58,1.5-2.66,1.32-5.67-.42-7.21-6.61-5.79-17.09-1.97-24.66-2.75-.54-.04-.8-.65-.51-1.09,2.39-3.6,3.02-5.76,1.85-6.48-.25-.16-.54-.29-.83-.38-7.57-2.23-12.6,1.32-18.9,1.23-1.63-.02-2.88-1.41-2.75-3.04l.27-2.97c.09-.98-.76-1.81-1.74-1.72l-11.41,1.03c-1.05-2.81-1.63-5.78-1.74-8.93,4.76.49,8.96.25,12.58-.71,2.28-.29,4-.92,5.18-1.9.6-.49.89-1.27.78-2.06-.16-1.05-.11-2.17.09-3.33.22-1.25,1.43-1.76,3.64-1.56,6.14.58,12.49-.51,19.07-3.31,2.1-.87,2.77-3.51,1.36-5.29l-3.31-4.18c-.92-1.16-.34-2.9,1.12-3.26,6.5-1.7,18.09-6.23,20.82-13.02.6-1.52,0-3.24-1.41-4.07l-4.22-2.43c-.89-.51-1.16-1.68-.58-2.52,4.74-6.97,14.72-24.88,6.68-32.12-1.83-1.63-4.89-1.79-7.71-.36-6.66,3.42-10.16,10.32-15.05,17.49-1.01,1.45-3.28.65-3.13-1.09l.18-1.94c.16-1.76-1.52-3.15-3.24-2.66-6.63,1.88-9.81,8.11-14.45,14.92-1.47,2.17-4.85,1.47-5.36-1.12l-.58-3.02c-.18-.87-.94-1.5-1.83-1.52-1.36-.02-2.88.54-4.6,1.68-5.61,5.45-11.82,9.11-18.58,11.01-.42.11-.87-.09-1.05-.49-.18-.4-.04-.87.31-1.12,5.63-3.8,9.22-9.58,10.79-17.35,6.54-2.95,11.59-5.54,15.12-7.77,2.5-1.56,3.82-3.91,3.98-7.04.04-.65-.29-1.27-.87-1.61l-4.8-2.77c-1.25-.71-1.36-2.46-.25-3.35,7.19-5.72,16.39-11.59,17.96-20.33.4-2.21-1.21-4.29-3.44-4.49l-4.38-.38c-1.01-.09-1.7-1.03-1.5-2.01,2.1-10.1,9.09-30.71-3.57-38.06-5.9-3.42-11.86,3.82-13.69,8.78-3.28,8.85-5.61,15.08-6.95,18.7-.49,1.34-2.26,1.63-3.13.51l-2.66-3.39c-1.45-1.83-4.27-1.68-5.49.29-2.86,4.58-5.32,11.48-7.35,20.75-.38,1.72-2.59,2.23-3.69.85l-3.73-4.76c-.6-.76-1.56-1.12-2.5-.92-2.48.51-4.29,2.46-5.45,5.81-2.41,7.01-5.05,13.78-7.88,20.28,8.15,10.9,8.87,13.62,2.17,8.2-27.56-21.76-59.21-31.83-94.97-30.22-28.41,1.27-53.85,10.45-76.34,27.54-1.54-2.12-1.97-4.49-1.27-7.1-3.1-4.76-5.63-10.63-7.59-17.62-.31-1.14-1.34-2.81-3.06-5.03-2.99-3.84-7.35-.42-8.24,3.1-.45,1.76-2.93,1.85-3.48.11-3.31-10.14-5.47-20.39-9.94-22.78-1.3-.67-2.95-.11-3.77,1.3-1.05,1.76-1.61,2.66-1.65,2.73-1.21,1.14-3.17.8-3.91-.69-1.01-2.03-3.64-8.49-7.95-19.32-3.55-8.93-13.31-11.37-18.27-1.94-5,9.47-1.23,22.38,1.81,32.66.31,1.01-.51,2.01-1.56,1.94-2.68-.22-4.62.09-5.85.92-1.76,1.21-2.43,3.6-1.68,5.85,2.75,8.09,9.72,12.91,17.33,19.01,1.25,1.01,1.01,2.99-.47,3.64l-4.33,1.92c-.78.36-1.32,1.12-1.36,1.97-.58,8.11,11.91,11.61,19.45,14.81,3.06,1.3,7.77,4.87,14.14,10.74.83,5.79-1.94,9.34-8.31,10.7l-14.7-14.32c-1.88-1.83-5.03-1.03-5.81,1.47l-.65,2.1c-.69,2.23-3.64,2.75-5.03.85-4.07-5.56-7.68-9.96-10.88-13.2-1.92-1.97-4.76-2.32-6.41-.8-.38.36-.6,1.36-.63,3.02-.02,1.47-1.85,2.12-2.81,1.01-3.24-3.8-10.99-14.67-16.22-16.37-5.61-1.83-9.02.07-10.25,5.67-1.79,8,4.74,19.68,9.2,26.67.47.71.31,1.68-.38,2.21l-5.41,4.27c-.89.71-1.07,2.01-.36,2.93,5.25,6.77,11.77,10.7,19.57,11.84,1.32.67,2.41,1.47,3.28,2.43.6.67.51,1.7-.18,2.26l-2.21,1.74c-1.81,1.43-1.92,4.13-.25,5.72,5.18,4.89,14.65,4.8,22.2,5.27.16.02.31.11.4.27,2.55,5.38,4.89,8.18,7.06,8.35,3.82.31,7.71.47,11.66.49l1.38-.09c.63-.04,1.18.45,1.23,1.09.22,3.33-.11,5.9-1.01,7.71l-16.06-1.09c-1.16-.07-1.88,1.25-1.16,2.17l1.65,2.1c.56.74.34,1.79-.47,2.21-2.95,1.56-5.32,1.99-7.1,1.25-4.4-1.76-8.64-2.28-12.69-1.54-1.94.36-3.04,2.43-2.23,4.24l.67,1.54c.69,1.54-.54,3.24-2.21,3.1-7.24-.58-17.76-2.41-22.22,3.22-5.99,7.59,8.71,15.61,14.21,16.91,6.01,1.41,9.98,2.17,11.91,2.32.76.07,1.38.63,1.54,1.38.47,2.39.63,3.95.47,4.65-.56,2.64,2.19,4.91,5.34,4.42,5.2-.83,11.06-3.04,17.58-6.66.83-.47,1.88,0,2.05.92,1.18,5.47,3.46,7.3,6.86,5.45,4.02-2.19,7.75-5.36,11.19-9.52.42-.49.63-.98.65-1.5,0-.56-.11-1.12-.36-1.7l4.24-3.44c11.77,23.52,32.36,36.14,56.02,46.01-.6,1.23-1.34,2.21-2.21,2.99-.38-.22-.71-.36-1.03-.42-.56-.11-1.09.25-1.23.78l-2.55,9.49-1.74,4.82-4.87,16.28-3.93,14.54-4.24,18.16c-1.99,1.27-3.6,1.72-4.82,1.38-1.36-.38-1.85-1.65-1.47-3.82,2.93-16.64,7.19-32.45,12.8-47.44.34-.87.58-1.79.74-2.7.58-3.13,1.47-6.28,2.66-9.47.51-1.36-.09-2.9-1.41-3.55-15.59-7.75-31.36-18.29-42.3-31.92-.76-.94-2.14-1.03-3.02-.2-4.98,4.69-10.05,8.85-16.84,8.82-2.79-.02-5.83-3.24-8.87-3.91-.67-.13-1.36-.02-1.94.36-.85.56-3.15,1.27-6.92,2.17-8.71,2.05-14.45-.69-17.22-8.22-.65-1.76-2.21-3.04-4.07-3.33-12.08-1.9-29.95-11.66-23.41-26.91.25-.58.58-1.09,1.01-1.56,3.91-4.49,9.96-6.41,18.2-5.81,1.94.16,3.31-.65,4.11-2.39,3.57-7.77,14.27-5.92,20.73-4.96,1.38.2,2.48-1.16,1.97-2.48l-2.55-6.5c-.51-1.34-1.9-2.14-3.33-1.92-1.09.18-3.77-.09-8.09-.78-9.94-1.63-14.99-6.92-15.14-15.93-.02-.89-.4-1.74-1.05-2.35-.54-.47-2.43-1.63-5.7-3.46-8.44-4.69-16.26-14.65-7.77-22.85.89-.85,1.01-2.23.27-3.22-7.48-10.03-14.38-35.02,5.96-35.47,8.2-.2,14.41,6.7,18.61,12.91.49.69,1.41.92,2.14.51,9.49-5.14,14.76,3.28,20.73,10.14.36.4.98.4,1.34,0l.76-.92c.27-.31.2-.78-.13-1.03-6.66-4.91-10.79-13.13-6.88-20.73.6-1.18.47-2.14-.45-2.93-8.76-7.37-20.86-24.44-5.52-31.07.71-.31,1.07-1.12.85-1.85-4.51-14.88-4.82-32.23,11.68-39.07.78-.31,1.63-.42,2.46-.29,13.31,2.32,16.39,12.71,20.1,23.83.27.83,1.14,1.32,1.97,1.12,6.97-1.54,11.99,1.21,15.1,8.22M93.08,219.95l.94-1.36c.13-.18.09-.45-.09-.58l-.25-.18c-5.11-3.57-9.52-6.12-9.83-5.65l-.27.38c-.31.45,3.55,3.73,8.67,7.33l.22.18c.2.13.47.09.6-.11h0Z"/>
    <path class="cls-52" d="M126.77,181.59l-6.32,4.4c-9.27-6.28-15.72-10.97-19.32-14.12-9.94-8.69-18.47-18.96-25.6-30.82-1.27-2.1-4.31-2.08-5.54.04l-1.68,2.93c-.25.4-.4.83-.49,1.3-.58,3.1.2,9.27,2.37,18.47,4.71,20.08,14.76,35.34,30.15,45.74-.31,1.79-1.63,3.57-3.98,5.36-6.37-5.87-11.08-9.45-14.14-10.74-7.55-3.19-20.04-6.7-19.45-14.81.04-.85.58-1.61,1.36-1.97l4.33-1.92c1.47-.65,1.72-2.64.47-3.64-7.62-6.1-14.59-10.92-17.33-19.01-.76-2.26-.09-4.65,1.68-5.85,1.23-.83,3.17-1.14,5.85-.92,1.05.07,1.88-.94,1.56-1.94-3.04-10.27-6.81-23.18-1.81-32.66,4.96-9.43,14.72-6.99,18.27,1.94,4.31,10.83,6.95,17.29,7.95,19.32.74,1.5,2.7,1.83,3.91.69.04-.07.6-.96,1.65-2.73.83-1.41,2.48-1.97,3.77-1.3,4.47,2.39,6.63,12.64,9.94,22.78.56,1.74,3.04,1.65,3.48-.11.89-3.53,5.25-6.95,8.24-3.1,1.72,2.21,2.75,3.89,3.06,5.03,1.97,6.99,4.49,12.87,7.59,17.62h0Z"/>
    <path class="cls-52" d="M341.46,204.09c-4.91,2.3-9.58,5.58-14.03,9.83-.45.42-1.16.38-1.54-.11l-3.1-3.91c21.42-16.6,32.34-38.31,32.72-65.13.04-2.68-1.16-4.51-3.62-5.47-.71-.29-1.54-.13-2.1.4-1.85,1.76-4.42,5.18-7.71,10.3-9.96,15.48-23.74,27.41-41.32,35.8l-3.57-2.61c2.84-6.5,5.47-13.27,7.88-20.28,1.16-3.35,2.97-5.29,5.45-5.81.94-.2,1.9.16,2.5.92l3.73,4.76c1.09,1.38,3.31.87,3.69-.85,2.03-9.27,4.49-16.17,7.35-20.75,1.23-1.97,4.04-2.12,5.49-.29l2.66,3.39c.87,1.12,2.64.83,3.13-.51,1.34-3.62,3.66-9.85,6.95-18.7,1.83-4.96,7.8-12.2,13.69-8.78,12.66,7.35,5.67,27.96,3.57,38.06-.2.98.49,1.92,1.5,2.01l4.38.38c2.23.2,3.84,2.28,3.44,4.49-1.56,8.73-10.77,14.61-17.96,20.33-1.12.89-1.01,2.64.25,3.35l4.8,2.77c.58.34.92.96.87,1.61-.16,3.13-1.47,5.47-3.98,7.04-3.53,2.23-8.58,4.82-15.12,7.77h0Z"/>
    <path class="cls-61" d="M322.79,209.89c.65-1.59.09-2.84-1.65-3.75,14.76-11.68,24.19-26.49,28.25-44.47,1.23-4.94,2.03-10.07,2.41-15.39.04-.76-.63-1.38-1.38-1.3-.27.02-.54.27-.8.74-10.16,17.98-24.55,31.85-43.2,41.61-.29.18-.51.47-.58.8-.11.56,0,1.05.34,1.52-2.01-.87-3.82-2.14-5.41-3.86,17.58-8.4,31.36-20.33,41.32-35.8,3.28-5.12,5.85-8.53,7.71-10.3.56-.54,1.38-.69,2.1-.4,2.46.96,3.66,2.79,3.62,5.47-.38,26.83-11.3,48.54-32.72,65.13h0Z"/>
    <path class="cls-61" d="M120.45,185.99c-1.63.11-2.41,1.09-2.35,2.93-18.52-10.65-33.39-25.04-44.6-43.15-.45-.71-1.56-.31-1.43.54l3.15,19.68c4.87,17.24,14.88,28.37,27.52,40.58-.16.6-.96,1.59-2.39,2.97-15.39-10.41-25.44-25.66-30.15-45.74-2.17-9.2-2.95-15.37-2.37-18.47.09-.47.25-.89.49-1.3l1.68-2.93c1.23-2.12,4.27-2.14,5.54-.04,7.13,11.86,15.66,22.13,25.6,30.82,3.6,3.15,10.05,7.84,19.32,14.12h0Z"/>
    <path class="cls-53" d="M239.7,157.14c-16.42-2.39-32.79-2.7-49.12-.96-20.73,2.21-39.78,9.07-57.14,20.53-1.5.98-3.53.27-4.09-1.43-3.89-12.06-5.54-25.46-21.13-23.83-.67.07-1.27-.36-1.45-.98l-2.55-8.73c12.06,6.68,23.43,11.03,25.46,26.71.29,2.19,2.66,3.4,4.6,2.37,16.39-8.73,34.08-15.88,53-17.56,17.8-1.56,35.27-.27,52.4,3.89h0Z"/>
    <path class="cls-44" d="M349.39,161.67c-4.53,5.9-8.84,11.64-12.98,17.2-4.74,6.41-12.53,12.37-23.36,17.89l-6.88-7.1c-.34-.47-.45-.96-.34-1.52.07-.33.29-.63.58-.8,18.65-9.76,33.03-23.63,43.2-41.61.27-.47.54-.71.8-.74.76-.09,1.43.54,1.38,1.3-.38,5.32-1.18,10.45-2.41,15.39h0Z"/>
    <path class="cls-51" d="M118.1,188.92l-7.97,8.64-34.91-31.58-3.15-19.68c-.13-.85.98-1.25,1.43-.54,11.21,18.11,26.09,32.5,44.6,43.15h0Z"/>
    <path class="cls-50" d="M299.36,191.38c10.21,9.58,18.65,19.99,25.28,31.23.2,1.18.18,2.12-.07,2.81-.25.67-1.12.85-1.59.31-6.43-7.37-12.02-16.53-18.92-22.67-7.57-6.75-16.42-12.37-26.51-16.91l-10.65-4.13-3.26-1.5c-6.97-5.96-14.9-8.29-23.77-6.97-7.5-1.94-15.12-2.39-22.87-1.3-3.04.42-5.87.49-8.51.16-9.54-1.21-18.05-1.54-27.14,2.1-6.77-.2-13,1.52-18.74,5.16-1.99.38-3.91,1.38-5.72,3.02l-7.17,2.28c-18.63,8.84-34.26,18.27-45.45,35.76-3.8,5.92-6.39,13.74-9.65,21.24-.65,1.47-1.92,2.05-3.86,1.72,6.63-21.6,19.07-39.91,37.28-54.99,22.49-17.09,47.93-26.27,76.34-27.54,35.76-1.61,67.41,8.47,94.97,30.22h0Z"/>
    <path class="cls-49" d="M349.39,161.67c-4.07,17.98-13.49,32.79-28.25,44.47l-8.09-9.38c10.83-5.52,18.63-11.48,23.36-17.89,4.13-5.56,8.44-11.3,12.98-17.2h0Z"/>
    <path class="cls-49" d="M110.13,197.56l-7.39,9c-12.64-12.22-22.65-23.34-27.52-40.58l34.91,31.58h0Z"/>
    <path class="cls-48" d="M239.88,173.55c1.63.49,2.68,1.01,3.15,1.52,1.3,1.43.74,3.73-1.07,4.4-8.53,3.15-16.06,3.6-19.45,14.38-2.77,8.78-4.04,21.02-13.51,17.42-1.61-.63-2.86-1.94-3.33-3.6-1.14-3.84-2.64-8.67-4.53-14.47-3.4-10.43-10.25-10.52-18.7-13.94-1.54-.65-2.26-1.76-2.14-3.35.02-.47.38-.94,1.07-1.41,9.09-3.64,17.6-3.31,27.14-2.1,2.64.33,5.47.27,8.51-.16,7.75-1.09,15.37-.65,22.87,1.3h0Z"/>
    <path class="cls-44" d="M263.64,180.52l-5.99-.54c-.78-.07-1.52.31-1.92,1.01l-2.75,4.74c-.38.69-1.03,1.21-1.79,1.47-6.81,2.26-13.8,1.41-18.45,8.78-1.05,1.65.18,3.82,2.14,3.77l21.82-.58c.63-.02,1.23-.18,1.76-.49,4.33-2.55,11.82-11.1,8.42-16.66l10.65,4.13c-4.4,2.88-8.64,6.48-12.78,10.77-3.46,3.6-6.25,6.12-8.42,7.62-8.44,5.76-11.46,17.53-18.16,21.38-9,5.16-16.08,9.96-21.29,14.43-.58.51-1.38.69-2.12.49-9.47-2.48-19.1-6.81-28.88-12.95-8.98-5.63-10.61-14.65-17.65-21.35-6.83-6.52-13.02-13.71-18.54-21.55l7.17-2.28c.34,18.16,19.14,18.56,32.14,16.26,1.38-.25,2.28-1.63,1.92-3.02-1.03-3.95-6.57-6.01-10.43-6.41-5.34-.54-9.34-3.08-11.99-7.66-1.34-2.28-3.46-2.88-5.92-2.19,5.74-3.64,11.97-5.36,18.74-5.16-.69.47-1.05.94-1.07,1.41-.11,1.59.6,2.7,2.14,3.35,8.44,3.42,15.3,3.51,18.7,13.94,1.9,5.81,3.4,10.63,4.53,14.47.47,1.65,1.72,2.97,3.33,3.6,9.47,3.6,10.74-8.64,13.51-17.42,3.4-10.79,10.92-11.24,19.45-14.38,1.81-.67,2.37-2.97,1.07-4.4-.47-.51-1.52-1.03-3.15-1.52,8.87-1.32,16.8,1.01,23.77,6.97M238.57,205.27c-3.58-1.29-8.01,1.93-9.9,7.19-1.9,5.26-.52,10.57,3.05,11.85,3.58,1.29,8.01-1.93,9.9-7.19,1.9-5.26.52-10.57-3.05-11.85M184.99,205.6c-3.53,1.53-4.55,6.91-2.34,11.99,2.23,5.08,6.88,7.96,10.39,6.43,3.53-1.53,4.55-6.91,2.34-11.99-2.23-5.08-6.88-7.96-10.39-6.43M218.81,220.97l-12.35-.74c-1.88-.11-3.46,1.32-3.57,3.17l-.13,2.17c-.31,5.32,3.69,9.87,8.91,10.19l.13.02c5.23.29,9.74-3.75,10.05-9.07l.11-2.17c.11-1.88-1.3-3.46-3.15-3.57h0Z"/>
    <path class="cls-48" d="M162.62,179.67c2.46-.69,4.58-.09,5.92,2.19,2.66,4.58,6.66,7.13,11.99,7.66,3.86.4,9.4,2.46,10.43,6.41.36,1.38-.54,2.77-1.92,3.02-13,2.3-31.81,1.9-32.14-16.26,1.81-1.63,3.73-2.64,5.72-3.02h0Z"/>
    <path class="cls-48" d="M263.64,180.52l3.26,1.5c3.4,5.56-4.09,14.12-8.42,16.66-.54.31-1.14.47-1.76.49l-21.82.58c-1.97.04-3.19-2.12-2.14-3.77,4.65-7.37,11.64-6.52,18.45-8.78.76-.27,1.41-.78,1.79-1.47l2.75-4.74c.4-.69,1.14-1.07,1.92-1.01l5.99.54h0Z"/>
    <path class="cls-60" d="M128.04,188.7c-18.2,15.08-30.64,33.39-37.28,54.99-7.04,22.98-5.78,44.43,3.77,64.33.07.2.13.4.2.6l-4.24,3.44c-.98-.8-1.76-1.92-2.35-3.37-1.45-1.23-2.03-2.46-1.76-3.66l-2.57-6.3-2.68-11.08c-.58-.76-.85-2.05-.78-3.86l.54-5.61c.89-1.81,1.23-4.38,1.01-7.71-.04-.65-.6-1.14-1.23-1.09l-1.38.09.51-4.62c2.3-2.37,2.84-5.23,1.65-8.55l1.97-9.02,3.42-10.56c1.45-1.68,2.03-3.64,1.72-5.92.63-.76,1.05-1.45,1.25-2.06.2-.6.09-1.21-.36-1.76-.36-.47-.83-.92-1.38-1.36,6.37-1.36,9.14-4.91,8.31-10.7,2.35-1.79,3.66-3.57,3.98-5.36,1.43-1.38,2.23-2.37,2.39-2.97l7.39-9,7.97-8.64c-.07-1.83.71-2.81,2.35-2.93l6.32-4.4c-.69,2.61-.27,4.98,1.27,7.1h0Z"/>
    <path class="cls-60" d="M300.76,185.79c1.59,1.72,3.4,2.99,5.41,3.86l6.88,7.1,8.09,9.38c1.74.92,2.3,2.17,1.65,3.75l3.1,3.91c.38.49,1.09.54,1.54.11,4.44-4.24,9.11-7.53,14.03-9.83-1.56,7.77-5.16,13.56-10.79,17.35-.36.25-.49.71-.31,1.12.18.4.63.6,1.05.49,6.77-1.9,12.98-5.56,18.58-11.01l-11.1,11.68c-.16.16-.31.27-.49.38l-4.29,2.48c-.07.02-.11.07-.16.13-.6,1.05-.22,2.43,1.14,4.15,1.7.78,2.23,2.03,1.61,3.75l3.69,13.58,1.01,5.67c-.38,2.52-.2,4.65.49,6.34-.18,4.09.51,7.15,2.08,9.2.11,3.15.69,6.12,1.74,8.93-2.61-.11-3.4,1.81-2.35,5.72.58.69.85,1.27.78,1.74-.07.4-.36.85-.92,1.36l-6.23,17.71c-1.41-.29-2.14,1.18-2.21,4.4-2.52,3.95-2.43,6.5.31,7.59l-7.86-4.24,1.92-4.53c12.75-27.36,9.45-59.15-4.51-85.5-6.63-11.23-15.08-21.64-25.28-31.23,6.7,5.43,5.99,2.7-2.17-8.2l3.57,2.61h0Z"/>
    <path class="cls-51" d="M149.73,184.97c5.52,7.84,11.7,15.03,18.54,21.55,7.04,6.7,8.67,15.72,17.65,21.35,9.78,6.14,19.41,10.48,28.88,12.95.74.2,1.54.02,2.12-.49,5.2-4.47,12.28-9.27,21.29-14.43,6.7-3.84,9.72-15.61,18.16-21.38,2.17-1.5,4.96-4.02,8.42-7.62,4.13-4.29,8.38-7.88,12.78-10.77,10.1,4.53,18.94,10.16,26.51,16.91,6.9,6.14,12.49,15.3,18.92,22.67.47.54,1.34.36,1.59-.31.25-.69.27-1.63.07-2.81,13.96,26.36,17.27,58.14,4.51,85.5-8.2,5.58-16.22,13.36-23.41,17.87-13.58,8.51-27.83,14.61-42.75,18.32-24.26,6.03-40.52,9.51-61.4,7.5-9.98-.96-24.68-3.77-44.14-8.44-16.62-4-29.62-9.76-39.02-17.31-7.44-5.99-15.39-11.99-23.9-18.03-9.56-19.9-10.81-41.34-3.77-64.33,1.94.33,3.22-.25,3.86-1.72,3.26-7.5,5.85-15.32,9.65-21.24,11.19-17.49,26.83-26.91,45.45-35.76M127.91,219.16l26.78-7.57c.54-.16.85-.71.69-1.23l-.25-.89c-1.18-4.2-6.99-6.23-12.98-4.53l-7.06,1.99c-5.99,1.7-9.87,6.48-8.67,10.68l.25.87c.16.54.71.85,1.23.69M268.44,211.52l28.48,7.57c.25.07.51-.07.58-.31l.47-1.79c1.05-3.91-3.19-8.44-9.45-10.12l-6.72-1.79c-6.25-1.65-12.17.18-13.22,4.09l-.47,1.76c-.07.27.07.51.34.58M172.24,255.95c0-16.82-13.62-30.44-30.44-30.44s-30.44,13.62-30.44,30.44,13.62,30.44,30.44,30.44,30.44-13.62,30.44-30.44M311.89,255.75c0-16.77-13.6-30.38-30.38-30.38s-30.38,13.6-30.38,30.38,13.6,30.38,30.38,30.38,30.38-13.6,30.38-30.38M100.34,295.73c6.46,7.1,14.56,8.96,24.28,5.56,3.46-1.21,5.54-2.57,6.19-4.11.89-2.03.83-4.6-.22-7.68-.25-.71-.8-1.32-1.52-1.61-10.72-4.36-20.1-3.62-28.14,2.19-1.83,1.34-2.1,3.98-.58,5.65M291.55,293.31c-.14,5.39,7.07,9.97,16.14,10.24,9.07.25,16.53-3.93,16.68-9.32.14-5.39-7.07-9.97-16.14-10.24-9.07-.25-16.53,3.93-16.68,9.32M211.62,333.52c21.2.02,37.35-6.68,53.63-20.42.67-.56,1.47-.96,2.32-1.21,6.59-1.81,14.32-4.18,17.44-10.39.54-1.07.22-2.39-.74-3.1-.98-.71-2.32-.63-3.19.22-7.53,7.26-16.89,9.18-28.1,5.76-15.41-4.74-26.29-8.13-41.34-8.13-15.03-.02-25.93,3.37-41.34,8.06-11.21,3.42-20.59,1.5-28.1-5.79-.87-.83-2.21-.92-3.19-.22-.96.71-1.27,2.03-.74,3.1,3.13,6.21,10.86,8.6,17.42,10.41.87.25,1.65.65,2.32,1.23,16.28,13.74,32.43,20.46,53.61,20.46h0Z"/>
    <path class="cls-52" d="M356.54,268.7c-4.33-.83-8.15-3.71-11.48-8.64,23.18-7.88,42.57-22.56,49.59-46.75.78-2.68-1.12-5.38-3.82-5.43-1.63-.02-3.37.71-5.27,2.26-14.85,11.91-31.67,18.81-50.46,20.73-1.36-1.72-1.74-3.1-1.14-4.15.04-.07.09-.11.16-.13l4.29-2.48c.18-.11.34-.22.49-.38l11.1-11.68c1.72-1.14,3.24-1.7,4.6-1.68.89.02,1.65.65,1.83,1.52l.58,3.02c.51,2.59,3.89,3.28,5.36,1.12,4.65-6.81,7.82-13.04,14.45-14.92,1.72-.49,3.39.89,3.24,2.66l-.18,1.94c-.16,1.74,2.12,2.55,3.13,1.09,4.89-7.17,8.4-14.07,15.05-17.49,2.81-1.43,5.87-1.27,7.71.36,8.04,7.24-1.94,25.15-6.68,32.12-.58.85-.31,2.01.58,2.52l4.22,2.43c1.41.83,2.01,2.55,1.41,4.07-2.73,6.79-14.32,11.32-20.82,13.02-1.45.36-2.03,2.1-1.12,3.26l3.31,4.18c1.41,1.79.74,4.42-1.36,5.29-6.59,2.79-12.93,3.89-19.07,3.31-2.21-.2-3.42.31-3.64,1.56-.2,1.16-.25,2.28-.09,3.33.11.78-.18,1.56-.78,2.06-1.18.98-2.9,1.61-5.18,1.9h0Z"/>
    <path class="cls-52" d="M88.06,225.6c.56.45,1.03.89,1.38,1.36.45.56.56,1.16.36,1.76-.2.6-.63,1.3-1.25,2.06-21.02-2.41-37.21-11.91-54.86-22.74-1.25-.78-2.9-.49-3.82.67-4.69,5.78,8.73,24.55,12.66,29.01-1.38,2.26-3.13,3.98-5.23,5.2-7.8-1.14-14.32-5.07-19.57-11.84-.71-.92-.54-2.21.36-2.93l5.41-4.27c.69-.54.85-1.5.38-2.21-4.47-6.99-10.99-18.67-9.2-26.67,1.23-5.61,4.65-7.5,10.25-5.67,5.23,1.7,12.98,12.58,16.22,16.37.96,1.12,2.79.47,2.81-1.01.02-1.65.25-2.66.63-3.02,1.65-1.52,4.49-1.16,6.41.8,3.19,3.24,6.81,7.64,10.88,13.2,1.38,1.9,4.33,1.38,5.03-.85l.65-2.1c.78-2.5,3.93-3.31,5.81-1.47l14.7,14.32h0Z"/>
    <path class="cls-55" d="M127.91,219.16c-.51.16-1.07-.16-1.23-.69l-.25-.87c-1.21-4.2,2.68-8.98,8.67-10.68l7.06-1.99c5.99-1.7,11.79.33,12.98,4.53l.25.89c.16.51-.16,1.07-.69,1.23l-26.78,7.57h0Z"/>
    <path class="cls-48" d="M238.57,205.27c3.56,1.28,4.95,6.59,3.05,11.85-1.89,5.26-6.32,8.48-9.9,7.19-3.56-1.28-4.95-6.59-3.05-11.85,1.89-5.26,6.32-8.48,9.9-7.19h0Z"/>
    <path class="cls-55" d="M268.44,211.52c-.27-.07-.4-.31-.34-.58l.47-1.76c1.05-3.91,6.97-5.74,13.22-4.09l6.72,1.79c6.25,1.68,10.5,6.21,9.45,10.12l-.47,1.79c-.07.25-.34.38-.58.31l-28.48-7.57h0Z"/>
    <path class="cls-48" d="M184.99,205.6c3.51-1.53,8.16,1.35,10.39,6.43,2.21,5.08,1.18,10.46-2.34,11.99-3.51,1.53-8.16-1.35-10.39-6.43-2.21-5.08-1.18-10.46,2.34-11.99h0Z"/>
    <path class="cls-61" d="M88.55,230.78c.31,2.28-.27,4.24-1.72,5.92.13-1.16-.16-1.79-.85-1.88-19.63-2.41-36.09-11.1-52.62-22.56-.49-.34-1.12.22-.83.74l10.14,17.96c10.16,11.99,23.1,20.44,38.78,25.33,1.18,3.33.65,6.19-1.65,8.55.07-1.25-.02-2.35-.27-3.31-.2-.69-.69-1.27-1.34-1.59-13.2-6.41-24.88-9.98-35.65-22.22-3.93-4.47-17.35-23.23-12.66-29.01.92-1.16,2.57-1.45,3.82-.67,17.65,10.83,33.84,20.33,54.86,22.74h0Z"/>
    <path class="cls-61" d="M345.06,260.06c-.71-.16-1.76-.11-3.17.16-.69-1.7-.87-3.82-.49-6.34.22,1.54.69,2.19,1.41,1.99,17.98-5.12,32.07-15.43,42.24-30.91l4.33-9.49c.36-.78-.29-1.65-1.18-1.56-.11.02-.36.16-.69.4-14.85,11.41-31.78,18.2-50.79,20.33.63-1.72.09-2.97-1.61-3.75,18.78-1.92,35.6-8.82,50.46-20.73,1.9-1.54,3.64-2.28,5.27-2.26,2.7.04,4.6,2.75,3.82,5.43-7.01,24.19-26.4,38.86-49.59,46.75h0Z"/>
    <path class="cls-51" d="M86.83,236.7l-3.42,10.56-40.74-16.31-10.14-17.96c-.29-.51.34-1.07.83-.74,16.53,11.46,32.99,20.15,52.62,22.56.69.09.98.71.85,1.88h0Z"/>
    <path class="cls-54" d="M93.08,219.95c-.13.2-.4.25-.6.11l-.22-.18c-5.11-3.6-8.98-6.88-8.67-7.33l.27-.38c.31-.47,4.71,2.08,9.83,5.65l.25.18c.18.13.22.4.09.58l-.94,1.36h0Z"/>
    <path class="cls-44" d="M385.04,224.95c-8.09,4.62-15.77,9.69-23.05,15.21-4.27,3.24-11.48,5.92-21.6,8.04l-3.69-13.58c19.01-2.12,35.94-8.91,50.79-20.33.34-.25.58-.38.69-.4.89-.09,1.54.78,1.18,1.56l-4.33,9.49h0Z"/>
    <path class="cls-48" d="M218.81,220.97c1.85.11,3.26,1.7,3.15,3.57l-.11,2.17c-.31,5.32-4.82,9.36-10.05,9.07l-.13-.02c-5.23-.31-9.22-4.87-8.91-10.19l.13-2.17c.11-1.85,1.7-3.28,3.57-3.17l12.35.74h0Z"/>
    <path class="cls-49" d="M385.04,224.95c-10.16,15.48-24.26,25.8-42.24,30.91-.71.2-1.18-.45-1.41-1.99l-1.01-5.67c10.12-2.12,17.33-4.8,21.6-8.04,7.28-5.52,14.97-10.59,23.05-15.21h0Z"/>
    <path class="cls-54" d="M172.24,255.95c0,16.82-13.62,30.44-30.44,30.44s-30.44-13.62-30.44-30.44,13.62-30.44,30.44-30.44,30.44,13.62,30.44,30.44M167.4,255.93c0-14.23-11.53-25.75-25.75-25.75s-25.75,11.53-25.75,25.75,11.53,25.75,25.75,25.75,25.75-11.53,25.75-25.75h0Z"/>
    <path class="cls-61" d="M311.89,255.75c0,16.77-13.6,30.38-30.38,30.38s-30.38-13.6-30.38-30.38,13.6-30.38,30.38-30.38,30.38,13.6,30.38,30.38M307.06,255.91c0-14.14-11.46-25.6-25.6-25.6s-25.6,11.46-25.6,25.6,11.46,25.6,25.6,25.6,25.6-11.46,25.6-25.6h0Z"/>
    <path class="cls-46" d="M167.4,255.93c0,14.23-11.53,25.75-25.75,25.75s-25.75-11.53-25.75-25.75,11.53-25.75,25.75-25.75,25.75,11.53,25.75,25.75M140.01,244.39c-6.59,3.74-8.82,12.27-4.97,19.06,3.86,6.77,12.32,9.23,18.92,5.49,6.59-3.74,8.82-12.27,4.97-19.06-3.86-6.77-12.32-9.23-18.92-5.49h0Z"/>
    <path class="cls-47" d="M83.41,247.26l-1.97,9.02c-15.68-4.89-28.61-13.33-38.78-25.33l40.74,16.31h0Z"/>
    <path class="cls-46" d="M307.06,255.91c0,14.14-11.46,25.6-25.6,25.6s-25.6-11.46-25.6-25.6,11.46-25.6,25.6-25.6,25.6,11.46,25.6,25.6M290.15,256.84c0-7.71-6.25-13.96-13.96-13.96s-13.96,6.25-13.96,13.96,6.25,13.96,13.96,13.96,13.96-6.25,13.96-13.96h0Z"/>
    <path class="cls-55" d="M79.79,264.84l-.51,4.62c-3.95-.02-7.84-.18-11.66-.49-2.17-.18-4.51-2.97-7.06-8.35-.09-.16-.25-.25-.4-.27-7.55-.47-17.02-.38-22.2-5.27-1.68-1.59-1.56-4.29.25-5.72l2.21-1.74c.69-.56.78-1.59.18-2.26-.87-.96-1.97-1.76-3.28-2.43,2.1-1.23,3.84-2.95,5.23-5.2,10.77,12.24,22.45,15.81,35.65,22.22.65.31,1.14.89,1.34,1.59.25.96.34,2.05.27,3.31h0Z"/>
    <path class="cls-61" d="M140.01,244.39c6.59-3.74,15.06-1.28,18.92,5.49,3.85,6.79,1.61,15.32-4.97,19.06-6.59,3.74-15.06,1.28-18.92-5.49-3.85-6.79-1.61-15.32,4.97-19.06h0Z"/>
    <path class="cls-54" d="M290.15,256.84c0,7.71-6.25,13.96-13.96,13.96s-13.96-6.25-13.96-13.96,6.25-13.96,13.96-13.96,13.96,6.25,13.96,13.96h0Z"/>
    <path class="cls-55" d="M345.06,260.06c3.33,4.94,7.15,7.82,11.48,8.64-3.62.96-7.82,1.21-12.58.71-1.56-2.05-2.26-5.11-2.08-9.2,1.41-.27,2.46-.31,3.17-.16h0Z"/>
    <path class="cls-52" d="M80.89,278.17l-.54,5.61c-14.94,9.22-27.12,11.06-43.33,13.29-1.61.22-2.57,1.92-1.9,3.42,1.25,2.86,3.51,5,6.77,6.46,15.23,6.79,30.64,7.37,46.26,1.74.58,1.45,1.36,2.57,2.35,3.37.25.58.36,1.14.36,1.7-.02.51-.22,1.01-.65,1.5-3.44,4.15-7.17,7.33-11.19,9.52-3.4,1.85-5.67.02-6.86-5.45-.18-.92-1.23-1.38-2.05-.92-6.52,3.62-12.37,5.83-17.58,6.66-3.15.49-5.9-1.79-5.34-4.42.16-.69,0-2.26-.47-4.65-.16-.76-.78-1.32-1.54-1.38-1.92-.16-5.9-.92-11.91-2.32-5.49-1.3-20.19-9.31-14.21-16.91,4.47-5.63,14.99-3.8,22.22-3.22,1.68.13,2.9-1.56,2.21-3.1l-.67-1.54c-.8-1.81.29-3.89,2.23-4.24,4.04-.74,8.29-.22,12.69,1.54,1.79.74,4.15.31,7.1-1.25.8-.42,1.03-1.47.47-2.21l-1.65-2.1c-.71-.92,0-2.23,1.16-2.17l16.06,1.09h0Z"/>
    <path class="cls-52" d="M335.09,316.88c-2.75-1.09-2.84-3.64-.31-7.59,16.15,4.67,32.05,4.07,47.66-1.81,1.7-.65,3.42-1.61,5.14-2.9,2.39-1.79,1.76-5.52-1.07-6.46-3.42-1.14-8.93-2.35-16.55-3.66-7.21-1.25-16.08-4.71-26.6-10.39-1.05-3.91-.27-5.83,2.35-5.72l11.41-1.03c.98-.09,1.83.74,1.74,1.72l-.27,2.97c-.13,1.63,1.12,3.02,2.75,3.04,6.3.09,11.32-3.46,18.9-1.23.29.09.58.22.83.38,1.16.71.54,2.88-1.85,6.48-.29.45-.02,1.05.51,1.09,7.57.78,18.05-3.04,24.66,2.75,1.74,1.54,1.92,4.56.42,7.21-4.76,8.44-15.61,11.7-25.11,12.58-1.38.11-2.48,1.23-2.59,2.61l-.34,3.82c-.25,2.95-3.17,4.91-6.01,4.04l-17.04-5.27c-1.14-.36-2.35.31-2.64,1.47-.29,1.14-.78,2.05-1.45,2.73-2.08,2.03-5.49,1.88-7.62-.34-2.17-2.28-4.47-4.44-6.92-6.5h0Z"/>
    <path class="cls-56" d="M100.34,295.73c-1.52-1.68-1.25-4.31.58-5.65,8.04-5.81,17.42-6.54,28.14-2.19.71.29,1.27.89,1.52,1.61,1.05,3.08,1.12,5.65.22,7.68-.65,1.54-2.72,2.9-6.19,4.11-9.72,3.4-17.82,1.54-24.28-5.56h0Z"/>
    <path class="cls-61" d="M80.35,283.78c-.07,1.81.2,3.1.78,3.86-11.86,7.1-24.61,11.46-38.24,13.04-1.12.13-1.32,1.68-.27,2.08l8.29,3.26c11.55,3.24,23.36,2.9,35.47-1.01-.27,1.21.31,2.43,1.76,3.66-15.61,5.63-31.02,5.05-46.26-1.74-3.26-1.45-5.52-3.6-6.77-6.46-.67-1.5.29-3.19,1.9-3.42,16.22-2.23,28.39-4.07,43.33-13.29h0Z"/>
    <path class="cls-56" d="M291.55,293.31c.15-5.39,7.61-9.57,16.68-9.32,9.06.26,16.28,4.84,16.14,10.24-.15,5.39-7.61,9.57-16.68,9.32-9.06-.26-16.28-4.84-16.14-10.24h0Z"/>
    <path class="cls-61" d="M334.78,309.29c.07-3.22.8-4.69,2.21-4.4,15.17,4.98,29.95,4.47,44.38-1.52.96-.4.83-1.81-.2-2.01-13-2.52-27.18-6.25-37.95-14.18.56-.51.85-.96.92-1.36.07-.47-.2-1.05-.78-1.74,10.52,5.67,19.39,9.14,26.6,10.39,7.62,1.32,13.13,2.52,16.55,3.66,2.84.94,3.46,4.67,1.07,6.46-1.72,1.3-3.44,2.26-5.14,2.9-15.61,5.87-31.52,6.48-47.66,1.81h0Z"/>
    <path class="cls-51" d="M343.22,287.18c10.77,7.93,24.95,11.66,37.95,14.18,1.03.2,1.16,1.61.2,2.01-14.43,5.99-29.22,6.5-44.38,1.52l6.23-17.71h0Z"/>
    <path class="cls-51" d="M81.13,287.65l2.68,11.08-32.9,7.3-8.29-3.26c-1.05-.4-.85-1.94.27-2.08,13.62-1.59,26.38-5.94,38.24-13.04h0Z"/>
    <path class="cls-60" d="M211.64,296.27c15.05,0,25.93,3.4,41.34,8.13,11.21,3.42,20.57,1.5,28.1-5.76.87-.85,2.21-.94,3.19-.22.96.71,1.27,2.03.74,3.1-3.13,6.21-10.86,8.58-17.44,10.39-.85.25-1.65.65-2.32,1.21-16.28,13.74-32.43,20.44-53.63,20.42-21.17,0-37.32-6.72-53.61-20.46-.67-.58-1.45-.98-2.32-1.23-6.57-1.81-14.3-4.2-17.42-10.41-.54-1.07-.22-2.39.74-3.1.98-.69,2.32-.6,3.19.22,7.5,7.28,16.89,9.2,28.1,5.79,15.41-4.69,26.31-8.09,41.34-8.06M180.69,321.55c20.12,8.82,40.7,8.98,61.71.47,4.8-1.01,10.99-4.15,18.56-9.4.87-.6.6-1.99-.45-2.19-10.25-2.08-20.68-4.24-31.34-6.48-19.72-4.13-39.65-2.14-59.75,5.94-1.85.74-3.69,1.21-5.47,1.36-.8.07-1.09,1.09-.45,1.59,6.54,4.94,12.28,7.84,17.18,8.71h0Z"/>
    <path class="cls-47" d="M86.38,305.02c-12.11,3.91-23.92,4.24-35.47,1.01l32.9-7.3,2.57,6.3h0Z"/>
    <path class="cls-61" d="M242.4,322.02c-20.37-13.6-40.94-13.76-61.71-.47-4.89-.87-10.63-3.77-17.18-8.71-.65-.49-.36-1.52.45-1.59,1.79-.16,3.62-.63,5.47-1.36,20.1-8.09,40.03-10.07,59.75-5.94,10.65,2.23,21.09,4.4,31.34,6.48,1.05.2,1.32,1.59.45,2.19-7.57,5.25-13.76,8.4-18.56,9.4h0Z"/>
    <path class="cls-47" d="M329.15,308.11l-1.92,4.53c-11.66,18.99-30.31,32.25-50.99,40.09l-26.78,8.91c-.87.29-1.43,1.09-1.32,1.94v.04c.11.87.89,1.47,1.76,1.38,9.16-1.01,18.23-3.91,27.21-8.73l2.99,11.17c-7.88,7.39-14.47,11.66-19.77,12.82-8.2,1.81-16.19,3.53-24.03,5.16-17.47,3.19-34.64,2.75-51.55-1.34-7.13-1.63-14.29-2.99-21.53-4.13-7.71-1.21-14.21-5.36-19.48-12.49l2.55-9.49c.13-.54.67-.89,1.23-.78.31.07.65.2,1.03.42,7.95,3.86,16.28,6.3,25.02,7.3.6.07,1.16-.31,1.34-.89l.16-.6c.25-.83-.25-1.7-1.09-1.94l-23.21-6.86c-23.65-9.87-44.25-22.49-56.02-46.01-.07-.2-.13-.4-.2-.6,8.51,6.03,16.46,12.04,23.9,18.03,9.4,7.55,22.4,13.31,39.02,17.31,19.45,4.67,34.15,7.48,44.14,8.44,20.88,2.01,37.14-1.47,61.4-7.5,14.92-3.71,29.17-9.81,42.75-18.32,7.19-4.51,15.21-12.28,23.41-17.87h0Z"/>
    <path class="cls-45" d="M242.4,322.02c-21.02,8.51-41.59,8.35-61.71-.47,20.77-13.29,41.34-13.13,61.71.47h0Z"/>
    <path class="cls-60" d="M276.24,352.73l.87,3.55c-8.98,4.82-18.05,7.73-27.21,8.73-.87.09-1.65-.51-1.76-1.38v-.04c-.11-.85.45-1.65,1.32-1.94l26.78-8.91h0Z"/>
    <path class="cls-60" d="M148.54,357.62c.87-.78,1.61-1.76,2.21-2.99l23.21,6.86c.85.25,1.34,1.12,1.09,1.94l-.16.6c-.18.58-.74.96-1.34.89-8.73-1.01-17.06-3.44-25.02-7.3h0Z"/>
    <path class="cls-44" d="M280.1,367.45l1.88,5.41c-5.11,1.63-9.18,5.11-12.22,10.45-1.47,2.61-2.14,5.38-1.99,8.35.29,5.67-4.38,11.03-9.09,15.32-.45.42-.8.89-1.09,1.41-2.3,4.31-3.15,8.8-2.57,13.47l-84.56.09c.29-6.46-1.3-11.48-4.76-15.08-3.48-3.64-5.34-5.65-5.56-6.05-3.28-5.94-5.41-12.31-6.37-19.12-.11-.76-.54-1.43-1.14-1.88l-10.63-7.53,1.74-4.82c5.27,7.13,11.77,11.28,19.48,12.49,7.24,1.14,14.41,2.5,21.53,4.13,5.67,9.14,9.27,18.74,10.79,28.86.13.89.85,1.56,1.74,1.65l29.55,2.5c1.16.11,2.23-.67,2.5-1.81l6.97-29.86c7.84-1.63,15.84-3.35,24.03-5.16,5.29-1.16,11.88-5.43,19.77-12.82M177.69,400.84c-1.92,6.48-.96,15.86,7.95,14.54,1.81-.27,3.22-1.9,3.33-3.91.85-14.76-7.75-20.82-20.44-23.05-1.5-.27-2.79,1.03-2.55,2.5,1.01,6.03,4.33,8.69,10.03,7.95,1.12-.16,2.01.89,1.68,1.97M246.11,401.36l8.24-3.66c1.83-.8,3.13-2.48,3.46-4.47l.16-.8c.4-2.06-1.45-3.82-3.48-3.33-12.53,3.13-21.42,11.06-18.94,24.1.42,2.26,2.99,3.57,5.49,2.81,4.02-1.23,6.41-4.24,7.17-9.05.13-.89-.2-1.79-.87-2.35l-1.52-1.27c-.67-.56-.51-1.63.29-1.99h0Z"/>
    <path class="cls-48" d="M170.46,421.95l-13.8-.18c-.94-10.34-3.69-17.67-8.22-21.93-3.71-3.48-7.48-7.24-11.3-11.26l4.87-16.28,10.63,7.53c.6.45,1.03,1.12,1.14,1.88.96,6.81,3.08,13.18,6.37,19.12.22.4,2.08,2.41,5.56,6.05,3.46,3.6,5.05,8.62,4.76,15.08h0Z"/>
    <path class="cls-48" d="M281.98,372.86l4.44,15.43c-1.85,2.08-3.66,3.91-5.47,5.49-2.93,2.52-4.78,4.31-5.61,5.36-5.41,6.86-7.66,14.41-6.79,22.67l-13.54.04c-.58-4.67.27-9.16,2.57-13.47.29-.51.65-.98,1.09-1.41,4.71-4.29,9.38-9.65,9.09-15.32-.16-2.97.51-5.74,1.99-8.35,3.04-5.34,7.1-8.82,12.22-10.45h0Z"/>
    <path class="cls-51" d="M236.3,385.43l-6.97,29.86c-.27,1.14-1.34,1.92-2.5,1.81l-29.55-2.5c-.89-.09-1.61-.76-1.74-1.65-1.52-10.12-5.11-19.72-10.79-28.86,16.91,4.09,34.08,4.53,51.55,1.34h0Z"/>
    <path class="cls-59" d="M177.69,400.84c.34-1.07-.56-2.12-1.68-1.97-5.7.74-9.02-1.92-10.03-7.95-.25-1.47,1.05-2.77,2.55-2.5,12.69,2.23,21.29,8.29,20.44,23.05-.11,2.01-1.52,3.64-3.33,3.91-8.91,1.32-9.87-8.06-7.95-14.54h0Z"/>
    <path class="cls-59" d="M245.82,403.35l1.52,1.27c.67.56,1.01,1.45.87,2.35-.76,4.8-3.15,7.82-7.17,9.05-2.5.76-5.07-.56-5.49-2.81-2.48-13.04,6.41-20.97,18.94-24.1,2.03-.49,3.89,1.27,3.48,3.33l-.16.8c-.34,1.99-1.63,3.66-3.46,4.47l-8.24,3.66c-.8.36-.96,1.43-.29,1.99h0Z"/>
    <path class="cls-44" d="M156.65,421.77h-10.12c-2.43-8.09-2.08-18.07-13.33-18.65l3.93-14.54c3.82,4.02,7.59,7.77,11.3,11.26,4.53,4.27,7.28,11.59,8.22,21.93h0Z"/>
    <path class="cls-44" d="M286.42,388.29l4.24,14.32c-8.76,1.99-12.58,8.4-11.48,19.23l-10.63-.02c-.87-8.26,1.38-15.81,6.79-22.67.83-1.05,2.68-2.84,5.61-5.36,1.81-1.59,3.62-3.42,5.47-5.49h0Z"/>
    <path class="cls-48" d="M295.27,421.73l-16.08.11c-1.09-10.83,2.73-17.24,11.48-19.23l4.6,19.12h0Z"/>
    <path class="cls-48" d="M133.2,403.12c11.26.58,10.9,10.56,13.33,18.65l-17.58-.49,4.24-18.16h0Z"/>
  </g>
</svg>