<?xml version="1.0" encoding="UTF-8"?>
<svg id="Camada_1" data-name="Camada 1" xmlns="http://www.w3.org/2000/svg" xmlns:xlink="http://www.w3.org/1999/xlink" viewBox="0 0 422.07 422.07">
  <defs>
    <style>
      .cls-1 {
        stroke: #594d82;
      }

      .cls-1, .cls-2, .cls-3, .cls-4, .cls-5, .cls-6, .cls-7, .cls-8, .cls-9, .cls-10, .cls-11, .cls-12, .cls-13, .cls-14, .cls-15, .cls-16, .cls-17, .cls-18, .cls-19, .cls-20, .cls-21, .cls-22, .cls-23, .cls-24, .cls-25, .cls-26, .cls-27, .cls-28, .cls-29, .cls-30, .cls-31, .cls-32, .cls-33, .cls-34, .cls-35, .cls-36, .cls-37, .cls-38, .cls-39, .cls-40, .cls-41 {
        fill: none;
        stroke-miterlimit: 10;
      }

      .cls-42 {
        fill: #322328;
      }

      .cls-43 {
        fill: #020304;
      }

      .cls-44 {
        fill: #cdd2d4;
      }

      .cls-45 {
        fill: #361005;
      }

      .cls-2 {
        stroke: #90ad94;
      }

      .cls-3 {
        stroke: #6cae5a;
      }

      .cls-4 {
        stroke: #4d612b;
      }

      .cls-46 {
        fill: #f17074;
      }

      .cls-5 {
        stroke: #94403d;
      }

      .cls-47 {
        fill: #77d9ab;
      }

      .cls-6 {
        stroke: #baaca0;
      }

      .cls-7 {
        stroke: #557b96;
      }

      .cls-8 {
        stroke: #274017;
      }

      .cls-48 {
        fill: #fff;
      }

      .cls-9 {
        stroke: #8079a2;
      }

      .cls-49 {
        fill: #f5dcbd;
      }

      .cls-10 {
        stroke: #53a34a;
      }

      .cls-11 {
        stroke: #1b123a;
      }

      .cls-12 {
        stroke: #796c7c;
      }

      .cls-13 {
        stroke: #3b5862;
      }

      .cls-14 {
        stroke: #112f17;
      }

      .cls-15 {
        stroke: #42863d;
      }

      .cls-16 {
        stroke: #2b1526;
      }

      .cls-50 {
        fill: #63b250;
      }

      .cls-17 {
        stroke: #1a1316;
      }

      .cls-18 {
        stroke: #335b2a;
      }

      .cls-51 {
        fill: #240624;
      }

      .cls-19 {
        stroke: #58973d;
      }

      .cls-20 {
        stroke: #5b914d;
      }

      .cls-21 {
        stroke: #3d6e58;
      }

      .cls-22 {
        stroke: #1b1043;
      }

      .cls-23 {
        stroke: #686b6c;
      }

      .cls-24 {
        stroke: #a54246;
      }

      .cls-25 {
        stroke: #332055;
      }

      .cls-52 {
        fill: #4c7c29;
      }

      .cls-26 {
        stroke: #807b7e;
      }

      .cls-53 {
        fill: #332070;
      }

      .cls-27 {
        stroke: #7cbd60;
      }

      .cls-54 {
        fill: #591317;
      }

      .cls-28 {
        stroke: #488836;
      }

      .cls-29 {
        stroke: #130514;
      }

      .cls-55 {
        fill: #7f7c83;
      }

      .cls-30 {
        stroke: #7c7061;
      }

      .cls-31 {
        stroke: #71a24d;
      }

      .cls-32 {
        stroke: #327736;
      }

      .cls-33 {
        stroke: #4c663a;
      }

      .cls-34 {
        stroke: #947e97;
      }

      .cls-56 {
        fill: #95c870;
      }

      .cls-57 {
        fill: url(#Gradiente_sem_nome_10);
      }

      .cls-35 {
        stroke: #414044;
      }

      .cls-36 {
        stroke: #414617;
      }

      .cls-37 {
        stroke: #48120e;
      }

      .cls-38 {
        stroke: #8078ab;
      }

      .cls-39 {
        stroke: #947d9f;
      }

      .cls-58 {
        fill: #439343;
      }

      .cls-40 {
        stroke: #331f79;
      }

      .cls-59 {
        fill: #205a29;
      }

      .cls-41 {
        stroke: #234b24;
      }
    </style>
    <linearGradient id="Gradiente_sem_nome_10" data-name="Gradiente sem nome 10" x1="15.59" y1="49.92" x2="371.99" y2="343.72" gradientUnits="userSpaceOnUse">
      <stop offset="0" stop-color="#331d81"/>
      <stop offset="1" stop-color="#16085e"/>
    </linearGradient>
  </defs>
  <rect class="cls-57" x="-.57" width="423.22" height="422.07"/>
  <g>
    <path class="cls-22" d="M111.13,200.46c.07,25.07,1.26,50.13,3.6,75.11.05.45-.26.85-.69.92-12.57,2.65-14.66-5.92-15.98-15.63-.12-.76-.12-1.52,0-2.27,2.56-18.18,3.5-39.83-14.06-50.88"/>
    <path class="cls-25" d="M84,207.7l-15.75-17.88c-1.3-1.47-3.65-1.3-4.71.36l-14.68,22.87"/>
    <line class="cls-22" x1="48.86" y1="213.06" x2="43.86" y2="220.66"/>
    <path class="cls-40" d="M43.86,220.66c3.41-11.18,9.99-18.78,16.1-27.77.12-.19.09-.43-.09-.54l-.57-.38h-.02l-12.41,16.53c-2.06,2.75-3.62,5.82-4.62,9.12-2.65,8.71-6.89,22.21-12.72,40.49-1.82,5.71-2.04,10.28-.66,13.73,4.12,10.51,7.06,22.07,8.81,34.66.64,4.62,2.72,11.01,6.25,19.18.31.71,1.02,1.18,1.8,1.16l19.82-.4"/>
    <path class="cls-22" d="M65.55,326.43l15.75,8.33c.59.33.97.95.97,1.61,0,2.72.5,3.86,1.47,3.41"/>
    <path class="cls-39" d="M83.74,339.78c-.92,2.15-1.37,3.88-1.35,5.19.02,1.8,2.25,2.65,3.43,1.3l5.82-6.58"/>
    <path class="cls-1" d="M91.65,339.69c.52-.21.9-.69,1.16-1.42"/>
    <path class="cls-22" d="M92.81,338.26l25.6,2.87c1.11.12,1.97.99,2.08,2.08l2.01,21.12"/>
    <path class="cls-38" d="M122.5,364.33l-10.02,4.43c-1.42.64-1.09,2.75.45,2.91l10.42,1.11"/>
    <path class="cls-22" d="M123.35,372.79l4.71,43.92c.07.78.5,1.47,1.14,1.89,1.68,1.09,3.6.99,5.71-.31"/>
    <line class="cls-13" x1="134.91" y1="418.3" x2="211.1" y2="418.49"/>
    <line class="cls-13" x1="215.2" y1="418.49" x2="291.25" y2="418.56"/>
    <path class="cls-22" d="M291.25,418.56c1.21,1.4,2.7,1.73,4.43.97,1.75-.76,2.72-2.08,2.89-3.98.73-7.79,1.61-15.13,2.6-22"/>
    <path class="cls-40" d="M301.17,393.55c2.98-17.4,3.08-32.68,16.2-41.34,1.89-1.25,1.92-4.03.02-5.3l-8.67-5.8c-.73-.5-1.16-1.37-1.09-2.27l.9-10.3c.07-1.02.88-1.82,1.89-1.92,13.95-1.21,25.9,1.09,35.92,6.94,1.75,1.02,3.98.33,4.85-1.49,3.2-6.61,6.61-12.43,12.76-17.78,10.94-9.42,18.52-20.2,32.13-24.74,1.37-.45,2.08-2.01,1.49-3.34-6.35-14.54-5.78-29.83-5.61-45.39,0-.78.4-1.52,1.07-1.92,3.81-2.39,6.39-4,7.72-4.85,3.08-1.97,3.76-6.06,1.42-8.45-2.53-2.58-6.49-3.98-11.89-4.19"/>
    <path class="cls-22" d="M390.3,221.39c-1.56-18.92-8.88-36.56-30-39.04"/>
    <path class="cls-38" d="M360.3,182.35c.12-4.45-1.18-8.36-3.91-11.72-.28-.36-.85-.28-1.02.14-1.7,4.1-2.2,7.88-1.49,11.41"/>
    <path class="cls-22" d="M353.88,182.18c-16.1,4.55-24.32,15.53-24.65,32.96-.17,8.15-.24,16.31-.24,24.53"/>
    <line class="cls-7" x1="328.99" y1="239.67" x2="329.16" y2="244.9"/>
    <path class="cls-22" d="M329.16,244.9l-1.66,12.88c-.26,1.99-1.75,3.6-3.72,3.98l-8.05,1.59c-1.7.33-3.24-1.07-3.08-2.79,2.06-22.85,2.7-45.25,1.92-67.2-.35-10.25-.99-17.69-1.89-22.33-1.35-6.94-3.03-14.25-5.04-21.93-.47-1.8.26-3.67,1.82-4.66,4.4-2.79,5.3-4.93,2.7-6.39"/>
    <path class="cls-39" d="M312.16,138.04c1.4-1.35,1.75-2.39,1.09-3.1-1.23-1.33-3.17-1.44-5.8-.33"/>
    <path class="cls-22" d="M307.45,134.61c.69-.64,1.07-1.09,1.18-1.35.36-.73-.33-1.52-1.11-1.28l-5.19,1.61c-.64.21-1.35-.02-1.73-.57-.83-1.18-2.51-4.1-5.04-8.76-5.23-9.66-14.09-18.92-26.52-27.77"/>
    <path class="cls-40" d="M269.04,96.49l-7.01-5.33c-1.14-.88-1.75-2.27-1.63-3.69l.9-10.56c.14-1.66-1.54-2.86-3.05-2.2-8.5,3.67-16.76,4.97-24.81,3.86-.97-.12-17.95-1.82-50.95-5.07-5-.5-8.78,1.02-11.39,4.57-11.63,15.89-26.05,26.73-43.26,32.53-10.75,3.62-8.9,19.72-11.37,29.01-3.29,12.41-6.27,25.62-8.9,39.66-.14.73-.62,1.33-1.28,1.63l-9.38,4.17c-1.78.78-2.06,3.2-.5,4.36l14.73,11.03"/>
    <line class="cls-11" x1="269.04" y1="96.49" x2="255.57" y2="89.41"/>
    <path class="cls-9" d="M255.57,89.41c2.06-3.13,2.94-6.61,2.68-10.44-.07-1.09-1.4-1.61-2.2-.85-3.24,3.05-5.42,5.92-6.58,8.55"/>
    <path class="cls-11" d="M249.46,86.66c-13.38-4.14-27.37-6.11-41.98-5.9-3.29.05-10.77.8-22.42,2.3"/>
    <path class="cls-9" d="M185.06,83.06c-1.28-3.48-3.08-6.13-5.37-7.93-1.37-1.07-3.36.09-3.1,1.82l1.33,8.67"/>
    <path class="cls-11" d="M177.9,85.62l-13.05,6.56c-.62.31-1.16.69-1.66,1.18-3.22,3.27-7.62,4.36-10.87,7.29-6.23,5.61-12.15,11.48-17.76,17.62"/>
    <path class="cls-9" d="M134.57,118.27l-9.94-4.12c-.99-.4-2.01.52-1.68,1.54,1.21,3.72,3.48,6.99,6.87,9.78"/>
    <path class="cls-11" d="M129.81,125.47c-7.58,14.66-12.5,27.96-14.75,39.92-2.08,11.11-3.5,18.02-4.24,20.74"/>
    <path class="cls-34" d="M110.83,186.13l-8.86.26c-1.54.05-2.3,1.89-1.23,3.01,2.65,2.7,6.11,4.29,10.39,4.74"/>
    <path class="cls-11" d="M111.13,194.14c-.36,2.06-.36,4.17,0,6.32"/>
    <path class="cls-23" d="M185.06,83.06c-1.97,2.39-4.33,3.24-7.15,2.56M255.57,89.41c-2.25-.07-4.29-.97-6.11-2.75"/>
    <path class="cls-30" d="M307.45,134.61c-1.89.33-3.34.9-4.31,1.68-.73.59-.99,1.59-.62,2.46l1.47,3.29c.38.88,1.49,1.16,2.25.57l5.92-4.57"/>
    <path class="cls-21" d="M329.16,244.9c2.91.26,4.36-.73,4.33-2.98-.02-2.08-1.54-2.84-4.5-2.25"/>
    <path class="cls-23" d="M353.88,182.18c1.52.9,3.65.95,6.42.17"/>
    <line class="cls-11" x1="390.3" y1="221.39" x2="390.51" y2="226.39"/>
    <path class="cls-30" d="M390.51,226.39c-1.61,3.76-1.59,6.23.07,7.43"/>
    <line class="cls-11" x1="390.58" y1="233.82" x2="386.93" y2="278.26"/>
    <path class="cls-23" d="M386.93,278.26c-4.02,1.87-5.02,4.4-2.96,7.6"/>
    <path class="cls-11" d="M383.97,285.87c-4.4,9.8-10.7,18.09-18.87,24.89-2.44,2.04-8.17,5.09-17.19,9.19"/>
    <line class="cls-30" x1="347.91" y1="319.94" x2="341.05" y2="322.5"/>
    <path class="cls-11" d="M341.05,322.5l-31.47,2.53c-1.7.14-3.03,1.59-2.98,3.29l.38,17"/>
    <path class="cls-30" d="M306.97,345.32c-2.94,1.11-3.55,3.81-1.85,8.05"/>
    <path class="cls-11" d="M305.13,353.37c-3.05,12.95-4.36,26.35-3.95,40.18"/>
    <line class="cls-41" x1="291.25" y1="418.56" x2="299.4" y2="335.14"/>
    <path class="cls-18" d="M299.4,335.14c3.41-34.12,6.11-68.17,8.12-102.1,3.34-56.9-3.34-122.53-67.7-142.3"/>
    <path class="cls-14" d="M239.82,90.74c-3.69-1.8-7.93-2.56-12.72-2.25"/>
    <line class="cls-33" x1="227.11" y1="88.49" x2="216.12" y2="87.02"/>
    <line class="cls-8" x1="216.12" y1="87.02" x2="208.17" y2="87.18"/>
    <line class="cls-33" x1="208.17" y1="87.18" x2="197.98" y2="88.39"/>
    <path class="cls-41" d="M197.98,88.39c-4.52-.02-8.55.97-12.1,2.98"/>
    <path class="cls-33" d="M185.88,91.37c-63.1,19.2-72,87.09-66.72,143.49"/>
    <path class="cls-18" d="M119.16,234.86c2.75,51.52,7.2,102.43,13.33,152.75"/>
    <line class="cls-41" x1="132.49" y1="387.61" x2="134.91" y2="418.3"/>
    <path class="cls-23" d="M123.35,372.79c.85-2.77.57-5.59-.85-8.45"/>
    <path class="cls-35" d="M92.81,338.26c.12.31-.28.36-1.23.17"/>
    <path class="cls-30" d="M91.58,338.43c-1.52-1.3-3.24-1.82-5.19-1.59-.73.09-1.4.52-1.75,1.18l-.9,1.75"/>
    <line class="cls-11" x1="65.55" y1="326.43" x2="57.12" y2="319.84"/>
    <path class="cls-30" d="M57.12,319.84c-1.52-3.13-3.69-5.19-6.54-6.18"/>
    <path class="cls-11" d="M50.59,313.66c-5.47-12.5-9.09-25.52-10.87-39.09"/>
    <path class="cls-30" d="M39.72,274.57c.69-2.91.45-5.59-.76-8.03"/>
    <path class="cls-11" d="M38.96,266.54c-.02-12.72.02-21.33.17-25.86.24-6.75,1.82-13.43,4.74-20.03"/>
    <path class="cls-17" d="M48.86,213.06c3.6-3.34,7.55-5.99,11.89-7.93"/>
    <line class="cls-29" x1="60.75" y1="205.12" x2="64.91" y2="203.8"/>
    <path class="cls-23" d="M64.91,203.8c2.25.36,4.43.14,6.56-.64"/>
    <line class="cls-17" x1="71.47" y1="203.16" x2="84" y2="207.7"/>
    <path class="cls-30" d="M111.13,194.14c1.23-3.32,1.14-5.99-.31-8"/>
    <line class="cls-23" x1="129.81" y1="125.47" x2="134.57" y2="118.27"/>
    <path class="cls-15" d="M239.82,90.74l11.58,13c.07.07.12.17.17.24,6.04,9.68,11.1,20.24,15.2,31.66.36,1.02,1.61,1.37,2.46.71l6.72-5.28c1.07-.83,2.6-.05,2.53,1.3-.28,5.47-4.43,8.05-7.22,12-.57.81-.78,1.8-.64,2.77l5.19,31.87c.36,2.11,1.87,3.86,3.93,4.48,4.21,1.28,11.7,4.83,9.07,9.92-2.42,4.64-7.17,3.2-11.18,2.63-.9-.12-1.68.62-1.61,1.52l.69,10.18c.07,1.04.69,1.97,1.63,2.42,19.77,9.59,25.69,35.78,12.67,53.11-3.67,4.93-7.51,7.13-12.76,10.84-1.07.73-1.7,1.94-1.73,3.24-.36,20.81-1.73,40.42-4.17,58.84-.12.85.85,1.4,1.54.88l5.78-4.57c1.04-.81,2.56-.07,2.56,1.23.07,5.71-2.42,9.26-7.44,10.68-.83.24-1.49.83-1.85,1.61-.76,1.7-1.18,4.33-1.3,7.88"/>
    <path class="cls-32" d="M271.65,353.89c-1.37,18.97-4.24,38.83-8.6,59.6-.21.97-.69,1.52-1.47,1.61-.52.07-.99-.36-.95-.9l3.76-52.23"/>
    <line class="cls-31" x1="216.12" y1="87.02" x2="215.39" y2="97.34"/>
    <path class="cls-19" d="M215.39,97.34l-.31,192.81c-.02.97.64,1.87,1.59,2.15,1.37.43,3.03.47,5,.17"/>
    <line class="cls-36" x1="221.66" y1="292.47" x2="204.5" y2="292.54"/>
    <path class="cls-19" d="M204.5,292.54c3.95.57,5.87-.09,5.8-1.99-.38-9.23-.43-18.87-.14-28.89.43-14.99.62-24.6.57-28.84-.5-44.21-.73-66.89-.69-68,.05-1.21-.47-2.34-1.44-3.05-6.42-4.76-10.77-10.04-13.07-15.84-.69-1.68,1.21-3.27,2.75-2.3,3.55,2.25,6.68,5.35,9.4,9.35.8,1.18,2.68.62,2.68-.83v-64.57c0-.12-.09-.19-.21-.21-.21-.02-.4-.07-.59-.09"/>
    <line class="cls-31" x1="209.54" y1="87.28" x2="208.17" y2="87.18"/>
    <path class="cls-26" d="M71.47,203.16c-.02-3.1-.97-6.3-2.84-9.54-.64-1.11-2.25-1.07-2.82.09-1.35,2.75-1.85,6.04-1.52,9.9"/>
    <path class="cls-16" d="M64.3,203.61l-1.07-6.7c-.07-.45-.69-.52-.85-.09-.97,2.6-1.52,5.37-1.63,8.31"/>
    <path class="cls-32" d="M157.61,179.84c-1.4.47-2.87.5-4.36.05-.66-.19-1.37.02-1.85.54-.78.88-1.52,1.49-2.2,1.85"/>
    <path class="cls-10" d="M149.21,182.27c2.06-17.69,5.87-34.9,11.46-51.64.5-1.49.12-3.15-.99-4.26-2.98-3.03-4.14-6.63-3.46-10.82.14-.81,1.11-1.14,1.7-.59l2.32,2.2"/>
    <path class="cls-3" d="M160.24,117.16c.57,2.06,1.56,3.22,2.96,3.48.21.02.4-.07.52-.24l14.8-21.62c.21-.31.45-.57.73-.78,2.56-1.97,4.76-4.19,6.63-6.63"/>
    <path class="cls-34" d="M38.96,266.54c-2.75-.54-5.54-.28-8.38.78-1.25.47-1.52,2.11-.5,2.96,2.82,2.3,6.01,3.74,9.64,4.29M50.59,313.66l-4.38,5.71c-1.16,1.52.09,3.69,1.99,3.41,3.31-.47,6.3-1.44,8.93-2.94"/>
    <path class="cls-27" d="M160.24,117.16c-1.11-2.56-2.56-3.55-4.31-2.98-.5.17-.92.57-1.11,1.07-4.05,11.1-11.72,21.59-16.12,29.46-3.76,6.72-6.58,16.15-8.48,28.3-3.01,19.25-2.37,41.44-11.06,61.87"/>
    <line class="cls-20" x1="227.11" y1="88.49" x2="239.89" y2="99.26"/>
    <line class="cls-27" x1="239.89" y1="99.26" x2="215.39" y2="97.34"/>
    <path class="cls-34" d="M305.13,353.37l7.15-.59c2.75-.24,3.31-4.03.76-5.04l-6.06-2.42M341.05,322.5c1.35,3.67,3.55,6.44,6.61,8.33.47.28,1.09.02,1.21-.5.83-3.55.5-7.01-.95-10.39"/>
    <path class="cls-9" d="M383.97,285.87c2.72,1.3,5.75,1.52,9.04.69.88-.24,1.16-1.33.5-1.94l-6.58-6.35"/>
    <path class="cls-34" d="M390.58,233.82l7.96-3.08c1.35-.52,1.4-2.39.09-2.98-2.42-1.11-5.11-1.56-8.12-1.37"/>
    <path class="cls-27" d="M209.54,87.28c.78,3.88.43,7.08-1.07,9.59-.36.62-.95,1.09-1.63,1.33l-26.9,9.14"/>
    <path class="cls-3" d="M179.94,107.33c5.37-8.03,11.39-14.35,18.04-18.94"/>
    <path class="cls-10" d="M299.4,335.14c-1.33.43-3.01.52-5.07.31-.73-.07-1.47.19-1.99.71-2.15,2.18-5.68,5.99-10.54,11.46-2.96,3.29-6.35,5.4-10.16,6.27"/>
    <line class="cls-6" x1="91.58" y1="338.43" x2="91.65" y2="339.69"/>
    <path class="cls-12" d="M64.91,203.8c-.21-.07-.4-.12-.62-.19"/>
    <line class="cls-28" x1="215.2" y1="418.49" x2="215.48" y2="367.89"/>
    <path class="cls-15" d="M149.21,182.27c-3.58,1.09-12.55,4.29-10.92,9.21,1.42,4.33,4.71,5.85,9.87,4.55.95-.24,1.82.52,1.75,1.49l-.95,11.08c-.05.78-.52,1.47-1.21,1.85-23.39,12.48-26.69,42.08-5.26,58.56,1.61,1.23,4.19,3.13,7.74,5.66.52.38.83.97.85,1.61l1.37,51.83c0,.36-.38.57-.69.38l-5.49-3.69c-.64-.43-1.49-.12-1.7.62l-.33,1.16c-.31,1.07.12,2.23,1.04,2.87l5.61,3.76c1.89,1.28,3.1,3.36,3.24,5.64l2.49,36.27c.05.78-.73,1.35-1.47,1.04-.99-.45-3.1-1.59-6.32-3.46-2.01-1.16-4.5-.12-4.57,1.89-.19,5.3,7.55,9.49,11.79,10.68,1.14.33,1.99,1.33,2.13,2.51l.97,7.93"/>
    <path class="cls-10" d="M159.18,395.71c.05,2.46-.57,3.5-1.87,3.13-8.36-2.44-16.65-6.18-24.81-11.22"/>
    <path class="cls-4" d="M204.5,292.54c-6.87-.54-13.78-1.75-20.74-3.58-6.58-1.73-10.37.36-11.39,6.25-1.35,7.96,1.18,15.44,7.6,22.42,7.27,7.91,17.1,12.31,29.48,13.19,20.98,1.49,45.22-9.83,45.49-33.29.07-7.48-5.4-11.37-12.48-9.21-7.53,2.27-14.47,3.65-20.79,4.14"/>
    <path class="cls-15" d="M239.89,99.26c8.19,7.72,14.25,17.14,18.21,28.25,5.85,16.46,10.16,33.48,12.93,51.1.14.95-.64,1.75-1.59,1.63-6.56-.76-16.17-2.2-20.74,1.59-4.12,3.41-.85,8.69,3.34,9.9.59.17,1.21.24,1.82.19,6.94-.64,12.9.14,17.92,2.34.97.43,1.56,1.42,1.47,2.46l-.78,9.38c-.05.62-.59,1.07-1.21,1.04-1.33-.05-4.36.24-9.12.85-23.61,3.08-36.2,23.63-28.91,45.86,3.5,10.68,11.84,18.07,25,22.12.17.05.33.07.5.07l11.89.45c.54.02.97.5.95,1.04-.97,25.29-2.77,50.32-5.42,75.08-.21,2.11-.8,5.21-1.75,9.35"/>
    <path class="cls-10" d="M264.4,361.97c-12.98,15.75-28.65,27.44-47,35.09-.81.33-1.71-.26-1.71-1.14l-.21-28.03"/>
    <path class="cls-19" d="M215.48,367.89c-.5-2.91.62-5.04,3.34-6.44,2.84-1.47,1.82-5.75-1.35-5.68-.07,0-.54-.43-1.4-1.28-.4-.4-.62-.97-.57-1.56l.85-9.94c.14-1.59-1.04-2.98-2.63-3.13l-1.3-.09c-1.23-.12-2.3.85-2.3,2.11l.21,54.77"/>
    <path class="cls-10" d="M210.34,396.63c-1.82,2.63-5.4,4.29-10.73,4.92-11.77,1.47-22.8,1.14-33.08-.97"/>
    <path class="cls-15" d="M166.54,400.58c-1.23-7.13-2.15-13.85-2.79-20.15-3.1-30.88-5.99-65.07-8.69-102.57-.07-.9.69-1.63,1.59-1.54,6.42.69,11.86-.02,16.34-2.13,9.04-4.31,17.9-11.79,20.6-21.83,6.87-25.74-11.48-46.27-37.25-45.22-1.89.07-3.41-1.52-3.24-3.41l.54-6.56c.19-2.23,1.82-4.1,4-4.59,4.76-1.09,10.09-1.37,15.98-.85,3.34.31,5.47-1.33,6.39-4.88.64-2.44-.62-4.93-2.89-5.71-6.01-2.06-12.53-2.51-19.51-1.3"/>
    <path class="cls-10" d="M157.61,179.84l-.85-.05c-.62-.05-1.07-.57-.99-1.18,2.34-21.57,7.6-41.22,15.77-58.91,1.78-3.86,4.59-7.98,8.41-12.36"/>
    <path class="cls-32" d="M166.54,400.58l-.33,14.78c-.02,1.52-1.94,2.11-2.84.9-3.1-4.21-3.31-15.18-4.19-20.55"/>
    <line class="cls-28" x1="211.1" y1="418.49" x2="210.34" y2="396.63"/>
    <path class="cls-18" d="M341.64,198.04c-5.28,9.73-7.22,21-5.85,33.81,1.23,11.58-.47,22.75-5.14,33.48-.33.78-.95,1.42-1.73,1.78-4.26,1.99-9.28,3.01-15.08,3.05-1.07.02-1.97.85-2.06,1.92l-1.99,23.63"/>
    <path class="cls-41" d="M309.79,295.72l-2.27,20.06c-.07.71.43,1.33,1.11,1.37,12.19.99,24.03-.19,35.54-3.58,14.63-4.31,24.84-12.62,30.62-24.96"/>
    <path class="cls-18" d="M374.79,288.61c8.6-20.98,9.28-45.98,8.12-68.29-.76-14.94-6.63-24.96-17.59-30.05"/>
    <line class="cls-41" x1="365.32" y1="190.28" x2="360.41" y2="189.83"/>
    <path class="cls-33" d="M360.41,189.83c-6.91-.45-13.17,2.27-18.78,8.22"/>
    <line class="cls-3" x1="360.41" y1="189.83" x2="363.49" y2="197.83"/>
    <path class="cls-27" d="M363.49,197.83c-7.53,3.05-14.82,3.13-21.85.21"/>
    <path class="cls-10" d="M365.32,190.28c7.93,30.69,7.72,60.62-.64,89.79-.17.62-.43,1.21-.78,1.75l-4.03,6.51c-.8,1.28.71,2.77,1.97,1.94,3.1-2.01,5.82-5.3,8.19-9.85.36-.66.95-1.18,1.68-1.44l1.85-.64c.57-.19,1.09.36.9.9-1.59,4.5-1.47,7.62.33,9.38M309.79,295.72l9.02-1.52c.78-.12,1.47-.52,1.97-1.14,1.02-1.25,2.27-2.56,3.72-3.88,1.73-1.59,4.52-.31,4.17,1.92-.12.83.12,1.63.76,2.39.31.36,1.11.54,2.46.52,11.15-.09,19.53-4.66,25.12-13.73,7.91-12.86,8.24-25.55,8.55-41.32.26-13.8-.43-27.51-2.06-41.13"/>
    <path class="cls-41" d="M63.61,211.75c-1.97.54-3.31,1.14-4.05,1.78"/>
    <path class="cls-18" d="M59.56,213.53c-7.51,4.85-11.82,11.41-12.93,19.68-3.05,22.66-.71,45.3,6.99,67.86"/>
    <path class="cls-41" d="M53.62,301.07c4.4,11.51,12.05,19.65,22.94,24.41,13.4,5.85,27.47,8.6,42.22,8.24.66-.02,1.16-.59,1.11-1.25l-1.78-21.95"/>
    <path class="cls-18" d="M118.12,310.51l-2.15-25.43c-.05-.66-.66-1.16-1.35-1.09-20.24,2.46-23.28-11.01-22.75-28.44.26-8.52.5-20.03-1.28-29.57"/>
    <path class="cls-33" d="M90.58,225.98c-4.57-12.1-13.57-16.86-26.97-14.23"/>
    <path class="cls-27" d="M90.58,225.98c-7.88,3.55-15.96,5.59-24.27,6.11-.64.05-1.21-.47-1.23-1.11l-.78-16.81"/>
    <line class="cls-3" x1="64.3" y1="214.17" x2="63.61" y2="211.75"/>
    <path class="cls-10" d="M64.3,214.17c-.17,13.21-.28,26.4-.36,39.59-.02,8.97,1.63,20.24,4.97,33.79,4.12,16.67,18.33,22.68,33.5,24.29.97.12,1.66-.92,1.16-1.78-1.63-2.72-2.2-5.33-1.7-7.81.45-2.32,2.6-3.88,4.95-3.58l2.87.38c1.8.24,3.08,1.89,2.84,3.69l-.76,5.78c-.12.99.36,1.97,1.21,2.49,2.37,1.42,4.07,1.25,5.14-.5M53.62,301.07c4.71,2.98,9.23,5.97,13.52,8.97,2.68,1.87,5.11,2.06,7.36.62.62-.4,1.44-.33,2.01.19,2.3,2.18,4.81,3.46,7.53,3.84.05,0,.07-.02.07-.05,0-.05-.02-.07-.05-.09-13.43-4.64-16.57-17.83-23.37-26.61-.4-.52-.71-1.14-.9-1.75l-1.92-6.39c-.21-.71-.12-1.47.31-2.06l1.11-1.68c.28-.43.45-.95.45-1.47l-.19-61.04"/>
    <path class="cls-2" d="M293.1,241.73c0-15.79-12.81-28.6-28.6-28.6s-28.6,12.81-28.6,28.6,12.81,28.6,28.6,28.6,28.6-12.81,28.6-28.6"/>
    <path class="cls-10" d="M283.96,307.39c-1.21-.21-2.53,1.87-3,4.64-.46,2.75.14,5.17,1.35,5.36,1.21.21,2.53-1.87,3-4.64.46-2.75-.14-5.17-1.35-5.36"/>
    <path class="cls-2" d="M157.59,213.46c-15.3,2.46-25.64,17.14-23.14,32.82,2.51,15.67,16.93,26.39,32.23,23.95,15.3-2.46,25.64-17.14,23.14-32.82-2.51-15.67-16.93-26.39-32.23-23.95"/>
    <path class="cls-19" d="M355.89,230.89l-7.6-14.59c-.07-.14-.26-.19-.4-.12l-.19.09c-2.96,1.54-3.65,6.04-1.56,10.04l.31.59c2.08,4.03,6.18,6.04,9.12,4.5l.19-.09c.14-.09.21-.28.14-.43"/>
    <path class="cls-2" d="M273.63,242.46c0-8.03-6.49-14.51-14.51-14.51s-14.51,6.49-14.51,14.51,6.49,14.51,14.51,14.51,14.51-6.49,14.51-14.51M182.29,242.35c0-8.1-6.58-14.68-14.68-14.68s-14.68,6.58-14.68,14.68,6.58,14.68,14.68,14.68,14.68-6.58,14.68-14.68"/>
    <path class="cls-10" d="M82.5,245.97c-1.75-.71-4.23,1.32-5.53,4.54-1.29,3.22-.91,6.39.85,7.1,1.75.71,4.23-1.32,5.53-4.54,1.29-3.22.91-6.4-.85-7.1"/>
    <path class="cls-5" d="M189.2,317.66c16.29,9.97,32.65,9.97,49.08.02"/>
    <path class="cls-37" d="M238.28,317.69c6.01-4.45,9.59-11.72,10.73-21.83.14-1.3-1.02-2.34-2.3-2.08-1.3.26-6.53,1.28-15.7,3.01-18.02,3.43-34.78-.62-51.5-2.7-.92-.12-1.73.69-1.59,1.61,1.35,9.26,5.11,16.6,11.27,21.97"/>
    <path class="cls-24" d="M238.28,317.69c-16.86-9.99-33.22-9.99-49.08-.02"/>
    <path class="cls-53" d="M269.04,96.49l-13.47-7.08c2.06-3.13,2.94-6.61,2.68-10.44-.07-1.09-1.4-1.61-2.2-.85-3.24,3.05-5.42,5.92-6.58,8.55-13.38-4.14-27.37-6.11-41.98-5.9-3.29.05-10.77.8-22.42,2.3-1.28-3.48-3.08-6.13-5.37-7.93-1.37-1.07-3.36.09-3.1,1.82l1.33,8.67-13.05,6.56c-.62.31-1.16.69-1.66,1.18-3.22,3.27-7.62,4.36-10.87,7.29-6.23,5.61-12.15,11.48-17.76,17.62l-9.94-4.12c-.99-.4-2.01.52-1.68,1.54,1.21,3.72,3.48,6.99,6.87,9.78-7.58,14.66-12.5,27.96-14.75,39.92-2.08,11.11-3.5,18.02-4.24,20.74l-8.86.26c-1.54.05-2.3,1.89-1.23,3.01,2.65,2.7,6.11,4.29,10.39,4.74-.36,2.06-.36,4.17,0,6.32l-14.73-11.03c-1.56-1.16-1.28-3.58.5-4.36l9.38-4.17c.66-.31,1.14-.9,1.28-1.63,2.63-14.04,5.61-27.25,8.9-39.66,2.46-9.28.62-25.38,11.37-29.01,17.21-5.8,31.63-16.65,43.26-32.53,2.6-3.55,6.39-5.07,11.39-4.57,33.01,3.24,49.98,4.95,50.95,5.07,8.05,1.11,16.31-.19,24.81-3.86,1.52-.66,3.2.54,3.05,2.2l-.9,10.56c-.12,1.42.5,2.82,1.63,3.69l7.01,5.33h0Z"/>
    <path class="cls-44" d="M185.06,83.06c-1.97,2.39-4.33,3.24-7.15,2.56l-1.33-8.67c-.26-1.73,1.73-2.89,3.1-1.82,2.3,1.8,4.1,4.45,5.37,7.93h0Z"/>
    <path class="cls-44" d="M255.57,89.41c-2.25-.07-4.29-.97-6.11-2.75,1.16-2.63,3.34-5.49,6.58-8.55.8-.76,2.13-.24,2.2.85.26,3.84-.62,7.32-2.68,10.44h0Z"/>
    <path class="cls-43" d="M249.46,86.66c1.82,1.78,3.86,2.68,6.11,2.75l13.47,7.08c12.43,8.86,21.29,18.11,26.52,27.77,2.53,4.66,4.21,7.58,5.04,8.76.38.54,1.09.78,1.73.57l5.19-1.61c.78-.24,1.47.54,1.11,1.28-.12.26-.5.71-1.18,1.35-1.89.33-3.34.9-4.31,1.68-.73.59-.99,1.59-.62,2.46l1.47,3.29c.38.88,1.49,1.16,2.25.57l5.92-4.57c2.6,1.47,1.7,3.6-2.7,6.39-1.56.99-2.3,2.86-1.82,4.66,2.01,7.67,3.69,14.99,5.04,21.93.9,4.64,1.54,12.08,1.89,22.33.78,21.95.14,44.35-1.92,67.2-.17,1.73,1.37,3.13,3.08,2.79l8.05-1.59c1.97-.38,3.46-1.99,3.72-3.98l1.66-12.88c2.91.26,4.36-.73,4.33-2.98-.02-2.08-1.54-2.84-4.5-2.25,0-8.22.07-16.39.24-24.53.33-17.43,8.55-28.41,24.65-32.96,1.52.9,3.65.95,6.42.17,21.12,2.49,28.44,20.13,30,39.04l.21,5c-1.61,3.76-1.59,6.23.07,7.43l-3.65,44.44c-4.02,1.87-5.02,4.4-2.96,7.6-4.4,9.8-10.7,18.09-18.87,24.89-2.44,2.04-8.17,5.09-17.19,9.19l-6.87,2.56-31.47,2.53c-1.7.14-3.03,1.59-2.98,3.29l.38,17c-2.94,1.11-3.55,3.81-1.85,8.05-3.05,12.95-4.36,26.35-3.95,40.18-.99,6.87-1.87,14.21-2.6,22-.17,1.89-1.14,3.22-2.89,3.98-1.73.76-3.22.43-4.43-.97l8.15-83.42c3.41-34.12,6.11-68.17,8.12-102.1,3.34-56.9-3.34-122.53-67.7-142.3-3.69-1.8-7.93-2.56-12.72-2.25l-10.99-1.47-7.96.17-10.18,1.21c-4.52-.02-8.55.97-12.1,2.98-63.1,19.2-72,87.09-66.72,143.49,2.75,51.52,7.2,102.43,13.33,152.75l2.42,30.69c-2.11,1.3-4.03,1.4-5.71.31-.64-.43-1.07-1.11-1.14-1.89l-4.71-43.92c.85-2.77.57-5.59-.85-8.45l-2.01-21.12c-.12-1.09-.97-1.97-2.08-2.08l-25.6-2.87c.12.31-.28.36-1.23.17-1.52-1.3-3.24-1.82-5.19-1.59-.73.09-1.4.52-1.75,1.18l-.9,1.75c-.97.45-1.47-.69-1.47-3.41,0-.66-.38-1.28-.97-1.61l-15.75-8.33-8.43-6.58c-1.52-3.13-3.69-5.19-6.54-6.18-5.47-12.5-9.09-25.52-10.87-39.09.69-2.91.45-5.59-.76-8.03-.02-12.72.02-21.33.17-25.86.24-6.75,1.82-13.43,4.74-20.03l5-7.6c3.6-3.34,7.55-5.99,11.89-7.93l4.17-1.33c2.25.36,4.43.14,6.56-.64l12.53,4.55c17.57,11.06,16.62,32.7,14.06,50.88-.12.76-.12,1.52,0,2.27,1.33,9.71,3.41,18.28,15.98,15.63.43-.07.73-.47.69-.92-2.34-24.98-3.53-50.03-3.6-75.11-.36-2.15-.36-4.26,0-6.32,1.23-3.32,1.14-5.99-.31-8,.73-2.72,2.15-9.64,4.24-20.74,2.25-11.96,7.17-25.26,14.75-39.92l4.76-7.2c5.61-6.13,11.53-12,17.76-17.62,3.24-2.94,7.65-4.03,10.87-7.29.5-.5,1.04-.88,1.66-1.18l13.05-6.56c2.82.69,5.19-.17,7.15-2.56,11.65-1.49,19.13-2.25,22.42-2.3,14.61-.21,28.6,1.75,41.98,5.9M341.64,198.04c-5.28,9.73-7.22,21-5.85,33.81,1.23,11.58-.47,22.75-5.14,33.48-.33.78-.95,1.42-1.73,1.78-4.26,1.99-9.28,3.01-15.08,3.05-1.07.02-1.97.85-2.06,1.92l-1.99,23.63-2.27,20.06c-.07.71.43,1.33,1.11,1.37,12.19.99,24.03-.19,35.54-3.58,14.63-4.31,24.84-12.62,30.62-24.96,8.6-20.98,9.28-45.98,8.12-68.29-.76-14.94-6.63-24.96-17.59-30.05l-4.9-.45c-6.91-.45-13.17,2.27-18.78,8.22M63.61,211.75c-1.97.54-3.31,1.14-4.05,1.78-7.51,4.85-11.82,11.41-12.93,19.68-3.05,22.66-.71,45.3,6.99,67.86,4.4,11.51,12.05,19.65,22.94,24.41,13.4,5.85,27.47,8.6,42.22,8.24.66-.02,1.16-.59,1.11-1.25l-1.78-21.95-2.15-25.43c-.05-.66-.66-1.16-1.35-1.09-20.24,2.46-23.28-11.01-22.75-28.44.26-8.52.5-20.03-1.28-29.57-4.57-12.1-13.57-16.86-26.97-14.23h0Z"/>
    <path class="cls-52" d="M216.12,87.02l-.73,10.32-.31,192.81c-.02.97.64,1.87,1.59,2.15,1.37.43,3.03.47,5,.17l-17.17.07c3.95.57,5.87-.09,5.8-1.99-.38-9.23-.43-18.87-.14-28.89.43-14.99.62-24.6.57-28.84-.5-44.21-.73-66.89-.69-68,.05-1.21-.47-2.34-1.44-3.05-6.42-4.76-10.77-10.04-13.07-15.84-.69-1.68,1.21-3.27,2.75-2.3,3.55,2.25,6.68,5.35,9.4,9.35.8,1.18,2.68.62,2.68-.83v-64.57c0-.12-.09-.19-.21-.21-.21-.02-.4-.07-.59-.09l-1.37-.09,7.96-.17h0Z"/>
    <polygon class="cls-56" points="227.11 88.49 239.89 99.26 215.39 97.34 216.12 87.02 227.11 88.49 227.11 88.49"/>
    <path class="cls-56" d="M208.17,87.18l1.37.09c.78,3.88.43,7.08-1.07,9.59-.36.62-.95,1.09-1.63,1.33l-26.9,9.14c5.37-8.03,11.39-14.35,18.04-18.94l10.18-1.21h0Z"/>
    <path class="cls-50" d="M204.5,292.54c-6.87-.54-13.78-1.75-20.74-3.58-6.58-1.73-10.37.36-11.39,6.25-1.35,7.96,1.18,15.44,7.6,22.42,7.27,7.91,17.1,12.31,29.48,13.19,20.98,1.49,45.22-9.83,45.49-33.29.07-7.48-5.4-11.37-12.48-9.21-7.53,2.27-14.47,3.65-20.79,4.14-1.97.31-3.62.26-5-.17-.95-.28-1.61-1.18-1.59-2.15l.31-192.81,24.51,1.92c8.19,7.72,14.25,17.14,18.21,28.25,5.85,16.46,10.16,33.48,12.93,51.1.14.95-.64,1.75-1.59,1.63-6.56-.76-16.17-2.2-20.74,1.59-4.12,3.41-.85,8.69,3.34,9.9.59.17,1.21.24,1.82.19,6.94-.64,12.9.14,17.92,2.34.97.43,1.56,1.42,1.47,2.46l-.78,9.38c-.05.62-.59,1.07-1.21,1.04-1.33-.05-4.36.24-9.12.85-23.61,3.08-36.2,23.63-28.91,45.86,3.5,10.68,11.84,18.07,25,22.12.17.05.33.07.5.07l11.89.45c.54.02.97.5.95,1.04-.97,25.29-2.77,50.32-5.42,75.08-.21,2.11-.8,5.21-1.75,9.35-12.98,15.75-28.65,27.44-47,35.09-.81.33-1.71-.26-1.71-1.14l-.21-28.03c-.5-2.91.62-5.04,3.34-6.44,2.84-1.47,1.82-5.75-1.35-5.68-.07,0-.54-.43-1.4-1.28-.4-.4-.62-.97-.57-1.56l.85-9.94c.14-1.59-1.04-2.98-2.63-3.13l-1.3-.09c-1.23-.12-2.3.85-2.3,2.11l.21,54.77c-1.82,2.63-5.4,4.29-10.73,4.92-11.77,1.47-22.8,1.14-33.08-.97-1.23-7.13-2.15-13.85-2.79-20.15-3.1-30.88-5.99-65.07-8.69-102.57-.07-.9.69-1.63,1.59-1.54,6.42.69,11.86-.02,16.34-2.13,9.04-4.31,17.9-11.79,20.6-21.83,6.87-25.74-11.48-46.27-37.25-45.22-1.89.07-3.41-1.52-3.24-3.41l.54-6.56c.19-2.23,1.82-4.1,4-4.59,4.76-1.09,10.09-1.37,15.98-.85,3.34.31,5.47-1.33,6.39-4.88.64-2.44-.62-4.93-2.89-5.71-6.01-2.06-12.53-2.51-19.51-1.3l-.85-.05c-.62-.05-1.07-.57-.99-1.18,2.34-21.57,7.6-41.22,15.77-58.91,1.78-3.86,4.59-7.98,8.41-12.36l26.9-9.14c.69-.24,1.28-.71,1.63-1.33,1.49-2.51,1.85-5.71,1.07-9.59.19.02.38.07.59.09.12.02.21.09.21.21v64.57c0,1.44-1.87,2.01-2.68.83-2.72-4-5.85-7.1-9.4-9.35-1.54-.97-3.43.62-2.75,2.3,2.3,5.8,6.65,11.08,13.07,15.84.97.71,1.49,1.85,1.44,3.05-.05,1.11.19,23.8.69,68,.05,4.24-.14,13.85-.57,28.84-.28,10.02-.24,19.65.14,28.89.07,1.89-1.85,2.56-5.8,1.99h0Z"/>
    <path class="cls-58" d="M197.98,88.39c-6.65,4.59-12.67,10.92-18.04,18.94-3.81,4.38-6.63,8.5-8.41,12.36-8.17,17.69-13.43,37.34-15.77,58.91-.07.62.38,1.14.99,1.18l.85.05c-1.4.47-2.87.5-4.36.05-.66-.19-1.37.02-1.85.54-.78.88-1.52,1.49-2.2,1.85,2.06-17.69,5.87-34.9,11.46-51.64.5-1.49.12-3.15-.99-4.26-2.98-3.03-4.14-6.63-3.46-10.82.14-.81,1.11-1.14,1.7-.59l2.32,2.2c.57,2.06,1.56,3.22,2.96,3.48.21.02.4-.07.52-.24l14.8-21.62c.21-.31.45-.57.73-.78,2.56-1.97,4.76-4.19,6.63-6.63,3.55-2.01,7.58-3.01,12.1-2.98h0Z"/>
    <path class="cls-59" d="M239.82,90.74l11.58,13c.07.07.12.17.17.24,6.04,9.68,11.1,20.24,15.2,31.66.36,1.02,1.61,1.37,2.46.71l6.72-5.28c1.07-.83,2.6-.05,2.53,1.3-.28,5.47-4.43,8.05-7.22,12-.57.81-.78,1.8-.64,2.77l5.19,31.87c.36,2.11,1.87,3.86,3.93,4.48,4.21,1.28,11.7,4.83,9.07,9.92-2.42,4.64-7.17,3.2-11.18,2.63-.9-.12-1.68.62-1.61,1.52l.69,10.18c.07,1.04.69,1.97,1.63,2.42,19.77,9.59,25.69,35.78,12.67,53.11-3.67,4.93-7.51,7.13-12.76,10.84-1.07.73-1.7,1.94-1.73,3.24-.36,20.81-1.73,40.42-4.17,58.84-.12.85.85,1.4,1.54.88l5.78-4.57c1.04-.81,2.56-.07,2.56,1.23.07,5.71-2.42,9.26-7.44,10.68-.83.24-1.49.83-1.85,1.61-.76,1.7-1.18,4.33-1.3,7.88-1.37,18.97-4.24,38.83-8.6,59.6-.21.97-.69,1.52-1.47,1.61-.52.07-.99-.36-.95-.9l3.76-52.23c.95-4.14,1.54-7.25,1.75-9.35,2.65-24.77,4.45-49.79,5.42-75.08.02-.54-.4-1.02-.95-1.04l-11.89-.45c-.17,0-.33-.02-.5-.07-13.17-4.05-21.5-11.44-25-22.12-7.29-22.23,5.3-42.79,28.91-45.86,4.76-.62,7.79-.9,9.12-.85.62.02,1.16-.43,1.21-1.04l.78-9.38c.09-1.04-.5-2.04-1.47-2.46-5.02-2.2-10.99-2.98-17.92-2.34-.62.05-1.23-.02-1.82-.19-4.19-1.21-7.46-6.49-3.34-9.9,4.57-3.79,14.18-2.34,20.74-1.59.95.12,1.73-.69,1.59-1.63-2.77-17.62-7.08-34.64-12.93-51.1-3.95-11.1-10.02-20.53-18.21-28.25l-12.79-10.77c4.78-.31,9.02.45,12.72,2.25M293.1,241.73c0-15.79-12.81-28.6-28.6-28.6s-28.6,12.81-28.6,28.6,12.81,28.6,28.6,28.6,28.6-12.81,28.6-28.6h0Z"/>
    <path class="cls-50" d="M239.82,90.74c64.36,19.77,71.03,85.41,67.7,142.3-2.01,33.93-4.71,67.98-8.12,102.1-1.33.43-3.01.52-5.07.31-.73-.07-1.47.19-1.99.71-2.15,2.18-5.68,5.99-10.54,11.46-2.96,3.29-6.35,5.4-10.16,6.27.12-3.55.54-6.18,1.3-7.88.36-.78,1.02-1.37,1.85-1.61,5.02-1.42,7.51-4.97,7.44-10.68,0-1.3-1.52-2.04-2.56-1.23l-5.78,4.57c-.69.52-1.66-.02-1.54-.88,2.44-18.42,3.81-38.03,4.17-58.84.02-1.3.66-2.51,1.73-3.24,5.26-3.72,9.09-5.92,12.76-10.84,13.02-17.33,7.1-43.52-12.67-53.11-.95-.45-1.56-1.37-1.63-2.42l-.69-10.18c-.07-.9.71-1.63,1.61-1.52,4,.57,8.76,2.01,11.18-2.63,2.63-5.09-4.85-8.64-9.07-9.92-2.06-.62-3.58-2.37-3.93-4.48l-5.19-31.87c-.14-.97.07-1.97.64-2.77,2.79-3.95,6.94-6.54,7.22-12,.07-1.35-1.47-2.13-2.53-1.3l-6.72,5.28c-.85.66-2.11.31-2.46-.71-4.1-11.41-9.16-21.97-15.2-31.66-.05-.07-.09-.17-.17-.24l-11.58-13M283.96,307.39c-1.21-.21-2.53,1.87-3,4.64-.46,2.75.14,5.17,1.35,5.36,1.21.21,2.53-1.87,3-4.64.46-2.75-.14-5.17-1.35-5.36h0Z"/>
    <path class="cls-56" d="M185.88,91.37c-1.87,2.44-4.07,4.66-6.63,6.63-.28.21-.52.47-.73.78l-14.8,21.62c-.12.17-.31.26-.52.24-1.4-.26-2.39-1.42-2.96-3.48-1.11-2.56-2.56-3.55-4.31-2.98-.5.17-.92.57-1.11,1.07-4.05,11.1-11.72,21.59-16.12,29.46-3.76,6.72-6.58,16.15-8.48,28.3-3.01,19.25-2.37,41.44-11.06,61.87-5.28-56.4,3.62-124.29,66.72-143.49h0Z"/>
    <path class="cls-50" d="M160.24,117.16l-2.32-2.2c-.59-.54-1.56-.21-1.7.59-.69,4.19.47,7.79,3.46,10.82,1.11,1.11,1.49,2.77.99,4.26-5.59,16.74-9.4,33.95-11.46,51.64-3.58,1.09-12.55,4.29-10.92,9.21,1.42,4.33,4.71,5.85,9.87,4.55.95-.24,1.82.52,1.75,1.49l-.95,11.08c-.05.78-.52,1.47-1.21,1.85-23.39,12.48-26.69,42.08-5.26,58.56,1.61,1.23,4.19,3.13,7.74,5.66.52.38.83.97.85,1.61l1.37,51.83c0,.36-.38.57-.69.38l-5.49-3.69c-.64-.43-1.49-.12-1.7.62l-.33,1.16c-.31,1.07.12,2.23,1.04,2.87l5.61,3.76c1.89,1.28,3.1,3.36,3.24,5.64l2.49,36.27c.05.78-.73,1.35-1.47,1.04-.99-.45-3.1-1.59-6.32-3.46-2.01-1.16-4.5-.12-4.57,1.89-.19,5.3,7.55,9.49,11.79,10.68,1.14.33,1.99,1.33,2.13,2.51l.97,7.93c.05,2.46-.57,3.5-1.87,3.13-8.36-2.44-16.65-6.18-24.81-11.22-6.13-50.32-10.58-101.22-13.33-152.75,8.69-20.43,8.05-42.62,11.06-61.87,1.89-12.15,4.71-21.57,8.48-28.3,4.4-7.86,12.08-18.35,16.12-29.46.19-.5.62-.9,1.11-1.07,1.75-.57,3.2.43,4.31,2.98h0Z"/>
    <path class="cls-44" d="M134.57,118.27l-4.76,7.2c-3.39-2.79-5.66-6.06-6.87-9.78-.33-1.02.69-1.94,1.68-1.54l9.94,4.12h0Z"/>
    <path class="cls-49" d="M312.16,138.04l-5.92,4.57c-.76.59-1.87.31-2.25-.57l-1.47-3.29c-.38-.88-.12-1.87.62-2.46.97-.78,2.42-1.35,4.31-1.68,2.63-1.11,4.57-.99,5.8.33.66.71.31,1.75-1.09,3.1h0Z"/>
    <path class="cls-44" d="M360.3,182.35c-2.77.78-4.9.73-6.42-.17-.71-3.53-.21-7.32,1.49-11.41.17-.43.73-.5,1.02-.14,2.72,3.36,4.03,7.27,3.91,11.72h0Z"/>
    <path class="cls-59" d="M157.61,179.84c6.99-1.21,13.5-.76,19.51,1.3,2.27.78,3.53,3.27,2.89,5.71-.92,3.55-3.05,5.19-6.39,4.88-5.9-.52-11.22-.24-15.98.85-2.18.5-3.81,2.37-4,4.59l-.54,6.56c-.17,1.89,1.35,3.48,3.24,3.41,25.76-1.04,44.11,19.49,37.25,45.22-2.7,10.04-11.55,17.52-20.6,21.83-4.48,2.11-9.92,2.82-16.34,2.13-.9-.09-1.66.64-1.59,1.54,2.7,37.51,5.59,71.7,8.69,102.57.64,6.3,1.56,13.02,2.79,20.15l-.33,14.78c-.02,1.52-1.94,2.11-2.84.9-3.1-4.21-3.31-15.18-4.19-20.55l-.97-7.93c-.14-1.18-.99-2.18-2.13-2.51-4.24-1.18-11.98-5.37-11.79-10.68.07-2.01,2.56-3.05,4.57-1.89,3.22,1.87,5.33,3.01,6.32,3.46.73.31,1.52-.26,1.47-1.04l-2.49-36.27c-.14-2.27-1.35-4.36-3.24-5.64l-5.61-3.76c-.92-.64-1.35-1.8-1.04-2.87l.33-1.16c.21-.73,1.07-1.04,1.7-.62l5.49,3.69c.31.19.69-.02.69-.38l-1.37-51.83c-.02-.64-.33-1.23-.85-1.61-3.55-2.53-6.13-4.43-7.74-5.66-21.43-16.48-18.14-46.08,5.26-58.56.69-.38,1.16-1.07,1.21-1.85l.95-11.08c.07-.97-.81-1.73-1.75-1.49-5.16,1.3-8.45-.21-9.87-4.55-1.63-4.93,7.34-8.12,10.92-9.21.69-.36,1.42-.97,2.2-1.85.47-.52,1.18-.73,1.85-.54,1.49.45,2.96.43,4.36-.05M157.59,213.46c-15.3,2.46-25.64,17.14-23.14,32.82,2.51,15.67,16.93,26.39,32.23,23.95,15.3-2.46,25.64-17.14,23.14-32.82-2.51-15.67-16.93-26.39-32.23-23.95h0Z"/>
    <path class="cls-49" d="M110.83,186.13c1.44,2.01,1.54,4.69.31,8-4.29-.45-7.74-2.04-10.39-4.74-1.07-1.11-.31-2.96,1.23-3.01l8.86-.26h0Z"/>
    <path class="cls-42" d="M84,207.7l-12.53-4.55c-.02-3.1-.97-6.3-2.84-9.54-.64-1.11-2.25-1.07-2.82.09-1.35,2.75-1.85,6.04-1.52,9.9l-1.07-6.7c-.07-.45-.69-.52-.85-.09-.97,2.6-1.52,5.37-1.63,8.31-4.33,1.94-8.29,4.59-11.89,7.93l14.68-22.87c1.07-1.66,3.41-1.82,4.71-.36l15.75,17.88h0Z"/>
    <path class="cls-56" d="M360.41,189.83l3.08,8c-7.53,3.05-14.82,3.13-21.85.21,5.61-5.94,11.86-8.67,18.78-8.22h0Z"/>
    <path class="cls-58" d="M365.32,190.28c7.93,30.69,7.72,60.62-.64,89.79-.17.62-.43,1.21-.78,1.75l-4.03,6.51c-.8,1.28.71,2.77,1.97,1.94,3.1-2.01,5.82-5.3,8.19-9.85.36-.66.95-1.18,1.68-1.44l1.85-.64c.57-.19,1.09.36.9.9-1.59,4.5-1.47,7.62.33,9.38-5.78,12.34-15.98,20.65-30.62,24.96-11.51,3.39-23.35,4.57-35.54,3.58-.69-.05-1.18-.66-1.11-1.37l2.27-20.06,9.02-1.52c.78-.12,1.47-.52,1.97-1.14,1.02-1.25,2.27-2.56,3.72-3.88,1.73-1.59,4.52-.31,4.17,1.92-.12.83.12,1.63.76,2.39.31.36,1.11.54,2.46.52,11.15-.09,19.53-4.66,25.12-13.73,7.91-12.86,8.24-25.55,8.55-41.32.26-13.8-.43-27.51-2.06-41.13l-3.08-8,4.9.45h0Z"/>
    <path class="cls-50" d="M374.79,288.61c-1.8-1.75-1.92-4.88-.33-9.38.19-.54-.33-1.09-.9-.9l-1.85.64c-.73.26-1.33.78-1.68,1.44-2.37,4.55-5.09,7.84-8.19,9.85-1.26.83-2.77-.66-1.97-1.94l4.03-6.51c.36-.54.62-1.14.78-1.75,8.36-29.17,8.57-59.1.64-89.79,10.96,5.09,16.83,15.11,17.59,30.05,1.16,22.3.47,47.31-8.12,68.29h0Z"/>
    <path class="cls-53" d="M43.86,220.66c-2.91,6.61-4.5,13.28-4.74,20.03-.14,4.52-.19,13.14-.17,25.86-2.75-.54-5.54-.28-8.38.78-1.25.47-1.52,2.11-.5,2.96,2.82,2.3,6.01,3.74,9.64,4.29,1.78,13.57,5.4,26.59,10.87,39.09l-4.38,5.71c-1.16,1.52.09,3.69,1.99,3.41,3.31-.47,6.3-1.44,8.93-2.94l8.43,6.58-19.82.4c-.78.02-1.49-.45-1.8-1.16-3.53-8.17-5.61-14.56-6.25-19.18-1.75-12.6-4.69-24.15-8.81-34.66-1.37-3.46-1.16-8.03.66-13.73,5.82-18.28,10.06-31.78,12.72-40.49.99-3.29,2.56-6.37,4.62-9.12l12.41-16.53h.02l.57.38c.19.12.21.36.09.54-6.11,9-12.69,16.6-16.1,27.77h0Z"/>
    <path class="cls-44" d="M71.47,203.16c-2.13.78-4.31.99-6.56.64-.21-.07-.4-.12-.62-.19-.33-3.86.17-7.15,1.52-9.9.57-1.16,2.18-1.21,2.82-.09,1.87,3.24,2.82,6.44,2.84,9.54h0Z"/>
    <path class="cls-51" d="M64.3,203.61c.21.07.4.12.62.19l-4.17,1.33c.12-2.94.66-5.71,1.63-8.31.17-.43.78-.36.85.09l1.07,6.7h0Z"/>
    <path class="cls-50" d="M341.64,198.04c7.03,2.91,14.33,2.84,21.85-.21,1.63,13.61,2.32,27.32,2.06,41.13-.31,15.77-.64,28.46-8.55,41.32-5.59,9.07-13.97,13.64-25.12,13.73-1.35.02-2.15-.17-2.46-.52-.64-.76-.88-1.56-.76-2.39.36-2.23-2.44-3.5-4.17-1.92-1.44,1.33-2.7,2.63-3.72,3.88-.5.62-1.18,1.02-1.97,1.14l-9.02,1.52,1.99-23.63c.09-1.07.99-1.89,2.06-1.92,5.8-.05,10.82-1.07,15.08-3.05.78-.36,1.4-.99,1.73-1.78,4.66-10.73,6.37-21.9,5.14-33.48-1.37-12.81.57-24.08,5.85-33.81M355.89,230.89l-7.6-14.59c-.07-.14-.26-.19-.4-.12l-.19.09c-2.96,1.54-3.65,6.04-1.56,10.04l.31.59c2.08,4.03,6.18,6.04,9.12,4.5l.19-.09c.14-.09.21-.28.14-.43h0Z"/>
    <path class="cls-56" d="M90.58,225.98c-7.88,3.55-15.96,5.59-24.27,6.11-.64.05-1.21-.47-1.23-1.11l-.78-16.81-.69-2.42c13.4-2.63,22.4,2.13,26.97,14.23h0Z"/>
    <path class="cls-58" d="M63.61,211.75l.69,2.42c-.17,13.21-.28,26.4-.36,39.59-.02,8.97,1.63,20.24,4.97,33.79,4.12,16.67,18.33,22.68,33.5,24.29.97.12,1.66-.92,1.16-1.78-1.63-2.72-2.2-5.33-1.7-7.81.45-2.32,2.6-3.88,4.95-3.58l2.87.38c1.8.24,3.08,1.89,2.84,3.69l-.76,5.78c-.12.99.36,1.97,1.21,2.49,2.37,1.42,4.07,1.25,5.14-.5l1.78,21.95c.05.66-.45,1.23-1.11,1.25-14.75.36-28.82-2.39-42.22-8.24-10.89-4.76-18.54-12.9-22.94-24.41,4.71,2.98,9.23,5.97,13.52,8.97,2.68,1.87,5.11,2.06,7.36.62.62-.4,1.44-.33,2.01.19,2.3,2.18,4.81,3.46,7.53,3.84.05,0,.07-.02.07-.05,0-.05-.02-.07-.05-.09-13.43-4.64-16.57-17.83-23.37-26.61-.4-.52-.71-1.14-.9-1.75l-1.92-6.39c-.21-.71-.12-1.47.31-2.06l1.11-1.68c.28-.43.45-.95.45-1.47l-.19-61.04c.73-.64,2.08-1.23,4.05-1.78h0Z"/>
    <path class="cls-48" d="M293.1,241.73c0,15.79-12.81,28.6-28.6,28.6s-28.6-12.81-28.6-28.6,12.81-28.6,28.6-28.6,28.6,12.81,28.6,28.6M273.63,242.46c0-8.03-6.49-14.51-14.51-14.51s-14.51,6.49-14.51,14.51,6.49,14.51,14.51,14.51,14.51-6.49,14.51-14.51h0Z"/>
    <path class="cls-48" d="M157.59,213.46c15.3-2.45,29.72,8.28,32.23,23.95,2.51,15.68-7.84,30.36-23.14,32.82-15.3,2.45-29.72-8.28-32.23-23.95-2.51-15.68,7.84-30.36,23.14-32.82M182.29,242.35c0-8.1-6.58-14.68-14.68-14.68s-14.68,6.58-14.68,14.68,6.58,14.68,14.68,14.68,14.68-6.58,14.68-14.68h0Z"/>
    <path class="cls-50" d="M59.56,213.53l.19,61.04c0,.52-.17,1.04-.45,1.47l-1.11,1.68c-.43.59-.52,1.35-.31,2.06l1.92,6.39c.19.62.5,1.23.9,1.75,6.8,8.78,9.94,21.97,23.37,26.61.02.02.05.05.05.09,0,.02-.02.05-.07.05-2.72-.38-5.23-1.66-7.53-3.84-.57-.52-1.4-.59-2.01-.19-2.25,1.44-4.69,1.25-7.36-.62-4.29-3.01-8.81-5.99-13.52-8.97-7.7-22.56-10.04-45.2-6.99-67.86,1.11-8.26,5.42-14.82,12.93-19.68h0Z"/>
    <path class="cls-50" d="M90.58,225.98c1.78,9.54,1.54,21.05,1.28,29.57-.52,17.43,2.51,30.9,22.75,28.44.69-.07,1.3.43,1.35,1.09l2.15,25.43c-1.07,1.75-2.77,1.92-5.14.5-.85-.52-1.33-1.49-1.21-2.49l.76-5.78c.24-1.8-1.04-3.46-2.84-3.69l-2.87-.38c-2.34-.31-4.5,1.25-4.95,3.58-.5,2.49.07,5.09,1.7,7.81.5.85-.19,1.89-1.16,1.78-15.18-1.61-29.38-7.62-33.5-24.29-3.34-13.54-5-24.81-4.97-33.79.07-13.19.19-26.38.36-39.59l.78,16.81c.02.64.59,1.16,1.23,1.11,8.31-.52,16.39-2.56,24.27-6.11M82.5,245.97c-1.75-.71-4.23,1.32-5.53,4.54-1.29,3.22-.91,6.39.85,7.1,1.75.71,4.23-1.32,5.53-4.54,1.29-3.22.91-6.4-.85-7.1h0Z"/>
    <path class="cls-52" d="M355.89,230.89c.07.14,0,.33-.14.43l-.19.09c-2.94,1.54-7.03-.47-9.12-4.5l-.31-.59c-2.08-4-1.4-8.5,1.56-10.04l.19-.09c.14-.07.33-.02.4.12l7.6,14.59h0Z"/>
    <path class="cls-53" d="M301.17,393.55c-.4-13.83.9-27.23,3.95-40.18l7.15-.59c2.75-.24,3.31-4.03.76-5.04l-6.06-2.42-.38-17c-.05-1.7,1.28-3.15,2.98-3.29l31.47-2.53c1.35,3.67,3.55,6.44,6.61,8.33.47.28,1.09.02,1.21-.5.83-3.55.5-7.01-.95-10.39,9.02-4.1,14.75-7.15,17.19-9.19,8.17-6.8,14.47-15.08,18.87-24.89,2.72,1.3,5.75,1.52,9.04.69.88-.24,1.16-1.33.5-1.94l-6.58-6.35,3.65-44.44,7.96-3.08c1.35-.52,1.4-2.39.09-2.98-2.42-1.11-5.11-1.56-8.12-1.37l-.21-5c5.4.21,9.35,1.61,11.89,4.19,2.34,2.39,1.66,6.49-1.42,8.45-1.33.85-3.91,2.46-7.72,4.85-.66.4-1.07,1.14-1.07,1.92-.17,15.56-.73,30.85,5.61,45.39.59,1.33-.12,2.89-1.49,3.34-13.61,4.55-21.19,15.32-32.13,24.74-6.16,5.35-9.57,11.18-12.76,17.78-.88,1.82-3.1,2.51-4.85,1.49-10.02-5.85-21.97-8.15-35.92-6.94-1.02.09-1.82.9-1.89,1.92l-.9,10.3c-.07.9.36,1.78,1.09,2.27l8.67,5.8c1.89,1.28,1.87,4.05-.02,5.3-13.12,8.67-13.21,23.94-16.2,41.34h0Z"/>
    <path class="cls-49" d="M390.51,226.39c3.01-.19,5.71.26,8.12,1.37,1.3.59,1.25,2.46-.09,2.98l-7.96,3.08c-1.66-1.21-1.68-3.67-.07-7.43h0Z"/>
    <path class="cls-59" d="M182.29,242.35c0,8.1-6.58,14.68-14.68,14.68s-14.68-6.58-14.68-14.68,6.58-14.68,14.68-14.68,14.68,6.58,14.68,14.68h0Z"/>
    <path class="cls-59" d="M273.63,242.46c0,8.03-6.49,14.51-14.51,14.51s-14.51-6.49-14.51-14.51,6.49-14.51,14.51-14.51,14.51,6.49,14.51,14.51h0Z"/>
    <path class="cls-47" d="M329.16,244.9l-.17-5.23c2.96-.59,4.48.17,4.5,2.25.02,2.25-1.42,3.24-4.33,2.98h0Z"/>
    <path class="cls-58" d="M82.5,245.97c1.76.71,2.13,3.88.85,7.1-1.29,3.22-3.78,5.25-5.53,4.54-1.76-.71-2.13-3.88-.85-7.1,1.29-3.22,3.78-5.25,5.53-4.54h0Z"/>
    <path class="cls-49" d="M38.96,266.54c1.21,2.44,1.44,5.11.76,8.03-3.62-.54-6.82-1.99-9.64-4.29-1.02-.85-.76-2.49.5-2.96,2.84-1.07,5.64-1.33,8.38-.78h0Z"/>
    <path class="cls-44" d="M386.93,278.26l6.58,6.35c.66.62.38,1.7-.5,1.94-3.29.83-6.32.62-9.04-.69-2.06-3.2-1.07-5.73,2.96-7.6h0Z"/>
    <path class="cls-45" d="M204.5,292.54l17.17-.07c6.32-.5,13.26-1.87,20.79-4.14,7.08-2.15,12.55,1.73,12.48,9.21-.26,23.46-24.51,34.78-45.49,33.29-12.38-.88-22.21-5.28-29.48-13.19-6.42-6.98-8.95-14.47-7.6-22.42,1.02-5.9,4.81-7.98,11.39-6.25,6.96,1.82,13.88,3.03,20.74,3.58M189.2,317.66c16.29,9.97,32.65,9.97,49.08.02,6.01-4.45,9.59-11.72,10.73-21.83.14-1.3-1.02-2.34-2.3-2.08-1.3.26-6.53,1.28-15.7,3.01-18.02,3.43-34.78-.62-51.5-2.7-.92-.12-1.73.69-1.59,1.61,1.35,9.26,5.11,16.6,11.27,21.97h0Z"/>
    <path class="cls-54" d="M238.28,317.69c-16.86-9.99-33.22-9.99-49.08-.02-6.16-5.37-9.92-12.71-11.27-21.97-.14-.92.66-1.73,1.59-1.61,16.72,2.08,33.48,6.13,51.5,2.7,9.16-1.73,14.4-2.75,15.7-3.01,1.28-.26,2.44.78,2.3,2.08-1.14,10.11-4.71,17.38-10.73,21.83h0Z"/>
    <path class="cls-58" d="M283.96,307.39c1.21.19,1.8,2.61,1.35,5.36-.47,2.77-1.79,4.85-3,4.64-1.21-.19-1.8-2.61-1.35-5.36.47-2.77,1.79-4.85,3-4.64h0Z"/>
    <path class="cls-46" d="M238.28,317.69c-16.43,9.94-32.79,9.94-49.08-.02,15.86-9.97,32.23-9.97,49.08.02h0Z"/>
    <path class="cls-49" d="M57.12,319.84c-2.63,1.49-5.61,2.46-8.93,2.94-1.89.28-3.15-1.89-1.99-3.41l4.38-5.71c2.84.99,5.02,3.05,6.54,6.18h0Z"/>
    <path class="cls-49" d="M347.91,319.94c1.44,3.39,1.78,6.84.95,10.39-.12.52-.73.78-1.21.5-3.05-1.89-5.26-4.66-6.61-8.33l6.87-2.56h0Z"/>
    <path class="cls-58" d="M299.4,335.14l-8.15,83.42-76.05-.07.28-50.6.21,28.03c0,.88.9,1.47,1.71,1.14,18.35-7.65,34.02-19.34,47-35.09l-3.76,52.23c-.05.54.43.97.95.9.78-.09,1.25-.64,1.47-1.61,4.36-20.77,7.22-40.63,8.6-59.6,3.81-.88,7.2-2.98,10.16-6.27,4.85-5.47,8.38-9.28,10.54-11.46.52-.52,1.25-.78,1.99-.71,2.06.21,3.74.12,5.07-.31h0Z"/>
    <path class="cls-49" d="M91.58,338.43l.07,1.25-5.82,6.58c-1.18,1.35-3.41.5-3.43-1.3-.02-1.3.43-3.03,1.35-5.19l.9-1.75c.36-.66,1.02-1.09,1.75-1.18,1.94-.24,3.67.28,5.19,1.59h0Z"/>
    <path class="cls-55" d="M92.81,338.26c-.26.73-.64,1.21-1.16,1.42l-.07-1.25c.95.19,1.35.14,1.23-.17h0Z"/>
    <path class="cls-52" d="M215.48,367.89l-.28,50.6h-4.1l-.76-21.85-.21-54.77c0-1.25,1.07-2.23,2.3-2.11l1.3.09c1.59.14,2.77,1.54,2.63,3.13l-.85,9.94c-.05.59.17,1.16.57,1.56.85.85,1.33,1.28,1.4,1.28,3.17-.07,4.19,4.21,1.35,5.68-2.72,1.4-3.84,3.53-3.34,6.44h0Z"/>
    <path class="cls-49" d="M306.97,345.32l6.06,2.42c2.56,1.02,1.99,4.81-.76,5.04l-7.15.59c-1.7-4.24-1.09-6.94,1.85-8.05h0Z"/>
    <path class="cls-44" d="M122.5,364.33c1.42,2.86,1.7,5.68.85,8.45l-10.42-1.11c-1.54-.17-1.87-2.27-.45-2.91l10.02-4.43h0Z"/>
    <path class="cls-58" d="M159.18,395.71c.88,5.37,1.09,16.34,4.19,20.55.9,1.21,2.82.62,2.84-.9l.33-14.78c10.28,2.11,21.31,2.44,33.08.97,5.33-.64,8.9-2.3,10.73-4.92l.76,21.85-76.2-.19-2.42-30.69c8.17,5.04,16.46,8.78,24.81,11.22,1.3.38,1.92-.66,1.87-3.13h0Z"/>
  </g>
</svg>