<?xml version="1.0" encoding="UTF-8"?>
<svg id="Camada_1" data-name="Camada 1" xmlns="http://www.w3.org/2000/svg" xmlns:xlink="http://www.w3.org/1999/xlink" viewBox="0 0 422.07 422.07">
  <defs>
    <style>
      .cls-1 {
        stroke: #7c9370;
      }

      .cls-1, .cls-2, .cls-3, .cls-4, .cls-5, .cls-6, .cls-7, .cls-8, .cls-9, .cls-10, .cls-11, .cls-12, .cls-13, .cls-14, .cls-15, .cls-16, .cls-17, .cls-18, .cls-19, .cls-20, .cls-21, .cls-22, .cls-23, .cls-24, .cls-25, .cls-26, .cls-27, .cls-28, .cls-29, .cls-30, .cls-31, .cls-32, .cls-33, .cls-34, .cls-35, .cls-36, .cls-37, .cls-38, .cls-39, .cls-40, .cls-41, .cls-42, .cls-43, .cls-44, .cls-45, .cls-46, .cls-47, .cls-48, .cls-49, .cls-50, .cls-51, .cls-52, .cls-53, .cls-54, .cls-55, .cls-56, .cls-57, .cls-58, .cls-59, .cls-60, .cls-61, .cls-62, .cls-63, .cls-64, .cls-65, .cls-66, .cls-67, .cls-68, .cls-69, .cls-70, .cls-71, .cls-72, .cls-73, .cls-74, .cls-75, .cls-76, .cls-77, .cls-78, .cls-79, .cls-80, .cls-81, .cls-82, .cls-83, .cls-84, .cls-85, .cls-86, .cls-87 {
        fill: none;
        stroke-miterlimit: 10;
      }

      .cls-2 {
        stroke: #a7de87;
      }

      .cls-3 {
        stroke: #acd262;
      }

      .cls-4 {
        stroke: #3ebfc7;
      }

      .cls-5 {
        stroke: #72dcbe;
      }

      .cls-6 {
        stroke: #56beb7;
      }

      .cls-7 {
        stroke: #71c594;
      }

      .cls-88 {
        fill: #020304;
      }

      .cls-8 {
        stroke: #62ceb2;
      }

      .cls-9 {
        stroke: #4d7c68;
      }

      .cls-89 {
        fill: #cdd2d4;
      }

      .cls-10 {
        stroke: #1c5268;
      }

      .cls-11 {
        stroke: #737235;
      }

      .cls-12 {
        stroke: #86d18e;
      }

      .cls-13 {
        stroke: #867d5c;
      }

      .cls-14 {
        stroke: #6fd6af;
      }

      .cls-15 {
        stroke: #a9d1a4;
      }

      .cls-16 {
        stroke: #85816a;
      }

      .cls-17 {
        stroke: #7b7c6a;
      }

      .cls-18 {
        stroke: #b2d5a0;
      }

      .cls-19 {
        stroke: #41b2bd;
      }

      .cls-90 {
        fill: #77d9ab;
      }

      .cls-20 {
        stroke: #8dcac6;
      }

      .cls-21 {
        stroke: #1d606f;
      }

      .cls-22 {
        stroke: #1a6d79;
      }

      .cls-23 {
        stroke: #346a60;
      }

      .cls-24 {
        stroke: #3d6e5c;
      }

      .cls-91 {
        fill: #d7e263;
      }

      .cls-25 {
        stroke: #3e7c64;
      }

      .cls-26 {
        stroke: #031015;
      }

      .cls-92 {
        fill: #f5dcbd;
      }

      .cls-27 {
        stroke: #4ebaba;
      }

      .cls-28 {
        stroke: #1c6482;
      }

      .cls-29 {
        stroke: #6d7238;
      }

      .cls-30 {
        stroke: #4d7d64;
      }

      .cls-31 {
        stroke: #276263;
      }

      .cls-93 {
        fill: #63c9f0;
      }

      .cls-32 {
        stroke: #7fe4bb;
      }

      .cls-33 {
        stroke: #67ccc3;
      }

      .cls-34 {
        stroke: #19718c;
      }

      .cls-35 {
        stroke: #52a687;
      }

      .cls-36 {
        stroke: #4c653f;
      }

      .cls-37 {
        stroke: #379;
      }

      .cls-94 {
        fill: #0e0106;
      }

      .cls-38 {
        stroke: #81bacb;
      }

      .cls-39 {
        stroke: #1b113f;
      }

      .cls-95 {
        fill: #35a2c2;
      }

      .cls-40 {
        stroke: #1b1047;
      }

      .cls-41 {
        stroke: #021428;
      }

      .cls-42 {
        stroke: #59cab5;
      }

      .cls-96 {
        fill: #fdf8b2;
      }

      .cls-97 {
        fill: #98f6c3;
      }

      .cls-43 {
        stroke: #9cc9a7;
      }

      .cls-44 {
        stroke: #49c3e3;
      }

      .cls-45 {
        stroke: #357867;
      }

      .cls-46 {
        stroke: #4b73b9;
      }

      .cls-98 {
        fill: #c3db53;
      }

      .cls-47 {
        stroke: #40709d;
      }

      .cls-48 {
        stroke: #346b5b;
      }

      .cls-49 {
        stroke: #696e2d;
      }

      .cls-50 {
        stroke: #64d9cc;
      }

      .cls-51 {
        stroke: #686a71;
      }

      .cls-52 {
        stroke: #9fda8b;
      }

      .cls-53 {
        stroke: #03222f;
      }

      .cls-99 {
        fill: #332070;
      }

      .cls-54 {
        stroke: #4bc7c4;
      }

      .cls-100 {
        fill: #ecd095;
      }

      .cls-101 {
        fill: #02020d;
      }

      .cls-55 {
        stroke: #776951;
      }

      .cls-56 {
        stroke: #3460a2;
      }

      .cls-57 {
        stroke: #719c57;
      }

      .cls-58 {
        stroke: #4e8a70;
      }

      .cls-59 {
        stroke: #39947e;
      }

      .cls-60 {
        stroke: #92d28e;
      }

      .cls-102 {
        fill: #041e1c;
      }

      .cls-61 {
        stroke: #1c5363;
      }

      .cls-62 {
        stroke: #1b2162;
      }

      .cls-63 {
        stroke: #58c6d4;
      }

      .cls-103 {
        fill: #95c870;
      }

      .cls-104 {
        fill: url(#Gradiente_sem_nome_10);
      }

      .cls-64 {
        stroke: #7ec7d5;
      }

      .cls-105 {
        fill: #2fbcd5;
      }

      .cls-65 {
        stroke: #cddf5b;
      }

      .cls-66 {
        stroke: #316dab;
      }

      .cls-67 {
        stroke: #407194;
      }

      .cls-68 {
        stroke: #4cb6d9;
      }

      .cls-69 {
        stroke: #072c2c;
      }

      .cls-70 {
        stroke: #7b7e62;
      }

      .cls-71 {
        stroke: #27747d;
      }

      .cls-106 {
        fill: #4cc2b8;
      }

      .cls-72 {
        stroke: #88e8b7;
      }

      .cls-73 {
        stroke: #b8ec93;
      }

      .cls-107 {
        fill: #022542;
      }

      .cls-74 {
        stroke: #2c8c81;
      }

      .cls-75 {
        stroke: #88cf86;
      }

      .cls-76 {
        stroke: #97df9a;
      }

      .cls-77 {
        stroke: #4d7346;
      }

      .cls-108 {
        fill: #66d2b2;
      }

      .cls-78 {
        stroke: #27635e;
      }

      .cls-79 {
        stroke: #8078ab;
      }

      .cls-80 {
        stroke: #b6d56a;
      }

      .cls-81 {
        stroke: #28706a;
      }

      .cls-82 {
        stroke: #6d7334;
      }

      .cls-83 {
        stroke: #65b599;
      }

      .cls-84 {
        stroke: #195f71;
      }

      .cls-85 {
        stroke: #826f62;
      }

      .cls-86 {
        stroke: #331f79;
      }

      .cls-109 {
        fill: #0b554a;
      }

      .cls-87 {
        stroke: #41977b;
      }
    </style>
    <linearGradient id="Gradiente_sem_nome_10" data-name="Gradiente sem nome 10" x1="15.59" y1="49.92" x2="371.99" y2="343.72" gradientUnits="userSpaceOnUse">
      <stop offset="0" stop-color="#331d81"/>
      <stop offset="1" stop-color="#16085e"/>
    </linearGradient>
  </defs>
  <rect class="cls-104" x="-.57" width="423.22" height="422.07"/>
  <g>
    <path class="cls-86" d="M92.47,156.67c-6.71,5.29-14.61,12.66-23.64,22.1-17.34,18.09-25.42,45.01-15.49,67.87"/>
    <path class="cls-40" d="M53.34,246.64c2.82,8.32,7.16,16.05,13.02,23.17.76.95,1.04,2.18.78,3.34-2.56,11.15-2.96,20.54-1.21,28.2,2.49,10.79,8.7,20.96,18.69,30.54,5.53,5.31,11.55,9.79,18.02,13.42.5.28.66.92.33,1.4-14.37,20.47-23.64,43.04-27.79,67.78-.14.78.12,1.57.66,2.13,2.04,2.16,4.27,2.16,6.71.02"/>
    <path class="cls-79" d="M82.56,416.65c.71-.31,1.61-.36,2.7-.14"/>
    <line class="cls-66" x1="85.26" y1="416.5" x2="113.15" y2="416.48"/>
    <line class="cls-62" x1="113.15" y1="416.48" x2="120.19" y2="416.79"/>
    <line class="cls-47" x1="120.19" y1="416.79" x2="137.22" y2="416.91"/>
    <path class="cls-86" d="M137.22,416.91c6.43,3.77,14.39,5.69,23.9,5.74,37.26.21,67.61-.38,91.09-1.83,6.73-.43,13.35-1.8,19.85-4.13"/>
    <line class="cls-17" x1="272.06" y1="416.69" x2="285.05" y2="416.48"/>
    <line class="cls-47" x1="285.05" y1="416.48" x2="303.6" y2="415.96"/>
    <path class="cls-62" d="M303.6,415.96c1.87,1.92,4.08,2.23,6.57.88"/>
    <line class="cls-46" x1="310.17" y1="416.84" x2="323.78" y2="416.34"/>
    <path class="cls-56" d="M323.78,416.34c2.23.43,4.67.4,7.33-.09"/>
    <line class="cls-79" x1="331.11" y1="416.24" x2="341.78" y2="415.89"/>
    <path class="cls-40" d="M341.78,415.89c.97,1.35,2.51,1.75,4.62,1.26,1.33-.31,2.18-1.61,1.92-2.94-4.55-24.12-13.3-47.19-26.25-67.21-.47-.76-.28-1.73.43-2.28,20.82-15.27,36.85-29.93,36.21-57.39-.12-4.79-.38-9.37-.78-13.73-.21-2.32.47-4.62,1.9-6.45,12.33-15.91,16.03-34.24,11.12-54.99"/>
    <path class="cls-86" d="M370.95,212.16c-2.44-19.47-13.11-32.99-32.04-40.55M338.91,171.61c-.88-2.73-1.92-5.24-3.13-7.57-.05-.07-.14-.12-.17-.05-.02.05,0,.09.02.17,1.04,2.35,2.13,4.84,3.27,7.45M338.91,171.61l18.85,12.54c.31.21.57.45.81.74l1.52,1.97c.19.24.14.57-.09.74-.69.5-.92.19-.69-.97.07-.36-.33-.76-1.26-1.21-1.02-.52-2.18-.92-3.46-1.23"/>
    <path class="cls-40" d="M354.58,184.17l-15.51-10.36c-1.92-1.28-3.3-3.23-3.84-5.45-3.79-15.25-13.4-24.88-28.81-28.93-.88-.21-1.75-.33-2.66-.33h-17.79c-.45,0-.88-.07-1.3-.19-8.89-2.49-14.06-4.15-15.51-4.93-7.28-3.98-14.13-9.51-20.54-16.6-.59-.64-1.09-1.35-1.52-2.11-4.79-8.44-9.6-16.08-14.47-22.93-5.72-8.04-13.26-12.28-22.65-12.69-.85-.05-1.73.07-2.54.33-11.36,3.68-18.02,13.75-23.74,23.9-5.67,10.1-13.52,20.94-23.29,26.61-4.06,2.35-9.18,4.53-15.39,6.57-3.44,1.14-8.23,1.54-14.42,1.23-6.95-.36-11.83-.17-14.66.52-9.04,2.23-16.86,8.18-23.5,17.86"/>
    <path class="cls-39" d="M354.58,184.17c7.71,8.18,13.16,17.52,16.36,27.98"/>
    <line class="cls-51" x1="341.78" y1="415.89" x2="340.09" y2="408.61"/>
    <path class="cls-10" d="M340.09,408.61c0-3.53-.83-6.92-2.51-10.13"/>
    <path class="cls-9" d="M337.58,398.48c-3.53-12.88-8.47-25.52-14.85-37.94"/>
    <path class="cls-10" d="M322.73,360.54l-6.52-11.71c-.36-.62-1.11-.88-1.78-.57l-21.96,10.34"/>
    <line class="cls-41" x1="292.47" y1="358.59" x2="288.87" y2="359.54"/>
    <line class="cls-10" x1="288.87" y1="359.54" x2="254.56" y2="370.64"/>
    <path class="cls-36" d="M254.56,370.64c-2.51.55-5.15.33-7.87-.64-1.68-.59-1.57-2.99.14-3.44,21.46-5.67,42.35-13.33,62.68-22.93,14.82-7.02,26.68-17.12,35.6-30.28"/>
    <path class="cls-29" d="M345.1,313.35c3.53-5.9,5.81-12.12,6.85-18.66"/>
    <line class="cls-23" x1="351.95" y1="294.68" x2="352.02" y2="292.15"/>
    <line class="cls-10" x1="352.02" y1="292.15" x2="350.98" y2="274.36"/>
    <line class="cls-41" x1="350.98" y1="274.36" x2="361.15" y2="253.82"/>
    <path class="cls-10" d="M361.15,253.82c5.95-13.87,7.09-27.58,3.41-41.07"/>
    <line class="cls-23" x1="364.57" y1="212.75" x2="361.84" y2="206.06"/>
    <path class="cls-9" d="M361.84,206.06c-7.47-16.29-19.64-26.49-36.47-30.59"/>
    <path class="cls-26" d="M325.37,175.47c-1.26-1.21-2.89-1.92-4.89-2.11-.47-.05-.85-.45-.81-.92l.07-.81c.05-.64.62-1.11,1.28-1.07l7.35.62c.43.05.83-.12,1.11-.43.78-.88.81-1.61.07-2.21"/>
    <path class="cls-84" d="M329.56,168.55c-1.87-5.36-4.55-9.94-8.06-13.71"/>
    <line class="cls-23" x1="321.5" y1="154.84" x2="314.48" y2="149.01"/>
    <path class="cls-29" d="M314.48,149.01c-12.85-6.36-25.33-5.36-37.4,2.99"/>
    <line class="cls-24" x1="277.08" y1="151.99" x2="274.55" y2="153.23"/>
    <path class="cls-69" d="M274.55,153.23c-.57-1.33-.64-2.63-.19-3.89"/>
    <path class="cls-9" d="M274.36,149.34l4.89-2.87c.55-.31.47-1.11-.1-1.35-18.05-7.14-30.88-15.13-41.78-32.73-6.17-9.96-18.43-35.36-34.2-22.69-8.25,6.62-14.35,18.17-18.12,24.88-8.39,14.94-21.86,24.12-38.46,29.79-1.23.4-1.71,1.11-1.42,2.09"/>
    <path class="cls-69" d="M145.16,146.44c.31.71.24,1.26-.26,1.66-.55.45-1.3.59-2.23.38"/>
    <line class="cls-55" x1="142.67" y1="148.48" x2="136.05" y2="145.61"/>
    <line class="cls-31" x1="136.05" y1="145.61" x2="125.98" y2="144.78"/>
    <path class="cls-51" d="M125.98,144.78c-11.64.21-20.63,5.34-26.96,15.37"/>
    <path class="cls-84" d="M99.01,160.15c-2.37,2.28-4.17,5.79-5.43,10.51"/>
    <path class="cls-26" d="M93.58,170.66c.9,1.64,1.42,3.49,1.59,5.6"/>
    <path class="cls-36" d="M95.17,176.25c-17.03,5.81-28.5,17.34-34.41,34.55"/>
    <path class="cls-31" d="M60.76,210.81c-.78.64-1.73,3.25-2.85,7.8"/>
    <path class="cls-10" d="M57.92,218.61c-2.82,20.47,3.01,37.3,17.5,50.56"/>
    <path class="cls-26" d="M75.42,269.17c.24,2.21-.33,3.94-1.68,5.24"/>
    <path class="cls-10" d="M73.73,274.41c-1.85,5.67-2.56,11.76-2.13,18.28"/>
    <line class="cls-9" x1="71.6" y1="292.69" x2="72.93" y2="300.71"/>
    <line class="cls-29" x1="72.93" y1="300.71" x2="73.38" y2="302.49"/>
    <path class="cls-36" d="M73.38,302.49c7.07,21.65,28.29,36.57,49.42,45.32,17.45,7.23,35.41,13.59,53.86,19.04,1.45.43,1.38,2.51-.09,2.85l-3.34.74"/>
    <path class="cls-10" d="M173.22,370.43c-13.19-2.68-25.99-6.47-38.42-11.36"/>
    <line class="cls-41" x1="134.8" y1="359.07" x2="131.34" y2="357.98"/>
    <path class="cls-84" d="M131.34,357.98l-20.49-8.54c-.66-.26-1.42-.12-1.92.4-4.1,4.29-7.23,9.18-9.44,14.63"/>
    <path class="cls-9" d="M99.49,364.47c-5.34,10.03-9.51,20.37-12.47,31.02"/>
    <line class="cls-31" x1="87.01" y1="395.49" x2="84.17" y2="405.81"/>
    <line class="cls-51" x1="84.17" y1="405.81" x2="82.56" y2="416.65"/>
    <path class="cls-39" d="M53.34,246.64c-6.78-30.8,2.66-57.29,31.47-73.25,1.49-.83,2.54-2.3,3.13-4.39,1.33-4.77,3.06-7.92,4.53-12.33"/>
    <path class="cls-43" d="M136.05,145.61c-1.57-.02-3.06-.02-4.51,0-.57,0-1.04.45-1.09,1.02s.33,1.09.9,1.21c.59.12.9.55.92,1.28.02.19-.02.4-.14.59-1.64,2.77-.92,5.15,2.18,7.11"/>
    <path class="cls-8" d="M134.32,156.83c1.45,2.16,3.01,3.32,4.74,3.49,5.29.55,8.58,2.4,9.94,5.53"/>
    <path class="cls-43" d="M149,165.84c3.11,5.15,6.97,8.82,11.55,11.03.66.33,1.11.97,1.19,1.68l.55,5.15"/>
    <path class="cls-42" d="M162.28,183.7c5.6,11.45,8.87,20.18,9.82,26.18,2.35,14.77,6.71,28.77,13.09,41.97.31.69.09,1.49-.52,1.92-2.35,1.59-5.91,6.09-10.67,13.47-6.52,10.08-11.88,19.56-16.05,28.46-.97,2.04-2.44,3.82-4.32,5.1l-14.04,9.82"/>
    <path class="cls-78" d="M139.59,310.62c-17.81,3.87-34.34.52-49.59-9.98"/>
    <path class="cls-19" d="M90,300.64l-2.44-2.56c-.9-.95-.21-2.49,1.09-2.47,10.32.31,19.94-.55,28.91-2.54,16.6-3.68,30.19-14.56,38.2-29.33,2.06-3.82,2.61-7.47,1.66-10.98"/>
    <path class="cls-81" d="M157.42,252.76c5.29-11.74,6.92-23.83,4.86-36.31-2.87-17.41-12.24-31.04-28.05-40.93"/>
    <path class="cls-4" d="M134.23,175.52l17.22,5.1c1.16.33,2.18-.85,1.66-1.94-7.42-16.05-27.53-22.96-45.25-25.28"/>
    <line class="cls-28" x1="134.8" y1="359.07" x2="130.39" y2="373.15"/>
    <path class="cls-71" d="M130.39,373.15c-5.34,14.51-8.73,29.05-10.2,43.63"/>
    <line class="cls-37" x1="308.43" y1="405.67" x2="310.17" y2="416.84"/>
    <path class="cls-71" d="M303.6,415.96c-1.94-14.99-5.41-29.33-10.39-43.02"/>
    <line class="cls-28" x1="293.21" y1="372.94" x2="288.87" y2="359.54"/>
    <path class="cls-22" d="M329.56,168.55c.36,1.28-.07,1.85-1.3,1.73-7.9-.88-15.82-1.04-23.76-.55-.78.05-1.52.19-2.25.43-14.77,4.86-26.11,13.94-34.05,27.25"/>
    <path class="cls-18" d="M242.65,206.99c2.09,2.94,6.69,3.75,8.11-.21,1.16-3.23,2.23-6.21,3.15-8.99.31-.9-.24-1.85-1.16-2.02-2.04-.4-4.2-.38-6.5.07"/>
    <path class="cls-2" d="M250.31,185.5c.21,3.37,2.32,5.03,6.31,4.96,1.02-.02,1.94-.57,2.47-1.45l4.7-8.13c.73-1.28,0-2.92-1.45-3.18l-7.61-1.42M260.63,167.86c-.02,2.21.64,4.06,1.99,5.53,5.12,5.45,10.58-4.41,12.14-7.87.33-.74.26-1.59-.21-2.25-2.47-3.46-6.07-3.27-10.81.59"/>
    <path class="cls-3" d="M94.48,319.42c7.78,6.9,14.96,11.74,21.53,14.51,45.27,19.04,91.85,24.28,139.73,15.77,15.3-2.73,35.67-9.37,48.66-13.14,6.85-1.99,15.49-6.64,25.87-13.97"/>
    <path class="cls-83" d="M254.56,370.64c2.77,4.86,6.95,9.41,12.52,13.68"/>
    <line class="cls-7" x1="267.08" y1="384.32" x2="268.52" y2="387.69"/>
    <path class="cls-3" d="M268.52,387.69c-9.13,1.21-18.38,2.68-27.75,4.41-18.26,3.37-33.2,5.19-48.97,2.47-4.48-.78-15.51-3.34-33.08-7.73"/>
    <path class="cls-80" d="M158.73,386.84c-1.21.36-2.44.4-3.7.09"/>
    <line class="cls-7" x1="155.03" y1="386.93" x2="156.99" y2="383.87"/>
    <line class="cls-83" x1="156.99" y1="383.87" x2="173.22" y2="370.43"/>
    <path class="cls-52" d="M314.48,149.01c-4.34,3.51-9.34,4.89-15.01,4.1-.45-.07-.76-.45-.71-.9.07-.45.02-.73-.14-.85-.36-.24-.74-.4-1.14-.52-1.28-.33-2.3.24-3.06,1.73-.33.69-1.04,1.4-2.13,2.18-2.47,1.78-4.96,3.53-7.45,5.29"/>
    <path class="cls-2" d="M284.84,160.03c-2.89.36-5.24-.4-7.04-2.28-.52-.55-.81-1.28-.78-2.04l.07-3.72"/>
    <path class="cls-27" d="M364.57,212.75c-1.49,16.41-8.3,33.82-22.1,43.21-16.72,11.41-38.82,12.66-55.94,1.75"/>
    <line class="cls-1" x1="142.67" y1="148.48" x2="145.71" y2="150.93"/>
    <path class="cls-18" d="M145.71,150.93c1.21,3.06,1.57,5.29,1.11,6.69-.76,2.35-3.34,3.51-5.5,2.49l-7-3.27"/>
    <path class="cls-59" d="M180.64,198.45c-.17,1.28-.59,2.4-1.23,3.37"/>
    <path class="cls-1" d="M179.4,201.82c-.55-3.15-1.73-5.76-3.51-7.83"/>
    <line class="cls-59" x1="175.9" y1="193.99" x2="174.35" y2="188.58"/>
    <path class="cls-1" d="M174.35,188.58c-.73-4.1-2.21-7.68-4.41-10.74-3.7-5.22-5.62-7.92-5.74-8.11-2.21-3.51-4.79-6.69-7.75-9.51"/>
    <path class="cls-87" d="M156.45,160.22c-2.82-3.79-6.4-6.9-10.74-9.3"/>
    <path class="cls-21" d="M157.42,252.76c-7.64,13.28-17.22,22.41-28.72,27.37-19.42,8.37-37.75,6.45-54.97-5.72M75.42,269.17c16.67,11.31,33.96,13.16,51.84,5.55"/>
    <path class="cls-81" d="M127.26,274.72c14.58-7.94,24.12-19.45,28.58-34.5"/>
    <path class="cls-25" d="M155.83,240.21c3.82-13.54,2.18-26.49-4.91-38.84"/>
    <path class="cls-77" d="M150.92,201.37c-12.62-20.84-31.21-29.22-55.75-25.11"/>
    <line class="cls-35" x1="274.36" y1="149.34" x2="273.22" y2="149.69"/>
    <path class="cls-5" d="M273.22,149.69l-6.73,1.19c-.74.14-1.47-.02-2.06-.45l-17.9-12.73c-.12-.09-.24-.21-.36-.36-6.9-9.18-14.25-19.64-22.03-31.33-1.83-2.73-4.89-5.62-9.18-8.73-.71-.5-1.61-.69-2.47-.52-4.79.92-8.21,2.99-10.27,6.19-5,7.78-10.32,15.68-15.98,23.71-4.7,6.66-11.5,12.85-20.44,18.54-4.24,2.73-8.66,4.46-13.21,5.22"/>
    <path class="cls-35" d="M152.58,150.43c-2.16-1.73-4.62-3.06-7.42-3.98"/>
    <path class="cls-5" d="M107.03,371.09l-2.75,5.31c-.43.83-1.26,1.4-2.21,1.45-2.56.17-4.51.64-5.83,1.42-1.97,1.16-2.06,4.01-.14,5.29l5.17,3.46c1.61,1.09,1.78,3.37.38,4.7-1.85,1.75-3.23,3.82-4.1,6.21-.66,1.78-2.7,2.58-4.39,1.73-3.13-1.59-5.17-3.3-6.14-5.17"/>
    <path class="cls-80" d="M345.1,313.35c-5.83,1.75-10.77,4.84-14.82,9.25"/>
    <path class="cls-65" d="M330.28,322.59c-18.02,5.43-36.12,6.47-54.31,3.15-14.68-2.68-26.89-5.03-36.59-7.07-6.17-1.3-18.21-1.87-36.16-1.73-16.77.14-46.24,6.57-59.14,8.75-17.55,2.96-34.08.85-49.59-6.28"/>
    <line class="cls-80" x1="94.48" y1="319.42" x2="73.38" y2="302.49"/>
    <path class="cls-82" d="M88.41,302.32c10.32,17.1,40.62,16.88,57.48,12.88,15.46-3.7,28.81-6.43,40.05-8.16,20.51-3.18,41.43-2.49,62.8,2.06,26.75,5.67,64.05,18.31,85.59-5.53"/>
    <path class="cls-30" d="M88.65,300.8c-.28.69-.36,1.21-.24,1.52"/>
    <path class="cls-73" d="M88.41,302.32c-3.89-2.58-7.94-2.89-12.19-.92-.64.31-1.38.26-1.97-.14-.43-.28-.88-.47-1.33-.55"/>
    <path class="cls-28" d="M361.15,253.82c-23.29,37.11-73.16,32.11-90.26-7.64"/>
    <path class="cls-34" d="M131.34,357.98c-9.56,17.86-15.63,37.35-18.19,58.5"/>
    <path class="cls-64" d="M85.26,416.5l10.62.02c.76,0,1.19-.88.71-1.49l-3.34-4.27"/>
    <path class="cls-4" d="M93.25,410.76c6.05-8.54,9.44-15.08,10.22-19.61,1.07-6.24,2.25-12.92,3.56-20.06"/>
    <path class="cls-50" d="M107.03,371.09c1.99-1.54-.52-3.75-7.54-6.62"/>
    <path class="cls-19" d="M293.21,372.94c-8.56,6-17.26,9.79-26.13,11.38M127.26,274.72c-2.61-.57-2.42-2.28.57-5.12,1.94-1.85.24-5.1-2.4-4.55-22.17,4.53-40.53-1.8-55.06-19-6.52-7.71-10.67-16.86-12.45-27.44"/>
    <line class="cls-61" x1="90" y1="300.64" x2="88.65" y2="300.8"/>
    <path class="cls-33" d="M88.65,300.8c-1.59-1.33-3.39-2.42-5.38-3.25-1.57-.64-3.41-1.59-5.55-2.82-1.92-1.14-3.96-1.83-6.12-2.04"/>
    <path class="cls-54" d="M321.5,154.84c-33.98-2.85-52.84,19.4-64.31,48.02-.19.5.4.92.81.57,2.87-2.49,6.26-4.51,10.2-6.02"/>
    <path class="cls-45" d="M268.19,197.41c-8.39,16.86-10.1,37.66-1.16,54.52"/>
    <path class="cls-27" d="M267.03,251.93l-1.33,2.3c-.33.59-.4,1.28-.17,1.92,8.61,23.69,31.16,37.78,55.61,39.06,9.06.47,20.66-1.94,30.88-3.06"/>
    <line class="cls-52" x1="351.95" y1="294.68" x2="334.33" y2="303.58"/>
    <path class="cls-48" d="M334.33,303.58c.31-1.16.38-1.9.24-2.16-.36-.71-1.26-.95-1.92-.5-27.08,18.81-52.65,9.18-82.08,2.75-25.85-5.64-51.48-5.74-76.91-.26-11.17,2.42-22.53,4.81-34.08,7.21"/>
    <path class="cls-15" d="M162.28,183.7c1.35,3.96,3.51,6.55,6.47,7.75.74.28,1.52.38,2.3.24,2.68-.5,3.77-1.52,3.3-3.11M175.9,193.99c-2.7.33-5.81,1.45-5.48,4.79.33,3.49,1.45,6.62,3.37,9.41,1.9,2.77,6.26,1.23,5.98-2.13l-.36-4.24"/>
    <line class="cls-59" x1="242.84" y1="198.28" x2="239.92" y2="211.37"/>
    <path class="cls-14" d="M239.92,211.37l-9.15,35.41c-.21.81-.02,1.66.47,2.32l4.41,5.6c.71.9,2.11.83,2.7-.14,1.9-3.06,3.46-6.57,4.67-10.55,5.67-18.45,10.01-32.49,13-42.12,4.62-14.94,15.32-32.58,28.81-41.86"/>
    <line class="cls-20" x1="93.25" y1="410.76" x2="84.17" y2="405.81"/>
    <path class="cls-19" d="M156.99,383.87c-1.4.64-2.42.81-3.04.47-7.49-4.06-15.34-7.8-23.57-11.19"/>
    <path class="cls-20" d="M125.98,144.78c1.49,3.18.55,5.62-2.82,7.3-.69.33-1.47.4-2.21.17-6.05-1.92-10.41-1.54-13.09,1.14"/>
    <path class="cls-64" d="M107.86,153.39c-2.51,3.39-5.45,5.64-8.85,6.76"/>
    <path class="cls-33" d="M322.73,360.54l-6.88,7.9c-.47.55-.66,1.26-.52,1.94,1,4.86,3.7,7.38,8.11,7.52,2.85.09,4.48,3.27,2.89,5.62l-4.62,6.85c-.24.38-.36.81-.36,1.23.12,4.29,2.25,6.95,6.43,7.97.64.17,1.33.14,1.94-.07,2.63-.9,5.26-1.23,7.85-1.02"/>
    <path class="cls-38" d="M340.09,408.61c-6.24-2.25-12.07-.12-8.99,7.64"/>
    <path class="cls-68" d="M323.78,416.34c-10.46-9.06-8.56-20.16-7.02-31.97.12-.88-.45-1.73-1.3-1.94-.88-.24-1.78.21-2.11,1.04-2.58,6.43-4.22,13.83-4.91,22.2"/>
    <path class="cls-28" d="M308.43,405.67c-3.2-16.7-8.51-32.39-15.96-47.07M350.98,274.36c-18.09,12.36-36.62,14.25-55.61,5.69-12.14-5.48-21.27-14.39-27.41-26.8"/>
    <line class="cls-87" x1="274.55" y1="153.23" x2="263.73" y2="163.85"/>
    <line class="cls-57" x1="263.73" y1="163.85" x2="260.63" y2="167.86"/>
    <line class="cls-87" x1="260.63" y1="167.86" x2="254.72" y2="176.28"/>
    <path class="cls-57" d="M254.72,176.28c-2.16,2.68-3.63,5.76-4.41,9.22"/>
    <line class="cls-87" x1="250.31" y1="185.5" x2="246.26" y2="195.84"/>
    <line class="cls-1" x1="246.26" y1="195.84" x2="242.65" y2="206.99"/>
    <path class="cls-87" d="M242.65,206.99c-.09,3.89-1,5.36-2.73,4.39"/>
    <path class="cls-32" d="M361.84,206.06c-11.24-6.69-22.08-15.65-34.08-20.18"/>
    <path class="cls-72" d="M327.76,185.88c-9.75-2.37-19.68-1.99-29.79,1.11"/>
    <path class="cls-76" d="M297.98,187c-12.81,4.17-21.6,12.45-26.39,24.85"/>
    <line class="cls-72" x1="271.58" y1="211.85" x2="268.62" y2="212.28"/>
    <path class="cls-12" d="M150.92,201.37c1.68,12.57,4.46,26.06-1.83,37.59-9.22,16.91-36.31,22.46-50.11,7.94-4.01-4.2-6.59-10.01-7.78-17.41-2.58-16.15,4.27-28.17,20.54-36.05,5.22-2.51,12.59-5.17,18.78-5.76-.17-.02-.31-.07-.47-.12-17.43-5.67-33.48-3.75-48.19,5.81"/>
    <line class="cls-7" x1="81.87" y1="193.37" x2="60.76" y2="210.81"/>
    <path class="cls-58" d="M325.37,175.47c-26.16-3.75-49.68,11.5-56.75,36.8"/>
    <path class="cls-25" d="M268.62,212.28c-2.16,7.83-2.44,15.32-.85,22.46"/>
    <path class="cls-21" d="M267.76,234.73c.45,4.1,1.49,7.92,3.13,11.45"/>
    <path class="cls-53" d="M270.9,246.19c-.59,2.58-1.59,4.93-2.94,7.07"/>
    <line class="cls-21" x1="267.95" y1="253.25" x2="267.03" y2="251.93"/>
    <path class="cls-22" d="M134.23,175.52c-5.24-2.54-8.58-4.03-9.98-4.46-8.23-2.56-18.45-2.7-30.66-.4"/>
    <path class="cls-18" d="M156.45,160.22c-3.65-.9-6.14.97-7.45,5.62"/>
    <path class="cls-60" d="M155.03,386.93c-7.04,9.11-12.07,19.02-15.08,29.76"/>
    <line class="cls-67" x1="139.94" y1="416.69" x2="137.22" y2="416.91"/>
    <path class="cls-75" d="M285.05,416.48c-3.68-9.77-9.2-19.37-16.53-28.79"/>
    <line class="cls-70" x1="272.06" y1="416.69" x2="196.19" y2="416.6"/>
    <path class="cls-65" d="M158.73,386.84c-2.49,6.9-3.68,13.42-3.6,19.59.02,1.11.9,1.99,1.99,2.04,13.64.55,26.65,3.27,39.08,8.13"/>
    <line class="cls-16" x1="196.19" y1="416.6" x2="139.94" y2="416.69"/>
    <path class="cls-14" d="M327.76,185.88c-2.68,2.3-1.94,5.76,2.21,10.41,3.98,4.46,6.4,7.56,7.28,9.34,4.01,8.11,4.96,16.32,2.89,24.64-4.98,19.94-17.31,29.88-36.97,29.81-4.81-.02-11.26-1.52-16.65-2.37"/>
    <path class="cls-6" d="M286.52,257.71c-7.4-6.14-13.66-13.8-18.76-22.98"/>
    <path class="cls-12" d="M271.58,211.85c-.31,6.66.31,13.26,1.85,19.78,7.75,32.65,56.32,28.62,59.48-4.29,1.35-14.32-3.84-24.54-15.63-30.66-6.33-3.3-15.13-3.7-22.27-4.55-.83-.09-1.28-1-.9-1.73.69-1.28,1.97-2.42,3.87-3.39"/>
    <path class="cls-74" d="M273.22,149.69c-5.57,3.56-10.17,7.99-13.85,13.33-7.61,11.07-13.11,22.84-16.53,35.26"/>
    <path class="cls-42" d="M242.84,198.28c-4.77,8.47-11.43,13.64-19.99,15.46-18.85,4.06-32.96,4.91-42.21-15.3"/>
    <path class="cls-74" d="M180.64,198.45c-1.09-2.44-2.82-7.19-5.17-14.21-4.1-12.24-11.71-23.5-22.88-33.82"/>
    <path class="cls-8" d="M155.83,240.21c-7,9.37-14.51,15.68-22.55,18.9-17.17,6.88-38.87.76-47.26-16.17-4.29-8.7-5.41-18.28-3.32-28.77,1.71-8.56,3.98-13.97-.83-20.8"/>
    <path class="cls-63" d="M189.6,166.01c-1.99,4.93-.76,8.02,3.68,9.22,3.13.85,6.17-1.64,5.93-4.89-.24-3.15-2.44-5.67-6.64-7.56"/>
    <path class="cls-4" d="M192.57,162.78c2.82,2.44,7.07,6.57,8.13,9.75.62,1.83,1.42,3.51,2.44,5,.36.52,1.16.38,1.3-.24l3.51-15.84"/>
    <path class="cls-42" d="M207.96,161.46l-1.97,20.47c-.02.43.07.85.26,1.23,1.92,3.49,4.36,5.05,7.33,4.65.85-.12,1.52-.76,1.68-1.59l3.41-18.62"/>
    <path class="cls-4" d="M218.68,167.6c.07,7.92,2.04,14.87,5.9,20.85.4.62,1,1.07,1.68,1.3,10.01,3.3,16.81-4.58,21.11-12.71,2.96-5.64,7.21-12.97,12.71-21.98.85-1.4.45-3.23-.92-4.13-9.89-6.55-17.9-13.68-24.07-21.39-6.66-8.35-10.74-19.64-20.84-27.15-.62-.47-1.47-.52-2.13-.12-5.74,3.46-9.56,6.52-11.48,9.18-5.48,7.64-9.6,16.43-16.62,22.98-5.24,4.86-11.45,9.7-18.69,14.49-1.26.83-1.75,2.47-1.16,3.87,2.99,6.97,7.61,15.82,14.49,19.56,1.94,1.04,4.36.66,5.88-.95l5.07-5.38"/>
    <path class="cls-54" d="M218.68,167.6l-2.61-5.81c-.28-.62-.78-1.11-1.42-1.35-1.99-.78-4.22-.43-6.69,1.02"/>
    <path class="cls-44" d="M192.57,162.78c-1.07,1.59-2.04,2.68-2.96,3.23"/>
    <path class="cls-54" d="M211.01,109.76c-3.05.22-5.28,3.92-4.96,8.26.32,4.34,3.04,7.68,6.11,7.45,3.05-.22,5.28-3.92,4.96-8.26-.32-4.34-3.04-7.68-6.11-7.45M217.99,150.86l-.55-15.7c-.05-1.71-1.47-3.04-3.18-2.96l-1.23.05c-5.22.17-9.27,4.84-9.08,10.41l.05,1.66c.21,5.57,4.58,9.96,9.79,9.77l1.23-.05c1.71-.05,3.04-1.49,2.96-3.18"/>
    <path class="cls-44" d="M181.61,144.29c-2.75,1.8-4.17,4.7-3.49,7.19,1.14,4.24,3.82,5.64,8.06,4.17,2.49-.85,3.96-1.49,4.36-1.92,2.35-2.54,1.57-6.85-1.68-9.2-2.42-1.73-4.84-1.83-7.26-.24M244.81,150.45c0-3.82-3.11-6.92-6.92-6.92s-6.92,3.11-6.92,6.92,3.11,6.92,6.92,6.92,6.92-3.11,6.92-6.92M234.07,165.86c-2.02-1.67-5.22-1.15-7.15,1.18-1.92,2.32-1.82,5.57.21,7.24,2.02,1.67,5.22,1.15,7.15-1.18,1.92-2.32,1.82-5.57-.21-7.24"/>
    <path class="cls-32" d="M186.02,224.99l-4.29-12c-.24-.66-.97-1.02-1.64-.78l-1.21.43c-2.25.81-3.32,3.65-2.35,6.36l1.64,4.65c.97,2.7,3.58,4.24,5.86,3.44l1.21-.45c.66-.24,1.02-.95.78-1.64M183.79,230.16c-1.82.47-2.67,3.12-1.95,5.91.74,2.79,2.8,4.66,4.61,4.18,1.82-.47,2.68-3.12,1.95-5.91-.74-2.79-2.8-4.66-4.61-4.18"/>
    <path class="cls-45" d="M232.55,283.02l9.41-10.53c.24-.24.21-.62-.05-.83l-.62-.57c-2.49-2.23-6.64-1.66-9.25,1.26l-.76.85c-2.61,2.92-2.7,7.09-.21,9.3l.64.57c.24.24.62.21.83-.05M182.65,272.63l8.92,10.53c.24.28.69.31.97.07l.66-.57c2.37-1.99,2.3-5.93-.12-8.8l-1.04-1.23c-2.42-2.85-6.28-3.53-8.66-1.54l-.66.57c-.28.24-.33.69-.07.97"/>
    <path class="cls-18" d="M241.06,214.43l-1.92,8.61c-.69,3.13,3.46,4.93,5.26,2.25,1.83-2.68,2.89-6.17,3.25-10.41.09-1.14-.85-2.09-1.97-1.99l-3.08.19c-.73.05-1.38.62-1.54,1.35M240.36,230.48c-1.45-.39-3.21,1.39-3.94,4-.72,2.6-.15,5.04,1.32,5.46,1.45.39,3.21-1.39,3.94-4,.72-2.6.15-5.04-1.32-5.46"/>
    <path class="cls-3" d="M134.77,201.07c-11.24-5.56-25.25-.18-31.3,12.02-6.07,12.2-1.87,26.62,9.35,32.2,11.24,5.56,25.25.18,31.3-12.02,6.07-12.2,1.87-26.62-9.35-32.2M278.13,216.53c-4.53,12.09,1.87,25.63,14.25,30.27,12.4,4.63,26.11-1.41,30.62-13.49,4.53-12.09-1.87-25.63-14.25-30.27-12.4-4.63-26.11,1.41-30.62,13.49"/>
    <path class="cls-65" d="M133.23,207.91c-9.49,1-21.39,3.56-22.74,13.52-3.51,25.78,34.65,28.39,32.39.85-.21-2.49-2.73-7-7.56-13.47-.5-.64-1.28-.97-2.09-.9"/>
    <path class="cls-49" d="M296.63,210.26c-6.59,1.35-12.02,6.33-13.9,12.73"/>
    <path class="cls-65" d="M282.73,222.99c-3.13,10.77,4.77,20.87,15.91,20.32,7.78-.38,14.63-5.95,16.65-13.49,1.38-5.19.24-10.55-3.08-14.47-3.72-4.39-9.65-6.31-15.58-5.1"/>
    <path class="cls-11" d="M282.73,222.99c0,7.04,2.23,12.05,6.69,15.06,13.52,9.13,30.14-6.73,20.84-20.35-2.77-4.06-7.3-6.52-13.64-7.45"/>
    <path class="cls-11" d="M129.59,210.51c-7.93-1.6-15.71,3.76-17.37,11.98-1.66,8.21,3.43,16.18,11.37,17.77,7.93,1.6,15.71-3.76,17.37-11.98,1.66-8.21-3.43-16.18-11.37-17.77"/>
    <path class="cls-13" d="M134.3,221.1c0-2.8-2.28-5.07-5.07-5.07s-5.07,2.28-5.07,5.07,2.28,5.07,5.07,5.07,5.07-2.28,5.07-5.07"/>
    <path class="cls-85" d="M299.35,221.29c0-2.77-2.23-5-5-5s-5,2.23-5,5,2.23,5,5,5,5-2.23,5-5"/>
    <path class="cls-101" d="M354.58,184.17c7.71,8.18,13.16,17.52,16.36,27.98,4.91,20.75,1.21,39.08-11.12,54.99-1.42,1.83-2.11,4.13-1.9,6.45.4,4.36.66,8.94.78,13.73.64,27.46-15.39,42.12-36.21,57.39-.71.55-.9,1.52-.43,2.28,12.95,20.01,21.7,43.09,26.25,67.21.26,1.33-.59,2.63-1.92,2.94-2.11.5-3.65.09-4.62-1.26l-1.68-7.28c0-3.53-.83-6.92-2.51-10.13-3.53-12.88-8.47-25.52-14.85-37.94l-6.52-11.71c-.36-.62-1.11-.88-1.78-.57l-21.96,10.34-3.6.95-34.31,11.1c-2.51.55-5.15.33-7.87-.64-1.68-.59-1.57-2.99.14-3.44,21.46-5.67,42.35-13.33,62.68-22.93,14.82-7.02,26.68-17.12,35.6-30.28,3.53-5.9,5.81-12.12,6.85-18.66l.07-2.54-1.04-17.79,10.17-20.54c5.95-13.87,7.09-27.58,3.41-41.07l-2.73-6.69c-7.47-16.29-19.64-26.49-36.47-30.59-1.26-1.21-2.89-1.92-4.89-2.11-.47-.05-.85-.45-.81-.92l.07-.81c.05-.64.62-1.11,1.28-1.07l7.35.62c.43.05.83-.12,1.11-.43.78-.88.81-1.61.07-2.21-1.87-5.36-4.55-9.94-8.06-13.71l-7.02-5.83c-12.85-6.36-25.33-5.36-37.4,2.99l-2.54,1.23c-.57-1.33-.64-2.63-.19-3.89l4.89-2.87c.55-.31.47-1.11-.1-1.35-18.05-7.14-30.88-15.13-41.78-32.73-6.17-9.96-18.43-35.36-34.2-22.69-8.25,6.62-14.35,18.17-18.12,24.88-8.39,14.94-21.86,24.12-38.46,29.79-1.23.4-1.71,1.11-1.42,2.09.31.71.24,1.26-.26,1.66-.55.45-1.3.59-2.23.38l-6.62-2.87-10.08-.83c-11.64.21-20.63,5.34-26.96,15.37-2.37,2.28-4.17,5.79-5.43,10.51.9,1.64,1.42,3.49,1.59,5.6-17.03,5.81-28.5,17.34-34.41,34.55-.78.64-1.73,3.25-2.85,7.8-2.82,20.47,3.01,37.3,17.5,50.56.24,2.21-.33,3.94-1.68,5.24-1.85,5.67-2.56,11.76-2.13,18.28l1.33,8.02.45,1.78c7.07,21.65,28.29,36.57,49.42,45.32,17.45,7.23,35.41,13.59,53.86,19.04,1.45.43,1.38,2.51-.09,2.85l-3.34.74c-13.19-2.68-25.99-6.47-38.42-11.36l-3.46-1.09-20.49-8.54c-.66-.26-1.42-.12-1.92.4-4.1,4.29-7.23,9.18-9.44,14.63-5.34,10.03-9.51,20.37-12.47,31.02l-2.85,10.32-1.61,10.84c-2.44,2.13-4.67,2.13-6.71-.02-.55-.57-.81-1.35-.66-2.13,4.15-24.73,13.42-47.31,27.79-67.78.33-.47.17-1.11-.33-1.4-6.47-3.63-12.5-8.11-18.02-13.42-9.98-9.58-16.2-19.75-18.69-30.54-1.75-7.66-1.35-17.05,1.21-28.2.26-1.16-.02-2.4-.78-3.34-5.86-7.11-10.2-14.85-13.02-23.17-6.78-30.8,2.66-57.29,31.47-73.25,1.49-.83,2.54-2.3,3.13-4.39,1.33-4.77,3.06-7.92,4.53-12.33,6.64-9.68,14.47-15.63,23.5-17.86,2.82-.69,7.71-.88,14.66-.52,6.19.31,10.98-.09,14.42-1.23,6.21-2.04,11.34-4.22,15.39-6.57,9.77-5.67,17.62-16.51,23.29-26.61,5.72-10.15,12.38-20.23,23.74-23.9.81-.26,1.68-.38,2.54-.33,9.39.4,16.93,4.65,22.65,12.69,4.86,6.85,9.68,14.49,14.47,22.93.43.76.93,1.47,1.52,2.11,6.4,7.09,13.26,12.62,20.54,16.6,1.45.78,6.62,2.44,15.51,4.93.43.12.85.19,1.3.19h17.79c.9,0,1.78.12,2.66.33,15.41,4.06,25.02,13.68,28.81,28.93.55,2.23,1.92,4.17,3.84,5.45l15.51,10.36h0Z"/>
    <path class="cls-97" d="M274.36,149.34l-1.14.36-6.73,1.19c-.74.14-1.47-.02-2.06-.45l-17.9-12.73c-.12-.09-.24-.21-.36-.36-6.9-9.18-14.25-19.64-22.03-31.33-1.83-2.73-4.89-5.62-9.18-8.73-.71-.5-1.61-.69-2.47-.52-4.79.92-8.21,2.99-10.27,6.19-5,7.78-10.32,15.68-15.98,23.71-4.7,6.66-11.5,12.85-20.44,18.54-4.24,2.73-8.66,4.46-13.21,5.22-2.16-1.73-4.62-3.06-7.42-3.98-.28-.97.19-1.68,1.42-2.09,16.6-5.67,30.07-14.85,38.46-29.79,3.77-6.71,9.87-18.26,18.12-24.88,15.77-12.66,28.03,12.73,34.2,22.69,10.91,17.6,23.74,25.59,41.78,32.73.57.24.64,1.04.1,1.35l-4.89,2.87h0Z"/>
    <path class="cls-106" d="M273.22,149.69c-5.57,3.56-10.17,7.99-13.85,13.33-7.61,11.07-13.11,22.84-16.53,35.26-4.77,8.47-11.43,13.64-19.99,15.46-18.85,4.06-32.96,4.91-42.21-15.3-1.09-2.44-2.82-7.19-5.17-14.21-4.1-12.24-11.71-23.5-22.88-33.82,4.55-.76,8.96-2.49,13.21-5.22,8.94-5.69,15.75-11.88,20.44-18.54,5.67-8.04,10.98-15.94,15.98-23.71,2.06-3.2,5.48-5.26,10.27-6.19.85-.17,1.75.02,2.47.52,4.29,3.11,7.35,6,9.18,8.73,7.78,11.69,15.13,22.15,22.03,31.33.12.14.24.26.36.36l17.9,12.73c.59.43,1.33.59,2.06.45l6.73-1.19M189.6,166.01c-1.99,4.93-.76,8.02,3.68,9.22,3.13.85,6.17-1.64,5.93-4.89-.24-3.15-2.44-5.67-6.64-7.56,2.82,2.44,7.07,6.57,8.13,9.75.62,1.83,1.42,3.51,2.44,5,.36.52,1.16.38,1.3-.24l3.51-15.84-1.97,20.47c-.02.43.07.85.26,1.23,1.92,3.49,4.36,5.05,7.33,4.65.85-.12,1.52-.76,1.68-1.59l3.41-18.62c.07,7.92,2.04,14.87,5.9,20.85.4.62,1,1.07,1.68,1.3,10.01,3.3,16.81-4.58,21.11-12.71,2.96-5.64,7.21-12.97,12.71-21.98.85-1.4.45-3.23-.92-4.13-9.89-6.55-17.9-13.68-24.07-21.39-6.66-8.35-10.74-19.64-20.84-27.15-.62-.47-1.47-.52-2.13-.12-5.74,3.46-9.56,6.52-11.48,9.18-5.48,7.64-9.6,16.43-16.62,22.98-5.24,4.86-11.45,9.7-18.69,14.49-1.26.83-1.75,2.47-1.16,3.87,2.99,6.97,7.61,15.82,14.49,19.56,1.94,1.04,4.36.66,5.88-.95l5.07-5.38h0Z"/>
    <path class="cls-105" d="M218.68,167.6l-2.61-5.81c-.28-.62-.78-1.11-1.42-1.35-1.99-.78-4.22-.43-6.69,1.02l-3.51,15.84c-.14.62-.95.76-1.3.24-1.02-1.49-1.83-3.18-2.44-5-1.07-3.18-5.31-7.3-8.13-9.75-1.07,1.59-2.04,2.68-2.96,3.23l-5.07,5.38c-1.52,1.61-3.94,1.99-5.88.95-6.88-3.75-11.5-12.59-14.49-19.56-.59-1.4-.09-3.04,1.16-3.87,7.23-4.79,13.45-9.63,18.69-14.49,7.02-6.55,11.15-15.34,16.62-22.98,1.92-2.66,5.74-5.72,11.48-9.18.66-.4,1.52-.36,2.13.12,10.1,7.52,14.18,18.81,20.84,27.15,6.17,7.71,14.18,14.85,24.07,21.39,1.38.9,1.78,2.73.92,4.13-5.5,9.01-9.75,16.34-12.71,21.98-4.29,8.13-11.1,16.01-21.11,12.71-.69-.24-1.28-.69-1.68-1.3-3.87-5.98-5.83-12.92-5.9-20.85M211.01,109.76c-3.05.22-5.28,3.92-4.96,8.26.32,4.34,3.04,7.68,6.11,7.45,3.05-.22,5.28-3.92,4.96-8.26-.32-4.34-3.04-7.68-6.11-7.45M217.99,150.86l-.55-15.7c-.05-1.71-1.47-3.04-3.18-2.96l-1.23.05c-5.22.17-9.27,4.84-9.08,10.41l.05,1.66c.21,5.57,4.58,9.96,9.79,9.77l1.23-.05c1.71-.05,3.04-1.49,2.96-3.18M181.61,144.29c-2.75,1.8-4.17,4.7-3.49,7.19,1.14,4.24,3.82,5.64,8.06,4.17,2.49-.85,3.96-1.49,4.36-1.92,2.35-2.54,1.57-6.85-1.68-9.2-2.42-1.73-4.84-1.83-7.26-.24M244.81,150.45c0-3.82-3.11-6.92-6.92-6.92s-6.92,3.11-6.92,6.92,3.11,6.92,6.92,6.92,6.92-3.11,6.92-6.92M234.07,165.86c-2.02-1.67-5.22-1.15-7.15,1.18-1.92,2.32-1.82,5.57.21,7.24,2.02,1.67,5.22,1.15,7.15-1.18,1.92-2.32,1.82-5.57-.21-7.24h0Z"/>
    <path class="cls-108" d="M211.01,109.76c3.07-.23,5.79,3.11,6.11,7.45.32,4.34-1.91,8.04-4.96,8.26-3.07.23-5.79-3.11-6.11-7.45-.32-4.34,1.91-8.04,4.96-8.26h0Z"/>
    <path class="cls-108" d="M217.99,150.86c.07,1.68-1.26,3.13-2.96,3.18l-1.23.05c-5.22.19-9.58-4.2-9.79-9.77l-.05-1.66c-.19-5.57,3.87-10.24,9.08-10.41l1.23-.05c1.71-.07,3.13,1.26,3.18,2.96l.55,15.7h0Z"/>
    <path class="cls-93" d="M181.61,144.29c2.42-1.59,4.84-1.49,7.26.24,3.25,2.35,4.03,6.66,1.68,9.2-.4.43-1.87,1.07-4.36,1.92-4.24,1.47-6.92.07-8.06-4.17-.69-2.49.74-5.38,3.49-7.19h0Z"/>
    <path class="cls-93" d="M244.81,150.45c0,3.82-3.11,6.92-6.92,6.92s-6.92-3.11-6.92-6.92,3.11-6.92,6.92-6.92,6.92,3.11,6.92,6.92h0Z"/>
    <path class="cls-89" d="M125.98,144.78c1.49,3.18.55,5.62-2.82,7.3-.69.33-1.47.4-2.21.17-6.05-1.92-10.41-1.54-13.09,1.14-2.51,3.39-5.45,5.64-8.85,6.76,6.33-10.03,15.32-15.15,26.96-15.37h0Z"/>
    <path class="cls-106" d="M136.05,145.61c-1.57-.02-3.06-.02-4.51,0-.57,0-1.04.45-1.09,1.02s.33,1.09.9,1.21c.59.12.9.55.92,1.28.02.19-.02.4-.14.59-1.64,2.77-.92,5.15,2.18,7.11,1.45,2.16,3.01,3.32,4.74,3.49,5.29.55,8.58,2.4,9.94,5.53,3.11,5.15,6.97,8.82,11.55,11.03.66.33,1.11.97,1.19,1.68l.55,5.15c5.6,11.45,8.87,20.18,9.82,26.18,2.35,14.77,6.71,28.77,13.09,41.97.31.69.09,1.49-.52,1.92-2.35,1.59-5.91,6.09-10.67,13.47-6.52,10.08-11.88,19.56-16.05,28.46-.97,2.04-2.44,3.82-4.32,5.1l-14.04,9.82c-17.81,3.87-34.34.52-49.59-9.98l-2.44-2.56c-.9-.95-.21-2.49,1.09-2.47,10.32.31,19.94-.55,28.91-2.54,16.6-3.68,30.19-14.56,38.2-29.33,2.06-3.82,2.61-7.47,1.66-10.98,5.29-11.74,6.92-23.83,4.86-36.31-2.87-17.41-12.24-31.04-28.05-40.93l17.22,5.1c1.16.33,2.18-.85,1.66-1.94-7.42-16.05-27.53-22.96-45.25-25.28,2.68-2.68,7.04-3.06,13.09-1.14.73.24,1.52.17,2.21-.17,3.37-1.68,4.32-4.13,2.82-7.3l10.08.83h0Z"/>
    <path class="cls-91" d="M314.48,149.01c-4.34,3.51-9.34,4.89-15.01,4.1-.45-.07-.76-.45-.71-.9.07-.45.02-.73-.14-.85-.36-.24-.74-.4-1.14-.52-1.28-.33-2.3.24-3.06,1.73-.33.69-1.04,1.4-2.13,2.18-2.47,1.78-4.96,3.53-7.45,5.29-2.89.36-5.24-.4-7.04-2.28-.52-.55-.81-1.28-.78-2.04l.07-3.72c12.07-8.35,24.54-9.34,37.4-2.99h0Z"/>
    <path class="cls-100" d="M136.05,145.61l6.62,2.87,3.04,2.44c1.21,3.06,1.57,5.29,1.11,6.69-.76,2.35-3.34,3.51-5.5,2.49l-7-3.27c-3.11-1.97-3.82-4.34-2.18-7.11.12-.19.17-.4.14-.59-.02-.74-.33-1.16-.92-1.28-.57-.12-.95-.64-.9-1.21s.52-1.02,1.09-1.02c1.45-.02,2.94-.02,4.51,0h0Z"/>
    <path class="cls-109" d="M152.58,150.43c11.17,10.32,18.78,21.58,22.88,33.82,2.35,7.02,4.08,11.76,5.17,14.21-.17,1.28-.59,2.4-1.23,3.37-.55-3.15-1.73-5.76-3.51-7.83l-1.54-5.41c-.73-4.1-2.21-7.68-4.41-10.74-3.7-5.22-5.62-7.92-5.74-8.11-2.21-3.51-4.79-6.69-7.75-9.51-2.82-3.79-6.4-6.9-10.74-9.3l-3.04-2.44c.92.21,1.68.07,2.23-.38.5-.4.57-.95.26-1.66,2.8.92,5.26,2.25,7.42,3.98h0Z"/>
    <path class="cls-108" d="M321.5,154.84c-33.98-2.85-52.84,19.4-64.31,48.02-.19.5.4.92.81.57,2.87-2.49,6.26-4.51,10.2-6.02-8.39,16.86-10.1,37.66-1.16,54.52l-1.33,2.3c-.33.59-.4,1.28-.17,1.92,8.61,23.69,31.16,37.78,55.61,39.06,9.06.47,20.66-1.94,30.88-3.06l-.07,2.54-17.62,8.89c.31-1.16.38-1.9.24-2.16-.36-.71-1.26-.95-1.92-.5-27.08,18.81-52.65,9.18-82.08,2.75-25.85-5.64-51.48-5.74-76.91-.26-11.17,2.42-22.53,4.81-34.08,7.21l14.04-9.82c1.87-1.28,3.34-3.06,4.32-5.1,4.17-8.89,9.53-18.38,16.05-28.46,4.77-7.38,8.32-11.88,10.67-13.47.62-.43.83-1.23.52-1.92-6.38-13.21-10.74-27.2-13.09-41.97-.95-6-4.22-14.73-9.82-26.18,1.35,3.96,3.51,6.55,6.47,7.75.74.28,1.52.38,2.3.24,2.68-.5,3.77-1.52,3.3-3.11l1.54,5.41c-2.7.33-5.81,1.45-5.48,4.79.33,3.49,1.45,6.62,3.37,9.41,1.9,2.77,6.26,1.23,5.98-2.13l-.36-4.24c.64-.97,1.07-2.09,1.23-3.37,9.25,20.2,23.36,19.35,42.21,15.3,8.56-1.83,15.22-7,19.99-15.46l-2.92,13.09-9.15,35.41c-.21.81-.02,1.66.47,2.32l4.41,5.6c.71.9,2.11.83,2.7-.14,1.9-3.06,3.46-6.57,4.67-10.55,5.67-18.45,10.01-32.49,13-42.12,4.62-14.94,15.32-32.58,28.81-41.86,2.49-1.75,4.98-3.51,7.45-5.29,1.09-.78,1.8-1.49,2.13-2.18.76-1.49,1.78-2.06,3.06-1.73.4.12.78.28,1.14.52.17.12.21.4.14.85-.05.45.26.83.71.9,5.67.78,10.67-.59,15.01-4.1l7.02,5.83M186.02,224.99l-4.29-12c-.24-.66-.97-1.02-1.64-.78l-1.21.43c-2.25.81-3.32,3.65-2.35,6.36l1.64,4.65c.97,2.7,3.58,4.24,5.86,3.44l1.21-.45c.66-.24,1.02-.95.78-1.64M183.79,230.16c-1.82.47-2.67,3.12-1.95,5.91.74,2.79,2.8,4.66,4.61,4.18,1.82-.47,2.68-3.12,1.95-5.91-.74-2.79-2.8-4.66-4.61-4.18M232.55,283.02l9.41-10.53c.24-.24.21-.62-.05-.83l-.62-.57c-2.49-2.23-6.64-1.66-9.25,1.26l-.76.85c-2.61,2.92-2.7,7.09-.21,9.3l.64.57c.24.24.62.21.83-.05M182.65,272.63l8.92,10.53c.24.28.69.31.97.07l.66-.57c2.37-1.99,2.3-5.93-.12-8.8l-1.04-1.23c-2.42-2.85-6.28-3.53-8.66-1.54l-.66.57c-.28.24-.33.69-.07.97h0Z"/>
    <path class="cls-109" d="M274.36,149.34c-.45,1.26-.38,2.56.19,3.89l-10.81,10.62-3.11,4.01-5.9,8.42c-2.16,2.68-3.63,5.76-4.41,9.22l-4.06,10.34-3.6,11.15c-.09,3.89-1,5.36-2.73,4.39l2.92-13.09c3.42-12.43,8.92-24.19,16.53-35.26,3.68-5.34,8.28-9.77,13.85-13.33l1.14-.36h0Z"/>
    <path class="cls-90" d="M156.45,160.22c-3.65-.9-6.14.97-7.45,5.62-1.35-3.13-4.65-4.98-9.94-5.53-1.73-.17-3.3-1.33-4.74-3.49l7,3.27c2.16,1.02,4.74-.14,5.5-2.49.45-1.4.09-3.63-1.11-6.69,4.34,2.4,7.92,5.5,10.74,9.3h0Z"/>
    <path class="cls-90" d="M277.08,151.99l-.07,3.72c-.02.76.26,1.49.78,2.04,1.8,1.87,4.15,2.63,7.04,2.28-13.49,9.27-24.19,26.92-28.81,41.86-2.99,9.63-7.33,23.67-13,42.12-1.21,3.98-2.77,7.49-4.67,10.55-.59.97-1.99,1.04-2.7.14l-4.41-5.6c-.5-.66-.69-1.52-.47-2.32l9.15-35.41c1.73.97,2.63-.5,2.73-4.39,2.09,2.94,6.69,3.75,8.11-.21,1.16-3.23,2.23-6.21,3.15-8.99.31-.9-.24-1.85-1.16-2.02-2.04-.4-4.2-.38-6.5.07l4.06-10.34c.21,3.37,2.32,5.03,6.31,4.96,1.02-.02,1.94-.57,2.47-1.45l4.7-8.13c.73-1.28,0-2.92-1.45-3.18l-7.61-1.42,5.9-8.42c-.02,2.21.64,4.06,1.99,5.53,5.12,5.45,10.58-4.41,12.14-7.87.33-.74.26-1.59-.21-2.25-2.47-3.46-6.07-3.27-10.81.59l10.81-10.62,2.54-1.23M241.06,214.43l-1.92,8.61c-.69,3.13,3.46,4.93,5.26,2.25,1.83-2.68,2.89-6.17,3.25-10.41.09-1.14-.85-2.09-1.97-1.99l-3.08.19c-.73.05-1.38.62-1.54,1.35M240.36,230.48c-1.45-.39-3.21,1.39-3.94,4-.72,2.6-.15,5.04,1.32,5.46,1.45.39,3.21-1.39,3.94-4,.72-2.6.15-5.04-1.32-5.46h0Z"/>
    <path class="cls-105" d="M134.23,175.52c-5.24-2.54-8.58-4.03-9.98-4.46-8.23-2.56-18.45-2.7-30.66-.4,1.26-4.72,3.06-8.23,5.43-10.51,3.39-1.11,6.33-3.37,8.85-6.76,17.71,2.32,37.82,9.22,45.25,25.28.52,1.09-.5,2.28-1.66,1.94l-17.22-5.1h0Z"/>
    <path class="cls-105" d="M321.5,154.84c3.51,3.77,6.19,8.35,8.06,13.71.36,1.28-.07,1.85-1.3,1.73-7.9-.88-15.82-1.04-23.76-.55-.78.05-1.52.19-2.25.43-14.77,4.86-26.11,13.94-34.05,27.25-3.94,1.52-7.33,3.53-10.2,6.02-.4.36-1-.07-.81-.57,11.48-28.62,30.33-50.87,64.31-48.02h0Z"/>
    <path class="cls-99" d="M92.47,156.67c-1.47,4.41-3.2,7.57-4.53,12.33-.59,2.09-1.64,3.56-3.13,4.39-28.81,15.96-38.25,42.45-31.47,73.25-9.94-22.86-1.85-49.78,15.49-67.87,9.04-9.44,16.93-16.81,23.64-22.1h0Z"/>
    <path class="cls-99" d="M338.91,171.61c-1.14-2.61-2.23-5.1-3.27-7.45-.02-.07-.05-.12-.02-.17.02-.07.12-.02.17.05,1.21,2.32,2.25,4.84,3.13,7.57h0Z"/>
    <path class="cls-108" d="M218.68,167.6l-3.41,18.62c-.17.83-.83,1.47-1.68,1.59-2.96.4-5.41-1.16-7.33-4.65-.19-.38-.28-.81-.26-1.23l1.97-20.47c2.47-1.45,4.7-1.8,6.69-1.02.64.24,1.14.74,1.42,1.35l2.61,5.81h0Z"/>
    <path class="cls-100" d="M156.45,160.22c2.96,2.82,5.55,6,7.75,9.51.12.19,2.04,2.89,5.74,8.11,2.21,3.06,3.68,6.64,4.41,10.74.47,1.59-.62,2.61-3.3,3.11-.78.14-1.57.05-2.3-.24-2.96-1.21-5.12-3.79-6.47-7.75l-.55-5.15c-.07-.71-.52-1.35-1.19-1.68-4.58-2.21-8.44-5.88-11.55-11.03,1.3-4.65,3.79-6.52,7.45-5.62h0Z"/>
    <path class="cls-91" d="M260.63,167.86l3.11-4.01c4.74-3.87,8.35-4.06,10.81-.59.47.66.55,1.52.21,2.25-1.56,3.46-7.02,13.33-12.14,7.87-1.35-1.47-2.02-3.32-1.99-5.53h0Z"/>
    <path class="cls-93" d="M189.6,166.01c.92-.55,1.9-1.64,2.96-3.23,4.2,1.9,6.4,4.41,6.64,7.56.24,3.25-2.8,5.74-5.93,4.89-4.43-1.21-5.67-4.29-3.68-9.22h0Z"/>
    <path class="cls-93" d="M234.07,165.86c2.03,1.67,2.13,4.92.21,7.24-1.92,2.33-5.12,2.85-7.15,1.18-2.03-1.67-2.13-4.92-.21-7.24,1.92-2.33,5.12-2.85,7.15-1.18h0Z"/>
    <path class="cls-102" d="M325.37,175.47c-26.16-3.75-49.68,11.5-56.75,36.8-2.16,7.83-2.44,15.32-.85,22.46.45,4.1,1.49,7.92,3.13,11.45-.59,2.58-1.59,4.93-2.94,7.07l-.92-1.33c-8.94-16.86-7.23-37.66,1.16-54.52,7.94-13.3,19.28-22.39,34.05-27.25.74-.24,1.47-.38,2.25-.43,7.94-.5,15.86-.33,23.76.55,1.23.12,1.66-.45,1.3-1.73.73.59.71,1.33-.07,2.21-.28.31-.69.47-1.11.43l-7.35-.62c-.66-.05-1.23.43-1.28,1.07l-.07.81c-.05.47.33.88.81.92,1.99.19,3.63.9,4.89,2.11h0Z"/>
    <path class="cls-102" d="M134.23,175.52c15.82,9.89,25.18,23.52,28.05,40.93,2.06,12.47.43,24.57-4.86,36.31-7.64,13.28-17.22,22.41-28.72,27.37-19.42,8.37-37.75,6.45-54.97-5.72,1.35-1.3,1.92-3.04,1.68-5.24,16.67,11.31,33.96,13.16,51.84,5.55,14.58-7.94,24.12-19.45,28.58-34.5,3.82-13.54,2.18-26.49-4.91-38.84-12.62-20.84-31.21-29.22-55.75-25.11-.17-2.11-.69-3.96-1.59-5.6,12.21-2.3,22.43-2.16,30.66.4,1.4.43,4.74,1.92,9.98,4.46h0Z"/>
    <path class="cls-99" d="M370.95,212.16c-3.2-10.46-8.66-19.8-16.36-27.98,1.28.31,2.44.71,3.46,1.23.92.45,1.33.85,1.26,1.21-.24,1.16,0,1.47.69.97.24-.17.28-.5.09-.74l-1.52-1.97c-.24-.28-.5-.52-.81-.74l-18.85-12.54c18.92,7.56,29.6,21.08,32.04,40.55h0Z"/>
    <path class="cls-103" d="M150.92,201.37c1.68,12.57,4.46,26.06-1.83,37.59-9.22,16.91-36.31,22.46-50.11,7.94-4.01-4.2-6.59-10.01-7.78-17.41-2.58-16.15,4.27-28.17,20.54-36.05,5.22-2.51,12.59-5.17,18.78-5.76-.17-.02-.31-.07-.47-.12-17.43-5.67-33.48-3.75-48.19,5.81l-21.11,17.43c5.9-17.22,17.38-28.74,34.41-34.55,24.54-4.1,43.14,4.27,55.75,25.11M134.77,201.07c-11.24-5.56-25.25-.18-31.3,12.02-6.07,12.2-1.87,26.62,9.35,32.2,11.24,5.56,25.25.18,31.3-12.02,6.07-12.2,1.87-26.62-9.35-32.2h0Z"/>
    <path class="cls-97" d="M325.37,175.47c16.84,4.1,29,14.3,36.47,30.59-11.24-6.69-22.08-15.65-34.08-20.18-9.75-2.37-19.68-1.99-29.79,1.11-12.81,4.17-21.6,12.45-26.39,24.85l-2.96.43c7.07-25.3,30.59-40.55,56.75-36.8h0Z"/>
    <path class="cls-91" d="M250.31,185.5c.78-3.46,2.25-6.55,4.41-9.22l7.61,1.42c1.45.26,2.18,1.9,1.45,3.18l-4.7,8.13c-.52.88-1.45,1.42-2.47,1.45-3.98.07-6.09-1.59-6.31-4.96h0Z"/>
    <path class="cls-90" d="M327.76,185.88c-2.68,2.3-1.94,5.76,2.21,10.41,3.98,4.46,6.4,7.56,7.28,9.34,4.01,8.11,4.96,16.32,2.89,24.64-4.98,19.94-17.31,29.88-36.97,29.81-4.81-.02-11.26-1.52-16.65-2.37-7.4-6.14-13.66-13.8-18.76-22.98-1.59-7.14-1.3-14.63.85-22.46l2.96-.43c-.31,6.66.31,13.26,1.85,19.78,7.75,32.65,56.32,28.62,59.48-4.29,1.35-14.32-3.84-24.54-15.63-30.66-6.33-3.3-15.13-3.7-22.27-4.55-.83-.09-1.28-1-.9-1.73.69-1.28,1.97-2.42,3.87-3.39,10.1-3.11,20.04-3.49,29.79-1.11h0Z"/>
    <path class="cls-90" d="M150.92,201.37c7.09,12.36,8.73,25.3,4.91,38.84-7,9.37-14.51,15.68-22.55,18.9-17.17,6.88-38.87.76-47.26-16.17-4.29-8.7-5.41-18.28-3.32-28.77,1.71-8.56,3.98-13.97-.83-20.8,14.7-9.56,30.76-11.48,48.19-5.81.17.05.31.09.47.12-6.19.59-13.56,3.25-18.78,5.76-16.27,7.87-23.12,19.9-20.54,36.05,1.19,7.4,3.77,13.21,7.78,17.41,13.8,14.51,40.88,8.96,50.11-7.94,6.28-11.53,3.51-25.02,1.83-37.59h0Z"/>
    <path class="cls-108" d="M361.84,206.06l2.73,6.69c-1.49,16.41-8.3,33.82-22.1,43.21-16.72,11.41-38.82,12.66-55.94,1.75,5.38.85,11.83,2.35,16.65,2.37,19.66.07,31.99-9.87,36.97-29.81,2.06-8.32,1.11-16.53-2.89-24.64-.88-1.78-3.3-4.89-7.28-9.34-4.15-4.65-4.89-8.11-2.21-10.41,12,4.53,22.84,13.49,34.08,20.18h0Z"/>
    <path class="cls-103" d="M297.98,187c-1.9.97-3.18,2.11-3.87,3.39-.38.74.07,1.64.9,1.73,7.14.85,15.94,1.26,22.27,4.55,11.79,6.12,16.98,16.34,15.63,30.66-3.15,32.92-51.72,36.95-59.48,4.29-1.54-6.52-2.16-13.11-1.85-19.78,4.79-12.4,13.59-20.68,26.39-24.85M278.13,216.53c-4.53,12.09,1.87,25.63,14.25,30.27,12.4,4.63,26.11-1.41,30.62-13.49,4.53-12.09-1.87-25.63-14.25-30.27-12.4-4.63-26.11,1.41-30.62,13.49h0Z"/>
    <path class="cls-106" d="M81.87,193.37c4.81,6.83,2.54,12.24.83,20.8-2.09,10.48-.97,20.06,3.32,28.77,8.39,16.93,30.09,23.05,47.26,16.17,8.04-3.23,15.56-9.53,22.55-18.9-4.46,15.06-13.99,26.56-28.58,34.5-2.61-.57-2.42-2.28.57-5.12,1.94-1.85.24-5.1-2.4-4.55-22.17,4.53-40.53-1.8-55.06-19-6.52-7.71-10.67-16.86-12.45-27.44,1.11-4.55,2.06-7.16,2.85-7.8l21.11-17.43h0Z"/>
    <path class="cls-100" d="M175.9,193.99c1.78,2.06,2.96,4.67,3.51,7.83l.36,4.24c.28,3.37-4.08,4.91-5.98,2.13-1.92-2.8-3.04-5.93-3.37-9.41-.33-3.34,2.77-4.46,5.48-4.79h0Z"/>
    <path class="cls-100" d="M242.65,206.99l3.6-11.15c2.3-.45,4.46-.47,6.5-.07.92.17,1.47,1.11,1.16,2.02-.92,2.77-1.99,5.76-3.15,8.99-1.42,3.96-6.02,3.15-8.11.21h0Z"/>
    <path class="cls-98" d="M134.77,201.07c11.22,5.58,15.42,20,9.35,32.2-6.05,12.2-20.07,17.58-31.3,12.02-11.22-5.58-15.42-20-9.35-32.2,6.05-12.2,20.07-17.58,31.3-12.02M133.23,207.91c-9.49,1-21.39,3.56-22.74,13.52-3.51,25.78,34.65,28.39,32.39.85-.21-2.49-2.73-7-7.56-13.47-.5-.64-1.28-.97-2.09-.9h0Z"/>
    <path class="cls-98" d="M278.13,216.53c4.51-12.08,18.21-18.12,30.62-13.49,12.38,4.64,18.78,18.18,14.25,30.27-4.51,12.08-18.21,18.12-30.62,13.49-12.38-4.64-18.78-18.18-14.25-30.27M296.63,210.26c-6.59,1.35-12.02,6.33-13.9,12.73-3.13,10.77,4.77,20.87,15.91,20.32,7.78-.38,14.63-5.95,16.65-13.49,1.38-5.19.24-10.55-3.08-14.47-3.72-4.39-9.65-6.31-15.58-5.1h0Z"/>
    <path class="cls-91" d="M135.32,208.81c4.84,6.47,7.35,10.98,7.56,13.47,2.25,27.53-35.9,24.92-32.39-.85,1.35-9.96,13.26-12.52,22.74-13.52.81-.07,1.59.26,2.09.9M129.59,210.51c-7.93-1.6-15.71,3.76-17.37,11.98-1.66,8.21,3.43,16.18,11.37,17.77,7.93,1.6,15.71-3.76,17.37-11.98,1.66-8.21-3.43-16.18-11.37-17.77h0Z"/>
    <path class="cls-91" d="M282.73,222.99c0,7.04,2.23,12.05,6.69,15.06,13.52,9.13,30.14-6.73,20.84-20.35-2.77-4.06-7.3-6.52-13.64-7.45,5.93-1.21,11.86.71,15.58,5.1,3.32,3.91,4.46,9.27,3.08,14.47-2.02,7.54-8.87,13.11-16.65,13.49-11.15.55-19.04-9.56-15.91-20.32h0Z"/>
    <path class="cls-94" d="M129.59,210.51c7.93,1.6,13.03,9.57,11.37,17.77-1.66,8.23-9.43,13.58-17.37,11.98-7.93-1.6-13.03-9.57-11.37-17.77,1.66-8.23,9.43-13.58,17.37-11.98M134.3,221.1c0-2.8-2.28-5.07-5.07-5.07s-5.07,2.28-5.07,5.07,2.28,5.07,5.07,5.07,5.07-2.28,5.07-5.07h0Z"/>
    <path class="cls-94" d="M296.63,210.26c6.33.92,10.86,3.39,13.64,7.45,9.3,13.61-7.33,29.48-20.84,20.35-4.46-3.01-6.69-8.02-6.69-15.06,1.87-6.4,7.3-11.38,13.9-12.73M299.35,221.29c0-2.77-2.23-5-5-5s-5,2.23-5,5,2.23,5,5,5,5-2.23,5-5h0Z"/>
    <path class="cls-97" d="M186.02,224.99c.24.69-.12,1.4-.78,1.64l-1.21.45c-2.28.81-4.89-.74-5.86-3.44l-1.64-4.65c-.97-2.7.09-5.55,2.35-6.36l1.21-.43c.66-.24,1.4.12,1.64.78l4.29,12h0Z"/>
    <path class="cls-100" d="M241.06,214.43c.17-.73.81-1.3,1.54-1.35l3.08-.19c1.11-.09,2.06.85,1.97,1.99-.36,4.24-1.42,7.73-3.25,10.41-1.8,2.68-5.95.88-5.26-2.25l1.92-8.61h0Z"/>
    <path class="cls-95" d="M364.57,212.75c3.68,13.49,2.54,27.2-3.41,41.07-23.29,37.11-73.16,32.11-90.26-7.64-1.64-3.53-2.68-7.35-3.13-11.45,5.1,9.18,11.36,16.84,18.76,22.98,17.12,10.91,39.22,9.65,55.94-1.75,13.8-9.39,20.61-26.8,22.1-43.21h0Z"/>
    <path class="cls-96" d="M134.3,221.1c0,2.8-2.28,5.07-5.07,5.07s-5.07-2.28-5.07-5.07,2.28-5.07,5.07-5.07,5.07,2.28,5.07,5.07h0Z"/>
    <path class="cls-92" d="M299.35,221.29c0,2.77-2.23,5-5,5s-5-2.23-5-5,2.23-5,5-5,5,2.23,5,5h0Z"/>
    <path class="cls-95" d="M57.92,218.61c1.78,10.58,5.93,19.73,12.45,27.44,14.54,17.19,32.89,23.52,55.06,19,2.63-.55,4.34,2.7,2.4,4.55-2.99,2.85-3.18,4.55-.57,5.12-17.88,7.61-35.17,5.76-51.84-5.55-14.49-13.26-20.32-30.09-17.5-50.56h0Z"/>
    <path class="cls-97" d="M183.79,230.16c1.81-.48,3.87,1.39,4.61,4.18.73,2.79-.12,5.44-1.95,5.91-1.81.48-3.87-1.39-4.61-4.18-.73-2.79.12-5.44,1.95-5.91h0Z"/>
    <path class="cls-100" d="M240.36,230.48c1.46.41,2.03,2.86,1.32,5.46-.73,2.61-2.49,4.39-3.94,4-1.46-.41-2.03-2.86-1.32-5.46.73-2.62,2.49-4.39,3.94-4h0Z"/>
    <path class="cls-107" d="M361.15,253.82l-10.17,20.54c-18.09,12.36-36.62,14.25-55.61,5.69-12.14-5.48-21.27-14.39-27.41-26.8,1.35-2.13,2.35-4.48,2.94-7.07,17.1,39.75,66.97,44.75,90.26,7.64h0Z"/>
    <path class="cls-95" d="M267.03,251.93l.92,1.33c6.14,12.4,15.27,21.32,27.41,26.8,19,8.56,37.52,6.66,55.61-5.69l1.04,17.79c-10.22,1.11-21.82,3.53-30.88,3.06-24.45-1.28-47-15.37-55.61-39.06-.24-.64-.17-1.33.17-1.92l1.33-2.3h0Z"/>
    <path class="cls-95" d="M90,300.64l-1.35.17c-1.59-1.33-3.39-2.42-5.38-3.25-1.57-.64-3.41-1.59-5.55-2.82-1.92-1.14-3.96-1.83-6.12-2.04-.43-6.52.28-12.62,2.13-18.28,17.22,12.17,35.55,14.09,54.97,5.72,11.5-4.96,21.08-14.09,28.72-27.37.95,3.51.4,7.16-1.66,10.98-8.02,14.77-21.6,25.66-38.2,29.33-8.96,1.99-18.59,2.85-28.91,2.54-1.3-.02-1.99,1.52-1.09,2.47l2.44,2.56h0Z"/>
    <path class="cls-102" d="M232.55,283.02c-.21.26-.59.28-.83.05l-.64-.57c-2.49-2.21-2.4-6.38.21-9.3l.76-.85c2.61-2.92,6.76-3.49,9.25-1.26l.62.57c.26.21.28.59.05.83l-9.41,10.53h0Z"/>
    <path class="cls-102" d="M182.65,272.63c-.26-.28-.21-.74.07-.97l.66-.57c2.37-1.99,6.24-1.3,8.66,1.54l1.04,1.23c2.42,2.87,2.49,6.81.12,8.8l-.66.57c-.28.24-.74.21-.97-.07l-8.92-10.53h0Z"/>
    <path class="cls-97" d="M88.65,300.8c-.28.69-.36,1.21-.24,1.52-3.89-2.58-7.94-2.89-12.19-.92-.64.31-1.38.26-1.97-.14-.43-.28-.88-.47-1.33-.55l-1.33-8.02c2.16.21,4.2.9,6.12,2.04,2.13,1.23,3.98,2.18,5.55,2.82,1.99.83,3.79,1.92,5.38,3.25h0Z"/>
    <path class="cls-91" d="M351.95,294.68c-1.04,6.55-3.32,12.76-6.85,18.66-5.83,1.75-10.77,4.84-14.82,9.25-18.02,5.43-36.12,6.47-54.31,3.15-14.68-2.68-26.89-5.03-36.59-7.07-6.17-1.3-18.21-1.87-36.16-1.73-16.77.14-46.24,6.57-59.14,8.75-17.55,2.96-34.08.85-49.59-6.28l-21.11-16.93-.45-1.78c.45.07.9.26,1.33.55.59.4,1.33.45,1.97.14,4.24-1.97,8.3-1.66,12.19.92,10.32,17.1,40.62,16.88,57.48,12.88,15.46-3.7,28.81-6.43,40.05-8.16,20.51-3.18,41.43-2.49,62.8,2.06,26.75,5.67,64.05,18.31,85.59-5.53l17.62-8.89h0Z"/>
    <path class="cls-88" d="M334.33,303.58c-21.53,23.83-58.84,11.19-85.59,5.53-21.37-4.55-42.28-5.24-62.8-2.06-11.24,1.73-24.59,4.46-40.05,8.16-16.86,4.01-47.17,4.22-57.48-12.88-.12-.31-.05-.83.24-1.52l1.35-.17c15.25,10.51,31.78,13.85,49.59,9.98,11.55-2.4,22.91-4.79,34.08-7.21,25.42-5.48,51.06-5.38,76.91.26,29.43,6.43,54.99,16.05,82.08-2.75.66-.45,1.57-.21,1.92.5.14.26.07,1-.24,2.16h0Z"/>
    <path class="cls-103" d="M94.48,319.42c7.78,6.9,14.96,11.74,21.53,14.51,45.27,19.04,91.85,24.28,139.73,15.77,15.3-2.73,35.67-9.37,48.66-13.14,6.85-1.99,15.49-6.64,25.87-13.97,4.06-4.41,8.99-7.49,14.82-9.25-8.92,13.16-20.77,23.26-35.6,30.28-20.32,9.6-41.22,17.26-62.68,22.93-1.71.45-1.83,2.85-.14,3.44,2.73.97,5.36,1.19,7.87.64,2.77,4.86,6.95,9.41,12.52,13.68l1.45,3.37c-9.13,1.21-18.38,2.68-27.75,4.41-18.26,3.37-33.2,5.19-48.97,2.47-4.48-.78-15.51-3.34-33.08-7.73-1.21.36-2.44.4-3.7.09l1.97-3.06,16.22-13.45,3.34-.74c1.47-.33,1.54-2.42.09-2.85-18.45-5.45-36.4-11.81-53.86-19.04-21.13-8.75-42.35-23.67-49.42-45.32l21.11,16.93h0Z"/>
    <path class="cls-98" d="M330.28,322.59c-10.39,7.33-19.02,11.98-25.87,13.97-13,3.77-33.37,10.41-48.66,13.14-47.88,8.51-94.45,3.27-139.73-15.77-6.57-2.77-13.75-7.61-21.53-14.51,15.51,7.14,32.04,9.25,49.59,6.28,12.9-2.18,42.38-8.61,59.14-8.75,17.95-.14,30,.43,36.16,1.73,9.7,2.04,21.91,4.39,36.59,7.07,18.19,3.32,36.28,2.28,54.31-3.15h0Z"/>
    <path class="cls-95" d="M322.73,360.54l-6.88,7.9c-.47.55-.66,1.26-.52,1.94,1,4.86,3.7,7.38,8.11,7.52,2.85.09,4.48,3.27,2.89,5.62l-4.62,6.85c-.24.38-.36.81-.36,1.23.12,4.29,2.25,6.95,6.43,7.97.64.17,1.33.14,1.94-.07,2.63-.9,5.26-1.23,7.85-1.02,1.68,3.2,2.51,6.59,2.51,10.13-6.24-2.25-12.07-.12-8.99,7.64-2.66.5-5.1.52-7.33.09-10.46-9.06-8.56-20.16-7.02-31.97.12-.88-.45-1.73-1.3-1.94-.88-.24-1.78.21-2.11,1.04-2.58,6.43-4.22,13.83-4.91,22.2-3.2-16.7-8.51-32.39-15.96-47.07l21.96-10.34c.66-.31,1.42-.05,1.78.57l6.52,11.71h0Z"/>
    <path class="cls-105" d="M131.34,357.98c-9.56,17.86-15.63,37.35-18.19,58.5l-27.89.02,10.62.02c.76,0,1.19-.88.71-1.49l-3.34-4.27c6.05-8.54,9.44-15.08,10.22-19.61,1.07-6.24,2.25-12.92,3.56-20.06,1.99-1.54-.52-3.75-7.54-6.62,2.21-5.45,5.34-10.34,9.44-14.63.5-.52,1.26-.66,1.92-.4l20.49,8.54h0Z"/>
    <path class="cls-107" d="M134.8,359.07l-4.41,14.09c-5.34,14.51-8.73,29.05-10.2,43.63l-7.04-.31c2.56-21.15,8.63-40.65,18.19-58.5l3.46,1.09h0Z"/>
    <path class="cls-107" d="M292.47,358.59c7.45,14.68,12.76,30.38,15.96,47.07l1.73,11.17c-2.49,1.35-4.7,1.04-6.57-.88-1.94-14.99-5.41-29.33-10.39-43.02l-4.34-13.4,3.6-.95h0Z"/>
    <path class="cls-95" d="M134.8,359.07c12.43,4.89,25.23,8.68,38.42,11.36l-16.22,13.45c-1.4.64-2.42.81-3.04.47-7.49-4.06-15.34-7.8-23.57-11.19l4.41-14.09h0Z"/>
    <path class="cls-95" d="M288.87,359.54l4.34,13.4c-8.56,6-17.26,9.79-26.13,11.38-5.57-4.27-9.75-8.82-12.52-13.68l34.31-11.1h0Z"/>
    <path class="cls-97" d="M322.73,360.54c6.38,12.43,11.31,25.07,14.85,37.94-2.58-.21-5.22.12-7.85,1.02-.62.21-1.3.24-1.94.07-4.17-1.02-6.31-3.68-6.43-7.97,0-.43.12-.85.36-1.23l4.62-6.85c1.59-2.35-.05-5.53-2.89-5.62-4.41-.14-7.11-2.66-8.11-7.52-.14-.69.05-1.4.52-1.94l6.88-7.9h0Z"/>
    <path class="cls-97" d="M107.03,371.09l-2.75,5.31c-.43.83-1.26,1.4-2.21,1.45-2.56.17-4.51.64-5.83,1.42-1.97,1.16-2.06,4.01-.14,5.29l5.17,3.46c1.61,1.09,1.78,3.37.38,4.7-1.85,1.75-3.23,3.82-4.1,6.21-.66,1.78-2.7,2.58-4.39,1.73-3.13-1.59-5.17-3.3-6.14-5.17,2.96-10.65,7.14-20.99,12.47-31.02,7.02,2.87,9.53,5.07,7.54,6.62h0Z"/>
    <path class="cls-106" d="M107.03,371.09c-1.3,7.14-2.49,13.83-3.56,20.06-.78,4.53-4.17,11.07-10.22,19.61l-9.08-4.96,2.85-10.32c.97,1.87,3.01,3.58,6.14,5.17,1.68.85,3.72.05,4.39-1.73.88-2.4,2.25-4.46,4.1-6.21,1.4-1.33,1.23-3.6-.38-4.7l-5.17-3.46c-1.92-1.28-1.83-4.13.14-5.29,1.33-.78,3.27-1.26,5.83-1.42.95-.05,1.78-.62,2.21-1.45l2.75-5.31h0Z"/>
    <path class="cls-106" d="M156.99,383.87l-1.97,3.06c-7.04,9.11-12.07,19.02-15.08,29.76l-2.73.21-17.03-.12c1.47-14.58,4.86-29.12,10.2-43.63,8.23,3.39,16.08,7.14,23.57,11.19.62.33,1.64.17,3.04-.47h0Z"/>
    <path class="cls-106" d="M293.21,372.94c4.98,13.68,8.44,28.03,10.39,43.02l-18.54.52c-3.68-9.77-9.2-19.37-16.53-28.79l-1.45-3.37c8.87-1.59,17.57-5.38,26.13-11.38h0Z"/>
    <path class="cls-93" d="M323.78,416.34l-13.61.5-1.73-11.17c.69-8.37,2.32-15.77,4.91-22.2.33-.83,1.23-1.28,2.11-1.04.85.21,1.42,1.07,1.3,1.94-1.54,11.81-3.44,22.91,7.02,31.97h0Z"/>
    <path class="cls-91" d="M158.73,386.84c-2.49,6.9-3.68,13.42-3.6,19.59.02,1.11.9,1.99,1.99,2.04,13.64.55,26.65,3.27,39.08,8.13l-56.25.09c3.01-10.74,8.04-20.66,15.08-29.76,1.26.31,2.49.26,3.7-.09h0Z"/>
    <path class="cls-98" d="M268.52,387.69c7.33,9.41,12.85,19.02,16.53,28.79l-13,.21-75.86-.09c-12.43-4.86-25.45-7.59-39.08-8.13-1.09-.05-1.97-.92-1.99-2.04-.07-6.17,1.11-12.69,3.6-19.59,17.57,4.39,28.6,6.95,33.08,7.73,15.77,2.73,30.71.9,48.97-2.47,9.37-1.73,18.62-3.2,27.75-4.41h0Z"/>
    <path class="cls-89" d="M84.17,405.81l9.08,4.96,3.34,4.27c.47.62.05,1.49-.71,1.49l-10.62-.02c-1.09-.21-1.99-.17-2.7.14l1.61-10.84h0Z"/>
    <path class="cls-89" d="M340.09,408.61l1.68,7.28-10.67.36c-3.08-7.75,2.75-9.89,8.99-7.64h0Z"/>
    <path class="cls-99" d="M139.94,416.69l56.25-.09,75.86.09c-6.5,2.32-13.11,3.7-19.85,4.13-23.48,1.45-53.83,2.04-91.09,1.83-9.51-.05-17.48-1.97-23.9-5.74l2.73-.21h0Z"/>
  </g>
</svg>