<?xml version="1.0" encoding="UTF-8"?>
<svg id="Camada_1" data-name="Camada 1" xmlns="http://www.w3.org/2000/svg" xmlns:xlink="http://www.w3.org/1999/xlink" viewBox="0 0 422.07 422.07">
  <defs>
    <style>
      .cls-1 {
        fill: #87472a;
      }

      .cls-2 {
        stroke: #21113b;
      }

      .cls-2, .cls-3, .cls-4, .cls-5, .cls-6, .cls-7, .cls-8, .cls-9, .cls-10, .cls-11, .cls-12, .cls-13, .cls-14, .cls-15, .cls-16, .cls-17, .cls-18, .cls-19, .cls-20, .cls-21, .cls-22, .cls-23, .cls-24, .cls-25, .cls-26, .cls-27, .cls-28 {
        fill: none;
        stroke-miterlimit: 10;
      }

      .cls-3 {
        stroke: #2e0b05;
      }

      .cls-29 {
        fill: #cdd2d4;
      }

      .cls-4 {
        stroke: #82716d;
      }

      .cls-30 {
        fill: #361005;
      }

      .cls-31 {
        fill: #f17074;
      }

      .cls-5 {
        stroke: #94403d;
      }

      .cls-6 {
        stroke: #84452d;
      }

      .cls-7 {
        stroke: #220906;
      }

      .cls-8 {
        stroke: #6a2e17;
      }

      .cls-9 {
        stroke: #641711;
      }

      .cls-32 {
        fill: #fff;
      }

      .cls-10 {
        stroke: #d53b1c;
      }

      .cls-11 {
        stroke: #9b8882;
      }

      .cls-12 {
        stroke: #73371d;
      }

      .cls-13 {
        stroke: #6e6a6d;
      }

      .cls-33 {
        fill: #0e0106;
      }

      .cls-14 {
        stroke: #561e0a;
      }

      .cls-15 {
        stroke: #932d11;
      }

      .cls-16 {
        stroke: #a54246;
      }

      .cls-17 {
        stroke: #4b2418;
      }

      .cls-18 {
        stroke: #8d4e33;
      }

      .cls-34 {
        fill: #332070;
      }

      .cls-19 {
        stroke: #5f2c18;
      }

      .cls-35 {
        fill: #ef491d;
      }

      .cls-36 {
        fill: #5f2710;
      }

      .cls-37 {
        fill: #02020d;
      }

      .cls-38 {
        fill: #591317;
      }

      .cls-20 {
        stroke: #4b1c0b;
      }

      .cls-39 {
        fill: #ba2d1b;
      }

      .cls-40 {
        fill: #4d1504;
      }

      .cls-21 {
        stroke: #37140b;
      }

      .cls-41 {
        fill: url(#Gradiente_sem_nome_10);
      }

      .cls-22 {
        stroke: #a68a82;
      }

      .cls-23 {
        stroke: #a15e40;
      }

      .cls-24 {
        stroke: #210f44;
      }

      .cls-42 {
        fill: #bb7455;
      }

      .cls-25 {
        stroke: #af9388;
      }

      .cls-26 {
        stroke: #48120e;
      }

      .cls-27 {
        stroke: #331f79;
      }

      .cls-28 {
        stroke: #653b2e;
      }
    </style>
    <linearGradient id="Gradiente_sem_nome_10" data-name="Gradiente sem nome 10" x1="15.59" y1="49.92" x2="371.99" y2="343.72" gradientUnits="userSpaceOnUse">
      <stop offset="0" stop-color="#331d81"/>
      <stop offset="1" stop-color="#16085e"/>
    </linearGradient>
  </defs>
  <rect class="cls-41" x="-.57" width="423.22" height="422.07"/>
  <g>
    <g>
      <path class="cls-35" d="M150.86,395.19l-9.61-12.41s3.58-10.97,6.71-12.53,18.9-11.32,18.9-11.32c0,0,41.48,3.79,42.37,5.65s13.33,20.32,16.55,20.32,15.52-15.27,19.28-17.2,11.17-8.77,11.17-8.77c0,0,7.35-.89,8.02-1.83s14.09,10.02,14.98,11.14,4.92,4.86,5.59,7.91c.67,3.05-7.16,21.16-8.5,22.28s-46.29,11.85-56.57,13.42-70.86-16.65-70.86-16.65"/>
      <path class="cls-39" d="M265.86,362.44c-3.26,12.4-11.64,22.03-25.34,27.37-21.14,8.23-42.72,6.95-61.19-3.44-10.19-5.73-16.34-13.94-18.73-23.83l9.18-5.31c16.62,21.62,51.14,24.65,75.26,10.47,3.92-2.31,7.86-5.9,11.69-10.6l9.13,5.34h0Z"/>
      <path class="cls-39" d="M179.7,381.71s-13.25-15.26-13.89-15.93-3.83-10.64,0-11.47,10.44-6.42,10.44-6.42l4.4-5.52s51.66.01,55.32.79,14.44-.03,15.2,0,11.12,4.06,11.12,4.06c0,0,3.93,4.57,4.05,7.09s-.77,6.68-2.56,7.73-5.19,5.75-12.54,10c-7.36,4.25-21.27,13.2-22.25,12.86s-12.2,1.9-15.76,1.9-32.64-5.09-32.64-5.09"/>
      <path class="cls-35" d="M147.9,374.6c7.28,10.99,17.16,19.02,29.67,24.13,20.5,8.37,41.82,9.34,63.96,2.89,15.59-4.54,28.03-13.58,37.29-27.14,16.32,9.36,28.88,24.33,37.62,44.95l-206.01.25c8.31-20.3,20.81-35.32,37.48-45.07h0Z"/>
      <path class="cls-37" d="M180.59,345.59c1.4,2.69-22.43,22.3-23.5,22.42l-9.19,6.59c-16.67,9.76-29.16,24.77-37.48,45.07-.2,1.88-1.7,1.83-4.5-.12-.53-.37-.77-1.16-.59-1.88,5.76-21.66,25.55-40.87,41.63-50.6,1.05-.64,27.38-23.86,26.42-24.7M265.25,343.64c.43,8.56,5.48,12.56,7.4,14.83,2.34,2.77,7.45,6.41,7.45,6.41h0c17.7,10.35,32.35,29.62,41.72,51.9.59,1.38.02,3.09-1.18,3.58-2.01.81-3.41.49-4.2-.94-8.74-20.62-21.29-35.59-37.62-44.95-2.22-.95-7.69-3.62-11.84-9.74-4.14-6.09-8.52-13.24-8.59-15.65"/>
    </g>
    <path class="cls-24" d="M125.19,58.19c-11.06-.37-16.58,5.07-16.6,16.3-.04,39.82-.06,85.31-.04,136.48.02,7.25-.04,12.07-.19,14.46-.04.82-.39,1.59-.97,2.16l-1.17,1.11c-.33.33-.6.74-.76,1.19-5.27,15.43-8.18,24.04-8.69,25.88-1.11,4-1.5,7.13-1.15,9.41.19,1.11,1.17,1.92,2.31,1.85l8.57-.6c.68-.04,1.32.41,1.46,1.09.31,1.24.45,3.32.45,6.26.06,26,.02,49.88-.14,71.61-.1,15.64,6.02,20.07,21.92,20.05,50.04-.06,105.15-.1,165.37-.1,4.59,0,8.92-.54,12.94-1.61.93-.25,1.79-.68,2.53-1.28l5.93-4.72"/>
    <path class="cls-27" d="M316.94,357.75c2.49-7.29,3.73-14.46,3.71-21.53-.08-20.95.06-36.16.45-45.61.35-8.96,2.08-16.44,5.17-22.48,3.36-6.49,5.03-10.09,5.03-10.8.1-6.67-.08-10.67-.6-11.97-5.36-13.91-7.97-28.33-7.83-43.3.1-12.88.29-27.21.51-43.04.19-12.65-1.34-24.35-4.61-35.1-.35-1.22-1.15-2.22-2.22-2.88-6.51-4-14.01-9.13-19.28-14.59-6.53-6.74-12.61-12.07-18.27-16.01-9.95-6.9-14.79-13.78-19.74-23.98-3.89-8.01-10.55-12.2-20-12.53-7.48-.25-30.61-.62-69.41-1.09-15.08-.19-30.92.14-44.66,5.34"/>
    <path class="cls-2" d="M316.94,357.75c1.46-29.4,1.77-60.26.89-92.54-.04-1.65,1.28-3.01,2.93-3.01h5.71c2.49,0,4.29-2.43,3.56-4.82-2.29-7.52-5.75-14.32-10.34-20.42-1.57-2.06-2.39-4.59-2.35-7.17.58-40.38.68-73.94.33-100.7-.04-4.04-.76-7.15-4.66-8.28-13.66-3.98-24.52-7.4-30.66-21.45-.58-1.34-1.87-2.2-3.34-2.25-18.38-.39-25.69-19.02-28.1-34.57-.37-2.45-2.47-4.24-4.94-4.24l-120.79-.12"/>
    <path class="cls-28" d="M129.84,231.28c.56-.04,1.17.14,1.85.56"/>
    <path class="cls-17" d="M131.7,231.84c2.33.12,4.16.58,5.46,1.34"/>
    <path class="cls-7" d="M137.15,233.18c3.48,2.25,4.82,4.51,3.98,6.8"/>
    <path class="cls-13" d="M141.13,239.98l-30.24-6.16c-.56-.12-1.11.21-1.3.76l-8.06,26.04c-.21.68.37,1.34,1.07,1.19l43.16-8.49c1.9-.37,3.85.02,5.46,1.11l31.52,21.16c1.61,1.09,3.65,1.4,5.5.84l47.75-14.09c1.26-.39,2.62-.29,3.81.29l33.21,15.64c.54.25,1.17.21,1.67-.1,11.37-6.98,20.73-12.55,28.04-16.71,6.08-3.44,12.4-5.11,18.99-4.97.41,0,.68-.41.51-.78l-5.36-12.03c-.25-.56-.89-.8-1.44-.56l-32.2,14.28c-.82.37-1.73.51-2.64.45-7.33-.54-18.17-1.69-32.49-3.46-9.54-1.19-17.41,1.07-27.48,3.61-1.48.39-3.07.33-4.53-.19l-33.04-11.31"/>
    <path class="cls-7" d="M183.05,246.51l.97-1.98c.31-.58.93-.93,1.59-.89l6.51.54"/>
    <line class="cls-21" x1="192.12" y1="244.18" x2="212.14" y2="250.96"/>
    <path class="cls-17" d="M212.14,250.96c2.18.23,3.96.84,5.32,1.9"/>
    <path class="cls-21" d="M217.46,252.85l26.33-3.91c.66-.1,1.32-.08,1.98.02,8.84,1.52,17.86,2.64,27.11,3.34,3.03.23,5.89.23,8.57,0,1.03-.1,2.04-.35,2.99-.76l22.54-9.89"/>
    <path class="cls-17" d="M306.97,241.64l4-2.99c.51-.39.82-1.01.82-1.65l.02-102.59"/>
    <path class="cls-3" d="M311.81,134.41l-.04-5.71c-.02-.64-.27-1.24-.72-1.67-1.05-1.01-2.41-1.46-4.12-1.36"/>
    <path class="cls-17" d="M306.93,125.68c-14.13-2.31-21.59-9.56-29.32-20.93-.54-.78-1.36-1.32-2.29-1.48-17.22-2.93-25.07-17.51-29.36-33.39"/>
    <path class="cls-3" d="M245.97,69.87c-.27-.76-.87-1.24-1.75-1.42-.76-.19-1.36-.78-1.5-1.55l-.33-1.61c-.14-.78-.82-1.34-1.61-1.34h-20.52"/>
    <path class="cls-17" d="M220.26,63.96c-32.2-.12-64.4-.02-96.6.33-5.93.06-8.9,2.78-8.9,8.18-.06,50.99-.08,102.35-.06,154.06,0,1.26.91,2.33,2.16,2.53l12.98,2.22"/>
    <path class="cls-8" d="M220.26,63.96l20.4-.02c.91,0,1.5.93,1.15,1.75l-3.87,9.04"/>
    <path class="cls-23" d="M237.94,74.73l-17.02-.1c-.95,0-1.63.93-1.32,1.81l1.34,3.89c.08.25.12.49.12.76l-1.05,72.76"/>
    <path class="cls-12" d="M220.01,153.86l-2.66,4.82c-.27.49.08,1.11.66,1.11h83.77c1.07,0,1.9-.93,1.77-1.98-.97-8.59-.91-16.17.16-22.76"/>
    <path class="cls-8" d="M303.72,135.05c6.28-2.41,8.98-2.64,8.1-.64"/>
    <path class="cls-12" d="M306.97,241.64c-.72.1-1.36.06-1.9-.08-.66-.21-1.13-.78-1.19-1.46-2.16-24.49-.25-48.66-.89-73.57-.04-1.36-1.59-2.14-2.68-1.34l-4.06,2.95"/>
    <path class="cls-23" d="M296.26,168.14l-73.86-.54c-.99-.02-1.79.78-1.77,1.77l.7,75.15"/>
    <path class="cls-12" d="M221.33,244.53l-3.87,8.32M212.14,250.96l-.95-84.67c0-.84-.95-1.34-1.67-.89l-6.1,3.91"/>
    <path class="cls-23" d="M203.43,169.31c.06-1.11-.31-1.67-1.11-1.65-28.62.35-53.23.29-73.86-.14-.58-.02-1.05.45-1.03,1.01.31,17.84.39,37.31.29,58.43,0,.99.7,2.43,2.12,4.33"/>
    <path class="cls-20" d="M192.12,244.18l-6.63-1.48c-.49-.1-.66-.74-.29-1.07l8.43-7.56"/>
    <path class="cls-12" d="M193.62,234.06c-3.38,3.28-1.69,5.03,5.07,5.25.6.02,1.09-.45,1.09-1.05l.39-64.73"/>
    <path class="cls-18" d="M200.17,173.54c.72-1.94,1.79-3.34,3.26-4.22M221.33,244.53l8.45-6.9"/>
    <line class="cls-12" x1="229.78" y1="237.63" x2="230.52" y2="216.55"/>
    <path class="cls-14" d="M230.52,216.55c.27,12.92,5.62,22.41,16.05,28.45.93.54,2.02-.35,1.69-1.36-.1-.31-.35-.68-.72-1.11"/>
    <path class="cls-25" d="M247.54,242.53c5.79,2.74,11.99,3.4,18.6,1.98"/>
    <path class="cls-14" d="M266.14,244.51c14.67-.72,21.61-13.7,21.63-27.26"/>
    <path class="cls-12" d="M287.77,217.25c1.61,7.75.35,14.83-3.79,21.28-.43.66-.04,1.55.74,1.69,2.25.41,4.39.12,6.39-.89.76-.39,1.26-1.15,1.3-2.02.97-21.73.8-43.04-.52-63.88"/>
    <line class="cls-18" x1="291.89" y1="173.43" x2="296.26" y2="168.14"/>
    <line class="cls-23" x1="200.17" y1="173.54" x2="180.91" y2="174.07"/>
    <line class="cls-6" x1="180.91" y1="174.07" x2="164.31" y2="173.62"/>
    <path class="cls-23" d="M164.31,173.62l-28.92.47c-.66.02-1.19.56-1.19,1.22v55.31c0,.43-.33.78-.74.8-.62.02-1.19.16-1.75.41"/>
    <path class="cls-8" d="M245.97,69.87c-.43-.1-.78-.08-1.09.08-.27.14-.47.52-.64,1.11-2.08,7.33-1.38,14.96,2.1,22.87,5.29,12.03,13.89,14.09,25.71,16.05.66.12,1.24.54,1.55,1.11,7.75,14.28,16.95,22.31,34.86,17.61.35-.08.62-.39.64-.76.06-.95-.66-1.71-2.16-2.27"/>
    <line class="cls-14" x1="303.72" y1="135.05" x2="291.05" y2="135.81"/>
    <path class="cls-8" d="M291.05,135.81c-11.15-4.53-15.53-10.88-22.06-19.53-.41-.56-.99-.97-1.65-1.17-.82-.27-2.76-.74-5.83-1.46-13.74-3.21-22.35-19.67-23.67-32.49"/>
    <path class="cls-6" d="M237.83,81.16c-.33-2.25-.29-4.39.1-6.43"/>
    <line class="cls-23" x1="291.89" y1="173.43" x2="247.7" y2="173.76"/>
    <line class="cls-6" x1="247.7" y1="173.76" x2="246.69" y2="173.99"/>
    <path class="cls-23" d="M246.69,173.99l-19.06.31c-.58.02-1.05.49-1.05,1.07-.08,23.38.19,40.56.82,51.54.1,1.57.89,5.13,2.37,10.71M237.83,81.16c-1.36.72-4.68.74-9.93.04-.91-.1-1.69.6-1.69,1.5l.37,64.52"/>
    <line class="cls-18" x1="226.59" y1="147.23" x2="220.01" y2="153.86"/>
    <path class="cls-4" d="M183.05,246.51c-7.87,3.4-15.6,4.29-23.2,2.66-6.3-1.32-12.51-6.12-18.73-9.19"/>
    <path class="cls-8" d="M164.31,173.62c-4.92,1.13-9.79,2.95-14.59,5.48-3.32,1.75-3.42,7.52.1,8.76,1.03.37,2.76.16,5.19-.6,7.81-2.47,16.01-3.85,24.62-4.16,1.81-.08,3.36-1.36,3.75-3.13.45-2.04-.37-4.02-2.47-5.89"/>
    <path class="cls-19" d="M193.62,234.06c4.12-14.65,1.3-26.29-8.45-34.92-12.24-10.84-28.64-10.22-39.64,1.77-7.13,7.77-9.09,16.81-5.85,27.13.68,2.14.76,3.67.25,4.57-.39.68-1.32.87-2.78.56"/>
    <path class="cls-8" d="M287.77,217.25c-4.74-33.77-50.68-34.4-57.25-.7M246.69,173.99c-3.98,1.69-5.17,4.18-3.58,7.5.68,1.4,1.9,2.12,3.65,2.16,9.7.25,18.73,1.69,27.07,4.35,2.2.7,4.55-.56,5.17-2.76.43-1.5-.16-2.8-1.75-3.89-8.69-6-18.54-8.53-29.54-7.58"/>
    <path class="cls-22" d="M266.14,244.51c14.89-4.02,22.13-21.24,15.16-34.75-7.48-14.54-26.84-19.24-38.9-7.11-11.95,12.03-9.23,30.74,5.13,39.88"/>
    <path class="cls-12" d="M291.05,135.81l.23,9.79c.02.84-.64,1.52-1.48,1.52l-63.21.1"/>
    <path class="cls-9" d="M310,263.98c-8.8,5.03-18.23,10.59-28.29,16.67-5.25,3.19-8.69,3.87-14.09,1.5-2.06-.91-11.19-5.34-27.38-13.31-1.32-.66-2.84-.78-4.26-.37l-48.91,14.46c-1.5.45-3.13.19-4.43-.7-13.12-8.92-23.16-15.53-30.12-19.88-3.15-1.96-5.46-2.82-6.9-2.58-14.65,2.6-24.52,4.35-29.58,5.25-1.09.19-1.87,1.13-1.87,2.22-.04,19.94,0,45.65.14,77.11.02,5.81.23,9.13.62,9.95.29.64.64,1.26,1.07,1.83,1.5,2.08,5.4,3.11,11.64,3.11,49.96.02,106.78-.02,170.46-.1,7.03-.02,13.68-1.17,13.78-9.23.39-28.74.45-56.98.23-84.73,0-1.07-1.17-1.75-2.1-1.22"/>
    <path class="cls-23" d="M207.2,74.22l-81.42-.45c-.23,0-.39.25-.29.47,1.22,2.6,1.83,5.42,1.9,8.49.39,23.01.49,46.27.35,69.8"/>
    <path class="cls-12" d="M127.74,152.52l-3.26,4.92c-.66,1.01.06,2.35,1.26,2.35h84.69c.62,0,1.13-.52,1.13-1.15v-84.77c0-1.15-1.3-1.83-2.25-1.15l-2.12,1.5"/>
    <line class="cls-18" x1="127.74" y1="152.52" x2="133.69" y2="147.33"/>
    <path class="cls-12" d="M133.69,147.33l65.66.31c.56.02,1.03-.45,1.03-1.03l-.1-65.16"/>
    <path class="cls-18" d="M200.28,81.45c1.38-2.33,3.69-4.74,6.92-7.23"/>
    <path class="cls-23" d="M200.28,81.45l-65.55.82c-.56.02-1.01.47-1.01,1.03l-.02,64.03"/>
    <path class="cls-11" d="M191.15,220.47c0-13.58-11.02-24.6-24.6-24.6s-24.6,11.02-24.6,24.6,11.02,24.6,24.6,24.6,24.6-11.02,24.6-24.6"/>
    <path class="cls-22" d="M165.29,209.93c-6.24,3.28-8.57,11.11-5.21,17.51,3.36,6.39,11.13,8.93,17.37,5.65,6.24-3.28,8.57-11.11,5.21-17.51-3.36-6.39-11.13-8.93-17.37-5.65M267.03,221.58c0-7.11-5.75-12.86-12.86-12.86s-12.86,5.75-12.86,12.86,5.75,12.86,12.86,12.86,12.86-5.75,12.86-12.86"/>
    <path class="cls-10" d="M299.12,339.17v-60.24c0-.89-.97-1.42-1.71-.95-8.84,5.54-13.54,8.51-14.07,8.9-6.37,4.88-13.25,5.25-20.64,1.09-6.88-3.89-14.19-7.68-21.94-11.41-2.27-1.09-4.84-1.28-7.23-.54-15.18,4.7-27.56,8.34-37.14,10.92-5.4,1.46-10.53,1.83-15.41,1.15-.68-.1-1.34-.39-1.9-.84l-4.47-3.73c-.08-.06-.16-.14-.27-.21l-23.79-14.05c-2-1.17-4.37-1.59-6.65-1.13l-13.6,2.66c-1.71.33-2.95,1.85-2.95,3.61v67.51c0,1.38,1.13,2.51,2.51,2.47,27.42-.68,55.81.33,86.03-.06,23.01-.31,43.8.16,69.08-.29,4-.08,8.47-1.3,13.41-3.67.45-.23.74-.68.74-1.19"/>
    <path class="cls-15" d="M212.91,331.59c18.29-.04,37.06-9.95,43.8-27.46,1.36-3.52,1.77-6.08,1.22-7.64-2.08-5.91-5.64-8.06-10.71-6.45-12.11,3.85-23.57,5.79-34.38,5.81-10.8.02-22.27-1.87-34.4-5.67-5.07-1.59-8.63.58-10.69,6.49-.54,1.57-.12,4.12,1.26,7.64,6.8,17.49,25.63,27.32,43.92,27.28"/>
    <path class="cls-5" d="M186.37,317.81c17.55,11.15,35.13,11.31,52.72.49"/>
    <path class="cls-26" d="M239.09,318.3c5.52-4.47,9.83-10.28,12.94-17.47.56-1.26.68-2.29.41-3.09-.66-1.94-2.76-3.07-4.94-2.7-7.79,1.32-15.49,4.82-24.64,5.58-16.38,1.38-31.83-.68-46.33-6.2-2.55-.97-5.11,1.48-4.22,4.08,2.95,8.76,7.64,15.18,14.07,19.3"/>
    <path class="cls-16" d="M239.09,318.3c-17.51-11.06-35.08-11.23-52.72-.49"/>
    <path class="cls-34" d="M316.94,357.75c1.46-29.4,1.77-60.26.89-92.54-.04-1.65,1.28-3.01,2.93-3.01h5.71c2.49,0,4.29-2.43,3.56-4.82-2.29-7.52-5.75-14.32-10.34-20.42-1.57-2.06-2.39-4.59-2.35-7.17.58-40.38.68-73.94.33-100.7-.04-4.04-.76-7.15-4.66-8.28-13.66-3.98-24.52-7.4-30.66-21.45-.58-1.34-1.87-2.2-3.34-2.25-18.38-.39-25.69-19.02-28.1-34.57-.37-2.45-2.47-4.24-4.94-4.24l-120.79-.12c13.74-5.19,29.58-5.52,44.66-5.34,38.79.47,61.93.84,69.41,1.09,9.46.33,16.11,4.51,20,12.53,4.94,10.2,9.79,17.08,19.74,23.98,5.67,3.93,11.74,9.27,18.27,16.01,5.27,5.46,12.77,10.59,19.28,14.59,1.07.66,1.87,1.67,2.22,2.88,3.28,10.75,4.8,22.46,4.61,35.1-.23,15.82-.41,30.16-.51,43.04-.14,14.98,2.47,29.4,7.83,43.3.51,1.3.7,5.29.6,11.97,0,.7-1.67,4.31-5.03,10.8-3.09,6.04-4.82,13.51-5.17,22.48-.39,9.46-.54,24.66-.45,45.61.02,7.07-1.22,14.24-3.71,21.53h0Z"/>
    <path class="cls-33" d="M316.94,357.75l-5.93,4.72c-.74.6-1.61,1.03-2.53,1.28-4.02,1.07-8.34,1.61-12.94,1.61-60.22,0-115.33.04-165.37.1-15.9.02-22.02-4.41-21.92-20.05.16-21.73.21-45.61.14-71.61,0-2.95-.14-5.03-.45-6.26-.14-.68-.78-1.13-1.46-1.09l-8.57.6c-1.13.06-2.12-.74-2.31-1.85-.35-2.29.04-5.42,1.15-9.41.52-1.83,3.42-10.45,8.69-25.88.16-.45.43-.87.76-1.19l1.17-1.11c.58-.58.93-1.34.97-2.16.14-2.39.21-7.21.19-14.46-.02-51.17,0-96.66.04-136.48.02-11.23,5.54-16.67,16.6-16.3l120.79.12c2.47,0,4.57,1.79,4.94,4.24,2.41,15.55,9.72,34.18,28.1,34.57,1.46.04,2.76.91,3.34,2.25,6.14,14.05,17,17.47,30.66,21.45,3.89,1.13,4.61,4.24,4.66,8.28.35,26.76.25,60.32-.33,100.7-.04,2.58.78,5.11,2.35,7.17,4.59,6.1,8.06,12.9,10.34,20.42.72,2.39-1.07,4.82-3.56,4.82h-5.71c-1.65,0-2.97,1.36-2.93,3.01.89,32.28.58,63.14-.89,92.54M129.84,231.28c.56-.04,1.17.14,1.85.56,2.33.12,4.16.58,5.46,1.34,3.48,2.25,4.82,4.51,3.98,6.8l-30.24-6.16c-.56-.12-1.11.21-1.3.76l-8.06,26.04c-.21.68.37,1.34,1.07,1.19l43.16-8.49c1.9-.37,3.85.02,5.46,1.11l31.52,21.16c1.61,1.09,3.65,1.4,5.5.84l47.75-14.09c1.26-.39,2.62-.29,3.81.29l33.21,15.64c.54.25,1.17.21,1.67-.1,11.37-6.98,20.73-12.55,28.04-16.71,6.08-3.44,12.4-5.11,18.99-4.97.41,0,.68-.41.51-.78l-5.36-12.03c-.25-.56-.89-.8-1.44-.56l-32.2,14.28c-.82.37-1.73.51-2.64.45-7.33-.54-18.17-1.69-32.49-3.46-9.54-1.19-17.41,1.07-27.48,3.61-1.48.39-3.07.33-4.53-.19l-33.04-11.31.97-1.98c.31-.58.93-.93,1.59-.89l6.51.54,20.02,6.78c2.18.23,3.96.84,5.32,1.9l26.33-3.91c.66-.1,1.32-.08,1.98.02,8.84,1.52,17.86,2.64,27.11,3.34,3.03.23,5.89.23,8.57,0,1.03-.1,2.04-.35,2.99-.76l22.54-9.89,4-2.99c.51-.39.82-1.01.82-1.65l.02-102.59-.04-5.71c-.02-.64-.27-1.24-.72-1.67-1.05-1.01-2.41-1.46-4.12-1.36-14.13-2.31-21.59-9.56-29.32-20.93-.54-.78-1.36-1.32-2.29-1.48-17.22-2.93-25.07-17.51-29.36-33.39-.27-.76-.87-1.24-1.75-1.42-.76-.19-1.36-.78-1.5-1.55l-.33-1.61c-.14-.78-.82-1.34-1.61-1.34h-20.52c-32.2-.12-64.4-.02-96.6.33-5.93.06-8.9,2.78-8.9,8.18-.06,50.99-.08,102.35-.06,154.06,0,1.26.91,2.33,2.16,2.53l12.98,2.22M310,263.98c-8.8,5.03-18.23,10.59-28.29,16.67-5.25,3.19-8.69,3.87-14.09,1.5-2.06-.91-11.19-5.34-27.38-13.31-1.32-.66-2.84-.78-4.26-.37l-48.91,14.46c-1.5.45-3.13.19-4.43-.7-13.12-8.92-23.16-15.53-30.12-19.88-3.15-1.96-5.46-2.82-6.9-2.58-14.65,2.6-24.52,4.35-29.58,5.25-1.09.19-1.87,1.13-1.87,2.22-.04,19.94,0,45.65.14,77.11.02,5.81.23,9.13.62,9.95.29.64.64,1.26,1.07,1.83,1.5,2.08,5.4,3.11,11.64,3.11,49.96.02,106.78-.02,170.46-.1,7.03-.02,13.68-1.17,13.78-9.23.39-28.74.45-56.98.23-84.73,0-1.07-1.17-1.75-2.1-1.22h0Z"/>
    <path class="cls-1" d="M220.26,63.96l20.4-.02c.91,0,1.5.93,1.15,1.75l-3.87,9.04-17.02-.1c-.95,0-1.63.93-1.32,1.81l1.34,3.89c.08.25.12.49.12.76l-1.05,72.76-2.66,4.82c-.27.49.08,1.11.66,1.11h83.77c1.07,0,1.9-.93,1.77-1.98-.97-8.59-.91-16.17.16-22.76,6.28-2.41,8.98-2.64,8.1-.64l-.02,102.59c0,.64-.31,1.26-.82,1.65l-4,2.99c-.72.1-1.36.06-1.9-.08-.66-.21-1.13-.78-1.19-1.46-2.16-24.49-.25-48.66-.89-73.57-.04-1.36-1.59-2.14-2.68-1.34l-4.06,2.95-73.86-.54c-.99-.02-1.79.78-1.77,1.77l.7,75.15-3.87,8.32c-1.36-1.05-3.13-1.67-5.32-1.9l-.95-84.67c0-.84-.95-1.34-1.67-.89l-6.1,3.91c.06-1.11-.31-1.67-1.11-1.65-28.62.35-53.23.29-73.86-.14-.58-.02-1.05.45-1.03,1.01.31,17.84.39,37.31.29,58.43,0,.99.7,2.43,2.12,4.33l-12.98-2.22c-1.26-.21-2.16-1.28-2.16-2.53-.02-51.71,0-103.07.06-154.06,0-5.4,2.97-8.12,8.9-8.18,32.2-.35,64.4-.45,96.6-.33M207.2,74.22l-81.42-.45c-.23,0-.39.25-.29.47,1.22,2.6,1.83,5.42,1.9,8.49.39,23.01.49,46.27.35,69.8l-3.26,4.92c-.66,1.01.06,2.35,1.26,2.35h84.69c.62,0,1.13-.52,1.13-1.15v-84.77c0-1.15-1.3-1.83-2.25-1.15l-2.12,1.5h0Z"/>
    <path class="cls-40" d="M245.97,69.87c-.43-.1-.78-.08-1.09.08-.27.14-.47.52-.64,1.11-2.08,7.33-1.38,14.96,2.1,22.87,5.29,12.03,13.89,14.09,25.71,16.05.66.12,1.24.54,1.55,1.11,7.75,14.28,16.95,22.31,34.86,17.61.35-.08.62-.39.64-.76.06-.95-.66-1.71-2.16-2.27,1.71-.1,3.07.35,4.12,1.36.45.43.7,1.03.72,1.67l.04,5.71c.89-2-1.81-1.77-8.1.64l-12.67.76c-11.15-4.53-15.53-10.88-22.06-19.53-.41-.56-.99-.97-1.65-1.17-.82-.27-2.76-.74-5.83-1.46-13.74-3.21-22.35-19.67-23.67-32.49-.33-2.25-.29-4.39.1-6.43l3.87-9.04c.35-.82-.25-1.75-1.15-1.75l-20.4.02h20.52c.78,0,1.46.56,1.61,1.34l.33,1.61c.14.76.74,1.36,1.5,1.55.89.19,1.48.66,1.75,1.42h0Z"/>
    <path class="cls-1" d="M245.97,69.87c4.29,15.88,12.13,30.47,29.36,33.39.93.16,1.75.7,2.29,1.48,7.73,11.37,15.18,18.62,29.32,20.93,1.5.56,2.22,1.32,2.16,2.27-.02.37-.29.68-.64.76-17.9,4.7-27.11-3.34-34.86-17.61-.31-.58-.89-.99-1.55-1.11-11.83-1.96-20.42-4.02-25.71-16.05-3.48-7.91-4.18-15.53-2.1-22.87.16-.6.37-.97.64-1.11.31-.16.66-.19,1.09-.08h0Z"/>
    <path class="cls-36" d="M127.74,152.52l5.95-5.19,65.66.31c.56.02,1.03-.45,1.03-1.03l-.1-65.16c1.38-2.33,3.69-4.74,6.92-7.23l2.12-1.5c.95-.68,2.25,0,2.25,1.15v84.77c0,.64-.52,1.15-1.13,1.15h-84.69c-1.2,0-1.92-1.34-1.26-2.35l3.26-4.92h0Z"/>
    <path class="cls-42" d="M207.2,74.22c-3.23,2.49-5.54,4.9-6.92,7.23l-65.55.82c-.56.02-1.01.47-1.01,1.03l-.02,64.03-5.95,5.19c.14-23.53.04-46.79-.35-69.8-.06-3.07-.68-5.89-1.9-8.49-.1-.23.06-.47.29-.47l81.42.45h0Z"/>
    <path class="cls-42" d="M237.94,74.73c-.39,2.04-.43,4.18-.1,6.43-1.36.72-4.68.74-9.93.04-.91-.1-1.69.6-1.69,1.5l.37,64.52-6.57,6.63,1.05-72.76c0-.27-.04-.51-.12-.76l-1.34-3.89c-.31-.89.37-1.81,1.32-1.81l17.02.1h0Z"/>
    <path class="cls-1" d="M200.28,81.45l.1,65.16c0,.58-.47,1.05-1.03,1.03l-65.66-.31.02-64.03c0-.56.45-1.01,1.01-1.03l65.55-.82h0Z"/>
    <path class="cls-1" d="M237.83,81.16c1.32,12.81,9.93,29.27,23.67,32.49,3.07.72,5.01,1.19,5.83,1.46.66.21,1.24.62,1.65,1.17,6.53,8.65,10.92,15,22.06,19.53l.23,9.79c.02.84-.64,1.52-1.48,1.52l-63.21.1-.37-64.52c0-.91.78-1.61,1.69-1.5,5.25.7,8.57.68,9.93-.04h0Z"/>
    <path class="cls-36" d="M303.72,135.05c-1.07,6.59-1.13,14.17-.16,22.76.12,1.05-.7,1.98-1.77,1.98h-83.77c-.58,0-.93-.62-.66-1.11l2.66-4.82,6.57-6.63,63.21-.1c.84,0,1.5-.68,1.48-1.52l-.23-9.79,12.67-.76h0Z"/>
    <path class="cls-36" d="M212.14,250.96l-20.02-6.78-6.63-1.48c-.49-.1-.66-.74-.29-1.07l8.43-7.56c-3.38,3.28-1.69,5.03,5.07,5.25.6.02,1.09-.45,1.09-1.05l.39-64.73c.72-1.94,1.79-3.34,3.26-4.22l6.1-3.91c.72-.45,1.67.04,1.67.89l.95,84.67h0Z"/>
    <path class="cls-36" d="M306.97,241.64l-22.54,9.89c-.95.41-1.96.66-2.99.76-2.68.23-5.54.23-8.57,0-9.25-.7-18.27-1.81-27.11-3.34-.66-.1-1.32-.12-1.98-.02l-26.33,3.91,3.87-8.32,8.45-6.9.74-21.08c.27,12.92,5.62,22.41,16.05,28.45.93.54,2.02-.35,1.69-1.36-.1-.31-.35-.68-.72-1.11,5.79,2.74,11.99,3.4,18.6,1.98,14.67-.72,21.61-13.7,21.63-27.26,1.61,7.75.35,14.83-3.79,21.28-.43.66-.04,1.55.74,1.69,2.25.41,4.39.12,6.39-.89.76-.39,1.26-1.15,1.3-2.02.97-21.73.8-43.04-.52-63.88l4.37-5.29,4.06-2.95c1.09-.8,2.64-.02,2.68,1.34.64,24.91-1.28,49.07.89,73.57.06.68.54,1.26,1.19,1.46.54.14,1.17.19,1.9.08h0Z"/>
    <path class="cls-42" d="M203.43,169.31c-1.46.89-2.53,2.29-3.26,4.22l-19.26.54-16.6-.45-28.92.47c-.66.02-1.19.56-1.19,1.22v55.31c0,.43-.33.78-.74.8-.62.02-1.19.16-1.75.41-.68-.41-1.3-.6-1.85-.56-1.42-1.9-2.12-3.34-2.12-4.33.1-21.12.02-40.58-.29-58.43-.02-.56.45-1.03,1.03-1.01,20.62.43,45.24.49,73.86.14.8-.02,1.17.54,1.11,1.65h0Z"/>
    <path class="cls-42" d="M296.26,168.14l-4.37,5.29-44.19.33-1.01.23-19.06.31c-.58.02-1.05.49-1.05,1.07-.08,23.38.19,40.56.82,51.54.1,1.57.89,5.13,2.37,10.71l-8.45,6.9-.7-75.15c-.02-.99.78-1.79,1.77-1.77l73.86.54h0Z"/>
    <path class="cls-1" d="M291.89,173.43c1.32,20.85,1.48,42.15.52,63.88-.04.87-.54,1.63-1.3,2.02-2,1.01-4.14,1.3-6.39.89-.78-.14-1.17-1.03-.74-1.69,4.14-6.45,5.4-13.54,3.79-21.28-4.74-33.77-50.68-34.4-57.25-.7l-.74,21.08c-1.48-5.58-2.27-9.15-2.37-10.71-.64-10.98-.91-28.16-.82-51.54,0-.58.47-1.05,1.05-1.07l19.06-.31c-3.98,1.69-5.17,4.18-3.58,7.5.68,1.4,1.9,2.12,3.65,2.16,9.7.25,18.73,1.69,27.07,4.35,2.2.7,4.55-.56,5.17-2.76.43-1.5-.16-2.8-1.75-3.89-8.69-6-18.54-8.53-29.54-7.58l44.19-.33h0Z"/>
    <path class="cls-1" d="M164.31,173.62c-4.92,1.13-9.79,2.95-14.59,5.48-3.32,1.75-3.42,7.52.1,8.76,1.03.37,2.76.16,5.19-.6,7.81-2.47,16.01-3.85,24.62-4.16,1.81-.08,3.36-1.36,3.75-3.13.45-2.04-.37-4.02-2.47-5.89l19.26-.54-.39,64.73c0,.6-.49,1.07-1.09,1.05-6.76-.23-8.45-1.98-5.07-5.25,4.12-14.65,1.3-26.29-8.45-34.92-12.24-10.84-28.64-10.22-39.64,1.77-7.13,7.77-9.09,16.81-5.85,27.13.68,2.14.76,3.67.25,4.57-.39.68-1.32.87-2.78.56-1.3-.76-3.13-1.22-5.46-1.34.56-.25,1.13-.39,1.75-.41.41-.02.74-.37.74-.8v-55.31c0-.66.54-1.19,1.19-1.22l28.92-.47h0Z"/>
    <path class="cls-40" d="M180.91,174.07c2.1,1.87,2.93,3.85,2.47,5.89-.39,1.77-1.94,3.05-3.75,3.13-8.61.31-16.81,1.69-24.62,4.16-2.43.76-4.16.97-5.19.6-3.52-1.24-3.42-7-.1-8.76,4.8-2.53,9.66-4.35,14.59-5.48l16.6.45h0Z"/>
    <path class="cls-40" d="M247.7,173.76c11-.95,20.85,1.59,29.54,7.58,1.59,1.09,2.18,2.39,1.75,3.89-.62,2.2-2.97,3.46-5.17,2.76-8.34-2.66-17.37-4.1-27.07-4.35-1.75-.04-2.97-.76-3.65-2.16-1.59-3.32-.39-5.81,3.58-7.5l1.01-.23h0Z"/>
    <path class="cls-30" d="M193.62,234.06l-8.43,7.56c-.37.33-.21.97.29,1.07l6.63,1.48-6.51-.54c-.66-.04-1.28.31-1.59.89l-.97,1.98c-7.87,3.4-15.6,4.29-23.2,2.66-6.3-1.32-12.51-6.12-18.73-9.19.84-2.29-.49-4.55-3.98-6.8,1.46.31,2.39.12,2.78-.56.52-.91.43-2.43-.25-4.57-3.23-10.32-1.28-19.37,5.85-27.13,11-11.99,27.4-12.61,39.64-1.77,9.74,8.63,12.57,20.27,8.45,34.92M191.15,220.47c0-13.58-11.02-24.6-24.6-24.6s-24.6,11.02-24.6,24.6,11.02,24.6,24.6,24.6,24.6-11.02,24.6-24.6h0Z"/>
    <path class="cls-40" d="M287.77,217.25c-.02,13.56-6.96,26.53-21.63,27.26,14.89-4.02,22.13-21.24,15.16-34.75-7.48-14.54-26.84-19.24-38.9-7.11-11.95,12.03-9.23,30.74,5.13,39.88.37.43.62.8.72,1.11.33,1.01-.76,1.9-1.69,1.36-10.42-6.04-15.78-15.53-16.05-28.45,6.57-33.7,52.51-33.07,57.25.7h0Z"/>
    <path class="cls-32" d="M191.15,220.47c0,13.58-11.02,24.6-24.6,24.6s-24.6-11.02-24.6-24.6,11.02-24.6,24.6-24.6,24.6,11.02,24.6,24.6M165.29,209.93c-6.24,3.28-8.57,11.11-5.21,17.51,3.36,6.39,11.13,8.93,17.37,5.65,6.24-3.28,8.57-11.11,5.21-17.51-3.36-6.39-11.13-8.93-17.37-5.65h0Z"/>
    <path class="cls-32" d="M266.14,244.51c-6.61,1.42-12.81.76-18.6-1.98-14.36-9.15-17.08-27.85-5.13-39.88,12.05-12.13,31.42-7.44,38.9,7.11,6.96,13.51-.27,30.74-15.16,34.75M267.03,221.58c0-7.11-5.75-12.86-12.86-12.86s-12.86,5.75-12.86,12.86,5.75,12.86,12.86,12.86,12.86-5.75,12.86-12.86h0Z"/>
    <path class="cls-40" d="M165.29,209.93c6.25-3.27,14.01-.74,17.37,5.65,3.36,6.4,1.03,14.23-5.21,17.51-6.25,3.27-14.01.74-17.37-5.65-3.36-6.4-1.03-14.23,5.21-17.51h0Z"/>
    <path class="cls-40" d="M267.03,221.58c0,7.11-5.75,12.86-12.86,12.86s-12.86-5.75-12.86-12.86,5.75-12.86,12.86-12.86,12.86,5.75,12.86,12.86h0Z"/>
    <path class="cls-29" d="M141.13,239.98c6.22,3.07,12.42,7.87,18.73,9.19,7.6,1.63,15.33.74,23.2-2.66l33.04,11.31c1.46.52,3.05.58,4.53.19,10.07-2.53,17.94-4.8,27.48-3.61,14.32,1.77,25.15,2.93,32.49,3.46.91.06,1.81-.08,2.64-.45l32.2-14.28c.56-.25,1.19,0,1.44.56l5.36,12.03c.16.37-.1.78-.51.78-6.59-.14-12.92,1.52-18.99,4.97-7.31,4.16-16.67,9.72-28.04,16.71-.49.31-1.13.35-1.67.1l-33.21-15.64c-1.19-.58-2.55-.68-3.81-.29l-47.75,14.09c-1.85.56-3.89.25-5.5-.84l-31.52-21.16c-1.61-1.09-3.56-1.48-5.46-1.11l-43.16,8.49c-.7.14-1.28-.52-1.07-1.19l8.06-26.04c.19-.56.74-.89,1.3-.76l30.24,6.16h0Z"/>
    <path class="cls-39" d="M310,263.98c.93-.54,2.1.14,2.1,1.22.23,27.75.16,55.99-.23,84.73-.1,8.06-6.76,9.21-13.78,9.23-63.68.08-120.5.12-170.46.1-6.24,0-10.14-1.03-11.64-3.11-.43-.58-.78-1.19-1.07-1.83-.39-.82-.6-4.14-.62-9.95-.14-31.46-.19-57.17-.14-77.11,0-1.09.78-2.04,1.87-2.22,5.07-.91,14.94-2.66,29.58-5.25,1.44-.25,3.75.62,6.9,2.58,6.96,4.35,17,10.96,30.12,19.88,1.3.89,2.93,1.15,4.43.7l48.91-14.46c1.42-.41,2.95-.29,4.26.37,16.19,7.97,25.32,12.4,27.38,13.31,5.4,2.37,8.84,1.69,14.09-1.5,10.05-6.08,19.49-11.64,28.29-16.67M299.12,339.17v-60.24c0-.89-.97-1.42-1.71-.95-8.84,5.54-13.54,8.51-14.07,8.9-6.37,4.88-13.25,5.25-20.64,1.09-6.88-3.89-14.19-7.68-21.94-11.41-2.27-1.09-4.84-1.28-7.23-.54-15.18,4.7-27.56,8.34-37.14,10.92-5.4,1.46-10.53,1.83-15.41,1.15-.68-.1-1.34-.39-1.9-.84l-4.47-3.73c-.08-.06-.16-.14-.27-.21l-23.79-14.05c-2-1.17-4.37-1.59-6.65-1.13l-13.6,2.66c-1.71.33-2.95,1.85-2.95,3.61v67.51c0,1.38,1.13,2.51,2.51,2.47,27.42-.68,55.81.33,86.03-.06,23.01-.31,43.8.16,69.08-.29,4-.08,8.47-1.3,13.41-3.67.45-.23.74-.68.74-1.19h0Z"/>
    <path class="cls-35" d="M298.38,340.37c-4.94,2.37-9.41,3.58-13.41,3.67-25.28.45-46.06-.02-69.08.29-30.22.39-58.61-.62-86.03.06-1.38.04-2.51-1.09-2.51-2.47v-67.51c0-1.75,1.24-3.28,2.95-3.61l13.6-2.66c2.29-.45,4.66-.04,6.65,1.13l23.79,14.05c.1.06.19.14.27.21l4.47,3.73c.56.45,1.22.74,1.9.84,4.88.68,10.01.31,15.41-1.15,9.58-2.58,21.96-6.22,37.14-10.92,2.39-.74,4.96-.56,7.23.54,7.75,3.73,15.06,7.52,21.94,11.41,7.4,4.16,14.28,3.79,20.64-1.09.54-.39,5.23-3.36,14.07-8.9.74-.47,1.71.06,1.71.95v60.24c0,.51-.29.97-.74,1.19M212.91,331.59c18.29-.04,37.06-9.95,43.8-27.46,1.36-3.52,1.77-6.08,1.22-7.64-2.08-5.91-5.64-8.06-10.71-6.45-12.11,3.85-23.57,5.79-34.38,5.81-10.8.02-22.27-1.87-34.4-5.67-5.07-1.59-8.63.58-10.69,6.49-.54,1.57-.12,4.12,1.26,7.64,6.8,17.49,25.63,27.32,43.92,27.28h0Z"/>
    <path class="cls-30" d="M212.82,295.85c10.82-.02,22.27-1.96,34.38-5.81,5.07-1.61,8.63.54,10.71,6.45.56,1.57.14,4.12-1.22,7.64-6.74,17.51-25.5,27.42-43.8,27.46-18.29.04-37.12-9.79-43.92-27.28-1.38-3.52-1.79-6.08-1.26-7.64,2.06-5.91,5.62-8.08,10.69-6.49,12.13,3.79,23.61,5.69,34.4,5.67M186.37,317.81c17.55,11.15,35.13,11.31,52.72.49,5.52-4.47,9.83-10.28,12.94-17.47.56-1.26.68-2.29.41-3.09-.66-1.94-2.76-3.07-4.94-2.7-7.79,1.32-15.49,4.82-24.64,5.58-16.38,1.38-31.83-.68-46.33-6.2-2.55-.97-5.11,1.48-4.22,4.08,2.95,8.76,7.64,15.18,14.07,19.3h0Z"/>
    <path class="cls-38" d="M239.09,318.3c-17.51-11.06-35.08-11.23-52.72-.49-6.43-4.12-11.12-10.55-14.07-19.3-.89-2.6,1.67-5.05,4.22-4.08,14.5,5.52,29.95,7.58,46.33,6.2,9.15-.76,16.85-4.26,24.64-5.58,2.18-.37,4.29.76,4.94,2.7.27.8.14,1.83-.41,3.09-3.11,7.19-7.42,13-12.94,17.47h0Z"/>
    <path class="cls-31" d="M239.09,318.3c-17.59,10.82-35.17,10.65-52.72-.49,17.63-10.73,35.21-10.57,52.72.49h0Z"/>
  </g>
</svg>