<?xml version="1.0" encoding="UTF-8"?>
<svg id="Camada_1" data-name="Camada 1" xmlns="http://www.w3.org/2000/svg" xmlns:xlink="http://www.w3.org/1999/xlink" viewBox="0 0 422.07 422.07">
  <defs>
    <style>
      .cls-1 {
        stroke: #ba99dc;
      }

      .cls-1, .cls-2, .cls-3, .cls-4, .cls-5, .cls-6, .cls-7, .cls-8, .cls-9, .cls-10, .cls-11, .cls-12, .cls-13, .cls-14, .cls-15, .cls-16, .cls-17, .cls-18, .cls-19, .cls-20 {
        fill: none;
        stroke-miterlimit: 10;
      }

      .cls-2 {
        stroke: #442c58;
      }

      .cls-3 {
        stroke: #e6e9ea;
      }

      .cls-21 {
        fill: #cdd2d4;
      }

      .cls-22 {
        fill: #f17074;
      }

      .cls-4 {
        stroke: #966bb7;
      }

      .cls-23 {
        fill: #fff;
      }

      .cls-5 {
        stroke: #aa83c7;
      }

      .cls-6 {
        stroke: #796c7c;
      }

      .cls-24 {
        fill: #402630;
      }

      .cls-25 {
        fill: #ceb0ec;
      }

      .cls-7 {
        stroke: #1b113f;
      }

      .cls-26 {
        fill: #240624;
      }

      .cls-27 {
        fill: #e6cdf6;
      }

      .cls-8 {
        stroke: #1b1047;
      }

      .cls-9 {
        stroke: #dabff1;
      }

      .cls-10 {
        stroke: #746882;
      }

      .cls-28 {
        fill: #332070;
      }

      .cls-11 {
        stroke: #54426d;
      }

      .cls-29 {
        fill: #02020d;
      }

      .cls-12 {
        stroke: #654478;
      }

      .cls-13 {
        stroke: #aa495d;
      }

      .cls-30 {
        fill: #632145;
      }

      .cls-31 {
        fill: #8555a2;
      }

      .cls-32 {
        fill: url(#Gradiente_sem_nome_10);
      }

      .cls-14 {
        stroke: #68597d;
      }

      .cls-33 {
        fill: #a681cc;
      }

      .cls-15 {
        stroke: #441435;
      }

      .cls-16 {
        stroke: #8b3b4c;
      }

      .cls-17 {
        stroke: #a09398;
      }

      .cls-18 {
        stroke: #331f79;
      }

      .cls-19 {
        stroke: #795b88;
      }

      .cls-20 {
        stroke: #928392;
      }
    </style>
    <linearGradient id="Gradiente_sem_nome_10" data-name="Gradiente sem nome 10" x1="15.59" y1="49.92" x2="371.99" y2="343.72" gradientUnits="userSpaceOnUse">
      <stop offset="0" stop-color="#331d81"/>
      <stop offset="1" stop-color="#16085e"/>
    </linearGradient>
  </defs>
  <rect class="cls-32" x="-.57" width="423.22" height="422.07"/>
  <g>
    <path class="cls-18" d="M118.22,131.56c-1.52-.64-2.53-.3-3.04,1.06l-.02.02s-.02-.02-.02-.02v-.12c.02-.14.05-.25.07-.28l13.96-15.16c.32-.32.28-.85-.07-1.17l-.02-.02c-.3-.28-.78-.23-1.06.07-5.5,6.08-11.08,12.09-16.72,18.06-14.21,14.97-20.52,34.23-27.43,53.14-1.2,3.27-3.82,5.57-7.85,6.89"/>
    <path class="cls-8" d="M76,194.03c-7.26-7.51-12.12-12.81-20.82-14.51-8.34-1.64-10.73,8.84-11.03,15.06-1.15,23.52,2.9,45.74,12.16,66.7,5.8,13.15,15.27,21.95,28.4,26.4,1.93.67,3.36,2.35,3.69,4.38,5.23,32.25,20.94,57.79,47.13,76.61,1.08.78.94,2.46-.25,3.06-18.27,9.08-40.75,26.99-47.29,47.2-.21.67.07,1.4.67,1.75,3.18,1.82,4.88,1.87,5.11.12"/>
    <path class="cls-8" d="M327.75,420.56c.9,1.34,2.49,1.64,4.77.88,1.36-.46,2-2.05,1.34-3.34-10.64-20.78-26-36-46.11-45.65-1.84-.9-2.14-3.41-.53-4.7,10.07-8.11,19.32-17.34,27.82-27.69"/>
    <line class="cls-18" x1="315.04" y1="340.06" x2="322.52" y2="332.39"/>
    <path class="cls-8" d="M322.52,332.39c7.99-8.71,11.17-19.3,14.7-31.07"/>
    <path class="cls-18" d="M337.22,301.32c3.64-3.98,7.51-7.85,11.63-11.61,5.53-5.04,9.28-8.98,11.29-11.82,7.3-10.34,11.36-22.09,12.14-35.24"/>
    <path class="cls-8" d="M372.27,242.65c5.37-18.22,7.05-35.84,5-52.88-.25-1.98-1.47-4.7-3.69-8.18-.39-.62-1.01-1.11-1.73-1.34-6.38-2.19-12.76,1.57-17.71,6.01-4.24,3.8-9.9,9.63-16.98,17.44-.53.58-1.5.23-1.54-.55-.32-5.09-1.27-10.99-2.86-17.69-7.95-33.65-27.09-58.62-57.42-74.88-34.6-18.54-71.17-21.4-109.71-8.52-18.27,6.1-34.07,15.94-47.43,29.51"/>
    <path class="cls-7" d="M372.27,242.65c-5.3,19.67-15.36,38.86-35.84,45.72-.97.32-1.7,1.11-1.98,2.1l-5.48,19.67c-.18.69.71,1.15,1.15.58l7.09-9.4M322.52,332.39c4.54-6.13,6.91-12.88,7.09-20.22,0-.32-.23-.6-.55-.67-.32-.05-.64.14-.74.46-3.29,10.07-7.72,19.44-13.29,28.1"/>
    <path class="cls-14" d="M327.75,420.56c-9.93-19.23-24.18-33.19-42.73-41.92"/>
    <line class="cls-11" x1="285.02" y1="378.64" x2="274.68" y2="372.44"/>
    <path class="cls-2" d="M274.68,372.44c-1.24-.6-1.96-1.84-2.14-3.75"/>
    <path class="cls-14" d="M272.54,368.69c6.52-3.43,12.02-7.03,16.54-10.83,15.92-13.34,27.11-29.37,33.58-48.07,5.07-14.58,8.2-34.07,9.42-58.46.99-19.99-.58-39.92-4.7-59.79"/>
    <path class="cls-10" d="M327.38,191.54c-6.75-32.09-23.47-56.22-50.19-72.37-31.79-19.23-66.34-23.4-103.67-12.51-36.32,10.6-61.29,33.54-74.88,68.8-1.61,4.19-3.29,10.27-5.07,18.24"/>
    <path class="cls-14" d="M93.57,193.7c-7.21,36.74-5.78,73.73,4.26,111.02"/>
    <path class="cls-11" d="M97.83,304.72c5.48,20.61,16.45,37.73,32.91,51.39,5.18,4.28,10.34,8.48,15.48,12.55"/>
    <path class="cls-2" d="M146.23,368.66c1.59,2.51,1.75,3.82.53,3.94"/>
    <line class="cls-11" x1="146.76" y1="372.6" x2="136.32" y2="378.75"/>
    <path class="cls-14" d="M136.32,378.75c-18.93,9.1-33.12,23.1-42.57,42.04"/>
    <path class="cls-7" d="M76,194.03l7.55,9.63c.41.53,1.27.32,1.38-.35,3.2-18.7,9.47-36.46,18.8-53.28,1.87-3.32,6.68-9.47,14.49-18.47"/>
    <path class="cls-1" d="M285.02,378.64c-10.53,12.65-24.65,21.08-42.36,25.31-25.15,6.01-49.36,5.11-72.65-2.69-14.21-4.77-25.43-12.25-33.7-22.5"/>
    <path class="cls-4" d="M274.68,372.44c-7.69,5.48-14.63,9.42-20.78,11.84-33.77,13.27-77.02,10.64-107.15-11.68M151.04,368.73l-4.81-.07"/>
    <path class="cls-9" d="M327.38,191.54c-.12.85-.35,1.29-.64,1.29-1.29-.05-2.07-.69-2.33-1.93-2.23-10.66-6.5-20.5-12.81-29.53-6.63-9.47-23.45-27.32-37.98-34.43-44.96-22.04-103.93-23.49-143.5,12.21-7.32,6.61-11.75,10.78-13.24,12.55-5.83,6.82-9.24,11.65-10.27,14.53-3.32,9.31-7.67,18.47-13.04,27.48"/>
    <path class="cls-5" d="M272.54,368.69c-32.73,19.79-66.66,23.33-101.74,10.66-7.21-2.6-13.8-6.13-19.76-10.62"/>
    <path class="cls-1" d="M151.04,368.73c-9.19-8.29-19.95-16.49-27.73-25.98-3.69-4.49-6.01-7.88-7-10.2-4.54-10.76-10.69-20.02-18.47-27.82"/>
    <path class="cls-11" d="M86.25,273.21c-2-17.32-2.44-35.7-1.29-55.16"/>
    <path class="cls-14" d="M84.96,218.05c-5.69-12.23-15.09-22.89-28.15-31.99-1.75-1.22-4.22-.44-4.93,1.59-1.08,3.13-1.59,6.89-1.52,11.29.53,26.67,6.7,71.7,35.1,81.93.69.25,1.4-.3,1.34-1.04l-.55-6.61"/>
    <path class="cls-1" d="M84.96,218.05l-1.66,11.15c-.21,1.38-2.07,1.7-2.72.46-4.88-9.47-9.6-17.97-17.85-23.68-.81-.55-1.89,0-1.91.97-.07,2.46.46,4.93,1.64,7.44,2.97,6.31,5.78,12.51,8.38,18.61.64,1.5,1.08,3.09,1.24,4.72.41,4.03.46,8.8.14,14.3-.39,6.89,3.41,12,11.4,15.29.48.18.76.67.69,1.17-.35,2.37.3,3.94,1.93,4.72"/>
    <line class="cls-11" x1="337.15" y1="229.8" x2="334.98" y2="276.81"/>
    <path class="cls-14" d="M334.98,276.81l-.18,2.6c-.07.85.76,1.5,1.57,1.2,6.63-2.46,11.84-6.01,15.64-10.69,15.73-19.3,20.18-51.66,19.42-77.37-.07-2.4-.62-4.24-1.64-5.55-1.17-1.52-3.34-1.8-4.88-.67-10.64,7.85-19.74,17.39-27.32,28.61-.58.88-.88,1.91-.85,2.97l.41,11.89"/>
    <path class="cls-1" d="M334.98,276.81c2.23-2.05,1.13-4.72,2.44-6.59,1.52-2.21,4.72-4.08,5.76-5.71,6.26-9.97,6.29-16.45,6.5-29,.02-1.89,1.7-5.78,5-11.65,3.64-6.5,6.06-11.65,6.91-17.9.16-1.2-1.24-1.96-2.14-1.15-3.57,3.2-6.59,6.33-9.1,9.4-.07.09-1.82,2.83-5.25,8.22-2.19,3.45-4.84,5.92-7.95,7.37"/>
    <path class="cls-9" d="M164.5,131.48c-2.54-3.77-11.04-2.5-18.97,2.85-7.94,5.34-12.3,12.76-9.75,16.52,2.54,3.77,11.04,2.5,18.97-2.85,7.94-5.34,12.3-12.76,9.75-16.52"/>
    <path class="cls-5" d="M210.86,159.48c17.92-.02,37.11,7.21,52.22,17.16,2.14,1.4,4.98.71,5.99-1.47.6-1.27.32-2.69-.85-4.33-12.23-16.86-37.11-25.04-57.35-25.04-20.25.02-45.12,8.25-57.33,25.11-1.17,1.64-1.45,3.09-.85,4.33,1.01,2.19,3.85,2.88,5.99,1.47,15.11-9.97,34.27-17.23,52.19-17.23"/>
    <path class="cls-1" d="M151.11,222.52c-2.6,9.7-1.17,15.23.83,26.95,1.17,6.89,2.9,12.37,5.18,16.45,11.52,20.5,29.62,35.63,53.07,35.33,11.49-.14,21.93-3.06,31.3-8.78.71-.44,1.4-.92,2.07-1.47,3.04-2.53,8.91-9.31,17.62-20.29,3.64-4.61,5.07-9.4,4.26-14.35"/>
    <path class="cls-19" d="M265.45,256.35c6.38-13.41,7.74-26.79,4.03-40.12-10.92-39.32-54.57-57.7-89.9-36.35-16.03,9.7-25.52,23.91-28.47,42.63"/>
    <path class="cls-12" d="M265.45,256.35c-15.06,28.63-49.08,44.59-79.37,29.51-25.45-12.67-37.11-33.79-34.96-63.34"/>
    <path class="cls-1" d="M109.74,285.37c-.09,6.69,8.93,12.21,20.14,12.37,11.22.16,20.39-5.14,20.48-11.81.09-6.69-8.93-12.21-20.14-12.37-11.22-.16-20.39,5.14-20.48,11.81M311.7,284.65c-.28-6.51-9.59-11.39-20.76-10.9-11.19.5-20.01,6.16-19.74,12.67.28,6.51,9.59,11.39,20.76,10.9,11.19-.5,20.01-6.16,19.74-12.67"/>
    <path class="cls-19" d="M210.88,355.37c24.32-.05,49.08-12.83,55.99-37.27,2.93-10.41-.21-21.88-13.04-16.7-14,5.67-28.77,9.31-43,9.31-14.26.02-29.04-3.57-43.05-9.21-12.83-5.14-15.94,6.33-12.99,16.75,6.98,24.42,31.76,37.15,56.09,37.13"/>
    <path class="cls-1" d="M210.17,372.86c8.71.25,21.72-2.1,25.18-11.01.32-.81-.46-1.59-1.27-1.29-8.64,3.32-16.54,4.86-23.7,4.68-7.16-.21-14.97-2.21-23.4-5.99-.78-.35-1.61.39-1.36,1.22,2.97,9.1,15.82,12.16,24.55,12.39"/>
    <path class="cls-6" d="M161.54,207.43c-6.4,13.29-7.16,28.58-2.12,42.45,4.49,12.39,13.34,22.73,24.85,29.16,22.13,12.3,49.82,7.83,66.96-10.83,10.69-11.65,15.82-27.39,14.07-43.12"/>
    <path class="cls-20" d="M265.31,225.1c-2.58-23.03-19.35-41.94-41.92-47.24-11.08-2.6-22.69-1.68-33.21,2.63-12.55,5.14-22.73,14.74-28.63,26.95"/>
    <path class="cls-3" d="M265.31,225.1c-3.18,8.13-4.95,17.92-8.38,24.53-6.79,13.08-17.99,21.12-33.54,24.14-18.96,3.66-35.77-.78-50.44-13.34-9.1-7.79-11.89-17.39-14.21-28.93-.67-3.32-.51-7.32.44-12.02.81-3.94,1.59-7.95,2.37-12.05"/>
    <path class="cls-17" d="M187.96,212.26c-9.86,12.29-7.69,30.39,4.84,40.41,12.51,10.04,30.66,8.2,40.5-4.09,9.86-12.29,7.69-30.39-4.84-40.41-12.51-10.04-30.66-8.2-40.5,4.09"/>
    <path class="cls-17" d="M208.07,219.32c0-4.79-3.89-8.68-8.68-8.68s-8.68,3.89-8.68,8.68,3.89,8.68,8.68,8.68,8.68-3.89,8.68-8.68"/>
    <path class="cls-16" d="M179.58,341.16c20.29,11.08,42.54,11.06,62.86-.05"/>
    <path class="cls-15" d="M242.44,341.12c10.43-4.68,17-13.61,19.67-26.81.18-.92.18-1.84,0-2.76l-.64-3.25c-.58-2.95-4.79-2.93-5.37.02-.94,5-4.38,15.46-9.4,18.17-2.35,1.29-5.34.76-7.35-1.29-2.97-3.06-4.93-6.38-5.87-9.95-.28-1.04-1.29-1.66-2.35-1.47-13.47,2.49-26.93,2.6-40.31.37-.83-.14-1.64.28-1.98,1.04-2.05,4.33-9.37,16.95-14.97,10.99-4.68-4.98-7.39-10.89-8.13-17.78-.39-3.75-5.62-4.31-6.82-.74-.94,2.79-.46,7.9.46,10.48,3.75,10.8,10.5,18.47,20.2,23.03"/>
    <path class="cls-13" d="M242.44,341.12c-21.33-13.01-42.29-13.01-62.86.05"/>
    <path class="cls-20" d="M168.73,310.11c1.04,5.69,3.39,10.16,7.07,13.43.81.71,2.05.62,2.74-.21l6.91-8.25c.46-.53.21-1.36-.46-1.57l-14.9-4.63c-.76-.23-1.5.44-1.36,1.22M251.14,308.92l-13.91,4.81c-.69.23-1.01,1.01-.74,1.68,1.57,3.66,3.73,6.24,6.52,7.72,1.24.67,2.79.37,3.69-.71,3.25-3.85,5.21-7.95,5.9-12.28.12-.83-.67-1.5-1.45-1.22"/>
    <path class="cls-29" d="M372.27,242.65c-5.3,19.67-15.36,38.86-35.84,45.72-.97.32-1.7,1.11-1.98,2.1l-5.48,19.67c-.18.69.71,1.15,1.15.58l7.09-9.4c-3.52,11.77-6.7,22.37-14.7,31.07,4.54-6.13,6.91-12.88,7.09-20.22,0-.32-.23-.6-.55-.67-.32-.05-.64.14-.74.46-3.29,10.07-7.72,19.44-13.29,28.1-8.5,10.34-17.76,19.58-27.82,27.69-1.61,1.29-1.31,3.8.53,4.7,20.11,9.65,35.47,24.88,46.11,45.65.67,1.29.02,2.88-1.34,3.34-2.28.76-3.87.46-4.77-.88-9.93-19.23-24.18-33.19-42.73-41.92l-10.34-6.2c-1.24-.6-1.96-1.84-2.14-3.75,6.52-3.43,12.02-7.03,16.54-10.83,15.92-13.34,27.11-29.37,33.58-48.07,5.07-14.58,8.2-34.07,9.42-58.46.99-19.99-.58-39.92-4.7-59.79-6.75-32.09-23.47-56.22-50.19-72.37-31.79-19.23-66.34-23.4-103.67-12.51-36.32,10.6-61.29,33.54-74.88,68.8-1.61,4.19-3.29,10.27-5.07,18.24-7.21,36.74-5.78,73.73,4.26,111.02,5.48,20.61,16.45,37.73,32.91,51.39,5.18,4.28,10.34,8.48,15.48,12.55,1.59,2.51,1.75,3.82.53,3.94l-10.43,6.15c-18.93,9.1-33.12,23.1-42.57,42.04-.23,1.75-1.93,1.7-5.11-.12-.6-.35-.88-1.08-.67-1.75,6.54-20.2,29.02-38.12,47.29-47.2,1.2-.6,1.34-2.28.25-3.06-26.19-18.82-41.9-44.36-47.13-76.61-.32-2.03-1.75-3.71-3.69-4.38-13.13-4.45-22.6-13.24-28.4-26.4-9.26-20.96-13.31-43.19-12.16-66.7.3-6.22,2.69-16.7,11.03-15.06,8.71,1.7,13.57,7,20.82,14.51l7.55,9.63c.41.53,1.27.32,1.38-.35,3.2-18.7,9.47-36.46,18.8-53.28,1.87-3.32,6.68-9.47,14.49-18.47,13.36-13.57,29.16-23.4,47.43-29.51,38.53-12.88,75.11-10.02,109.71,8.52,30.33,16.26,49.48,41.23,57.42,74.88,1.59,6.7,2.53,12.6,2.86,17.69.05.78,1.01,1.13,1.54.55,7.07-7.81,12.74-13.64,16.98-17.44,4.95-4.45,11.33-8.2,17.71-6.01.71.23,1.34.71,1.73,1.34,2.21,3.48,3.43,6.2,3.69,8.18,2.05,17.04.37,34.67-5,52.88M86.25,273.21c-2-17.32-2.44-35.7-1.29-55.16-5.69-12.23-15.09-22.89-28.15-31.99-1.75-1.22-4.22-.44-4.93,1.59-1.08,3.13-1.59,6.89-1.52,11.29.53,26.67,6.7,71.7,35.1,81.93.69.25,1.4-.3,1.34-1.04l-.55-6.61M337.15,229.8l-2.17,47.01-.18,2.6c-.07.85.76,1.5,1.57,1.2,6.63-2.46,11.84-6.01,15.64-10.69,15.73-19.3,20.18-51.66,19.42-77.37-.07-2.4-.62-4.24-1.64-5.55-1.17-1.52-3.34-1.8-4.88-.67-10.64,7.85-19.74,17.39-27.32,28.61-.58.88-.88,1.91-.85,2.97l.41,11.89h0Z"/>
    <path class="cls-27" d="M327.38,191.54c-.12.85-.35,1.29-.64,1.29-1.29-.05-2.07-.69-2.33-1.93-2.23-10.66-6.5-20.5-12.81-29.53-6.63-9.47-23.45-27.32-37.98-34.43-44.96-22.04-103.93-23.49-143.5,12.21-7.32,6.61-11.75,10.78-13.24,12.55-5.83,6.82-9.24,11.65-10.27,14.53-3.32,9.31-7.67,18.47-13.04,27.48,1.77-7.97,3.45-14.05,5.07-18.24,13.59-35.26,38.56-58.2,74.88-68.8,37.34-10.89,71.89-6.73,103.67,12.51,26.72,16.15,43.44,40.29,50.19,72.37h0Z"/>
    <path class="cls-25" d="M327.38,191.54c4.12,19.88,5.69,39.8,4.7,59.79-1.22,24.39-4.35,43.88-9.42,58.46-6.47,18.7-17.67,34.73-33.58,48.07-4.51,3.8-10.02,7.39-16.54,10.83-32.73,19.79-66.66,23.33-101.74,10.66-7.21-2.6-13.8-6.13-19.76-10.62-9.19-8.29-19.95-16.49-27.73-25.98-3.69-4.49-6.01-7.88-7-10.2-4.54-10.76-10.69-20.02-18.47-27.82-10.04-37.29-11.47-74.28-4.26-111.02,5.37-9.01,9.72-18.17,13.04-27.48,1.04-2.88,4.45-7.72,10.27-14.53,1.5-1.77,5.92-5.94,13.24-12.55,39.57-35.7,98.54-34.25,143.5-12.21,14.53,7.12,31.35,24.97,37.98,34.43,6.31,9.03,10.57,18.86,12.81,29.53.25,1.24,1.04,1.89,2.33,1.93.3,0,.53-.44.64-1.29M164.5,131.48c-2.54-3.77-11.04-2.5-18.97,2.85-7.94,5.34-12.3,12.76-9.75,16.52,2.54,3.77,11.04,2.5,18.97-2.85,7.94-5.34,12.3-12.76,9.75-16.52M210.86,159.48c17.92-.02,37.11,7.21,52.22,17.16,2.14,1.4,4.98.71,5.99-1.47.6-1.27.32-2.69-.85-4.33-12.23-16.86-37.11-25.04-57.35-25.04-20.25.02-45.12,8.25-57.33,25.11-1.17,1.64-1.45,3.09-.85,4.33,1.01,2.19,3.85,2.88,5.99,1.47,15.11-9.97,34.27-17.23,52.19-17.23M151.11,222.52c-2.6,9.7-1.17,15.23.83,26.95,1.17,6.89,2.9,12.37,5.18,16.45,11.52,20.5,29.62,35.63,53.07,35.33,11.49-.14,21.93-3.06,31.3-8.78.71-.44,1.4-.92,2.07-1.47,3.04-2.53,8.91-9.31,17.62-20.29,3.64-4.61,5.07-9.4,4.26-14.35,6.38-13.41,7.74-26.79,4.03-40.12-10.92-39.32-54.57-57.7-89.9-36.35-16.03,9.7-25.52,23.91-28.47,42.63M109.74,285.37c-.09,6.69,8.93,12.21,20.14,12.37,11.22.16,20.39-5.14,20.48-11.81.09-6.69-8.93-12.21-20.14-12.37-11.22-.16-20.39,5.14-20.48,11.81M311.7,284.65c-.28-6.51-9.59-11.39-20.76-10.9-11.19.5-20.01,6.16-19.74,12.67.28,6.51,9.59,11.39,20.76,10.9,11.19-.5,20.01-6.16,19.74-12.67M210.88,355.37c24.32-.05,49.08-12.83,55.99-37.27,2.93-10.41-.21-21.88-13.04-16.7-14,5.67-28.77,9.31-43,9.31-14.26.02-29.04-3.57-43.05-9.21-12.83-5.14-15.94,6.33-12.99,16.75,6.98,24.42,31.76,37.15,56.09,37.13M210.17,372.86c8.71.25,21.72-2.1,25.18-11.01.32-.81-.46-1.59-1.27-1.29-8.64,3.32-16.54,4.86-23.7,4.68-7.16-.21-14.97-2.21-23.4-5.99-.78-.35-1.61.39-1.36,1.22,2.97,9.1,15.82,12.16,24.55,12.39h0Z"/>
    <path class="cls-28" d="M118.22,131.56c-7.81,9.01-12.62,15.16-14.49,18.47-9.33,16.81-15.59,34.57-18.8,53.28-.12.67-.97.88-1.38.35l-7.55-9.63c4.03-1.31,6.66-3.62,7.85-6.89,6.91-18.91,13.22-38.17,27.43-53.14,5.64-5.97,11.22-11.98,16.72-18.06.28-.3.76-.35,1.06-.07l.02.02c.35.32.39.85.07,1.17l-13.96,15.16s-.05.14-.07.28v.12s0,.02.02.02l.02-.02c.51-1.36,1.52-1.7,3.04-1.06h0Z"/>
    <path class="cls-27" d="M164.5,131.48c2.55,3.77-1.81,11.18-9.75,16.52-7.93,5.35-16.43,6.62-18.97,2.85-2.55-3.77,1.81-11.18,9.75-16.52,7.93-5.35,16.43-6.62,18.97-2.85h0Z"/>
    <path class="cls-31" d="M210.86,145.79c20.25,0,45.12,8.18,57.35,25.04,1.17,1.64,1.45,3.06.85,4.33-1.01,2.19-3.85,2.88-5.99,1.47-15.11-9.95-34.3-17.18-52.22-17.16-17.92,0-37.08,7.26-52.19,17.23-2.14,1.4-4.98.71-5.99-1.47-.6-1.24-.32-2.69.85-4.33,12.21-16.86,37.08-25.08,57.33-25.11h0Z"/>
    <path class="cls-26" d="M265.45,256.35c-15.06,28.63-49.08,44.59-79.37,29.51-25.45-12.67-37.11-33.79-34.96-63.34,2.95-18.73,12.44-32.94,28.47-42.63,35.33-21.35,78.98-2.97,89.9,36.35,3.71,13.34,2.35,26.72-4.03,40.12M161.54,207.43c-6.4,13.29-7.16,28.58-2.12,42.45,4.49,12.39,13.34,22.73,24.85,29.16,22.13,12.3,49.82,7.83,66.96-10.83,10.69-11.65,15.82-27.39,14.07-43.12-2.58-23.03-19.35-41.94-41.92-47.24-11.08-2.6-22.69-1.68-33.21,2.63-12.55,5.14-22.73,14.74-28.63,26.95h0Z"/>
    <path class="cls-23" d="M265.31,225.1c-3.18,8.13-4.95,17.92-8.38,24.53-6.79,13.08-17.99,21.12-33.54,24.14-18.96,3.66-35.77-.78-50.44-13.34-9.1-7.79-11.89-17.39-14.21-28.93-.67-3.32-.51-7.32.44-12.02.81-3.94,1.59-7.95,2.37-12.05,5.9-12.21,16.08-21.81,28.63-26.95,10.53-4.31,22.13-5.23,33.21-2.63,22.57,5.3,39.34,24.21,41.92,47.24M187.96,212.26c-9.86,12.29-7.69,30.39,4.84,40.41,12.51,10.04,30.66,8.2,40.5-4.09,9.86-12.29,7.69-30.39-4.84-40.41-12.51-10.04-30.66-8.2-40.5,4.09h0Z"/>
    <path class="cls-25" d="M84.96,218.05l-1.66,11.15c-.21,1.38-2.07,1.7-2.72.46-4.88-9.47-9.6-17.97-17.85-23.68-.81-.55-1.89,0-1.91.97-.07,2.46.46,4.93,1.64,7.44,2.97,6.31,5.78,12.51,8.38,18.61.64,1.5,1.08,3.09,1.24,4.72.41,4.03.46,8.8.14,14.3-.39,6.89,3.41,12,11.4,15.29.48.18.76.67.69,1.17-.35,2.37.3,3.94,1.93,4.72l.55,6.61c.07.74-.64,1.29-1.34,1.04-28.4-10.23-34.57-55.26-35.1-81.93-.07-4.4.44-8.15,1.52-11.29.71-2.03,3.18-2.81,4.93-1.59,13.06,9.1,22.46,19.76,28.15,31.99h0Z"/>
    <path class="cls-25" d="M334.98,276.81c2.23-2.05,1.13-4.72,2.44-6.59,1.52-2.21,4.72-4.08,5.76-5.71,6.26-9.97,6.29-16.45,6.5-29,.02-1.89,1.7-5.78,5-11.65,3.64-6.5,6.06-11.65,6.91-17.9.16-1.2-1.24-1.96-2.14-1.15-3.57,3.2-6.59,6.33-9.1,9.4-.07.09-1.82,2.83-5.25,8.22-2.19,3.45-4.84,5.92-7.95,7.37l-.41-11.89c-.02-1.06.28-2.1.85-2.97,7.58-11.22,16.68-20.75,27.32-28.61,1.54-1.13,3.71-.85,4.88.67,1.01,1.31,1.57,3.16,1.64,5.55.76,25.7-3.69,58.07-19.42,77.37-3.8,4.68-9.01,8.22-15.64,10.69-.81.3-1.64-.35-1.57-1.2l.18-2.6h0Z"/>
    <path class="cls-24" d="M187.96,212.26c9.84-12.29,27.99-14.13,40.5-4.09,12.53,10.02,14.69,28.13,4.84,40.41-9.84,12.29-27.99,14.13-40.5,4.09-12.53-10.02-14.69-28.13-4.84-40.41M208.07,219.32c0-4.79-3.89-8.68-8.68-8.68s-8.68,3.89-8.68,8.68,3.89,8.68,8.68,8.68,8.68-3.89,8.68-8.68h0Z"/>
    <path class="cls-33" d="M334.98,276.81l2.17-47.01c3.11-1.45,5.76-3.92,7.95-7.37,3.43-5.39,5.18-8.13,5.25-8.22,2.51-3.06,5.53-6.2,9.1-9.4.9-.81,2.3-.05,2.14,1.15-.85,6.24-3.27,11.4-6.91,17.9-3.29,5.87-4.98,9.77-5,11.65-.21,12.55-.23,19.03-6.5,29-1.04,1.64-4.24,3.5-5.76,5.71-1.31,1.87-.21,4.54-2.44,6.59h0Z"/>
    <path class="cls-33" d="M84.96,218.05c-1.15,19.46-.71,37.84,1.29,55.16-1.64-.78-2.28-2.35-1.93-4.72.07-.51-.21-.99-.69-1.17-7.99-3.29-11.79-8.41-11.4-15.29.32-5.5.28-10.27-.14-14.3-.16-1.64-.6-3.22-1.24-4.72-2.6-6.1-5.41-12.3-8.38-18.61-1.17-2.51-1.7-4.98-1.64-7.44.02-.97,1.11-1.52,1.91-.97,8.25,5.71,12.97,14.21,17.85,23.68.64,1.24,2.51.92,2.72-.46l1.66-11.15h0Z"/>
    <path class="cls-21" d="M265.31,225.1c1.75,15.73-3.39,31.46-14.07,43.12-17.14,18.66-44.82,23.13-66.96,10.83-11.52-6.43-20.36-16.77-24.85-29.16-5.04-13.87-4.28-29.16,2.12-42.45-.78,4.1-1.57,8.11-2.37,12.05-.94,4.7-1.11,8.71-.44,12.02,2.33,11.54,5.11,21.14,14.21,28.93,14.67,12.55,31.49,17,50.44,13.34,15.55-3.02,26.74-11.06,33.54-24.14,3.43-6.61,5.21-16.4,8.38-24.53h0Z"/>
    <path class="cls-23" d="M208.07,219.32c0,4.79-3.89,8.68-8.68,8.68s-8.68-3.89-8.68-8.68,3.89-8.68,8.68-8.68,8.68,3.89,8.68,8.68h0Z"/>
    <path class="cls-33" d="M151.11,222.52c-2.14,29.55,9.51,50.67,34.96,63.34,30.29,15.09,64.31-.88,79.37-29.51.81,4.95-.62,9.74-4.26,14.35-8.71,10.99-14.58,17.76-17.62,20.29-.67.55-1.36,1.04-2.07,1.47-9.37,5.71-19.81,8.64-31.3,8.78-23.45.3-41.55-14.83-53.07-35.33-2.28-4.08-4.01-9.56-5.18-16.45-2-11.72-3.43-17.25-.83-26.95h0Z"/>
    <path class="cls-28" d="M372.27,242.65c-.78,13.15-4.84,24.9-12.14,35.24-2,2.83-5.76,6.77-11.29,11.82-4.12,3.75-7.99,7.62-11.63,11.61l-7.09,9.4c-.44.58-1.34.12-1.15-.58l5.48-19.67c.28-.99,1.01-1.77,1.98-2.1,20.48-6.86,30.54-26.05,35.84-45.72h0Z"/>
    <path class="cls-33" d="M109.74,285.37c.09-6.67,9.26-11.97,20.48-11.81,11.21.16,20.24,5.69,20.14,12.37-.09,6.67-9.26,11.97-20.48,11.81-11.21-.16-20.24-5.69-20.14-12.37h0Z"/>
    <path class="cls-33" d="M311.7,284.65c.27,6.5-8.55,12.17-19.74,12.67-11.18.49-20.48-4.39-20.76-10.9-.27-6.5,8.55-12.17,19.74-12.67,11.18-.5,20.48,4.39,20.76,10.9h0Z"/>
    <path class="cls-26" d="M210.83,310.71c14.23,0,29-3.64,43-9.31,12.83-5.18,15.96,6.29,13.04,16.7-6.91,24.44-31.67,37.22-55.99,37.27-24.32.02-49.11-12.71-56.09-37.13-2.95-10.41.16-21.88,12.99-16.75,14,5.64,28.79,9.24,43.05,9.21M179.58,341.16c20.29,11.08,42.54,11.06,62.86-.05,10.43-4.68,17-13.61,19.67-26.81.18-.92.18-1.84,0-2.76l-.64-3.25c-.58-2.95-4.79-2.93-5.37.02-.94,5-4.38,15.46-9.4,18.17-2.35,1.29-5.34.76-7.35-1.29-2.97-3.06-4.93-6.38-5.87-9.95-.28-1.04-1.29-1.66-2.35-1.47-13.47,2.49-26.93,2.6-40.31.37-.83-.14-1.64.28-1.98,1.04-2.05,4.33-9.37,16.95-14.97,10.99-4.68-4.98-7.39-10.89-8.13-17.78-.39-3.75-5.62-4.31-6.82-.74-.94,2.79-.46,7.9.46,10.48,3.75,10.8,10.5,18.47,20.2,23.03M168.73,310.11c1.04,5.69,3.39,10.16,7.07,13.43.81.71,2.05.62,2.74-.21l6.91-8.25c.46-.53.21-1.36-.46-1.57l-14.9-4.63c-.76-.23-1.5.44-1.36,1.22M251.14,308.92l-13.91,4.81c-.69.23-1.01,1.01-.74,1.68,1.57,3.66,3.73,6.24,6.52,7.72,1.24.67,2.79.37,3.69-.71,3.25-3.85,5.21-7.95,5.9-12.28.12-.83-.67-1.5-1.45-1.22h0Z"/>
    <path class="cls-33" d="M151.04,368.73l-4.81-.07c-5.14-4.08-10.3-8.27-15.48-12.55-16.47-13.66-27.43-30.77-32.91-51.39,7.79,7.81,13.94,17.07,18.47,27.82.99,2.33,3.32,5.71,7,10.2,7.79,9.49,18.54,17.69,27.73,25.98h0Z"/>
    <path class="cls-30" d="M242.44,341.12c-21.33-13.01-42.29-13.01-62.86.05-9.7-4.56-16.45-12.23-20.2-23.03-.92-2.58-1.41-7.69-.46-10.48,1.2-3.57,6.43-3.02,6.82.74.74,6.89,3.45,12.81,8.13,17.78,5.6,5.97,12.92-6.66,14.97-10.99.35-.76,1.15-1.17,1.98-1.04,13.38,2.23,26.83,2.12,40.31-.37,1.06-.18,2.07.44,2.35,1.47.94,3.57,2.9,6.89,5.87,9.95,2,2.05,5,2.58,7.35,1.29,5.02-2.72,8.45-13.17,9.4-18.17.58-2.95,4.79-2.97,5.37-.02l.64,3.25c.18.92.18,1.84,0,2.76-2.67,13.2-9.24,22.13-19.67,26.81h0Z"/>
    <path class="cls-23" d="M170.09,308.89l14.9,4.63c.67.21.92,1.04.46,1.57l-6.91,8.25c-.69.83-1.93.92-2.74.21-3.69-3.27-6.03-7.74-7.07-13.43-.14-.78.6-1.45,1.36-1.22h0Z"/>
    <path class="cls-23" d="M252.59,310.14c-.69,4.33-2.65,8.43-5.9,12.28-.9,1.08-2.44,1.38-3.69.71-2.79-1.47-4.95-4.05-6.52-7.72-.28-.67.05-1.45.74-1.68l13.91-4.81c.78-.28,1.57.39,1.45,1.22h0Z"/>
    <path class="cls-28" d="M322.52,332.39l-7.49,7.67c5.57-8.66,10-18.04,13.29-28.1.09-.32.41-.51.74-.46.32.07.55.35.55.67-.18,7.35-2.56,14.1-7.09,20.22h0Z"/>
    <path class="cls-22" d="M242.44,341.12c-20.32,11.1-42.57,11.12-62.86.05,20.57-13.06,41.53-13.06,62.86-.05h0Z"/>
    <path class="cls-33" d="M210.37,365.23c7.16.18,15.06-1.36,23.7-4.68.81-.3,1.59.48,1.27,1.29-3.45,8.91-16.47,11.26-25.18,11.01-8.73-.23-21.58-3.29-24.55-12.39-.25-.83.58-1.57,1.36-1.22,8.43,3.78,16.24,5.78,23.4,5.99h0Z"/>
    <path class="cls-31" d="M151.04,368.73c5.97,4.49,12.55,8.02,19.76,10.62,35.08,12.67,69.01,9.12,101.74-10.66.18,1.91.9,3.16,2.14,3.75-7.69,5.48-14.63,9.42-20.78,11.84-33.77,13.27-77.02,10.64-107.15-11.68,1.22-.12,1.06-1.43-.53-3.94l4.81.07h0Z"/>
    <path class="cls-33" d="M285.02,378.64c-10.53,12.65-24.65,21.08-42.36,25.31-25.15,6.01-49.36,5.11-72.65-2.69-14.21-4.77-25.43-12.25-33.7-22.5l10.43-6.15c30.13,22.32,73.38,24.94,107.15,11.68,6.15-2.42,13.08-6.36,20.78-11.84l10.34,6.2h0Z"/>
    <path class="cls-25" d="M136.32,378.75c8.27,10.25,19.49,17.74,33.7,22.5,23.29,7.81,47.49,8.71,72.65,2.69,17.71-4.24,31.83-12.67,42.36-25.31,18.54,8.73,32.8,22.69,42.73,41.92l-233.99.23c9.44-18.93,23.63-32.94,42.57-42.04h0Z"/>
  </g>
</svg>