<?xml version="1.0" encoding="UTF-8"?>
<svg id="Camada_1" data-name="Camada 1" xmlns="http://www.w3.org/2000/svg" xmlns:xlink="http://www.w3.org/1999/xlink" viewBox="0 0 422.07 422.07">
  <defs>
    <style>
      .cls-1 {
        fill: #331d81;
      }

      .cls-2 {
        stroke: #bd547c;
      }

      .cls-2, .cls-3, .cls-4, .cls-5, .cls-6, .cls-7, .cls-8, .cls-9, .cls-10, .cls-11, .cls-12, .cls-13, .cls-14, .cls-15, .cls-16, .cls-17, .cls-18, .cls-19, .cls-20, .cls-21, .cls-22, .cls-23, .cls-24, .cls-25, .cls-26, .cls-27, .cls-28, .cls-29, .cls-30, .cls-31, .cls-32, .cls-33, .cls-34, .cls-35, .cls-36, .cls-37, .cls-38, .cls-39, .cls-40, .cls-41 {
        fill: none;
        stroke-miterlimit: 10;
      }

      .cls-3 {
        stroke: #f4ada6;
      }

      .cls-42 {
        fill: #361005;
      }

      .cls-4 {
        stroke: #7d694e;
      }

      .cls-43 {
        fill: #7b211d;
      }

      .cls-44 {
        fill: #f17074;
      }

      .cls-5 {
        stroke: #94403d;
      }

      .cls-6 {
        stroke: #c099be;
      }

      .cls-7 {
        stroke: #572147;
      }

      .cls-8 {
        stroke: #bd908e;
      }

      .cls-9 {
        stroke: #2b1342;
      }

      .cls-45 {
        fill: #fff;
      }

      .cls-10 {
        stroke: #efc07b;
      }

      .cls-11 {
        stroke: #a05d47;
      }

      .cls-12 {
        stroke: #be839d;
      }

      .cls-46 {
        fill: #fc8ab6;
      }

      .cls-13 {
        stroke: #8a5c31;
      }

      .cls-47 {
        fill: #794e38;
      }

      .cls-14 {
        stroke: #b35d6c;
      }

      .cls-15 {
        stroke: #e6a658;
      }

      .cls-48 {
        fill: #0e0106;
      }

      .cls-49 {
        fill: #f3e7f9;
      }

      .cls-16 {
        stroke: #a54246;
      }

      .cls-17 {
        stroke: #b4475f;
      }

      .cls-50 {
        fill: #fdbed1;
      }

      .cls-18 {
        stroke: #e39b4e;
      }

      .cls-19 {
        stroke: #4f1510;
      }

      .cls-20 {
        stroke: #714421;
      }

      .cls-21 {
        stroke: #b7683f;
      }

      .cls-51 {
        fill: #ed6ca0;
      }

      .cls-22 {
        stroke: #bc7077;
      }

      .cls-52 {
        fill: #332070;
      }

      .cls-23 {
        stroke: #fda4c4;
      }

      .cls-53 {
        fill: #ecd095;
      }

      .cls-54 {
        fill: #220802;
      }

      .cls-55 {
        fill: #5f2710;
      }

      .cls-56 {
        fill: #02020d;
      }

      .cls-24 {
        stroke: #b54571;
      }

      .cls-57 {
        fill: #591317;
      }

      .cls-25 {
        stroke: #f8b9d8;
      }

      .cls-58 {
        fill: #7f7c83;
      }

      .cls-59 {
        fill: #d4873c;
      }

      .cls-26 {
        stroke: #b28bb3;
      }

      .cls-27 {
        stroke: #805833;
      }

      .cls-28 {
        stroke: #73503a;
      }

      .cls-60 {
        fill: #f8c574;
      }

      .cls-61 {
        fill: url(#Gradiente_sem_nome_10);
      }

      .cls-29 {
        stroke: #994d5e;
      }

      .cls-30 {
        stroke: #2b1439;
      }

      .cls-31 {
        stroke: #f3998a;
      }

      .cls-32 {
        stroke: #af9388;
      }

      .cls-62 {
        fill: #84a7c6;
      }

      .cls-33 {
        stroke: #a8542d;
      }

      .cls-34 {
        stroke: #48120e;
      }

      .cls-63 {
        fill: #678baf;
      }

      .cls-35 {
        stroke: #faa895;
      }

      .cls-36 {
        stroke: #bc566a;
      }

      .cls-64 {
        fill: #f2af60;
      }

      .cls-65 {
        fill: #7d1d41;
      }

      .cls-37 {
        stroke: #331f79;
      }

      .cls-38 {
        stroke: #bb6c77;
      }

      .cls-66 {
        fill: #c49871;
      }

      .cls-39 {
        stroke: #ba7349;
      }

      .cls-40 {
        stroke: #f57bab;
      }

      .cls-41 {
        stroke: #ed9e9b;
      }
    </style>
    <linearGradient id="Gradiente_sem_nome_10" data-name="Gradiente sem nome 10" x1="15.59" y1="49.92" x2="371.99" y2="343.72" gradientUnits="userSpaceOnUse">
      <stop offset="0" stop-color="#331d81"/>
      <stop offset="1" stop-color="#16085e"/>
    </linearGradient>
  </defs>
  <rect class="cls-61" x="-.57" width="423.22" height="422.07"/>
  <g>
    <g>
      <path class="cls-46" d="M148.86,395.19l-9.61-12.41s3.58-10.97,6.71-12.53,18.9-11.32,18.9-11.32c0,0,41.48,3.79,42.37,5.65s13.33,20.32,16.55,20.32,15.52-15.27,19.28-17.2,11.17-8.77,11.17-8.77c0,0,7.35-.89,8.02-1.83s14.09,10.02,14.98,11.14,4.92,4.86,5.59,7.91c.67,3.05-7.16,21.16-8.5,22.28s-46.29,11.85-56.57,13.42-70.86-16.65-70.86-16.65"/>
      <path class="cls-51" d="M263.86,362.44c-3.26,12.4-11.64,22.03-25.34,27.37-21.14,8.23-42.72,6.95-61.19-3.44-10.19-5.73-16.34-13.94-18.73-23.83l9.18-5.31c16.62,21.62,51.14,24.65,75.26,10.47,3.92-2.31,7.86-5.9,11.69-10.6l9.13,5.34h0Z"/>
      <path class="cls-51" d="M177.7,381.71s-13.25-15.26-13.89-15.93-3.83-10.64,0-11.47,10.44-6.42,10.44-6.42l4.4-5.52s51.66.01,55.32.79,14.44-.03,15.2,0,11.12,4.06,11.12,4.06c0,0,3.93,4.57,4.05,7.09s-.77,6.68-2.56,7.73-5.19,5.75-12.54,10c-7.36,4.25-21.27,13.2-22.25,12.86s-12.2,1.9-15.76,1.9-32.64-5.09-32.64-5.09"/>
      <path class="cls-64" d="M145.9,374.6c7.28,10.99,17.16,19.02,29.67,24.13,20.5,8.37,41.82,9.34,63.96,2.89,15.59-4.54,28.03-13.58,37.29-27.14,16.32,9.36,28.88,24.33,37.62,44.95l-206.01.25c8.31-20.3,20.81-35.32,37.48-45.07h0Z"/>
      <path class="cls-56" d="M178.59,345.59c1.4,2.69-22.43,22.3-23.5,22.42l-9.19,6.59c-16.67,9.76-29.16,24.77-37.48,45.07-.2,1.88-1.7,1.83-4.5-.12-.53-.37-.77-1.16-.59-1.88,5.76-21.66,25.55-40.87,41.63-50.6,1.05-.64,27.38-23.86,26.42-24.7M263.25,343.64c.43,8.56,5.48,12.56,7.4,14.83,2.34,2.77,7.45,6.41,7.45,6.41h0c17.7,10.35,32.35,29.62,41.72,51.9.59,1.38.02,3.09-1.18,3.58-2.01.81-3.41.49-4.2-.94-8.74-20.62-21.29-35.59-37.62-44.95-2.22-.95-7.69-3.62-11.84-9.74-4.14-6.09-8.52-13.24-8.59-15.65"/>
    </g>
    <path class="cls-27" d="M81.27,154.7c-3.02,6.81-5.49,13.87-7.4,21.08-6.87,25.94-6.33,53.29,1.59,78.93"/>
    <path class="cls-20" d="M75.47,254.71c4.63,15.02,11.71,29.19,20.93,41.91,21.75,29.96,54.25,50.33,90.69,56.85,37.38,6.68,75.87-1.74,107.03-23.43,23.89-16.62,42.16-40.13,52.34-67.37"/>
    <path class="cls-27" d="M346.47,262.68c12.84-34.32,12.03-72.27-2.24-106.01"/>
    <path class="cls-4" d="M344.22,156.67c-13.89-32.81-39.5-59.26-71.85-74.2-33.09-15.3-70.74-17.39-105.31-5.87-38.35,12.76-69.48,41.13-85.79,78.1"/>
    <path class="cls-10" d="M344.22,156.67c-1.26,1.97-2.83,1.15-4.69-2.43-2.79-5.39-4.9-9.49-6.35-12.34-.23-.44-.5-.86-.84-1.24-2.91-3.42-5.26-7.15-7.02-11.17-.25-.61-.67-1.15-1.17-1.57-1.4-1.15-2.49-2.83-3.23-5.03-.19-.52-.46-1.01-.84-1.4l-6.14-6.81c-.19-.21-.4-.4-.63-.57-7-5.11-14.29-12.45-20.83-16.13-16.6-9.32-31.1-15.9-43.52-19.74-33.99-10.48-64.48-4.99-97.69,8.82-5.66,2.35-11.11,6.62-16.36,9.37-14.4,7.52-29.69,22.67-36.67,34.05-6.89,11.25-12.55,19.32-16.97,24.22"/>
    <path class="cls-18" d="M346.47,262.68c-4.59-3.08-6.6-7-6.01-11.71"/>
    <path class="cls-21" d="M340.45,250.96c6.64-13.01,3.62-24.52-.71-37.97-.38-1.11-.59-2.28-.65-3.46-.44-8.99,2.66-17.69,3.33-23.53,2.03-17.73-8.36-27.72-20.74-38.62-11.17-9.83-10.12-23.87-18.1-35.33-6.14-8.82-14.79-13.79-25.94-14.9-7.12-.69-20.45.1-30.63-5.53-5.91-3.25-12.34-8.65-18.71-11.11-13.01-4.99-25.88-3.77-38.62,3.67-10.37,6.08-16.03,10.41-25.35,11.86-7.27,1.13-17.79,0-25.82,2.93-9.14,3.31-15.88,9.49-20.22,18.52-3.33,6.96-5.85,19.07-11.57,26.09-2.24,2.79-6.58,6.87-12.99,12.26-8.88,7.48-12.57,17.45-11.06,29.94,1.26,10.48,5.97,20.87,1.28,33.02-5.93,15.34-5.11,27.24,6.29,39.08,5.03,5.22,8.05,8.21,10.33,14.19.06.15.1.27.13.42l2.83,16.97"/>
    <path class="cls-18" d="M103.5,289.48c-5.47-6.27-10.58-13.49-15.36-21.69-2.95-5.09-7.19-9.45-12.68-13.08"/>
    <path class="cls-15" d="M123.16,309.13l29.4,22.34c.42.31,1.01.02,1.01-.5,0-.02.1-.23.31-.59"/>
    <path class="cls-33" d="M340.45,250.96c-3.29,4.78-7.21,8.99-11.73,12.66-.38.29-.71.63-.98,1.03-4.92,6.54-4.84,14.98-6.43,21.35-2.45,9.91-8.99,18.23-18.67,21.65-8.3,2.93-17.85,5.97-22.17,11.44-6.39,8.09-11.57,13.56-15.53,16.41-13.49,9.74-28.14,6.16-42.89,1.26-14.1-4.67-22.65,3.25-35.58,4.95-12.53,1.61-23.38-2.16-32.58-11.32"/>
    <path class="cls-39" d="M153.88,330.38c-5.78-6.79-10.44-14-18.9-17.87-3.23-1.49-7.17-2.6-11.82-3.37"/>
    <path class="cls-33" d="M123.16,309.13c-9.37-4.97-15.9-11.5-19.65-19.65"/>
    <path class="cls-36" d="M89,192.52c1.51,7.17,1.86,14.58,1.05,22.27"/>
    <path class="cls-17" d="M90.05,214.8c-2.66,6.35-4.17,10.52-4.55,12.49-3.16,16.09,6.18,24.6,15.34,35.58,5.85,7,4.67,14.67,6.24,21.02,3.44,13.85,13.68,18.8,26.3,23.07,10.04,3.39,14.21,7.38,21.71,17.45,11.52,15.4,28.31,15.09,45.81,8.74,10.56-3.83,20.05-1.86,31.98,1.8,13.22,4.07,25.63,1.42,34.97-8.65,4.07-4.38,7.42-9.43,12.51-13.24,6.43-4.84,12.76-7.02,21.04-10.02,13.28-4.84,15.78-15.15,17.71-28.37,1.38-9.51,6.01-13.89,12.45-19.84,9.81-9.07,11.21-22.57,5.2-34.49"/>
    <path class="cls-36" d="M336.74,220.33c-1.49-4.04-2.43-8.19-2.79-12.4-.61-6.79,2.03-13.6,3.27-20.35,1.57-8.67-.06-16.37-4.9-23.07-3.65-5.05-8.34-9.37-14.06-12.97"/>
    <path class="cls-22" d="M318.26,151.54c-4.67-5.32-7.73-9.83-9.18-13.54-6.2-15.76-9.05-30.99-28.02-35.48-2.16-.52-7.5-.98-15.99-1.38-8.36-.4-16.11-2.85-23.3-7.4-9.05-5.72-14.58-8.91-16.57-9.58-16.91-5.59-30.53,1.95-44.74,10.71-8.74,5.38-17.41,6.14-27.2,6.56-11.32.46-20.83,4.09-27.51,13.1-4.88,6.6-6.96,18.86-11.19,25.5-4.86,7.65-9.47,12.3-15.88,17.69-11.27,9.45-14.86,20.01-9.68,34.8"/>
    <path class="cls-23" d="M318.26,151.54c-6.54-3-12.15-7.59-16.83-13.79-3.75-5.01-6.6-11.17-8.55-18.48-.19-.69-.67-1.26-1.32-1.57-6.85-3.16-12.17-4.99-15.92-5.43-9.24-1.09-16.01-2.07-20.3-2.95-3.77-.78-7.31-2.43-10.33-4.82-8.67-6.85-15.17-11.99-28.04-11.73-11.96.23-18.02.34-18.17.34-2.72.02-5.24,1.36-6.77,3.6-14.67,21.83-45.22,4.69-60.28,28.04-3.16,4.88-5.05,14.63-9.45,20.68-6.6,9.11-16.26,15.63-23.93,22.92-1.26,1.17-2.18,2.64-2.72,4.25l-6.64,19.93"/>
    <path class="cls-40" d="M336.74,220.33c-.52,4.99-1.17,9.85-1.97,14.56-.8,4.69-1.82,7.75-3.08,9.16-6.94,7.71-12.3,15.78-16.09,24.22-6.87,15.28-16.41,23.28-31.77,28.46-7.73,2.62-14,7.46-18.75,14.52-.44.65-1.32.84-1.97.42-.94-.61-1.32-1.82-1.13-3.65.08-.75-.21-1.51-.82-1.99-.98-.8-1.59-.5-1.82.9"/>
    <line class="cls-3" x1="259.34" y1="306.93" x2="255.36" y2="308.1"/>
    <path class="cls-40" d="M255.36,308.1c-2.1.31-3.1,1.47-3.02,3.5.08,2.14-.19,4.3-.82,6.45-.19.65-.73,1.15-1.4,1.3-6.01,1.34-10.23,1.89-12.61,1.63-13.26-1.38-25.79-1.51-37.57-.36-12.68,1.24-28.25,1.36-37.4-8.36-5.59-5.93-11.5-12.01-17.77-18.23-.54-.54-.38-1.49.36-1.78,3.71-1.51,4.48-3.9,2.3-7.19-7.4-3.08-13.98-1.84-19.74,3.71-.44.4-1.11.4-1.53-.02-5.11-5.13-8.36-8.99-9.76-11.57-6.37-11.8-12.49-21.67-18.38-29.63-2.14-2.91-4.71-8.49-5.05-11.32-.84-7.15-1.8-14.31-2.91-21.46"/>
    <path class="cls-31" d="M147.42,285.08c-6.6-.27-12.26,1.45-16.97,5.13-1.13.88-.5,2.68.92,2.66,7.31-.1,12.66-2.7,16.05-7.8"/>
    <path class="cls-41" d="M255.36,308.1l.27,12.45c.04,1.86,2.51,2.51,3.46.9,2.89-4.92,2.98-9.76.25-14.52"/>
    <path class="cls-26" d="M201.01,98.09c.9-1.23.65-2.94-.58-3.84l-.24-.17c-1.22-.9-2.94-.65-3.84.58l-7.21,9.78c-.9,1.23-.65,2.94.58,3.84l.24.17c1.22.9,2.94.65,3.84-.58l7.21-9.78"/>
    <path class="cls-3" d="M235.45,99.88l-14.16,11.36c-.19.15-.21.4-.06.59l1.09,1.38c1.11,1.36,5.22-.1,9.18-3.27l.46-.38c3.96-3.16,6.29-6.85,5.2-8.23l-1.11-1.38c-.15-.17-.4-.21-.59-.06"/>
    <path class="cls-35" d="M163.75,114.94c-1.97-.24-4.09,3.8-4.75,9.03-.66,5.23.39,9.69,2.36,9.93,1.97.24,4.09-3.8,4.75-9.03.66-5.23-.39-9.69-2.36-9.93"/>
    <path class="cls-38" d="M286.2,123.46c-.4-1.83-5.11-2.37-10.51-1.18-5.4,1.18-9.46,3.61-9.06,5.45.4,1.83,5.11,2.37,10.51,1.18,5.4-1.18,9.46-3.61,9.06-5.45"/>
    <path class="cls-40" d="M199.16,144.01c-9.7,1.61-18.44,4.86-26.23,9.72"/>
    <path class="cls-2" d="M172.93,153.74c-11.59-4.19-23.53-2.74-35.85,4.34-2.37,1.34-3.21,4.36-1.91,6.75l.1.17c1.3,2.41,4.3,3.33,6.73,2.1,8.13-4.17,17.54-5.72,28.2-4.69"/>
    <path class="cls-40" d="M170.2,162.39c.67,1.53.21,3.42-1.38,5.7-3.37,4.84-6.35,7.4-8.88,7.65"/>
    <path class="cls-36" d="M159.93,175.74c-17.48-2.6-31.12,8.19-33.67,25.1-3.04,19.93,12.26,33.95,31.91,33.74.67,0,1.22.52,1.24,1.19.5,15.8,10.18,21.94,24.12,26.65,1.07.36,2.1.8,3.08,1.32,15.21,8.21,25.19,13.52,41.89,5.34,7.08-3.48,13.28-6.52,18.61-9.09,11.13-5.41,16.28-11.65,18.96-22.8.38-1.55,1.72-2.66,3.31-2.77,11.67-.67,22.71-6.47,27.28-17.45,2.45-5.89,3.21-11.34,2.22-16.34-3.56-18.13-15.25-26.4-35.08-24.83"/>
    <path class="cls-40" d="M263.8,175.8c-4.63-2.56-7.21-6.83-7.73-12.8"/>
    <path class="cls-2" d="M256.07,163c9.66-1.78,18.1-.5,25.33,3.86,1.93,1.15,4.88,2.07,7.17,1.15,2.2-.9,3.31-3.25,2.51-5.26-.82-2.07-2.28-3.73-4.44-4.99-10.5-6.1-21.52-7.61-33.02-4.53"/>
    <path class="cls-40" d="M253.62,153.23c-16.89-10.79-31.07-11.59-49.1-13.64"/>
    <path class="cls-38" d="M204.52,139.59c-2.98-4.25-6.01-8.28-9.09-12.07-1.15-1.38-2.41-1.91-3.81-1.57-1.97.48-2.91,2.77-1.82,4.48,2.64,4.23,5.76,8.76,9.37,13.58"/>
    <path class="cls-14" d="M204.52,139.59c-.1,2.85-1.89,4.32-5.36,4.42"/>
    <path class="cls-24" d="M253.62,153.23c-2.05,2.51-2.3,4.82-.73,6.89,1.49,1.97,2.54,2.93,3.18,2.87"/>
    <path class="cls-17" d="M263.8,175.8c-1.26,1.03-2.89,1.4-4.88,1.09-.69-.1-1.3-.5-1.68-1.09-4.32-6.71-10.06-11.29-17.2-13.77-4.32-1.51-8.93-2.64-14.44-5.51-6.98-3.65-12.61-5.15-19.76-2.6-17.08,6.14-29.13,8.21-37.32,22.4-.34.57-.98.88-1.63.75l-6.96-1.34"/>
    <path class="cls-24" d="M170.2,162.39c2.43-2.16,3.33-5.03,2.72-8.65"/>
    <path class="cls-26" d="M239.43,130.58l-9.16,5.72c-1.51.94-1.47,3.16.1,4.02,1.32.71,2.39.92,3.16.61,1.97-.82,5.99-3.23,12.07-7.29,1.13-.75.94-2.49-.34-3l-1.24-.5c-1.51-.59-3.23-.44-4.61.44"/>
    <path class="cls-25" d="M132.29,150.3c-.91-1.55-5.5-.57-10.26,2.23-4.76,2.78-7.86,6.32-6.95,7.87.91,1.55,5.5.57,10.26-2.23,4.76-2.78,7.86-6.32,6.95-7.87M296.33,153.02c-.97,1.47,1.95,5.09,6.48,8.07,4.56,3,9.02,4.21,9.98,2.75.97-1.47-1.95-5.09-6.48-8.07-4.56-3-9.02-4.21-9.98-2.75"/>
    <path class="cls-26" d="M103.05,175.78c-1.81.69-1.62,5.55.42,10.87,2.05,5.29,5.17,9.02,6.99,8.33,1.81-.69,1.62-5.55-.42-10.87-2.05-5.29-5.17-9.02-6.99-8.33M318.05,179.47l-.94.54c-.52.29-.96.73-1.3,1.26l-6.33,9.95c-.86,1.36-.19,3.18,1.34,3.67l.34.1c1.76.63,3.73-.02,4.76-1.57,3.29-4.92,6.01-8.26,5.03-12.7-.29-1.28-1.74-1.93-2.89-1.26"/>
    <path class="cls-38" d="M322.86,223.96c1.19-1.42,1-3.51-.41-4.69l-.19-.16c-1.41-1.19-3.51-1-4.69.41l-8,9.53c-1.19,1.42-1,3.51.41,4.69l.19.16c1.41,1.19,3.51,1,4.69-.41l8-9.53"/>
    <path class="cls-12" d="M119.75,227.85c.31-1.7-.82-3.31-2.51-3.63l-13.94-2.53c-1.7-.32-3.31.82-3.63,2.51l-.04.25c-.31,1.7.82,3.31,2.51,3.63l13.94,2.53c1.7.32,3.31-.82,3.63-2.51l.04-.25"/>
    <path class="cls-35" d="M119.18,260.94c3.79-3.5,6.29-8.49,7.48-15,.13-.71-.5-1.34-1.22-1.19l-3.73.73c-.59.13-1.07.54-1.26,1.13l-3.92,12.66c-.48,1.57,1.42,2.79,2.64,1.68"/>
    <path class="cls-26" d="M272.52,258.99l6.6,8.61c1.07,1.42,3.29,1.17,4-.48.59-1.38.69-2.47.29-3.23-.98-1.91-3.79-5.7-8.42-11.4-.86-1.05-2.58-.71-2.95.61l-.38,1.3c-.46,1.57-.15,3.27.86,4.59M156.22,258.44l-10.6-4.99c-1.74-.82-3.73.52-3.6,2.45.13,1.63.57,2.72,1.32,3.25,1.89,1.32,6.45,3.56,13.72,6.73,1.36.59,2.83-.59,2.54-2.05l-.27-1.42c-.34-1.74-1.49-3.21-3.1-3.96"/>
    <path class="cls-6" d="M309.67,272.36l1.76-16.81c.06-.48-.29-.92-.78-.96l-.86-.08c-2.28-.25-4.42,2.24-4.78,5.57l-.69,6.5c-.34,3.33,1.24,6.22,3.52,6.47l.86.08c.48.04.92-.29.96-.78"/>
    <path class="cls-29" d="M212.21,316.49c16.87,0,38.51-9.68,44.76-26.34,1.76-4.71.65-9.99-4.02-12.34-1.4-.69-4.76-.19-10.06,1.53-9.79,3.16-20.81,5.2-30.66,5.2-9.87-.02-20.89-2.05-30.66-5.24-5.32-1.72-8.67-2.22-10.08-1.53-4.67,2.35-5.78,7.63-4.02,12.34,6.22,16.66,27.87,26.36,44.74,26.38"/>
    <path class="cls-35" d="M273.81,286.12c-.54,1.35,2.9,3.99,7.69,5.89,4.79,1.91,9.1,2.37,9.63,1.03.54-1.35-2.9-3.99-7.69-5.89-4.79-1.91-9.1-2.37-9.63-1.03"/>
    <path class="cls-19" d="M177.62,183.87c-.92,3.14.27,4.9,3.6,5.28"/>
    <path class="cls-7" d="M181.22,189.15c3.56,13.98,3.16,26.84-6.68,38.18"/>
    <path class="cls-19" d="M174.54,227.33c-3.18.31-4.53,2.45-4.02,6.41"/>
    <path class="cls-21" d="M170.52,233.74c-1.72-1.47-3.56-1.76-5.55-.88-.63.27-1.03.9-1.01,1.57.4,13.47,7.56,20.56,20.74,24.39,11.17,3.23,23.11,14.92,35.91,8.78,7.65-3.67,14.81-6.91,21.48-9.7,11.19-4.69,18-10.08,19.78-21.56.17-1.17-.38-2.33-1.38-2.95-2.37-1.42-4.25-1.89-5.68-1.36"/>
    <path class="cls-19" d="M254.81,232.02c.19-2.22-.42-3.35-1.84-3.37-1.49-.02-2.93-.13-4.32-.34"/>
    <path class="cls-7" d="M248.65,228.31c-7.96-12.72-9.76-25.88-8.11-40.86"/>
    <path class="cls-19" d="M240.54,187.45c1.86.59,3.79.71,5.74.4,1.07-.17,1.51-1.45.78-2.24-.9-.98-1.45-2.26-1.63-3.83"/>
    <path class="cls-11" d="M245.43,181.77c.78.8,1.53,1.34,2.28,1.66.86.34,1.72.19,2.62-.46,1.66-1.19,3.04-2.35,4.19-3.46.52-.52.59-1.34.15-1.91-6.91-8.91-13.64-10.94-25-14.48-.69-.23-1.34-.5-1.97-.86-7.15-4.07-10.23-6.16-19.63-4.99-.71.08-1.4.29-2.03.65l-9.66,5.09c-.13.06-.25.13-.4.15-10.94,3.25-18.86,5.78-24.87,14.4-.42.57-.38,1.34.06,1.91,1.78,2.2,3.94,3.67,6.45,4.4"/>
    <path class="cls-28" d="M245.43,181.77c-16.24-17.39-44.25-18.73-61.98-3.06-1.91,1.68-3.86,3.39-5.83,5.15"/>
    <path class="cls-30" d="M240.54,187.45c-1.32-2.66-3.42-4.84-6.31-6.54-20.51-12.03-38.18-9.28-53.01,8.23M248.65,228.31c.25,2.12-.42,3.92-1.99,5.41"/>
    <path class="cls-37" d="M246.66,233.72c-1.99-4.55-4.02-9.07-6.06-13.58-4.15-9.22-4.32-14.14-5.59-24.7-.82-6.85-3.9-11.44-9.2-13.81-13.39-5.95-26.3-4.32-38.68,4.92-.48.36-.73.92-.67,1.51,1.09,10.77,1.84,21.02-.44,31.81-1.15,5.47-2.01,10.48-2.6,15.04-.23,1.76.54,3.5,1.99,4.51,9.53,6.58,21.56,9.39,32.56,9.07,10.25-.29,17.37-5.95,25.94-11.25"/>
    <path class="cls-30" d="M243.92,237.24c-13.98,19.03-39.79,20.6-57.73,6.41-.59-.46-1.11-1.05-1.51-1.7-1.36-2.14-3.02-4.04-5.01-5.72-.75-.63-1.36-1.4-1.8-2.28l-3.33-6.62"/>
    <path class="cls-13" d="M254.81,232.02c-16.6,36.19-65.52,36.77-84.3,1.72"/>
    <line class="cls-9" x1="246.66" y1="233.72" x2="243.92" y2="237.24"/>
    <path class="cls-8" d="M165.51,181.96c-12.36-5.64-27.01-.04-32.72,12.47-5.71,12.53-.31,27.24,12.05,32.87,12.36,5.64,27.01.04,32.72-12.47,5.71-12.53.31-27.24-12.05-32.87M294.37,204.82c0-13.7-11.13-24.83-24.83-24.83s-24.83,11.13-24.83,24.83,11.13,24.83,24.83,24.83,24.83-11.13,24.83-24.83"/>
    <path class="cls-32" d="M173.57,205.14c0-7.21-5.83-13.03-13.03-13.03s-13.03,5.83-13.03,13.03,5.83,13.03,13.03,13.03,13.03-5.83,13.03-13.03M277.25,205.09c0-7.17-5.8-12.97-12.97-12.97s-12.97,5.8-12.97,12.97,5.8,12.97,12.97,12.97,12.97-5.8,12.97-12.97"/>
    <path class="cls-5" d="M186.71,303.83c16.91,10.46,33.82,10.48,50.75.08"/>
    <path class="cls-34" d="M237.46,303.91c5.22-1.74,9.39-5.83,12.47-12.26.86-1.78,1.19-3.71,1.01-5.8-.08-1.09-1.09-1.89-2.18-1.74-8.65,1.17-17.37,4.19-26.09,4.38-11.63.25-20.97.1-27.99-.42-.08-.02-.17-.02-.27-.04l-18.71-4.11c-1.59-.34-3.02,1.03-2.74,2.64,1.53,8.72,6.12,14.48,13.77,17.27"/>
    <path class="cls-16" d="M237.46,303.91c-17.08-10.81-33.99-10.83-50.75-.08"/>
    <path class="cls-48" d="M356.86,174.5c4.21,16.45,5.76,33,4.69,49.66-1.11,16.91-5.15,33-12.15,48.28-16.03,35.01-41.85,60.7-77.4,77.05-10.52,4.84-21.79,8.15-33.82,9.97-11.63,1.76-23.43,2.39-35.39,1.91-9.2-.42-18.33-1.84-27.43-4.27-39.39-10.54-69.53-32.96-90.42-67.28-25.25-41.51-28.62-93.64-8.84-138.17,13.98-31.43,36.5-55.23,67.62-71.41,23.05-11.99,48.95-17.64,77.7-16.97,8.91.21,18.33,3,28.12,4.88.92.19,2.33.61,4.21,1.3,8.88,3.25,14.65,5.32,17.31,6.2,5.43,1.8,10.92,4.46,16.47,7.98,8.53,5.39,13.85,8.97,15.95,10.71,11.21,9.32,21.33,19.8,30.36,31.43,10.67,13.72,18.33,29.96,23.03,48.74M81.27,154.7c-3.02,6.81-5.49,13.87-7.4,21.08-6.87,25.94-6.33,53.29,1.59,78.93,4.63,15.02,11.71,29.19,20.93,41.91,21.75,29.96,54.25,50.33,90.69,56.85,37.38,6.68,75.87-1.74,107.03-23.43,23.89-16.62,42.16-40.13,52.34-67.37,12.84-34.32,12.03-72.27-2.24-106.01-13.89-32.81-39.5-59.26-71.85-74.2-33.09-15.3-70.74-17.39-105.31-5.87-38.35,12.76-69.48,41.13-85.79,78.1h0Z"/>
    <path class="cls-53" d="M344.22,156.67c-1.26,1.97-2.83,1.15-4.69-2.43-2.79-5.39-4.9-9.49-6.35-12.34-.23-.44-.5-.86-.84-1.24-2.91-3.42-5.26-7.15-7.02-11.17-.25-.61-.67-1.15-1.17-1.57-1.4-1.15-2.49-2.83-3.23-5.03-.19-.52-.46-1.01-.84-1.4l-6.14-6.81c-.19-.21-.4-.4-.63-.57-7-5.11-14.29-12.45-20.83-16.13-16.6-9.32-31.1-15.9-43.52-19.74-33.99-10.48-64.48-4.99-97.69,8.82-5.66,2.35-11.11,6.62-16.36,9.37-14.4,7.52-29.69,22.67-36.67,34.05-6.89,11.25-12.55,19.32-16.97,24.22,16.3-36.96,47.44-65.33,85.79-78.1,34.57-11.52,72.23-9.43,105.31,5.87,32.35,14.94,57.96,41.38,71.85,74.2h0Z"/>
    <path class="cls-64" d="M344.22,156.67c14.27,33.74,15.09,71.68,2.24,106.01-4.59-3.08-6.6-7-6.01-11.71,6.64-13.01,3.62-24.52-.71-37.97-.38-1.11-.59-2.28-.65-3.46-.44-8.99,2.66-17.69,3.33-23.53,2.03-17.73-8.36-27.72-20.74-38.62-11.17-9.83-10.12-23.87-18.1-35.33-6.14-8.82-14.79-13.79-25.94-14.9-7.12-.69-20.45.1-30.63-5.53-5.91-3.25-12.34-8.65-18.71-11.11-13.01-4.99-25.88-3.77-38.62,3.67-10.37,6.08-16.03,10.41-25.35,11.86-7.27,1.13-17.79,0-25.82,2.93-9.14,3.31-15.88,9.49-20.22,18.52-3.33,6.96-5.85,19.07-11.57,26.09-2.24,2.79-6.58,6.87-12.99,12.26-8.88,7.48-12.57,17.45-11.06,29.94,1.26,10.48,5.97,20.87,1.28,33.02-5.93,15.34-5.11,27.24,6.29,39.08,5.03,5.22,8.05,8.21,10.33,14.19.06.15.1.27.13.42l2.83,16.97c-5.47-6.27-10.58-13.49-15.36-21.69-2.95-5.09-7.19-9.45-12.68-13.08-7.92-25.65-8.47-52.99-1.59-78.93,1.91-7.21,4.38-14.27,7.4-21.08,4.42-4.9,10.08-12.97,16.97-24.22,6.98-11.38,22.27-26.53,36.67-34.05,5.26-2.74,10.71-7.02,16.36-9.37,33.21-13.81,63.7-19.3,97.69-8.82,12.43,3.83,26.93,10.41,43.52,19.74,6.54,3.69,13.83,11.02,20.83,16.13.23.17.44.36.63.57l6.14,6.81c.38.4.65.88.84,1.4.73,2.2,1.82,3.88,3.23,5.03.5.42.92.96,1.17,1.57,1.76,4.02,4.11,7.75,7.02,11.17.34.38.61.8.84,1.24,1.45,2.85,3.56,6.96,6.35,12.34,1.86,3.58,3.44,4.4,4.69,2.43h0Z"/>
    <path class="cls-43" d="M340.45,250.96c-3.29,4.78-7.21,8.99-11.73,12.66-.38.29-.71.63-.98,1.03-4.92,6.54-4.84,14.98-6.43,21.35-2.45,9.91-8.99,18.23-18.67,21.65-8.3,2.93-17.85,5.97-22.17,11.44-6.39,8.09-11.57,13.56-15.53,16.41-13.49,9.74-28.14,6.16-42.89,1.26-14.1-4.67-22.65,3.25-35.58,4.95-12.53,1.61-23.38-2.16-32.58-11.32-5.78-6.79-10.44-14-18.9-17.87-3.23-1.49-7.17-2.6-11.82-3.37-9.37-4.97-15.9-11.5-19.65-19.65l-2.83-16.97c-.02-.15-.06-.27-.13-.42-2.28-5.97-5.3-8.97-10.33-14.19-11.4-11.84-12.22-23.74-6.29-39.08,4.69-12.15-.02-22.55-1.28-33.02-1.51-12.49,2.18-22.46,11.06-29.94,6.41-5.39,10.75-9.47,12.99-12.26,5.72-7.02,8.23-19.13,11.57-26.09,4.34-9.03,11.08-15.21,20.22-18.52,8.03-2.93,18.54-1.8,25.82-2.93,9.32-1.45,14.98-5.78,25.35-11.86,12.74-7.44,25.61-8.65,38.62-3.67,6.37,2.45,12.8,7.86,18.71,11.11,10.18,5.64,23.51,4.84,30.63,5.53,11.15,1.11,19.8,6.08,25.94,14.9,7.98,11.46,6.94,25.5,18.1,35.33,12.38,10.9,22.78,20.89,20.74,38.62-.67,5.85-3.77,14.54-3.33,23.53.06,1.17.27,2.35.65,3.46,4.34,13.45,7.35,24.96.71,37.97M89,192.52c1.51,7.17,1.86,14.58,1.05,22.27-2.66,6.35-4.17,10.52-4.55,12.49-3.16,16.09,6.18,24.6,15.34,35.58,5.85,7,4.67,14.67,6.24,21.02,3.44,13.85,13.68,18.8,26.3,23.07,10.04,3.39,14.21,7.38,21.71,17.45,11.52,15.4,28.31,15.09,45.81,8.74,10.56-3.83,20.05-1.86,31.98,1.8,13.22,4.07,25.63,1.42,34.97-8.65,4.07-4.38,7.42-9.43,12.51-13.24,6.43-4.84,12.76-7.02,21.04-10.02,13.28-4.84,15.78-15.15,17.71-28.37,1.38-9.51,6.01-13.89,12.45-19.84,9.81-9.07,11.21-22.57,5.2-34.49-1.49-4.04-2.43-8.19-2.79-12.4-.61-6.79,2.03-13.6,3.27-20.35,1.57-8.67-.06-16.37-4.9-23.07-3.65-5.05-8.34-9.37-14.06-12.97-4.67-5.32-7.73-9.83-9.18-13.54-6.2-15.76-9.05-30.99-28.02-35.48-2.16-.52-7.5-.98-15.99-1.38-8.36-.4-16.11-2.85-23.3-7.4-9.05-5.72-14.58-8.91-16.57-9.58-16.91-5.59-30.53,1.95-44.74,10.71-8.74,5.38-17.41,6.14-27.2,6.56-11.32.46-20.83,4.09-27.51,13.1-4.88,6.6-6.96,18.86-11.19,25.5-4.86,7.65-9.47,12.3-15.88,17.69-11.27,9.45-14.86,20.01-9.68,34.8h0Z"/>
    <path class="cls-50" d="M318.26,151.54c-6.54-3-12.15-7.59-16.83-13.79-3.75-5.01-6.6-11.17-8.55-18.48-.19-.69-.67-1.26-1.32-1.57-6.85-3.16-12.17-4.99-15.92-5.43-9.24-1.09-16.01-2.07-20.3-2.95-3.77-.78-7.31-2.43-10.33-4.82-8.67-6.85-15.17-11.99-28.04-11.73-11.96.23-18.02.34-18.17.34-2.72.02-5.24,1.36-6.77,3.6-14.67,21.83-45.22,4.69-60.28,28.04-3.16,4.88-5.05,14.63-9.45,20.68-6.6,9.11-16.26,15.63-23.93,22.92-1.26,1.17-2.18,2.64-2.72,4.25l-6.64,19.93c-5.18-14.79-1.59-25.35,9.68-34.8,6.41-5.39,11.02-10.04,15.88-17.69,4.23-6.64,6.31-18.9,11.19-25.5,6.68-9.01,16.2-12.64,27.51-13.1,9.79-.42,18.46-1.17,27.2-6.56,14.21-8.76,27.83-16.3,44.74-10.71,1.99.67,7.52,3.86,16.57,9.58,7.19,4.55,14.94,7,23.3,7.4,8.49.4,13.83.86,15.99,1.38,18.96,4.48,21.81,19.72,28.02,35.48,1.45,3.71,4.51,8.21,9.18,13.54h0Z"/>
    <path class="cls-46" d="M318.26,151.54c5.72,3.6,10.41,7.92,14.06,12.97,4.84,6.71,6.47,14.4,4.9,23.07-1.24,6.75-3.88,13.56-3.27,20.35.36,4.21,1.3,8.36,2.79,12.4-.52,4.99-1.17,9.85-1.97,14.56-.8,4.69-1.82,7.75-3.08,9.16-6.94,7.71-12.3,15.78-16.09,24.22-6.87,15.28-16.41,23.28-31.77,28.46-7.73,2.62-14,7.46-18.75,14.52-.44.65-1.32.84-1.97.42-.94-.61-1.32-1.82-1.13-3.65.08-.75-.21-1.51-.82-1.99-.98-.8-1.59-.5-1.82.9l-3.98,1.17c-2.1.31-3.1,1.47-3.02,3.5.08,2.14-.19,4.3-.82,6.45-.19.65-.73,1.15-1.4,1.3-6.01,1.34-10.23,1.89-12.61,1.63-13.26-1.38-25.79-1.51-37.57-.36-12.68,1.24-28.25,1.36-37.4-8.36-5.59-5.93-11.5-12.01-17.77-18.23-.54-.54-.38-1.49.36-1.78,3.71-1.51,4.48-3.9,2.3-7.19-7.4-3.08-13.98-1.84-19.74,3.71-.44.4-1.11.4-1.53-.02-5.11-5.13-8.36-8.99-9.76-11.57-6.37-11.8-12.49-21.67-18.38-29.63-2.14-2.91-4.71-8.49-5.05-11.32-.84-7.15-1.8-14.31-2.91-21.46.82-7.69.46-15.11-1.05-22.27l6.64-19.93c.54-1.61,1.47-3.08,2.72-4.25,7.67-7.29,17.33-13.81,23.93-22.92,4.4-6.06,6.29-15.8,9.45-20.68,15.07-23.34,45.62-6.2,60.28-28.04,1.53-2.24,4.04-3.58,6.77-3.6.15,0,6.2-.1,18.17-.34,12.87-.25,19.36,4.88,28.04,11.73,3.02,2.39,6.56,4.04,10.33,4.82,4.3.88,11.06,1.86,20.3,2.95,3.75.44,9.07,2.26,15.92,5.43.65.31,1.13.88,1.32,1.57,1.95,7.31,4.8,13.47,8.55,18.48,4.67,6.2,10.29,10.79,16.83,13.79M201.01,98.09c.9-1.23.65-2.94-.58-3.84l-.24-.17c-1.22-.9-2.94-.65-3.84.58l-7.21,9.78c-.9,1.23-.65,2.94.58,3.84l.24.17c1.22.9,2.94.65,3.84-.58l7.21-9.78M235.45,99.88l-14.16,11.36c-.19.15-.21.4-.06.59l1.09,1.38c1.11,1.36,5.22-.1,9.18-3.27l.46-.38c3.96-3.16,6.29-6.85,5.2-8.23l-1.11-1.38c-.15-.17-.4-.21-.59-.06M163.75,114.94c-1.97-.24-4.09,3.8-4.75,9.03-.66,5.23.39,9.69,2.36,9.93,1.97.24,4.09-3.8,4.75-9.03.66-5.23-.39-9.69-2.36-9.93M286.2,123.46c-.4-1.83-5.11-2.37-10.51-1.18-5.4,1.18-9.46,3.61-9.06,5.45.4,1.83,5.11,2.37,10.51,1.18,5.4-1.18,9.46-3.61,9.06-5.45M199.16,144.01c-9.7,1.61-18.44,4.86-26.23,9.72-11.59-4.19-23.53-2.74-35.85,4.34-2.37,1.34-3.21,4.36-1.91,6.75l.1.17c1.3,2.41,4.3,3.33,6.73,2.1,8.13-4.17,17.54-5.72,28.2-4.69.67,1.53.21,3.42-1.38,5.7-3.37,4.84-6.35,7.4-8.88,7.65-17.48-2.6-31.12,8.19-33.67,25.1-3.04,19.93,12.26,33.95,31.91,33.74.67,0,1.22.52,1.24,1.19.5,15.8,10.18,21.94,24.12,26.65,1.07.36,2.1.8,3.08,1.32,15.21,8.21,25.19,13.52,41.89,5.34,7.08-3.48,13.28-6.52,18.61-9.09,11.13-5.41,16.28-11.65,18.96-22.8.38-1.55,1.72-2.66,3.31-2.77,11.67-.67,22.71-6.47,27.28-17.45,2.45-5.89,3.21-11.34,2.22-16.34-3.56-18.13-15.25-26.4-35.08-24.83-4.63-2.56-7.21-6.83-7.73-12.8,9.66-1.78,18.1-.5,25.33,3.86,1.93,1.15,4.88,2.07,7.17,1.15,2.2-.9,3.31-3.25,2.51-5.26-.82-2.07-2.28-3.73-4.44-4.99-10.5-6.1-21.52-7.61-33.02-4.53-16.89-10.79-31.07-11.59-49.1-13.64-2.98-4.25-6.01-8.28-9.09-12.07-1.15-1.38-2.41-1.91-3.81-1.57-1.97.48-2.91,2.77-1.82,4.48,2.64,4.23,5.76,8.76,9.37,13.58M239.43,130.58l-9.16,5.72c-1.51.94-1.47,3.16.1,4.02,1.32.71,2.39.92,3.16.61,1.97-.82,5.99-3.23,12.07-7.29,1.13-.75.94-2.49-.34-3l-1.24-.5c-1.51-.59-3.23-.44-4.61.44M132.29,150.3c-.91-1.55-5.5-.57-10.26,2.23-4.76,2.78-7.86,6.32-6.95,7.87.91,1.55,5.5.57,10.26-2.23,4.76-2.78,7.86-6.32,6.95-7.87M296.33,153.02c-.97,1.47,1.95,5.09,6.48,8.07,4.56,3,9.02,4.21,9.98,2.75.97-1.47-1.95-5.09-6.48-8.07-4.56-3-9.02-4.21-9.98-2.75M103.05,175.78c-1.81.69-1.62,5.55.42,10.87,2.05,5.29,5.17,9.02,6.99,8.33,1.81-.69,1.62-5.55-.42-10.87-2.05-5.29-5.17-9.02-6.99-8.33M318.05,179.47l-.94.54c-.52.29-.96.73-1.3,1.26l-6.33,9.95c-.86,1.36-.19,3.18,1.34,3.67l.34.1c1.76.63,3.73-.02,4.76-1.57,3.29-4.92,6.01-8.26,5.03-12.7-.29-1.28-1.74-1.93-2.89-1.26M322.86,223.96c1.19-1.42,1-3.51-.41-4.69l-.19-.16c-1.41-1.19-3.51-1-4.69.41l-8,9.53c-1.19,1.42-1,3.51.41,4.69l.19.16c1.41,1.19,3.51,1,4.69-.41l8-9.53M119.75,227.85c.31-1.7-.82-3.31-2.51-3.63l-13.94-2.53c-1.7-.32-3.31.82-3.63,2.51l-.04.25c-.31,1.7.82,3.31,2.51,3.63l13.94,2.53c1.7.32,3.31-.82,3.63-2.51l.04-.25M119.18,260.94c3.79-3.5,6.29-8.49,7.48-15,.13-.71-.5-1.34-1.22-1.19l-3.73.73c-.59.13-1.07.54-1.26,1.13l-3.92,12.66c-.48,1.57,1.42,2.79,2.64,1.68M272.52,258.99l6.6,8.61c1.07,1.42,3.29,1.17,4-.48.59-1.38.69-2.47.29-3.23-.98-1.91-3.79-5.7-8.42-11.4-.86-1.05-2.58-.71-2.95.61l-.38,1.3c-.46,1.57-.15,3.27.86,4.59M156.22,258.44l-10.6-4.99c-1.74-.82-3.73.52-3.6,2.45.13,1.63.57,2.72,1.32,3.25,1.89,1.32,6.45,3.56,13.72,6.73,1.36.59,2.83-.59,2.54-2.05l-.27-1.42c-.34-1.74-1.49-3.21-3.1-3.96M309.67,272.36l1.76-16.81c.06-.48-.29-.92-.78-.96l-.86-.08c-2.28-.25-4.42,2.24-4.78,5.57l-.69,6.5c-.34,3.33,1.24,6.22,3.52,6.47l.86.08c.48.04.92-.29.96-.78M212.21,316.49c16.87,0,38.51-9.68,44.76-26.34,1.76-4.71.65-9.99-4.02-12.34-1.4-.69-4.76-.19-10.06,1.53-9.79,3.16-20.81,5.2-30.66,5.2-9.87-.02-20.89-2.05-30.66-5.24-5.32-1.72-8.67-2.22-10.08-1.53-4.67,2.35-5.78,7.63-4.02,12.34,6.22,16.66,27.87,26.36,44.74,26.38M273.81,286.12c-.54,1.35,2.9,3.99,7.69,5.89,4.79,1.91,9.1,2.37,9.63,1.03.54-1.35-2.9-3.99-7.69-5.89-4.79-1.91-9.1-2.37-9.63-1.03h0Z"/>
    <path class="cls-63" d="M193.79,107.87c-.9,1.23-2.62,1.48-3.84.58l-.24-.17c-1.23-.89-1.48-2.61-.58-3.84l7.21-9.78c.9-1.23,2.62-1.48,3.84-.58l.24.17c1.23.89,1.48,2.61.58,3.84l-7.21,9.78h0Z"/>
    <path class="cls-53" d="M235.45,99.88c.19-.15.44-.1.59.06l1.11,1.38c1.09,1.38-1.24,5.07-5.2,8.23l-.46.38c-3.96,3.16-8.07,4.63-9.18,3.27l-1.09-1.38c-.15-.19-.13-.44.06-.59l14.16-11.36h0Z"/>
    <path class="cls-60" d="M163.75,114.94c1.97.24,3.01,4.7,2.36,9.93-.66,5.23-2.78,9.27-4.75,9.03-1.97-.24-3.01-4.7-2.36-9.93.66-5.23,2.78-9.27,4.75-9.03h0Z"/>
    <path class="cls-47" d="M286.2,123.46c.4,1.84-3.67,4.27-9.06,5.45-5.4,1.19-10.11.64-10.51-1.18-.4-1.84,3.67-4.27,9.06-5.45,5.4-1.19,10.11-.64,10.51,1.18h0Z"/>
    <path class="cls-47" d="M204.52,139.59c-.1,2.85-1.89,4.32-5.36,4.42-3.6-4.82-6.73-9.35-9.37-13.58-1.09-1.72-.15-4,1.82-4.48,1.4-.34,2.66.19,3.81,1.57,3.08,3.79,6.12,7.82,9.09,12.07h0Z"/>
    <path class="cls-63" d="M239.43,130.58c1.38-.88,3.1-1.03,4.61-.44l1.24.5c1.28.5,1.47,2.24.34,3-6.08,4.06-10.1,6.47-12.07,7.29-.78.31-1.84.1-3.16-.61-1.57-.86-1.61-3.08-.1-4.02l9.16-5.72h0Z"/>
    <path class="cls-51" d="M253.62,153.23c-2.05,2.51-2.3,4.82-.73,6.89,1.49,1.97,2.54,2.93,3.18,2.87.52,5.97,3.1,10.25,7.73,12.8-1.26,1.03-2.89,1.4-4.88,1.09-.69-.1-1.3-.5-1.68-1.09-4.32-6.71-10.06-11.29-17.2-13.77-4.32-1.51-8.93-2.64-14.44-5.51-6.98-3.65-12.61-5.15-19.76-2.6-17.08,6.14-29.13,8.21-37.32,22.4-.34.57-.98.88-1.63.75l-6.96-1.34c2.54-.25,5.51-2.81,8.88-7.65,1.59-2.28,2.05-4.17,1.38-5.7,2.43-2.16,3.33-5.03,2.72-8.65,7.79-4.86,16.53-8.11,26.23-9.72,3.48-.1,5.26-1.57,5.36-4.42,18.02,2.05,32.21,2.85,49.1,13.64h0Z"/>
    <path class="cls-49" d="M132.29,150.3c.91,1.55-2.19,5.09-6.95,7.87-4.76,2.8-9.34,3.78-10.26,2.23-.91-1.55,2.19-5.09,6.95-7.87,4.76-2.8,9.34-3.78,10.26-2.23h0Z"/>
    <path class="cls-65" d="M172.93,153.74c.61,3.62-.29,6.5-2.72,8.65-10.67-1.03-20.07.52-28.2,4.69-2.43,1.24-5.43.31-6.73-2.1l-.1-.17c-1.3-2.39-.46-5.41,1.91-6.75,12.32-7.08,24.26-8.53,35.85-4.34h0Z"/>
    <path class="cls-65" d="M256.07,163c-.65.06-1.7-.9-3.18-2.87-1.57-2.07-1.32-4.38.73-6.89,11.5-3.08,22.53-1.57,33.02,4.53,2.16,1.26,3.62,2.91,4.44,4.99.8,2.01-.31,4.36-2.51,5.26-2.28.92-5.24,0-7.17-1.15-7.23-4.36-15.67-5.64-25.33-3.86h0Z"/>
    <path class="cls-43" d="M263.8,175.8c19.82-1.57,31.51,6.71,35.08,24.83.98,5.01.23,10.46-2.22,16.34-4.57,10.98-15.61,16.78-27.28,17.45-1.59.1-2.93,1.22-3.31,2.77-2.68,11.15-7.84,17.39-18.96,22.8-5.32,2.58-11.52,5.62-18.61,9.09-16.7,8.17-26.67,2.87-41.89-5.34-.98-.52-2.01-.96-3.08-1.32-13.93-4.71-23.62-10.85-24.12-26.65-.02-.67-.57-1.19-1.24-1.19-19.65.21-34.95-13.81-31.91-33.74,2.56-16.91,16.2-27.7,33.67-25.1l6.96,1.34c.65.13,1.3-.19,1.63-.75,8.19-14.19,20.24-16.26,37.32-22.4,7.15-2.56,12.78-1.05,19.76,2.6,5.51,2.87,10.12,4,14.44,5.51,7.15,2.47,12.89,7.06,17.2,13.77.38.59.98.98,1.68,1.09,1.99.31,3.62-.06,4.88-1.09M177.62,183.87c-.92,3.14.27,4.9,3.6,5.28,3.56,13.98,3.16,26.84-6.68,38.18-3.18.31-4.53,2.45-4.02,6.41-1.72-1.47-3.56-1.76-5.55-.88-.63.27-1.03.9-1.01,1.57.4,13.47,7.56,20.56,20.74,24.39,11.17,3.23,23.11,14.92,35.91,8.78,7.65-3.67,14.81-6.91,21.48-9.7,11.19-4.69,18-10.08,19.78-21.56.17-1.17-.38-2.33-1.38-2.95-2.37-1.42-4.25-1.89-5.68-1.36.19-2.22-.42-3.35-1.84-3.37-1.49-.02-2.93-.13-4.32-.34-7.96-12.72-9.76-25.88-8.11-40.86,1.86.59,3.79.71,5.74.4,1.07-.17,1.51-1.45.78-2.24-.9-.98-1.45-2.26-1.63-3.83.78.8,1.53,1.34,2.28,1.66.86.34,1.72.19,2.62-.46,1.66-1.19,3.04-2.35,4.19-3.46.52-.52.59-1.34.15-1.91-6.91-8.91-13.64-10.94-25-14.48-.69-.23-1.34-.5-1.97-.86-7.15-4.07-10.23-6.16-19.63-4.99-.71.08-1.4.29-2.03.65l-9.66,5.09c-.13.06-.25.13-.4.15-10.94,3.25-18.86,5.78-24.87,14.4-.42.57-.38,1.34.06,1.91,1.78,2.2,3.94,3.67,6.45,4.4M165.51,181.96c-12.36-5.64-27.01-.04-32.72,12.47-5.71,12.53-.31,27.24,12.05,32.87,12.36,5.64,27.01.04,32.72-12.47,5.71-12.53.31-27.24-12.05-32.87M294.37,204.82c0-13.7-11.13-24.83-24.83-24.83s-24.83,11.13-24.83,24.83,11.13,24.83,24.83,24.83,24.83-11.13,24.83-24.83h0Z"/>
    <path class="cls-49" d="M296.33,153.02c.96-1.47,5.42-.25,9.98,2.75,4.54,2.98,7.45,6.6,6.48,8.07-.96,1.47-5.42.25-9.98-2.75-4.54-2.98-7.45-6.6-6.48-8.07h0Z"/>
    <path class="cls-66" d="M245.43,181.77c-16.24-17.39-44.25-18.73-61.98-3.06-1.91,1.68-3.86,3.39-5.83,5.15-2.51-.73-4.67-2.2-6.45-4.4-.44-.57-.48-1.34-.06-1.91,6.01-8.61,13.93-11.15,24.87-14.4.15-.02.27-.08.4-.15l9.66-5.09c.63-.36,1.32-.57,2.03-.65,9.41-1.17,12.49.92,19.63,4.99.63.36,1.28.63,1.97.86,11.36,3.54,18.08,5.57,25,14.48.44.57.38,1.38-.15,1.91-1.15,1.11-2.54,2.26-4.19,3.46-.9.65-1.76.8-2.62.46-.75-.31-1.51-.86-2.28-1.66h0Z"/>
    <path class="cls-54" d="M245.43,181.77c.19,1.57.73,2.85,1.63,3.83.73.8.29,2.07-.78,2.24-1.95.31-3.88.19-5.74-.4-1.32-2.66-3.42-4.84-6.31-6.54-20.51-12.03-38.18-9.28-53.01,8.23-3.33-.38-4.53-2.14-3.6-5.28,1.97-1.76,3.92-3.48,5.83-5.15,17.73-15.67,45.74-14.33,61.98,3.06h0Z"/>
    <path class="cls-52" d="M240.54,187.45c-1.66,14.98.15,28.14,8.11,40.86.25,2.12-.42,3.92-1.99,5.41-1.99-4.55-4.02-9.07-6.06-13.58-4.15-9.22-4.32-14.14-5.59-24.7-.82-6.85-3.9-11.44-9.2-13.81-13.39-5.95-26.3-4.32-38.68,4.92-.48.36-.73.92-.67,1.51,1.09,10.77,1.84,21.02-.44,31.81-1.15,5.47-2.01,10.48-2.6,15.04-.23,1.76.54,3.5,1.99,4.51,9.53,6.58,21.56,9.39,32.56,9.07,10.25-.29,17.37-5.95,25.94-11.25-13.98,19.03-39.79,20.6-57.73,6.41-.59-.46-1.11-1.05-1.51-1.7-1.36-2.14-3.02-4.04-5.01-5.72-.75-.63-1.36-1.4-1.8-2.28l-3.33-6.62c9.85-11.34,10.25-24.2,6.68-38.18,14.84-17.52,32.5-20.26,53.01-8.23,2.89,1.7,4.99,3.88,6.31,6.54h0Z"/>
    <path class="cls-63" d="M103.05,175.78c1.82-.69,4.94,3.04,6.99,8.33,2.04,5.31,2.23,10.17.42,10.87-1.82.69-4.94-3.04-6.99-8.33-2.04-5.31-2.23-10.17-.42-10.87h0Z"/>
    <path class="cls-1" d="M246.66,233.72l-2.74,3.52c-8.57,5.3-15.69,10.96-25.94,11.25-11,.31-23.03-2.49-32.56-9.07-1.45-1.01-2.22-2.74-1.99-4.51.59-4.57,1.45-9.58,2.6-15.04,2.28-10.79,1.53-21.04.44-31.81-.06-.59.19-1.15.67-1.51,12.38-9.24,25.29-10.88,38.68-4.92,5.3,2.37,8.38,6.96,9.2,13.81,1.28,10.56,1.45,15.48,5.59,24.7,2.03,4.51,4.07,9.03,6.06,13.58h0Z"/>
    <path class="cls-63" d="M318.05,179.47c1.15-.67,2.6-.02,2.89,1.26.98,4.44-1.74,7.77-5.03,12.7-1.03,1.55-3,2.2-4.76,1.57l-.34-.1c-1.53-.48-2.2-2.31-1.34-3.67l6.33-9.95c.34-.52.78-.96,1.3-1.26l.94-.54h0Z"/>
    <path class="cls-45" d="M165.51,181.96c12.36,5.64,17.77,20.34,12.05,32.87-5.71,12.51-20.35,18.11-32.72,12.47-12.36-5.64-17.77-20.34-12.05-32.87,5.71-12.51,20.35-18.11,32.72-12.47M173.57,205.14c0-7.21-5.83-13.03-13.03-13.03s-13.03,5.83-13.03,13.03,5.83,13.03,13.03,13.03,13.03-5.83,13.03-13.03h0Z"/>
    <path class="cls-45" d="M294.37,204.82c0,13.7-11.13,24.83-24.83,24.83s-24.83-11.13-24.83-24.83,11.13-24.83,24.83-24.83,24.83,11.13,24.83,24.83M277.25,205.09c0-7.17-5.8-12.97-12.97-12.97s-12.97,5.8-12.97,12.97,5.8,12.97,12.97,12.97,12.97-5.8,12.97-12.97h0Z"/>
    <path class="cls-55" d="M173.57,205.14c0,7.21-5.83,13.03-13.03,13.03s-13.03-5.83-13.03-13.03,5.83-13.03,13.03-13.03,13.03,5.83,13.03,13.03h0Z"/>
    <path class="cls-55" d="M277.25,205.09c0,7.17-5.8,12.97-12.97,12.97s-12.97-5.8-12.97-12.97,5.8-12.97,12.97-12.97,12.97,5.8,12.97,12.97h0Z"/>
    <path class="cls-51" d="M147.42,285.08c-6.6-.27-12.26,1.45-16.97,5.13-1.13.88-.5,2.68.92,2.66,7.31-.1,12.66-2.7,16.05-7.8,2.18,3.29,1.4,5.68-2.3,7.19-.73.29-.9,1.24-.36,1.78,6.27,6.22,12.17,12.3,17.77,18.23,9.16,9.72,24.73,9.6,37.4,8.36,11.78-1.15,24.31-1.03,37.57.36,2.39.25,6.6-.29,12.61-1.63.67-.15,1.22-.65,1.4-1.3.63-2.16.9-4.32.82-6.45-.08-2.03.92-3.19,3.02-3.5l.27,12.45c.04,1.86,2.51,2.51,3.46.9,2.89-4.92,2.98-9.76.25-14.52.23-1.4.84-1.7,1.82-.9.61.48.9,1.24.82,1.99-.19,1.82.19,3.04,1.13,3.65.65.42,1.53.23,1.97-.42,4.76-7.06,11.02-11.9,18.75-14.52,15.36-5.18,24.89-13.18,31.77-28.46,3.79-8.44,9.16-16.51,16.09-24.22,1.26-1.4,2.28-4.46,3.08-9.16.8-4.71,1.45-9.58,1.97-14.56,6.01,11.92,4.61,25.42-5.2,34.49-6.43,5.95-11.06,10.33-12.45,19.84-1.93,13.22-4.42,23.53-17.71,28.37-8.28,3-14.6,5.18-21.04,10.02-5.09,3.81-8.44,8.86-12.51,13.24-9.35,10.08-21.75,12.72-34.97,8.65-11.92-3.67-21.41-5.64-31.98-1.8-17.5,6.35-34.28,6.66-45.81-8.74-7.5-10.08-11.67-14.06-21.71-17.45-12.61-4.27-22.86-9.22-26.3-23.07-1.57-6.35-.4-14.02-6.24-21.02-9.16-10.98-18.5-19.49-15.34-35.58.38-1.97,1.89-6.14,4.55-12.49,1.11,7.15,2.07,14.31,2.91,21.46.34,2.83,2.91,8.4,5.05,11.32,5.89,7.96,12.01,17.83,18.38,29.63,1.4,2.58,4.65,6.43,9.76,11.57.42.42,1.09.42,1.53.02,5.76-5.55,12.34-6.79,19.74-3.71h0Z"/>
    <path class="cls-47" d="M314.86,233.5c-1.18,1.41-3.28,1.6-4.69.41l-.19-.16c-1.41-1.18-1.6-3.28-.41-4.69l8-9.53c1.18-1.41,3.28-1.6,4.69-.41l.19.16c1.41,1.18,1.6,3.28.41,4.69l-8,9.53h0Z"/>
    <path class="cls-58" d="M119.7,228.1c-.32,1.7-1.93,2.83-3.63,2.51l-13.94-2.53c-1.69-.32-2.82-1.93-2.51-3.63l.04-.25c.32-1.7,1.93-2.83,3.63-2.51l13.94,2.53c1.69.32,2.82,1.93,2.51,3.63l-.04.25h0Z"/>
    <path class="cls-54" d="M174.54,227.33l3.33,6.62c.44.88,1.05,1.66,1.8,2.28,1.99,1.68,3.65,3.58,5.01,5.72.4.65.92,1.24,1.51,1.7,17.94,14.19,43.75,12.61,57.73-6.41l2.74-3.52c1.57-1.49,2.24-3.29,1.99-5.41,1.38.21,2.83.31,4.32.34,1.42.02,2.03,1.15,1.84,3.37-16.6,36.19-65.52,36.77-84.3,1.72-.5-3.96.84-6.1,4.02-6.41h0Z"/>
    <path class="cls-64" d="M170.52,233.74c18.77,35.06,67.7,34.47,84.3-1.72,1.42-.52,3.31-.06,5.68,1.36,1.01.63,1.55,1.78,1.38,2.95-1.78,11.48-8.59,16.87-19.78,21.56-6.66,2.79-13.83,6.03-21.48,9.7-12.8,6.14-24.75-5.55-35.91-8.78-13.18-3.83-20.35-10.92-20.74-24.39-.02-.67.38-1.3,1.01-1.57,1.99-.88,3.83-.59,5.55.88h0Z"/>
    <path class="cls-60" d="M119.18,260.94c-1.22,1.11-3.12-.1-2.64-1.68l3.92-12.66c.19-.59.67-1.01,1.26-1.13l3.73-.73c.71-.15,1.34.48,1.22,1.19-1.19,6.52-3.69,11.5-7.48,15h0Z"/>
    <path class="cls-59" d="M346.47,262.68c-10.18,27.24-28.46,50.75-52.34,67.37-31.16,21.69-69.65,30.11-107.03,23.43-36.44-6.52-68.94-26.88-90.69-56.85-9.22-12.72-16.3-26.88-20.93-41.91,5.49,3.62,9.72,7.98,12.68,13.08,4.78,8.19,9.89,15.42,15.36,21.69,3.75,8.15,10.29,14.69,19.65,19.65l29.4,22.34c.42.31,1.01.02,1.01-.5,0-.02.1-.23.31-.59,9.2,9.16,20.05,12.93,32.58,11.32,12.93-1.7,21.48-9.62,35.58-4.95,14.75,4.9,29.4,8.49,42.89-1.26,3.96-2.85,9.14-8.32,15.53-16.41,4.32-5.47,13.87-8.51,22.17-11.44,9.68-3.42,16.22-11.73,18.67-21.65,1.59-6.37,1.51-14.81,6.43-21.35.27-.4.61-.73.98-1.03,4.53-3.67,8.44-7.88,11.73-12.66-.59,4.71,1.42,8.63,6.01,11.71h0Z"/>
    <path class="cls-63" d="M272.52,258.99c-1.01-1.32-1.32-3.02-.86-4.59l.38-1.3c.38-1.32,2.1-1.66,2.95-.61,4.63,5.7,7.44,9.49,8.42,11.4.4.75.29,1.84-.29,3.23-.71,1.66-2.93,1.91-4,.48l-6.6-8.61h0Z"/>
    <path class="cls-63" d="M156.22,258.44c1.61.75,2.77,2.22,3.1,3.96l.27,1.42c.29,1.47-1.17,2.64-2.54,2.05-7.27-3.16-11.84-5.41-13.72-6.73-.75-.52-1.19-1.61-1.32-3.25-.13-1.93,1.86-3.27,3.6-2.45l10.6,4.99h0Z"/>
    <path class="cls-62" d="M309.67,272.36c-.04.48-.48.82-.96.78l-.86-.08c-2.28-.25-3.86-3.14-3.52-6.47l.69-6.5c.36-3.33,2.49-5.83,4.78-5.57l.86.08c.48.04.84.48.78.96l-1.76,16.81h0Z"/>
    <path class="cls-42" d="M212.23,284.53c9.85,0,20.87-2.03,30.66-5.2,5.3-1.72,8.65-2.22,10.06-1.53,4.67,2.35,5.78,7.63,4.02,12.34-6.24,16.66-27.89,26.34-44.76,26.34-16.87-.02-38.51-9.72-44.74-26.38-1.76-4.71-.65-10,4.02-12.34,1.4-.69,4.76-.19,10.08,1.53,9.76,3.19,20.79,5.22,30.66,5.24M186.71,303.83c16.91,10.46,33.82,10.48,50.75.08,5.22-1.74,9.39-5.83,12.47-12.26.86-1.78,1.19-3.71,1.01-5.8-.08-1.09-1.09-1.89-2.18-1.74-8.65,1.17-17.37,4.19-26.09,4.38-11.63.25-20.97.1-27.99-.42-.08-.02-.17-.02-.27-.04l-18.71-4.11c-1.59-.34-3.02,1.03-2.74,2.64,1.53,8.72,6.12,14.48,13.77,17.27h0Z"/>
    <path class="cls-57" d="M237.46,303.91c-17.08-10.81-33.99-10.83-50.75-.08-7.65-2.79-12.24-8.55-13.77-17.27-.27-1.61,1.15-2.98,2.74-2.64l18.71,4.11c.1.02.19.02.27.04,7.02.52,16.37.67,27.99.42,8.72-.19,17.43-3.21,26.09-4.38,1.09-.15,2.1.65,2.18,1.74.19,2.1-.15,4.02-1.01,5.8-3.08,6.43-7.25,10.52-12.47,12.26h0Z"/>
    <path class="cls-60" d="M147.42,285.08c-3.39,5.09-8.74,7.69-16.05,7.8-1.42.02-2.05-1.78-.92-2.66,4.71-3.69,10.37-5.41,16.97-5.13h0Z"/>
    <path class="cls-60" d="M273.81,286.12c.53-1.34,4.84-.87,9.63,1.03,4.79,1.91,8.23,4.55,7.69,5.89-.53,1.34-4.84.87-9.63-1.03-4.79-1.91-8.23-4.55-7.69-5.89h0Z"/>
    <path class="cls-44" d="M237.46,303.91c-16.93,10.39-33.84,10.37-50.75-.08,16.76-10.75,33.67-10.73,50.75.08h0Z"/>
    <path class="cls-53" d="M259.34,306.93c2.72,4.76,2.64,9.6-.25,14.52-.94,1.61-3.42.96-3.46-.9l-.27-12.45,3.98-1.17h0Z"/>
    <path class="cls-60" d="M153.88,330.38c-.21.36-.31.57-.31.59,0,.52-.59.82-1.01.5l-29.4-22.34c4.65.78,8.59,1.89,11.82,3.37,8.47,3.88,13.12,11.08,18.9,17.87h0Z"/>
    <path class="cls-63" d="M135.93,395.86c-1.01-1.32-1.32-3.02-.86-4.59l.38-1.3c.38-1.32,2.1-1.66,2.95-.61,4.63,5.7,7.44,9.49,8.42,11.4.4.75.29,1.84-.29,3.23-.71,1.66-2.93,1.91-4,.48l-6.6-8.61h0Z"/>
    <path class="cls-63" d="M201.18,374.93c-1.01-1.32-1.32-3.02-.86-4.59l.38-1.3c.38-1.32,2.1-1.66,2.95-.61,4.63,5.7,7.44,9.49,8.42,11.4.4.75.29,1.84-.29,3.23-.71,1.66-2.93,1.91-4,.48l-6.6-8.61h0Z"/>
    <path class="cls-63" d="M248.59,381.01c-1.01-1.32-1.32-3.02-.86-4.59l.38-1.3c.38-1.32,2.1-1.66,2.95-.61,4.63,5.7,7.44,9.49,8.42,11.4.4.75.29,1.84-.29,3.23-.71,1.66-2.93,1.91-4,.48l-6.6-8.61h0Z"/>
    <path class="cls-49" d="M168.35,372.62c1.71-.39,4.08,3.59,5.27,8.91,1.2,5.29.78,9.92-.94,10.31-1.71.39-4.08-3.59-5.27-8.91-1.2-5.29-.78-9.92.94-10.31h0Z"/>
    <path class="cls-60" d="M243.92,404.06c-3.39,5.09-8.74,7.69-16.05,7.8-1.42.02-2.05-1.78-.92-2.66,4.71-3.69,10.37-5.41,16.97-5.13h0Z"/>
    <path class="cls-47" d="M281.96,407.47c-2.61,1.16-4.71.2-6.33-2.88,2.75-5.35,5.45-10.14,8.1-14.37,1.07-1.73,3.53-1.89,4.83-.33.92,1.11,1,2.47.26,4.12-2.06,4.43-4.34,8.93-6.86,13.47h0Z"/>
    <path class="cls-63" d="M188.46,399.09c1.61-.75,3.48-.69,5.03.16l1.27.71c1.31.72,1.27,2.59-.05,3.26-7.09,3.54-11.75,5.61-13.97,6.2-.89.24-2-.12-3.34-1.07-1.56-1.14-1.31-3.53.43-4.34l10.63-4.93h0Z"/>
  </g>
</svg>