<?xml version="1.0" encoding="UTF-8"?>
<svg id="Camada_1" data-name="Camada 1" xmlns="http://www.w3.org/2000/svg" xmlns:xlink="http://www.w3.org/1999/xlink" viewBox="0 0 422.07 422.07">
  <defs>
    <style>
      .cls-1 {
        stroke: #4d7c68;
      }

      .cls-1, .cls-2, .cls-3, .cls-4, .cls-5, .cls-6, .cls-7, .cls-8, .cls-9, .cls-10, .cls-11, .cls-12, .cls-13, .cls-14, .cls-15, .cls-16, .cls-17, .cls-18, .cls-19, .cls-20, .cls-21, .cls-22, .cls-23, .cls-24, .cls-25, .cls-26, .cls-27, .cls-28, .cls-29, .cls-30, .cls-31, .cls-32, .cls-33, .cls-34, .cls-35, .cls-36, .cls-37 {
        fill: none;
        stroke-miterlimit: 10;
      }

      .cls-38 {
        fill: #cdd2d4;
      }

      .cls-39 {
        fill: #92ece0;
      }

      .cls-2 {
        stroke: #697878;
      }

      .cls-3 {
        stroke: #7c6660;
      }

      .cls-4 {
        stroke: #3aaea9;
      }

      .cls-5 {
        stroke: #167264;
      }

      .cls-40 {
        fill: #21b3ad;
      }

      .cls-6 {
        stroke: #44c3b0;
      }

      .cls-41 {
        fill: #f5cab2;
      }

      .cls-7 {
        stroke: #165c5b;
      }

      .cls-42 {
        fill: #fff;
      }

      .cls-8 {
        stroke: #f5d3b8;
      }

      .cls-9 {
        stroke: #346a60;
      }

      .cls-10 {
        stroke: #031015;
      }

      .cls-43 {
        fill: #f5dcbd;
      }

      .cls-11 {
        stroke: #85aaa5;
      }

      .cls-12 {
        stroke: #276263;
      }

      .cls-13 {
        stroke: #ddb192;
      }

      .cls-14 {
        stroke: #7c6f65;
      }

      .cls-44 {
        fill: #cba782;
      }

      .cls-15 {
        stroke: #329894;
      }

      .cls-16 {
        stroke: #1b1047;
      }

      .cls-17 {
        stroke: #59cab5;
      }

      .cls-45 {
        fill: #98f6c3;
      }

      .cls-18 {
        stroke: #357867;
      }

      .cls-46 {
        fill: #fff2c9;
      }

      .cls-19 {
        stroke: #16847c;
      }

      .cls-20 {
        stroke: #ddba97;
      }

      .cls-21 {
        stroke: #47b6a6;
      }

      .cls-22 {
        stroke: #634d3f;
      }

      .cls-23 {
        stroke: #25a6a3;
      }

      .cls-47 {
        fill: #0b301b;
      }

      .cls-48 {
        fill: #02020d;
      }

      .cls-49 {
        fill: url(#Gradiente_sem_nome_7);
      }

      .cls-24 {
        stroke: #e0c2a0;
      }

      .cls-25 {
        stroke: #675548;
      }

      .cls-26 {
        stroke: #125b5d;
      }

      .cls-27 {
        stroke: #c8a07a;
      }

      .cls-28 {
        stroke: #4f8e7e;
      }

      .cls-50 {
        fill: #041e1c;
      }

      .cls-29 {
        stroke: #37bbb3;
      }

      .cls-30 {
        stroke: #1c908f;
      }

      .cls-31 {
        stroke: #5ad0c7;
      }

      .cls-32 {
        stroke: #154e53;
      }

      .cls-51 {
        fill: #4cc2b8;
      }

      .cls-33 {
        stroke: #817a6b;
      }

      .cls-52 {
        fill: #176d70;
      }

      .cls-53 {
        fill: #289999;
      }

      .cls-54 {
        fill: #66d2b2;
      }

      .cls-34 {
        stroke: #4a7777;
      }

      .cls-35 {
        stroke: #e0b99a;
      }

      .cls-36 {
        stroke: #fae7c3;
      }

      .cls-55 {
        fill: #c49871;
      }

      .cls-56 {
        fill: #0b554a;
      }

      .cls-37 {
        stroke: #136965;
      }
    </style>
    <linearGradient id="Gradiente_sem_nome_7" data-name="Gradiente sem nome 7" x1="15.59" y1="49.92" x2="371.99" y2="343.72" gradientUnits="userSpaceOnUse">
      <stop offset="0" stop-color="#331d81"/>
      <stop offset="1" stop-color="#16085e"/>
    </linearGradient>
  </defs>
  <rect class="cls-49" x="-.57" width="423.22" height="422.07"/>
  <g>
    <path class="cls-16" d="M317.58,420.73c2.03,1.2,3.75,1.59,5.14,1.18,1.54-.44,2.38-2.13,1.79-3.65-6.64-16.88-12.4-33.63-17.27-50.27-3.04-10.31-4.8-21.07-5.32-32.24-.07-1.64.66-3.21,1.96-4.21,2.47-1.89,6.27-5.1,11.34-9.58,15.46-13.72,22.49-31.65,21.09-53.82-.1-1.45,1.15-2.62,2.6-2.43l21.58,2.82c2.52.34,4.56-2.03,3.85-4.48-7.25-25.31-2.3-36.77,17.71-52.35,2.6-2.03,2.55-5.98-.1-7.91-20.16-14.82-16.88-38.44-2.89-56.1,1.84-2.3.83-5.73-1.94-6.71-4.65-1.62-17.39,4.21-22.49,6.98-12.05,6.52-23.32,14.36-33.78,23.52-.47.39-1.15-.07-.96-.64,3.11-8.97,7.06-16.9,11.78-23.84,12.32-18.03,13.79-37.68,4.38-58.92-6.05-13.6-15.41-24.4-28.1-32.36-3.63-2.28-6.61-1.67-8.97,1.81-1.84,2.72-2.2,6.39-1.1,11.07,1.96,8.3,4.65,19.62,2.2,28.17-2.4,8.43-7.69,16.02-15.85,22.81-.91.76-2.08,1.15-3.28,1.1-5.51-.27-11.07,1.59-16.66,5.59-.54.39-1.27.49-1.91.25l-27.39-10.19c-.56-.22-1.03-.66-1.27-1.2-3.55-7.86-7.23-15.24-11.02-22.15-3.65-6.61-8.08-11.34-16.09-9.06-.81.24-1.54.71-2.08,1.37-7.37,8.99-9.9,16.44-15.02,29.18-.42.98-1.2,1.74-2.2,2.08l-27.51,9.5c-.49.17-1,.12-1.42-.15-5.61-3.48-11.61-5.41-18.01-5.83-.86-.05-1.69-.37-2.35-.88-15.8-12.2-18.81-27.04-14.6-45.42,1.35-5.81,3.72-15.11-1.89-18.05-2.96-1.54-5.76-1.42-8.43.37-28.39,19.23-43.97,57.1-25.21,88.12,1.52,2.5,3.82,5.63,6.91,9.43,3.8,4.68,5.98,10.41,6.52,17.2.02.27-.32.44-.51.25-13.35-12.57-28.66-22.24-45.93-28.98-3.06-1.2-6.12-1.71-9.24-1.57-1.74.07-3.11,1.49-3.16,3.23-.07,2.5.78,4.85,2.55,7.03,13.74,17.17,12.1,39.91-4.8,52.91-2.84,2.18-2.87,6.44-.07,8.7,20.01,16.07,26.51,27.44,16.22,52.69-.96,2.33,1.08,4.8,3.55,4.31l23.15-4.56c1.49-.29,2.87.96,2.72,2.47-2.79,30.52,11.73,47.67,33.68,65.51.88.71,1.32,1.81,1.22,2.94-2.74,27.98-11.98,53.62-23.08,82.73-.61,1.59.49,3.36,2.18,3.48,2.94.24,4.53-.25,4.8-1.45"/>
    <path class="cls-26" d="M317.58,420.73c-8.57-21.09-15.38-42.26-20.43-63.45"/>
    <line class="cls-32" x1="297.15" y1="357.29" x2="294.45" y2="337.79"/>
    <path class="cls-10" d="M294.45,337.79c-1.45-1.2-2.5-3.33-3.16-6.44"/>
    <path class="cls-32" d="M291.29,331.34c20.36-12.49,38.34-31.11,37.82-56.69-.17-9.21-2.69-21.31-7.57-36.28"/>
    <path class="cls-26" d="M321.55,238.38l-7.59-51.05c-.07-.51-.22-1-.44-1.47l-10.71-23.71s-.02-.1.02-.12l.59-.39c.39-.27.93-.15,1.2.25l5.78,8.65c.88,1.32,2.94.86,3.16-.73l1.15-8.82c.2-1.57-.1-3.14-.86-4.51-5.19-9.48-12.15-17.25-20.87-23.25"/>
    <path class="cls-9" d="M292.98,133.21c-8.13-6.17-18.45-7.57-25.62-.17-.71.73-1.49,1.37-2.3,1.91-.66.44-1.49.49-2.2.15-10.26-5.1-22.34-9.36-36.18-12.79-.96-.24-1.79.69-1.42,1.59l3.65,9.48"/>
    <path class="cls-26" d="M228.9,133.38l.47,7.5c.05.98-1.18,1.42-1.76.64l-2.69-3.6"/>
    <path class="cls-34" d="M224.91,137.91l-12.35-26.75c-.61-1.35-2.52-1.32-3.14.02l-11.29,25.09"/>
    <path class="cls-26" d="M198.13,136.27l-1.62,3.75c-.71,1.67-3.21,1.1-3.14-.71l.22-5.29"/>
    <path class="cls-9" d="M193.6,134.02l4.19-10.46c.2-.54-.24-1.1-.81-1-13.25,2.08-25.67,6.17-37.21,12.32-.78.42-1.71.27-2.35-.32-9.8-9.21-20.28-8.72-31.45,1.45"/>
    <path class="cls-26" d="M125.96,136c-8.94,6.39-14.97,13.87-18.13,22.41-.66,1.86-.12,5.66,1.64,11.42.22.69,1.08.91,1.57.39l6.54-6.69c.34-.34.86-.49,1.35-.39l.05.05c.39.27.54.78.32,1.2-4.26,8.18-11.91,18.64-12.2,28.81-.44,16.29-4.16,36.65-11.2,61.02-2.79,9.68-3.5,20.28-2.13,31.85"/>
    <path class="cls-32" d="M93.77,286.07c2.16,10.95,7.18,20.06,15.09,27.29,11.32,10.34,23.22,19.74,35.72,28.22"/>
    <path class="cls-10" d="M144.58,341.58c-.02,3.36-1.13,5.36-3.33,6.05"/>
    <path class="cls-32" d="M141.25,347.63l-12-9.06c-.54-.42-1.35-.12-1.47.56l-3.6,21.63"/>
    <path class="cls-26" d="M124.17,360.76c-4.87,19.82-11.39,39.73-19.55,59.77"/>
    <path class="cls-6" d="M286.27,421.2l-8.18-29.32M144.04,391.53l-8.18,29.52"/>
    <path class="cls-23" d="M321.55,238.38c-1.2,6.39-1.3,11.98-.24,16.71,2.35,10.78,6.2,25.43.12,34.1-9.77,13.99-22.64,23.08-38.58,27.22"/>
    <path class="cls-37" d="M282.84,316.4c3.01-9.14,7.94-17.76,14.72-25.87,1.05-1.22,2.55-1.96,4.16-2.03l8.57-.25c.96-.05,1.69-.86,1.59-1.81l-.02-.07c-.05-.91-.83-1.59-1.76-1.54-4.48.27-8.48-.61-11.98-2.62-1.3-.73-2.96-.07-3.36,1.37l-1.74,6.27c-.17.56-.47,1.05-.91,1.42-4.83,4.04-8.55,8.65-11.17,13.79-5.81,11.39-12.86,19.4-22.46,24.11-10.51,5.14-21.53,11.61-33.12,19.43-9.68,6.49-19.43,6.47-29.3-.1-9.85-6.54-20.77-13.11-32.78-19.67-11-6.03-18.52-13.82-22.59-23.39-1.42-3.36-3.58-6.83-6.44-10.39-2.16-2.67-4.12-6.32-5.88-10.95-.29-.81-1.05-1.35-1.91-1.37-5.19-.22-8.6,1.71-14.09,3.33-.59.17-.86.59-.81,1.22.02.81.49,1.25,1.35,1.3,2.23.12,5.12.05,8.7-.27,1-.07,1.96.34,2.6,1.13,5.83,7.45,10.36,15.58,13.57,24.42"/>
    <path class="cls-23" d="M137.79,313.85c-12.93-4.73-21.93-9.21-26.95-13.47-5.46-4.63-11.17-9.41-17.07-14.31"/>
    <path class="cls-5" d="M209.45,140.43c-8.55,8.94-13.3,19.84-14.26,32.7-.07,1.13.27,2.2.98,3.06,1.89,2.28,3.14,2.03,3.75-.74"/>
    <path class="cls-31" d="M199.92,175.47c.07.27.17.49.29.71.32.61.98.96,1.67.86,5.81-.96,11.66-.86,17.52.32.66.15,1.35.05,2.01-.29.81-.42,1.18-.93,1.13-1.54"/>
    <path class="cls-5" d="M222.53,175.51l1.05.96c1.13,1,2.92.32,3.11-1.18,1.35-10.26-4.97-23.3-10-32.26"/>
    <path class="cls-21" d="M149.04,357.24c.96,8.75-.17,17.03-3.43,24.84-.69,1.62-.07,3.5,1.42,4.43,28.49,17.88,60.07,22.81,94.68,14.75,12.84-2.99,24.37-8.16,34.61-15.53.56-.42.83-1.13.69-1.81l-5.71-24.86"/>
    <path class="cls-23" d="M297.15,357.29c-8.72,11.2-15.07,22.73-19.06,34.59"/>
    <path class="cls-21" d="M278.09,391.88c-41.4,27-92.82,27.88-134.05-.34"/>
    <path class="cls-23" d="M144.04,391.53c-1.45-11.81-8.06-22.07-19.87-30.77"/>
    <path class="cls-7" d="M291.29,331.34c-8.89,6.08-16.93,13.18-24.11,21.29-9.48,10.75-14.75,16.49-15.8,17.17-16.24,10.68-38.9,9.92-58.62,7.99-11.64-1.15-21.24-6.05-28.86-14.72-6.2-7.03-12.64-14.21-19.33-21.48M137.79,313.85c4.95,7.62,11.32,13.99,19.11,19.11,1.1.73,1.79,1.94,1.86,3.26.42,7.55,2.18,13.42,5.24,17.64,6.57,9.04,14.85,3.92,19.03-4.14.32-.59,1.08-.78,1.64-.39,13.45,9.19,25.8,14.45,40.37,7.03,5.81-2.96,9.75-5.44,11.86-7.42.56-.54,1.47-.42,1.86.24,2.77,4.43,6.37,7.42,10.8,8.99,2.35.83,4.97.07,6.49-1.91,3.94-5.12,6.34-11.73,7.2-19.87.17-1.57.98-2.96,2.25-3.9,6.39-4.7,12.15-8.7,17.32-16.09"/>
    <path class="cls-6" d="M292.98,133.21c.39,2.18-.07,3.16-1.37,2.92-6.83-1.27-12.52-.15-17.03,3.38-2.03,1.59-4.16,3.09-6.39,4.53-.69.47-1.57.51-2.3.17-11.56-5.41-23.88-9.02-36.99-10.83M193.6,134.02c-7.2.02-12.57.71-16.09,2.06-5.68,2.2-13.03,5.17-22.02,8.89-1.57.66-3.38-.07-4.07-1.64-1.69-3.85-5.02-6-10.04-6.47-4.7-.44-9.85-.74-15.41-.86"/>
    <path class="cls-7" d="M294.45,337.79c-9.33,5.76-17.05,12.86-23.15,21.26"/>
    <path class="cls-18" d="M271.3,359.05c-16.46,22.66-37.14,27.56-64.6,26.9-10.51-.27-20.77-2.23-30.84-5.9-11.2-4.07-17.66-12.27-26.82-22.81"/>
    <line class="cls-7" x1="149.04" y1="357.24" x2="141.25" y2="347.63"/>
    <path class="cls-31" d="M224.91,137.91c-.39,3.58-3.14,5.29-8.21,5.12"/>
    <path class="cls-28" d="M216.7,143.03c-1.74-1.69-4.16-2.55-7.25-2.6"/>
    <path class="cls-31" d="M209.45,140.43c-3.5-.49-7.28-1.89-11.32-4.16"/>
    <path class="cls-28" d="M222.53,175.51l-9.7-26.7c-.39-1.1-1.89-1.3-2.55-.34-5.59,8.06-9.04,17.05-10.36,27"/>
    <path class="cls-25" d="M90.34,132.67l11.66,18.42c.34.51,1.1.56,1.49.1l15.92-18.74"/>
    <path class="cls-14" d="M119.42,132.45l11.07-7.86c.51-.37.56-1.08.12-1.52l-8.33-7.96"/>
    <line class="cls-22" x1="122.29" y1="115.1" x2="120.18" y2="111.75"/>
    <line class="cls-14" x1="120.18" y1="111.75" x2="114.52" y2="98.15"/>
    <line class="cls-3" x1="114.52" y1="98.15" x2="113.71" y2="81.76"/>
    <path class="cls-25" d="M113.71,81.76c.42-.88.56-1.74.42-2.57"/>
    <path class="cls-3" d="M114.13,79.19l3.75-15.48c.27-1.1-1-1.94-1.91-1.25-21.75,16.71-34.71,42.04-25.62,70.21"/>
    <path class="cls-35" d="M114.13,79.19c-.61.17-1.25-.17-1.91-.98-3.31-4.09-7.74-2.67-10.31,1.71-.37.61.07,1.4.78,1.42l11.02.42"/>
    <path class="cls-8" d="M114.52,98.15c-.93-.02-1.22.15-.88.54"/>
    <path class="cls-13" d="M113.64,98.69c-.15-1.52-.88-2.47-2.18-2.87-5.81-1.74-11.05-1.79-15.73-.17-.64.24-1.18.71-1.52,1.32-1.91,3.7-2.5,7.28-1.76,10.75.12.66,1,.81,1.37.25l1.81-2.79"/>
    <path class="cls-8" d="M95.63,105.18c.37,7.28,2.08,10.97,5.19,11.15"/>
    <line class="cls-13" x1="100.83" y1="116.33" x2="94.58" y2="121.42"/>
    <path class="cls-35" d="M94.58,121.42c-2.16,2.23-2.99,5.44-2.5,9.63.07.61-.32,1.18-.91,1.37-.24.07-.51.17-.83.24"/>
    <path class="cls-20" d="M120.18,111.75c.24.34.24.64-.02.88-.07.07-.2.1-.29.07-6.49-.96-12.84.27-19.03,3.63M122.29,115.1c-9.09,1.86-16.51,5.61-22.27,11.24"/>
    <path class="cls-27" d="M100.02,126.35l-4.21,4.61c-.91.98-2.52.22-2.35-1.1l1.13-8.43"/>
    <path class="cls-20" d="M113.64,98.69c-3.16.42-6.49.54-9.97.42-3.55-.12-6.25,1.89-8.04,6.08"/>
    <line class="cls-24" x1="119.42" y1="132.45" x2="100.02" y2="126.35"/>
    <path class="cls-14" d="M307.51,77.53c1.22,5.51,1.52,11,.91,16.51"/>
    <line class="cls-25" x1="308.42" y1="94.04" x2="307.41" y2="100.23"/>
    <line class="cls-14" x1="307.41" y1="100.23" x2="301.71" y2="112.36"/>
    <path class="cls-25" d="M301.71,112.36c-.98.81-1.96,2.11-2.96,3.9"/>
    <path class="cls-14" d="M298.74,116.26l-7.01,6.81c-.47.47-.42,1.22.12,1.59l10.14,6.98"/>
    <path class="cls-25" d="M302,131.64c6.39,5.51,11.91,12,16.58,19.48.29.44.93.49,1.3.1,15.26-16.58,19.08-34.96,11.42-55.07"/>
    <path class="cls-14" d="M331.3,96.14c-3.58-9.48-8.43-17.17-14.55-23.08"/>
    <path class="cls-33" d="M316.75,73.07c-2.94-3.87-6.66-7.3-11.17-10.31-.78-.54-1.81.2-1.57,1.1l3.5,13.67"/>
    <path class="cls-36" d="M316.75,73.07c.17,1.3-.88,1.89-3.16,1.76-.78-.02-1.54.22-2.16.73-1.2,1-2.52,1.67-3.92,1.96"/>
    <path class="cls-24" d="M331.3,96.14c-8.11-4.09-14.99-4.24-20.6-.39-.12.07-.24.12-.39.15-1.1.17-1.71-.44-1.89-1.86M302,131.64l12.37-4.63c2.38-.91,2.87-4.07.83-5.61-4.14-3.14-9.63-4.85-16.46-5.14M301.71,112.36c6.76-.47,13.13.71,19.11,3.48,1.32.64,2.92.15,3.67-1.13,1.15-1.96,1.94-4.73,2.35-8.33.1-.81-.12-1.62-.64-2.25-4.65-5.85-11.61-4.65-18.79-3.9"/>
    <path class="cls-1" d="M196.83,114.54c-.29.86.1,1.81.93,2.18.81.39,1.79.12,2.28-.66,3.36-5.36,9.21-17.2,15.75-8.79,2.43,3.11,3.99,5.59,4.73,7.37.34.91,1.3,1.42,2.23,1.22l.93-.17c.71-.15,1.13-.86.93-1.54-2.67-8.94-6.86-17.03-12.57-24.23-.76-.98-2.28-.93-2.99.07-4.83,6.74-8.89,14.92-12.22,24.55"/>
    <path class="cls-32" d="M357.09,155.62c-15.16,7.37-28.05,16.88-38.66,28.56-.51.59-.71,1.37-.51,2.13,1.2,4.65,2.57,12.22,4.07,22.71,2.01,13.94,5.98,30.18,11.91,48.77.22.69.83,1.18,1.54,1.22l14.77.91"/>
    <path class="cls-12" d="M350.21,259.93c1.59.37,2.96.47,4.12.29.69-.1,1.13-.76.98-1.42-4.9-20.53.76-36.45,16.98-47.75"/>
    <path class="cls-9" d="M372.28,211.06c1.18-.64,2.01-1.32,2.47-2.03.47-.73.32-1.69-.37-2.25-17.1-13.79-16.44-37.16-6.61-54.92.27-.47-.22-1-.71-.78l-9.97,4.56"/>
    <path class="cls-17" d="M372.28,211.06c-.22-1.79-.81-3.06-1.74-3.85-.39-.32-.91-.47-1.4-.39l-7.72,1.32"/>
    <path class="cls-21" d="M361.43,208.15c-10.88-.2-21.7,1.15-32.48,4.04-1.15.32-2.28-.61-2.18-1.81.64-7.3,2.57-14.43,5.81-21.41,3.41-7.3,11.56-18.42,24.52-33.34"/>
    <path class="cls-4" d="M361.43,208.15c.66.37,1.05.71,1.2,1.05.51,1.4.1,2.4-1.3,3.04-9.97,4.53-19.65,9.36-29.03,14.48-1.27.69-1.67,2.35-.83,3.53,7.06,9.99,11.07,17.34,19.01,22.02.69.42,1.13,1.13,1.18,1.91.12,1.76-.37,3.67-1.45,5.76"/>
    <path class="cls-32" d="M71.99,259.98l15.07-.96c.71-.05,1.32-.51,1.54-1.2,6.39-19.08,10.46-38.07,12.25-56.93.51-5.41,1.94-9.92,3.55-14.28.54-1.45.12-3.04-1-4.07-11.2-10.17-23.39-19.21-36.65-27.09-.47-.27-.91-.42-1.32-.44-.47-.02-.91.02-1.37.12"/>
    <path class="cls-9" d="M64.06,155.13c-2.67-2.25-5.59-3.55-8.7-3.92-.59-.07-1.03.56-.73,1.1,9.73,17.56,9.6,41.18-6.83,54.6-.88.71-.83,2.06.1,2.72,17.93,12.67,23.96,29.1,18.08,49.34-.2.71.37,1.42,1.13,1.37l4.9-.37"/>
    <path class="cls-21" d="M64.06,155.13c.07,1.1.34,1.94.86,2.55,14.58,16.76,27.36,30.23,31.36,51.08.44,2.38-1.69,4.43-4.04,3.9-13.94-3.23-25.38-6.57-37.55-6.12-1.79.07-2.77,2.08-1.74,3.53,1.57,2.18,4.07,3.5,7.52,3.92.76.1,1.52.29,2.25.56,11.76,4.34,20.09,6.64,28.47,12.44,1,.69,1.42,1.98.98,3.14-3.28,8.75-9.14,14.62-17.59,17.66-.76.27-1.42.73-1.96,1.32-2.65,3.01-2.84,6.64-.61,10.88"/>
    <path class="cls-30" d="M245.14,201.16l.02.27c.05,2.33,2.65,3.72,4.63,2.47,13.82-8.79,27.19-12.59,40.13-11.34,4.65.44,8.52-.24,7.3-5.76-1.52-6.88-12.69-6.66-17.81-6.08-12.25,1.37-22.37,5.36-30.38,11.95-2.52,2.08-3.97,5.22-3.89,8.48M177.87,202.14c.15-3.28-1.22-6.44-3.72-8.6-7.91-6.79-17.98-11.02-30.25-12.66-5.14-.69-16.34-1.15-18.03,5.73-1.35,5.51,2.55,6.27,7.23,5.93,13.01-.96,26.36,3.11,40.05,12.25,1.96,1.3,4.61-.02,4.7-2.38l.02-.27"/>
    <path class="cls-31" d="M202.3,212.46c.12.61.37,1.2.73,1.71.32.47.78.76,1.32.86,6.98,1.37,11.93.29,14.85-3.26"/>
    <path class="cls-5" d="M219.2,211.77c.12,1.15.81,1.69,2.01,1.64,1-.02,1.54-.54,1.57-1.54.22-8.65-2.2-16.29-7.28-22.88-2.33-3.04-6.88-3.09-9.26-.1-5.02,6.32-7.5,13.91-7.4,22.78,0,.96.49,1.54,1.49,1.79.64.17,1.3-.17,1.96-1"/>
    <path class="cls-28" d="M219.2,211.77c-1.98-5.98-3.99-11.51-6.08-16.63-.56-1.37-2.16-2.01-3.48-1.37-.27.12-.54.54-.86,1.22-2.52,5.68-4.68,11.51-6.49,17.47"/>
    <path class="cls-19" d="M119.53,218.08c-10.25,15.67-5.72,36.78,10.13,47.15,15.85,10.36,37.01,6.07,47.26-9.59,10.25-15.67,5.72-36.78-10.13-47.15-15.85-10.36-37.01-6.07-47.26,9.59M307.71,236.78c0-18.79-15.21-34-34-34s-34,15.21-34,34,15.21,34,34,34,34-15.21,34-34"/>
    <path class="cls-29" d="M211.09,245.01c3.99.1,8.01.69,12.05,1.69,1.03.27,1.84-.88,1.22-1.76-3.65-5.14-7.99-7.81-13.06-7.96-5.05-.15-9.53,2.25-13.47,7.2-.66.83.07,2.03,1.1,1.84,4.12-.78,8.16-1.13,12.15-1M210.72,260.96c5.54-.02,11.1.34,16.68,1.05.76.1,1.42-.49,1.42-1.25-.02-6.71-12.69-7.79-18.13-7.77-5.46,0-18.1,1.2-18.08,7.91,0,.76.69,1.35,1.42,1.25,5.61-.78,11.17-1.18,16.68-1.2M211.46,267.77c-6.86,0-14.38,1.37-19.99,5.46-1.49,1.08-1.54,3.28-.1,4.41.88.69,1.96.88,3.23.56,6.34-1.49,11.95-2.25,16.85-2.25s10.53.76,16.85,2.25c1.3.32,2.38.12,3.23-.56,1.45-1.13,1.4-3.33-.07-4.41-5.61-4.09-13.16-5.46-20.01-5.46M194.09,292.59l35.37,1.22"/>
    <path class="cls-30" d="M229.46,293.81c7.03-6.34,14.01-8.67,20.95-6.93,6.39,1.59,8.87,7.13,7.47,16.66-.1.69.51,1.22,1.18,1.05l1.35-.42c1.32-.39,2.28-1.52,2.45-2.89,1.3-10.88-2.62-17.47-11.76-19.79-7.81-1.98-14.23,0-19.3,5.95"/>
    <path class="cls-29" d="M231.79,287.44c-12.27-3.58-24.64-3.92-37.06-1.05-.32.07-.61.27-.83.54-.73.88-.88,2.16-.47,3.85"/>
    <path class="cls-30" d="M193.43,290.77c-7.77-9.16-17.03-14.09-27.76-6.08-6.54,4.9-8.06,11.12-4.56,18.67.37.81,1.27,1.25,2.16,1,.86-.22,1.42-1.05,1.35-1.94-.71-7.62-1.42-13.33,7.64-15.16,7.55-1.52,13.96,1,19.28,7.57.69.86,2.01.76,2.55-.2.32-.56.32-1.25,0-2.06"/>
    <path class="cls-15" d="M193.43,290.77l.66,1.81M229.46,293.81c-1.15-1.35-.37-3.45,2.33-6.37"/>
    <path class="cls-5" d="M189.02,313.51c.93-7.5-1.52-12.84-7.37-16.02-2.65-1.45-5.95-.81-7.86,1.52l-.05.07c-1.81,2.23-1.27,5.54,1.15,7.1l12.57,8.06c.64.39,1.47,0,1.57-.74M232.84,313.02c.05.73.86,1.2,1.52.83l13.16-7.32c2.52-1.42,3.28-4.73,1.59-7.08l-.02-.07c-1.79-2.47-5.07-3.33-7.84-2.03-6.08,2.84-8.87,8.06-8.4,15.68"/>
    <path class="cls-11" d="M176.6,236.91c0-15.53-12.59-28.12-28.12-28.12s-28.12,12.59-28.12,28.12,12.59,28.12,28.12,28.12,28.12-12.59,28.12-28.12M301.21,229.51c-4.04-14.99-19.64-23.81-34.83-19.71-15.19,4.1-24.23,19.56-20.19,34.55,4.04,14.99,19.64,23.81,34.83,19.71,15.19-4.1,24.23-19.56,20.19-34.55M168.88,237.84c0-8.3-6.71-15.02-15.02-15.02s-15.02,6.71-15.02,15.02,6.71,15.02,15.02,15.02,15.02-6.71,15.02-15.02M282.92,237.79c0-8.21-6.66-14.87-14.87-14.87s-14.87,6.66-14.87,14.87,6.66,14.87,14.87,14.87,14.87-6.66,14.87-14.87"/>
    <path class="cls-2" d="M175.03,350.45c1.45-1.25,2.4-2.25,2.82-3.01.39-.71.22-1.59-.42-2.08-3.55-2.72-7.64-5.12-12.3-7.23-.17-.07-.34-.02-.54.15-.17.15-.24.29-.2.49,1.35,4.92,3.09,9.33,5.22,13.28.39.69,1.22,1,1.98.73.81-.32,1.96-1.08,3.43-2.33M247,349.84c1.42,1.3,2.55,2.08,3.36,2.43.73.29,1.57,0,1.98-.69,2.23-3.85,4.07-8.18,5.56-13.06.05-.17-.02-.32-.17-.47-.2-.17-.37-.24-.54-.17-4.68,1.96-8.84,4.24-12.42,6.83-.66.47-.86,1.35-.49,2.06.42.76,1.32,1.79,2.72,3.06"/>
    <path class="cls-48" d="M317.58,420.73c-8.57-21.09-15.38-42.26-20.43-63.45l-2.69-19.5c-1.45-1.2-2.5-3.33-3.16-6.44,20.36-12.49,38.34-31.11,37.82-56.69-.17-9.21-2.69-21.31-7.57-36.28l-7.59-51.05c-.07-.51-.22-1-.44-1.47l-10.71-23.71s-.02-.1.02-.12l.59-.39c.39-.27.93-.15,1.2.25l5.78,8.65c.88,1.32,2.94.86,3.16-.73l1.15-8.82c.2-1.57-.1-3.14-.86-4.51-5.19-9.48-12.15-17.25-20.87-23.25-8.13-6.17-18.45-7.57-25.62-.17-.71.73-1.49,1.37-2.3,1.91-.66.44-1.49.49-2.2.15-10.26-5.1-22.34-9.36-36.18-12.79-.96-.24-1.79.69-1.42,1.59l3.65,9.48.47,7.5c.05.98-1.18,1.42-1.76.64l-2.69-3.6-12.35-26.75c-.61-1.35-2.52-1.32-3.14.02l-11.29,25.09-1.62,3.75c-.71,1.67-3.21,1.1-3.14-.71l.22-5.29,4.19-10.46c.2-.54-.24-1.1-.81-1-13.25,2.08-25.67,6.17-37.21,12.32-.78.42-1.71.27-2.35-.32-9.8-9.21-20.28-8.72-31.45,1.45-8.94,6.39-14.97,13.87-18.13,22.41-.66,1.86-.12,5.66,1.64,11.42.22.69,1.08.91,1.57.39l6.54-6.69c.34-.34.86-.49,1.35-.39l.05.05c.39.27.54.78.32,1.2-4.26,8.18-11.91,18.64-12.2,28.81-.44,16.29-4.16,36.65-11.2,61.02-2.79,9.68-3.5,20.28-2.13,31.85,2.16,10.95,7.18,20.06,15.09,27.29,11.32,10.34,23.22,19.74,35.72,28.22-.02,3.36-1.13,5.36-3.33,6.05l-12-9.06c-.54-.42-1.35-.12-1.47.56l-3.6,21.63c-4.87,19.82-11.39,39.73-19.55,59.77-.27,1.2-1.86,1.69-4.8,1.45-1.69-.12-2.79-1.89-2.18-3.48,11.1-29.1,20.33-54.75,23.08-82.73.1-1.13-.34-2.23-1.22-2.94-21.95-17.83-36.48-34.98-33.68-65.51.15-1.52-1.22-2.77-2.72-2.47l-23.15,4.56c-2.47.49-4.51-1.98-3.55-4.31,10.29-25.26,3.8-36.62-16.22-52.69-2.79-2.25-2.77-6.52.07-8.7,16.9-13.01,18.54-35.74,4.8-52.91-1.76-2.18-2.62-4.53-2.55-7.03.05-1.74,1.42-3.16,3.16-3.23,3.11-.15,6.17.37,9.24,1.57,17.27,6.74,32.58,16.41,45.93,28.98.2.2.54.02.51-.25-.54-6.79-2.72-12.52-6.52-17.2-3.09-3.8-5.39-6.93-6.91-9.43-18.76-31.01-3.18-68.89,25.21-88.12,2.67-1.79,5.46-1.91,8.43-.37,5.61,2.94,3.23,12.25,1.89,18.05-4.21,18.37-1.2,33.22,14.6,45.42.66.51,1.49.83,2.35.88,6.39.42,12.4,2.35,18.01,5.83.42.27.93.32,1.42.15l27.51-9.5c1-.34,1.79-1.1,2.2-2.08,5.12-12.74,7.64-20.19,15.02-29.18.54-.66,1.27-1.13,2.08-1.37,8.01-2.28,12.44,2.45,16.09,9.06,3.8,6.91,7.47,14.28,11.02,22.15.24.54.71.98,1.27,1.2l27.39,10.19c.64.24,1.37.15,1.91-.25,5.59-3.99,11.15-5.85,16.66-5.59,1.2.05,2.38-.34,3.28-1.1,8.16-6.79,13.45-14.38,15.85-22.81,2.45-8.55-.24-19.87-2.2-28.17-1.1-4.68-.73-8.35,1.1-11.07,2.35-3.48,5.34-4.09,8.97-1.81,12.69,7.96,22.05,18.76,28.1,32.36,9.41,21.24,7.94,40.89-4.38,58.92-4.73,6.93-8.67,14.87-11.78,23.84-.2.56.49,1.03.96.64,10.46-9.16,21.73-17,33.78-23.52,5.1-2.77,17.83-8.6,22.49-6.98,2.77.98,3.77,4.41,1.94,6.71-13.99,17.66-17.27,41.28,2.89,56.1,2.65,1.94,2.69,5.88.1,7.91-20.01,15.58-24.96,27.05-17.71,52.35.71,2.45-1.32,4.83-3.85,4.48l-21.58-2.82c-1.45-.2-2.69.98-2.6,2.43,1.4,22.17-5.63,40.1-21.09,53.82-5.07,4.48-8.87,7.69-11.34,9.58-1.3,1-2.03,2.57-1.96,4.21.51,11.17,2.28,21.93,5.32,32.24,4.87,16.63,10.63,33.39,17.27,50.27.59,1.52-.24,3.21-1.79,3.65-1.4.42-3.11.02-5.14-1.18M90.34,132.67l11.66,18.42c.34.51,1.1.56,1.49.1l15.92-18.74,11.07-7.86c.51-.37.56-1.08.12-1.52l-8.33-7.96-2.11-3.36-5.66-13.6-.81-16.39c.42-.88.56-1.74.42-2.57l3.75-15.48c.27-1.1-1-1.94-1.91-1.25-21.75,16.71-34.71,42.04-25.62,70.21M307.51,77.53c1.22,5.51,1.52,11,.91,16.51l-1,6.2-5.71,12.13c-.98.81-1.96,2.11-2.96,3.9l-7.01,6.81c-.47.47-.42,1.22.12,1.59l10.14,6.98c6.39,5.51,11.91,12,16.58,19.48.29.44.93.49,1.3.1,15.26-16.58,19.08-34.96,11.42-55.07-3.58-9.48-8.43-17.17-14.55-23.08-2.94-3.87-6.66-7.3-11.17-10.31-.78-.54-1.81.2-1.57,1.1l3.5,13.67M196.83,114.54c-.29.86.1,1.81.93,2.18.81.39,1.79.12,2.28-.66,3.36-5.36,9.21-17.2,15.75-8.79,2.43,3.11,3.99,5.59,4.73,7.37.34.91,1.3,1.42,2.23,1.22l.93-.17c.71-.15,1.13-.86.93-1.54-2.67-8.94-6.86-17.03-12.57-24.23-.76-.98-2.28-.93-2.99.07-4.83,6.74-8.89,14.92-12.22,24.55M357.09,155.62c-15.16,7.37-28.05,16.88-38.66,28.56-.51.59-.71,1.37-.51,2.13,1.2,4.65,2.57,12.22,4.07,22.71,2.01,13.94,5.98,30.18,11.91,48.77.22.69.83,1.18,1.54,1.22l14.77.91c1.59.37,2.96.47,4.12.29.69-.1,1.13-.76.98-1.42-4.9-20.53.76-36.45,16.98-47.75,1.18-.64,2.01-1.32,2.47-2.03.47-.73.32-1.69-.37-2.25-17.1-13.79-16.44-37.16-6.61-54.92.27-.47-.22-1-.71-.78l-9.97,4.56M71.99,259.98l15.07-.96c.71-.05,1.32-.51,1.54-1.2,6.39-19.08,10.46-38.07,12.25-56.93.51-5.41,1.94-9.92,3.55-14.28.54-1.45.12-3.04-1-4.07-11.2-10.17-23.39-19.21-36.65-27.09-.47-.27-.91-.42-1.32-.44-.47-.02-.91.02-1.37.12-2.67-2.25-5.59-3.55-8.7-3.92-.59-.07-1.03.56-.73,1.1,9.73,17.56,9.6,41.18-6.83,54.6-.88.71-.83,2.06.1,2.72,17.93,12.67,23.96,29.1,18.08,49.34-.2.71.37,1.42,1.13,1.37l4.9-.37h0Z"/>
    <path class="cls-41" d="M114.13,79.19c-.61.17-1.25-.17-1.91-.98-3.31-4.09-7.74-2.67-10.31,1.71-.37.61.07,1.4.78,1.42l11.02.42.81,16.39c-.93-.02-1.22.15-.88.54-.15-1.52-.88-2.47-2.18-2.87-5.81-1.74-11.05-1.79-15.73-.17-.64.24-1.18.71-1.52,1.32-1.91,3.7-2.5,7.28-1.76,10.75.12.66,1,.81,1.37.25l1.81-2.79c.37,7.28,2.08,10.97,5.19,11.15l-6.25,5.1c-2.16,2.23-2.99,5.44-2.5,9.63.07.61-.32,1.18-.91,1.37-.24.07-.51.17-.83.24-9.09-28.17,3.87-53.5,25.62-70.21.91-.69,2.18.15,1.91,1.25l-3.75,15.48h0Z"/>
    <path class="cls-46" d="M316.75,73.07c.17,1.3-.88,1.89-3.16,1.76-.78-.02-1.54.22-2.16.73-1.2,1-2.52,1.67-3.92,1.96l-3.5-13.67c-.24-.91.78-1.64,1.57-1.1,4.51,3.01,8.23,6.44,11.17,10.31h0Z"/>
    <path class="cls-43" d="M331.3,96.14c-8.11-4.09-14.99-4.24-20.6-.39-.12.07-.24.12-.39.15-1.1.17-1.71-.44-1.89-1.86.61-5.51.32-11-.91-16.51,1.4-.29,2.72-.96,3.92-1.96.61-.51,1.37-.76,2.16-.73,2.28.12,3.33-.47,3.16-1.76,6.12,5.9,10.97,13.6,14.55,23.08h0Z"/>
    <path class="cls-44" d="M114.13,79.19c.15.83,0,1.69-.42,2.57l-11.02-.42c-.71-.02-1.15-.81-.78-1.42,2.57-4.38,7.01-5.81,10.31-1.71.66.81,1.3,1.15,1.91.98h0Z"/>
    <path class="cls-45" d="M196.83,114.54c3.33-9.63,7.4-17.81,12.22-24.55.71-1,2.23-1.05,2.99-.07,5.71,7.2,9.9,15.29,12.57,24.23.2.69-.22,1.4-.93,1.54l-.93.17c-.93.2-1.89-.32-2.23-1.22-.73-1.79-2.3-4.26-4.73-7.37-6.54-8.4-12.4,3.43-15.75,8.79-.49.78-1.47,1.05-2.28.66-.83-.37-1.22-1.32-.93-2.18h0Z"/>
    <path class="cls-44" d="M331.3,96.14c7.67,20.11,3.85,38.49-11.42,55.07-.37.39-1,.34-1.3-.1-4.68-7.47-10.19-13.96-16.58-19.48l12.37-4.63c2.38-.91,2.87-4.07.83-5.61-4.14-3.14-9.63-4.85-16.46-5.14,1-1.79,1.98-3.09,2.96-3.9,6.76-.47,13.13.71,19.11,3.48,1.32.64,2.92.15,3.67-1.13,1.15-1.96,1.94-4.73,2.35-8.33.1-.81-.12-1.62-.64-2.25-4.65-5.85-11.61-4.65-18.79-3.9l1-6.2c.17,1.42.78,2.03,1.89,1.86.15-.02.27-.07.39-.15,5.61-3.85,12.49-3.7,20.6.39h0Z"/>
    <path class="cls-55" d="M113.64,98.69c-3.16.42-6.49.54-9.97.42-3.55-.12-6.25,1.89-8.04,6.08l-1.81,2.79c-.37.56-1.25.42-1.37-.25-.73-3.48-.15-7.06,1.76-10.75.34-.61.88-1.08,1.52-1.32,4.68-1.62,9.92-1.57,15.73.17,1.3.39,2.03,1.35,2.18,2.87h0Z"/>
    <path class="cls-43" d="M114.52,98.15l5.66,13.6c.24.34.24.64-.02.88-.07.07-.2.1-.29.07-6.49-.96-12.84.27-19.03,3.63-3.11-.17-4.83-3.87-5.19-11.15,1.79-4.19,4.48-6.2,8.04-6.08,3.48.12,6.81,0,9.97-.42-.34-.39-.05-.56.88-.54h0Z"/>
    <path class="cls-43" d="M301.71,112.36l5.71-12.13c7.18-.76,14.14-1.96,18.79,3.9.51.64.73,1.45.64,2.25-.42,3.6-1.2,6.37-2.35,8.33-.76,1.27-2.35,1.76-3.67,1.13-5.98-2.77-12.35-3.94-19.11-3.48h0Z"/>
    <path class="cls-39" d="M224.91,137.91c-.39,3.58-3.14,5.29-8.21,5.12-1.74-1.69-4.16-2.55-7.25-2.6-3.5-.49-7.28-1.89-11.32-4.16l11.29-25.09c.61-1.35,2.52-1.37,3.14-.02l12.35,26.75h0Z"/>
    <path class="cls-55" d="M122.29,115.1c-9.09,1.86-16.51,5.61-22.27,11.24l-4.21,4.61c-.91.98-2.52.22-2.35-1.1l1.13-8.43,6.25-5.1c6.2-3.36,12.54-4.58,19.03-3.63.1.02.22,0,.29-.07.27-.24.27-.54.02-.88l2.11,3.36h0Z"/>
    <path class="cls-43" d="M122.29,115.1l8.33,7.96c.44.44.39,1.15-.12,1.52l-11.07,7.86-19.4-6.1c5.76-5.63,13.18-9.38,22.27-11.24h0Z"/>
    <path class="cls-43" d="M298.74,116.26c6.83.29,12.32,2.01,16.46,5.14,2.03,1.54,1.54,4.7-.83,5.61l-12.37,4.63-10.14-6.98c-.54-.37-.59-1.13-.12-1.59l7.01-6.81h0Z"/>
    <path class="cls-44" d="M94.58,121.42l-1.13,8.43c-.17,1.32,1.45,2.08,2.35,1.1l4.21-4.61,19.4,6.1-15.92,18.74c-.39.47-1.15.42-1.49-.1l-11.66-18.42c.32-.07.59-.17.83-.24.59-.2.98-.76.91-1.37-.49-4.19.34-7.4,2.5-9.63h0Z"/>
    <path class="cls-54" d="M292.98,133.21c.39,2.18-.07,3.16-1.37,2.92-6.83-1.27-12.52-.15-17.03,3.38-2.03,1.59-4.16,3.09-6.39,4.53-.69.47-1.57.51-2.3.17-11.56-5.41-23.88-9.02-36.99-10.83l-3.65-9.48c-.37-.91.47-1.84,1.42-1.59,13.84,3.43,25.92,7.69,36.18,12.79.71.34,1.54.29,2.2-.15.81-.54,1.59-1.18,2.3-1.91,7.18-7.4,17.49-6,25.62.17h0Z"/>
    <path class="cls-54" d="M193.6,134.02c-7.2.02-12.57.71-16.09,2.06-5.68,2.2-13.03,5.17-22.02,8.89-1.57.66-3.38-.07-4.07-1.64-1.69-3.85-5.02-6-10.04-6.47-4.7-.44-9.85-.74-15.41-.86,11.17-10.17,21.66-10.66,31.45-1.45.64.59,1.57.73,2.35.32,11.54-6.15,23.96-10.24,37.21-12.32.56-.1,1,.47.81,1l-4.19,10.46h0Z"/>
    <path class="cls-40" d="M292.98,133.21c8.72,6,15.68,13.77,20.87,23.25.76,1.37,1.05,2.94.86,4.51l-1.15,8.82c-.22,1.59-2.28,2.06-3.16.73l-5.78-8.65c-.27-.39-.81-.51-1.2-.25l-.59.39s-.05.07-.02.12l10.71,23.71c.22.47.37.96.44,1.47l7.59,51.05c-1.2,6.39-1.3,11.98-.24,16.71,2.35,10.78,6.2,25.43.12,34.1-9.77,13.99-22.64,23.08-38.58,27.22,3.01-9.14,7.94-17.76,14.72-25.87,1.05-1.22,2.55-1.96,4.16-2.03l8.57-.25c.96-.05,1.69-.86,1.59-1.81l-.02-.07c-.05-.91-.83-1.59-1.76-1.54-4.48.27-8.48-.61-11.98-2.62-1.3-.73-2.96-.07-3.36,1.37l-1.74,6.27c-.17.56-.47,1.05-.91,1.42-4.83,4.04-8.55,8.65-11.17,13.79-5.81,11.39-12.86,19.4-22.46,24.11-10.51,5.14-21.53,11.61-33.12,19.43-9.68,6.49-19.43,6.47-29.3-.1-9.85-6.54-20.77-13.11-32.78-19.67-11-6.03-18.52-13.82-22.59-23.39-1.42-3.36-3.58-6.83-6.44-10.39-2.16-2.67-4.12-6.32-5.88-10.95-.29-.81-1.05-1.35-1.91-1.37-5.19-.22-8.6,1.71-14.09,3.33-.59.17-.86.59-.81,1.22.02.81.49,1.25,1.35,1.3,2.23.12,5.12.05,8.7-.27,1-.07,1.96.34,2.6,1.13,5.83,7.45,10.36,15.58,13.57,24.42-12.93-4.73-21.93-9.21-26.95-13.47-5.46-4.63-11.17-9.41-17.07-14.31-1.37-11.56-.66-22.17,2.13-31.85,7.03-24.37,10.75-44.73,11.2-61.02.29-10.17,7.94-20.63,12.2-28.81.22-.42.07-.93-.32-1.2l-.05-.05c-.49-.1-1,.05-1.35.39l-6.54,6.69c-.49.51-1.35.29-1.57-.39-1.76-5.76-2.3-9.55-1.64-11.42,3.16-8.55,9.19-16.02,18.13-22.41,5.56.12,10.71.42,15.41.86,5.02.47,8.35,2.62,10.04,6.47.69,1.57,2.5,2.3,4.07,1.64,8.99-3.72,16.34-6.69,22.02-8.89,3.53-1.35,8.89-2.03,16.09-2.06l-.22,5.29c-.07,1.81,2.43,2.38,3.14.71l1.62-3.75c4.04,2.28,7.81,3.67,11.32,4.16-8.55,8.94-13.3,19.84-14.26,32.7-.07,1.13.27,2.2.98,3.06,1.89,2.28,3.14,2.03,3.75-.74.07.27.17.49.29.71.32.61.98.96,1.67.86,5.81-.96,11.66-.86,17.52.32.66.15,1.35.05,2.01-.29.81-.42,1.18-.93,1.13-1.54l1.05.96c1.13,1,2.92.32,3.11-1.18,1.35-10.26-4.97-23.3-10-32.26,5.07.17,7.81-1.54,8.21-5.12l2.69,3.6c.59.78,1.81.34,1.76-.64l-.47-7.5c13.11,1.81,25.43,5.41,36.99,10.83.73.34,1.62.29,2.3-.17,2.23-1.45,4.36-2.94,6.39-4.53,4.51-3.53,10.19-4.65,17.03-3.38,1.3.24,1.76-.74,1.37-2.92M245.14,201.16l.02.27c.05,2.33,2.65,3.72,4.63,2.47,13.82-8.79,27.19-12.59,40.13-11.34,4.65.44,8.52-.24,7.3-5.76-1.52-6.88-12.69-6.66-17.81-6.08-12.25,1.37-22.37,5.36-30.38,11.95-2.52,2.08-3.97,5.22-3.89,8.48M177.87,202.14c.15-3.28-1.22-6.44-3.72-8.6-7.91-6.79-17.98-11.02-30.25-12.66-5.14-.69-16.34-1.15-18.03,5.73-1.35,5.51,2.55,6.27,7.23,5.93,13.01-.96,26.36,3.11,40.05,12.25,1.96,1.3,4.61-.02,4.7-2.38l.02-.27M202.3,212.46c.12.61.37,1.2.73,1.71.32.47.78.76,1.32.86,6.98,1.37,11.93.29,14.85-3.26.12,1.15.81,1.69,2.01,1.64,1-.02,1.54-.54,1.57-1.54.22-8.65-2.2-16.29-7.28-22.88-2.33-3.04-6.88-3.09-9.26-.1-5.02,6.32-7.5,13.91-7.4,22.78,0,.96.49,1.54,1.49,1.79.64.17,1.3-.17,1.96-1M119.53,218.08c-10.25,15.67-5.72,36.78,10.13,47.15,15.85,10.36,37.01,6.07,47.26-9.59,10.25-15.67,5.72-36.78-10.13-47.15-15.85-10.36-37.01-6.07-47.26,9.59M307.71,236.78c0-18.79-15.21-34-34-34s-34,15.21-34,34,15.21,34,34,34,34-15.21,34-34M211.09,245.01c3.99.1,8.01.69,12.05,1.69,1.03.27,1.84-.88,1.22-1.76-3.65-5.14-7.99-7.81-13.06-7.96-5.05-.15-9.53,2.25-13.47,7.2-.66.83.07,2.03,1.1,1.84,4.12-.78,8.16-1.13,12.15-1M210.72,260.96c5.54-.02,11.1.34,16.68,1.05.76.1,1.42-.49,1.42-1.25-.02-6.71-12.69-7.79-18.13-7.77-5.46,0-18.1,1.2-18.08,7.91,0,.76.69,1.35,1.42,1.25,5.61-.78,11.17-1.18,16.68-1.2M211.46,267.77c-6.86,0-14.38,1.37-19.99,5.46-1.49,1.08-1.54,3.28-.1,4.41.88.69,1.96.88,3.23.56,6.34-1.49,11.95-2.25,16.85-2.25s10.53.76,16.85,2.25c1.3.32,2.38.12,3.23-.56,1.45-1.13,1.4-3.33-.07-4.41-5.61-4.09-13.16-5.46-20.01-5.46M194.09,292.59l35.37,1.22c7.03-6.34,14.01-8.67,20.95-6.93,6.39,1.59,8.87,7.13,7.47,16.66-.1.69.51,1.22,1.18,1.05l1.35-.42c1.32-.39,2.28-1.52,2.45-2.89,1.3-10.88-2.62-17.47-11.76-19.79-7.81-1.98-14.23,0-19.3,5.95-12.27-3.58-24.64-3.92-37.06-1.05-.32.07-.61.27-.83.54-.73.88-.88,2.16-.47,3.85-7.77-9.16-17.03-14.09-27.76-6.08-6.54,4.9-8.06,11.12-4.56,18.67.37.81,1.27,1.25,2.16,1,.86-.22,1.42-1.05,1.35-1.94-.71-7.62-1.42-13.33,7.64-15.16,7.55-1.52,13.96,1,19.28,7.57.69.86,2.01.76,2.55-.2.32-.56.32-1.25,0-2.06M189.02,313.51c.93-7.5-1.52-12.84-7.37-16.02-2.65-1.45-5.95-.81-7.86,1.52l-.05.07c-1.81,2.23-1.27,5.54,1.15,7.1l12.57,8.06c.64.39,1.47,0,1.57-.74M232.84,313.02c.05.73.86,1.2,1.52.83l13.16-7.32c2.52-1.42,3.28-4.73,1.59-7.08l-.02-.07c-1.79-2.47-5.07-3.33-7.84-2.03-6.08,2.84-8.87,8.06-8.4,15.68h0Z"/>
    <path class="cls-47" d="M216.7,143.03c5.02,8.97,11.34,22,10,32.26-.2,1.49-1.98,2.18-3.11,1.18l-1.05-.96-9.7-26.7c-.39-1.1-1.89-1.3-2.55-.34-5.59,8.06-9.04,17.05-10.36,27-.61,2.77-1.86,3.01-3.75.74-.71-.86-1.05-1.94-.98-3.06.96-12.86,5.71-23.76,14.26-32.7,3.09.05,5.51.91,7.25,2.6h0Z"/>
    <path class="cls-39" d="M222.53,175.51c.05.61-.32,1.13-1.13,1.54-.66.34-1.35.44-2.01.29-5.85-1.18-11.71-1.27-17.52-.32-.69.1-1.35-.25-1.67-.86-.12-.22-.22-.44-.29-.71,1.32-9.95,4.78-18.94,10.36-27,.66-.96,2.16-.76,2.55.34l9.7,26.7h0Z"/>
    <path class="cls-54" d="M372.28,211.06c-.22-1.79-.81-3.06-1.74-3.85-.39-.32-.91-.47-1.4-.39l-7.72,1.32c-10.88-.2-21.7,1.15-32.48,4.04-1.15.32-2.28-.61-2.18-1.81.64-7.3,2.57-14.43,5.81-21.41,3.41-7.3,11.56-18.42,24.52-33.34l9.97-4.56c.49-.22.98.32.71.78-9.82,17.76-10.48,41.13,6.61,54.92.69.56.83,1.52.37,2.25-.47.71-1.3,1.4-2.47,2.03h0Z"/>
    <path class="cls-54" d="M64.06,155.13c.07,1.1.34,1.94.86,2.55,14.58,16.76,27.36,30.23,31.36,51.08.44,2.38-1.69,4.43-4.04,3.9-13.94-3.23-25.38-6.57-37.55-6.12-1.79.07-2.77,2.08-1.74,3.53,1.57,2.18,4.07,3.5,7.52,3.92.76.1,1.52.29,2.25.56,11.76,4.34,20.09,6.64,28.47,12.44,1,.69,1.42,1.98.98,3.14-3.28,8.75-9.14,14.62-17.59,17.66-.76.27-1.42.73-1.96,1.32-2.65,3.01-2.84,6.64-.61,10.88l-4.9.37c-.76.05-1.32-.66-1.13-1.37,5.88-20.23-.15-36.67-18.08-49.34-.93-.66-.98-2.01-.1-2.72,16.44-13.42,16.56-37.04,6.83-54.6-.29-.54.15-1.18.73-1.1,3.11.37,6.03,1.67,8.7,3.92h0Z"/>
    <path class="cls-53" d="M71.99,259.98c-2.23-4.24-2.03-7.86.61-10.88.54-.59,1.2-1.05,1.96-1.32,8.45-3.04,14.31-8.92,17.59-17.66.44-1.15.02-2.45-.98-3.14-8.38-5.81-16.71-8.11-28.47-12.44-.73-.27-1.49-.47-2.25-.56-3.45-.42-5.95-1.74-7.52-3.92-1.03-1.45-.05-3.45,1.74-3.53,12.18-.44,23.62,2.89,37.55,6.12,2.35.54,4.48-1.52,4.04-3.9-3.99-20.85-16.78-34.32-31.36-51.08-.51-.61-.78-1.45-.86-2.55.47-.1.91-.15,1.37-.12.42.02.86.17,1.32.44,13.25,7.89,25.45,16.93,36.65,27.09,1.13,1.03,1.54,2.62,1,4.07-1.62,4.36-3.04,8.87-3.55,14.28-1.79,18.86-5.85,37.85-12.25,56.93-.22.69-.83,1.15-1.54,1.2l-15.07.96h0Z"/>
    <path class="cls-53" d="M357.09,155.62c-12.96,14.92-21.12,26.04-24.52,33.34-3.23,6.98-5.17,14.11-5.81,21.41-.1,1.2,1.03,2.13,2.18,1.81,10.78-2.89,21.61-4.24,32.48-4.04.66.37,1.05.71,1.2,1.05.51,1.4.1,2.4-1.3,3.04-9.97,4.53-19.65,9.36-29.03,14.48-1.27.69-1.67,2.35-.83,3.53,7.06,9.99,11.07,17.34,19.01,22.02.69.42,1.13,1.13,1.18,1.91.12,1.76-.37,3.67-1.45,5.76l-14.77-.91c-.71-.05-1.32-.54-1.54-1.22-5.93-18.59-9.9-34.84-11.91-48.77-1.49-10.48-2.87-18.05-4.07-22.71-.2-.76,0-1.54.51-2.13,10.61-11.69,23.49-21.19,38.66-28.56h0Z"/>
    <path class="cls-52" d="M245.14,201.16c-.07-3.26,1.37-6.39,3.89-8.48,8.01-6.59,18.13-10.58,30.38-11.95,5.12-.59,16.29-.81,17.81,6.08,1.22,5.51-2.65,6.2-7.3,5.76-12.93-1.25-26.31,2.55-40.13,11.34-1.98,1.25-4.58-.15-4.63-2.47l-.02-.27h0Z"/>
    <path class="cls-52" d="M177.87,202.14l-.02.27c-.1,2.35-2.74,3.67-4.7,2.38-13.69-9.14-27.04-13.2-40.05-12.25-4.68.34-8.57-.42-7.23-5.93,1.69-6.88,12.89-6.42,18.03-5.73,12.27,1.64,22.34,5.88,30.25,12.66,2.5,2.16,3.87,5.32,3.72,8.6h0Z"/>
    <path class="cls-47" d="M219.2,211.77c-1.98-5.98-3.99-11.51-6.08-16.63-.56-1.37-2.16-2.01-3.48-1.37-.27.12-.54.54-.86,1.22-2.52,5.68-4.68,11.51-6.49,17.47-.66.83-1.32,1.18-1.96,1-1-.24-1.49-.83-1.49-1.79-.1-8.87,2.38-16.46,7.4-22.78,2.38-2.99,6.93-2.94,9.26.1,5.07,6.59,7.5,14.23,7.28,22.88-.02,1-.56,1.52-1.57,1.54-1.2.05-1.89-.49-2.01-1.64h0Z"/>
    <path class="cls-39" d="M219.2,211.77c-2.92,3.55-7.86,4.63-14.85,3.26-.54-.1-1-.39-1.32-.86-.37-.51-.61-1.1-.73-1.71,1.81-5.95,3.97-11.78,6.49-17.47.32-.69.59-1.1.86-1.22,1.32-.64,2.92,0,3.48,1.37,2.08,5.12,4.09,10.66,6.08,16.63h0Z"/>
    <path class="cls-56" d="M119.53,218.08c10.25-15.66,31.42-19.95,47.26-9.59,15.85,10.36,20.39,31.48,10.13,47.15-10.25,15.66-31.42,19.95-47.26,9.59-15.85-10.36-20.39-31.48-10.13-47.15M176.6,236.91c0-15.53-12.59-28.12-28.12-28.12s-28.12,12.59-28.12,28.12,12.59,28.12,28.12,28.12,28.12-12.59,28.12-28.12h0Z"/>
    <path class="cls-56" d="M307.71,236.78c0,18.79-15.21,34-34,34s-34-15.21-34-34,15.21-34,34-34,34,15.21,34,34M301.21,229.51c-4.04-14.99-19.64-23.81-34.83-19.71-15.19,4.1-24.23,19.56-20.19,34.55,4.04,14.99,19.64,23.81,34.83,19.71,15.19-4.1,24.23-19.56,20.19-34.55h0Z"/>
    <path class="cls-51" d="M372.28,211.06c-16.22,11.29-21.88,27.22-16.98,47.75.15.66-.29,1.32-.98,1.42-1.15.17-2.52.07-4.12-.29,1.08-2.08,1.57-3.99,1.45-5.76-.05-.78-.49-1.49-1.18-1.91-7.94-4.68-11.95-12.03-19.01-22.02-.83-1.18-.44-2.84.83-3.53,9.38-5.12,19.06-9.95,29.03-14.48,1.4-.64,1.81-1.64,1.3-3.04-.15-.34-.54-.69-1.2-1.05l7.72-1.32c.49-.07,1,.07,1.4.39.93.78,1.52,2.06,1.74,3.85h0Z"/>
    <path class="cls-42" d="M176.6,236.91c0,15.53-12.59,28.12-28.12,28.12s-28.12-12.59-28.12-28.12,12.59-28.12,28.12-28.12,28.12,12.59,28.12,28.12M168.88,237.84c0-8.3-6.71-15.02-15.02-15.02s-15.02,6.71-15.02,15.02,6.71,15.02,15.02,15.02,15.02-6.71,15.02-15.02h0Z"/>
    <path class="cls-42" d="M301.21,229.51c4.05,14.99-4.99,30.45-20.19,34.55-15.18,4.11-30.79-4.71-34.83-19.71-4.05-14.99,4.99-30.45,20.19-34.55,15.18-4.11,30.79,4.71,34.83,19.71M282.92,237.79c0-8.21-6.66-14.87-14.87-14.87s-14.87,6.66-14.87,14.87,6.66,14.87,14.87,14.87,14.87-6.66,14.87-14.87h0Z"/>
    <path class="cls-56" d="M168.88,237.84c0,8.3-6.71,15.02-15.02,15.02s-15.02-6.71-15.02-15.02,6.71-15.02,15.02-15.02,15.02,6.71,15.02,15.02h0Z"/>
    <path class="cls-56" d="M282.92,237.79c0,8.21-6.66,14.87-14.87,14.87s-14.87-6.66-14.87-14.87,6.66-14.87,14.87-14.87,14.87,6.66,14.87,14.87h0Z"/>
    <path class="cls-51" d="M211.31,236.98c5.07.15,9.41,2.82,13.06,7.96.61.88-.2,2.03-1.22,1.76-4.04-1-8.06-1.59-12.05-1.69-3.99-.12-8.04.22-12.15,1-1.03.2-1.76-1-1.1-1.84,3.94-4.95,8.43-7.35,13.47-7.2h0Z"/>
    <path class="cls-53" d="M321.55,238.38c4.87,14.97,7.4,27.07,7.57,36.28.51,25.58-17.47,44.19-37.82,56.69-8.89,6.08-16.93,13.18-24.11,21.29-9.48,10.75-14.75,16.49-15.8,17.17-16.24,10.68-38.9,9.92-58.62,7.99-11.64-1.15-21.24-6.05-28.86-14.72-6.2-7.03-12.64-14.21-19.33-21.48-12.49-8.48-24.4-17.88-35.72-28.22-7.91-7.23-12.93-16.34-15.09-27.29,5.9,4.9,11.61,9.68,17.07,14.31,5.02,4.26,14.01,8.75,26.95,13.47,4.95,7.62,11.32,13.99,19.11,19.11,1.1.73,1.79,1.94,1.86,3.26.42,7.55,2.18,13.42,5.24,17.64,6.57,9.04,14.85,3.92,19.03-4.14.32-.59,1.08-.78,1.64-.39,13.45,9.19,25.8,14.45,40.37,7.03,5.81-2.96,9.75-5.44,11.86-7.42.56-.54,1.47-.42,1.86.24,2.77,4.43,6.37,7.42,10.8,8.99,2.35.83,4.97.07,6.49-1.91,3.94-5.12,6.34-11.73,7.2-19.87.17-1.57.98-2.96,2.25-3.9,6.39-4.7,12.15-8.7,17.32-16.09,15.95-4.14,28.81-13.23,38.58-27.22,6.08-8.67,2.23-23.32-.12-34.1-1.05-4.73-.96-10.31.24-16.71h0Z"/>
    <path class="cls-51" d="M210.7,253c5.44-.02,18.1,1.05,18.13,7.77,0,.76-.66,1.35-1.42,1.25-5.59-.71-11.15-1.08-16.68-1.05-5.51.02-11.07.42-16.68,1.2-.73.1-1.42-.49-1.42-1.25-.02-6.71,12.62-7.91,18.08-7.91h0Z"/>
    <path class="cls-51" d="M211.46,267.77c6.86,0,14.4,1.37,20.01,5.46,1.47,1.08,1.52,3.28.07,4.41-.86.69-1.94.88-3.23.56-6.32-1.49-11.95-2.25-16.85-2.25s-10.51.76-16.85,2.25c-1.27.32-2.35.12-3.23-.56-1.45-1.13-1.4-3.33.1-4.41,5.61-4.09,13.13-5.46,19.99-5.46h0Z"/>
    <path class="cls-52" d="M193.43,290.77l.66,1.81c.32.81.32,1.49,0,2.06-.54.96-1.86,1.05-2.55.2-5.32-6.57-11.73-9.09-19.28-7.57-9.06,1.84-8.35,7.55-7.64,15.16.07.88-.49,1.71-1.35,1.94-.88.24-1.79-.2-2.16-1-3.5-7.55-1.98-13.77,4.56-18.67,10.73-8.01,19.99-3.09,27.76,6.08h0Z"/>
    <path class="cls-52" d="M229.46,293.81c-1.15-1.35-.37-3.45,2.33-6.37,5.07-5.95,11.49-7.94,19.3-5.95,9.14,2.33,13.06,8.92,11.76,19.79-.17,1.37-1.13,2.5-2.45,2.89l-1.35.42c-.66.17-1.27-.37-1.18-1.05,1.4-9.53-1.08-15.07-7.47-16.66-6.93-1.74-13.91.59-20.95,6.93h0Z"/>
    <path class="cls-50" d="M282.84,316.4c-5.17,7.4-10.93,11.39-17.32,16.09-1.27.93-2.08,2.33-2.25,3.9-.86,8.13-3.26,14.75-7.2,19.87-1.52,1.98-4.14,2.74-6.49,1.91-4.43-1.57-8.04-4.56-10.8-8.99-.39-.66-1.3-.78-1.86-.24-2.11,1.98-6.05,4.46-11.86,7.42-14.58,7.42-26.92,2.16-40.37-7.03-.56-.39-1.32-.2-1.64.39-4.19,8.06-12.47,13.18-19.03,4.14-3.06-4.21-4.83-10.09-5.24-17.64-.07-1.32-.76-2.52-1.86-3.26-7.79-5.12-14.16-11.49-19.11-19.11-3.21-8.84-7.74-16.98-13.57-24.42-.64-.78-1.59-1.2-2.6-1.13-3.58.32-6.47.39-8.7.27-.86-.05-1.32-.49-1.35-1.3-.05-.64.22-1.05.81-1.22,5.49-1.62,8.89-3.55,14.09-3.33.86.02,1.62.56,1.91,1.37,1.76,4.63,3.72,8.28,5.88,10.95,2.87,3.55,5.02,7.03,6.44,10.39,4.07,9.58,11.59,17.37,22.59,23.39,12,6.57,22.93,13.13,32.78,19.67,9.87,6.57,19.62,6.59,29.3.1,11.59-7.81,22.61-14.28,33.12-19.43,9.6-4.7,16.66-12.71,22.46-24.11,2.62-5.14,6.34-9.75,11.17-13.79.44-.37.73-.86.91-1.42l1.74-6.27c.39-1.45,2.06-2.11,3.36-1.37,3.5,2.01,7.5,2.89,11.98,2.62.93-.05,1.71.64,1.76,1.54l.02.07c.1.96-.64,1.76-1.59,1.81l-8.57.25c-1.62.07-3.11.81-4.16,2.03-6.79,8.11-11.71,16.73-14.72,25.87M175.03,350.45c1.45-1.25,2.4-2.25,2.82-3.01.39-.71.22-1.59-.42-2.08-3.55-2.72-7.64-5.12-12.3-7.23-.17-.07-.34-.02-.54.15-.17.15-.24.29-.2.49,1.35,4.92,3.09,9.33,5.22,13.28.39.69,1.22,1,1.98.73.81-.32,1.96-1.08,3.43-2.33M247,349.84c1.42,1.3,2.55,2.08,3.36,2.43.73.29,1.57,0,1.98-.69,2.23-3.85,4.07-8.18,5.56-13.06.05-.17-.02-.32-.17-.47-.2-.17-.37-.24-.54-.17-4.68,1.96-8.84,4.24-12.42,6.83-.66.47-.86,1.35-.49,2.06.42.76,1.32,1.79,2.72,3.06h0Z"/>
    <path class="cls-51" d="M231.79,287.44c-2.69,2.92-3.48,5.02-2.33,6.37l-35.37-1.22-.66-1.81c-.42-1.69-.27-2.96.47-3.85.22-.27.51-.47.83-.54,12.42-2.87,24.79-2.52,37.06,1.05h0Z"/>
    <path class="cls-47" d="M189.02,313.51c-.1.74-.93,1.13-1.57.74l-12.57-8.06c-2.43-1.57-2.96-4.87-1.15-7.1l.05-.07c1.91-2.33,5.22-2.96,7.86-1.52,5.85,3.18,8.3,8.53,7.37,16.02h0Z"/>
    <path class="cls-47" d="M232.84,313.02c-.47-7.62,2.33-12.84,8.4-15.68,2.77-1.3,6.05-.44,7.84,2.03l.02.07c1.69,2.35.93,5.66-1.59,7.08l-13.16,7.32c-.66.37-1.47-.1-1.52-.83h0Z"/>
    <path class="cls-50" d="M291.29,331.34c.66,3.11,1.71,5.24,3.16,6.44-9.33,5.76-17.05,12.86-23.15,21.26-16.46,22.66-37.14,27.56-64.6,26.9-10.51-.27-20.77-2.23-30.84-5.9-11.2-4.07-17.66-12.27-26.82-22.81l-7.79-9.6c2.2-.69,3.31-2.69,3.33-6.05,6.69,7.28,13.13,14.45,19.33,21.48,7.62,8.67,17.22,13.57,28.86,14.72,19.72,1.94,42.38,2.69,58.62-7.99,1.05-.69,6.32-6.42,15.8-17.17,7.18-8.11,15.21-15.21,24.11-21.29h0Z"/>
    <path class="cls-38" d="M175.03,350.45c-1.47,1.25-2.62,2.01-3.43,2.33-.76.27-1.59-.05-1.98-.73-2.13-3.94-3.87-8.35-5.22-13.28-.05-.2.02-.34.2-.49.2-.17.37-.22.54-.15,4.65,2.11,8.75,4.51,12.3,7.23.64.49.81,1.37.42,2.08-.42.76-1.37,1.76-2.82,3.01h0Z"/>
    <path class="cls-38" d="M247,349.84c-1.4-1.27-2.3-2.3-2.72-3.06-.37-.71-.17-1.59.49-2.06,3.58-2.6,7.74-4.87,12.42-6.83.17-.07.34,0,.54.17.15.15.22.29.17.47-1.49,4.87-3.33,9.21-5.56,13.06-.42.69-1.25.98-1.98.69-.81-.34-1.94-1.13-3.36-2.43h0Z"/>
    <path class="cls-53" d="M141.25,347.63l7.79,9.6c.96,8.75-.17,17.03-3.43,24.84-.69,1.62-.07,3.5,1.42,4.43,28.49,17.88,60.07,22.81,94.68,14.75,12.84-2.99,24.37-8.16,34.61-15.53.56-.42.83-1.13.69-1.81l-5.71-24.86c6.1-8.4,13.82-15.51,23.15-21.26l2.69,19.5c-8.72,11.2-15.07,22.73-19.06,34.59-41.4,27-92.82,27.88-134.05-.34-1.45-11.81-8.06-22.07-19.87-30.77l3.6-21.63c.12-.69.93-.98,1.47-.56l12,9.06h0Z"/>
    <path class="cls-40" d="M297.15,357.29c5.05,21.19,11.86,42.36,20.43,63.45l-31.31.47-8.18-29.32c3.99-11.86,10.34-23.39,19.06-34.59h0Z"/>
    <path class="cls-54" d="M149.04,357.24c9.16,10.53,15.63,18.74,26.82,22.81,10.07,3.67,20.33,5.63,30.84,5.9,27.46.66,48.14-4.24,64.6-26.9l5.71,24.86c.15.69-.12,1.4-.69,1.81-10.24,7.37-21.78,12.54-34.61,15.53-34.61,8.06-66.19,3.14-94.68-14.75-1.49-.93-2.11-2.82-1.42-4.43,3.26-7.81,4.39-16.09,3.43-24.84h0Z"/>
    <path class="cls-40" d="M144.04,391.53l-8.18,29.52-31.23-.51c8.16-20.04,14.67-39.96,19.55-59.77,11.81,8.7,18.42,18.96,19.87,30.77h0Z"/>
    <path class="cls-54" d="M144.04,391.53c41.23,28.22,92.65,27.34,134.05.34l8.18,29.32-150.41-.15,8.18-29.52h0Z"/>
  </g>
</svg>