<?xml version="1.0" encoding="UTF-8"?>
<svg id="Camada_1" data-name="Camada 1" xmlns="http://www.w3.org/2000/svg" xmlns:xlink="http://www.w3.org/1999/xlink" viewBox="0 0 422.07 422.07">
  <defs>
    <style>
      .cls-1 {
        stroke: #f498a4;
      }

      .cls-1, .cls-2, .cls-3, .cls-4, .cls-5, .cls-6, .cls-7, .cls-8, .cls-9, .cls-10, .cls-11, .cls-12, .cls-13, .cls-14, .cls-15, .cls-16, .cls-17, .cls-18, .cls-19, .cls-20, .cls-21, .cls-22, .cls-23, .cls-24, .cls-25, .cls-26, .cls-27, .cls-28, .cls-29, .cls-30, .cls-31, .cls-32, .cls-33, .cls-34, .cls-35, .cls-36, .cls-37, .cls-38, .cls-39, .cls-40, .cls-41, .cls-42, .cls-43, .cls-44, .cls-45 {
        fill: none;
        stroke-miterlimit: 10;
      }

      .cls-2 {
        stroke: #a05867;
      }

      .cls-3 {
        stroke: #98659a;
      }

      .cls-4 {
        stroke: #98385e;
      }

      .cls-46 {
        fill: #f17074;
      }

      .cls-5 {
        stroke: #865761;
      }

      .cls-6 {
        stroke: #dc5f93;
      }

      .cls-7 {
        stroke: #a1818d;
      }

      .cls-8 {
        stroke: #974359;
      }

      .cls-9 {
        stroke: #6f6883;
      }

      .cls-10 {
        stroke: #5d687a;
      }

      .cls-11 {
        stroke: #817484;
      }

      .cls-12 {
        stroke: #eddaf8;
      }

      .cls-47 {
        fill: #fff;
      }

      .cls-13 {
        stroke: #211040;
      }

      .cls-14 {
        stroke: #e47f9c;
      }

      .cls-15 {
        stroke: #1a031a;
      }

      .cls-16 {
        stroke: #772c55;
      }

      .cls-17 {
        stroke: #ab6065;
      }

      .cls-48 {
        fill: #fdadb2;
      }

      .cls-18 {
        stroke: #803842;
      }

      .cls-49 {
        fill: #976e51;
      }

      .cls-19 {
        stroke: #baa8e1;
      }

      .cls-50 {
        fill: #cecff6;
      }

      .cls-51 {
        fill: #240624;
      }

      .cls-20 {
        stroke: #ca8e82;
      }

      .cls-21 {
        stroke: #210f48;
      }

      .cls-52 {
        fill: #e6cdf6;
      }

      .cls-53 {
        fill: #f3e7f9;
      }

      .cls-22 {
        stroke: #9892c3;
      }

      .cls-23 {
        stroke: #4a2b59;
      }

      .cls-24 {
        stroke: #f78f93;
      }

      .cls-25 {
        stroke: #b691cc;
      }

      .cls-26 {
        stroke: #cfdbef;
      }

      .cls-54 {
        fill: #ed6ca0;
      }

      .cls-55 {
        fill: #332070;
      }

      .cls-27 {
        stroke: #be8ea0;
      }

      .cls-28 {
        stroke: #aa92cc;
      }

      .cls-56 {
        fill: #591317;
      }

      .cls-57 {
        fill: url(#Gradiente_sem_nome_7);
      }

      .cls-29 {
        stroke: #7e3658;
      }

      .cls-30 {
        stroke: #f58da9;
      }

      .cls-31 {
        stroke: #bccfed;
      }

      .cls-32 {
        stroke: #872a50;
      }

      .cls-58 {
        fill: #ca5185;
      }

      .cls-59 {
        fill: #eb8396;
      }

      .cls-60 {
        fill: #0f000f;
      }

      .cls-33 {
        stroke: #ac898b;
      }

      .cls-61 {
        fill: #8555a2;
      }

      .cls-34 {
        stroke: #e1dbf8;
      }

      .cls-35 {
        stroke: #bd657a;
      }

      .cls-62 {
        fill: #a681cc;
      }

      .cls-36 {
        stroke: #7d4253;
      }

      .cls-63 {
        fill: #aacfe4;
      }

      .cls-37 {
        stroke: #bc9ece;
      }

      .cls-38 {
        stroke: #290215;
      }

      .cls-64 {
        fill: #43031b;
      }

      .cls-39 {
        stroke: #915a6b;
      }

      .cls-65 {
        fill: #7d1d41;
      }

      .cls-40 {
        stroke: #331f79;
      }

      .cls-41 {
        stroke: #6d294a;
      }

      .cls-42 {
        stroke: #ee7a85;
      }

      .cls-43 {
        stroke: #cdb4e3;
      }

      .cls-44 {
        stroke: #5b416e;
      }

      .cls-45 {
        stroke: #dacef6;
      }
    </style>
    <linearGradient id="Gradiente_sem_nome_7" data-name="Gradiente sem nome 7" x1="15.59" y1="49.92" x2="371.99" y2="343.72" gradientUnits="userSpaceOnUse">
      <stop offset="0" stop-color="#331d81"/>
      <stop offset="1" stop-color="#16085e"/>
    </linearGradient>
  </defs>
  <rect class="cls-57" x="-.57" width="423.22" height="422.07"/>
  <g>
    <path class="cls-21" d="M52.13,98.51c-.09.02-.19.07-.28.09"/>
    <path class="cls-40" d="M51.85,98.6c-8.48-5.67-18.18-6.18-29.09-1.53"/>
    <path class="cls-21" d="M22.76,97.07c-7.85,9.63-10.81,23.09-8.85,40.34,2.66,23.32,6.65,41.57,11.95,54.74,9.52,23.55,22.81,43.49,39.9,59.79,1.83,1.76,3.1,4.05,3.64,6.55,3.27,15.45,10.14,29.46,20.63,42.03.32.39.23.97-.19,1.25-21.19,13.11-36.82,30.41-46.85,51.92-5.86,12.5-9.61,41.45,11.93,44.53,32.65,4.65,65.88-10.56,90.82-32.05,1.27-1.09,3.06-1.25,4.49-.44l16.19,9.36c1.32.76,2.06,2.27,1.83,3.8-2.57,16.81-19.01,20.89-34.87,25.68-10.3,3.1-19.48,7.04-27.14,13.76-.81.69-.37,2.04.69,2.13,3.13.25,6.14-.28,9.05-1.6"/>
    <path class="cls-3" d="M115.99,418.86c-.07.3-.09.58-.07.81.07.49.46.83.93.83l187.02.05"/>
    <path class="cls-21" d="M303.87,420.55c2.01,1.16,4.65,1.37,7.97.6,1.25-.3,1.64-1.85.69-2.71-3.59-3.22-7.09-5.56-10.44-7.02-4.45-1.88-15.58-5.97-33.39-12.25-8.43-2.96-14.38-8.41-17.83-16.3-1.16-2.62-.25-5.67,2.11-7.25l14.31-9.54c1.27-.86,2.94-.79,4.17.14,5.79,4.42,10.81,8.08,15.05,11,20.29,14.01,42.98,21.24,68.11,21.72,34.85.67,25.68-36.63,15.33-54.77-6.09-10.68-13.76-19.82-23.04-27.44-10.24-8.43-16.21-13.32-17.92-14.64-.83-.65-.95-1.85-.28-2.66,10.95-13.04,14.5-23.2,21.1-43.07.28-.88.79-1.69,1.44-2.36,13.59-13.78,23.97-27.3,31.1-40.57,10.63-19.75,17.67-42.08,21.12-66.99"/>
    <path class="cls-40" d="M403.44,146.44c4.42-12.62,7.64-26.7,3.1-39.9-6.81-19.73-27.74-16.7-43.26-11.09-20.36,7.34-38.58,15.26-51.71,31.4-4.93,6.07-10.98,11.97-15.12,12.99-15.4,3.82-21.47-6.51-23.74-19.96-3.57-21.14-18.6-36.8-39.34-40.34-20.1-3.45-48.31-3.38-64.26,7.36-7.92,5.35-14.43,12.62-19.54,21.79-3.22,5.81-3.47,16.35-5.65,22.21-2.27,6.11-12.57,16.21-20.73,14.4-3.33-.74-5.79-2.11-7.39-4.12-8.41-10.58-17.16-18.87-26.26-24.89-9.49-6.25-21.26-11.18-32.17-17.95-8.8-5.44-18.13-8.43-28-8.96-.07,0-.14.05-.16.12v.02c-.02.16.09.3.25.32,8.27,1.09,15.82,3.96,22.65,8.66"/>
    <path class="cls-13" d="M403.44,146.44c.05-5.67.12-10.49.69-16.88,1.04-11.32-1.34-32.28-15.91-33.83-13.73-1.46-27.21,4.12-38.23,10.77-20.45,12.32-38.56,27.7-54.35,46.13-.58.67-1.57.81-2.34.3l-24.13-16.21c-.6-.39-.9-1.11-.79-1.83,1.16-7.04,1.18-15.17-1.53-21.56-6.37-15.03-17.3-24.99-32.79-29.87-17.92-5.63-35.52-5.19-52.8,1.27-8.13,3.03-14.33,6.74-18.62,11.16-9.56,9.82-15.26,23.64-12.88,37.63.19,1.07-.25,2.13-1.13,2.78l-24.59,17.97c-.21.16-.51.14-.69-.05-8.38-9.1-19.04-21.12-29.25-29.46-12.81-10.51-26.82-19.27-41.98-26.26"/>
    <path class="cls-5" d="M303.87,420.55c-10.44-4.98-23.78-10.51-40.02-16.6-7.62-2.85-13.66-8.04-18.13-15.54"/>
    <line class="cls-36" x1="245.72" y1="388.41" x2="244.1" y2="378.78"/>
    <line class="cls-38" x1="244.1" y1="378.78" x2="242.62" y2="374.17"/>
    <path class="cls-36" d="M242.62,374.17c21-11.32,41.01-29.02,50.9-50.85"/>
    <path class="cls-5" d="M293.52,323.32c10.28-21.56,14.59-44.16,12.92-67.85"/>
    <path class="cls-38" d="M306.44,255.47c1.13-2.39,2.52-4.03,4.21-4.91"/>
    <path class="cls-29" d="M310.65,250.56c2.78-5.49,4.45-11.46,5.03-17.97"/>
    <path class="cls-5" d="M315.68,232.59c1.3-42.49-16.37-73.25-53.03-92.24"/>
    <line class="cls-15" x1="262.65" y1="140.35" x2="261.42" y2="133.5"/>
    <path class="cls-41" d="M261.42,133.5c2.8-10.72.69-20.05-6.28-28"/>
    <path class="cls-5" d="M255.14,105.5c-10.19-13.04-27.37-18.85-44-19.59-19.68-.86-35.8,5.7-48.35,19.68"/>
    <path class="cls-29" d="M162.79,105.59c-.23.76-.67,1.39-1.3,1.92"/>
    <path class="cls-41" d="M161.5,107.52c-4.84,6.83-6.62,15.08-5.35,24.73.09.74.9,1.16,1.55.81.46-.25,1.02-.42,1.64-.51"/>
    <path class="cls-15" d="M159.34,132.55c2.8.69,4.05,2.06,3.8,4.12"/>
    <path class="cls-5" d="M163.14,136.67c-28.37,12.3-47.43,32.84-57.2,61.62"/>
    <path class="cls-29" d="M105.94,198.29c-2.96,11.23-4.26,22.56-3.87,33.97"/>
    <path class="cls-41" d="M102.08,232.26c.23,5,1.55,9.86,3.94,14.59"/>
    <path class="cls-38" d="M106.01,246.85c-1.18,1.83-2.39,3.08-3.64,3.71"/>
    <path class="cls-5" d="M102.38,250.56c-7.18-10.95-16.63-19.57-28.34-25.87-.49-.25-1.07.09-1.09.65-.67,24.78,7.92,70.03,36.54,78.99.6.19,1.2-.35,1.04-.97l-2.29-9.31"/>
    <line class="cls-36" x1="108.24" y1="294.05" x2="106.13" y2="280.08"/>
    <path class="cls-38" d="M106.13,280.08c2.52-1.88,4.91,1.3,7.11,9.49"/>
    <path class="cls-5" d="M113.24,289.58c2.57,11.51,6.28,22.65,11.07,33.46"/>
    <path class="cls-36" d="M124.31,323.04c12.04,23.67,28.85,37.42,50.78,50.74"/>
    <path class="cls-38" d="M175.09,373.78c.32,2.27.21,4.03-.35,5.26"/>
    <path class="cls-36" d="M174.74,379.03c-1.07,2.11-1.62,5.14-1.67,9.08"/>
    <path class="cls-5" d="M173.08,388.11c-3.17,6.72-8.45,11.6-15.86,14.64-13.69,5.58-27.42,10.95-41.22,16.12"/>
    <path class="cls-13" d="M22.76,97.07c9.01-2.25,15.42-2.69,19.22-1.32,3.27,1.18,6.55,2.13,9.86,2.85"/>
    <path class="cls-1" d="M245.72,388.41c-2.15,2.66-4.7,4.89-7.64,6.67-18.53,11.23-37.33,11.35-56.39.3-3.84-2.2-6-4.84-6.48-7.92-.14-.81-1.18-1.07-1.67-.39-.19.25-.35.6-.46,1.04M293.52,323.32l-4.01.74c-.74.14-1.41.58-1.81,1.25-14.26,23.53-34.16,40.41-59.68,50.62-8.36,3.36-14.45,6.11-21.72,4.86-19.06-3.29-37.79-17.48-54.98-29.92-7.8-5.65-14.36-13.01-19.66-22.09-1.85-3.17-4.31-5.09-7.36-5.74"/>
    <path class="cls-30" d="M315.68,232.59l-1.32,1.62c-.46.56-1.37.23-1.39-.49-.3-12.13-1.34-22.28-3.17-30.45-2.85-12.74-11.58-23.48-20.36-35.11-1.53-2.01-5.02-4.86-10.49-8.5-29.92-20.01-59.35-22.69-93.93-19.1-13.22,1.39-25.61,5.58-37.19,12.57-17.72,10.72-30.73,25.91-39.02,45.57-.28.67-1.02,1.02-1.71.81-.32-.09-.72-.51-1.16-1.23"/>
    <path class="cls-14" d="M255.14,105.5c-2.76.9-4.45,3.31-5.07,7.27-.37,2.34-3.73,2.43-4.24.12-.86-3.87-.39-7.55,1.41-11.07.37-.69.28-1.55-.23-2.15-3.17-3.77-6.62-4.98-10.3-3.57"/>
    <path class="cls-30" d="M236.71,96.1c-24.25-4.52-50.27-4.49-70.75,10.86-.88.65-2.04.67-2.92.05-.07-.02-.14-.51-.25-1.41"/>
    <path class="cls-16" d="M261.42,133.5c-31.12-12.92-62.71-14.36-94.76-4.28-2.55.81-4.98,1.92-7.32,3.33"/>
    <path class="cls-32" d="M302.52,219.62c-6.72-12.92-21.72-34.06-38.14-34.64-5.4-.21-11.35,1.64-17.81,5.51-10.37,6.18-20.73,11.16-35.15,16.56-.49.16-1,.19-1.48.05l-11.79-3.27c-.25-.07-.49-.16-.69-.28-8.43-4.42-17.39-9.22-26.86-14.36-15.86-8.59-29.15-4.42-41.17,8.82-10.74,11.83-20.82,32.56-21.81,49.37-.02.25-.19.46-.44.51-.6.12-1-.23-1.16-1.04"/>
    <path class="cls-39" d="M262.65,140.35c-33.14-14.75-66.32-15.98-99.51-3.68"/>
    <path class="cls-8" d="M244.1,378.78c-22.74,13.32-45.85,13.41-69.36.25M242.62,374.17c-12.76,7.18-24.82,10.44-36.17,9.8-9.19-.53-19.66-3.91-31.35-10.19"/>
    <path class="cls-1" d="M104.83,266.3c-2.01-1.11-3.89-3.03-5.6-5.77"/>
    <path class="cls-24" d="M99.23,260.54l-11.86-16.6c-.65-.93-1.88-1.25-2.89-.76l-.07.02c-.93.44-1.3,1.6-.79,2.5l10.49,18.92"/>
    <path class="cls-1" d="M94.11,264.61c-1.88,12.53-.12,25.87,14.13,29.43"/>
    <path class="cls-6" d="M236.71,96.1l-3.57,9.12c-.25.63-1.09.74-1.48.19-2.64-3.82-6.55-6.02-11.72-6.55-.93-.12-1.74.69-1.62,1.62.25,1.95.79,3.61,1.64,5.03.35.56.76,1.02,1.27,1.41l5.72,4.49c1.97,1.53.97,4.7-1.53,4.84-16.12.95-29.73,1.13-40.83.51-6.37-.35-12.23-2.87-17.6-7.62-.56-.51-1.32-.76-2.08-.72-1.3.05-2.43-.25-3.43-.9"/>
    <path class="cls-2" d="M306.44,255.47c-1.51-8.17-2.62-13.45-3.29-15.86-4.21-14.89-11.07-28.04-20.54-39.44"/>
    <path class="cls-8" d="M282.61,200.17c-8.61-8.08-18.06-13.08-28.76-7.48-11.14,5.81-22.6,13.04-35.75,16.51-.79.21-1.6.25-2.39.19-2.92-.23-6.37-.05-10.33.56-13.41,2.08-42.08-26.61-58.08-18.5-8.94,4.56-16.02,11.53-21.28,20.96"/>
    <path class="cls-2" d="M126.02,212.39c-14.01,23.92-18.27,49.65-12.78,77.18"/>
    <line class="cls-8" x1="106.13" y1="280.08" x2="104.83" y2="266.3"/>
    <path class="cls-2" d="M104.83,266.3c.56-5.9-.25-11.14-2.45-15.75"/>
    <path class="cls-4" d="M310.65,250.56c-.95-10.77-3.66-21.07-8.13-30.94"/>
    <path class="cls-6" d="M302.52,219.62c1.69-10.12-3.03-19.01-14.17-26.68-9.56-6.58-14.38-9.91-14.43-10-.63-.9-1.74-1.32-2.8-1.07l-8.64,2.04c-2.08.49-3.54-2.01-2.08-3.57,4.03-4.28,7.06-11.02,9.08-20.24.16-.67-.16-1.37-.76-1.71l-.6-.35c-.86-.49-1.95-.14-2.32.76-6,14.03-16.58,21.26-28.07,29.39-1.23.86-2.8-.49-2.13-1.83,3.54-7.18,5.14-14.33,4.79-21.47-.02-.69-.58-1.25-1.27-1.27-.69-.05-1.3.46-1.39,1.13-1.11,7.48-4.31,14.61-9.61,21.4-4.38,5.63-8.89,6.44-16.02,6.28-15.91-.37-25.59-8.5-29.09-24.41-.86-3.96-1.25-7.8-1.16-11.49.02-.6-.42-1.11-1.02-1.18-.6-.09-1.16.3-1.3.88-2.62,10.79-.9,21.14,5.16,31.03.53.86-.23,1.95-1.23,1.76-4.93-.95-9.96-6.58-14.73-10.4-7.64-6.09-11.6-11.74-15.72-19.75-.6-1.18-2.36-.88-2.55.42-1.11,7.39.53,14.68,4.96,21.91.46.74-.02,1.69-.88,1.81-8.5,1.04-15.96-.09-22.37-3.4-.74-.37-1.62-.19-2.15.44-9.33,11.21-14.96,18.66-16.93,22.35-4.59,8.66-5.86,20.1-11.02,29.87"/>
    <path class="cls-1" d="M282.61,200.17c-8.13-.42-16.88-2.34-24.25-.83-12.88,2.59-26.75,12.97-34.97,16.19-9.8,3.84-19.54,3.24-29.25-1.78-13.13-6.83-22.14-11.16-26.98-13.01-16.88-6.46-27.53-.37-37.86,13.55-.53.72-1.6.79-2.2.12-.42-.44-.79-1.11-1.09-1.99"/>
    <path class="cls-42" d="M99.23,260.54l2.73,13.04c.12.56-.6.86-.93.42l-6.92-9.38"/>
    <path class="cls-9" d="M65.93,230.36c.19-5.58,1.92-17.39,10.05-12.57,6.72,4.01,13.11,8.52,19.2,13.55.42.35,1.04.07,1.07-.46l1.25-23.78"/>
    <line class="cls-23" x1="97.49" y1="207.09" x2="99.32" y2="198.75"/>
    <line class="cls-9" x1="99.32" y1="198.75" x2="105.48" y2="181.83"/>
    <line class="cls-44" x1="105.48" y1="181.83" x2="107.87" y2="176.94"/>
    <line class="cls-9" x1="107.87" y1="176.94" x2="115.39" y2="165.55"/>
    <path class="cls-11" d="M115.39,165.55l3.38-4.54c.42-.56.42-1.34,0-1.9-16.44-21.14-36.43-37.91-59.95-50.34-6.88-3.61-24.01-10.7-31.86-6.02-12.32,7.32-6.99,43.54-4.49,54.65,7.39,32.86,20.47,61.23,43.37,86.08.37.42,1.07.12,1.02-.44l-.93-12.67"/>
    <path class="cls-34" d="M115.39,165.55c-1.88-5.77-4.15-10.28-6.76-13.55-16.42-20.31-36.82-32.26-61.23-35.87"/>
    <line class="cls-37" x1="47.4" y1="116.13" x2="46.01" y2="115.25"/>
    <path class="cls-12" d="M46.01,115.25c-5.42-3.5-10.7-5.42-15.84-5.74-2.29-.14-4.24,1.67-4.24,3.98.02,25.87,4.59,50.99,13.69,75.38"/>
    <path class="cls-37" d="M39.62,188.87c.42.05.79.39,1.11,1.07"/>
    <path class="cls-34" d="M40.73,189.93c5.74,13.25,13.87,31.12,25.2,40.43"/>
    <path class="cls-19" d="M107.87,176.94c-2.73-9.33-6.74-18.04-12.04-26.12-.32-.49-.97-.63-1.46-.35l-.05.02c-.49.28-.67.88-.42,1.39,3.4,6.79,6.16,12.85,8.38,20.75.9,3.15,1.97,6.21,3.2,9.19"/>
    <path class="cls-28" d="M47.4,116.13c10.33,9.33,13.64,21.21,19.87,36.87,6.97,17.51,17.67,32.77,32.05,45.76M97.49,207.09c-3.08-4.93-7.02-9.38-11.79-13.34-1.69-1.39-3.82-2.08-5.97-1.95-12.71.81-25.7.19-39-1.88M39.57,187.41c-.09-.97.37-1.57,1.39-1.81"/>
    <path class="cls-25" d="M46.01,115.25l-.67-.3c-.63-.28-1.2.44-.81.97,7.99,10.84,13.94,23.41,17.85,37.75.09.32-.21.6-.51.51l-30.45-9.42c-.35-.12-.74.05-.9.37-.16.35-.07.74.23.95,8.22,6,19.06,8.89,31.17,13.11,1.34.46,2.48,1.39,3.17,2.62l14.61,25.31c.19.35-.05.76-.44.76-12.39,0-25.75.79-38.3-2.27"/>
    <path class="cls-45" d="M40.96,185.6l16.84,1.3c.25.02.49-.14.51-.35v-.02c-.02-.25-.19-.44-.44-.49l-7.39-1.3c-.23-.05-.37-.23-.37-.46.02-.23.19-.39.42-.42l16.95-1.16c.63-.02,1.02-.67.76-1.25-5.03-11.6-13.29-20.84-24.82-27.67-.69-.42-1.57-.3-2.15.28l-5.47,5.47c-.56.56-.81,1.37-.67,2.13l4.45,25.75"/>
    <path class="cls-25" d="M39.57,187.41c.19.67.21,1.16.05,1.46"/>
    <line class="cls-44" x1="310.42" y1="177.33" x2="313.2" y2="182.98"/>
    <line class="cls-9" x1="313.2" y1="182.98" x2="318.64" y2="198.92"/>
    <path class="cls-23" d="M318.64,198.92c-.12,1.41.39,3.87,1.53,7.34"/>
    <path class="cls-9" d="M320.17,206.26l1.16,26.26c.02.44.56.65.86.32,6-6.23,12.85-11.44,20.56-15.58,2.48-1.34,5.58-.46,6.97,1.99,1.71,3.03,2.62,7.6,2.69,13.73"/>
    <path class="cls-11" d="M352.4,232.98l-1.71,10.35c-.07.51.53.81.88.44,27.46-28.6,43.35-68.75,46.55-106.59,1-12.13,2.34-38.42-16-35.96-20.47,2.76-42.7,17.92-58.31,31.75-8.92,7.87-17.09,16.42-24.55,25.61-.42.53-.46,1.27-.07,1.85l11.23,16.9"/>
    <path class="cls-34" d="M352.4,232.98c7.02-5.74,12.37-14.84,16.07-27.33,1.92-6.51.56-11.12-4.1-13.87"/>
    <line class="cls-37" x1="364.38" y1="191.78" x2="377.23" y2="189.47"/>
    <path class="cls-12" d="M377.23,189.47c3.68-6.3,5.93-10.95,6.74-13.94,5.3-19.57,8.11-39.58,8.45-60,.07-3.64-1.27-6-4.03-7.06-.72-.28-1.53-.32-2.27-.14-5.35,1.46-10.21,3.8-14.59,7.06"/>
    <line class="cls-37" x1="371.53" y1="115.39" x2="369.82" y2="116.64"/>
    <path class="cls-34" d="M369.82,116.64c-9.26,3.64-16.79,6.81-22.6,9.54-12.11,5.72-19.96,13.55-23.5,23.5"/>
    <path class="cls-43" d="M323.71,149.68c-6.16,8.64-10.58,17.85-13.29,27.65"/>
    <path class="cls-28" d="M384.27,147.32c-8.45,4.24-16.65,7.53-24.59,9.86-3.38,1-5.63,2.45-6.72,4.38-4.75,8.38-9.96,16.58-15.65,24.57-.32.46-.05,1.09.49,1.18,2.59.51,5.33.58,8.2.19M364.38,191.78l-27.16-.16c-2.41-.02-4.72,1-6.32,2.78l-10.72,11.86M318.64,198.92c11.16-10.35,20.22-22.02,27.16-35.01,7.11-13.27,11.28-35.15,24.01-47.26"/>
    <path class="cls-25" d="M377.23,189.47c.44-2.01.07-2.94-1.16-2.83-9.98.93-20.01,1.2-30.08.86"/>
    <path class="cls-45" d="M345.99,187.5c9.82-4.1,21.37-4.03,31.89-5,.72-.07,1.34-.51,1.67-1.16,5.35-11.49,6.92-22.83,4.72-34.02"/>
    <path class="cls-25" d="M384.27,147.32l2.34-1.78c.32-.25.42-.69.23-1.07-.21-.37-.63-.53-1.02-.39l-28.51,9.84c-.79.28-1.55-.51-1.23-1.3,5.53-13.57,8.5-26.21,18.5-37.63.32-.37-.09-.9-.53-.72l-2.52,1.11"/>
    <line class="cls-19" x1="313.2" y1="182.98" x2="323.71" y2="149.68"/>
    <path class="cls-18" d="M314.26,254.63l-1.2,5.28c-.02.12-.02.25-.05.37l-2.99,33.65"/>
    <path class="cls-5" d="M310.03,293.93l-2.62,10.35c-.09.37.28.72.65.58,9.89-3.57,17.34-9.89,22.35-18.99,10.3-18.73,15.12-38.81,14.43-60.23-.02-.88-.97-1.41-1.74-1-13.13,7.34-22.74,17.32-28.83,29.99"/>
    <path class="cls-24" d="M310.03,293.93c6.3-2.29,10.91-6.55,13.85-12.81.51-1.09.76-2.27.74-3.47-.14-4.98-.14-8.73-.02-11.28.28-5.65,4.63-8.52,6.69-13.41.83-1.97,1.44-3.71,1.78-5.26.21-.93-.76-1.64-1.57-1.2-4.12,2.27-8.24,5.33-12.34,9.15-1.6,1.46-2.69,2.01-3.29,1.67-.56-.35-1.09-1.23-1.6-2.69"/>
    <path class="cls-9" d="M138.36,364.1c1.69-.95,3.1-2.15,4.28-3.66.42-.53.42-1.27-.02-1.81l-16.49-19.54"/>
    <line class="cls-23" x1="126.14" y1="339.09" x2="117.98" y2="324.89"/>
    <path class="cls-9" d="M117.98,324.89l-5.3-12.23c-.32-.74-.93-1.32-1.69-1.6l-11.09-4.12"/>
    <path class="cls-11" d="M99.9,306.94c-1.83-1.95-3.57-2.43-5.21-1.46-19.82,11.76-41.82,35.01-47.98,57.82-4.54,16.77-2.18,29.5,17.92,28.9,27.67-.86,52.24-10.21,73.73-28.11"/>
    <path class="cls-34" d="M99.9,306.94c-6.46,5.63-12.74,11.44-18.85,17.41-5.95,5.84-10.68,12.2-14.13,19.08"/>
    <path class="cls-37" d="M66.92,343.44c-.25.72-.79,1.51-1.6,2.32"/>
    <path class="cls-34" d="M65.33,345.76c-6.92,5.21-11.49,12.6-13.69,22.16-1.11,4.84-1.67,9.77-1.69,14.8-.02,1.51,1.04,2.83,2.52,3.13,22.16,4.75,41.91.21,59.26-13.57"/>
    <path class="cls-37" d="M111.73,372.27c2.62-1.37,4.49-3.87,5.67-7.55"/>
    <line class="cls-34" x1="117.41" y1="364.72" x2="138.36" y2="364.1"/>
    <path class="cls-28" d="M126.14,339.09l-8.73,25.64M111.73,372.27l9.42-35.78c.58-2.2-1.99-3.89-3.77-2.45-6.55,5.23-21.47,15.47-23.78,22.62-2.18,6.79-4.26,13.62-6.25,20.52-.23.79-.72,1.44-1.37,1.88l-1.48,1c-.79.53-1.81-.21-1.55-1.13l5.37-19.31c.09-.37-.32-.65-.63-.42-9.31,6.79-19.24,12.57-29.83,17.37-.42.19-.9.02-1.13-.37-.23-.39-.09-.9.28-1.16l31.54-21.03c.16-.12.3-.23.42-.35l7.06-7.48c.39-.39.12-1.04-.44-1.04l-30.27.63M117.98,324.89l-17.65,16.4c-.53.51-1.27.74-2.01.65-10.7-1.32-21.17-.81-31.4,1.51"/>
    <path class="cls-10" d="M316.49,307.36l-8.94,3.17c-.9.32-1.62,1.02-2.01,1.92l-5.91,13.87"/>
    <path class="cls-23" d="M299.63,326.33c-1.25,1.69-2.01,3.17-2.29,4.47"/>
    <line class="cls-9" x1="297.34" y1="330.8" x2="295.37" y2="334.46"/>
    <path class="cls-23" d="M295.37,334.46c-1.11,1.02-1.78,2.01-2.04,2.96"/>
    <line class="cls-9" x1="293.33" y1="337.42" x2="277.42" y2="356.13"/>
    <path class="cls-11" d="M277.42,356.13c-.95.81-1.76,1.78-2.43,2.89-.37.63-.25,1.41.3,1.88,22.35,18.78,49.53,31.24,78.76,31.49,8.15.09,17.16-2.59,18.18-11.9,1.2-10.93-1.83-21.84-7.16-31.42-9.89-17.85-24.15-32.28-42.77-43.3-.6-.37-1.34-.49-2.04-.35-1.23.25-2.48.9-3.77,1.95"/>
    <path class="cls-34" d="M277.42,356.13c19.94,15.03,37.61,27.28,62.85,29.06,7.73.56,15.19.93,22.37,1.13.74.02,1.48-.16,2.13-.51,1.53-.83,2.78-2.48,3.75-4.93.25-.65.35-1.37.23-2.04-2.78-18.2-13.5-44.42-30.22-53.72-9.12-5.09-15.79-9.7-19.98-13.82"/>
    <path class="cls-26" d="M318.55,311.3c-.58-1.64-1.25-2.94-2.06-3.94"/>
    <path class="cls-31" d="M318.55,311.3c-.76,7.48-5.09,13.69-12.99,18.62"/>
    <line class="cls-22" x1="305.56" y1="329.92" x2="299.63" y2="326.33"/>
    <path class="cls-28" d="M293.33,337.42c1.99,10.91,5.12,21.58,9.38,32.07.25.65.81,1.13,1.46,1.32l.65.16c.76.21,1.46-.46,1.25-1.23l-8.59-32.54c-.19-.72-.58-1.34-1.11-1.85l-1-.9M297.34,330.8c8.85,7.76,14.52,12.6,17.02,14.52,6.81,5.21,11.09,9.91,12.5,18.22.74,4.42,2.08,8.87,4.01,13.38,1.18,2.8,2.52,4.33,4.01,4.59.53.09.97-.39.83-.93l-5.23-19.82c-.16-.63.56-1.09,1.04-.69,8.31,6.51,17.85,12.04,28.62,16.6.28.12.6,0,.74-.25s.07-.6-.19-.76c-16.86-11.58-28.3-17.9-37.89-28.9-.42-.46-.09-1.18.51-1.23,10.86-.69,20.66-.23,29.39,1.39.86.16,1.41-.88.79-1.51-5.97-5.86-20.54-3.77-33.6-3.43-.86.02-1.67-.28-2.29-.86l-12.04-11.21"/>
    <path class="cls-35" d="M155.68,218.76c-6.46.74-13.41,2.87-18.25,7.32-1.27,1.18-1.07,3.27.42,4.17.9.56,1.92.63,3.1.19,5.79-2.11,11-3.45,15.61-3.98,4.63-.53,10-.44,16.12.28,1.25.14,2.25-.14,2.99-.9,1.23-1.23.95-3.29-.56-4.15-5.74-3.22-12.99-3.68-19.43-2.92M263.16,218.92c-6.51-.86-13.85-.49-19.68,2.71-1.53.83-1.85,2.92-.6,4.19.74.76,1.74,1.07,2.99.93,6.21-.65,11.62-.67,16.3-.07,4.65.6,9.89,2.01,15.72,4.21,1.18.46,2.22.42,3.15-.14,1.51-.9,1.74-2.99.46-4.19-4.84-4.59-11.83-6.81-18.34-7.64"/>
    <path class="cls-17" d="M128.38,250.7c1.23,1.04.3,3.06-1.3,2.78-2.85-.49-4.4-.67-4.63-.51-2.48,1.74-2.27,5.6.42,7.76,1.67,1.32,2.66,2.15,2.96,2.45.63.63.93,1.51.86,2.39-1.44,18.16,8.52,33.05,26.49,35.64,17.07,2.48,33.42-8.15,34.92-25.06,1.69-18.85-7.06-30.8-26.21-35.85-5.77-1.51-13.8-.09-24.11,4.24-.79.32-1.69.28-2.43-.16l-5.42-3.13c-2.29-1.32-5.09.69-4.56,3.29.58,2.89,1.6,4.93,3.01,6.16M289.79,250.6c1.41-1.23,2.39-3.29,2.94-6.18.49-2.62-2.32-4.59-4.61-3.22l-5.37,3.17c-.72.44-1.62.53-2.41.19-10.35-4.19-18.39-5.51-24.11-3.91-19.06,5.26-27.65,17.3-25.73,36.08,1.71,16.86,18.16,27.26,35.15,24.57,17.9-2.8,27.65-17.78,26.01-35.87-.09-.88.21-1.76.81-2.41.32-.3,1.3-1.13,2.94-2.48,2.64-2.18,2.8-6.04.32-7.73-.23-.16-1.78.02-4.63.56-1.57.28-2.52-1.69-1.32-2.76"/>
    <path class="cls-20" d="M220.75,304.06c-.06-1.63-4.99-2.74-11.02-2.48-6.01.25-10.85,1.78-10.77,3.4.06,1.63,4.99,2.74,11.02,2.48,6.01-.25,10.85-1.78,10.77-3.39"/>
    <path class="cls-1" d="M137.39,321.28c7.36.81,13.99.21,19.89-1.81.63-.21,1.13-.6,1.51-1.13,2.15-3.22,2.22-6.32.16-9.36-.39-.58-.97-1.02-1.67-1.2l-16.28-4.54c-3.13-.86-6.35.97-7.23,4.1l-1.69,6.09c-1.04,3.68,1.48,7.43,5.3,7.85M260.08,318.45c11.97,4.54,21.65,2.48,29.02-6.21.81-.95.51-2.39-.6-2.94-9.19-4.52-19.04-4.82-29.5-.95-1.04.39-1.64,1.48-1.44,2.57l1.16,5.93c.14.74.67,1.34,1.37,1.6"/>
    <path class="cls-2" d="M209.46,358.49c22.9-.02,39.34-13.57,41.73-36.87.25-2.55-2.11-4.56-4.59-3.94-12.25,3.08-24.64,4.63-37.14,4.65-12.53,0-24.92-1.55-37.17-4.63-2.5-.63-4.84,1.41-4.59,3.96,2.41,23.3,18.85,36.82,41.75,36.82"/>
    <path class="cls-1" d="M222.56,363.4l-24.41-.37c-.14,0-.25.09-.25.25v.07c-.05,2.94,5.35,5.4,12.06,5.51h.6c6.72.12,12.2-2.2,12.25-5.14v-.07c0-.14-.12-.25-.25-.25"/>
    <path class="cls-33" d="M183.7,271.21c0-14.38-11.65-26.03-26.03-26.03s-26.03,11.65-26.03,26.03,11.65,26.03,26.03,26.03,26.03-11.65,26.03-26.03M286.73,271.33c0-14.4-11.67-26.08-26.08-26.08s-26.08,11.67-26.08,26.08,11.67,26.08,26.08,26.08,26.08-11.67,26.08-26.08"/>
    <path class="cls-27" d="M177.82,271.82c0-8.01-6.48-14.5-14.5-14.5s-14.5,6.48-14.5,14.5,6.48,14.5,14.5,14.5,14.5-6.48,14.5-14.5M269.09,272.07c0-7.85-6.35-14.2-14.2-14.2s-14.2,6.35-14.2,14.2,6.35,14.2,14.2,14.2,14.2-6.35,14.2-14.2"/>
    <path class="cls-7" d="M221.29,338.14l15.26-3.01c2.11-.42,3.96-1.71,5.03-3.59l3.08-5.33c.74-1.3-.44-2.83-1.88-2.48-21.93,5.51-44,5.51-66.18.02-1.04-.25-1.97.74-1.62,1.78l1.9,5.47c.51,1.48,1.76,2.59,3.31,2.96l10.49,2.43c.16.05.3.19.32.35l.12.6c.12.49-.28.97-.79,1-3.27.16-6.32-.35-9.17-1.53-.9-.37-1.74.65-1.2,1.46,8.11,12.53,20.77,15.77,34.83,14.43,9.93-.95,17.92-5.51,23.94-13.71.65-.88-.21-2.06-1.23-1.74-5.21,1.67-10.61,2.22-16.19,1.64-.19-.02-.32-.19-.35-.37,0-.19.14-.35.32-.39"/>
    <path class="cls-55" d="M403.44,146.44c.05-5.67.12-10.49.69-16.88,1.04-11.32-1.34-32.28-15.91-33.83-13.73-1.46-27.21,4.12-38.23,10.77-20.45,12.32-38.56,27.7-54.35,46.13-.58.67-1.57.81-2.34.3l-24.13-16.21c-.6-.39-.9-1.11-.79-1.83,1.16-7.04,1.18-15.17-1.53-21.56-6.37-15.03-17.3-24.99-32.79-29.87-17.92-5.63-35.52-5.19-52.8,1.27-8.13,3.03-14.33,6.74-18.62,11.16-9.56,9.82-15.26,23.64-12.88,37.63.19,1.07-.25,2.13-1.13,2.78l-24.59,17.97c-.21.16-.51.14-.69-.05-8.38-9.1-19.04-21.12-29.25-29.46-12.81-10.51-26.82-19.27-41.98-26.26-6.83-4.7-14.38-7.57-22.65-8.66-.16-.02-.28-.16-.25-.32v-.02c.02-.07.09-.12.16-.12,9.86.53,19.2,3.52,28,8.96,10.91,6.76,22.67,11.69,32.17,17.95,9.1,6.02,17.85,14.31,26.26,24.89,1.6,2.01,4.05,3.38,7.39,4.12,8.15,1.81,18.46-8.29,20.73-14.4,2.18-5.86,2.43-16.4,5.65-22.21,5.12-9.17,11.62-16.44,19.54-21.79,15.96-10.74,44.16-10.81,64.26-7.36,20.75,3.54,35.78,19.2,39.34,40.34,2.27,13.45,8.34,23.78,23.74,19.96,4.15-1.02,10.19-6.92,15.12-12.99,13.13-16.14,31.35-24.06,51.71-31.4,15.52-5.6,36.45-8.64,43.26,11.09,4.54,13.2,1.32,27.28-3.1,39.9h0Z"/>
    <path class="cls-60" d="M403.44,146.44c-3.45,24.92-10.49,47.24-21.12,66.99-7.13,13.27-17.51,26.79-31.1,40.57-.65.67-1.16,1.48-1.44,2.36-6.6,19.87-10.14,30.03-21.1,43.07-.67.81-.56,2.01.28,2.66,1.71,1.32,7.69,6.21,17.92,14.64,9.29,7.62,16.95,16.77,23.04,27.44,10.35,18.13,19.52,55.44-15.33,54.77-25.13-.49-47.82-7.71-68.11-21.72-4.24-2.92-9.26-6.58-15.05-11-1.23-.93-2.89-1-4.17-.14l-14.31,9.54c-2.36,1.57-3.27,4.63-2.11,7.25,3.45,7.9,9.4,13.34,17.83,16.3,17.81,6.28,28.95,10.37,33.39,12.25,3.36,1.46,6.85,3.8,10.44,7.02.95.86.56,2.41-.69,2.71-3.31.76-5.95.56-7.97-.6-10.44-4.98-23.78-10.51-40.02-16.6-7.62-2.85-13.66-8.04-18.13-15.54l-1.62-9.63-1.48-4.61c21-11.32,41.01-29.02,50.9-50.85,10.28-21.56,14.59-44.16,12.92-67.85,1.13-2.39,2.52-4.03,4.21-4.91,2.78-5.49,4.45-11.46,5.03-17.97,1.3-42.49-16.37-73.25-53.03-92.24l-1.23-6.85c2.8-10.72.69-20.05-6.28-28-10.19-13.04-27.37-18.85-44-19.59-19.68-.86-35.8,5.7-48.35,19.68-.23.76-.67,1.39-1.3,1.92-4.84,6.83-6.62,15.08-5.35,24.73.09.74.9,1.16,1.55.81.46-.25,1.02-.42,1.64-.51,2.8.69,4.05,2.06,3.8,4.12-28.37,12.3-47.43,32.84-57.2,61.62-2.96,11.23-4.26,22.56-3.87,33.97.23,5,1.55,9.86,3.94,14.59-1.18,1.83-2.39,3.08-3.64,3.71-7.18-10.95-16.63-19.57-28.34-25.87-.49-.25-1.07.09-1.09.65-.67,24.78,7.92,70.03,36.54,78.99.6.19,1.2-.35,1.04-.97l-2.29-9.31-2.11-13.96c2.52-1.88,4.91,1.3,7.11,9.49,2.57,11.51,6.28,22.65,11.07,33.46,12.04,23.67,28.85,37.42,50.78,50.74.32,2.27.21,4.03-.35,5.26-1.07,2.11-1.62,5.14-1.67,9.08-3.17,6.72-8.45,11.6-15.86,14.64-13.69,5.58-27.42,10.95-41.22,16.12-2.92,1.32-5.93,1.85-9.05,1.6-1.07-.09-1.51-1.44-.69-2.13,7.67-6.72,16.84-10.65,27.14-13.76,15.86-4.79,32.3-8.87,34.87-25.68.23-1.53-.51-3.03-1.83-3.8l-16.19-9.36c-1.44-.81-3.22-.65-4.49.44-24.94,21.49-58.17,36.7-90.82,32.05-21.54-3.08-17.78-32.03-11.93-44.53,10.03-21.51,25.66-38.81,46.85-51.92.42-.28.51-.86.19-1.25-10.49-12.57-17.37-26.58-20.63-42.03-.53-2.5-1.81-4.79-3.64-6.55-17.09-16.3-30.38-36.24-39.9-59.79-5.3-13.18-9.29-31.42-11.95-54.74-1.97-17.25,1-30.71,8.85-40.34,9.01-2.25,15.42-2.69,19.22-1.32,3.27,1.18,6.55,2.13,9.86,2.85.09-.02.19-.07.28-.09,15.17,6.99,29.18,15.75,41.98,26.26,10.21,8.34,20.86,20.36,29.25,29.46.19.19.49.21.69.05l24.59-17.97c.88-.65,1.32-1.71,1.13-2.78-2.39-13.99,3.31-27.81,12.88-37.63,4.28-4.42,10.49-8.13,18.62-11.16,17.28-6.46,34.87-6.9,52.8-1.27,15.49,4.89,26.42,14.84,32.79,29.87,2.71,6.39,2.69,14.52,1.53,21.56-.12.72.19,1.44.79,1.83l24.13,16.21c.76.51,1.76.37,2.34-.3,15.79-18.43,33.9-33.81,54.35-46.13,11.02-6.65,24.5-12.23,38.23-10.77,14.57,1.55,16.95,22.51,15.91,33.83-.58,6.39-.65,11.21-.69,16.88M65.93,230.36c.19-5.58,1.92-17.39,10.05-12.57,6.72,4.01,13.11,8.52,19.2,13.55.42.35,1.04.07,1.07-.46l1.25-23.78,1.83-8.34,6.16-16.93,2.39-4.89,7.53-11.39,3.38-4.54c.42-.56.42-1.34,0-1.9-16.44-21.14-36.43-37.91-59.95-50.34-6.88-3.61-24.01-10.7-31.86-6.02-12.32,7.32-6.99,43.54-4.49,54.65,7.39,32.86,20.47,61.23,43.37,86.08.37.42,1.07.12,1.02-.44l-.93-12.67M310.42,177.33l2.78,5.65,5.44,15.93c-.12,1.41.39,3.87,1.53,7.34l1.16,26.26c.02.44.56.65.86.32,6-6.23,12.85-11.44,20.56-15.58,2.48-1.34,5.58-.46,6.97,1.99,1.71,3.03,2.62,7.6,2.69,13.73l-1.71,10.35c-.07.51.53.81.88.44,27.46-28.6,43.35-68.75,46.55-106.59,1-12.13,2.34-38.42-16-35.96-20.47,2.76-42.7,17.92-58.31,31.75-8.92,7.87-17.09,16.42-24.55,25.61-.42.53-.46,1.27-.07,1.85l11.23,16.9M314.26,254.63l-1.2,5.28c-.02.12-.02.25-.05.37l-2.99,33.65-2.62,10.35c-.09.37.28.72.65.58,9.89-3.57,17.34-9.89,22.35-18.99,10.3-18.73,15.12-38.81,14.43-60.23-.02-.88-.97-1.41-1.74-1-13.13,7.34-22.74,17.32-28.83,29.99M138.36,364.1c1.69-.95,3.1-2.15,4.28-3.66.42-.53.42-1.27-.02-1.81l-16.49-19.54-8.15-14.2-5.3-12.23c-.32-.74-.93-1.32-1.69-1.6l-11.09-4.12c-1.83-1.95-3.57-2.43-5.21-1.46-19.82,11.76-41.82,35.01-47.98,57.82-4.54,16.77-2.18,29.5,17.92,28.9,27.67-.86,52.24-10.21,73.73-28.11M316.49,307.36l-8.94,3.17c-.9.32-1.62,1.02-2.01,1.92l-5.91,13.87c-1.25,1.69-2.01,3.17-2.29,4.47l-1.97,3.66c-1.11,1.02-1.78,2.01-2.04,2.96l-15.91,18.71c-.95.81-1.76,1.78-2.43,2.89-.37.63-.25,1.41.3,1.88,22.35,18.78,49.53,31.24,78.76,31.49,8.15.09,17.16-2.59,18.18-11.9,1.2-10.93-1.83-21.84-7.16-31.42-9.89-17.85-24.15-32.28-42.77-43.3-.6-.37-1.34-.49-2.04-.35-1.23.25-2.48.9-3.77,1.95h0Z"/>
    <path class="cls-48" d="M255.14,105.5c-2.76.9-4.45,3.31-5.07,7.27-.37,2.34-3.73,2.43-4.24.12-.86-3.87-.39-7.55,1.41-11.07.37-.69.28-1.55-.23-2.15-3.17-3.77-6.62-4.98-10.3-3.57-24.25-4.52-50.27-4.49-70.75,10.86-.88.65-2.04.67-2.92.05-.07-.02-.14-.51-.25-1.41,12.55-13.99,28.67-20.54,48.35-19.68,16.63.74,33.81,6.55,44,19.59h0Z"/>
    <path class="cls-55" d="M51.85,98.6c-3.31-.72-6.6-1.67-9.86-2.85-3.8-1.37-10.21-.93-19.22,1.32,10.91-4.65,20.61-4.15,29.09,1.53h0Z"/>
    <path class="cls-54" d="M236.71,96.1l-3.57,9.12c-.25.63-1.09.74-1.48.19-2.64-3.82-6.55-6.02-11.72-6.55-.93-.12-1.74.69-1.62,1.62.25,1.95.79,3.61,1.64,5.03.35.56.76,1.02,1.27,1.41l5.72,4.49c1.97,1.53.97,4.7-1.53,4.84-16.12.95-29.73,1.13-40.83.51-6.37-.35-12.23-2.87-17.6-7.62-.56-.51-1.32-.76-2.08-.72-1.3.05-2.43-.25-3.43-.9.63-.53,1.07-1.16,1.3-1.92.12.9.19,1.39.25,1.41.88.63,2.04.6,2.92-.05,20.47-15.35,46.5-15.38,70.75-10.86h0Z"/>
    <path class="cls-58" d="M255.14,105.5c6.97,7.94,9.08,17.28,6.28,28-31.12-12.92-62.71-14.36-94.76-4.28-2.55.81-4.98,1.92-7.32,3.33-.63.09-1.18.25-1.64.51-.65.35-1.46-.07-1.55-.81-1.27-9.66.51-17.9,5.35-24.73,1,.65,2.13.95,3.43.9.76-.05,1.53.21,2.08.72,5.37,4.75,11.23,7.27,17.6,7.62,11.09.63,24.71.44,40.83-.51,2.5-.14,3.5-3.31,1.53-4.84l-5.72-4.49c-.51-.39-.93-.86-1.27-1.41-.86-1.41-1.39-3.08-1.64-5.03-.12-.93.69-1.74,1.62-1.62,5.16.53,9.08,2.73,11.72,6.55.39.56,1.23.44,1.48-.19l3.57-9.12c3.68-1.41,7.13-.21,10.3,3.57.51.6.6,1.46.23,2.15-1.81,3.52-2.27,7.2-1.41,11.07.51,2.32,3.87,2.22,4.24-.12.63-3.96,2.32-6.37,5.07-7.27h0Z"/>
    <path class="cls-53" d="M115.39,165.55c-1.88-5.77-4.15-10.28-6.76-13.55-16.42-20.31-36.82-32.26-61.23-35.87l-1.39-.88c-5.42-3.5-10.7-5.42-15.84-5.74-2.29-.14-4.24,1.67-4.24,3.98.02,25.87,4.59,50.99,13.69,75.38.42.05.79.39,1.11,1.07,5.74,13.25,13.87,31.12,25.2,40.43l.93,12.67c.05.56-.65.86-1.02.44-22.9-24.85-35.99-53.22-43.37-86.08-2.5-11.12-7.83-47.33,4.49-54.65,7.85-4.68,24.99,2.41,31.86,6.02,23.53,12.44,43.51,29.2,59.95,50.34.42.56.42,1.34,0,1.9l-3.38,4.54h0Z"/>
    <path class="cls-53" d="M352.4,232.98c7.02-5.74,12.37-14.84,16.07-27.33,1.92-6.51.56-11.12-4.1-13.87l12.85-2.32c3.68-6.3,5.93-10.95,6.74-13.94,5.3-19.57,8.11-39.58,8.45-60,.07-3.64-1.27-6-4.03-7.06-.72-.28-1.53-.32-2.27-.14-5.35,1.46-10.21,3.8-14.59,7.06l-1.71,1.25c-9.26,3.64-16.79,6.81-22.6,9.54-12.11,5.72-19.96,13.55-23.5,23.5-6.16,8.64-10.58,17.85-13.29,27.65l-11.23-16.9c-.39-.58-.35-1.32.07-1.85,7.46-9.19,15.63-17.74,24.55-25.61,15.61-13.82,37.84-28.99,58.31-31.75,18.34-2.45,17,23.83,16,35.96-3.2,37.84-19.08,77.99-46.55,106.59-.35.37-.95.07-.88-.44l1.71-10.35h0Z"/>
    <path class="cls-52" d="M46.01,115.25l-.67-.3c-.63-.28-1.2.44-.81.97,7.99,10.84,13.94,23.41,17.85,37.75.09.32-.21.6-.51.51l-30.45-9.42c-.35-.12-.74.05-.9.37-.16.35-.07.74.23.95,8.22,6,19.06,8.89,31.17,13.11,1.34.46,2.48,1.39,3.17,2.62l14.61,25.31c.19.35-.05.76-.44.76-12.39,0-25.75.79-38.3-2.27l16.84,1.3c.25.02.49-.14.51-.35v-.02c-.02-.25-.19-.44-.44-.49l-7.39-1.3c-.23-.05-.37-.23-.37-.46.02-.23.19-.39.42-.42l16.95-1.16c.63-.02,1.02-.67.76-1.25-5.03-11.6-13.29-20.84-24.82-27.67-.69-.42-1.57-.3-2.15.28l-5.47,5.47c-.56.56-.81,1.37-.67,2.13l4.45,25.75c.19.67.21,1.16.05,1.46-9.1-24.38-13.66-49.51-13.69-75.38,0-2.32,1.95-4.12,4.24-3.98,5.14.32,10.42,2.25,15.84,5.74h0Z"/>
    <path class="cls-52" d="M377.23,189.47c.44-2.01.07-2.94-1.16-2.83-9.98.93-20.01,1.2-30.08.86,9.82-4.1,21.37-4.03,31.89-5,.72-.07,1.34-.51,1.67-1.16,5.35-11.49,6.92-22.83,4.72-34.02l2.34-1.78c.32-.25.42-.69.23-1.07-.21-.37-.63-.53-1.02-.39l-28.51,9.84c-.79.28-1.55-.51-1.23-1.3,5.53-13.57,8.5-26.21,18.5-37.63.32-.37-.09-.9-.53-.72l-2.52,1.11c4.38-3.27,9.24-5.6,14.59-7.06.74-.19,1.55-.14,2.27.14,2.76,1.07,4.1,3.43,4.03,7.06-.35,20.42-3.15,40.43-8.45,60-.81,2.99-3.06,7.64-6.74,13.94h0Z"/>
    <path class="cls-61" d="M384.27,147.32c-8.45,4.24-16.65,7.53-24.59,9.86-3.38,1-5.63,2.45-6.72,4.38-4.75,8.38-9.96,16.58-15.65,24.57-.32.46-.05,1.09.49,1.18,2.59.51,5.33.58,8.2.19,10.07.35,20.1.07,30.08-.86,1.23-.12,1.6.81,1.16,2.83l-12.85,2.32-27.16-.16c-2.41-.02-4.72,1-6.32,2.78l-10.72,11.86c-1.13-3.47-1.64-5.93-1.53-7.34,11.16-10.35,20.22-22.02,27.16-35.01,7.11-13.27,11.28-35.15,24.01-47.26l1.71-1.25,2.52-1.11c.44-.19.86.35.53.72-10,11.42-12.97,24.06-18.5,37.63-.32.79.44,1.57,1.23,1.3l28.51-9.84c.39-.14.81.02,1.02.39.19.37.09.81-.23,1.07l-2.34,1.78h0Z"/>
    <path class="cls-61" d="M46.01,115.25l1.39.88c10.33,9.33,13.64,21.21,19.87,36.87,6.97,17.51,17.67,32.77,32.05,45.76l-1.83,8.34c-3.08-4.93-7.02-9.38-11.79-13.34-1.69-1.39-3.82-2.08-5.97-1.95-12.71.81-25.7.19-39-1.88-.32-.67-.69-1.02-1.11-1.07.16-.3.14-.79-.05-1.46-.09-.97.37-1.57,1.39-1.81,12.55,3.06,25.91,2.27,38.3,2.27.39,0,.63-.42.44-.76l-14.61-25.31c-.69-1.23-1.83-2.15-3.17-2.62-12.11-4.21-22.95-7.11-31.17-13.11-.3-.21-.39-.6-.23-.95.16-.32.56-.49.9-.37l30.45,9.42c.3.09.6-.19.51-.51-3.91-14.33-9.87-26.91-17.85-37.75-.39-.53.19-1.25.81-.97l.67.3h0Z"/>
    <path class="cls-50" d="M115.39,165.55l-7.53,11.39c-2.73-9.33-6.74-18.04-12.04-26.12-.32-.49-.97-.63-1.46-.35l-.05.02c-.49.28-.67.88-.42,1.39,3.4,6.79,6.16,12.85,8.38,20.75.9,3.15,1.97,6.21,3.2,9.19l-6.16,16.93c-14.38-12.99-25.08-28.25-32.05-45.76-6.23-15.65-9.54-27.53-19.87-36.87,24.41,3.61,44.81,15.56,61.23,35.87,2.62,3.27,4.89,7.78,6.76,13.55h0Z"/>
    <path class="cls-50" d="M369.82,116.64c-12.74,12.11-16.9,33.99-24.01,47.26-6.95,12.99-16,24.66-27.16,35.01l-5.44-15.93,10.51-33.3c3.54-9.96,11.39-17.78,23.5-23.5,5.81-2.73,13.34-5.9,22.6-9.54h0Z"/>
    <path class="cls-51" d="M261.42,133.5l1.23,6.85c-33.14-14.75-66.32-15.98-99.51-3.68.25-2.06-1-3.43-3.8-4.12,2.34-1.41,4.77-2.52,7.32-3.33,32.05-10.07,63.64-8.64,94.76,4.28h0Z"/>
    <path class="cls-48" d="M262.65,140.35c36.66,18.99,54.33,49.74,53.03,92.24l-1.32,1.62c-.46.56-1.37.23-1.39-.49-.3-12.13-1.34-22.28-3.17-30.45-2.85-12.74-11.58-23.48-20.36-35.11-1.53-2.01-5.02-4.86-10.49-8.5-29.92-20.01-59.35-22.69-93.93-19.1-13.22,1.39-25.61,5.58-37.19,12.57-17.72,10.72-30.73,25.91-39.02,45.57-.28.67-1.02,1.02-1.71.81-.32-.09-.72-.51-1.16-1.23,9.77-28.78,28.83-49.32,57.2-61.62,33.18-12.3,66.37-11.07,99.51,3.68h0Z"/>
    <path class="cls-54" d="M315.68,232.59c-.58,6.51-2.25,12.48-5.03,17.97-.95-10.77-3.66-21.07-8.13-30.94,1.69-10.12-3.03-19.01-14.17-26.68-9.56-6.58-14.38-9.91-14.43-10-.63-.9-1.74-1.32-2.8-1.07l-8.64,2.04c-2.08.49-3.54-2.01-2.08-3.57,4.03-4.28,7.06-11.02,9.08-20.24.16-.67-.16-1.37-.76-1.71l-.6-.35c-.86-.49-1.95-.14-2.32.76-6,14.03-16.58,21.26-28.07,29.39-1.23.86-2.8-.49-2.13-1.83,3.54-7.18,5.14-14.33,4.79-21.47-.02-.69-.58-1.25-1.27-1.27-.69-.05-1.3.46-1.39,1.13-1.11,7.48-4.31,14.61-9.61,21.4-4.38,5.63-8.89,6.44-16.02,6.28-15.91-.37-25.59-8.5-29.09-24.41-.86-3.96-1.25-7.8-1.16-11.49.02-.6-.42-1.11-1.02-1.18-.6-.09-1.16.3-1.3.88-2.62,10.79-.9,21.14,5.16,31.03.53.86-.23,1.95-1.23,1.76-4.93-.95-9.96-6.58-14.73-10.4-7.64-6.09-11.6-11.74-15.72-19.75-.6-1.18-2.36-.88-2.55.42-1.11,7.39.53,14.68,4.96,21.91.46.74-.02,1.69-.88,1.81-8.5,1.04-15.96-.09-22.37-3.4-.74-.37-1.62-.19-2.15.44-9.33,11.21-14.96,18.66-16.93,22.35-4.59,8.66-5.86,20.1-11.02,29.87-.39-11.42.9-22.74,3.87-33.97.44.72.83,1.13,1.16,1.23.69.21,1.44-.14,1.71-.81,8.29-19.66,21.3-34.85,39.02-45.57,11.58-6.99,23.97-11.18,37.19-12.57,34.57-3.59,64.01-.9,93.93,19.1,5.47,3.64,8.96,6.48,10.49,8.5,8.78,11.62,17.51,22.37,20.36,35.11,1.83,8.17,2.87,18.32,3.17,30.45.02.72.93,1.04,1.39.49l1.32-1.62h0Z"/>
    <path class="cls-50" d="M345.99,187.5c-2.87.39-5.6.32-8.2-.19-.53-.09-.81-.72-.49-1.18,5.7-7.99,10.91-16.19,15.65-24.57,1.09-1.92,3.33-3.38,6.72-4.38,7.94-2.34,16.14-5.63,24.59-9.86,2.2,11.18.63,22.53-4.72,34.02-.32.65-.95,1.09-1.67,1.16-10.51.97-22.07.9-31.89,5h0Z"/>
    <path class="cls-62" d="M313.2,182.98l-2.78-5.65c2.71-9.8,7.13-19.01,13.29-27.65l-10.51,33.3h0Z"/>
    <path class="cls-62" d="M107.87,176.94l-2.39,4.89c-1.23-2.99-2.29-6.04-3.2-9.19-2.22-7.9-4.98-13.96-8.38-20.75-.25-.51-.07-1.11.42-1.39l.05-.02c.49-.28,1.13-.14,1.46.35,5.3,8.08,9.31,16.79,12.04,26.12h0Z"/>
    <path class="cls-50" d="M40.96,185.6c-1.02.23-1.48.83-1.39,1.81l-4.45-25.75c-.14-.76.12-1.57.67-2.13l5.47-5.47c.58-.58,1.46-.69,2.15-.28,11.53,6.83,19.8,16.07,24.82,27.67.25.58-.14,1.23-.76,1.25l-16.95,1.16c-.23.02-.39.19-.42.42,0,.23.14.42.37.46l7.39,1.3c.25.05.42.23.44.49v.02c-.02.21-.25.37-.51.35l-16.84-1.3h0Z"/>
    <path class="cls-58" d="M302.52,219.62c-6.72-12.92-21.72-34.06-38.14-34.64-5.4-.21-11.35,1.64-17.81,5.51-10.37,6.18-20.73,11.16-35.15,16.56-.49.16-1,.19-1.48.05l-11.79-3.27c-.25-.07-.49-.16-.69-.28-8.43-4.42-17.39-9.22-26.86-14.36-15.86-8.59-29.15-4.42-41.17,8.82-10.74,11.83-20.82,32.56-21.81,49.37-.02.25-.19.46-.44.51-.6.12-1-.23-1.16-1.04-2.39-4.72-3.71-9.59-3.94-14.59,5.16-9.77,6.44-21.21,11.02-29.87,1.97-3.68,7.6-11.14,16.93-22.35.53-.63,1.41-.81,2.15-.44,6.41,3.31,13.87,4.45,22.37,3.4.86-.12,1.34-1.07.88-1.81-4.42-7.22-6.07-14.52-4.96-21.91.19-1.3,1.95-1.6,2.55-.42,4.12,8.01,8.08,13.66,15.72,19.75,4.77,3.82,9.8,9.45,14.73,10.4,1,.19,1.76-.9,1.23-1.76-6.07-9.89-7.78-20.24-5.16-31.03.14-.58.69-.97,1.3-.88.6.07,1.04.58,1.02,1.18-.09,3.68.3,7.53,1.16,11.49,3.5,15.91,13.18,24.04,29.09,24.41,7.13.16,11.65-.65,16.02-6.28,5.3-6.79,8.5-13.92,9.61-21.4.09-.67.69-1.18,1.39-1.13.69.02,1.25.58,1.27,1.27.35,7.13-1.25,14.29-4.79,21.47-.67,1.34.9,2.69,2.13,1.83,11.49-8.13,22.07-15.35,28.07-29.39.37-.9,1.46-1.25,2.32-.76l.6.35c.6.35.93,1.04.76,1.71-2.01,9.22-5.05,15.96-9.08,20.24-1.46,1.55,0,4.05,2.08,3.57l8.64-2.04c1.07-.25,2.18.16,2.8,1.07.05.09,4.86,3.43,14.43,10,11.14,7.67,15.86,16.56,14.17,26.68h0Z"/>
    <path class="cls-64" d="M302.52,219.62c4.47,9.86,7.18,20.17,8.13,30.94-1.69.88-3.08,2.52-4.21,4.91-1.51-8.17-2.62-13.45-3.29-15.86-4.21-14.89-11.07-28.04-20.54-39.44-8.61-8.08-18.06-13.08-28.76-7.48-11.14,5.81-22.6,13.04-35.75,16.51-.79.21-1.6.25-2.39.19-2.92-.23-6.37-.05-10.33.56-13.41,2.08-42.08-26.61-58.08-18.5-8.94,4.56-16.02,11.53-21.28,20.96-14.01,23.92-18.27,49.65-12.78,77.18-2.2-8.2-4.59-11.37-7.11-9.49l-1.3-13.78c.56-5.9-.25-11.14-2.45-15.75,1.25-.63,2.45-1.88,3.64-3.71.16.81.56,1.16,1.16,1.04.25-.05.42-.25.44-.51,1-16.81,11.07-37.54,21.81-49.37,12.02-13.25,25.31-17.41,41.17-8.82,9.47,5.14,18.43,9.93,26.86,14.36.21.12.44.21.69.28l11.79,3.27c.49.14,1,.12,1.48-.05,14.43-5.4,24.78-10.37,35.15-16.56,6.46-3.87,12.41-5.72,17.81-5.51,16.42.58,31.42,21.72,38.14,34.64h0Z"/>
    <path class="cls-50" d="M97.49,207.09l-1.25,23.78c-.02.53-.65.81-1.07.46-6.09-5.03-12.48-9.54-19.2-13.55-8.13-4.82-9.86,6.99-10.05,12.57-11.32-9.31-19.45-27.19-25.2-40.43,13.29,2.06,26.28,2.69,39,1.88,2.15-.14,4.28.56,5.97,1.95,4.77,3.96,8.71,8.41,11.79,13.34h0Z"/>
    <path class="cls-59" d="M282.61,200.17c-8.13-.42-16.88-2.34-24.25-.83-12.88,2.59-26.75,12.97-34.97,16.19-9.8,3.84-19.54,3.24-29.25-1.78-13.13-6.83-22.14-11.16-26.98-13.01-16.88-6.46-27.53-.37-37.86,13.55-.53.72-1.6.79-2.2.12-.42-.44-.79-1.11-1.09-1.99,5.26-9.42,12.34-16.4,21.28-20.96,16-8.11,44.67,20.59,58.08,18.5,3.96-.6,7.41-.79,10.33-.56.79.07,1.6.02,2.39-.19,13.15-3.47,24.62-10.7,35.75-16.51,10.7-5.6,20.15-.6,28.76,7.48h0Z"/>
    <path class="cls-50" d="M364.38,191.78c4.65,2.76,6.02,7.36,4.1,13.87-3.71,12.48-9.05,21.58-16.07,27.33-.07-6.14-.97-10.7-2.69-13.73-1.39-2.45-4.49-3.33-6.97-1.99-7.71,4.15-14.57,9.36-20.56,15.58-.3.32-.83.12-.86-.32l-1.16-26.26,10.72-11.86c1.6-1.78,3.91-2.8,6.32-2.78l27.16.16h0Z"/>
    <path class="cls-48" d="M282.61,200.17c9.47,11.39,16.33,24.55,20.54,39.44.67,2.41,1.78,7.69,3.29,15.86,1.67,23.69-2.64,46.29-12.92,67.85l-4.01.74c-.74.14-1.41.58-1.81,1.25-14.26,23.53-34.16,40.41-59.68,50.62-8.36,3.36-14.45,6.11-21.72,4.86-19.06-3.29-37.79-17.48-54.98-29.92-7.8-5.65-14.36-13.01-19.66-22.09-1.85-3.17-4.31-5.09-7.36-5.74-4.79-10.81-8.5-21.95-11.07-33.46-5.49-27.53-1.23-53.26,12.78-77.18.3.88.67,1.55,1.09,1.99.6.67,1.67.6,2.2-.12,10.33-13.92,20.98-20.01,37.86-13.55,4.84,1.85,13.85,6.18,26.98,13.01,9.7,5.03,19.45,5.63,29.25,1.78,8.22-3.22,22.09-13.59,34.97-16.19,7.36-1.51,16.12.42,24.25.83M155.68,218.76c-6.46.74-13.41,2.87-18.25,7.32-1.27,1.18-1.07,3.27.42,4.17.9.56,1.92.63,3.1.19,5.79-2.11,11-3.45,15.61-3.98,4.63-.53,10-.44,16.12.28,1.25.14,2.25-.14,2.99-.9,1.23-1.23.95-3.29-.56-4.15-5.74-3.22-12.99-3.68-19.43-2.92M263.16,218.92c-6.51-.86-13.85-.49-19.68,2.71-1.53.83-1.85,2.92-.6,4.19.74.76,1.74,1.07,2.99.93,6.21-.65,11.62-.67,16.3-.07,4.65.6,9.89,2.01,15.72,4.21,1.18.46,2.22.42,3.15-.14,1.51-.9,1.74-2.99.46-4.19-4.84-4.59-11.83-6.81-18.34-7.64M128.38,250.7c1.23,1.04.3,3.06-1.3,2.78-2.85-.49-4.4-.67-4.63-.51-2.48,1.74-2.27,5.6.42,7.76,1.67,1.32,2.66,2.15,2.96,2.45.63.63.93,1.51.86,2.39-1.44,18.16,8.52,33.05,26.49,35.64,17.07,2.48,33.42-8.15,34.92-25.06,1.69-18.85-7.06-30.8-26.21-35.85-5.77-1.51-13.8-.09-24.11,4.24-.79.32-1.69.28-2.43-.16l-5.42-3.13c-2.29-1.32-5.09.69-4.56,3.29.58,2.89,1.6,4.93,3.01,6.16M289.79,250.6c1.41-1.23,2.39-3.29,2.94-6.18.49-2.62-2.32-4.59-4.61-3.22l-5.37,3.17c-.72.44-1.62.53-2.41.19-10.35-4.19-18.39-5.51-24.11-3.91-19.06,5.26-27.65,17.3-25.73,36.08,1.71,16.86,18.16,27.26,35.15,24.57,17.9-2.8,27.65-17.78,26.01-35.87-.09-.88.21-1.76.81-2.41.32-.3,1.3-1.13,2.94-2.48,2.64-2.18,2.8-6.04.32-7.73-.23-.16-1.78.02-4.63.56-1.57.28-2.52-1.69-1.32-2.76M220.75,304.06c-.06-1.63-4.99-2.74-11.02-2.48-6.01.25-10.85,1.78-10.77,3.4.06,1.63,4.99,2.74,11.02,2.48,6.01-.25,10.85-1.78,10.77-3.39M137.39,321.28c7.36.81,13.99.21,19.89-1.81.63-.21,1.13-.6,1.51-1.13,2.15-3.22,2.22-6.32.16-9.36-.39-.58-.97-1.02-1.67-1.2l-16.28-4.54c-3.13-.86-6.35.97-7.23,4.1l-1.69,6.09c-1.04,3.68,1.48,7.43,5.3,7.85M260.08,318.45c11.97,4.54,21.65,2.48,29.02-6.21.81-.95.51-2.39-.6-2.94-9.19-4.52-19.04-4.82-29.5-.95-1.04.39-1.64,1.48-1.44,2.57l1.16,5.93c.14.74.67,1.34,1.37,1.6M209.46,358.49c22.9-.02,39.34-13.57,41.73-36.87.25-2.55-2.11-4.56-4.59-3.94-12.25,3.08-24.64,4.63-37.14,4.65-12.53,0-24.92-1.55-37.17-4.63-2.5-.63-4.84,1.41-4.59,3.96,2.41,23.3,18.85,36.82,41.75,36.82M222.56,363.4l-24.41-.37c-.14,0-.25.09-.25.25v.07c-.05,2.94,5.35,5.4,12.06,5.51h.6c6.72.12,12.2-2.2,12.25-5.14v-.07c0-.14-.12-.25-.25-.25h0Z"/>
    <path class="cls-65" d="M155.68,218.76c6.44-.76,13.69-.3,19.43,2.92,1.51.86,1.78,2.92.56,4.15-.74.76-1.74,1.04-2.99.9-6.11-.72-11.49-.81-16.12-.28-4.61.53-9.82,1.88-15.61,3.98-1.18.44-2.2.37-3.1-.19-1.48-.9-1.69-2.99-.42-4.17,4.84-4.45,11.79-6.58,18.25-7.32h0Z"/>
    <path class="cls-65" d="M263.16,218.92c6.51.83,13.5,3.06,18.34,7.64,1.27,1.2,1.04,3.29-.46,4.19-.93.56-1.97.6-3.15.14-5.84-2.2-11.07-3.61-15.72-4.21-4.68-.6-10.1-.58-16.3.07-1.25.14-2.25-.16-2.99-.93-1.25-1.27-.93-3.36.6-4.19,5.84-3.2,13.18-3.57,19.68-2.71h0Z"/>
    <path class="cls-48" d="M102.38,250.56c2.2,4.61,3.01,9.84,2.45,15.75-2.01-1.11-3.89-3.03-5.6-5.77l-11.86-16.6c-.65-.93-1.88-1.25-2.89-.76l-.07.02c-.93.44-1.3,1.6-.79,2.5l10.49,18.92c-1.88,12.53-.12,25.87,14.13,29.43l2.29,9.31c.16.63-.44,1.16-1.04.97-28.62-8.96-37.21-54.21-36.54-78.99.02-.56.6-.9,1.09-.65,11.72,6.3,21.17,14.91,28.34,25.87h0Z"/>
    <path class="cls-48" d="M310.03,293.93c6.3-2.29,10.91-6.55,13.85-12.81.51-1.09.76-2.27.74-3.47-.14-4.98-.14-8.73-.02-11.28.28-5.65,4.63-8.52,6.69-13.41.83-1.97,1.44-3.71,1.78-5.26.21-.93-.76-1.64-1.57-1.2-4.12,2.27-8.24,5.33-12.34,9.15-1.6,1.46-2.69,2.01-3.29,1.67-.56-.35-1.09-1.23-1.6-2.69,6.09-12.67,15.7-22.65,28.83-29.99.76-.42,1.71.12,1.74,1,.69,21.42-4.12,41.5-14.43,60.23-5,9.1-12.46,15.42-22.35,18.99-.37.14-.74-.21-.65-.58l2.62-10.35h0Z"/>
    <path class="cls-56" d="M128.38,250.7c-1.41-1.23-2.43-3.27-3.01-6.16-.53-2.59,2.27-4.61,4.56-3.29l5.42,3.13c.74.44,1.64.49,2.43.16,10.3-4.33,18.34-5.74,24.11-4.24,19.15,5.05,27.9,17,26.21,35.85-1.51,16.9-17.85,27.53-34.92,25.06-17.97-2.59-27.93-17.48-26.49-35.64.07-.88-.23-1.76-.86-2.39-.3-.3-1.3-1.13-2.96-2.45-2.69-2.15-2.89-6.02-.42-7.76.23-.16,1.78.02,4.63.51,1.6.28,2.52-1.74,1.3-2.78M183.7,271.21c0-14.38-11.65-26.03-26.03-26.03s-26.03,11.65-26.03,26.03,11.65,26.03,26.03,26.03,26.03-11.65,26.03-26.03h0Z"/>
    <path class="cls-56" d="M289.79,250.6c-1.2,1.07-.25,3.03,1.32,2.76,2.85-.53,4.4-.72,4.63-.56,2.48,1.69,2.32,5.56-.32,7.73-1.64,1.34-2.62,2.18-2.94,2.48-.6.65-.9,1.53-.81,2.41,1.64,18.09-8.11,33.07-26.01,35.87-17,2.69-33.44-7.71-35.15-24.57-1.92-18.78,6.67-30.82,25.73-36.08,5.72-1.6,13.76-.28,24.11,3.91.79.35,1.69.25,2.41-.19l5.37-3.17c2.29-1.37,5.09.6,4.61,3.22-.56,2.89-1.53,4.96-2.94,6.18M286.73,271.33c0-14.4-11.67-26.08-26.08-26.08s-26.08,11.67-26.08,26.08,11.67,26.08,26.08,26.08,26.08-11.67,26.08-26.08h0Z"/>
    <path class="cls-46" d="M99.23,260.54l2.73,13.04c.12.56-.6.86-.93.42l-6.92-9.38-10.49-18.92c-.51-.9-.14-2.06.79-2.5l.07-.02c1.02-.49,2.25-.16,2.89.76l11.86,16.6h0Z"/>
    <path class="cls-47" d="M183.7,271.21c0,14.38-11.65,26.03-26.03,26.03s-26.03-11.65-26.03-26.03,11.65-26.03,26.03-26.03,26.03,11.65,26.03,26.03M177.82,271.82c0-8.01-6.48-14.5-14.5-14.5s-14.5,6.48-14.5,14.5,6.48,14.5,14.5,14.5,14.5-6.48,14.5-14.5h0Z"/>
    <path class="cls-47" d="M286.73,271.33c0,14.4-11.67,26.08-26.08,26.08s-26.08-11.67-26.08-26.08,11.67-26.08,26.08-26.08,26.08,11.67,26.08,26.08M269.09,272.07c0-7.85-6.35-14.2-14.2-14.2s-14.2,6.35-14.2,14.2,6.35,14.2,14.2,14.2,14.2-6.35,14.2-14.2h0Z"/>
    <path class="cls-46" d="M310.03,293.93l2.99-33.65c.02-.12.02-.25.05-.37l1.2-5.28c.51,1.46,1.04,2.34,1.6,2.69.6.35,1.69-.21,3.29-1.67,4.1-3.82,8.22-6.88,12.34-9.15.81-.44,1.78.28,1.57,1.2-.35,1.55-.95,3.29-1.78,5.26-2.06,4.89-6.41,7.76-6.69,13.41-.12,2.55-.12,6.3.02,11.28.02,1.2-.23,2.39-.74,3.47-2.94,6.25-7.55,10.51-13.85,12.81h0Z"/>
    <path class="cls-65" d="M177.82,271.82c0,8.01-6.48,14.5-14.5,14.5s-14.5-6.48-14.5-14.5,6.48-14.5,14.5-14.5,14.5,6.48,14.5,14.5h0Z"/>
    <path class="cls-65" d="M269.09,272.07c0,7.85-6.35,14.2-14.2,14.2s-14.2-6.35-14.2-14.2,6.35-14.2,14.2-14.2,14.2,6.35,14.2,14.2h0Z"/>
    <path class="cls-59" d="M104.83,266.3l1.3,13.78,2.11,13.96c-14.24-3.57-16-16.9-14.13-29.43l6.92,9.38c.32.44,1.04.14.93-.42l-2.73-13.04c1.71,2.73,3.59,4.65,5.6,5.77h0Z"/>
    <path class="cls-49" d="M220.75,304.06c.08,1.61-4.76,3.14-10.77,3.39-6.03.26-10.96-.85-11.02-2.48-.08-1.61,4.76-3.14,10.77-3.4,6.03-.26,10.96.85,11.02,2.48h0Z"/>
    <path class="cls-59" d="M137.39,321.28c-3.82-.42-6.35-4.17-5.3-7.85l1.69-6.09c.88-3.13,4.1-4.96,7.23-4.1l16.28,4.54c.69.19,1.27.63,1.67,1.2,2.06,3.03,1.99,6.14-.16,9.36-.37.53-.88.93-1.51,1.13-5.91,2.01-12.53,2.62-19.89,1.81h0Z"/>
    <path class="cls-59" d="M258.71,316.86l-1.16-5.93c-.21-1.09.39-2.18,1.44-2.57,10.47-3.87,20.31-3.57,29.5.95,1.11.56,1.41,1.99.6,2.94-7.36,8.68-17.04,10.74-29.02,6.21-.69-.25-1.23-.86-1.37-1.6h0Z"/>
    <path class="cls-53" d="M99.9,306.94c-6.46,5.63-12.74,11.44-18.85,17.41-5.95,5.84-10.68,12.2-14.13,19.08-.25.72-.79,1.51-1.6,2.32-6.92,5.21-11.49,12.6-13.69,22.16-1.11,4.84-1.67,9.77-1.69,14.8-.02,1.51,1.04,2.83,2.52,3.13,22.16,4.75,41.91.21,59.26-13.57,2.62-1.37,4.49-3.87,5.67-7.55l20.96-.63c-21.49,17.9-46.06,27.26-73.73,28.11-20.1.6-22.46-12.13-17.92-28.9,6.16-22.81,28.16-46.06,47.98-57.82,1.64-.97,3.38-.49,5.21,1.46h0Z"/>
    <path class="cls-53" d="M277.42,356.13c19.94,15.03,37.61,27.28,62.85,29.06,7.73.56,15.19.93,22.37,1.13.74.02,1.48-.16,2.13-.51,1.53-.83,2.78-2.48,3.75-4.93.25-.65.35-1.37.23-2.04-2.78-18.2-13.5-44.42-30.22-53.72-9.12-5.09-15.79-9.7-19.98-13.82-.58-1.64-1.25-2.94-2.06-3.94,1.3-1.04,2.55-1.69,3.77-1.95.69-.14,1.44-.02,2.04.35,18.62,11.02,32.88,25.45,42.77,43.3,5.33,9.59,8.36,20.49,7.16,31.42-1.02,9.31-10.03,12-18.18,11.9-29.22-.25-56.41-12.71-78.76-31.49-.56-.46-.67-1.25-.3-1.88.67-1.11,1.48-2.08,2.43-2.89h0Z"/>
    <path class="cls-50" d="M117.98,324.89l-17.65,16.4c-.53.51-1.27.74-2.01.65-10.7-1.32-21.17-.81-31.4,1.51,3.45-6.88,8.17-13.25,14.13-19.08,6.11-5.97,12.39-11.79,18.85-17.41l11.09,4.12c.76.28,1.37.86,1.69,1.6l5.3,12.23h0Z"/>
    <path class="cls-63" d="M316.49,307.36c.81,1,1.48,2.29,2.06,3.94-.76,7.48-5.09,13.69-12.99,18.62l-5.93-3.59,5.91-13.87c.39-.9,1.11-1.6,2.01-1.92l8.94-3.17h0Z"/>
    <path class="cls-50" d="M277.42,356.13l15.91-18.71c1.99,10.91,5.12,21.58,9.38,32.07.25.65.81,1.13,1.46,1.32l.65.16c.76.21,1.46-.46,1.25-1.23l-8.59-32.54c-.19-.72-.58-1.34-1.11-1.85l-1-.9,1.97-3.66c8.85,7.76,14.52,12.6,17.02,14.52,6.81,5.21,11.09,9.91,12.5,18.22.74,4.42,2.08,8.87,4.01,13.38,1.18,2.8,2.52,4.33,4.01,4.59.53.09.97-.39.83-.93l-5.23-19.82c-.16-.63.56-1.09,1.04-.69,8.31,6.51,17.85,12.04,28.62,16.6.28.12.6,0,.74-.25s.07-.6-.19-.76c-16.86-11.58-28.3-17.9-37.89-28.9-.42-.46-.09-1.18.51-1.23,10.86-.69,20.66-.23,29.39,1.39.86.16,1.41-.88.79-1.51-5.97-5.86-20.54-3.77-33.6-3.43-.86.02-1.67-.28-2.29-.86l-12.04-11.21c7.9-4.93,12.23-11.14,12.99-18.62,4.19,4.12,10.86,8.73,19.98,13.82,16.72,9.31,27.44,35.52,30.22,53.72.12.67.02,1.39-.23,2.04-.97,2.45-2.22,4.1-3.75,4.93-.65.35-1.39.53-2.13.51-7.18-.21-14.64-.58-22.37-1.13-25.24-1.78-42.91-14.03-62.85-29.06h0Z"/>
    <path class="cls-64" d="M209.46,322.34c12.5-.02,24.89-1.57,37.14-4.65,2.48-.63,4.84,1.39,4.59,3.94-2.39,23.3-18.83,36.84-41.73,36.87-22.9,0-39.34-13.52-41.75-36.82-.25-2.55,2.08-4.59,4.59-3.96,12.25,3.08,24.64,4.63,37.17,4.63M221.29,338.14l15.26-3.01c2.11-.42,3.96-1.71,5.03-3.59l3.08-5.33c.74-1.3-.44-2.83-1.88-2.48-21.93,5.51-44,5.51-66.18.02-1.04-.25-1.97.74-1.62,1.78l1.9,5.47c.51,1.48,1.76,2.59,3.31,2.96l10.49,2.43c.16.05.3.19.32.35l.12.6c.12.49-.28.97-.79,1-3.27.16-6.32-.35-9.17-1.53-.9-.37-1.74.65-1.2,1.46,8.11,12.53,20.77,15.77,34.83,14.43,9.93-.95,17.92-5.51,23.94-13.71.65-.88-.21-2.06-1.23-1.74-5.21,1.67-10.61,2.22-16.19,1.64-.19-.02-.32-.19-.35-.37,0-.19.14-.35.32-.39h0Z"/>
    <path class="cls-59" d="M293.52,323.32c-9.89,21.84-29.9,39.53-50.9,50.85-12.76,7.18-24.82,10.44-36.17,9.8-9.19-.53-19.66-3.91-31.35-10.19-21.93-13.32-38.74-27.07-50.78-50.74,3.06.65,5.51,2.57,7.36,5.74,5.3,9.08,11.86,16.44,19.66,22.09,17.18,12.44,35.92,26.63,54.98,29.92,7.27,1.25,13.36-1.51,21.72-4.86,25.52-10.21,45.41-27.09,59.68-50.62.39-.67,1.07-1.11,1.81-1.25l4.01-.74h0Z"/>
    <path class="cls-47" d="M221.31,338.9c5.58.58,10.98.02,16.19-1.64,1.02-.32,1.88.86,1.23,1.74-6.02,8.2-14.01,12.76-23.94,13.71-14.06,1.34-26.72-1.9-34.83-14.43-.53-.81.3-1.83,1.2-1.46,2.85,1.18,5.91,1.69,9.17,1.53.51-.02.9-.51.79-1l-.12-.6c-.02-.16-.16-.3-.32-.35l-10.49-2.43c-1.55-.37-2.8-1.48-3.31-2.96l-1.9-5.47c-.35-1.04.58-2.04,1.62-1.78,22.18,5.49,44.25,5.49,66.18-.02,1.44-.35,2.62,1.18,1.88,2.48l-3.08,5.33c-1.07,1.88-2.92,3.17-5.03,3.59l-15.26,3.01c-.19.05-.32.21-.32.39.02.19.16.35.35.37h0Z"/>
    <path class="cls-61" d="M126.14,339.09l-8.73,25.64c-1.18,3.68-3.06,6.18-5.67,7.55l9.42-35.78c.58-2.2-1.99-3.89-3.77-2.45-6.55,5.23-21.47,15.47-23.78,22.62-2.18,6.79-4.26,13.62-6.25,20.52-.23.79-.72,1.44-1.37,1.88l-1.48,1c-.79.53-1.81-.21-1.55-1.13l5.37-19.31c.09-.37-.32-.65-.63-.42-9.31,6.79-19.24,12.57-29.83,17.37-.42.19-.9.02-1.13-.37-.23-.39-.09-.9.28-1.16l31.54-21.03c.16-.12.3-.23.42-.35l7.06-7.48c.39-.39.12-1.04-.44-1.04l-30.27.63c.81-.81,1.34-1.6,1.6-2.32,10.24-2.32,20.7-2.83,31.4-1.51.74.09,1.48-.14,2.01-.65l17.65-16.4,8.15,14.2h0Z"/>
    <path class="cls-61" d="M299.63,326.33l5.93,3.59,12.04,11.21c.63.58,1.44.88,2.29.86,13.06-.35,27.63-2.43,33.6,3.43.63.63.07,1.67-.79,1.51-8.73-1.62-18.53-2.08-29.39-1.39-.6.05-.93.76-.51,1.23,9.59,11,21.03,17.32,37.89,28.9.25.16.32.51.19.76s-.46.37-.74.25c-10.77-4.56-20.31-10.1-28.62-16.6-.49-.39-1.2.07-1.04.69l5.23,19.82c.14.53-.3,1.02-.83.93-1.48-.25-2.83-1.78-4.01-4.59-1.92-4.52-3.27-8.96-4.01-13.38-1.41-8.31-5.7-13.01-12.5-18.22-2.5-1.92-8.17-6.76-17.02-14.52.28-1.3,1.04-2.78,2.29-4.47h0Z"/>
    <path class="cls-50" d="M111.73,372.27c-17.34,13.78-37.1,18.32-59.26,13.57-1.48-.3-2.55-1.62-2.52-3.13.02-5.03.58-9.96,1.69-14.8,2.2-9.56,6.76-16.95,13.69-22.16l30.27-.63c.56,0,.83.65.44,1.04l-7.06,7.48c-.12.12-.25.23-.42.35l-31.54,21.03c-.37.25-.51.76-.28,1.16.23.39.72.56,1.13.37,10.58-4.79,20.52-10.58,29.83-17.37.3-.23.72.05.63.42l-5.37,19.31c-.25.93.76,1.67,1.55,1.13l1.48-1c.65-.44,1.13-1.09,1.37-1.88,1.99-6.9,4.08-13.73,6.25-20.52,2.32-7.16,17.23-17.39,23.78-22.62,1.78-1.44,4.35.25,3.77,2.45l-9.42,35.78h0Z"/>
    <path class="cls-61" d="M295.37,334.46l1,.9c.53.51.93,1.13,1.11,1.85l8.59,32.54c.21.76-.49,1.44-1.25,1.23l-.65-.16c-.65-.19-1.2-.67-1.46-1.32-4.26-10.49-7.39-21.17-9.38-32.07.25-.95.93-1.95,2.04-2.96h0Z"/>
    <path class="cls-50" d="M126.14,339.09l16.49,19.54c.44.53.44,1.27.02,1.81-1.18,1.51-2.59,2.71-4.28,3.66l-20.96.63,8.73-25.64h0Z"/>
    <path class="cls-59" d="M222.56,363.4c.14,0,.25.12.25.25v.07c-.05,2.94-5.53,5.26-12.25,5.14h-.6c-6.72-.12-12.11-2.57-12.06-5.51v-.07c0-.16.12-.25.25-.25l24.41.37h0Z"/>
    <path class="cls-64" d="M242.62,374.17l1.48,4.61c-22.74,13.32-45.85,13.41-69.36.25.56-1.23.67-2.99.35-5.26,11.69,6.28,22.16,9.66,31.35,10.19,11.35.65,23.41-2.62,36.17-9.8h0Z"/>
    <path class="cls-59" d="M174.74,379.03c23.5,13.15,46.62,13.06,69.36-.25l1.62,9.63c-2.15,2.66-4.7,4.89-7.64,6.67-18.53,11.23-37.33,11.35-56.39.3-3.84-2.2-6-4.84-6.48-7.92-.14-.81-1.18-1.07-1.67-.39-.19.25-.35.6-.46,1.04.05-3.94.6-6.97,1.67-9.08h0Z"/>
    <path class="cls-48" d="M245.72,388.41c4.47,7.5,10.51,12.69,18.13,15.54,16.23,6.09,29.57,11.62,40.02,16.6l-187.02-.05c-.46,0-.86-.35-.93-.83-.02-.23,0-.51.07-.81,13.8-5.16,27.53-10.54,41.22-16.12,7.41-3.03,12.69-7.92,15.86-14.64.12-.44.28-.79.46-1.04.49-.67,1.53-.42,1.67.39.49,3.08,2.64,5.72,6.48,7.92,19.06,11.05,37.86,10.93,56.39-.3,2.94-1.78,5.49-4.01,7.64-6.67h0Z"/>
  </g>
</svg>