<?xml version="1.0" encoding="UTF-8"?>
<svg id="Camada_1" data-name="Camada 1" xmlns="http://www.w3.org/2000/svg" xmlns:xlink="http://www.w3.org/1999/xlink" viewBox="0 0 422.07 422.07">
  <defs>
    <style>
      .cls-1 {
        stroke: #21113b;
      }

      .cls-1, .cls-2, .cls-3, .cls-4, .cls-5, .cls-6, .cls-7, .cls-8, .cls-9, .cls-10, .cls-11, .cls-12, .cls-13, .cls-14, .cls-15, .cls-16, .cls-17 {
        fill: none;
        stroke-miterlimit: 10;
      }

      .cls-18 {
        fill: #020304;
      }

      .cls-19 {
        fill: #7b211d;
      }

      .cls-20 {
        fill: #f17074;
      }

      .cls-2 {
        stroke: #da7b27;
      }

      .cls-21 {
        fill: #fff;
      }

      .cls-3 {
        stroke: #ee3f2b;
      }

      .cls-22 {
        fill: #fac833;
      }

      .cls-4 {
        stroke: #dd968d;
      }

      .cls-23 {
        fill: #ec3539;
      }

      .cls-24 {
        fill: #0e0106;
      }

      .cls-5 {
        stroke: #1b1043;
      }

      .cls-25 {
        fill: #ef491d;
      }

      .cls-26 {
        fill: #02020d;
      }

      .cls-6 {
        stroke: #641b11;
      }

      .cls-27 {
        fill: #fe9013;
      }

      .cls-7 {
        stroke: #7f2512;
      }

      .cls-28 {
        fill: #ba2d1b;
      }

      .cls-8 {
        stroke: #a46f1c;
      }

      .cls-29 {
        fill: #4d1504;
      }

      .cls-9 {
        stroke: #fcac23;
      }

      .cls-30 {
        fill: url(#Gradiente_sem_nome_10);
      }

      .cls-10 {
        stroke: #b64949;
      }

      .cls-11 {
        stroke: #210f44;
      }

      .cls-12 {
        stroke: #792611;
      }

      .cls-13 {
        stroke: #86490d;
      }

      .cls-14 {
        stroke: #7d1b20;
      }

      .cls-15 {
        stroke: #f76d18;
      }

      .cls-16 {
        stroke: #9f433c;
      }

      .cls-17 {
        stroke: #dc5f17;
      }
    </style>
    <linearGradient id="Gradiente_sem_nome_10" data-name="Gradiente sem nome 10" x1="15.59" y1="49.92" x2="371.99" y2="343.72" gradientUnits="userSpaceOnUse">
      <stop offset="0" stop-color="#331d81"/>
      <stop offset="1" stop-color="#16085e"/>
    </linearGradient>
  </defs>
  <rect class="cls-30" x="-.57" width="423.22" height="422.07"/>
  <g>
    <g>
      <path class="cls-27" d="M148.23,401.77l-9.61-12.41s3.58-10.97,6.71-12.53,18.9-11.32,18.9-11.32c0,0,41.48,3.79,42.37,5.65s13.33,20.32,16.55,20.32,15.52-15.27,19.28-17.2,11.17-8.77,11.17-8.77c0,0,7.35-.89,8.02-1.83s14.09,10.02,14.98,11.14,4.92,4.86,5.59,7.91c.67,3.05-7.16,21.16-8.5,22.28s-46.29,11.85-56.57,13.42-70.86-16.65-70.86-16.65"/>
      <path class="cls-25" d="M263.23,369.02c-3.26,12.4-11.64,22.03-25.34,27.37-21.14,8.23-42.72,6.95-61.19-3.44-10.19-5.73-16.34-13.94-18.73-23.83l9.18-5.31c16.62,21.62,51.14,24.65,75.26,10.47,3.92-2.31,7.86-5.9,11.69-10.6l9.13,5.34h0Z"/>
      <path class="cls-25" d="M177.07,388.29s-13.25-15.26-13.89-15.93-3.83-10.64,0-11.47,10.44-6.42,10.44-6.42l4.4-5.52s51.66.01,55.32.79,14.44-.03,15.2,0,11.12,4.06,11.12,4.06c0,0,3.93,4.57,4.05,7.09s-.77,6.68-2.56,7.73-5.19,5.75-12.54,10c-7.36,4.25-21.27,13.2-22.25,12.86s-12.2,1.9-15.76,1.9-32.64-5.09-32.64-5.09"/>
      <path class="cls-22" d="M145.27,381.18c7.28,10.99,17.16,19.02,29.67,24.13,20.5,8.37,41.82,9.34,63.96,2.89,15.59-4.54,28.03-13.58,37.29-27.14,16.32,9.36,28.88,24.33,37.62,44.95l-206.01.25c8.31-20.3,20.81-35.32,37.48-45.07h0Z"/>
      <path class="cls-26" d="M177.96,352.17c1.4,2.69-22.43,22.3-23.5,22.42l-9.19,6.59c-16.67,9.76-29.16,24.77-37.48,45.07-.2,1.88-1.7,1.83-4.5-.12-.53-.37-.77-1.16-.59-1.88,5.76-21.66,25.55-40.87,41.63-50.6,1.05-.64,27.38-23.86,26.42-24.7M266.52,351.34c-.42,7.45,1.58,11.44,3.5,13.71,2.34,2.77,7.45,6.41,7.45,6.41h0c17.7,10.35,32.35,29.62,41.72,51.9.59,1.38.02,3.09-1.18,3.58-2.01.81-3.41.49-4.2-.94-8.74-20.62-21.29-35.59-37.62-44.95-2.22-.95-7.69-3.62-11.84-9.74-4.14-6.09-4.63-12.12-4.69-14.53"/>
    </g>
    <path class="cls-11" d="M347.94,225.81c-3.11-11.63-6.66-23.08-10.63-34.33-1.07-3.04-2.54-5.16-4.43-6.32-2-1.23-4.61-.55-5.79,1.48l-7.86,13.63c-.32.55-1.16.3-1.11-.34.34-6.04.57-13.04.66-20.97.09-7.09-.66-14.04-2.27-20.88-5.07-21.7-16.18-40.19-33.35-55.53-1.59-1.43-3.02-2.02-4.29-1.82-2.18.34-3.75,2.34-3.66,4.68.41,11.79.07,22.31-7.18,31.63-.57.75-1.68.75-2.29.05-.27-.34-.5-.91-.66-1.75-9.38-46.46-39.49-78.97-83.61-95.38-3.61-1.34-7.13-2.04-10.56-2.07-2.16-.02-3.73,2.04-3.09,4.11,6.95,22.63,8.61,43.17-5.61,63.39-4.82,6.84-9,12.11-12.54,15.77-6.73,6.95-12.93,18.56-16.13,27.7-.5,1.41-2.45,1.52-3.09.16-5.25-11.27-13-19.79-23.27-25.54-2.82-1.57-5.48-2.27-8-2.11-.95.07-1.68.86-1.64,1.82.11,3.11.45,8.88,1.02,17.27,1.05,14.79-7.5,34.53-14.47,48.96-11.27,23.29-15.02,47.28-8.63,72.59.14.52-.41.98-.89.75l-7.38-3.48c-1.73-.82-3.75.11-4.27,1.95-.61,2.2-.73,4.91-.34,8.16"/>
    <path class="cls-1" d="M347.94,225.81c9.16,48.37-3.16,88.04-36.94,119.03-6.93,6.34-14.43,11.59-22.52,15.72-8.91,4.57-17.38,8.11-25.4,10.63-19.88,6.27-42.99,8.77-69.36,7.52-17.38-.84-34.76-4.45-52.14-10.88-43.17-15.93-72.98-52.17-79.02-98.45"/>
    <path class="cls-5" d="M135.89,54.93c-1.48,6.82-3.79,13.02-6.95,18.61-3.91,6.91-6.16,12.43-6.73,16.56-1.61,11.47,2.11,21.33,11.13,29.58,1.64,1.5,4.16,1.48,5.77-.05,19.45-18.36,19.24-46.44,2.07-66.07-1.66-1.89-4.75-1.09-5.29,1.36"/>
    <path class="cls-7" d="M85.88,271.82l2.23,6.82c.34,1.02-.8,1.91-1.73,1.34l-4.27-2.68"/>
    <path class="cls-14" d="M82.11,277.29l-11.61-9.38c-.55-.45-1.36,0-1.27.7,9.16,65.59,62,100.22,125.01,103.35,37.9,1.89,76.34-3.57,107.12-27.58,23.45-18.29,37.31-42.76,41.58-73.43,3.45-24.72-.48-49.82-11.77-75.34-.23-.48-.89-.5-1.16-.05l-3.34,5.75"/>
    <path class="cls-7" d="M326.67,201.32c-3.95,5.75-8.7,10.79-14.27,15.15"/>
    <path class="cls-13" d="M312.4,216.47c-1.09,1.32-3.04,2.54-5.86,3.7"/>
    <line class="cls-7" x1="306.54" y1="220.17" x2="310.88" y2="199.07"/>
    <path class="cls-14" d="M310.88,199.07c5.86-32.78-5.63-65.39-28.6-88.77-.39-.39-1.05-.07-.98.48,1.43,11.38-1.43,22.49-8.63,33.33"/>
    <path class="cls-7" d="M272.66,144.11c-4.14,3.2-7.91,5.02-11.29,5.5"/>
    <path class="cls-14" d="M261.37,149.6c-1.57-6.07-2.95-11.86-4.16-17.38-9.18-41.58-39.99-72.23-79.84-86.49-.52-.2-1.07.3-.93.84,2.36,9.52,3.34,19.27,2.91,29.26-.95,22.11-12.34,35.85-25.92,52.23-11.93,14.36-17.06,28.58-18.09,47.28-.07,1.25-1.32,2.04-2.43,1.57-.32-.14-.52-.45-.64-.93-4.18-18.99-9.97-34.9-26.63-46.53-.39-.27-.89.07-.82.52,3.68,22.99-5.09,42.65-14.81,62.68-12.29,25.4-14.9,52.14-4.14,79.16"/>
    <path class="cls-3" d="M261.37,149.6c-2.93-4.77-6.32-9.77-8.04-14.45-11.63-31.72-26.51-65.73-63.52-74.52-.98-.23-1.95.41-2.14,1.41-3.09,18.02-6.45,37.19-16.31,51.3-7.75,11.11-14.56,20.95-20.45,29.51-5.82,8.5-9.11,22.31-15.34,33.72-.34.61-.98,1.05-1.68,1.09-2.5.2-4.41.11-5.73-.27-.8-.23-1.43-.86-1.66-1.66-3.25-11.77-7.38-21.58-12.43-29.42-.8-1.25-2.73-.91-3.04.55-7.52,33.99-28.65,63.55-26.49,97.01.8,12.43,1.23,21.74,1.34,27.95M272.66,144.11c5.63-1.93,9.54-8.09,11.72-18.52.27-1.34,1.95-1.77,2.86-.75,3.34,3.77,6.29,8.22,8.91,13.38,4.45,8.86,7.63,20.33,9.52,34.4,1.18,8.79,2.91,17.61,5.2,26.45"/>
    <path class="cls-15" d="M306.54,220.17c.16,1.66-1.57,3.18-5.13,4.61-.8.32-1.66-.32-1.59-1.18,1.79-24.2-3.95-45.71-17.2-64.59-.45-.64-1.36-.68-1.89-.11-8.22,9.09-17.56,14.47-27.99,16.15-1.07.18-2.09.61-2.93,1.3l-5,3.93c-.75.59-1.82-.02-1.7-.98,2.5-19.18-4.54-40.76-14.4-56.1-7.84-12.2-18.02-23.17-30.56-32.97-.41-.34-1.05-.05-1.05.5-.41,22.65-5.68,42.28-21.54,59.07-.05.05-4.63,5.23-13.77,15.54-12.09,13.63-18.22,27.08-18.83,44.37-.07,1.64-1.79,2.68-3.27,1.95-7.79-3.86-13.75-9.61-17.86-17.22-2.54-4.7-4.48-8.16-5.77-10.38-.36-.64-1.29-.59-1.59.07-6.04,13.47-10.72,25.74-14.04,36.81-6.18,20.54-6.68,40.83-1.48,60.89.16.64.75,1.05,1.41,1,.64-.07,1.16-.59,1.2-1.23l1.39-16.34c.05-.39.36-.7.75-.73l.68-.05c.66-.05,1.2.48,1.2,1.11-.05,15.79,2.27,30.24,6.93,43.3,6.63,18.61,24.24,33.65,43.1,42.05,42.12,18.79,93.17,15.04,128.3-17.59,18.81-17.47,24.42-46.85,21.61-71.55-.05-.32.16-.59.48-.66.3-.07.61.09.7.39l7.04,20.4c.32.95.45,1.95.36,2.93l-1.7,20.15c-.09.98,1.11,1.52,1.79.8,10.81-11.59,12.52-31.31,11.22-46.85-.39-4.63-2.27-11.81-5.63-21.52-2.39-6.93-4.86-13.93-7.38-21.02"/>
    <path class="cls-3" d="M326.67,201.32c6.45,13.13,10.25,28.4,11.41,45.8,2.29,34.72-7.77,62.98-30.19,84.81-8.27,8.04-13.31,13.79-23.11,17.97-9.57,4.11-19.29,7.77-29.17,10.97-9.47,3.07-19.63,4.07-30.08,7.47-6.7,2.2-14.36,3.11-20.36,2.64-17.47-1.36-35.1-5.02-52.94-10.97-28.58-9.52-50.71-27.35-66.39-53.48-5.29-8.82-6.54-18.56-3.73-29.24"/>
    <path class="cls-12" d="M139.71,64.27c-2.34,7.11-4.59,12.56-6.75,16.4-6.63,11.7-5.34,22.22,2.39,32.56.41.55,1.2.55,1.64.02,11.79-14.84,15.11-32.44,3.91-49.14-.3-.45-1-.36-1.18.16"/>
    <path class="cls-17" d="M162.59,221.42c-20.83-3.93-38.83,8.04-40.19,29.1-.52,8.02,1.75,16.02,6.79,23.99"/>
    <path class="cls-9" d="M129.19,274.52c-.84,9.38.05,19.31,2.64,29.83,4.84,19.83,15.68,34.03,32.49,42.6,15.84,8.11,32.9,11.5,51.19,10.2,22.99-1.66,41.4-11.41,55.23-29.29,11.97-15.5,16.9-33.78,14.79-54.85"/>
    <path class="cls-17" d="M285.52,273.02c7.43-11.75,8.38-23.4,2.82-34.94-5.91-12.25-16.52-18.18-31.83-17.74"/>
    <path class="cls-9" d="M256.51,220.33l3.23-.45c.73-.09,1.29-.66,1.41-1.36,1.5-9.41.95-18.54-1.61-27.42-.34-1.2-1.89-1.55-2.73-.64-7.54,8.18-17.38,15.5-29.54,21.95-.68.36-1.5-.02-1.68-.77-3.75-16.34-9.77-31.9-18.04-46.67-1.32-2.34-2.59-4.11-3.79-5.34-.43-.45-1.18-.25-1.34.36-3.52,13.7-16.11,23.27-24.49,32.58-7.36,8.2-12.47,17.81-15.34,28.85"/>
    <path class="cls-2" d="M256.51,220.33c-15.74,2.98-25.04,11.02-27.9,24.11-3.86,17.65,4.59,36.49,23.2,40.78,13.56,3.14,24.79-.93,33.72-12.2M129.19,274.52c14.47,16.49,41.53,14.95,52.01-3.16,11.31-19.61,3.23-42.1-18.61-49.94"/>
    <path class="cls-8" d="M206.62,303.71c-11.36,0-21.13-2.41-32.6-5.52-3.79-1.02-6.79-1.36-9-1.02-9.29,1.5-10.77,11.47-7.95,18.86,7.86,20.63,27.99,30.79,49.6,30.76,21.58-.02,41.71-10.2,49.53-30.83,2.82-7.38,1.32-17.36-7.97-18.86-2.2-.34-5.23,0-9,1.05-11.47,3.14-21.22,5.57-32.6,5.57"/>
    <path class="cls-4" d="M150.65,226.25c-14.51,1.94-24.64,15.57-22.66,30.48,1.99,14.9,15.35,25.42,29.86,23.48,14.51-1.94,24.64-15.57,22.66-30.48-1.99-14.9-15.35-25.42-29.86-23.48M252.33,227.07c-14.25,3.87-22.63,18.73-18.7,33.17,3.93,14.44,18.65,23.02,32.91,19.15,14.25-3.87,22.63-18.73,18.7-33.17-3.93-14.44-18.65-23.02-32.91-19.15M173.99,254.43c0-7.82-6.34-14.15-14.15-14.15s-14.15,6.34-14.15,14.15,6.34,14.15,14.15,14.15,14.15-6.34,14.15-14.15M268.14,254.5c0-7.84-6.34-14.18-14.18-14.18s-14.18,6.34-14.18,14.18,6.34,14.18,14.18,14.18,14.18-6.34,14.18-14.18"/>
    <path class="cls-16" d="M180.01,333.3c8.25,8.86,28.83,9.13,39.6,6.84,5.43-1.16,10.88-3.5,16.4-7.07"/>
    <path class="cls-6" d="M236.02,333.07c9.22-4.84,14.5-12.93,15.81-24.31.36-3.14-2.04-5.88-5.2-5.95-3.89-.11-9.07.57-12.95,1.77-16.79,5.29-33.58,5.34-50.53.98-5.79-1.5-11.63-2.48-17.52-2.93-2.66-.2-4.88,1.98-4.75,4.66.64,11.79,6.18,20.47,16.65,25.99.36.2,1.18.2,2.48.02"/>
    <path class="cls-10" d="M236.02,333.07c-13.56-8.72-28.1-11.2-43.6-7.43-4.2,1.02-8.07,2.89-11.63,5.59-.73.57-.98,1.25-.77,2.07"/>
    <path class="cls-24" d="M347.94,225.81c9.16,48.37-3.16,88.04-36.94,119.03-6.93,6.34-14.43,11.59-22.52,15.72-8.91,4.57-17.38,8.11-25.4,10.63-19.88,6.27-42.99,8.77-69.36,7.52-17.38-.84-34.76-4.45-52.14-10.88-43.17-15.93-72.98-52.17-79.02-98.45-.39-3.25-.27-5.95.34-8.16.52-1.84,2.54-2.77,4.27-1.95l7.38,3.48c.48.23,1.02-.23.89-.75-6.38-25.31-2.64-49.3,8.63-72.59,6.97-14.43,15.52-34.17,14.47-48.96-.57-8.38-.91-14.15-1.02-17.27-.05-.95.68-1.75,1.64-1.82,2.52-.16,5.18.55,8,2.11,10.27,5.75,18.02,14.27,23.27,25.54.64,1.36,2.59,1.25,3.09-.16,3.2-9.13,9.41-20.74,16.13-27.7,3.54-3.66,7.72-8.93,12.54-15.77,14.22-20.22,12.56-40.76,5.61-63.39-.64-2.07.93-4.14,3.09-4.11,3.43.02,6.95.73,10.56,2.07,44.12,16.4,74.23,48.92,83.61,95.38.16.84.39,1.41.66,1.75.61.7,1.73.7,2.29-.05,7.25-9.31,7.59-19.83,7.18-31.63-.09-2.34,1.48-4.34,3.66-4.68,1.27-.2,2.7.39,4.29,1.82,17.18,15.34,28.29,33.83,33.35,55.53,1.61,6.84,2.36,13.79,2.27,20.88-.09,7.93-.32,14.93-.66,20.97-.05.64.8.89,1.11.34l7.86-13.63c1.18-2.02,3.79-2.7,5.79-1.48,1.89,1.16,3.36,3.27,4.43,6.32,3.98,11.25,7.52,22.7,10.63,34.33M85.88,271.82l2.23,6.82c.34,1.02-.8,1.91-1.73,1.34l-4.27-2.68-11.61-9.38c-.55-.45-1.36,0-1.27.7,9.16,65.59,62,100.22,125.01,103.35,37.9,1.89,76.34-3.57,107.12-27.58,23.45-18.29,37.31-42.76,41.58-73.43,3.45-24.72-.48-49.82-11.77-75.34-.23-.48-.89-.5-1.16-.05l-3.34,5.75c-3.95,5.75-8.7,10.79-14.27,15.15-1.09,1.32-3.04,2.54-5.86,3.7l4.34-21.11c5.86-32.78-5.63-65.39-28.6-88.77-.39-.39-1.05-.07-.98.48,1.43,11.38-1.43,22.49-8.63,33.33-4.14,3.2-7.91,5.02-11.29,5.5-1.57-6.07-2.95-11.86-4.16-17.38-9.18-41.58-39.99-72.23-79.84-86.49-.52-.2-1.07.3-.93.84,2.36,9.52,3.34,19.27,2.91,29.26-.95,22.11-12.34,35.85-25.92,52.23-11.93,14.36-17.06,28.58-18.09,47.28-.07,1.25-1.32,2.04-2.43,1.57-.32-.14-.52-.45-.64-.93-4.18-18.99-9.97-34.9-26.63-46.53-.39-.27-.89.07-.82.52,3.68,22.99-5.09,42.65-14.81,62.68-12.29,25.4-14.9,52.14-4.14,79.16h0Z"/>
    <path class="cls-23" d="M261.37,149.6c-2.93-4.77-6.32-9.77-8.04-14.45-11.63-31.72-26.51-65.73-63.52-74.52-.98-.23-1.95.41-2.14,1.41-3.09,18.02-6.45,37.19-16.31,51.3-7.75,11.11-14.56,20.95-20.45,29.51-5.82,8.5-9.11,22.31-15.34,33.72-.34.61-.98,1.05-1.68,1.09-2.5.2-4.41.11-5.73-.27-.8-.23-1.43-.86-1.66-1.66-3.25-11.77-7.38-21.58-12.43-29.42-.8-1.25-2.73-.91-3.04.55-7.52,33.99-28.65,63.55-26.49,97.01.8,12.43,1.23,21.74,1.34,27.95-10.77-27.01-8.16-53.76,4.14-79.16,9.72-20.04,18.49-39.69,14.81-62.68-.07-.45.43-.8.82-.52,16.65,11.63,22.45,27.54,26.63,46.53.11.48.32.8.64.93,1.11.48,2.36-.32,2.43-1.57,1.02-18.7,6.16-32.92,18.09-47.28,13.59-16.38,24.97-30.13,25.92-52.23.43-10-.55-19.74-2.91-29.26-.14-.55.41-1.05.93-.84,39.85,14.27,70.66,44.92,79.84,86.49,1.2,5.52,2.59,11.31,4.16,17.38h0Z"/>
    <path class="cls-18" d="M135.89,54.93c.55-2.45,3.64-3.25,5.29-1.36,17.18,19.63,17.38,47.71-2.07,66.07-1.61,1.52-4.13,1.54-5.77.05-9.02-8.25-12.75-18.11-11.13-29.58.57-4.13,2.82-9.66,6.73-16.56,3.16-5.59,5.48-11.79,6.95-18.61M139.71,64.27c-2.34,7.11-4.59,12.56-6.75,16.4-6.63,11.7-5.34,22.22,2.39,32.56.41.55,1.2.55,1.64.02,11.79-14.84,15.11-32.44,3.91-49.14-.3-.45-1-.36-1.18.16h0Z"/>
    <path class="cls-25" d="M261.37,149.6c3.39-.48,7.16-2.29,11.29-5.5,5.63-1.93,9.54-8.09,11.72-18.52.27-1.34,1.95-1.77,2.86-.75,3.34,3.77,6.29,8.22,8.91,13.38,4.45,8.86,7.63,20.33,9.52,34.4,1.18,8.79,2.91,17.61,5.2,26.45l-4.34,21.11c.16,1.66-1.57,3.18-5.13,4.61-.8.32-1.66-.32-1.59-1.18,1.79-24.2-3.95-45.71-17.2-64.59-.45-.64-1.36-.68-1.89-.11-8.22,9.09-17.56,14.47-27.99,16.15-1.07.18-2.09.61-2.93,1.3l-5,3.93c-.75.59-1.82-.02-1.7-.98,2.5-19.18-4.54-40.76-14.4-56.1-7.84-12.2-18.02-23.17-30.56-32.97-.41-.34-1.05-.05-1.05.5-.41,22.65-5.68,42.28-21.54,59.07-.05.05-4.63,5.23-13.77,15.54-12.09,13.63-18.22,27.08-18.83,44.37-.07,1.64-1.79,2.68-3.27,1.95-7.79-3.86-13.75-9.61-17.86-17.22-2.54-4.7-4.48-8.16-5.77-10.38-.36-.64-1.29-.59-1.59.07-6.04,13.47-10.72,25.74-14.04,36.81-6.18,20.54-6.68,40.83-1.48,60.89.16.64.75,1.05,1.41,1,.64-.07,1.16-.59,1.2-1.23l1.39-16.34c.05-.39.36-.7.75-.73l.68-.05c.66-.05,1.2.48,1.2,1.11-.05,15.79,2.27,30.24,6.93,43.3,6.63,18.61,24.24,33.65,43.1,42.05,42.12,18.79,93.17,15.04,128.3-17.59,18.81-17.47,24.42-46.85,21.61-71.55-.05-.32.16-.59.48-.66.3-.07.61.09.7.39l7.04,20.4c.32.95.45,1.95.36,2.93l-1.7,20.15c-.09.98,1.11,1.52,1.79.8,10.81-11.59,12.52-31.31,11.22-46.85-.39-4.63-2.27-11.81-5.63-21.52-2.39-6.93-4.86-13.93-7.38-21.02,5.57-4.36,10.31-9.41,14.27-15.15,6.45,13.13,10.25,28.4,11.41,45.8,2.29,34.72-7.77,62.98-30.19,84.81-8.27,8.04-13.31,13.79-23.11,17.97-9.57,4.11-19.29,7.77-29.17,10.97-9.47,3.07-19.63,4.07-30.08,7.47-6.7,2.2-14.36,3.11-20.36,2.64-17.47-1.36-35.1-5.02-52.94-10.97-28.58-9.52-50.71-27.35-66.39-53.48-5.29-8.82-6.54-18.56-3.73-29.24l4.27,2.68c.93.57,2.07-.32,1.73-1.34l-2.23-6.82c-.11-6.2-.55-15.52-1.34-27.95-2.16-33.47,18.97-63.03,26.49-97.01.32-1.45,2.25-1.79,3.04-.55,5.04,7.84,9.18,17.65,12.43,29.42.23.8.86,1.43,1.66,1.66,1.32.39,3.23.48,5.73.27.7-.05,1.34-.48,1.68-1.09,6.23-11.41,9.52-25.22,15.34-33.72,5.88-8.57,12.7-18.4,20.45-29.51,9.86-14.11,13.22-33.28,16.31-51.3.18-1,1.16-1.64,2.14-1.41,37.01,8.79,51.89,42.8,63.52,74.52,1.73,4.68,5.11,9.68,8.04,14.45h0Z"/>
    <path class="cls-25" d="M139.71,64.27c.18-.52.89-.61,1.18-.16,11.2,16.7,7.88,34.31-3.91,49.14-.43.52-1.23.52-1.64-.02-7.72-10.34-9.02-20.86-2.39-32.56,2.16-3.84,4.41-9.29,6.75-16.4h0Z"/>
    <path class="cls-27" d="M306.54,220.17c2.82-1.16,4.77-2.39,5.86-3.7,2.52,7.09,5,14.09,7.38,21.02,3.36,9.7,5.25,16.88,5.63,21.52,1.3,15.54-.41,35.26-11.22,46.85-.68.73-1.89.18-1.79-.8l1.7-20.15c.09-.98-.05-1.98-.36-2.93l-7.04-20.4c-.09-.3-.41-.45-.7-.39-.32.07-.52.34-.48.66,2.82,24.7-2.79,54.07-21.61,71.55-35.13,32.63-86.18,36.37-128.3,17.59-18.86-8.41-36.47-23.45-43.1-42.05-4.66-13.06-6.98-27.51-6.93-43.3,0-.64-.55-1.16-1.2-1.11l-.68.05c-.39.02-.7.34-.75.73l-1.39,16.34c-.05.64-.57,1.16-1.2,1.23-.66.05-1.25-.36-1.41-1-5.2-20.06-4.7-40.35,1.48-60.89,3.32-11.06,8-23.33,14.04-36.81.3-.66,1.23-.7,1.59-.07,1.3,2.23,3.23,5.68,5.77,10.38,4.11,7.61,10.06,13.36,17.86,17.22,1.48.73,3.2-.32,3.27-1.95.61-17.29,6.75-30.74,18.83-44.37,9.13-10.32,13.72-15.5,13.77-15.54,15.86-16.79,21.13-36.42,21.54-59.07,0-.55.64-.84,1.05-.5,12.54,9.79,22.72,20.77,30.56,32.97,9.86,15.34,16.9,36.92,14.4,56.1-.11.95.95,1.57,1.7.98l5-3.93c.84-.68,1.86-1.11,2.93-1.3,10.43-1.68,19.77-7.07,27.99-16.15.52-.57,1.43-.52,1.89.11,13.25,18.88,18.99,40.4,17.2,64.59-.07.86.8,1.5,1.59,1.18,3.57-1.43,5.29-2.95,5.13-4.61M162.59,221.42c-20.83-3.93-38.83,8.04-40.19,29.1-.52,8.02,1.75,16.02,6.79,23.99-.84,9.38.05,19.31,2.64,29.83,4.84,19.83,15.68,34.03,32.49,42.6,15.84,8.11,32.9,11.5,51.19,10.2,22.99-1.66,41.4-11.41,55.23-29.29,11.97-15.5,16.9-33.78,14.79-54.85,7.43-11.75,8.38-23.4,2.82-34.94-5.91-12.25-16.52-18.18-31.83-17.74l3.23-.45c.73-.09,1.29-.66,1.41-1.36,1.5-9.41.95-18.54-1.61-27.42-.34-1.2-1.89-1.55-2.73-.64-7.54,8.18-17.38,15.5-29.54,21.95-.68.36-1.5-.02-1.68-.77-3.75-16.34-9.77-31.9-18.04-46.67-1.32-2.34-2.59-4.11-3.79-5.34-.43-.45-1.18-.25-1.34.36-3.52,13.7-16.11,23.27-24.49,32.58-7.36,8.2-12.47,17.81-15.34,28.85h0Z"/>
    <path class="cls-23" d="M310.88,199.07c-2.29-8.84-4.02-17.65-5.2-26.45-1.89-14.06-5.07-25.54-9.52-34.4-2.61-5.16-5.57-9.61-8.91-13.38-.91-1.02-2.59-.59-2.86.75-2.18,10.43-6.09,16.59-11.72,18.52,7.2-10.84,10.06-21.95,8.63-33.33-.07-.55.59-.86.98-.48,22.97,23.38,34.47,55.98,28.6,88.77h0Z"/>
    <path class="cls-22" d="M256.51,220.33c-15.74,2.98-25.04,11.02-27.9,24.11-3.86,17.65,4.59,36.49,23.2,40.78,13.56,3.14,24.79-.93,33.72-12.2,2.11,21.06-2.82,39.35-14.79,54.85-13.84,17.88-32.24,27.63-55.23,29.29-18.29,1.3-35.35-2.09-51.19-10.2-16.81-8.57-27.65-22.77-32.49-42.6-2.59-10.52-3.48-20.45-2.64-29.83,14.47,16.49,41.53,14.95,52.01-3.16,11.31-19.61,3.23-42.1-18.61-49.94,2.86-11.04,7.97-20.65,15.34-28.85,8.38-9.32,20.97-18.88,24.49-32.58.16-.61.91-.82,1.34-.36,1.2,1.23,2.48,3,3.79,5.34,8.27,14.77,14.29,30.33,18.04,46.67.18.75,1,1.14,1.68.77,12.16-6.45,21.99-13.77,29.54-21.95.84-.91,2.39-.57,2.73.64,2.57,8.88,3.11,18.02,1.61,27.42-.11.7-.68,1.27-1.41,1.36l-3.23.45M206.62,303.71c-11.36,0-21.13-2.41-32.6-5.52-3.79-1.02-6.79-1.36-9-1.02-9.29,1.5-10.77,11.47-7.95,18.86,7.86,20.63,27.99,30.79,49.6,30.76,21.58-.02,41.71-10.2,49.53-30.83,2.82-7.38,1.32-17.36-7.97-18.86-2.2-.34-5.23,0-9,1.05-11.47,3.14-21.22,5.57-32.6,5.57h0Z"/>
    <path class="cls-23" d="M82.11,277.29c-2.82,10.68-1.57,20.43,3.73,29.24,15.68,26.13,37.81,43.96,66.39,53.48,17.84,5.95,35.47,9.61,52.94,10.97,6,.48,13.65-.43,20.36-2.64,10.45-3.41,20.61-4.41,30.08-7.47,9.88-3.2,19.61-6.86,29.17-10.97,9.79-4.18,14.84-9.93,23.11-17.97,22.42-21.83,32.49-50.1,30.19-84.81-1.16-17.4-4.95-32.67-11.41-45.8l3.34-5.75c.27-.45.93-.43,1.16.05,11.29,25.51,15.22,50.62,11.77,75.34-4.27,30.67-18.13,55.14-41.58,73.43-30.79,24.01-69.23,29.47-107.12,27.58-63-3.14-115.85-37.76-125.01-103.35-.09-.7.73-1.16,1.27-.7l11.61,9.38h0Z"/>
    <path class="cls-28" d="M162.59,221.42c21.83,7.84,29.92,30.33,18.61,49.94-10.47,18.11-37.53,19.65-52.01,3.16-5.04-7.97-7.32-15.97-6.79-23.99,1.36-21.06,19.36-33.03,40.19-29.1M150.65,226.25c-14.51,1.94-24.64,15.57-22.66,30.48,1.99,14.9,15.35,25.42,29.86,23.48,14.51-1.94,24.64-15.57,22.66-30.48-1.99-14.9-15.35-25.42-29.86-23.48h0Z"/>
    <path class="cls-28" d="M256.51,220.33c15.31-.43,25.92,5.5,31.83,17.74,5.57,11.54,4.61,23.2-2.82,34.94-8.93,11.27-20.15,15.34-33.72,12.2-18.61-4.29-27.06-23.13-23.2-40.78,2.86-13.09,12.16-21.13,27.9-24.11M252.33,227.07c-14.25,3.87-22.63,18.73-18.7,33.17,3.93,14.44,18.65,23.02,32.91,19.15,14.25-3.87,22.63-18.73,18.7-33.17-3.93-14.44-18.65-23.02-32.91-19.15h0Z"/>
    <path class="cls-21" d="M150.65,226.25c14.51-1.94,27.86,8.58,29.86,23.48,1.98,14.91-8.15,28.54-22.66,30.48-14.51,1.94-27.86-8.58-29.86-23.48-1.98-14.91,8.15-28.54,22.66-30.48M173.99,254.43c0-7.82-6.34-14.15-14.15-14.15s-14.15,6.34-14.15,14.15,6.34,14.15,14.15,14.15,14.15-6.34,14.15-14.15h0Z"/>
    <path class="cls-21" d="M252.33,227.07c14.26-3.88,28.99,4.71,32.91,19.15,3.93,14.44-4.45,29.3-18.7,33.17-14.26,3.88-28.99-4.71-32.91-19.15-3.93-14.44,4.45-29.3,18.7-33.17M268.14,254.5c0-7.84-6.34-14.18-14.18-14.18s-14.18,6.34-14.18,14.18,6.34,14.18,14.18,14.18,14.18-6.34,14.18-14.18h0Z"/>
    <path class="cls-28" d="M173.99,254.43c0,7.82-6.34,14.15-14.15,14.15s-14.15-6.34-14.15-14.15,6.34-14.15,14.15-14.15,14.15,6.34,14.15,14.15h0Z"/>
    <path class="cls-28" d="M268.14,254.5c0,7.84-6.34,14.18-14.18,14.18s-14.18-6.34-14.18-14.18,6.34-14.18,14.18-14.18,14.18,6.34,14.18,14.18h0Z"/>
    <path class="cls-29" d="M206.66,346.79c-21.61.02-41.74-10.13-49.6-30.76-2.82-7.38-1.34-17.36,7.95-18.86,2.2-.34,5.2,0,9,1.02,11.47,3.11,21.24,5.52,32.6,5.52s21.13-2.43,32.6-5.57c3.77-1.05,6.79-1.39,9-1.05,9.29,1.5,10.79,11.47,7.97,18.86-7.82,20.63-27.95,30.81-49.53,30.83M180.01,333.3c8.25,8.86,28.83,9.13,39.6,6.84,5.43-1.16,10.88-3.5,16.4-7.07,9.22-4.84,14.5-12.93,15.81-24.31.36-3.14-2.04-5.88-5.2-5.95-3.89-.11-9.07.57-12.95,1.77-16.79,5.29-33.58,5.34-50.53.98-5.79-1.5-11.63-2.48-17.52-2.93-2.66-.2-4.88,1.98-4.75,4.66.64,11.79,6.18,20.47,16.65,25.99.36.2,1.18.2,2.48.02h0Z"/>
    <path class="cls-19" d="M236.02,333.07c-13.56-8.72-28.1-11.2-43.6-7.43-4.2,1.02-8.07,2.89-11.63,5.59-.73.57-.98,1.25-.77,2.07-1.29.18-2.11.18-2.48-.02-10.47-5.52-16.02-14.2-16.65-25.99-.14-2.68,2.09-4.86,4.75-4.66,5.88.45,11.72,1.43,17.52,2.93,16.95,4.36,33.74,4.32,50.53-.98,3.89-1.2,9.07-1.89,12.95-1.77,3.16.07,5.57,2.82,5.2,5.95-1.32,11.38-6.59,19.47-15.81,24.31h0Z"/>
    <path class="cls-20" d="M236.02,333.07c-5.52,3.57-10.97,5.91-16.4,7.07-10.77,2.29-31.35,2.02-39.6-6.84-.2-.82.05-1.5.77-2.07,3.57-2.7,7.43-4.57,11.63-5.59,15.5-3.77,30.04-1.3,43.6,7.43h0Z"/>
  </g>
</svg>