<?xml version="1.0" encoding="UTF-8"?>
<svg id="Camada_1" data-name="Camada 1" xmlns="http://www.w3.org/2000/svg" xmlns:xlink="http://www.w3.org/1999/xlink" viewBox="0 0 422.07 422.07">
  <defs>
    <style>
      .cls-1 {
        fill: #9d5e2e;
      }

      .cls-2 {
        fill: #d49015;
      }

      .cls-3 {
        stroke: #acd262;
      }

      .cls-3, .cls-4, .cls-5, .cls-6, .cls-7, .cls-8, .cls-9, .cls-10, .cls-11, .cls-12, .cls-13, .cls-14, .cls-15, .cls-16, .cls-17, .cls-18, .cls-19, .cls-20, .cls-21, .cls-22, .cls-23, .cls-24, .cls-25, .cls-26, .cls-27, .cls-28, .cls-29, .cls-30, .cls-31, .cls-32, .cls-33, .cls-34, .cls-35, .cls-36, .cls-37, .cls-38, .cls-39, .cls-40, .cls-41, .cls-42, .cls-43, .cls-44, .cls-45 {
        fill: none;
      }

      .cls-3, .cls-4, .cls-5, .cls-6, .cls-7, .cls-8, .cls-9, .cls-10, .cls-11, .cls-12, .cls-14, .cls-15, .cls-16, .cls-17, .cls-18, .cls-19, .cls-20, .cls-21, .cls-22, .cls-23, .cls-24, .cls-25, .cls-26, .cls-27, .cls-28, .cls-29, .cls-30, .cls-31, .cls-32, .cls-33, .cls-34, .cls-35, .cls-36, .cls-37, .cls-38, .cls-39, .cls-40, .cls-41, .cls-42, .cls-43, .cls-44, .cls-45 {
        stroke-miterlimit: 10;
      }

      .cls-46 {
        fill: #fed635;
      }

      .cls-47 {
        fill: #020304;
      }

      .cls-4 {
        stroke: #806d1d;
      }

      .cls-48 {
        fill: #cdd2d4;
      }

      .cls-5 {
        stroke: #e4a21c;
      }

      .cls-49 {
        fill: #361005;
      }

      .cls-6 {
        stroke: #804a0c;
      }

      .cls-7 {
        stroke: #1c5268;
      }

      .cls-50 {
        fill: #f17074;
      }

      .cls-8 {
        stroke: #673e11;
      }

      .cls-9 {
        stroke: #94403d;
      }

      .cls-10 {
        stroke: #feba34;
      }

      .cls-51 {
        fill: #fff;
      }

      .cls-11 {
        stroke: #1b123a;
      }

      .cls-52 {
        fill: #fdee30;
      }

      .cls-12 {
        stroke: #1c6482;
      }

      .cls-14 {
        stroke: #4c653f;
      }

      .cls-53 {
        fill: #63b250;
      }

      .cls-54 {
        fill: #fac833;
      }

      .cls-55 {
        fill: #f3b322;
      }

      .cls-15 {
        stroke: #1b1047;
      }

      .cls-16 {
        stroke: #1b1043;
      }

      .cls-17 {
        stroke: #021428;
      }

      .cls-18 {
        stroke: #a54246;
      }

      .cls-19 {
        stroke: #814512;
      }

      .cls-56 {
        fill: #cc791e;
      }

      .cls-57 {
        fill: #fee355;
      }

      .cls-20 {
        stroke: #80791a;
      }

      .cls-21 {
        stroke: #80732d;
      }

      .cls-58 {
        fill: #c3db53;
      }

      .cls-22 {
        stroke: #d0802d;
      }

      .cls-23 {
        stroke: #40709d;
      }

      .cls-24 {
        stroke: #7e661c;
      }

      .cls-59 {
        fill: #332070;
      }

      .cls-60 {
        fill: #5f2710;
      }

      .cls-61 {
        fill: #02020d;
      }

      .cls-25 {
        stroke: #e7ac24;
      }

      .cls-26 {
        stroke: #914e20;
      }

      .cls-62 {
        fill: #591317;
      }

      .cls-63 {
        fill: #fe9013;
      }

      .cls-27 {
        stroke: #feb324;
      }

      .cls-28 {
        stroke: #fedd45;
      }

      .cls-64 {
        fill: #d4873c;
      }

      .cls-65 {
        fill: #4d1504;
      }

      .cls-29 {
        stroke: #fee233;
      }

      .cls-30 {
        stroke: #6b4a0d;
      }

      .cls-31 {
        stroke: #b56c26;
      }

      .cls-32 {
        stroke: #1b2162;
      }

      .cls-66 {
        fill: url(#Gradiente_sem_nome_10);
      }

      .cls-33 {
        stroke: #7ec7d5;
      }

      .cls-67 {
        fill: #2fbcd5;
      }

      .cls-34 {
        stroke: #a68a82;
      }

      .cls-35 {
        stroke: #6b4520;
      }

      .cls-36 {
        stroke: #fee943;
      }

      .cls-68 {
        fill: #83bd55;
      }

      .cls-37 {
        stroke: #27747d;
      }

      .cls-38 {
        stroke: #8d4711;
      }

      .cls-69 {
        fill: #022542;
      }

      .cls-39 {
        stroke: #48120e;
      }

      .cls-40 {
        stroke: #503119;
      }

      .cls-41 {
        stroke: #f7be2b;
      }

      .cls-42 {
        stroke: #7b5b13;
      }

      .cls-43 {
        stroke: #febf22;
      }

      .cls-44 {
        stroke: #331f79;
      }

      .cls-45 {
        stroke: #965017;
      }
    </style>
    <linearGradient id="Gradiente_sem_nome_10" data-name="Gradiente sem nome 10" x1="15.59" y1="49.92" x2="371.99" y2="343.72" gradientUnits="userSpaceOnUse">
      <stop offset="0" stop-color="#331d81"/>
      <stop offset="1" stop-color="#16085e"/>
    </linearGradient>
  </defs>
  <rect class="cls-66" x="-.57" width="423.22" height="422.07"/>
  <g>
    <path class="cls-15" d="M102.64,345.31c.5.28.66.92.33,1.4-14.37,20.47-23.64,43.04-27.79,67.78-.14.78.12,1.57.66,2.13,2.04,2.16,4.27,2.16,6.71.02"/>
    <line class="cls-32" x1="113.15" y1="416.48" x2="120.19" y2="416.79"/>
    <path class="cls-44" d="M137.22,416.91c6.43,3.77,14.39,5.69,23.9,5.74,37.26.21,67.61-.38,91.09-1.83,6.73-.43,13.35-1.8,19.85-4.13"/>
    <line class="cls-23" x1="285.05" y1="416.48" x2="303.6" y2="415.96"/>
    <path class="cls-32" d="M303.6,415.96c1.87,1.92,4.08,2.23,6.57.88"/>
    <path class="cls-15" d="M341.78,415.89c.97,1.35,2.51,1.75,4.62,1.26,1.33-.31,2.18-1.61,1.92-2.94-4.55-24.12-13.3-47.19-26.25-67.21-.47-.76-.28-1.73.43-2.28"/>
    <line class="cls-17" x1="292.47" y1="358.59" x2="288.87" y2="359.54"/>
    <line class="cls-7" x1="288.87" y1="359.54" x2="254.56" y2="370.64"/>
    <path class="cls-14" d="M254.56,370.64c-2.51.55-5.15.33-7.87-.64-1.68-.59-1.57-2.99.14-3.44,21.46-5.67,42.35-13.33,62.68-22.93"/>
    <path class="cls-14" d="M122.8,347.8c17.45,7.23,35.41,13.59,53.86,19.04,1.45.43,1.38,2.51-.09,2.85l-3.34.74"/>
    <path class="cls-7" d="M173.22,370.43c-13.19-2.68-25.99-6.47-38.42-11.36"/>
    <line class="cls-17" x1="134.8" y1="359.07" x2="131.34" y2="357.98"/>
    <line class="cls-12" x1="134.8" y1="359.07" x2="130.39" y2="373.15"/>
    <path class="cls-37" d="M130.39,373.15c-5.34,14.51-8.73,29.05-10.2,43.63"/>
    <path class="cls-37" d="M303.6,415.96c-1.94-14.99-5.41-29.33-10.39-43.02"/>
    <line class="cls-12" x1="293.21" y1="372.94" x2="288.87" y2="359.54"/>
    <path class="cls-3" d="M255.74,349.7c15.3-2.73,35.67-9.37,48.66-13.14"/>
    <path class="cls-33" d="M85.26,416.5l10.62.03c.09,0,.17-.01.24-.04"/>
    <path class="cls-61" d="M114.91,339.55c-.67-.26-5.49,9.77-5.98,10.29-4.11,4.3-7.24,9.18-9.44,14.63-5.34,10.04-9.51,20.38-12.48,31.02l-2.84,10.32-1.61,10.84c-2.45,2.13-4.68,2.13-6.72-.03-.54-.57-.8-1.35-.66-2.13,4.15-24.74,13.42-47.31,27.79-67.78.34-.47,6.81-7.98,6.31-8.27"/>
    <path class="cls-61" d="M301.81,319.11c1.85,3.26,5.96,4.34,8.86,6.71,1.02.84,1.9,1.84,2.76,2.84,2.61,3.02,4.12,7.34,5.75,10.97,1.92,4.29,3.77,8.62,6.18,12.66,11.32,19.02,18.87,40.19,22.97,61.91.26,1.33-.59,2.64-1.92,2.94-2.11.5-3.65.1-4.62-1.25l-1.69-7.28c0-3.54-.83-6.93-2.51-10.13-3.53-12.88-8.47-25.52-14.85-37.94-3.92-7.04-7.72-13.91-12.93-20.05-1.21-1.43-2.42-2.86-3.63-4.28"/>
    <path class="cls-58" d="M304.4,336.56c-13,3.77-33.37,10.41-48.66,13.14"/>
    <path class="cls-68" d="M302.96,367.06c-5.03.27-10.07.18-15.09-.28-.96-.09-1.92-.19-2.83-.47-2.4-.72-4.31-2.57-6.64-3.49-1.39-.55-2.89-.76-4.37-.99-3.92-.59-7.9-1.34-11.35-3.29s-6.33-5.3-6.73-9.24c-.13-1.23,0-2.48.23-3.7.83-4.35,3.18-8.39,6.55-11.27,1.72-1.47,3.68-2.64,5.63-3.79,2.55-1.5,5.17-3.02,8.08-3.55,2.61-.48,5.29-.14,7.92.21,3.47.45,6.94.9,10.38,1.57,2.73.52,5.49,1.2,7.84,2.68,2.28,1.43,4.04,3.53,5.7,5.65,5.75,7.36,9.95,15.33,14.46,23.43,6.38,12.42,11.32,25.06,14.85,37.94,1.68,3.2,2.51,6.59,2.51,10.13l1.69,7.28-10.67.35c-2.66.5-5.1.53-7.33.1l-13.61.5-1.74-11.17c-3.2-16.7-8.51-32.4-15.96-47.08l21.96-10.34c.67-.3,1.43-.04,1.78.57,0,0,1.27,2.28,2.69,4.83"/>
    <path class="cls-68" d="M131.34,357.98c-9.56,17.85-15.63,37.35-18.19,58.5h-17.03s-10.86.02-10.86.02c-1.09-.21-1.99-.16-2.7.15l1.61-10.84,2.84-10.32c2.97-10.64,7.14-20.98,12.48-31.02,2.2-5.45,5.33-10.33,9.44-14.63.49-.52,3.55-5.4,4.22-5.14l18.19,13.28Z"/>
    <path class="cls-67" d="M96.12,416.49c-.07.03-.15.04-.24.04l-10.62-.03h10.86Z"/>
    <path class="cls-53" d="M288.87,359.54l4.34,13.4c-8.56,6-17.26,9.79-26.13,11.38l1.44,3.37c-9.13,1.21-18.38,2.68-27.74,4.41-18.26,3.37-33.2,5.2-48.97,2.47-4.48-.78-15.51-3.35-33.08-7.73-1.21.35-2.45.4-3.7.09l1.96-3.06c-1.39.64-2.41.81-3.03.48-5.07-2.7-10.19-5.29-15.42-7.66-3.83-1.74-9.59-3.73-11.12-8.09-.95-2.73-.24-6.29-2.49-8.09-.87-.7-2.01-.94-3.09-1.24-2.9-.79-5.66-2.09-8.12-3.81-1.22-.85-2.41-1.88-2.92-3.27-.32-.89-.34-1.86-.36-2.8-.02-1.73-.04-3.47.3-5.16,1.27-6.3,7.8-10.9,14.21-10.46,2.52.17,4.95,1,7.34,1.84,1.99.7,3.99,1.42,5.78,2.54,2.65,1.66,4.68,4.11,6.92,6.29,8.89,8.62,21.76,12.97,34.06,11.51"/>
    <path class="cls-69" d="M134.8,359.07l-4.41,14.08c-5.34,14.52-8.73,29.05-10.2,43.64l-7.04-.31c2.56-21.15,8.63-40.65,18.19-58.5l3.46,1.09Z"/>
    <path class="cls-69" d="M310.17,416.84c-2.49,1.35-4.7,1.04-6.57-.88-1.95-14.99-5.41-29.34-10.39-43.02l-4.34-13.4,3.6-.95c7.45,14.68,12.76,30.38,15.96,47.08l1.74,11.17Z"/>
    <path class="cls-58" d="M255.74,349.7c15.3-2.73,35.67-9.37,48.66-13.14"/>
    <path class="cls-68" d="M303.6,415.96l-18.55.52-12.99.21-75.87-.09-56.25.09-2.72.22-17.03-.12c1.47-14.59,4.86-29.12,10.2-43.64,8.23,3.4,16.08,7.14,23.57,11.2.62.33,1.64.16,3.03-.48l-1.96,3.06c1.25.31,2.49.26,3.7-.09,17.57,4.38,28.6,6.95,33.08,7.73,15.77,2.73,30.71.9,48.97-2.47,9.36-1.73,18.61-3.2,27.74-4.41l-1.44-3.37c8.87-1.59,17.57-5.38,26.13-11.38,4.98,13.68,8.44,28.03,10.39,43.02Z"/>
    <path class="cls-48" d="M96.12,416.49c-.07.03-.15.04-.24.04l-10.62-.03h10.86Z"/>
    <path class="cls-59" d="M272.06,416.69c-6.5,2.33-13.12,3.7-19.85,4.13-23.48,1.45-53.83,2.04-91.09,1.83-9.51-.05-17.48-1.97-23.9-5.74l2.72-.22,56.25-.09,75.87.09Z"/>
    <path class="cls-13" d="M313.27,343.62c-.89-.88-1.68-1.86-2.35-2.92-.9-1.4-1.59-2.94-2.56-4.29-1.17-1.65-2.72-2.98-4.17-4.38-2.53-2.43-4.84-5.1-6.88-7.96"/>
    <path class="cls-13" d="M189.17,373.07c-7.61,2.39-15.73,3.14-23.65,2.19-1.61-.19-3.23-.46-4.76-1.01-1.46-.53-2.82-1.31-4.17-2.08-5.87-3.37-11.74-6.74-17.61-10.11-1.32-.76-2.65-1.53-3.69-2.63-.63-.67-1.15-1.46-1.89-2.01-.75-.56-1.66-.85-2.54-1.16-7.47-2.61-14.04-7.73-18.4-14.33-.75-1.14-1.47-2.43-1.31-3.78.2-1.73,1.74-2.97,3.18-3.95,4.38-2.99,9.22-5.64,14.51-6.06,3.52-.28,7.04.45,10.48,1.27,7.5,1.79,14.9,4.05,22.52,5.26,2.14.34,4.3.6,6.38,1.19,2.8.8,5.39,2.19,7.95,3.58,2.76,1.5,5.52,3.01,8.06,4.86,3.94,2.86,7.27,6.47,10.57,10.06,1.49,1.62,3.02,3.29,3.85,5.34.74,1.82.87,3.81.98,5.77.23,4.26.21,8.96-2.57,12.2"/>
  </g>
  <g>
    <path class="cls-44" d="M383.52,233.27l16.45-13.14c.64-.51.93-1.32.78-2.13l-1.57-8.19"/>
    <path class="cls-16" d="M399.19,209.8c-7.9-13.81-21.51-20.67-36.39-25.85-.83-.29-1.03-1.4-.34-1.96,10.86-8.68,19.27-20.03,22.76-33.25,5.25-19.79-34.31-21.6-46.08-20.23-.76.1-1.3-.74-.91-1.4,7.09-11.94,10.13-24.96,9.07-39.09-.51-7.28-4.63-11.16-12.33-11.6-9.98-.56-19.45.93-28.35,4.54-3.36,1.37-8.39,4.78-10.03,5.03-.71.1-1.32-.49-1.23-1.2,2.11-14.59-.47-30.68-9.12-42.74-8.17-11.3-33.23,7.55-39.7,14.3-3.04,3.19-4.88,5.05-5.49,5.62-.47.44-1.23.2-1.37-.42-3.51-13.9-10.64-25.13-21.43-33.64-4-3.16-8.78-5-13.12-1.89-11.62,8.31-19.74,20.01-24.35,35.07-.25.76-1.23.96-1.74.34-8.61-10.1-19.03-17.29-31.29-21.58-7.38-2.57-12.73-.44-16.09,6.42-5.96,12.21-8.04,25.33-6.25,39.38.07.51-.47.88-.91.64-10.42-5.64-20.52-8.95-30.36-9.96-7.26-.74-18.49-.32-20.33,8.44-2.18,10.59-.64,21.78,4.66,33.57.07.2,1.37,3.31,3.9,9.32.25.59-.22,1.2-.83,1.13-10.45-1.28-20.08-.64-28.89,1.89-7.99,2.28-19.99,6.94-17.8,16.33,3.21,13.83,11.87,24.64,22.56,34.77.54.49.39,1.37-.27,1.67-14.49,6.45-25.33,11.53-34.53,24.62-.42.56-.71,1.2-.91,1.89-4.19,15.13,23.81,29.08,35.97,32.96.88.27,1.08,1.45.34,2.01-10.62,8.34-18,18.76-22.14,31.24-4.29,12.9,5.98,16.65,16.55,19.81,8.88,2.65,18.59,3.41,29.11,2.26.78-.07,1.35.76.93,1.45-7.26,12.09-10.27,25.28-9.02,39.63.59,6.89,4.71,10.57,12.38,11.01,13.56.81,26.34-2.43,38.35-9.69.51-.32,1.15.12,1.08.71-2.04,15.3.52,34.06,10.89,45.27.56.61,1.3,1.03,2.11,1.18,13.9,2.5,32.22-12.31,40.85-23,.39-.49,1.15-.37,1.4.2.27.66,1.1,2.94,2.53,6.89,4.19,11.55,10.96,20.77,20.35,27.66,3.63,2.65,7.95,3.97,11.5,1.57,13.07-8.85,19.84-20.84,25.28-35.58.22-.56.96-.71,1.35-.25,6.6,7.72,36.78,33.32,45.81,17.9,7.26-12.43,9.91-26.21,7.92-41.39-.12-.91.86-1.54,1.64-1.05,11.11,6.96,25.97,10.52,38.87,9.61,4.81-.34,10.2-3.38,11.08-8.04,2.84-14.76-1.3-30.24-8.97-43.28-.34-.59.15-1.32.83-1.23,13.51,1.99,26.26.32,38.3-5.03,8.66-3.85,10.99-10.3,7.04-19.4-4.93-11.38-12.02-20.89-21.26-28.54-.39-.34-.32-.98.15-1.2l20.6-10.35"/>
    <path class="cls-11" d="M399.19,209.8c1.94,9.71-8.75,18.42-15.67,23.47"/>
    <line class="cls-6" x1="204.61" y1="100.73" x2="214" y2="100.53"/>
    <path class="cls-21" d="M214,100.53l17.56,1.79c.64.07,1.25-.34,1.4-.98,7.01-28.18.07-51.64-20.79-70.45-.71-.64-1.77-.69-2.53-.1-22.73,17.41-27.88,42.91-21.68,70.18.15.64.74,1.05,1.4,1.01l15.25-1.25"/>
    <path class="cls-10" d="M214,100.53c1.32-.34,1.74-1.64,1.23-3.92"/>
    <path class="cls-36" d="M215.23,96.61l13.12-.96c.78-.05,1.42-.66,1.5-1.45,2.04-20.33-3.48-38.6-16.55-54.76-1.45-1.79-4.12-1.94-5.76-.32-14.42,14.2-18.73,36.56-14.2,55.71.17.74.78,1.3,1.54,1.42,3.36.56,6.92.42,10.69-.39"/>
    <line class="cls-10" x1="205.56" y1="95.87" x2="204.61" y2="100.73"/>
    <path class="cls-43" d="M215.23,96.61l-2.75-21.38c-.27-2.18-3.16-2.82-4.32-.93-.56.91-.88,2.21-.96,3.87-.32,6.11-.86,12.02-1.64,17.7"/>
    <line class="cls-30" x1="162.33" y1="111.27" x2="171.72" y2="107.47"/>
    <path class="cls-24" d="M171.72,107.47l10.72-3.87c.69-.25,1.05-1.01.83-1.69-2.33-7.01-3.58-13.98-3.8-20.87-.54-17.21-22.36-31.36-36.51-35.78-1.5-.47-3.11.17-3.87,1.52-8.41,14.98-9.78,30.8-4.12,47.4,1.81,5.35,6.69,12.7,14.66,22.09.47.54,1.23.69,1.84.39l10.86-5.39"/>
    <path class="cls-25" d="M171.72,107.47c-1.2-.86-2.23-2.4-3.04-4.59"/>
    <path class="cls-41" d="M168.68,102.89l5.71-2.72c.66-.32,1.1-.98,1.1-1.74-.07-9.42-.91-16.85-2.5-22.31-3.51-12.14-16.48-21.04-29.23-25.06-1.2-.39-2.48.27-2.89,1.47-6.94,20.45-4.1,39.16,8.53,56.11.47.64,1.15,1.05,1.91,1.2,3.46.66,6.87-.39,10.25-3.16"/>
    <path class="cls-25" d="M161.57,106.66c.71,1.94.96,3.46.76,4.61"/>
    <path class="cls-5" d="M168.68,102.89c-2.6-6.18-5.62-11.94-9.05-17.26-.83-1.3-2.77-1.25-3.53.1-.42.71-.44,1.72-.12,2.97,1.57,6.25,3.43,12.24,5.59,17.97"/>
    <line class="cls-42" x1="247.08" y1="106.61" x2="249.48" y2="107.55"/>
    <line class="cls-30" x1="249.48" y1="107.55" x2="258.56" y2="111.03"/>
    <line class="cls-42" x1="258.56" y1="111.03" x2="264.61" y2="114.02"/>
    <path class="cls-24" d="M264.61,114.02l4.9,2.82c.64.37,1.47.12,1.81-.54,1.74-3.33,5.35-8.61,10.81-15.82,10.69-14.05,7.14-37.98.39-52.87-.86-1.89-3.02-2.84-4.98-2.21-15.18,4.88-26.95,14.25-35.26,28.13-.44.74-.69,1.59-.69,2.45.07,8.66-1.18,17.29-3.8,25.94-.22.76.2,1.54.93,1.81l8.34,2.87"/>
    <path class="cls-41" d="M264.61,114.02c18.19-16.85,22.76-37.27,13.68-61.28-.64-1.67-2.53-2.5-4.17-1.81-12.48,5.1-25.92,16.26-28,30.04-.81,5.39-1.03,11.23-.61,17.53.05.69.25,1.32.59,1.91,1.18,1.94,1.5,4,.98,6.2"/>
    <path class="cls-5" d="M258.56,111.03l6.23-24.62c.39-1.5-1.4-2.6-2.57-1.59-6.72,5.81-8.71,15.06-12.73,22.73"/>
    <line class="cls-6" x1="287.56" y1="129.79" x2="293.96" y2="136.31"/>
    <path class="cls-4" d="M293.96,136.31l10.08,11.79c.44.51,1.23.61,1.81.25,18.32-11.87,31.24-26.29,34.72-48.16.78-4.83.78-9.1.02-12.8-.44-2.23-2.38-3.83-4.66-3.87-22-.52-39.23,7.68-51.69,24.52-1.69,2.28-4.27,5.84-7.77,10.62-.44.61-.34,1.47.25,1.96l10.84,9.17"/>
    <path class="cls-27" d="M293.96,136.31c.71-1.4,2.01-2.82,3.87-4.24"/>
    <path class="cls-29" d="M297.84,132.07c2.06,3.09,4.56,5.47,7.48,7.11.69.39,1.52.42,2.23.05,16.7-8.53,24.77-26.04,28.42-44.29.22-1.05-.39-2.11-1.42-2.45-9.93-3.16-19.32-2.43-28.18,2.21-13.36,6.99-21.8,18.76-16.18,33.55"/>
    <path class="cls-27" d="M290.19,128.24c-.86.22-1.72.74-2.62,1.54"/>
    <path class="cls-43" d="M297.84,132.07l12.24-14.42c1.01-1.18.32-2.99-1.23-3.24-1.45-.22-2.94.32-4.44,1.59-4.73,4.05-9.49,8.12-14.22,12.24"/>
    <line class="cls-6" x1="127.36" y1="135.92" x2="132.32" y2="131.11"/>
    <path class="cls-20" d="M132.32,131.11c1.42-1.01,2.48-2.08,3.14-3.24"/>
    <path class="cls-4" d="M135.46,127.87l8.73-7.06c.59-.47.69-1.35.2-1.94-6.38-7.7-11.6-17.61-18.93-22.81-11.4-8.07-27.93-14.66-41.86-11.97-2.31.44-3.95,2.45-3.97,4.78-.15,17.97,6.01,33.86,18.49,47.67.59.64,1.23,1.2,1.94,1.72l14.76,10.69c.59.42,1.37.32,1.84-.22l10.72-12.83"/>
    <path class="cls-29" d="M135.46,127.87c1.2-25.16-26.68-37.49-47.5-38.74-1.81-.1-3.31,1.4-3.19,3.21,1.3,20.16,10.35,35.63,27.15,46.42.88.56,1.96.64,2.92.25l9.59-4.07"/>
    <path class="cls-27" d="M124.42,134.94c.78.69,1.77,1.01,2.94.98"/>
    <path class="cls-43" d="M132.32,131.11c-5.86-7.33-12.56-13.02-20.13-17.12-1.89-1.03-3.8,1.3-2.45,2.97l14.69,17.97"/>
    <path class="cls-8" d="M106.05,192.71c-2.7,13.46-2.77,27.34-.22,40.83"/>
    <path class="cls-40" d="M105.83,233.54c4.51,23.84,17.02,45.41,35.43,61.18,26.07,22.29,61.26,30.7,94.58,22.58,35.51-8.66,64.12-34.92,75.8-69.57,5.15-15.23,6.77-31.44,4.76-47.38"/>
    <path class="cls-8" d="M316.4,200.36c-1.77-13.98-6.28-27.49-13.29-39.73"/>
    <path class="cls-35" d="M303.11,160.63c-9.76-17.02-24.03-31-41.22-40.44-31.14-17.09-68.76-17.53-100.32-1.2-28.74,14.86-49.17,41.98-55.52,73.71"/>
    <path class="cls-22" d="M303.11,160.63c-5.05-3.21-9.71-6.87-13.98-10.99-6.89-6.62-11.26-10.57-13.12-11.87-39.36-27.29-90.78-24.94-130.63.66-21.33,13.68-37.94,37.13-24.13,62.51"/>
    <path class="cls-26" d="M121.26,200.95c-.52.51-.71,1.45-.61,2.8"/>
    <path class="cls-22" d="M120.65,203.74c-6.25-1.54-11.11-5.22-14.59-11.03"/>
    <path class="cls-31" d="M316.4,200.36l-4.51,19.27c-.15.66-.22,1.32-.25,1.99-.05,5.96-.86,11.01-2.43,15.11-7.9,20.55-22.22,42.64-42.3,53.33-14.79,7.87-30.85,14.44-46.79,15.87-19.25,1.72-37.64-1.79-55.12-10.52-9.32-4.68-15.57-8.17-18.78-10.45-13.19-9.44-20.5-23.05-30.01-40.46-2.48-4.54-5.93-8.19-10.37-10.96"/>
    <path class="cls-38" d="M120.65,203.74c.12,20.11,13.95,36.32,34.28,36.22,22.46-.07,39.14-19.45,33.91-41.78-5.86-25.01-38.72-36.59-57.94-17.78-5.37,5.22-8.58,12.09-9.64,20.55"/>
    <line class="cls-30" x1="103.21" y1="175.15" x2="106.45" y2="166.08"/>
    <line class="cls-42" x1="106.45" y1="166.08" x2="108.26" y2="162.55"/>
    <path class="cls-24" d="M108.26,162.55l3.87-7.53c.22-.44.1-1.01-.32-1.3l-20.6-14.76c-.64-.47-1.35-.78-2.08-1.01-13.07-3.51-36.29-4.36-47.11,5.69-.66.61-.91,1.59-.59,2.45,4.05,11.45,10.54,21.21,19.49,29.28,4.66,4.19,8.36,6.4,11.08,6.67,9.61.93,18.46,2.45,26.58,4.56.71.2,1.47-.25,1.67-.96l2.94-10.5"/>
    <path class="cls-41" d="M108.26,162.55c-9.98-18.91-37.05-24.08-56.55-19.1-1.59.42-2.55,2.04-2.13,3.63,5.84,22.98,26.04,33.69,48.63,29.6.86-.15,1.62-.69,2.06-1.45.71-1.3.86-2.31.44-3.07"/>
    <path class="cls-25" d="M100.71,172.16c1.15.64,1.99,1.64,2.5,2.99"/>
    <path class="cls-5" d="M106.45,166.08c-8.31-2.45-15.57-6.96-24.52-6.91-1.91,0-2.53,2.6-.78,3.46l19.57,9.54"/>
    <line class="cls-30" x1="315" y1="167.35" x2="317.43" y2="173.21"/>
    <path class="cls-24" d="M317.43,173.21l4.05,12.06c.29.81,1.1,1.28,1.94,1.13l26.63-5.25c.83-.17,1.62-.47,2.33-.93,13.22-8.51,22.04-19.79,26.53-33.82.44-1.4-.1-2.94-1.32-3.75-8.04-5.32-17.21-7.55-27.54-6.74"/>
    <path class="cls-42" d="M350.05,135.92c-6.6-.64-12.75.12-18.51,2.31-8.12,3.04-14.54,10.54-22.73,14.71-.66.34-.93,1.15-.56,1.81l6.77,12.6"/>
    <path class="cls-41" d="M350.05,135.92l19.74,8.31c1.79.76,2.72,2.75,2.16,4.61-7.01,22.49-25.09,28.49-46.35,32.05-.78.12-1.57-.15-2.08-.74-1.89-2.08-3.04-4.78-3.46-8.07"/>
    <path class="cls-5" d="M320.06,172.09c5.86-2.4,15.33-5.76,19.47-10.84.98-1.2-.1-2.97-1.62-2.65-7.92,1.69-15.57,4.61-22.9,8.75"/>
    <line class="cls-25" x1="317.43" y1="173.21" x2="320.06" y2="172.09"/>
    <line class="cls-6" x1="97.28" y1="220.3" x2="97.03" y2="210.49"/>
    <path class="cls-4" d="M97.03,210.49l1.01-17.02c.05-.71-.42-1.37-1.13-1.57-22.49-6.25-42.55-2.67-60.18,10.79-3.16,2.43-5.89,5.3-8.12,8.66-.98,1.47-.86,3.38.29,4.71,11.87,13.76,27,21.24,45.41,22.41,8.21.54,15.84-1.25,23.71-1.69.76-.05,1.3-.71,1.2-1.45l-1.96-15.03"/>
    <path class="cls-27" d="M97.03,210.49l.05-2.08c.02-.49-.64-.69-.88-.25-.96,1.74-2.35,2.31-4.19,1.74"/>
    <path class="cls-29" d="M92,209.9l.34-7.9c.02-1.03-.54-1.99-1.45-2.45-18.29-9.2-39.53-4.17-54.95,8.78-.96.81-1.18,2.18-.54,3.24,11.89,19.91,34.62,22.49,55.49,19.03.69-.12,1.23-.69,1.28-1.4l.83-11.72"/>
    <path class="cls-27" d="M93.01,217.48c.83-.47,1.67-.51,2.53-.12.61.27,1.05.83,1.15,1.5.1.52.29,1.01.59,1.45"/>
    <path class="cls-43" d="M92,209.9c-5.89.2-16.7-.15-21.68,3.04-.91.59-.59,1.99.49,2.11l22.19,2.43"/>
    <line class="cls-6" x1="324.84" y1="211.74" x2="324.54" y2="215.98"/>
    <path class="cls-4" d="M324.54,215.98l-1.89,18.56c-.07.69.37,1.35,1.05,1.52,13.44,3.51,26.36,3.26,38.77-.74"/>
    <path class="cls-21" d="M362.48,235.33c12.48-3.48,22.31-10.13,29.5-19.94.78-1.08.83-2.5.15-3.63-8.61-13.88-29.03-22.07-44.7-22.58"/>
    <path class="cls-4" d="M347.42,189.18c-8.09-.59-15.72.64-22.85,3.68-.69.29-1.1.98-1.05,1.72l1.32,17.17"/>
    <path class="cls-28" d="M347.42,189.18c3.6,3.56,7.23,6.11,10.91,7.65,9.64,4.1,18.86,8.53,27.66,13.27,1.64.88,2.04,3.07.81,4.46-7.11,8.12-15.23,15.03-24.33,20.77"/>
    <path class="cls-27" d="M324.54,215.98c8.31,1.4,16.67,1.18,25.11-.66,1.1-.25,1.62-1.52.96-2.38-.66-.86-1.59-1.3-2.84-1.37-8.29-.47-14.81-1.59-22.93.17"/>
    <path class="cls-24" d="M87.91,244.45c-8.75-.93-14.61-.64-17.58.91-14.74,7.58-24.3,19.45-28.67,35.56-.42,1.57.32,3.21,1.74,3.95,9.86,5.03,20.28,7.26,31.27,6.69,8.17-.42,13.71-1.72,16.58-3.95,7.9-6.13,14.64-10.84,20.25-14.15.61-.37.83-1.13.51-1.77l-5.91-11.62"/>
    <path class="cls-30" d="M106.1,260.07c-.51-2.38-1.3-4.29-2.4-5.79"/>
    <path class="cls-42" d="M103.7,254.28l-3.51-11.3c-.2-.69-.86-1.13-1.57-1.08-5.03.34-8.61,1.2-10.72,2.55"/>
    <path class="cls-5" d="M103.7,254.28c-8.95,1.79-16.63,5.62-22.98,11.43-.83.76-.34,2.18.78,2.26,7.38.54,14.27-4.24,21.46-6.13"/>
    <path class="cls-41" d="M102.96,261.84l1.89,8.44c.17.81-.07,1.62-.69,2.16-16.16,14.49-34.58,17.8-55.22,9.88-.81-.32-1.28-1.18-1.05-2.04,4.73-18.24,18.07-30.19,40.02-35.83"/>
    <line class="cls-25" x1="102.96" y1="261.84" x2="106.1" y2="260.07"/>
    <line class="cls-30" x1="317.51" y1="253.62" x2="315.13" y2="259.51"/>
    <path class="cls-42" d="M315.13,259.51l-6.11,11.87c-.32.64-.12,1.4.47,1.79,6.47,4.32,12.63,8.97,18.46,13.98,2.87,2.45,7.11,3.68,12.73,3.68"/>
    <path class="cls-24" d="M340.68,290.82c9.07,1.45,17.85.91,26.34-1.62,7.5-2.23,14.59-3.85,10.74-13.05-5.81-13.83-15.38-24.28-28.69-31.36"/>
    <path class="cls-42" d="M349.06,244.79l-26.63-3.11c-.74-.07-1.4.37-1.62,1.05l-3.31,10.89"/>
    <path class="cls-41" d="M349.06,244.79c3.21,5.12,6.74,9.78,10.62,13.93,7.87,8.44,10.37,13.56,12.02,23.57.12.74-.39,1.42-1.13,1.5-10.23.96-20.18,3.29-29.89,7.04"/>
    <path class="cls-5" d="M315.13,259.51l20.08,8.24c1.86.76,3.9-.56,3.9-2.55,0-.25-.47-.69-1.4-1.3-6.45-4.34-13.19-7.75-20.21-10.27"/>
    <path class="cls-6" d="M131.56,295.5c-1.18-1.74-2.7-3.26-4.54-4.61"/>
    <path class="cls-4" d="M127.02,290.89l-10.54-12.51c-.49-.59-1.3-.74-1.96-.37-19.79,11.21-31.17,27.91-34.18,50.15-.56,4.1-.42,7.72.39,10.91.64,2.45,2.8,4.19,5.35,4.32,17.58.76,32.42-4.86,44.53-16.87,2.13-2.13,6.79-8.34,13.98-18.61.39-.56.29-1.35-.25-1.79l-12.78-10.62"/>
    <path class="cls-27" d="M127.02,290.89c-2.18,1.3-4.05,2.92-5.54,4.86"/>
    <path class="cls-29" d="M121.48,295.75c-11.21-12.14-21.68-2.99-27.98,7.72-5.79,9.83-8.66,20.21-8.63,31.12.02,1.74,1.42,3.14,3.14,3.16,20.55.27,35.83-8.48,45.83-26.21.42-.74.52-1.59.32-2.4-.81-3.14-2.67-5.98-5.64-8.53"/>
    <path class="cls-27" d="M128.52,300.6c1.2-1.3,2.21-2.99,3.04-5.1"/>
    <path class="cls-43" d="M121.48,295.75l-11.77,14.57c-1.01,1.23-.12,3.07,1.47,3.07,2.13-.02,4.17-.88,6.13-2.55,3.95-3.36,7.7-6.77,11.21-10.23"/>
    <line class="cls-6" x1="293.84" y1="290.97" x2="287.56" y2="296.95"/>
    <path class="cls-4" d="M287.56,296.95l-10.89,9.54c-.69.59-.66,1.69.05,2.33,1.01.88,4.68,5.74,11.01,14.59,10.59,14.81,30.8,20.84,47.89,20.01,2.62-.12,4.73-2.18,4.95-4.81,1.15-14.2-3.02-27.71-12.53-40.51"/>
    <path class="cls-20" d="M328.05,298.1c-5.42-7.41-12.7-14.03-21.8-19.84-.59-.39-1.37-.27-1.84.27l-10.57,12.43"/>
    <path class="cls-29" d="M328.05,298.1c2.33,12.65,5.74,24.23,10.2,34.7.86,2.04-.47,4.32-2.65,4.59-24.69,3.02-48.41-12.24-45.83-39.23"/>
    <path class="cls-43" d="M289.77,298.15c4.76,5.15,9.86,9.71,15.33,13.68,1.5,1.08,2.55,1.57,3.21,1.5,2.33-.32,3.41-3.07,1.86-4.73l-16.33-17.63"/>
    <path class="cls-27" d="M289.77,298.15c.12-1.13-.61-1.52-2.21-1.2"/>
    <line class="cls-30" x1="169.08" y1="319.07" x2="160.64" y2="315.59"/>
    <path class="cls-24" d="M160.64,315.59l-9.56-5.05c-.66-.37-1.5-.15-1.91.47l-13.83,20.62c-.27.39-.47.81-.61,1.28-5.25,16.43-3.75,32.07,4.49,46.96.86,1.54,2.7,2.23,4.36,1.64,14.22-5.17,25.65-14.05,34.31-26.68.29-.42.47-.91.54-1.4l3.78-28.84c.05-.44-.2-.88-.64-1.03l-12.48-4.49"/>
    <line class="cls-25" x1="160.64" y1="315.59" x2="160.05" y2="316.35"/>
    <path class="cls-41" d="M160.05,316.35l-8.8.66c-.76.07-1.47.44-1.94,1.05-12.46,16.67-17.17,35.36-7.87,54.07,1.05,2.11,3.58,2.99,5.71,1.99,9.71-4.54,18.12-11.38,25.26-20.48.66-.83,1.05-1.89,1.13-2.97.34-5.91,1.13-11.55,2.33-16.87,1.08-4.78-2.72-7.58-6.5-9.49"/>
    <path class="cls-25" d="M169.37,324.32c.37-1.4.27-3.16-.29-5.25"/>
    <path class="cls-5" d="M169.37,324.32c-2.31,4.63-4.66,9.22-7.04,13.73-1.01,1.89-2.23,3.16-3.68,3.83-1.47.66-3.04-.66-2.67-2.23l4.54-18.91c.1-.42.12-.81.05-1.23l-.52-3.16"/>
    <line class="cls-30" x1="258.46" y1="316.03" x2="251.05" y2="319.14"/>
    <path class="cls-42" d="M251.05,319.14l-12.11,4.41c-.69.25-1.08.98-.88,1.69l2.62,10.03"/>
    <path class="cls-24" d="M240.68,335.28l1.79,15.89c.07.83.34,1.62.76,2.31,7.82,13.51,19.03,22.78,33.62,27.78,1.77.61,3.7-.12,4.63-1.74,10.2-17.93,10.3-41.29-2.8-58.02"/>
    <path class="cls-42" d="M278.69,321.5l-7.11-10.96c-.29-.49-.93-.66-1.45-.39l-11.67,5.89"/>
    <path class="cls-41" d="M278.69,321.5c.93,7.53,2.23,14.96,3.9,22.31,1.4,6.25.49,16.26-2.77,30.04-.17.69-.83,1.1-1.52.96-9.61-2.11-16.92-6.42-21.95-12.97-4.78-6.25-10-15.11-15.67-26.56"/>
    <path class="cls-5" d="M251.05,319.14c1.5,8.39,5.37,15.91,11.6,22.58.91.98,2.55.34,2.57-.98.1-8.44-4.22-16.75-6.77-24.72"/>
    <line class="cls-6" x1="216.43" y1="326.48" x2="205.29" y2="326.4"/>
    <path class="cls-4" d="M205.29,326.4l-15.67-1.28c-.74-.07-1.42.42-1.59,1.13-6.79,26.9-.44,49.58,19,68.05,1.37,1.32,3.51,1.47,5.03.34,21.21-15.4,27.39-43.82,21.24-68.69-.17-.69-.83-1.15-1.54-1.08l-15.33,1.59"/>
    <path class="cls-27" d="M205.29,326.4c1.25,3.16,1.32,6.06.22,8.63"/>
    <path class="cls-29" d="M205.51,335.03l.02-4.36c0-.91-.78-1.64-1.69-1.57l-6.77.47c-.83.05-1.57.59-1.86,1.37-7.01,18.56-.52,38.65,10.37,54.14,2.35,3.34,7.23,3.56,9.86.42,9.17-10.99,16.28-29.38,14.27-42.15-1.18-7.53-6.13-12.48-14.84-14.84"/>
    <path class="cls-27" d="M214.88,328.51c.27-.61.78-1.28,1.54-2.04"/>
    <path class="cls-43" d="M214.88,328.51c-.66,6.5-.88,10.94-.71,13.29.32,4.59-.51,8.34-2.55,11.21-1.23,1.72-3.9,1.01-4.14-1.08l-1.96-16.9"/>
    <path class="cls-45" d="M137.91,162.4l38.94-7.85c.37-.07.61-.44.54-.81l-.39-1.96c-1.03-5.13-9.76-7.7-19.49-5.74l-5.05,1.03c-9.74,1.96-16.77,7.7-15.74,12.82l.39,1.96c.07.37.44.61.81.54M266.57,146.56c-5.59-1.15-12.63-1.86-18.2.37-3.78,1.52-3.24,6.69-.47,8.73.66.52,2.35.81,5.08.93,5.13.25,8.88.59,11.3,1.1,2.43.49,6.03,1.62,10.81,3.43,2.55.96,4.24,1.32,5.05,1.13,3.33-.78,5.86-5.35,2.99-8.24-4.24-4.22-11.01-6.33-16.58-7.45"/>
    <path class="cls-38" d="M300.66,205.61c0-19.25-15.6-34.85-34.85-34.85s-34.85,15.6-34.85,34.85,15.6,34.85,34.85,34.85,34.85-15.6,34.85-34.85"/>
    <path class="cls-19" d="M210.52,291.7c9.56-.05,18.1-2.21,25.55-6.45,8.36-4.76,17.14-14.49,18.71-24.87,1.23-7.99-4.32-14.52-12.53-11.65-11.28,3.97-21.92,5.98-31.93,6.03-9.98.05-20.65-1.84-31.98-5.69-8.26-2.8-13.71,3.8-12.41,11.77,1.67,10.37,10.57,19.99,18.96,24.64,7.53,4.19,16.06,6.25,25.63,6.2"/>
    <path class="cls-34" d="M294.65,205.41c0-15.96-12.92-28.89-28.89-28.89s-28.89,12.92-28.89,28.89,12.92,28.89,28.89,28.89,28.89-12.92,28.89-28.89M157.39,176.81c-15.7-1.21-29.43,10.7-30.65,26.59-1.21,15.9,10.51,29.75,26.22,30.96,15.7,1.21,29.43-10.7,30.65-26.59,1.21-15.9-10.51-29.75-26.22-30.96"/>
    <path class="cls-34" d="M176.28,206.56c0-8.53-6.94-15.47-15.47-15.47s-15.47,6.94-15.47,15.47,6.94,15.47,15.47,15.47,15.47-6.94,15.47-15.47M275.18,206.56c0-8.44-6.82-15.25-15.25-15.25s-15.25,6.82-15.25,15.25,6.82,15.25,15.25,15.25,15.25-6.82,15.25-15.25"/>
    <path class="cls-9" d="M184.82,277.6c16.99,11.03,34.06,11.11,51.2.22"/>
    <path class="cls-39" d="M236.02,277.82c6.94-4.49,11.38-10.32,13.32-17.46,1.03-3.78-2.72-7.11-6.35-5.62-10.86,4.44-22,6.6-33.4,6.5-11.94-.1-23.71-4.14-34.8-6.89-1.08-.27-2.13.56-2.11,1.69.12,9.69,4.17,16.87,12.14,21.55"/>
    <path class="cls-18" d="M236.02,277.82c-17.29-10.37-34.35-10.45-51.2-.22"/>
    <path class="cls-47" d="M399.19,209.8c1.94,9.71-8.75,18.42-15.67,23.47l-20.6,10.35c-.47.22-.54.86-.15,1.2,9.24,7.65,16.33,17.17,21.26,28.54,3.95,9.1,1.62,15.55-7.04,19.4-12.04,5.35-24.79,7.01-38.3,5.03-.69-.1-1.18.64-.83,1.23,7.68,13.05,11.82,28.52,8.97,43.28-.88,4.66-6.28,7.7-11.08,8.04-12.9.91-27.76-2.65-38.87-9.61-.78-.49-1.77.15-1.64,1.05,1.99,15.18-.66,28.96-7.92,41.39-9.02,15.42-39.21-10.18-45.81-17.9-.39-.47-1.13-.32-1.35.25-5.44,14.74-12.21,26.73-25.28,35.58-3.56,2.4-7.87,1.08-11.5-1.57-9.39-6.89-16.16-16.11-20.35-27.66-1.42-3.95-2.26-6.23-2.53-6.89-.25-.56-1.01-.69-1.4-.2-8.63,10.69-26.95,25.5-40.85,23-.81-.15-1.54-.56-2.11-1.18-10.37-11.21-12.92-29.97-10.89-45.27.07-.59-.56-1.03-1.08-.71-12.02,7.26-24.79,10.5-38.35,9.69-7.68-.44-11.79-4.12-12.38-11.01-1.25-14.35,1.77-27.54,9.02-39.63.42-.69-.15-1.52-.93-1.45-10.52,1.15-20.23.39-29.11-2.26-10.57-3.16-20.84-6.92-16.55-19.81,4.14-12.48,11.53-22.9,22.14-31.24.74-.56.54-1.74-.34-2.01-12.16-3.87-40.17-17.83-35.97-32.96.2-.69.49-1.32.91-1.89,9.2-13.09,20.03-18.17,34.53-24.62.66-.29.81-1.18.27-1.67-10.69-10.13-19.35-20.94-22.56-34.77-2.18-9.39,9.81-14.05,17.8-16.33,8.8-2.53,18.44-3.16,28.89-1.89.61.07,1.08-.54.83-1.13-2.53-6.01-3.83-9.12-3.9-9.32-5.3-11.8-6.84-22.98-4.66-33.57,1.84-8.75,13.07-9.17,20.33-8.44,9.83,1.01,19.94,4.32,30.36,9.96.44.25.98-.12.91-.64-1.79-14.05.29-27.17,6.25-39.38,3.36-6.87,8.71-9,16.09-6.42,12.26,4.29,22.68,11.48,31.29,21.58.51.61,1.5.42,1.74-.34,4.61-15.06,12.73-26.75,24.35-35.07,4.34-3.11,9.12-1.28,13.12,1.89,10.79,8.51,17.93,19.74,21.43,33.64.15.61.91.86,1.37.42.61-.56,2.45-2.43,5.49-5.62,6.47-6.74,31.53-25.6,39.7-14.3,8.66,12.06,11.23,28.15,9.12,42.74-.1.71.51,1.3,1.23,1.2,1.64-.25,6.67-3.65,10.03-5.03,8.9-3.6,18.37-5.1,28.35-4.54,7.7.44,11.82,4.32,12.33,11.6,1.05,14.12-1.99,27.15-9.07,39.09-.39.66.15,1.5.91,1.4,11.77-1.37,51.32.44,46.08,20.23-3.48,13.22-11.89,24.57-22.76,33.25-.69.56-.49,1.67.34,1.96,14.88,5.17,28.49,12.04,36.39,25.85M204.61,100.73l9.39-.2,17.56,1.79c.64.07,1.25-.34,1.4-.98,7.01-28.18.07-51.64-20.79-70.45-.71-.64-1.77-.69-2.53-.1-22.73,17.41-27.88,42.91-21.68,70.18.15.64.74,1.05,1.4,1.01l15.25-1.25M162.33,111.27l9.39-3.8,10.72-3.87c.69-.25,1.05-1.01.83-1.69-2.33-7.01-3.58-13.98-3.8-20.87-.54-17.21-22.36-31.36-36.51-35.78-1.5-.47-3.11.17-3.87,1.52-8.41,14.98-9.78,30.8-4.12,47.4,1.81,5.35,6.69,12.7,14.66,22.09.47.54,1.23.69,1.84.39l10.86-5.39M247.08,106.61l2.4.93,9.07,3.48,6.06,2.99,4.9,2.82c.64.37,1.47.12,1.81-.54,1.74-3.33,5.35-8.61,10.81-15.82,10.69-14.05,7.14-37.98.39-52.87-.86-1.89-3.02-2.84-4.98-2.21-15.18,4.88-26.95,14.25-35.26,28.13-.44.74-.69,1.59-.69,2.45.07,8.66-1.18,17.29-3.8,25.94-.22.76.2,1.54.93,1.81l8.34,2.87M287.56,129.79l6.4,6.52,10.08,11.79c.44.51,1.23.61,1.81.25,18.32-11.87,31.24-26.29,34.72-48.16.78-4.83.78-9.1.02-12.8-.44-2.23-2.38-3.83-4.66-3.87-22-.52-39.23,7.68-51.69,24.52-1.69,2.28-4.27,5.84-7.77,10.62-.44.61-.34,1.47.25,1.96l10.84,9.17M127.36,135.92l4.95-4.81c1.42-1.01,2.48-2.08,3.14-3.24l8.73-7.06c.59-.47.69-1.35.2-1.94-6.38-7.7-11.6-17.61-18.93-22.81-11.4-8.07-27.93-14.66-41.86-11.97-2.31.44-3.95,2.45-3.97,4.78-.15,17.97,6.01,33.86,18.49,47.67.59.64,1.23,1.2,1.94,1.72l14.76,10.69c.59.42,1.37.32,1.84-.22l10.72-12.83M106.05,192.71c-2.7,13.46-2.77,27.34-.22,40.83,4.51,23.84,17.02,45.41,35.43,61.18,26.07,22.29,61.26,30.7,94.58,22.58,35.51-8.66,64.12-34.92,75.8-69.57,5.15-15.23,6.77-31.44,4.76-47.38-1.77-13.98-6.28-27.49-13.29-39.73-9.76-17.02-24.03-31-41.22-40.44-31.14-17.09-68.76-17.53-100.32-1.2-28.74,14.86-49.17,41.98-55.52,73.71M103.21,175.15l3.24-9.07,1.81-3.53,3.87-7.53c.22-.44.1-1.01-.32-1.3l-20.6-14.76c-.64-.47-1.35-.78-2.08-1.01-13.07-3.51-36.29-4.36-47.11,5.69-.66.61-.91,1.59-.59,2.45,4.05,11.45,10.54,21.21,19.49,29.28,4.66,4.19,8.36,6.4,11.08,6.67,9.61.93,18.46,2.45,26.58,4.56.71.2,1.47-.25,1.67-.96l2.94-10.5M315,167.35l2.43,5.86,4.05,12.06c.29.81,1.1,1.28,1.94,1.13l26.63-5.25c.83-.17,1.62-.47,2.33-.93,13.22-8.51,22.04-19.79,26.53-33.82.44-1.4-.1-2.94-1.32-3.75-8.04-5.32-17.21-7.55-27.54-6.74-6.6-.64-12.75.12-18.51,2.31-8.12,3.04-14.54,10.54-22.73,14.71-.66.34-.93,1.15-.56,1.81l6.77,12.6M97.28,220.3l-.25-9.81,1.01-17.02c.05-.71-.42-1.37-1.13-1.57-22.49-6.25-42.55-2.67-60.18,10.79-3.16,2.43-5.89,5.3-8.12,8.66-.98,1.47-.86,3.38.29,4.71,11.87,13.76,27,21.24,45.41,22.41,8.21.54,15.84-1.25,23.71-1.69.76-.05,1.3-.71,1.2-1.45l-1.96-15.03M324.84,211.74l-.29,4.24-1.89,18.56c-.07.69.37,1.35,1.05,1.52,13.44,3.51,26.36,3.26,38.77-.74,12.48-3.48,22.31-10.13,29.5-19.94.78-1.08.83-2.5.15-3.63-8.61-13.88-29.03-22.07-44.7-22.58-8.09-.59-15.72.64-22.85,3.68-.69.29-1.1.98-1.05,1.72l1.32,17.17M87.91,244.45c-8.75-.93-14.61-.64-17.58.91-14.74,7.58-24.3,19.45-28.67,35.56-.42,1.57.32,3.21,1.74,3.95,9.86,5.03,20.28,7.26,31.27,6.69,8.17-.42,13.71-1.72,16.58-3.95,7.9-6.13,14.64-10.84,20.25-14.15.61-.37.83-1.13.51-1.77l-5.91-11.62c-.51-2.38-1.3-4.29-2.4-5.79l-3.51-11.3c-.2-.69-.86-1.13-1.57-1.08-5.03.34-8.61,1.2-10.72,2.55M317.51,253.62l-2.38,5.89-6.11,11.87c-.32.64-.12,1.4.47,1.79,6.47,4.32,12.63,8.97,18.46,13.98,2.87,2.45,7.11,3.68,12.73,3.68,9.07,1.45,17.85.91,26.34-1.62,7.5-2.23,14.59-3.85,10.74-13.05-5.81-13.83-15.38-24.28-28.69-31.36l-26.63-3.11c-.74-.07-1.4.37-1.62,1.05l-3.31,10.89M131.56,295.5c-1.18-1.74-2.7-3.26-4.54-4.61l-10.54-12.51c-.49-.59-1.3-.74-1.96-.37-19.79,11.21-31.17,27.91-34.18,50.15-.56,4.1-.42,7.72.39,10.91.64,2.45,2.8,4.19,5.35,4.32,17.58.76,32.42-4.86,44.53-16.87,2.13-2.13,6.79-8.34,13.98-18.61.39-.56.29-1.35-.25-1.79l-12.78-10.62M293.84,290.97l-6.28,5.98-10.89,9.54c-.69.59-.66,1.69.05,2.33,1.01.88,4.68,5.74,11.01,14.59,10.59,14.81,30.8,20.84,47.89,20.01,2.62-.12,4.73-2.18,4.95-4.81,1.15-14.2-3.02-27.71-12.53-40.51-5.42-7.41-12.7-14.03-21.8-19.84-.59-.39-1.37-.27-1.84.27l-10.57,12.43M169.08,319.07l-8.44-3.48-9.56-5.05c-.66-.37-1.5-.15-1.91.47l-13.83,20.62c-.27.39-.47.81-.61,1.28-5.25,16.43-3.75,32.07,4.49,46.96.86,1.54,2.7,2.23,4.36,1.64,14.22-5.17,25.65-14.05,34.31-26.68.29-.42.47-.91.54-1.4l3.78-28.84c.05-.44-.2-.88-.64-1.03l-12.48-4.49M258.46,316.03l-7.41,3.11-12.11,4.41c-.69.25-1.08.98-.88,1.69l2.62,10.03,1.79,15.89c.07.83.34,1.62.76,2.31,7.82,13.51,19.03,22.78,33.62,27.78,1.77.61,3.7-.12,4.63-1.74,10.2-17.93,10.3-41.29-2.8-58.02l-7.11-10.96c-.29-.49-.93-.66-1.45-.39l-11.67,5.89M216.43,326.48l-11.13-.07-15.67-1.28c-.74-.07-1.42.42-1.59,1.13-6.79,26.9-.44,49.58,19,68.05,1.37,1.32,3.51,1.47,5.03.34,21.21-15.4,27.39-43.82,21.24-68.69-.17-.69-.83-1.15-1.54-1.08l-15.33,1.59h0Z"/>
    <path class="cls-57" d="M214,100.53c1.32-.34,1.74-1.64,1.23-3.92l13.12-.96c.78-.05,1.42-.66,1.5-1.45,2.04-20.33-3.48-38.6-16.55-54.76-1.45-1.79-4.12-1.94-5.76-.32-14.42,14.2-18.73,36.56-14.2,55.71.17.74.78,1.3,1.54,1.42,3.36.56,6.92.42,10.69-.39l-.96,4.86-15.25,1.25c-.66.05-1.25-.37-1.4-1.01-6.2-27.27-1.05-52.77,21.68-70.18.76-.59,1.81-.54,2.53.1,20.87,18.81,27.81,42.28,20.79,70.45-.15.64-.76,1.05-1.4.98l-17.56-1.79h0Z"/>
    <path class="cls-52" d="M215.23,96.61l-2.75-21.38c-.27-2.18-3.16-2.82-4.32-.93-.56.91-.88,2.21-.96,3.87-.32,6.11-.86,12.02-1.64,17.7-3.78.81-7.33.96-10.69.39-.76-.12-1.37-.69-1.54-1.42-4.54-19.15-.22-41.52,14.2-55.71,1.64-1.62,4.32-1.47,5.76.32,13.07,16.16,18.59,34.43,16.55,54.76-.07.78-.71,1.4-1.5,1.45l-13.12.96h0Z"/>
    <path class="cls-54" d="M171.72,107.47c-1.2-.86-2.23-2.4-3.04-4.59l5.71-2.72c.66-.32,1.1-.98,1.1-1.74-.07-9.42-.91-16.85-2.5-22.31-3.51-12.14-16.48-21.04-29.23-25.06-1.2-.39-2.48.27-2.89,1.47-6.94,20.45-4.1,39.16,8.53,56.11.47.64,1.15,1.05,1.91,1.2,3.46.66,6.87-.39,10.25-3.16.71,1.94.96,3.46.76,4.61l-10.86,5.39c-.61.29-1.37.15-1.84-.39-7.97-9.39-12.85-16.75-14.66-22.09-5.66-16.6-4.29-32.42,4.12-47.4.76-1.35,2.38-1.99,3.87-1.52,14.15,4.41,35.97,18.56,36.51,35.78.22,6.89,1.47,13.85,3.8,20.87.22.69-.15,1.45-.83,1.69l-10.72,3.87h0Z"/>
    <path class="cls-54" d="M264.61,114.02c18.19-16.85,22.76-37.27,13.68-61.28-.64-1.67-2.53-2.5-4.17-1.81-12.48,5.1-25.92,16.26-28,30.04-.81,5.39-1.03,11.23-.61,17.53.05.69.25,1.32.59,1.91,1.18,1.94,1.5,4,.98,6.2l-8.34-2.87c-.74-.27-1.15-1.05-.93-1.81,2.62-8.66,3.87-17.29,3.8-25.94,0-.86.25-1.72.69-2.45,8.31-13.88,20.08-23.25,35.26-28.13,1.96-.64,4.12.32,4.98,2.21,6.74,14.88,10.3,38.82-.39,52.87-5.47,7.21-9.07,12.48-10.81,15.82-.34.66-1.18.91-1.81.54l-4.9-2.82h0Z"/>
    <path class="cls-55" d="M168.68,102.89c-2.6-6.18-5.62-11.94-9.05-17.26-.83-1.3-2.77-1.25-3.53.1-.42.71-.44,1.72-.12,2.97,1.57,6.25,3.43,12.24,5.59,17.97-3.38,2.77-6.79,3.83-10.25,3.16-.76-.15-1.45-.56-1.91-1.2-12.63-16.94-15.47-35.65-8.53-56.11.42-1.2,1.69-1.86,2.89-1.47,12.75,4.02,25.72,12.92,29.23,25.06,1.59,5.47,2.43,12.9,2.5,22.31,0,.76-.44,1.42-1.1,1.74l-5.71,2.72h0Z"/>
    <path class="cls-55" d="M264.61,114.02l-6.06-2.99,6.23-24.62c.39-1.5-1.4-2.6-2.57-1.59-6.72,5.81-8.71,15.06-12.73,22.73l-2.4-.93c.51-2.21.2-4.27-.98-6.2-.34-.59-.54-1.23-.59-1.91-.42-6.3-.2-12.14.61-17.53,2.08-13.78,15.52-24.94,28-30.04,1.64-.69,3.53.15,4.17,1.81,9.07,24.01,4.51,44.43-13.68,61.28h0Z"/>
    <path class="cls-63" d="M215.23,96.61c.52,2.28.1,3.58-1.23,3.92l-9.39.2.96-4.86c.78-5.69,1.32-11.6,1.64-17.7.07-1.67.39-2.97.96-3.87,1.15-1.89,4.05-1.25,4.32.93l2.75,21.38h0Z"/>
    <path class="cls-46" d="M293.96,136.31c.71-1.4,2.01-2.82,3.87-4.24,2.06,3.09,4.56,5.47,7.48,7.11.69.39,1.52.42,2.23.05,16.7-8.53,24.77-26.04,28.42-44.29.22-1.05-.39-2.11-1.42-2.45-9.93-3.16-19.32-2.43-28.18,2.21-13.36,6.99-21.8,18.76-16.18,33.55-.86.22-1.72.74-2.62,1.54l-10.84-9.17c-.59-.49-.69-1.35-.25-1.96,3.51-4.78,6.08-8.34,7.77-10.62,12.46-16.85,29.7-25.04,51.69-24.52,2.28.05,4.22,1.64,4.66,3.87.76,3.7.76,7.97-.02,12.8-3.48,21.87-16.4,36.29-34.72,48.16-.59.37-1.37.27-1.81-.25l-10.08-11.79h0Z"/>
    <path class="cls-46" d="M135.46,127.87c1.2-25.16-26.68-37.49-47.5-38.74-1.81-.1-3.31,1.4-3.19,3.21,1.3,20.16,10.35,35.63,27.15,46.42.88.56,1.96.64,2.92.25l9.59-4.07c.78.69,1.77,1.01,2.94.98l-10.72,12.83c-.47.54-1.25.64-1.84.22l-14.76-10.69c-.71-.52-1.35-1.08-1.94-1.72-12.48-13.81-18.64-29.7-18.49-47.67.02-2.33,1.67-4.34,3.97-4.78,13.93-2.7,30.46,3.9,41.86,11.97,7.33,5.2,12.56,15.11,18.93,22.81.49.59.39,1.47-.2,1.94l-8.73,7.06h0Z"/>
    <path class="cls-2" d="M258.56,111.03l-9.07-3.48c4.02-7.68,6.01-16.92,12.73-22.73,1.18-1.01,2.97.1,2.57,1.59l-6.23,24.62h0Z"/>
    <path class="cls-2" d="M168.68,102.89c.81,2.18,1.84,3.73,3.04,4.59l-9.39,3.8c.2-1.15-.05-2.67-.76-4.61-2.16-5.74-4.02-11.72-5.59-17.97-.32-1.25-.29-2.26.12-2.97.76-1.35,2.7-1.4,3.53-.1,3.43,5.32,6.45,11.08,9.05,17.26h0Z"/>
    <path class="cls-52" d="M135.46,127.87c-.66,1.15-1.72,2.23-3.14,3.24-5.86-7.33-12.56-13.02-20.13-17.12-1.89-1.03-3.8,1.3-2.45,2.97l14.69,17.97-9.59,4.07c-.96.39-2.04.32-2.92-.25-16.8-10.79-25.85-26.26-27.15-46.42-.12-1.81,1.37-3.31,3.19-3.21,20.82,1.25,48.7,13.58,47.5,38.74h0Z"/>
    <path class="cls-52" d="M297.84,132.07l12.24-14.42c1.01-1.18.32-2.99-1.23-3.24-1.45-.22-2.94.32-4.44,1.59-4.73,4.05-9.49,8.12-14.22,12.24-5.62-14.79,2.82-26.56,16.18-33.55,8.85-4.63,18.24-5.37,28.18-2.21,1.03.34,1.64,1.4,1.42,2.45-3.65,18.24-11.72,35.75-28.42,44.29-.71.37-1.55.34-2.23-.05-2.92-1.64-5.42-4.02-7.48-7.11h0Z"/>
    <path class="cls-64" d="M303.11,160.63c-5.05-3.21-9.71-6.87-13.98-10.99-6.89-6.62-11.26-10.57-13.12-11.87-39.36-27.29-90.78-24.94-130.63.66-21.33,13.68-37.94,37.13-24.13,62.51-.52.51-.71,1.45-.61,2.8-6.25-1.54-11.11-5.22-14.59-11.03,6.35-31.73,26.78-58.85,55.52-73.71,31.56-16.33,69.18-15.89,100.32,1.2,17.19,9.44,31.46,23.42,41.22,40.44h0Z"/>
    <path class="cls-63" d="M132.32,131.11l-4.95,4.81c-1.18.02-2.16-.29-2.94-.98l-14.69-17.97c-1.35-1.67.56-4,2.45-2.97,7.58,4.1,14.27,9.78,20.13,17.12h0Z"/>
    <path class="cls-63" d="M297.84,132.07c-1.86,1.42-3.16,2.84-3.87,4.24l-6.4-6.52c.91-.81,1.77-1.32,2.62-1.54,4.73-4.12,9.49-8.19,14.22-12.24,1.5-1.28,2.99-1.81,4.44-1.59,1.54.25,2.23,2.06,1.23,3.24l-12.24,14.42h0Z"/>
    <path class="cls-56" d="M303.11,160.63c7.01,12.24,11.53,25.75,13.29,39.73l-4.51,19.27c-.15.66-.22,1.32-.25,1.99-.05,5.96-.86,11.01-2.43,15.11-7.9,20.55-22.22,42.64-42.3,53.33-14.79,7.87-30.85,14.44-46.79,15.87-19.25,1.72-37.64-1.79-55.12-10.52-9.32-4.68-15.57-8.17-18.78-10.45-13.19-9.44-20.5-23.05-30.01-40.46-2.48-4.54-5.93-8.19-10.37-10.96-2.55-13.49-2.48-27.37.22-40.83,3.48,5.81,8.34,9.49,14.59,11.03.12,20.11,13.95,36.32,34.28,36.22,22.46-.07,39.14-19.45,33.91-41.78-5.86-25.01-38.72-36.59-57.94-17.78-5.37,5.22-8.58,12.09-9.64,20.55-13.81-25.38,2.8-48.82,24.13-62.51,39.85-25.6,91.27-27.95,130.63-.66,1.86,1.3,6.23,5.25,13.12,11.87,4.27,4.12,8.93,7.77,13.98,10.99M137.91,162.4l38.94-7.85c.37-.07.61-.44.54-.81l-.39-1.96c-1.03-5.13-9.76-7.7-19.49-5.74l-5.05,1.03c-9.74,1.96-16.77,7.7-15.74,12.82l.39,1.96c.07.37.44.61.81.54M266.57,146.56c-5.59-1.15-12.63-1.86-18.2.37-3.78,1.52-3.24,6.69-.47,8.73.66.52,2.35.81,5.08.93,5.13.25,8.88.59,11.3,1.1,2.43.49,6.03,1.62,10.81,3.43,2.55.96,4.24,1.32,5.05,1.13,3.33-.78,5.86-5.35,2.99-8.24-4.24-4.22-11.01-6.33-16.58-7.45M300.66,205.61c0-19.25-15.6-34.85-34.85-34.85s-34.85,15.6-34.85,34.85,15.6,34.85,34.85,34.85,34.85-15.6,34.85-34.85M210.52,291.7c9.56-.05,18.1-2.21,25.55-6.45,8.36-4.76,17.14-14.49,18.71-24.87,1.23-7.99-4.32-14.52-12.53-11.65-11.28,3.97-21.92,5.98-31.93,6.03-9.98.05-20.65-1.84-31.98-5.69-8.26-2.8-13.71,3.8-12.41,11.77,1.67,10.37,10.57,19.99,18.96,24.64,7.53,4.19,16.06,6.25,25.63,6.2h0Z"/>
    <path class="cls-54" d="M108.26,162.55c-9.98-18.91-37.05-24.08-56.55-19.1-1.59.42-2.55,2.04-2.13,3.63,5.84,22.98,26.04,33.69,48.63,29.6.86-.15,1.62-.69,2.06-1.45.71-1.3.86-2.31.44-3.07,1.15.64,1.99,1.64,2.5,2.99l-2.94,10.5c-.2.71-.96,1.15-1.67.96-8.12-2.11-16.97-3.63-26.58-4.56-2.72-.27-6.42-2.48-11.08-6.67-8.95-8.07-15.45-17.83-19.49-29.28-.32-.86-.07-1.84.59-2.45,10.81-10.05,34.04-9.2,47.11-5.69.74.22,1.45.54,2.08,1.01l20.6,14.76c.42.29.54.86.32,1.3l-3.87,7.53h0Z"/>
    <path class="cls-55" d="M350.05,135.92l19.74,8.31c1.79.76,2.72,2.75,2.16,4.61-7.01,22.49-25.09,28.49-46.35,32.05-.78.12-1.57-.15-2.08-.74-1.89-2.08-3.04-4.78-3.46-8.07,5.86-2.4,15.33-5.76,19.47-10.84.98-1.2-.1-2.97-1.62-2.65-7.92,1.69-15.57,4.61-22.9,8.75l-6.77-12.6c-.37-.66-.1-1.47.56-1.81,8.19-4.17,14.61-11.67,22.73-14.71,5.76-2.18,11.92-2.94,18.51-2.31h0Z"/>
    <path class="cls-54" d="M317.43,173.21l2.62-1.13c.42,3.29,1.57,5.98,3.46,8.07.52.59,1.3.86,2.08.74,21.26-3.56,39.33-9.56,46.35-32.05.56-1.86-.37-3.85-2.16-4.61l-19.74-8.31c10.32-.81,19.49,1.42,27.54,6.74,1.23.81,1.77,2.35,1.32,3.75-4.49,14.03-13.32,25.31-26.53,33.82-.71.47-1.5.76-2.33.93l-26.63,5.25c-.83.15-1.64-.32-1.94-1.13l-4.05-12.06h0Z"/>
    <path class="cls-55" d="M108.26,162.55l-1.81,3.53c-8.31-2.45-15.57-6.96-24.52-6.91-1.91,0-2.53,2.6-.78,3.46l19.57,9.54c.42.76.27,1.77-.44,3.07-.44.76-1.2,1.3-2.06,1.45-22.58,4.1-42.79-6.62-48.63-29.6-.42-1.59.54-3.21,2.13-3.63,19.49-4.98,46.57.2,56.55,19.1h0Z"/>
    <path class="cls-60" d="M137.91,162.4c-.37.07-.74-.17-.81-.54l-.39-1.96c-1.03-5.13,6.01-10.86,15.74-12.82l5.05-1.03c9.74-1.96,18.46.61,19.49,5.74l.39,1.96c.07.37-.17.74-.54.81l-38.94,7.85h0Z"/>
    <path class="cls-60" d="M266.57,146.56c5.57,1.13,12.33,3.24,16.58,7.45,2.87,2.89.34,7.45-2.99,8.24-.81.2-2.5-.17-5.05-1.13-4.78-1.81-8.39-2.94-10.81-3.43-2.43-.52-6.18-.86-11.3-1.1-2.72-.12-4.41-.42-5.08-.93-2.77-2.04-3.31-7.21.47-8.73,5.57-2.23,12.6-1.52,18.2-.37h0Z"/>
    <path class="cls-2" d="M106.45,166.08l-3.24,9.07c-.51-1.35-1.35-2.35-2.5-2.99l-19.57-9.54c-1.74-.86-1.13-3.46.78-3.46,8.95-.05,16.21,4.46,24.52,6.91h0Z"/>
    <path class="cls-2" d="M320.06,172.09l-2.62,1.13-2.43-5.86c7.33-4.14,14.98-7.06,22.9-8.75,1.52-.32,2.6,1.45,1.62,2.65-4.14,5.08-13.61,8.44-19.47,10.84h0Z"/>
    <path class="cls-65" d="M300.66,205.61c0,19.25-15.6,34.85-34.85,34.85s-34.85-15.6-34.85-34.85,15.6-34.85,34.85-34.85,34.85,15.6,34.85,34.85M294.65,205.41c0-15.96-12.92-28.89-28.89-28.89s-28.89,12.92-28.89,28.89,12.92,28.89,28.89,28.89,28.89-12.92,28.89-28.89h0Z"/>
    <path class="cls-65" d="M120.65,203.74c-.1-1.35.1-2.28.61-2.8,1.05-8.46,4.27-15.33,9.64-20.55,19.22-18.81,52.08-7.23,57.94,17.78,5.22,22.34-11.45,41.71-33.91,41.78-20.33.1-34.16-16.11-34.28-36.22M157.39,176.81c-15.7-1.21-29.43,10.7-30.65,26.59-1.21,15.9,10.51,29.75,26.22,30.96,15.7,1.21,29.43-10.7,30.65-26.59,1.21-15.9-10.51-29.75-26.22-30.96h0Z"/>
    <path class="cls-51" d="M157.39,176.81c15.71,1.21,27.43,15.07,26.22,30.96-1.22,15.88-14.95,27.8-30.65,26.59-15.71-1.21-27.43-15.07-26.22-30.96,1.22-15.88,14.95-27.8,30.65-26.59M176.28,206.56c0-8.53-6.94-15.47-15.47-15.47s-15.47,6.94-15.47,15.47,6.94,15.47,15.47,15.47,15.47-6.94,15.47-15.47h0Z"/>
    <path class="cls-51" d="M294.65,205.41c0,15.96-12.92,28.89-28.89,28.89s-28.89-12.92-28.89-28.89,12.92-28.89,28.89-28.89,28.89,12.92,28.89,28.89M275.18,206.56c0-8.44-6.82-15.25-15.25-15.25s-15.25,6.82-15.25,15.25,6.82,15.25,15.25,15.25,15.25-6.82,15.25-15.25h0Z"/>
    <path class="cls-46" d="M97.03,210.49l.05-2.08c.02-.49-.64-.69-.88-.25-.96,1.74-2.35,2.31-4.19,1.74l.34-7.9c.02-1.03-.54-1.99-1.45-2.45-18.29-9.2-39.53-4.17-54.95,8.78-.96.81-1.18,2.18-.54,3.24,11.89,19.91,34.62,22.49,55.49,19.03.69-.12,1.23-.69,1.28-1.4l.83-11.72c.83-.47,1.67-.51,2.53-.12.61.27,1.05.83,1.15,1.5.1.52.29,1.01.59,1.45l1.96,15.03c.1.74-.44,1.4-1.2,1.45-7.87.44-15.5,2.23-23.71,1.69-18.42-1.18-33.55-8.66-45.41-22.41-1.15-1.32-1.28-3.24-.29-4.71,2.23-3.36,4.95-6.23,8.12-8.66,17.63-13.46,37.69-17.04,60.18-10.79.71.2,1.18.86,1.13,1.57l-1.01,17.02h0Z"/>
    <path class="cls-46" d="M347.42,189.18c3.6,3.56,7.23,6.11,10.91,7.65,9.64,4.1,18.86,8.53,27.66,13.27,1.64.88,2.04,3.07.81,4.46-7.11,8.12-15.23,15.03-24.33,20.77-12.41,4-25.33,4.24-38.77.74-.69-.17-1.13-.83-1.05-1.52l1.89-18.56c8.31,1.4,16.67,1.18,25.11-.66,1.1-.25,1.62-1.52.96-2.38-.66-.86-1.59-1.3-2.84-1.37-8.29-.47-14.81-1.59-22.93.17l-1.32-17.17c-.05-.74.37-1.42,1.05-1.72,7.14-3.04,14.76-4.27,22.85-3.68h0Z"/>
    <path class="cls-57" d="M362.48,235.33c9.1-5.74,17.21-12.65,24.33-20.77,1.23-1.4.83-3.58-.81-4.46-8.8-4.73-18.02-9.17-27.66-13.27-3.68-1.54-7.31-4.1-10.91-7.65,15.67.51,36.1,8.71,44.7,22.58.69,1.13.64,2.55-.15,3.63-7.18,9.81-17.02,16.45-29.5,19.94h0Z"/>
    <path class="cls-65" d="M176.28,206.56c0,8.53-6.94,15.47-15.47,15.47s-15.47-6.94-15.47-15.47,6.94-15.47,15.47-15.47,15.47,6.94,15.47,15.47h0Z"/>
    <path class="cls-65" d="M275.18,206.56c0,8.44-6.82,15.25-15.25,15.25s-15.25-6.82-15.25-15.25,6.82-15.25,15.25-15.25,15.25,6.82,15.25,15.25h0Z"/>
    <path class="cls-52" d="M92,209.9c-5.89.2-16.7-.15-21.68,3.04-.91.59-.59,1.99.49,2.11l22.19,2.43-.83,11.72c-.05.71-.59,1.28-1.28,1.4-20.87,3.46-43.6.88-55.49-19.03-.64-1.05-.42-2.43.54-3.24,15.42-12.95,36.66-17.97,54.95-8.78.91.47,1.47,1.42,1.45,2.45l-.34,7.9h0Z"/>
    <path class="cls-1" d="M105.83,233.54c4.44,2.77,7.9,6.42,10.37,10.96,9.51,17.41,16.82,31.02,30.01,40.46,3.21,2.28,9.47,5.76,18.78,10.45,17.48,8.73,35.88,12.24,55.12,10.52,15.94-1.42,32-7.99,46.79-15.87,20.08-10.69,34.4-32.79,42.3-53.33,1.57-4.1,2.38-9.15,2.43-15.11.02-.66.1-1.32.25-1.99l4.51-19.27c2.01,15.94.39,32.15-4.76,47.38-11.67,34.65-40.29,60.91-75.8,69.57-33.32,8.12-68.51-.29-94.58-22.58-18.42-15.77-30.92-37.35-35.43-61.18h0Z"/>
    <path class="cls-63" d="M97.03,210.49l.25,9.81c-.29-.44-.49-.93-.59-1.45-.1-.66-.54-1.23-1.15-1.5-.86-.39-1.69-.34-2.53.12l-22.19-2.43c-1.08-.12-1.4-1.52-.49-2.11,4.98-3.19,15.79-2.84,21.68-3.04,1.84.56,3.24,0,4.19-1.74.25-.44.91-.25.88.25l-.05,2.08h0Z"/>
    <path class="cls-59" d="M383.52,233.27c6.92-5.05,17.61-13.76,15.67-23.47l1.57,8.19c.15.81-.15,1.62-.78,2.13l-16.45,13.14h0Z"/>
    <path class="cls-63" d="M324.54,215.98l.29-4.24c8.12-1.77,14.64-.64,22.93-.17,1.25.07,2.18.51,2.84,1.37.66.86.15,2.13-.96,2.38-8.44,1.84-16.8,2.06-25.11.66h0Z"/>
    <path class="cls-55" d="M103.7,254.28c-8.95,1.79-16.63,5.62-22.98,11.43-.83.76-.34,2.18.78,2.26,7.38.54,14.27-4.24,21.46-6.13l1.89,8.44c.17.81-.07,1.62-.69,2.16-16.16,14.49-34.58,17.8-55.22,9.88-.81-.32-1.28-1.18-1.05-2.04,4.73-18.24,18.07-30.19,40.02-35.83,2.11-1.35,5.69-2.21,10.72-2.55.71-.05,1.37.39,1.57,1.08l3.51,11.3h0Z"/>
    <path class="cls-55" d="M349.06,244.79c3.21,5.12,6.74,9.78,10.62,13.93,7.87,8.44,10.37,13.56,12.02,23.57.12.74-.39,1.42-1.13,1.5-10.23.96-20.18,3.29-29.89,7.04-5.62,0-9.86-1.23-12.73-3.68-5.84-5-11.99-9.66-18.46-13.98-.59-.39-.78-1.15-.47-1.79l6.11-11.87,20.08,8.24c1.86.76,3.9-.56,3.9-2.55,0-.25-.47-.69-1.4-1.3-6.45-4.34-13.19-7.75-20.21-10.27l3.31-10.89c.22-.69.88-1.13,1.62-1.05l26.63,3.11h0Z"/>
    <path class="cls-54" d="M87.91,244.45c-21.95,5.64-35.29,17.58-40.02,35.83-.22.86.25,1.72,1.05,2.04,20.65,7.92,39.06,4.61,55.22-9.88.61-.54.86-1.35.69-2.16l-1.89-8.44,3.14-1.77,5.91,11.62c.32.64.1,1.4-.51,1.77-5.62,3.31-12.36,8.02-20.25,14.15-2.87,2.23-8.41,3.53-16.58,3.95-10.99.56-21.41-1.67-31.27-6.69-1.42-.74-2.16-2.38-1.74-3.95,4.36-16.11,13.93-27.98,28.67-35.56,2.97-1.54,8.83-1.84,17.58-.91h0Z"/>
    <path class="cls-54" d="M349.06,244.79c13.32,7.09,22.88,17.53,28.69,31.36,3.85,9.2-3.24,10.81-10.74,13.05-8.48,2.53-17.26,3.07-26.34,1.62,9.71-3.75,19.67-6.08,29.89-7.04.74-.07,1.25-.76,1.13-1.5-1.64-10-4.14-15.13-12.02-23.57-3.87-4.14-7.41-8.8-10.62-13.93h0Z"/>
    <path class="cls-49" d="M210.52,291.7c-9.56.05-18.1-2.01-25.63-6.2-8.39-4.66-17.29-14.27-18.96-24.64-1.3-7.97,4.14-14.57,12.41-11.77,11.33,3.85,22,5.74,31.98,5.69,10-.05,20.65-2.06,31.93-6.03,8.21-2.87,13.76,3.65,12.53,11.65-1.57,10.37-10.35,20.11-18.71,24.87-7.45,4.24-15.99,6.4-25.55,6.45M184.82,277.6c16.99,11.03,34.06,11.11,51.2.22,6.94-4.49,11.38-10.32,13.32-17.46,1.03-3.78-2.72-7.11-6.35-5.62-10.86,4.44-22,6.6-33.4,6.5-11.94-.1-23.71-4.14-34.8-6.89-1.08-.27-2.13.56-2.11,1.69.12,9.69,4.17,16.87,12.14,21.55h0Z"/>
    <path class="cls-2" d="M106.1,260.07l-3.14,1.77c-7.18,1.89-14.08,6.67-21.46,6.13-1.13-.07-1.62-1.5-.78-2.26,6.35-5.81,14.03-9.64,22.98-11.43,1.1,1.5,1.89,3.41,2.4,5.79h0Z"/>
    <path class="cls-2" d="M317.51,253.62c7.01,2.53,13.76,5.93,20.21,10.27.93.61,1.4,1.05,1.4,1.3,0,1.99-2.04,3.31-3.9,2.55l-20.08-8.24,2.38-5.89h0Z"/>
    <path class="cls-62" d="M236.02,277.82c-17.29-10.37-34.35-10.45-51.2-.22-7.97-4.68-12.02-11.87-12.14-21.55-.02-1.13,1.03-1.96,2.11-1.69,11.08,2.75,22.85,6.79,34.8,6.89,11.4.1,22.54-2.06,33.4-6.5,3.63-1.5,7.38,1.84,6.35,5.62-1.94,7.14-6.38,12.97-13.32,17.46h0Z"/>
    <path class="cls-50" d="M236.02,277.82c-17.14,10.89-34.21,10.81-51.2-.22,16.85-10.23,33.91-10.15,51.2.22h0Z"/>
    <path class="cls-46" d="M127.02,290.89c-2.18,1.3-4.05,2.92-5.54,4.86-11.21-12.14-21.68-2.99-27.98,7.72-5.79,9.83-8.66,20.21-8.63,31.12.02,1.74,1.42,3.14,3.14,3.16,20.55.27,35.83-8.48,45.83-26.21.42-.74.52-1.59.32-2.4-.81-3.14-2.67-5.98-5.64-8.53,1.2-1.3,2.21-2.99,3.04-5.1l12.78,10.62c.54.44.64,1.23.25,1.79-7.18,10.27-11.84,16.48-13.98,18.61-12.11,12.02-26.95,17.63-44.53,16.87-2.55-.12-4.71-1.86-5.35-4.32-.81-3.19-.96-6.82-.39-10.91,3.02-22.24,14.39-38.94,34.18-50.15.66-.37,1.47-.22,1.96.37l10.54,12.51h0Z"/>
    <path class="cls-52" d="M328.05,298.1c2.33,12.65,5.74,24.23,10.2,34.7.86,2.04-.47,4.32-2.65,4.59-24.69,3.02-48.41-12.24-45.83-39.23,4.76,5.15,9.86,9.71,15.33,13.68,1.5,1.08,2.55,1.57,3.21,1.5,2.33-.32,3.41-3.07,1.86-4.73l-16.33-17.63,10.57-12.43c.47-.54,1.25-.66,1.84-.27,9.1,5.81,16.38,12.43,21.8,19.84h0Z"/>
    <path class="cls-52" d="M121.48,295.75l-11.77,14.57c-1.01,1.23-.12,3.07,1.47,3.07,2.13-.02,4.17-.88,6.13-2.55,3.95-3.36,7.7-6.77,11.21-10.23,2.97,2.55,4.83,5.39,5.64,8.53.2.81.1,1.67-.32,2.4-10,17.73-25.28,26.48-45.83,26.21-1.72-.02-3.11-1.42-3.14-3.16-.02-10.91,2.84-21.28,8.63-31.12,6.3-10.72,16.77-19.86,27.98-7.72h0Z"/>
    <path class="cls-63" d="M131.56,295.5c-.83,2.11-1.84,3.8-3.04,5.1-3.51,3.46-7.26,6.87-11.21,10.23-1.96,1.67-4,2.53-6.13,2.55-1.59,0-2.48-1.84-1.47-3.07l11.77-14.57c1.5-1.94,3.36-3.56,5.54-4.86,1.84,1.35,3.36,2.87,4.54,4.61h0Z"/>
    <path class="cls-63" d="M293.84,290.97l16.33,17.63c1.55,1.67.47,4.41-1.86,4.73-.66.07-1.72-.42-3.21-1.5-5.47-3.97-10.57-8.53-15.33-13.68.12-1.13-.61-1.52-2.21-1.2l6.28-5.98h0Z"/>
    <path class="cls-46" d="M287.56,296.95c1.59-.32,2.33.07,2.21,1.2-2.57,27,21.14,42.25,45.83,39.23,2.18-.27,3.51-2.55,2.65-4.59-4.46-10.47-7.87-22.05-10.2-34.7,9.51,12.8,13.68,26.31,12.53,40.51-.22,2.62-2.33,4.68-4.95,4.81-17.09.83-37.3-5.2-47.89-20.01-6.33-8.85-10-13.71-11.01-14.59-.71-.64-.74-1.74-.05-2.33l10.89-9.54h0Z"/>
    <path class="cls-54" d="M160.64,315.59l-.59.76-8.8.66c-.76.07-1.47.44-1.94,1.05-12.46,16.67-17.17,35.36-7.87,54.07,1.05,2.11,3.58,2.99,5.71,1.99,9.71-4.54,18.12-11.38,25.26-20.48.66-.83,1.05-1.89,1.13-2.97.34-5.91,1.13-11.55,2.33-16.87,1.08-4.78-2.72-7.58-6.5-9.49.37-1.4.27-3.16-.29-5.25l12.48,4.49c.44.15.69.59.64,1.03l-3.78,28.84c-.07.49-.25.98-.54,1.4-8.66,12.63-20.08,21.51-34.31,26.68-1.67.59-3.51-.1-4.36-1.64-8.24-14.88-9.74-30.53-4.49-46.96.15-.47.34-.88.61-1.28l13.83-20.62c.42-.61,1.25-.83,1.91-.47l9.56,5.05h0Z"/>
    <path class="cls-55" d="M278.69,321.5c.93,7.53,2.23,14.96,3.9,22.31,1.4,6.25.49,16.26-2.77,30.04-.17.69-.83,1.1-1.52.96-9.61-2.11-16.92-6.42-21.95-12.97-4.78-6.25-10-15.11-15.67-26.56l-2.62-10.03c-.2-.71.2-1.45.88-1.69l12.11-4.41c1.5,8.39,5.37,15.91,11.6,22.58.91.98,2.55.34,2.57-.98.1-8.44-4.22-16.75-6.77-24.72l11.67-5.89c.51-.27,1.15-.1,1.45.39l7.11,10.96h0Z"/>
    <path class="cls-2" d="M169.08,319.07c.56,2.08.66,3.85.29,5.25-2.31,4.63-4.66,9.22-7.04,13.73-1.01,1.89-2.23,3.16-3.68,3.83-1.47.66-3.04-.66-2.67-2.23l4.54-18.91c.1-.42.12-.81.05-1.23l-.52-3.16.59-.76,8.44,3.48h0Z"/>
    <path class="cls-55" d="M160.05,316.35l.52,3.16c.07.42.05.81-.05,1.23l-4.54,18.91c-.37,1.57,1.2,2.89,2.67,2.23,1.45-.66,2.67-1.94,3.68-3.83,2.38-4.51,4.73-9.1,7.04-13.73,3.78,1.91,7.58,4.71,6.5,9.49-1.2,5.32-1.99,10.96-2.33,16.87-.07,1.08-.47,2.13-1.13,2.97-7.14,9.1-15.55,15.94-25.26,20.48-2.13,1.01-4.66.12-5.71-1.99-9.29-18.71-4.59-37.4,7.87-54.07.47-.61,1.18-.98,1.94-1.05l8.8-.66h0Z"/>
    <path class="cls-2" d="M258.46,316.03c2.55,7.97,6.87,16.28,6.77,24.72-.02,1.32-1.67,1.96-2.57.98-6.23-6.67-10.1-14.2-11.6-22.58l7.41-3.11h0Z"/>
    <path class="cls-54" d="M278.69,321.5c13.09,16.72,13,40.09,2.8,58.02-.93,1.62-2.87,2.35-4.63,1.74-14.59-5-25.8-14.27-33.62-27.78-.42-.69-.69-1.47-.76-2.31l-1.79-15.89c5.66,11.45,10.89,20.3,15.67,26.56,5.03,6.55,12.33,10.86,21.95,12.97.69.15,1.35-.27,1.52-.96,3.26-13.78,4.17-23.79,2.77-30.04-1.67-7.36-2.97-14.79-3.9-22.31h0Z"/>
    <path class="cls-46" d="M205.29,326.4c1.25,3.16,1.32,6.06.22,8.63l.02-4.36c0-.91-.78-1.64-1.69-1.57l-6.77.47c-.83.05-1.57.59-1.86,1.37-7.01,18.56-.52,38.65,10.37,54.14,2.35,3.34,7.23,3.56,9.86.42,9.17-10.99,16.28-29.38,14.27-42.15-1.18-7.53-6.13-12.48-14.84-14.84.27-.61.78-1.28,1.54-2.04l15.33-1.59c.71-.07,1.37.39,1.54,1.08,6.15,24.87-.02,53.29-21.24,68.69-1.52,1.13-3.65.98-5.03-.34-19.45-18.46-25.8-41.15-19-68.05.17-.71.86-1.2,1.59-1.13l15.67,1.28h0Z"/>
    <path class="cls-63" d="M216.43,326.48c-.76.76-1.28,1.42-1.54,2.04-.66,6.5-.88,10.94-.71,13.29.32,4.59-.51,8.34-2.55,11.21-1.23,1.72-3.9,1.01-4.14-1.08l-1.96-16.9c1.1-2.57,1.03-5.47-.22-8.63l11.13.07h0Z"/>
    <path class="cls-52" d="M205.51,335.03l1.96,16.9c.25,2.08,2.92,2.8,4.14,1.08,2.04-2.87,2.87-6.62,2.55-11.21-.17-2.35.05-6.79.71-13.29,8.71,2.35,13.66,7.31,14.84,14.84,2.01,12.78-5.1,31.17-14.27,42.15-2.62,3.14-7.5,2.92-9.86-.42-10.89-15.5-17.39-35.58-10.37-54.14.29-.78,1.03-1.32,1.86-1.37l6.77-.47c.91-.07,1.69.66,1.69,1.57l-.02,4.36h0Z"/>
  </g>
</svg>