<?xml version="1.0" encoding="UTF-8"?>
<svg id="Camada_1" data-name="Camada 1" xmlns="http://www.w3.org/2000/svg" xmlns:xlink="http://www.w3.org/1999/xlink" viewBox="0 0 422.07 422.07">
  <defs>
    <style>
      .cls-1 {
        stroke: #21113b;
      }

      .cls-1, .cls-2, .cls-3, .cls-4, .cls-5, .cls-6, .cls-7, .cls-8, .cls-9, .cls-10, .cls-11, .cls-12, .cls-13, .cls-14, .cls-15, .cls-16, .cls-17, .cls-18, .cls-19, .cls-20, .cls-21, .cls-22, .cls-23, .cls-24, .cls-25, .cls-26, .cls-27, .cls-28, .cls-29, .cls-30, .cls-31, .cls-32, .cls-33 {
        fill: none;
        stroke-miterlimit: 10;
      }

      .cls-2 {
        stroke: #2e0b05;
      }

      .cls-34 {
        fill: #322328;
      }

      .cls-3 {
        stroke: #08020a;
      }

      .cls-35 {
        fill: #f17074;
      }

      .cls-4 {
        stroke: #201217;
      }

      .cls-5 {
        stroke: #471e1a;
      }

      .cls-6 {
        stroke: #a32428;
      }

      .cls-7 {
        stroke: #4f4050;
      }

      .cls-8 {
        stroke: #641711;
      }

      .cls-36 {
        fill: #fff;
      }

      .cls-9 {
        stroke: #8a1918;
      }

      .cls-10 {
        stroke: #d3312a;
      }

      .cls-37 {
        fill: #402630;
      }

      .cls-38 {
        fill: #5e5a70;
      }

      .cls-39 {
        fill: #ec3539;
      }

      .cls-40 {
        fill: #0e0106;
      }

      .cls-11 {
        stroke: #1b113f;
      }

      .cls-12 {
        stroke: #1b1047;
      }

      .cls-13 {
        stroke: #6b0f19;
      }

      .cls-14 {
        stroke: #a54246;
      }

      .cls-15 {
        stroke: #999194;
      }

      .cls-16 {
        stroke: #da2932;
      }

      .cls-17 {
        stroke: #9d251f;
      }

      .cls-41 {
        fill: #332070;
      }

      .cls-18 {
        stroke: #27141b;
      }

      .cls-19 {
        stroke: #302e3f;
      }

      .cls-20 {
        stroke: #39252c;
      }

      .cls-42 {
        fill: #02020d;
      }

      .cls-43 {
        fill: #591317;
      }

      .cls-21 {
        stroke: #80393d;
      }

      .cls-44 {
        fill: #ba2d1b;
      }

      .cls-22 {
        stroke: #21141f;
      }

      .cls-45 {
        fill: #4d1504;
      }

      .cls-46 {
        fill: url(#Gradiente_sem_nome_10);
      }

      .cls-23 {
        stroke: #dc4750;
      }

      .cls-24 {
        stroke: #a68a82;
      }

      .cls-25 {
        stroke: #210f44;
      }

      .cls-26 {
        stroke: #ef5357;
      }

      .cls-27 {
        stroke: #4d1d24;
      }

      .cls-28 {
        stroke: #842110;
      }

      .cls-29 {
        stroke: #c12523;
      }

      .cls-30 {
        stroke: #362e3b;
      }

      .cls-31 {
        stroke: #7d1b20;
      }

      .cls-32 {
        stroke: #331f79;
      }

      .cls-33 {
        stroke: #962e35;
      }

      .cls-47 {
        fill: #c71d2b;
      }
    </style>
    <linearGradient id="Gradiente_sem_nome_10" data-name="Gradiente sem nome 10" x1="15.59" y1="49.92" x2="371.99" y2="343.72" gradientUnits="userSpaceOnUse">
      <stop offset="0" stop-color="#331d81"/>
      <stop offset="1" stop-color="#16085e"/>
    </linearGradient>
  </defs>
  <rect class="cls-46" x="-.57" width="423.22" height="422.07"/>
  <g>
    <path class="cls-25" d="M118.48,140.31c-14.44,12.91-26.39,27.59-35.86,44.07"/>
    <path class="cls-32" d="M82.62,184.38c4.14-11.82,10.66-22.23,19.56-31.27,4.03-4.09,7.81-8.38,11.38-12.87.13-.15.11-.39-.04-.53l-.02-.02c-.15-.13-.37-.13-.53.02-19.89,19.61-35.6,35.73-39.78,65.14"/>
    <path class="cls-25" d="M73.19,204.86c-7.11,19.58-10.11,37.92-8.97,55.03.31,4.77.5,8.56.61,11.33.98,25.36,11.44,49.89,27.31,69.23,4.84,5.89,19.71,19.06,27.11,17.86,4.7-.77,9.26-2.82,13.63-6.17.66-.5,1.55-.53,2.21-.04,45.27,31.99,102.71,31.92,147.7-.09.85-.59,1.97-.63,2.87-.11l7.88,4.77c.07.04.15.09.24.11,6.63,2.28,13,.94,19.06-3.98,12.03-9.8,21.64-21.68,28.82-35.67,2.56-5.01,5.54-13.28,8.88-24.83"/>
    <path class="cls-32" d="M350.53,292.3c13.24-32.65,3.83-69.73-5.73-102.34-1.25-4.24-3.04-8.31-5.4-12.19-9.56-15.65-22.06-28.93-37.44-39.85-6.61-4.68-13.22-8.03-19.82-10.07"/>
    <path class="cls-12" d="M282.13,127.86c-11.53-7.2-23.87-12.82-37.02-16.87-2.06-.63-3.28-2.71-2.87-4.81,5.14-25.16,27.79-55.62,57.18-42.84,14.77,6.43,21.47,25.45,8.07,36.69-6.21,5.19-17.37,5.08-22.12-2.43-2.25-3.54-2.58-7-.98-10.39,2.28-4.77,7.16-5.6,10.72-1.58.96,1.09,1.95,2.23,2.93,3.44,1.25,1.51,3.68.94,4.11-.96.48-2.08.18-4-.94-5.78-7.02-11.2-22.67-7.02-24.66,5.34-1.07,6.72.83,12.45,5.71,17.15,12.43,11.95,30.55,5.89,37.11-9.61,3.52-8.31,2.58-16.91-2.82-25.78-9.98-16.35-32.58-19.41-48.99-11.42-17.09,8.34-27.77,28.86-32.95,47.79-.37,1.31-1.62,2.14-2.95,1.97-16.59-2.17-31.68-1.99-46.65.31-.94.15-1.82-.5-1.93-1.44-1.07-8.47-5.3-18.62-12.71-30.46-11.33-18.12-33.3-28.25-53.76-19.23-17.35,7.64-25.62,26.96-15.73,42.89,7,11.29,22.06,14.84,33.37,7.18,7.66-5.19,10.33-15.54,5.71-23.59-4.18-7.26-14.14-10.81-20.59-4.55-2.41,2.34-3.41,5.16-3.02,8.49.26,2.28,3.19,3.02,4.53,1.16l2.8-3.94c.37-.5.88-.88,1.47-1.03,17.09-4.7,12.1,26.06-9.43,19.28-10.02-3.17-13.72-15.45-10.7-24.7,2.69-8.29,8.51-13.72,17.44-16.24,30.76-8.71,47.26,21.95,54.66,46.34.22.7-.2,1.44-.9,1.64-9.78,2.74-19.3,6.61-28.55,11.62-10.35,5.6-20.09,11.88-29.17,18.82"/>
    <path class="cls-11" d="M282.13,127.86c6.83,3.81,12.84,8.53,18.03,14.2"/>
    <line class="cls-3" x1="300.16" y1="142.06" x2="280.49" y2="135.32"/>
    <path class="cls-19" d="M280.49,135.32c-12.14-8.6-25.18-14.66-39.12-18.23-.63-.15-1.29.17-1.55.77-.79,1.77-1.14,4.14-1.03,7.11"/>
    <path class="cls-22" d="M238.78,124.97l-.33,7.4c-.09,1.88-1.79,3.28-3.68,3.02l-.09-.02c-1.82-.26-3.15-1.97-3.15-4.03l.02-7.86"/>
    <path class="cls-19" d="M231.56,123.48c.68-2.39.83-4.86.48-7.42-.11-.74-.68-1.31-1.4-1.42-12.36-1.86-26.24-2.21-41.57-1.01-1.75.13-3.15,1.51-3.33,3.24-.2,1.77.09,4,.85,6.7"/>
    <path class="cls-22" d="M186.6,123.57l.22,8.56c.04,1.51-1.01,2.82-2.49,3.11l-.77.15c-1.86.37-3.61-1.03-3.68-2.91l-.24-7.59"/>
    <path class="cls-19" d="M179.64,124.88c.09-3.13-.17-5.58-.79-7.37-.28-.85-1.2-1.31-2.06-1.03-13.89,4.68-27.11,11.01-39.69,18.97"/>
    <line class="cls-3" x1="137.1" y1="135.45" x2="118.48" y2="140.31"/>
    <path class="cls-18" d="M272.06,138.14c-12.67,4.49-25.34,8.95-37.96,13.41-9.65,3.41-17.42,8.88-23.3,16.39-.83,1.05-2.43,1.05-3.26,0-5.67-7.24-12.87-12.49-21.6-15.71-13.06-4.81-26.32-9.5-39.8-14.03"/>
    <line class="cls-1" x1="73.19" y1="204.86" x2="82.62" y2="184.38"/>
    <line class="cls-7" x1="179.64" y1="124.88" x2="146.14" y2="138.21"/>
    <path class="cls-30" d="M146.14,138.21c-3.46-.48-6.48-1.4-9.04-2.76M280.49,135.32c-1.97,1.95-4.77,2.89-8.42,2.82"/>
    <line class="cls-7" x1="272.06" y1="138.14" x2="238.78" y2="124.97"/>
    <path class="cls-1" d="M350.53,292.3c.55-5.05,2.21-10,2.69-14.59,1.9-18.29.9-36.45-3-54.48-7.11-32.89-23.78-59.95-50.06-81.16"/>
    <path class="cls-7" d="M231.56,123.48c-14.86-2.87-29.85-2.82-44.97.09"/>
    <line class="cls-31" x1="70.98" y1="256.21" x2="71.11" y2="270.35"/>
    <path class="cls-8" d="M71.11,270.35c1.88,25.67,11.14,48.12,27.79,67.35,4.75,5.47,15.64,16.89,22.95,13.41,5.89-2.8,11.88-7.35,18.03-13.68,11.58-11.97,22.87-26.74,33.83-44.33.02-.04.63-.94,1.84-2.71,2.08-3.06,2.39-5.38.9-6.96"/>
    <path class="cls-2" d="M176.44,283.43c.2-1.38,1.2-2.41,2.98-3.09"/>
    <path class="cls-18" d="M179.42,280.35c19.52,9.54,41.86,8.12,61.46-.88"/>
    <line class="cls-2" x1="240.88" y1="279.47" x2="242.48" y2="283.15"/>
    <path class="cls-8" d="M242.48,283.15c-1.42.81-1.71,2.03-.85,3.63,9.32,17.46,21.99,34.73,38.03,51.79,4.35,4.62,14.09,13.15,20.61,13.37.72.02,1.47-.15,2.12-.48,27.04-13.54,42.32-52.54,44.57-80.7"/>
    <path class="cls-31" d="M346.96,270.76c.37-3.17.24-5.3-.35-6.39"/>
    <path class="cls-21" d="M346.61,264.38c1.73-16.04.18-31.6-4.66-46.72-9.63-30.09-27.2-57.57-52.58-76.21-.81-.59-1.82-.79-2.78-.57-18.91,4.33-37.85,10.98-56.85,19.98"/>
    <path class="cls-31" d="M229.75,160.86c-10.04,2.25-15.32,9.17-15.8,20.7"/>
    <path class="cls-2" d="M213.95,181.56c-4.35-.61-7.88-2.84-10.57-6.67"/>
    <path class="cls-13" d="M203.38,174.88c-.02-3.61-1.84-6.65-5.45-9.12"/>
    <path class="cls-21" d="M197.93,165.76c-4.92-3.57-10.33-6.56-16.19-8.95-15.25-6.24-31.99-11.51-50.17-15.82-.94-.22-1.9-.02-2.69.55-6.76,4.97-12.82,10.57-18.23,16.78-24.29,27.99-39.12,58.86-39.67,97.9"/>
    <path class="cls-23" d="M197.93,165.76c-.02,1.09-.39,1.62-1.09,1.6"/>
    <path class="cls-26" d="M196.84,167.35c-6.78-5.84-14.86-8.84-24.22-9.04-.61-.02-1.23-.09-1.84-.22-16.45-3.68-25.84-5.78-28.14-6.3-3.57-.81-6.32-.57-8.25.7-7.46,4.92-15.6,11.82-24.4,20.68-1.44,1.47-4.09,4.81-7.94,10.04-4.6,6.28-7.11,9.74-7.57,10.42-1.84,2.82-5.38,9.47-10.61,19.91-2.21,4.4-3.92,9.58-5.16,15.56,0,.02-1.44,5.51-4.33,16.43-.04.2-.09.37-.11.55l-1.49,16.32c-.02.37-.35.63-.7.63-.37,0-.68-.28-.7-.66l-.39-6.17"/>
    <path class="cls-9" d="M203.38,174.88l-.55,7.86c-.09,1.31-.85,2.49-2.03,3.09-6.59,3.26-12.32,7.59-17.15,12.95-.55.59-1.49.61-2.06.04-4.84-4.84-11.14-8.91-18.86-12.21"/>
    <path class="cls-16" d="M196.84,167.35l.94,14.22c.07.7-.24,1.38-.77,1.84-5.97,5.16-12.63,7.46-19.98,6.91-3.87-.28-8.64-1.53-14.31-3.72"/>
    <path class="cls-17" d="M162.72,186.61c-25.16.63-36.69,13.15-34.62,37.53.07.59.2,1.16.39,1.71,3.28,8.97,9.01,15.47,17.2,19.47,2.54,1.25,5.71,1.51,7.79,2.98.66.46,1.07,1.18,1.14,1.99,1.03,13.46,7.07,23.92,18.16,31.42"/>
    <line class="cls-10" x1="172.79" y1="281.7" x2="171.74" y2="285.53"/>
    <path class="cls-16" d="M171.74,285.53c-9.5,10.79-19.23,22.62-31.77,28.75-29.25,14.35-52.27-11.33-62.21-36.04-.7-1.75-2.36-4.07-5.01-6.94"/>
    <line class="cls-10" x1="72.75" y1="271.31" x2="71.11" y2="270.35"/>
    <line class="cls-28" x1="247.6" y1="279.87" x2="242.48" y2="283.15"/>
    <path class="cls-5" d="M240.88,279.47c10.98-7.11,17.44-17.5,19.36-31.22.13-.81-.44-1.58-1.25-1.71-15.43-2.58-22.14-9.63-28.14-24.84-.39-1.03-.48-2.14-.24-3.24l3.72-16.26c.22-.96-.17-1.97-.98-2.52l-23.48-15.75c-.63-.44-1.49-.46-2.14-.04-8.6,5.36-15.65,10.85-21.18,16.43-1.86,1.9-2.63,4.64-2.04,7.24,4.51,19.1-5.58,35.27-24.9,39.39-.68.15-1.09.85-.9,1.53,4.77,15.4,8.36,22.1,20.7,31.86"/>
    <line class="cls-28" x1="176.44" y1="283.43" x2="172.79" y2="281.7"/>
    <path class="cls-29" d="M171.74,285.53c-7.88,21.86-26.45,37.94-40.02,51.31-9.26,9.1-18.25,9.08-26.94-.04-8.99-9.43-16.37-20.15-22.14-32.17-4.46-9.3-6.78-22.3-9.89-33.32M248.91,285.34c1.25,5.58,2.71,9.72,4.4,12.41,6.45,10.22,16,22.14,28.62,35.78,9.82,10.61,21.86,11.16,31.77,1.64.94-.9,3.09-3.48,6.43-7.79,12.3-15.75,19.52-32.78,21.66-51.05"/>
    <line class="cls-10" x1="346.96" y1="270.76" x2="341.8" y2="276.32"/>
    <path class="cls-16" d="M341.8,276.32c-7.24,17.02-17.2,29.65-29.85,37.85-25.45,16.5-49.32-10.2-63.04-28.84"/>
    <line class="cls-10" x1="248.91" y1="285.34" x2="247.6" y2="279.87"/>
    <path class="cls-17" d="M247.6,279.87c9.65-6.87,14.79-16.43,15.43-28.66.09-1.4,1.07-2.58,2.43-2.89,13.11-2.91,21.47-11.29,25.08-25.12.15-.57.22-1.14.22-1.71.13-20.22-9.61-31.73-29.21-34.53-3.74-.53-7-.2-9.78.98-4.99,2.12-9.74,5.38-14.22,9.78-.59.57-1.47.77-2.23.48-1.25-.44-2.45-1.71-3.63-3.81-.28-.55-.7-1.01-1.2-1.36-3.24-2.25-6.94-4.22-11.07-5.91-2.78-1.14-4.6-3-5.45-5.58"/>
    <path class="cls-26" d="M346.61,264.38c-1.51-10.42-3.15-20.52-4.92-30.33-.94-5.16-1.95-9.37-3.06-12.63-3.79-11.12-8.58-19.15-15.19-29.65-9.69-15.38-23.13-27.83-36.98-38.29-2.32-1.75-5.25-2.43-8.1-1.88l-48.62,9.26"/>
    <path class="cls-18" d="M184.47,313.06c17.92,5.58,35.95,5.4,54.11-.57"/>
    <path class="cls-4" d="M238.59,312.49l7.96-2.25c.72-.22,1.05-1.05.68-1.68l-11.2-19.41c-.44-.74-1.33-1.07-2.12-.79-16.32,5.71-32.52,5.8-48.6.28-.83-.28-1.77.07-2.23.83l-11.09,19.23c-.33.55-.02,1.25.59,1.4l11.9,2.95"/>
    <path class="cls-20" d="M238.59,312.49l-7.61-13.26c-.57-.98-1.77-1.44-2.87-1.12-12.54,3.81-25.05,3.92-37.59.33-1.03-.31-2.12.2-2.58,1.18-1.9,4.14-3.06,8.62-3.46,13.43"/>
    <path class="cls-18" d="M167.8,339.23c29.08,10.68,58.23,10.11,87.46-1.73"/>
    <path class="cls-4" d="M255.26,337.5c3.41-.59,6.54-1.93,9.41-4,.48-.33.57-1.01.2-1.47l-13.43-17.09c-.59-.77-1.64-1.03-2.54-.63l-8.16,3.5"/>
    <path class="cls-18" d="M240.73,317.81c-20.35,5.71-40.26,5.84-59.74.42"/>
    <path class="cls-4" d="M181,318.22l-11.33-4.46c-1.09-.42-2.34-.02-3,.94l-12.41,18.49c-.33.48-.11,1.16.44,1.36l13.11,4.68"/>
    <path class="cls-20" d="M181,318.22c-9.52,5.27-13.92,12.28-13.19,21.01M255.26,337.5l-14.53-19.69"/>
    <path class="cls-18" d="M258.06,341.72c-12.32,4.75-21.31,7.61-26.94,8.64-23.22,4.22-45.69,1.77-67.37-7.33"/>
    <path class="cls-4" d="M163.75,343.04l-11.82-5.38c-1.31-.59-2.84-.31-3.85.7l-6.78,6.78c-.92.9-.74,2.43.33,3.13l11.55,7.57"/>
    <path class="cls-4" d="M267.4,353.82l10.39-6.61c.63-.39.74-1.29.2-1.84l-8.27-8.27c-.59-.59-1.51-.74-2.25-.35l-9.41,4.97"/>
    <path class="cls-20" d="M267.4,353.82l-9.34-12.1M163.75,343.04c-4.73,3.28-8.25,7.55-10.57,12.8"/>
    <path class="cls-6" d="M151.06,164.31c-5.6,1.38-20.44,6.98-13.02,14.84,1.38,1.47,3.54,1.82,5.32.85,3.74-2.01,7.24-3.44,10.52-4.25,3.26-.79,7.02-1.18,11.29-1.12,1.99.02,3.76-1.29,4.31-3.22,2.91-10.42-12.82-8.49-18.42-7.11"/>
    <path class="cls-33" d="M104.22,207.16c-8.32-2.17-17.29,4.68-20.05,15.26-2.76,10.6,1.75,20.94,10.06,23.11,8.32,2.17,17.29-4.68,20.05-15.26,2.76-10.6-1.75-20.94-10.06-23.11M119.23,266.85c-12.63.15-22.72,11.22-22.57,24.72.17,13.51,10.54,24.31,23.16,24.16,12.63-.15,22.72-11.22,22.57-24.72-.17-13.51-10.54-24.31-23.16-24.16"/>
    <path class="cls-6" d="M249.33,172.72l30.46,7.59c1.03.26,2.06-.35,2.3-1.38l.48-1.9c1.07-4.31-5.32-9.61-14.24-11.84l-1.75-.44c-8.95-2.23-17.07-.55-18.14,3.76l-.48,1.9c-.24,1.03.37,2.06,1.38,2.3"/>
    <path class="cls-33" d="M313.69,207.57c-8.26,2.34-12.57,12.73-9.6,23.23,2.98,10.49,12.08,17.1,20.34,14.76,8.26-2.34,12.57-12.73,9.6-23.23-2.98-10.49-12.08-17.1-20.34-14.76"/>
    <path class="cls-6" d="M297.67,266.77c-12.59.67-22.24,12.13-21.53,25.65.71,13.51,11.5,23.92,24.09,23.26,12.59-.67,22.24-12.13,21.53-25.65-.71-13.51-11.5-23.92-24.09-23.26"/>
    <path class="cls-24" d="M183.36,217.42c0-13.92-11.29-25.21-25.21-25.21s-25.21,11.29-25.21,25.21,11.29,25.21,25.21,25.21,25.21-11.29,25.21-25.21M285.61,217.53c0-13.96-11.31-25.27-25.27-25.27s-25.27,11.31-25.27,25.27,11.31,25.27,25.27,25.27,25.27-11.31,25.27-25.27"/>
    <path class="cls-27" d="M229.35,248.64c-15.89,9.06-23.24,9.85-38.51,0-.53-.35-1.16-.48-1.79-.42-3.3.35-5.21.96-5.75,1.86-.42.66-.55,1.44-.39,2.21,1.55,7.94,6.04,13.35,13.46,16.19,16.24,6.21,32.95,2.87,39.95-14.11.5-1.23-.15-2.63-1.42-3.02-1.95-.61-3.26-1.4-3.96-2.39-.37-.48-1.03-.63-1.58-.33"/>
    <path class="cls-15" d="M176.18,218.38c0-7.48-6.06-13.54-13.54-13.54s-13.54,6.06-13.54,13.54,6.06,13.54,13.54,13.54,13.54-6.06,13.54-13.54M269.26,218.32c0-7.48-6.08-13.57-13.57-13.57s-13.57,6.08-13.57,13.57,6.08,13.57,13.57,13.57,13.57-6.08,13.57-13.57"/>
    <path class="cls-14" d="M186.07,252.73c-.5,1.62-.15,3.39.94,4.7,12.69,15.1,35.56,13.3,46.52-1.55,1.01-1.36.61-3.28-.83-4.16l-.13-.07c-1.55-.94-3.59-.59-4.75.83-8.23,10-18.36,12.17-30.39,6.54-.28-.15-.57-.33-.81-.55l-7.75-6.87c-.92-.81-2.39-.37-2.71.81l-.09.31"/>
    <path class="cls-27" d="M307.8,275.99c-1.05-1.4-2.78-2.14-4.53-1.97-10.94,1.09-20.87,6.94-19.28,19.26,1.49,11.47,11.07,15.1,21.47,16.67.9.13,1.82-.24,2.36-.96,8.34-11.03,8.34-22.03-.02-33"/>
    <path class="cls-42" d="M282.13,127.86c6.83,3.81,12.84,8.53,18.03,14.2l-19.67-6.74c-12.14-8.6-25.18-14.66-39.12-18.23-.63-.15-1.29.17-1.55.77-.79,1.77-1.14,4.14-1.03,7.11l-.33,7.4c-.09,1.88-1.79,3.28-3.68,3.02l-.09-.02c-1.82-.26-3.15-1.97-3.15-4.03l.02-7.86c.68-2.39.83-4.86.48-7.42-.11-.74-.68-1.31-1.4-1.42-12.36-1.86-26.24-2.21-41.57-1.01-1.75.13-3.15,1.51-3.33,3.24-.2,1.77.09,4,.85,6.7l.22,8.56c.04,1.51-1.01,2.82-2.49,3.11l-.77.15c-1.86.37-3.61-1.03-3.68-2.91l-.24-7.59c.09-3.13-.17-5.58-.79-7.37-.28-.85-1.2-1.31-2.06-1.03-13.89,4.68-27.11,11.01-39.69,18.97l-18.62,4.86c9.08-6.94,18.82-13.22,29.17-18.82,9.26-5.01,18.77-8.88,28.55-11.62.7-.2,1.12-.94.9-1.64-7.4-24.4-23.89-55.05-54.66-46.34-8.93,2.52-14.75,7.94-17.44,16.24-3.02,9.26.68,21.53,10.7,24.7,21.53,6.78,26.52-23.98,9.43-19.28-.59.15-1.09.53-1.47,1.03l-2.8,3.94c-1.33,1.86-4.27,1.12-4.53-1.16-.39-3.33.61-6.15,3.02-8.49,6.45-6.26,16.41-2.71,20.59,4.55,4.62,8.05,1.95,18.4-5.71,23.59-11.31,7.66-26.37,4.11-33.37-7.18-9.89-15.93-1.62-35.25,15.73-42.89,20.46-9.01,42.43,1.12,53.76,19.23,7.42,11.84,11.64,21.99,12.71,30.46.11.94.98,1.6,1.93,1.44,14.97-2.3,30.06-2.47,46.65-.31,1.33.17,2.58-.66,2.95-1.97,5.19-18.93,15.86-39.45,32.95-47.79,16.41-7.99,39.01-4.92,48.99,11.42,5.4,8.86,6.35,17.46,2.82,25.78-6.56,15.49-24.68,21.55-37.11,9.61-4.88-4.7-6.78-10.44-5.71-17.15,1.99-12.36,17.64-16.54,24.66-5.34,1.12,1.77,1.42,3.7.94,5.78-.44,1.9-2.87,2.47-4.11.96-.98-1.2-1.97-2.34-2.93-3.44-3.57-4.03-8.45-3.19-10.72,1.58-1.6,3.39-1.27,6.85.98,10.39,4.75,7.51,15.91,7.61,22.12,2.43,13.39-11.25,6.7-30.26-8.07-36.69-29.39-12.78-52.03,17.68-57.18,42.84-.42,2.1.81,4.18,2.87,4.81,13.15,4.05,25.49,9.67,37.02,16.87h0Z"/>
    <path class="cls-38" d="M231.56,123.48c-14.86-2.87-29.85-2.82-44.97.09-.77-2.69-1.05-4.92-.85-6.7.17-1.73,1.58-3.11,3.33-3.24,15.34-1.2,29.21-.85,41.57,1.01.72.11,1.29.68,1.4,1.42.35,2.56.2,5.03-.48,7.42h0Z"/>
    <path class="cls-38" d="M179.64,124.88l-33.5,13.33c-3.46-.48-6.48-1.4-9.04-2.76,12.58-7.96,25.8-14.29,39.69-18.97.85-.28,1.77.18,2.06,1.03.61,1.79.88,4.24.79,7.37h0Z"/>
    <path class="cls-38" d="M280.49,135.32c-1.97,1.95-4.77,2.89-8.42,2.82l-33.28-13.17c-.11-2.98.24-5.34,1.03-7.11.26-.59.92-.92,1.55-.77,13.94,3.57,26.98,9.63,39.12,18.23h0Z"/>
    <path class="cls-37" d="M231.56,123.48l-.02,7.86c0,2.06,1.33,3.76,3.15,4.03l.09.02c1.88.26,3.59-1.14,3.68-3.02l.33-7.4,33.28,13.17c-12.67,4.49-25.34,8.95-37.96,13.41-9.65,3.41-17.42,8.88-23.3,16.39-.83,1.05-2.43,1.05-3.26,0-5.67-7.24-12.87-12.49-21.6-15.71-13.06-4.81-26.32-9.5-39.8-14.03l33.5-13.33.24,7.59c.07,1.88,1.82,3.28,3.68,2.91l.77-.15c1.49-.28,2.54-1.6,2.49-3.11l-.22-8.56c15.12-2.91,30.11-2.95,44.97-.09h0Z"/>
    <path class="cls-41" d="M350.53,292.3c.55-5.05,2.21-10,2.69-14.59,1.9-18.29.9-36.45-3-54.48-7.11-32.89-23.78-59.95-50.06-81.16-5.19-5.67-11.2-10.39-18.03-14.2,6.61,2.04,13.22,5.38,19.82,10.07,15.38,10.92,27.88,24.2,37.44,39.85,2.36,3.87,4.16,7.94,5.4,12.19,9.56,32.6,18.97,69.69,5.73,102.34h0Z"/>
    <path class="cls-40" d="M137.1,135.45c2.56,1.36,5.58,2.28,9.04,2.76,13.48,4.53,26.74,9.21,39.8,14.03,8.73,3.22,15.93,8.47,21.6,15.71.83,1.05,2.43,1.05,3.26,0,5.89-7.51,13.65-12.98,23.3-16.39,12.63-4.46,25.29-8.93,37.96-13.41,3.65.07,6.45-.88,8.42-2.82l19.67,6.74c26.28,21.2,42.95,48.27,50.06,81.16,3.9,18.03,4.9,36.19,3,54.48-.48,4.6-2.14,9.54-2.69,14.59-3.35,11.55-6.32,19.82-8.88,24.83-7.18,13.98-16.78,25.86-28.82,35.67-6.06,4.92-12.43,6.26-19.06,3.98-.09-.02-.17-.07-.24-.11l-7.88-4.77c-.9-.53-2.01-.48-2.87.11-44.99,32.01-102.43,32.08-147.7.09-.66-.48-1.55-.46-2.21.04-4.38,3.35-8.93,5.4-13.63,6.17-7.4,1.2-22.27-11.97-27.11-17.86-15.86-19.34-26.32-43.87-27.31-69.23-.11-2.78-.31-6.56-.61-11.33-1.14-17.11,1.86-35.45,8.97-55.03l9.43-20.48c9.47-16.48,21.42-31.16,35.86-44.07l18.62-4.86M70.98,256.21l.13,14.14c1.88,25.67,11.14,48.12,27.79,67.35,4.75,5.47,15.64,16.89,22.95,13.41,5.89-2.8,11.88-7.35,18.03-13.68,11.58-11.97,22.87-26.74,33.83-44.33.02-.04.63-.94,1.84-2.71,2.08-3.06,2.39-5.38.9-6.96.2-1.38,1.2-2.41,2.98-3.09,19.52,9.54,41.86,8.12,61.46-.88l1.6,3.68c-1.42.81-1.71,2.03-.85,3.63,9.32,17.46,21.99,34.73,38.03,51.79,4.35,4.62,14.09,13.15,20.61,13.37.72.02,1.47-.15,2.12-.48,27.04-13.54,42.32-52.54,44.57-80.7.37-3.17.24-5.3-.35-6.39,1.73-16.04.18-31.6-4.66-46.72-9.63-30.09-27.2-57.57-52.58-76.21-.81-.59-1.82-.79-2.78-.57-18.91,4.33-37.85,10.98-56.85,19.98-10.04,2.25-15.32,9.17-15.8,20.7-4.35-.61-7.88-2.84-10.57-6.67-.02-3.61-1.84-6.65-5.45-9.12-4.92-3.57-10.33-6.56-16.19-8.95-15.25-6.24-31.99-11.51-50.17-15.82-.94-.22-1.9-.02-2.69.55-6.76,4.97-12.82,10.57-18.23,16.78-24.29,27.99-39.12,58.86-39.67,97.9M184.47,313.06c17.92,5.58,35.95,5.4,54.11-.57l7.96-2.25c.72-.22,1.05-1.05.68-1.68l-11.2-19.41c-.44-.74-1.33-1.07-2.12-.79-16.32,5.71-32.52,5.8-48.6.28-.83-.28-1.77.07-2.23.83l-11.09,19.23c-.33.55-.02,1.25.59,1.4l11.9,2.95M167.8,339.23c29.08,10.68,58.23,10.11,87.46-1.73,3.41-.59,6.54-1.93,9.41-4,.48-.33.57-1.01.2-1.47l-13.43-17.09c-.59-.77-1.64-1.03-2.54-.63l-8.16,3.5c-20.35,5.71-40.26,5.84-59.74.42l-11.33-4.46c-1.09-.42-2.34-.02-3,.94l-12.41,18.49c-.33.48-.11,1.16.44,1.36l13.11,4.68M258.06,341.72c-12.32,4.75-21.31,7.61-26.94,8.64-23.22,4.22-45.69,1.77-67.37-7.33l-11.82-5.38c-1.31-.59-2.84-.31-3.85.7l-6.78,6.78c-.92.9-.74,2.43.33,3.13l11.55,7.57c18.58,9.63,38.25,14.22,59.04,13.76,5.58-.11,11.82-.81,18.69-2.1,13.7-2.54,24.77-5.75,36.5-13.68l10.39-6.61c.63-.39.74-1.29.2-1.84l-8.27-8.27c-.59-.59-1.51-.74-2.25-.35l-9.41,4.97h0Z"/>
    <path class="cls-41" d="M82.62,184.38l-9.43,20.48c4.18-29.41,19.89-45.53,39.78-65.14.15-.15.37-.15.53-.02l.02.02c.15.13.17.37.04.53-3.57,4.49-7.35,8.77-11.38,12.87-8.91,9.04-15.43,19.45-19.56,31.27h0Z"/>
    <path class="cls-35" d="M197.93,165.76c-.02,1.09-.39,1.62-1.09,1.6-6.78-5.84-14.86-8.84-24.22-9.04-.61-.02-1.23-.09-1.84-.22-16.45-3.68-25.84-5.78-28.14-6.3-3.57-.81-6.32-.57-8.25.7-7.46,4.92-15.6,11.82-24.4,20.68-1.44,1.47-4.09,4.81-7.94,10.04-4.6,6.28-7.11,9.74-7.57,10.42-1.84,2.82-5.38,9.47-10.61,19.91-2.21,4.4-3.92,9.58-5.16,15.56,0,.02-1.44,5.51-4.33,16.43-.04.2-.09.37-.11.55l-1.49,16.32c-.02.37-.35.63-.7.63-.37,0-.68-.28-.7-.66l-.39-6.17c.55-39.04,15.38-69.91,39.67-97.9,5.4-6.21,11.47-11.82,18.23-16.78.79-.57,1.75-.77,2.69-.55,18.18,4.31,34.92,9.58,50.17,15.82,5.86,2.39,11.27,5.38,16.19,8.95h0Z"/>
    <path class="cls-35" d="M346.61,264.38c-1.51-10.42-3.15-20.52-4.92-30.33-.94-5.16-1.95-9.37-3.06-12.63-3.79-11.12-8.58-19.15-15.19-29.65-9.69-15.38-23.13-27.83-36.98-38.29-2.32-1.75-5.25-2.43-8.1-1.88l-48.62,9.26c18.99-8.99,37.94-15.65,56.85-19.98.96-.22,1.97-.02,2.78.57,25.38,18.64,42.95,46.13,52.58,76.21,4.84,15.12,6.39,30.68,4.66,46.72h0Z"/>
    <path class="cls-39" d="M196.84,167.35l.94,14.22c.07.7-.24,1.38-.77,1.84-5.97,5.16-12.63,7.46-19.98,6.91-3.87-.28-8.64-1.53-14.31-3.72-25.16.63-36.69,13.15-34.62,37.53.07.59.2,1.16.39,1.71,3.28,8.97,9.01,15.47,17.2,19.47,2.54,1.25,5.71,1.51,7.79,2.98.66.46,1.07,1.18,1.14,1.99,1.03,13.46,7.07,23.92,18.16,31.42l-1.05,3.83c-9.5,10.79-19.23,22.62-31.77,28.75-29.25,14.35-52.27-11.33-62.21-36.04-.7-1.75-2.36-4.07-5.01-6.94l-1.64-.96-.13-14.14.39,6.17c.02.37.33.66.7.66.35,0,.68-.26.7-.63l1.49-16.32c.02-.17.07-.35.11-.55,2.89-10.92,4.33-16.41,4.33-16.43,1.25-5.97,2.95-11.16,5.16-15.56,5.23-10.44,8.77-17.09,10.61-19.91.46-.68,2.98-4.14,7.57-10.42,3.85-5.23,6.5-8.58,7.94-10.04,8.8-8.86,16.94-15.75,24.4-20.68,1.93-1.27,4.68-1.51,8.25-.7,2.3.53,11.68,2.63,28.14,6.3.61.13,1.23.2,1.84.22,9.36.2,17.44,3.19,24.22,9.04M151.06,164.31c-5.6,1.38-20.44,6.98-13.02,14.84,1.38,1.47,3.54,1.82,5.32.85,3.74-2.01,7.24-3.44,10.52-4.25,3.26-.79,7.02-1.18,11.29-1.12,1.99.02,3.76-1.29,4.31-3.22,2.91-10.42-12.82-8.49-18.42-7.11M104.22,207.16c-8.32-2.17-17.29,4.68-20.05,15.26-2.76,10.6,1.75,20.94,10.06,23.11,8.32,2.17,17.29-4.68,20.05-15.26,2.76-10.6-1.75-20.94-10.06-23.11M119.23,266.85c-12.63.15-22.72,11.22-22.57,24.72.17,13.51,10.54,24.31,23.16,24.16,12.63-.15,22.72-11.22,22.57-24.72-.17-13.51-10.54-24.31-23.16-24.16h0Z"/>
    <path class="cls-39" d="M346.61,264.38c.59,1.09.72,3.22.35,6.39l-5.16,5.56c-7.24,17.02-17.2,29.65-29.85,37.85-25.45,16.5-49.32-10.2-63.04-28.84l-1.31-5.47c9.65-6.87,14.79-16.43,15.43-28.66.09-1.4,1.07-2.58,2.43-2.89,13.11-2.91,21.47-11.29,25.08-25.12.15-.57.22-1.14.22-1.71.13-20.22-9.61-31.73-29.21-34.53-3.74-.53-7-.2-9.78.98-4.99,2.12-9.74,5.38-14.22,9.78-.59.57-1.47.77-2.23.48-1.25-.44-2.45-1.71-3.63-3.81-.28-.55-.7-1.01-1.2-1.36-3.24-2.25-6.94-4.22-11.07-5.91-2.78-1.14-4.6-3-5.45-5.58.48-11.53,5.75-18.45,15.8-20.7l48.62-9.26c2.84-.55,5.78.13,8.1,1.88,13.85,10.46,27.29,22.91,36.98,38.29,6.61,10.5,11.4,18.53,15.19,29.65,1.12,3.26,2.12,7.46,3.06,12.63,1.77,9.8,3.41,19.91,4.92,30.33M249.33,172.72l30.46,7.59c1.03.26,2.06-.35,2.3-1.38l.48-1.9c1.07-4.31-5.32-9.61-14.24-11.84l-1.75-.44c-8.95-2.23-17.07-.55-18.14,3.76l-.48,1.9c-.24,1.03.37,2.06,1.38,2.3M313.69,207.57c-8.26,2.34-12.57,12.73-9.6,23.23,2.98,10.49,12.08,17.1,20.34,14.76,8.26-2.34,12.57-12.73,9.6-23.23-2.98-10.49-12.08-17.1-20.34-14.76M297.67,266.77c-12.59.67-22.24,12.13-21.53,25.65.71,13.51,11.5,23.92,24.09,23.26,12.59-.67,22.24-12.13,21.53-25.65-.71-13.51-11.5-23.92-24.09-23.26h0Z"/>
    <path class="cls-43" d="M153.88,175.76c-3.28.81-6.78,2.23-10.52,4.25-1.77.96-3.94.61-5.32-.85-7.42-7.86,7.42-13.46,13.02-14.84,5.6-1.38,21.33-3.3,18.42,7.11-.55,1.93-2.32,3.24-4.31,3.22-4.27-.07-8.03.33-11.29,1.12h0Z"/>
    <path class="cls-43" d="M249.33,172.72c-1.01-.24-1.62-1.27-1.38-2.3l.48-1.9c1.07-4.31,9.19-6,18.14-3.76l1.75.44c8.93,2.23,15.32,7.53,14.24,11.84l-.48,1.9c-.24,1.03-1.27,1.64-2.3,1.38l-30.46-7.59h0Z"/>
    <path class="cls-47" d="M203.38,174.88l-.55,7.86c-.09,1.31-.85,2.49-2.03,3.09-6.59,3.26-12.32,7.59-17.15,12.95-.55.59-1.49.61-2.06.04-4.84-4.84-11.14-8.91-18.86-12.21,5.67,2.19,10.44,3.44,14.31,3.72,7.35.55,14-1.75,19.98-6.91.53-.46.83-1.14.77-1.84l-.94-14.22c.7.02,1.07-.5,1.09-1.6,3.61,2.47,5.43,5.51,5.45,9.12h0Z"/>
    <path class="cls-45" d="M213.95,181.56c.85,2.58,2.67,4.44,5.45,5.58,4.14,1.68,7.83,3.65,11.07,5.91.5.35.92.81,1.2,1.36,1.18,2.1,2.38,3.37,3.63,3.81.77.28,1.64.09,2.23-.48,4.49-4.4,9.23-7.66,14.22-9.78,2.78-1.18,6.04-1.51,9.78-.98,19.61,2.8,29.34,14.31,29.21,34.53,0,.57-.07,1.14-.22,1.71-3.61,13.83-11.97,22.21-25.08,25.12-1.36.31-2.34,1.49-2.43,2.89-.63,12.23-5.78,21.79-15.43,28.66l-5.12,3.28-1.6-3.68c10.98-7.11,17.44-17.5,19.36-31.22.13-.81-.44-1.58-1.25-1.71-15.43-2.58-22.14-9.63-28.14-24.84-.39-1.03-.48-2.14-.24-3.24l3.72-16.26c.22-.96-.17-1.97-.98-2.52l-23.48-15.75c-.63-.44-1.49-.46-2.14-.04-8.6,5.36-15.65,10.85-21.18,16.43-1.86,1.9-2.63,4.64-2.04,7.24,4.51,19.1-5.58,35.27-24.9,39.39-.68.15-1.09.85-.9,1.53,4.77,15.4,8.36,22.1,20.7,31.86-1.77.68-2.78,1.71-2.98,3.09l-3.65-1.73c-11.09-7.51-17.13-17.96-18.16-31.42-.07-.81-.48-1.53-1.14-1.99-2.08-1.47-5.25-1.73-7.79-2.98-8.18-4-13.92-10.5-17.2-19.47-.2-.55-.33-1.12-.39-1.71-2.08-24.38,9.45-36.89,34.62-37.53,7.72,3.3,14.03,7.37,18.86,12.21.57.57,1.51.55,2.06-.04,4.84-5.36,10.57-9.69,17.15-12.95,1.18-.59,1.95-1.77,2.03-3.09l.55-7.86c2.69,3.83,6.21,6.06,10.57,6.67M183.36,217.42c0-13.92-11.29-25.21-25.21-25.21s-25.21,11.29-25.21,25.21,11.29,25.21,25.21,25.21,25.21-11.29,25.21-25.21M285.61,217.53c0-13.96-11.31-25.27-25.27-25.27s-25.27,11.31-25.27,25.27,11.31,25.27,25.27,25.27,25.27-11.31,25.27-25.27h0Z"/>
    <path class="cls-37" d="M240.88,279.47c-19.61,8.99-41.95,10.42-61.46.88-12.34-9.76-15.93-16.45-20.7-31.86-.2-.68.22-1.38.9-1.53,19.32-4.11,29.41-20.28,24.9-39.39-.59-2.6.18-5.34,2.04-7.24,5.54-5.58,12.58-11.07,21.18-16.43.66-.42,1.51-.39,2.14.04l23.48,15.75c.81.55,1.2,1.55.98,2.52l-3.72,16.26c-.24,1.09-.15,2.21.24,3.24,6,15.21,12.71,22.25,28.14,24.84.81.13,1.38.9,1.25,1.71-1.93,13.72-8.38,24.11-19.36,31.22M229.35,248.64c-15.89,9.06-23.24,9.85-38.51,0-.53-.35-1.16-.48-1.79-.42-3.3.35-5.21.96-5.75,1.86-.42.66-.55,1.44-.39,2.21,1.55,7.94,6.04,13.35,13.46,16.19,16.24,6.21,32.95,2.87,39.95-14.11.5-1.23-.15-2.63-1.42-3.02-1.95-.61-3.26-1.4-3.96-2.39-.37-.48-1.03-.63-1.58-.33h0Z"/>
    <path class="cls-36" d="M183.36,217.42c0,13.92-11.29,25.21-25.21,25.21s-25.21-11.29-25.21-25.21,11.29-25.21,25.21-25.21,25.21,11.29,25.21,25.21M176.18,218.38c0-7.48-6.06-13.54-13.54-13.54s-13.54,6.06-13.54,13.54,6.06,13.54,13.54,13.54,13.54-6.06,13.54-13.54h0Z"/>
    <path class="cls-36" d="M285.61,217.53c0,13.96-11.31,25.27-25.27,25.27s-25.27-11.31-25.27-25.27,11.31-25.27,25.27-25.27,25.27,11.31,25.27,25.27M269.26,218.32c0-7.48-6.08-13.57-13.57-13.57s-13.57,6.08-13.57,13.57,6.08,13.57,13.57,13.57,13.57-6.08,13.57-13.57h0Z"/>
    <path class="cls-34" d="M176.18,218.38c0,7.48-6.06,13.54-13.54,13.54s-13.54-6.06-13.54-13.54,6.06-13.54,13.54-13.54,13.54,6.06,13.54,13.54h0Z"/>
    <path class="cls-34" d="M269.26,218.32c0,7.48-6.08,13.57-13.57,13.57s-13.57-6.08-13.57-13.57,6.08-13.57,13.57-13.57,13.57,6.08,13.57,13.57h0Z"/>
    <path class="cls-37" d="M104.22,207.16c8.31,2.16,12.81,12.51,10.06,23.11-2.76,10.59-11.73,17.43-20.05,15.26-8.31-2.16-12.81-12.51-10.06-23.11,2.76-10.59,11.73-17.43,20.05-15.26h0Z"/>
    <path class="cls-37" d="M313.69,207.57c8.26-2.34,17.36,4.27,20.34,14.76,2.97,10.49-1.34,20.89-9.6,23.23-8.26,2.34-17.37-4.26-20.34-14.76-2.97-10.49,1.34-20.89,9.6-23.23h0Z"/>
    <path class="cls-43" d="M230.93,248.97c.7.98,2.01,1.77,3.96,2.39,1.27.39,1.93,1.79,1.42,3.02-7,16.98-23.72,20.33-39.95,14.11-7.42-2.84-11.9-8.25-13.46-16.19-.15-.77-.02-1.55.39-2.21.55-.9,2.45-1.51,5.75-1.86.63-.07,1.27.07,1.79.42,15.27,9.85,22.63,9.06,38.51,0,.55-.31,1.2-.15,1.58.33M186.07,252.73c-.5,1.62-.15,3.39.94,4.7,12.69,15.1,35.56,13.3,46.52-1.55,1.01-1.36.61-3.28-.83-4.16l-.13-.07c-1.55-.94-3.59-.59-4.75.83-8.23,10-18.36,12.17-30.39,6.54-.28-.15-.57-.33-.81-.55l-7.75-6.87c-.92-.81-2.39-.37-2.71.81l-.09.31h0Z"/>
    <path class="cls-35" d="M186.07,252.73l.09-.31c.33-1.18,1.79-1.62,2.71-.81l7.75,6.87c.24.22.53.39.81.55,12.03,5.62,22.17,3.46,30.39-6.54,1.16-1.42,3.19-1.77,4.75-.83l.13.07c1.44.88,1.84,2.8.83,4.16-10.96,14.86-33.83,16.65-46.52,1.55-1.09-1.31-1.44-3.09-.94-4.7h0Z"/>
    <path class="cls-37" d="M119.23,266.85c12.62-.15,22.99,10.65,23.16,24.16.15,13.5-9.93,24.57-22.57,24.72-12.62.15-22.99-10.65-23.16-24.16-.15-13.5,9.93-24.57,22.57-24.72h0Z"/>
    <path class="cls-43" d="M297.67,266.77c12.59-.67,23.38,9.75,24.09,23.26.71,13.51-8.94,24.98-21.53,25.65-12.59.67-23.38-9.75-24.09-23.26-.71-13.51,8.94-24.98,21.53-25.65M307.8,275.99c-1.05-1.4-2.78-2.14-4.53-1.97-10.94,1.09-20.87,6.94-19.28,19.26,1.49,11.47,11.07,15.1,21.47,16.67.9.13,1.82-.24,2.36-.96,8.34-11.03,8.34-22.03-.02-33h0Z"/>
    <path class="cls-47" d="M171.74,285.53c-7.88,21.86-26.45,37.94-40.02,51.31-9.26,9.1-18.25,9.08-26.94-.04-8.99-9.43-16.37-20.15-22.14-32.17-4.46-9.3-6.78-22.3-9.89-33.32,2.65,2.87,4.31,5.19,5.01,6.94,9.93,24.7,32.95,50.39,62.21,36.04,12.54-6.13,22.28-17.96,31.77-28.75h0Z"/>
    <path class="cls-44" d="M72.75,271.31c3.11,11.03,5.43,24.03,9.89,33.32,5.78,12.01,13.15,22.73,22.14,32.17,8.69,9.12,17.68,9.15,26.94.04,13.57-13.37,32.14-29.45,40.02-51.31l1.05-3.83,3.65,1.73c1.49,1.58,1.18,3.89-.9,6.96-1.2,1.77-1.82,2.67-1.84,2.71-10.96,17.59-22.25,32.36-33.83,44.33-6.15,6.32-12.14,10.87-18.03,13.68-7.31,3.48-18.21-7.94-22.95-13.41-16.65-19.23-25.91-41.68-27.79-67.35l1.64.96h0Z"/>
    <path class="cls-44" d="M346.96,270.76c-2.25,28.16-17.53,67.15-44.57,80.7-.66.33-1.4.5-2.12.48-6.52-.22-16.26-8.75-20.61-13.37-16.04-17.07-28.71-34.33-38.03-51.79-.85-1.6-.57-2.82.85-3.63l5.12-3.28,1.31,5.47c1.25,5.58,2.71,9.72,4.4,12.41,6.45,10.22,16,22.14,28.62,35.78,9.82,10.61,21.86,11.16,31.77,1.64.94-.9,3.09-3.48,6.43-7.79,12.3-15.75,19.52-32.78,21.66-51.05l5.16-5.56h0Z"/>
    <path class="cls-37" d="M307.8,275.99c8.36,10.96,8.36,21.97.02,33-.55.72-1.47,1.09-2.36.96-10.39-1.58-19.98-5.21-21.47-16.67-1.6-12.32,8.34-18.16,19.28-19.26,1.75-.18,3.48.57,4.53,1.97h0Z"/>
    <path class="cls-47" d="M341.8,276.32c-2.14,18.27-9.37,35.29-21.66,51.05-3.35,4.31-5.49,6.89-6.43,7.79-9.91,9.52-21.95,8.97-31.77-1.64-12.63-13.63-22.17-25.56-28.62-35.78-1.68-2.69-3.15-6.83-4.4-12.41,13.72,18.64,37.59,45.34,63.04,28.84,12.65-8.21,22.6-20.83,29.85-37.85h0Z"/>
    <path class="cls-34" d="M238.59,312.49l-7.61-13.26c-.57-.98-1.77-1.44-2.87-1.12-12.54,3.81-25.05,3.92-37.59.33-1.03-.31-2.12.2-2.58,1.18-1.9,4.14-3.06,8.62-3.46,13.43l-11.9-2.95c-.61-.15-.92-.85-.59-1.4l11.09-19.23c.46-.77,1.4-1.12,2.23-.83,16.08,5.51,32.27,5.43,48.6-.28.79-.28,1.68.04,2.12.79l11.2,19.41c.37.63.04,1.47-.68,1.68l-7.96,2.25h0Z"/>
    <path class="cls-37" d="M238.59,312.49c-18.16,5.97-36.19,6.15-54.11.57.39-4.81,1.55-9.3,3.46-13.43.46-.98,1.55-1.49,2.58-1.18,12.54,3.59,25.05,3.48,37.59-.33,1.09-.33,2.3.13,2.87,1.12l7.61,13.26h0Z"/>
    <path class="cls-34" d="M181,318.22c-9.52,5.27-13.92,12.28-13.19,21.01l-13.11-4.68c-.55-.2-.77-.88-.44-1.36l12.41-18.49c.66-.96,1.9-1.36,3-.94l11.33,4.46h0Z"/>
    <path class="cls-34" d="M255.26,337.5l-14.53-19.69,8.16-3.5c.9-.39,1.95-.13,2.54.63l13.43,17.09c.37.46.28,1.14-.2,1.47-2.87,2.08-6,3.41-9.41,4h0Z"/>
    <path class="cls-37" d="M240.73,317.81l14.53,19.69c-29.23,11.84-58.38,12.41-87.46,1.73-.72-8.73,3.68-15.73,13.19-21.01,19.47,5.43,39.39,5.3,59.74-.42h0Z"/>
    <path class="cls-34" d="M267.4,353.82l-9.34-12.1,9.41-4.97c.74-.39,1.66-.24,2.25.35l8.27,8.27c.55.55.44,1.44-.2,1.84l-10.39,6.61h0Z"/>
    <path class="cls-34" d="M163.75,343.04c-4.73,3.28-8.25,7.55-10.57,12.8l-11.55-7.57c-1.07-.7-1.25-2.23-.33-3.13l6.78-6.78c1.01-1.01,2.54-1.29,3.85-.7l11.82,5.38h0Z"/>
    <path class="cls-37" d="M258.06,341.72l9.34,12.1c-11.73,7.92-22.8,11.14-36.5,13.68-6.87,1.29-13.11,1.99-18.69,2.1-20.79.46-40.46-4.14-59.04-13.76,2.32-5.25,5.84-9.52,10.57-12.8,21.68,9.1,44.16,11.55,67.37,7.33,5.62-1.03,14.62-3.89,26.94-8.64h0Z"/>
  </g>
</svg>