<?xml version="1.0" encoding="UTF-8"?>
<svg id="Camada_1" data-name="Camada 1" xmlns="http://www.w3.org/2000/svg" xmlns:xlink="http://www.w3.org/1999/xlink" viewBox="0 0 422.07 422.07">
  <defs>
    <style>
      .cls-1 {
        stroke: #636f2c;
      }

      .cls-1, .cls-2, .cls-3, .cls-4, .cls-5, .cls-6, .cls-7, .cls-8, .cls-9, .cls-10, .cls-11, .cls-12, .cls-13, .cls-14, .cls-15, .cls-16, .cls-17, .cls-18, .cls-19, .cls-20, .cls-21, .cls-22, .cls-23, .cls-24, .cls-25, .cls-26, .cls-27, .cls-28, .cls-29, .cls-30, .cls-31, .cls-32, .cls-33 {
        fill: none;
        stroke-miterlimit: 10;
      }

      .cls-2 {
        stroke: #5b6f63;
      }

      .cls-34 {
        fill: #020304;
      }

      .cls-3 {
        stroke: #add05c;
      }

      .cls-4 {
        stroke: #598b31;
      }

      .cls-5 {
        stroke: #63a84c;
      }

      .cls-6 {
        stroke: #576a2b;
      }

      .cls-35 {
        fill: #2e580d;
      }

      .cls-36 {
        fill: #d7e263;
      }

      .cls-7 {
        stroke: #1b123a;
      }

      .cls-8 {
        stroke: #c1da5a;
      }

      .cls-9 {
        stroke: #49852f;
      }

      .cls-37 {
        fill: #63b250;
      }

      .cls-10 {
        stroke: #799a30;
      }

      .cls-11 {
        stroke: #313c3f;
      }

      .cls-12 {
        stroke: #182e09;
      }

      .cls-13 {
        stroke: #73b853;
      }

      .cls-14 {
        stroke: #335b2a;
      }

      .cls-15 {
        stroke: #43602d;
      }

      .cls-16 {
        stroke: #1b1043;
      }

      .cls-38 {
        fill: #abd151;
      }

      .cls-39 {
        fill: #fdf8b2;
      }

      .cls-40 {
        fill: #4c7c29;
      }

      .cls-17 {
        stroke: #5b6d6b;
      }

      .cls-41 {
        fill: #c3db53;
      }

      .cls-18 {
        stroke: #858072;
      }

      .cls-19 {
        stroke: #e0ea83;
      }

      .cls-42 {
        fill: #332070;
      }

      .cls-20 {
        stroke: #ccd173;
      }

      .cls-43 {
        fill: #ecd095;
      }

      .cls-21 {
        stroke: #689d3f;
      }

      .cls-22 {
        stroke: #6d952f;
      }

      .cls-23 {
        stroke: #d8d674;
      }

      .cls-24 {
        stroke: #4b6960;
      }

      .cls-25 {
        stroke: #a3cc54;
      }

      .cls-26 {
        stroke: #97c753;
      }

      .cls-27 {
        stroke: #839d38;
      }

      .cls-44 {
        fill: url(#Gradiente_sem_nome_10);
      }

      .cls-28 {
        stroke: #8d9451;
      }

      .cls-29 {
        stroke: #7b7e62;
      }

      .cls-45 {
        fill: #83bd55;
      }

      .cls-30 {
        stroke: #776a4d;
      }

      .cls-31 {
        stroke: #6d7334;
      }

      .cls-46 {
        fill: #439343;
      }

      .cls-32 {
        stroke: #331f79;
      }

      .cls-33 {
        stroke: #234b24;
      }
    </style>
    <linearGradient id="Gradiente_sem_nome_10" data-name="Gradiente sem nome 10" x1="15.59" y1="49.92" x2="371.99" y2="343.72" gradientUnits="userSpaceOnUse">
      <stop offset="0" stop-color="#331d81"/>
      <stop offset="1" stop-color="#16085e"/>
    </linearGradient>
  </defs>
  <rect class="cls-44" x="-.57" width="423.22" height="422.07"/>
  <g>
    <path class="cls-32" d="M51.87,420.47c16.51,3.81,27.76,1.73,44.5-.41,3.86-.48,7.75-.3,11.56.51,12.27,2.72,21.08,4.37,26.41,4.9,25.6,2.67,62.12,1.85,96.84,4.01,10.18.64,25.27-.51,45.26-3.38,9.85-1.42,18.72-3.53,26.62-6.3"/>
    <path class="cls-16" d="M303.06,419.81c6.5-12.67,12.55-26.82,18.13-42.44,2.9-8.05,5.03-16.36,6.4-24.86.23-1.37.61-2.36,1.17-2.97.99-1.04,2.72-.38,2.77,1.04l.53,14.25c.03.38-.05.79-.2,1.14-.94,2.39-2.54,4.44-4.75,6.2-3.58,2.84-5.08,6.91-1.04,9.8.63.46,1.42.71,2.24.71h3.89c1.17,0,1.9,1.27,1.32,2.29l-11.61,20.14c-1.57,2.72.38,6.12,3.53,6.12h8.3c1.09,0,1.98.86,2.01,1.93l.08,3.43c.03.81.41,1.6,1.04,2.13,1.7,1.45,3.68,1.57,5.99.43"/>
    <line class="cls-17" x1="342.85" y1="419.15" x2="361.17" y2="418.92"/>
    <line class="cls-18" x1="361.17" y1="418.92" x2="365.23" y2="418.84"/>
    <path class="cls-16" d="M365.23,418.84c.99,2.31,3.2,2.26,6.6-.13.66-.46,1.12-1.17,1.27-1.96,7.24-42.26,1.88-88.64-20.93-125.69"/>
    <path class="cls-32" d="M352.17,291.07c-7.37-20.04-22.27-19.4-36.67-6.73-19.76,17.4-29.16,37.36-37.26,61.82-.15.51-.66.84-1.19.81-.23-.03-.53.08-.97.3-.63.36-1.42-.1-1.45-.84-.74-20.75-.56-33.3.53-37.59,1.88-7.44,3.3-11.89,4.27-13.31,5.87-8.53,10.84-17.5,14.98-26.9"/>
    <path class="cls-16" d="M294.42,268.64l5.26-8c.53-.81,1.24-1.52,2.08-2.06,8.25-5.33,14.22-9.65,17.96-12.93,22.48-19.73,39.7-59.1,20.11-86.86-9.47-13.44-22.81-20.34-40.03-20.72-5.13-.13-12.57,1.55-17.75,1.6-.25,0-.51-.03-.76-.08l-26.08-6.7c-1.42-.36-2.26-1.83-1.83-3.25,8.2-27.71,23.72-50.41,46.53-68.14,4.5-3.48,5.21-9.17-.25-12.93-.71-.48-1.6-.71-2.46-.58-3.96.56-7.34,1.65-10.13,3.3-19.66,11.61-34.87,28.52-45.64,50.77-3.23,6.68-6.58,15.11-10.08,25.3-.38,1.12-1.42,1.85-2.59,1.85h-36.8c-1.02,0-1.9-.66-2.18-1.65-8.74-31.26-31.34-66.03-62.25-78.81-5.36-2.24-10.57,2.21-9.17,7.77.41,1.55,1.96,3.45,4.65,5.66,22.3,18.36,37.72,41.7,46.25,70.05.05.15-.03.28-.18.33l-28.9,7.62c-.76.2-1.57.2-2.34.03-31.29-7.47-62.68,7.24-63.9,42.67-.58,16.64,3.4,31.26,11.96,43.86,7.09,10.44,13.92,18.03,20.5,22.78,10.03,7.24,15.87,11.99,17.52,14.25,5.26,7.16,8.79,12.01,10.62,14.53,5.41,7.42,13.28,14.58,19.68,21.44.69.74,1.07,1.73.99,2.74-.48,7.9-1.07,17.47-1.75,28.72-.99,16.38.36,33.35.03,47.44-.03.76-1.09.91-1.35.2-3.63-9.93-8.71-22.88-15.24-38.88-5.36-13.21-12.22-23.49-21.18-38.35-5.26-8.71-13.54-16.64-24.84-23.75-.69-.41-1.45-.66-2.26-.74-5.77-.46-9.55.46-11.38,2.74-8.66,10.82-16.56,25.37-21.74,40.13-10.79,30.71-13.31,62.83-7.49,96.36.43,2.46,1.73,3.84,3.89,4.11"/>
    <path class="cls-7" d="M294.42,268.64l-26.77,30.83c-1.07,1.24-1.57,2.87-1.42,4.52,2.31,21.46,2.72,43.79,1.22,66.92-.05.79,0,1.57.13,2.36l.76,4.62c.18,1.17,1.83,1.3,2.18.15,10.44-33.91,26.64-70,51.61-94.86,6.53-6.5,13.64-7.72,21.36-3.63.56.3,1.07.74,1.42,1.27l7.26,10.24"/>
    <path class="cls-31" d="M365.23,418.84c5.26-27.53,4.6-54.99-1.96-82.34-3.91-16.33-10.49-31.57-19.71-45.74"/>
    <line class="cls-12" x1="343.56" y1="290.76" x2="339.37" y2="284.69"/>
    <path class="cls-15" d="M339.37,284.69c-6.17-1.19-12.19,1.78-18.06,8.91-18.49,22.48-28.83,44.83-40.2,73.75-6.37,16.23-11.58,33.07-15.59,50.57"/>
    <path class="cls-7" d="M265.52,417.93c-.28.43-.99.71-2.08.89-.79.13-1.35-.18-1.65-.91"/>
    <line class="cls-15" x1="261.78" y1="417.9" x2="260.77" y2="368.58"/>
    <path class="cls-12" d="M260.77,368.58c.94-2.36.97-5.51.08-9.4"/>
    <path class="cls-15" d="M260.84,359.18c1.52-12.7,1.37-25.91-.48-39.6"/>
    <path class="cls-33" d="M260.36,319.59c.84-2.51.84-6.32,0-11.4-.1-.61-.84-.91-1.32-.51l-11.58,9.09c-.84.66-1.24,1.73-1.04,2.79,2.92,15.09-3,26.16-17.78,33.19-3.53,1.68-6.78,2.39-9.75,2.11-2.06-.18-3.5-2.13-3.05-4.17l3.17-14.35c.18-.74-.61-1.32-1.27-.97-4.19,2.26-9.19,2.34-14.96.2-.56-.2-1.12.3-.97.86l3.78,14.3c.46,1.78-.79,3.5-2.62,3.63-4.22.28-7.82-.46-10.82-2.24-12.47-7.34-18.01-18.31-16.64-32.86.08-.81-.28-1.63-.97-2.11l-9.47-6.73"/>
    <path class="cls-15" d="M165.09,310.44c-.46-1.12-1.14-1.78-2.03-1.98-.76-.18-1.52.36-1.6,1.14-1.68,18.06-1.63,35,.15,50.82"/>
    <path class="cls-12" d="M161.62,360.43c-1.6,8.05-1.65,11.35-.1,9.91"/>
    <line class="cls-15" x1="161.51" y1="370.33" x2="160.04" y2="418.66"/>
    <path class="cls-7" d="M160.04,418.66c-2.03.43-3.15.28-3.38-.43"/>
    <path class="cls-15" d="M156.66,418.23c-4.55-19.94-10.64-39.24-18.31-57.88-11.35-27.61-22.86-50.62-42.82-70.94-3.43-3.5-10.44-8.61-14.22-3.94"/>
    <path class="cls-12" d="M81.31,285.48c-1.78,1.5-3,3.3-3.68,5.44"/>
    <path class="cls-1" d="M77.63,290.91c-9.32,13.84-15.98,29.28-20.01,46.35-6.53,27.63-7.19,55.04-2.03,82.24"/>
    <path class="cls-7" d="M55.58,419.5c.25.58-.99.89-3.71.97"/>
    <path class="cls-5" d="M260.36,319.59c-1.93,4.9-2.84,10.18-2.77,15.85.03.76-.15,1.52-.48,2.21-6.73,13.74-16.76,23.72-30.1,29.94-15.62,7.29-32.51,1.5-45.69-8.03-6.78-4.9-11.84-12.17-15.19-21.74-.18-.51-.25-1.04-.28-1.57l-.76-25.8"/>
    <line class="cls-4" x1="339.37" y1="284.69" x2="326.32" y2="301.12"/>
    <path class="cls-13" d="M326.32,301.12c-13.89,20.5-26.06,45.18-36.5,74.06-6.2,17.19-9.91,31.72-11.15,43.58"/>
    <path class="cls-2" d="M278.67,418.77c-5,.84-9.4.56-13.16-.84"/>
    <line class="cls-9" x1="97.59" y1="316.89" x2="94.03" y2="335.87"/>
    <path class="cls-12" d="M94.03,335.87l-.79-1.37c-.41-.71-1.35-.94-2.06-.48-.74.51-1.47,1.24-2.16,2.24"/>
    <line class="cls-9" x1="89.03" y1="336.25" x2="88.83" y2="330.25"/>
    <path class="cls-4" d="M88.83,330.25c2.77-10.44,2.67-20.27-.3-29.44-1.17-3.63-3.43-6.55-6.81-8.71"/>
    <path class="cls-10" d="M81.71,292.11c-1.65-1.02-3-1.42-4.09-1.19"/>
    <path class="cls-2" d="M156.66,418.23c-3.94,1.04-8.84,1.27-14.68.74"/>
    <path class="cls-13" d="M141.98,418.97c-3.45-7.92-6.15-16.46-8.08-25.6-.38-1.93-.97-3.81-1.73-5.61-4.5-10.67-8.91-21.38-13.26-32.15-5.21-12.83-13.89-26.03-21.33-38.71"/>
    <path class="cls-4" d="M97.59,316.89c.18-9.75-2.54-18.36-8.2-25.85-.48-.63-1.14-1.14-1.9-1.4-2.95-1.09-5-2.46-6.17-4.17"/>
    <path class="cls-3" d="M361.17,418.92c.63-9.93,2.16-20.5,2.01-29.51-.28-16.86-2.49-33.42-6.58-49.7-3.43-13.61-12.85-30.3-18.41-45.74"/>
    <path class="cls-4" d="M260.77,368.58l-15.31,16.53c-.86.94-1.32,2.21-1.22,3.5l2.39,30.38"/>
    <path class="cls-9" d="M240.25,418.99l-1.35-26.9c-.03-.53-.61-.84-1.07-.56-20.6,13.03-34.46,13.18-54.81-.23-.48-.3-1.12.03-1.14.61l-.84,27.07"/>
    <path class="cls-4" d="M175.3,418.87l1.4-30.38c.05-1.17-.38-2.31-1.17-3.15l-14.02-15.01"/>
    <path class="cls-25" d="M81.71,292.11c-4.27,13.79-8.89,27.35-13.87,40.71-6.2,16.56-9.55,37.64-10.06,63.21-.13,6.37,1.14,14.1,3.86,23.16"/>
    <line class="cls-29" x1="61.65" y1="419.2" x2="55.58" y2="419.5"/>
    <path class="cls-4" d="M260.84,359.18c-6.93,11.66-17.4,21.61-31.34,29.92-10.59,6.27-20.67,7.67-30.25,4.14-6.27-2.31-13.38-6.81-21.28-13.54-6.07-5.16-11.53-11.58-16.36-19.28"/>
    <line class="cls-2" x1="160.04" y1="418.66" x2="175.3" y2="418.87"/>
    <path class="cls-11" d="M175.3,418.87c2.54.63,4.44.69,5.74.13"/>
    <path class="cls-2" d="M246.62,418.99c4.95.03,9.7-.03,14.27-.15.48-.03.79-.33.89-.94"/>
    <path class="cls-27" d="M343.56,290.76c-1.85.38-3.66,1.45-5.38,3.2"/>
    <path class="cls-4" d="M338.18,293.96c-8.61,9.5-7.75,22.91-6.07,34.97"/>
    <path class="cls-12" d="M332.11,328.93c-1.78-1.7-3.15.28-4.09,5.97"/>
    <path class="cls-9" d="M328.02,334.9c-.38-3.63-1.19-7.21-2.44-10.77-1.17-3.33-.91-11,.74-23.01"/>
    <path class="cls-14" d="M328.02,334.9c-1.96,4.09-3.56,8.28-4.8,12.57-7.04,24.28-15.75,48.03-26.13,71.24"/>
    <line class="cls-24" x1="297.09" y1="418.71" x2="278.67" y2="418.77"/>
    <path class="cls-14" d="M89.03,336.25c-3.33,7.85-5.46,16.05-6.4,24.61-.18,1.47.56,5.49,2.16,12.06.23.91-.33,1.85-1.24,2.08l-1.19.33c-1.09.28-1.9,1.17-2.13,2.26-1.9,10.21,5.18,17.6,9.93,25.27.38.63.08,1.42-.63,1.63-2.84.76-9.98-.28-10.51,4.67"/>
    <line class="cls-24" x1="141.98" y1="418.97" x2="125.53" y2="418.77"/>
    <path class="cls-14" d="M125.53,418.77c-13.41-27-20.17-48.99-31.49-82.9"/>
    <path class="cls-13" d="M88.83,330.25c-10.34,22.53-18.36,54.78-9.83,78.91"/>
    <line class="cls-15" x1="79" y1="409.16" x2="79.02" y2="415.92"/>
    <path class="cls-2" d="M79.02,415.92c.18,1.52-.13,2.54-.89,3.02-.13.08-.25.13-.38.13l-16.1.13"/>
    <path class="cls-7" d="M125.53,418.77c-2.21,1.57-4.34,1.78-6.45.61-.66-.36-1.19-.86-1.57-1.52-4.47-7.9-8.38-16.91-11.71-27.02-8.46-25.73-12.8-38.99-13.03-39.77-.13-.41-.41-.81-.86-1.24-.71-.64-1.83-.18-1.9.76l-1.4,16.15c-.1,1.32.53,2.59,1.68,3.3,1.35.84,3.43,2.69,6.2,5.54,2.08,2.13,1.68,5.54-.74,6.22-1.55.43-3.12.03-4.72-1.24-1.78-1.4-4.32.28-3.71,2.46,2.26,8.1,6.15,15.44,11.66,22.05,1.93,2.31.33,5.87-2.69,5.94l-9.17.25c-1.42.03-2.46,1.32-2.24,2.72.63,3.78-.56,5.92-3.58,6.4-.79.13-1.57-.36-1.8-1.12-.33-1.02-.48-2.13-.46-3.33"/>
    <line class="cls-15" x1="342.85" y1="419.15" x2="342.55" y2="406.78"/>
    <path class="cls-5" d="M342.55,406.78c1.8-17.65.43-35.51-4.14-53.61"/>
    <line class="cls-15" x1="338.41" y1="353.16" x2="332.11" y2="328.93"/>
    <path class="cls-33" d="M338.41,353.16c.58,6.48-.23,12.85-2.46,19.12-.2.63.3,1.24.97,1.17,2.51-.33,3.99.99,4.37,4.01,1.09,8.76-5.74,18.36-10.26,25.73-.38.63.1,1.45.84,1.4,4.39-.25,7.95.48,10.69,2.18"/>
    <path class="cls-7" d="M303.06,419.81c-3.73.05-5.71-.3-5.97-1.09"/>
    <line class="cls-12" x1="235.32" y1="139.42" x2="231.08" y2="138.7"/>
    <path class="cls-30" d="M231.08,138.7c-.2-.48-.46-.89-.74-1.17-.25-.25-.66-.41-1.22-.48-12.06-1.3-24.23-1.55-36.45-.76-.74.05-1.24.74-1.07,1.45l1.32,5.56"/>
    <line class="cls-6" x1="192.93" y1="143.3" x2="191.94" y2="152.04"/>
    <path class="cls-12" d="M191.94,152.04c-1.6-.33-2.67-2.24-3.2-5.69"/>
    <path class="cls-15" d="M188.74,146.35c-6.12-29.92-19.1-54.94-38.93-75.05-4.62-4.7-11.99-10.11-22.12-16.28-.53-.33-1.24-.18-1.6.36l-.03.05c-.36.53-.23,1.24.28,1.63,28.67,22.05,45.79,51.1,51.35,87.14"/>
    <path class="cls-12" d="M177.69,144.19c-.76.79-1.78,1.24-3.07,1.4"/>
    <path class="cls-6" d="M174.62,145.59c-.25-.03-.51-.08-.79-.1"/>
    <path class="cls-30" d="M173.83,145.49c.23-2.11-.18-3.89-1.19-5.33-.46-.66-1.27-.97-2.06-.76l-24.99,6.6c-.71.2-.81,1.17-.15,1.5l.89.43"/>
    <path class="cls-12" d="M146.33,147.92c-.89,1.35-1.88,2.24-3,2.67"/>
    <path class="cls-30" d="M143.33,150.59c-16.61-10.95-38.99-7.16-52.17,7.77"/>
    <path class="cls-1" d="M91.16,158.36c-11.91,13.05-12.34,31.39-7.52,47.57"/>
    <path class="cls-15" d="M83.64,205.93c7.44,22.96,22.27,39.09,44.47,48.36"/>
    <line class="cls-12" x1="128.12" y1="254.29" x2="129.36" y2="259.42"/>
    <path class="cls-14" d="M129.36,259.42c18.85,26.74,41.42,48.92,67.76,66.57,8.13,5.43,16.25,7.97,24.41,2.39,26.39-18.06,51.23-40.33,69.92-67.96"/>
    <line class="cls-12" x1="291.45" y1="260.41" x2="292.19" y2="254.77"/>
    <path class="cls-15" d="M292.19,254.77c22.15-9.27,37.44-25.17,45.87-47.7"/>
    <path class="cls-1" d="M338.05,207.08c3.43-11.63,3.89-22.76,1.37-33.4"/>
    <path class="cls-30" d="M339.42,173.68c-7.34-25.27-34.13-34.85-57.42-25.3"/>
    <path class="cls-12" d="M282,148.38c-2.16.28-3.99-.43-5.44-2.13"/>
    <path class="cls-31" d="M276.57,146.25l-25.93-6.27c-.79-.2-1.6.18-1.98.91-.43.89-.66,2.08-.66,3.53"/>
    <line class="cls-6" x1="247.99" y1="144.42" x2="247.41" y2="145.43"/>
    <path class="cls-12" d="M247.41,145.43c-1.57-1.02-2.64-2.46-3.23-4.37"/>
    <path class="cls-15" d="M244.18,141.07c6.48-35.05,23.85-64.41,52.47-85.49.23-.18.25-.48.08-.71l-.43-.56c-.25-.33-.71-.41-1.07-.2-32.79,17.85-52.07,49.53-59.91,85.31"/>
    <path class="cls-4" d="M244.18,141.07l-2.06,8.18c-.48,1.96-2.31,3.25-4.32,3.1-2.01-.15-3.61-1.73-3.78-3.73-.23-2.39.2-5.46,1.3-9.19"/>
    <path class="cls-22" d="M247.41,145.43c0,5.18-1.4,8.61-4.19,10.31-4.39,2.67-8.46,2.16-12.19-1.57-.76-.74-1.19-1.73-1.22-2.77l-.23-7.14M269.78,151.73c-.53,1.22-1.35,2.36-2.44,3.45"/>
    <path class="cls-26" d="M267.35,155.19c-3.07-1.07-5.97-1.14-8.66-.23-.61.2-1.14.56-1.55,1.02-4.95,5.61-11.05,8.74-18.34,9.37-.86.08-1.75-.15-2.51-.61-4.57-2.79-8.64-3.76-12.22-2.9-3.66.86-6.6.94-8.84.2-1.32-.43-4.8-.33-10.44.28-2.34.25-3.89,2.57-3.23,4.83l.33,1.04c.97,3.3,4.06,5.54,7.52,5.44,3-.1,5.26-.48,6.81-1.14.76-.36,1.37-.94,1.73-1.7l2.11-4.5c.51-1.07,1.9-1.4,2.82-.63,3.66,2.97,7.75,3.43,12.29,1.42,1.57-.69,3.12,1.04,2.24,2.51-2.39,4.04-5.79,5.84-10.21,5.41-3.35-.3-6.17,1.22-8.43,4.57-4.34,6.37-9.3,7.57-14.88,3.58-1.88-1.35-3.53-3.94-5.05-5.46-.71-.71-1.63-1.12-2.62-1.19-4.29-.3-8.38-1.5-12.27-3.58-1.88-1.02-1.6-3.81.46-4.42l12.75-3.76c.76-.23.84-1.27.13-1.6l-2.01-.94c-.53-.25-1.17-.3-1.75-.15l-13.59,4.04c-1.09.33-2.29.18-3.3-.41-6.15-3.48-12.42-5.84-18.82-7.06"/>
    <path class="cls-22" d="M157.81,158.62l-6.1-6.65M174.62,145.59c.18,3.05,1.02,5.84,2.49,8.36.41.74,1.04,1.3,1.8,1.6,5.59,2.29,9.93,1.12,13.03-3.5"/>
    <path class="cls-28" d="M231.08,138.7c-.81.69-1.32,2.54-1.5,5.56"/>
    <line class="cls-20" x1="229.58" y1="144.27" x2="192.93" y2="143.3"/>
    <path class="cls-4" d="M157.81,158.62c9.35,16.03,14.2,33.88,14.53,53.61.41,22.91-7.04,38.68-22.32,47.34"/>
    <path class="cls-9" d="M150.01,259.57c-6.78,1.32-13.66,1.27-20.65-.15"/>
    <path class="cls-4" d="M128.12,254.29c25.68,5.99,38.43-13.56,38.53-36.7"/>
    <path class="cls-10" d="M166.64,217.59c1.5-23.65-4.72-44.19-18.67-61.69M272.98,157.78c-14.4,16.94-20.34,38.68-17.83,65.25"/>
    <path class="cls-4" d="M255.16,223.02c1.52,21.18,14.02,35.76,37.03,31.75"/>
    <line class="cls-9" x1="291.45" y1="260.41" x2="273.49" y2="260.72"/>
    <path class="cls-4" d="M273.49,260.72c-14.96-8.15-22.98-22.63-24.03-43.43-.97-19.07,2.82-36.04,11.38-50.9,2.18-3.78,4.34-7.52,6.5-11.2"/>
    <path class="cls-27" d="M276.57,146.25c-1.78,2.34-4.04,4.17-6.78,5.49"/>
    <path class="cls-8" d="M269.78,151.73c-8.31-.18-15.57-2.62-21.79-7.31"/>
    <path class="cls-13" d="M273.49,260.72c-5.23,8.31-11.99,13.99-20.24,17.04"/>
    <path class="cls-4" d="M253.25,277.76c-10.11-15.52-25.78-22.53-46.99-21.05-6.63.46-13.44,2.11-20.39,4.93-8.46,3.43-14.22,8.91-17.32,16.46"/>
    <path class="cls-13" d="M168.55,278.09c-3.45.15-6.55-1.09-9.32-3.76-4.9-4.7-7.97-9.6-9.22-14.76"/>
    <line class="cls-20" x1="173.83" y1="145.49" x2="151.71" y2="151.96"/>
    <path class="cls-28" d="M151.71,151.96c-1.6-1.9-3.4-3.25-5.38-4.04"/>
    <path class="cls-25" d="M166.64,217.59c-11.23,14.35-22.1,23.29-40.79,19.2-19.94-4.37-28.78-17.37-42.21-30.86"/>
    <line class="cls-28" x1="143.33" y1="150.59" x2="147.98" y2="155.9"/>
    <path class="cls-23" d="M147.98,155.9c-15.98-2.26-26.13-3-30.5-2.18-10.29,1.9-18.06,6.76-23.32,14.55-.86,1.3-2.21,2.18-3.73,2.49l-1.75.33c-1.45.28-2.64-1.19-2.03-2.54l4.52-10.18"/>
    <path class="cls-13" d="M178.33,299.09c3.02,3.28,5.89,6.6,8.64,10.01,6.27,7.72,14.43,11.61,24.46,11.66,5.51.03,10.46-1.55,14.88-4.72,4.52-3.23,8.99-6.58,13.38-10.08"/>
    <path class="cls-25" d="M338.05,207.08c-3.53-.99-5.54-.18-6.07,2.39-.08.38-.23.74-.46,1.07-17.5,25.42-56.08,43.96-75.48,8.38-.25-.46-.94-.36-1.07.15-.28,1.27-.2,2.59.18,3.96"/>
    <path class="cls-23" d="M339.42,173.68c.03.84-.03,1.35-.18,1.5-1.14,1.24-3.17.94-3.91-.61-3.48-7.44-11-10.97-18.77-15.95-2.39-1.52-4.93-2.74-7.64-3.68-3.63-1.27-6.37-1.9-8.25-1.9-5.46-.03-14.71,1.55-27.68,4.75"/>
    <line class="cls-28" x1="272.98" y1="157.78" x2="282" y2="148.38"/>
    <path class="cls-4" d="M188.74,146.35c.28,3.53-1.96,5.03-6.73,4.5-.79-.1-1.47-.58-1.83-1.32l-2.49-5.33"/>
    <path class="cls-9" d="M253.25,277.76c-2.21,7.47-3.89,14.6-5.08,21.38-.89,4.95-2.95,9.17-6.17,12.65-.84.89-2.34.28-2.34-.94l.03-4.9"/>
    <path class="cls-4" d="M239.69,305.95c2.59-5.82,9.68-23.14,6.48-28.93-11.1-20.04-57.35-18.01-70.15-1.3-4.75,6.22-.94,16.81,2.31,23.37"/>
    <path class="cls-9" d="M178.33,299.09c-.84,3.23-.43,6.27,1.17,9.14.28.48.15,1.09-.28,1.42-.43.33-1.07.3-1.45-.08-2.13-2.11-3.71-4.32-4.72-6.65-.23-.53-.38-1.07-.48-1.65l-4.01-23.19"/>
    <path class="cls-31" d="M198.37,348.21c.56.23,1.12-.28.97-.86l-3.45-12.72c-.23-.86-.74-1.63-1.45-2.21l-11.12-8.86c-.84-.69-2.11-.18-2.24.89-1.37,11.4,7.75,19.81,17.3,23.77M223.54,348.41c9.52-3.89,18.67-12.19,17.37-23.54-.13-1.07-1.37-1.57-2.21-.91l-11.12,8.76c-.71.56-1.22,1.32-1.47,2.18l-3.5,12.65c-.18.56.38,1.09.94.86"/>
    <path class="cls-19" d="M288.58,169.05c-.05,5.11,5.69,9.33,12.86,9.4,7.17.08,13.04-3.99,13.09-9.09.05-5.11-5.69-9.33-12.86-9.4-7.17-.08-13.04,3.99-13.09,9.09"/>
    <path class="cls-10" d="M297.19,204.79c0-6.78-5.51-12.29-12.29-12.29s-12.29,5.51-12.29,12.29,5.51,12.29,12.29,12.29,12.29-5.51,12.29-12.29"/>
    <path class="cls-19" d="M132.79,167.97c-.3-4.91-6.45-8.49-13.74-8.04-7.29.47-12.93,4.81-12.62,9.7.3,4.91,6.45,8.49,13.74,8.04,7.29-.47,12.93-4.81,12.62-9.7"/>
    <path class="cls-10" d="M134.73,192.85c-6.39,1.01-10.68,7.29-9.62,13.96,1.07,6.68,7.12,11.28,13.5,10.26,6.39-1.01,10.68-7.29,9.62-13.96-1.07-6.68-7.12-11.28-13.5-10.26"/>
    <path class="cls-21" d="M234.15,234.18c-.07-1.51-2.54-2.65-5.54-2.52-2.99.12-5.38,1.45-5.32,2.96.07,1.51,2.54,2.65,5.54,2.52,2.99-.12,5.38-1.45,5.32-2.96M198.38,234.3c-.09-1.52-2.66-2.62-5.78-2.46-3.1.17-5.56,1.55-5.48,3.07.09,1.52,2.66,2.62,5.78,2.46,3.1-.17,5.56-1.55,5.48-3.07M199.57,245.91c-.14-1.93-2.78-3.36-5.91-3.15-3.14.22-5.58,1.95-5.44,3.9.14,1.93,2.78,3.36,5.91,3.15,3.14-.22,5.58-1.95,5.44-3.9M222.2,246.1c-.11,1.69,2.2,3.24,5.19,3.43,2.98.21,5.49-1.01,5.61-2.7.11-1.69-2.2-3.24-5.19-3.43-2.98-.21-5.49,1.01-5.61,2.7"/>
    <path class="cls-34" d="M294.42,268.64l-26.77,30.83c-1.07,1.24-1.57,2.87-1.42,4.52,2.31,21.46,2.72,43.79,1.22,66.92-.05.79,0,1.57.13,2.36l.76,4.62c.18,1.17,1.83,1.3,2.18.15,10.44-33.91,26.64-70,51.61-94.86,6.53-6.5,13.64-7.72,21.36-3.63.56.3,1.07.74,1.42,1.27l7.26,10.24c22.81,37.06,28.17,83.43,20.93,125.69-.15.79-.61,1.5-1.27,1.96-3.4,2.39-5.61,2.44-6.6.13,5.26-27.53,4.6-54.99-1.96-82.34-3.91-16.33-10.49-31.57-19.71-45.74l-4.19-6.07c-6.17-1.19-12.19,1.78-18.06,8.91-18.49,22.48-28.83,44.83-40.2,73.75-6.37,16.23-11.58,33.07-15.59,50.57-.28.43-.99.71-2.08.89-.79.13-1.35-.18-1.65-.91l-1.02-49.32c.94-2.36.97-5.51.08-9.4,1.52-12.7,1.37-25.91-.48-39.6.84-2.51.84-6.32,0-11.4-.1-.61-.84-.91-1.32-.51l-11.58,9.09c-.84.66-1.24,1.73-1.04,2.79,2.92,15.09-3,26.16-17.78,33.19-3.53,1.68-6.78,2.39-9.75,2.11-2.06-.18-3.5-2.13-3.05-4.17l3.17-14.35c.18-.74-.61-1.32-1.27-.97-4.19,2.26-9.19,2.34-14.96.2-.56-.2-1.12.3-.97.86l3.78,14.3c.46,1.78-.79,3.5-2.62,3.63-4.22.28-7.82-.46-10.82-2.24-12.47-7.34-18.01-18.31-16.64-32.86.08-.81-.28-1.63-.97-2.11l-9.47-6.73c-.46-1.12-1.14-1.78-2.03-1.98-.76-.18-1.52.36-1.6,1.14-1.68,18.06-1.63,35,.15,50.82-1.6,8.05-1.65,11.35-.1,9.91l-1.47,48.33c-2.03.43-3.15.28-3.38-.43-4.55-19.94-10.64-39.24-18.31-57.88-11.35-27.61-22.86-50.62-42.82-70.94-3.43-3.5-10.44-8.61-14.22-3.94-1.78,1.5-3,3.3-3.68,5.44-9.32,13.84-15.98,29.28-20.01,46.35-6.53,27.63-7.19,55.04-2.03,82.24.25.58-.99.89-3.71.97-2.16-.28-3.45-1.65-3.89-4.11-5.82-33.52-3.3-65.65,7.49-96.36,5.18-14.76,13.08-29.31,21.74-40.13,1.83-2.29,5.61-3.2,11.38-2.74.81.08,1.57.33,2.26.74,11.3,7.11,19.58,15.04,24.84,23.75,8.97,14.86,15.82,25.14,21.18,38.35,6.53,16,11.61,28.95,15.24,38.88.25.71,1.32.56,1.35-.2.33-14.1-1.02-31.06-.03-47.44.69-11.25,1.27-20.83,1.75-28.72.08-1.02-.3-2.01-.99-2.74-6.4-6.86-14.27-14.02-19.68-21.44-1.83-2.51-5.36-7.37-10.62-14.53-1.65-2.26-7.49-7.01-17.52-14.25-6.58-4.75-13.41-12.34-20.5-22.78-8.56-12.6-12.55-27.23-11.96-43.86,1.22-35.43,32.61-50.14,63.9-42.67.76.18,1.57.18,2.34-.03l28.9-7.62c.15-.05.23-.18.18-.33-8.53-28.34-23.95-51.68-46.25-70.05-2.69-2.21-4.24-4.11-4.65-5.66-1.4-5.56,3.81-10.01,9.17-7.77,30.91,12.77,53.51,47.54,62.25,78.81.28.99,1.17,1.65,2.18,1.65h36.8c1.17,0,2.21-.74,2.59-1.85,3.5-10.18,6.86-18.62,10.08-25.3,10.77-22.25,25.98-39.16,45.64-50.77,2.79-1.65,6.17-2.74,10.13-3.3.86-.13,1.75.1,2.46.58,5.46,3.76,4.75,9.45.25,12.93-22.81,17.73-38.33,40.43-46.53,68.14-.43,1.42.41,2.9,1.83,3.25l26.08,6.7c.25.05.51.08.76.08,5.18-.05,12.62-1.73,17.75-1.6,17.22.38,30.55,7.29,40.03,20.72,19.58,27.76,2.36,67.13-20.11,86.86-3.73,3.28-9.7,7.59-17.96,12.93-.84.53-1.55,1.24-2.08,2.06l-5.26,8M235.32,139.42l-4.24-.71c-.2-.48-.46-.89-.74-1.17-.25-.25-.66-.41-1.22-.48-12.06-1.3-24.23-1.55-36.45-.76-.74.05-1.24.74-1.07,1.45l1.32,5.56-.99,8.74c-1.6-.33-2.67-2.24-3.2-5.69-6.12-29.92-19.1-54.94-38.93-75.05-4.62-4.7-11.99-10.11-22.12-16.28-.53-.33-1.24-.18-1.6.36l-.03.05c-.36.53-.23,1.24.28,1.63,28.67,22.05,45.79,51.1,51.35,87.14-.76.79-1.78,1.24-3.07,1.4-.25-.03-.51-.08-.79-.1.23-2.11-.18-3.89-1.19-5.33-.46-.66-1.27-.97-2.06-.76l-24.99,6.6c-.71.2-.81,1.17-.15,1.5l.89.43c-.89,1.35-1.88,2.24-3,2.67-16.61-10.95-38.99-7.16-52.17,7.77-11.91,13.05-12.34,31.39-7.52,47.57,7.44,22.96,22.27,39.09,44.47,48.36l1.24,5.13c18.85,26.74,41.42,48.92,67.76,66.57,8.13,5.43,16.25,7.97,24.41,2.39,26.39-18.06,51.23-40.33,69.92-67.96l.74-5.64c22.15-9.27,37.44-25.17,45.87-47.7,3.43-11.63,3.89-22.76,1.37-33.4-7.34-25.27-34.13-34.85-57.42-25.3-2.16.28-3.99-.43-5.44-2.13l-25.93-6.27c-.79-.2-1.6.18-1.98.91-.43.89-.66,2.08-.66,3.53l-.58,1.02c-1.57-1.02-2.64-2.46-3.23-4.37,6.48-35.05,23.85-64.41,52.47-85.49.23-.18.25-.48.08-.71l-.43-.56c-.25-.33-.71-.41-1.07-.2-32.79,17.85-52.07,49.53-59.91,85.31M198.37,348.21c.56.23,1.12-.28.97-.86l-3.45-12.72c-.23-.86-.74-1.63-1.45-2.21l-11.12-8.86c-.84-.69-2.11-.18-2.24.89-1.37,11.4,7.75,19.81,17.3,23.77M223.54,348.41c9.52-3.89,18.67-12.19,17.37-23.54-.13-1.07-1.37-1.57-2.21-.91l-11.12,8.76c-.71.56-1.22,1.32-1.47,2.18l-3.5,12.65c-.18.56.38,1.09.94.86h0Z"/>
    <path class="cls-45" d="M244.18,141.07l-2.06,8.18c-.48,1.96-2.31,3.25-4.32,3.1-2.01-.15-3.61-1.73-3.78-3.73-.23-2.39.2-5.46,1.3-9.19,7.85-35.79,27.12-67.46,59.91-85.31.36-.2.81-.13,1.07.2l.43.56c.18.23.15.53-.08.71-28.62,21.08-46,50.44-52.47,85.49h0Z"/>
    <path class="cls-45" d="M188.74,146.35c.28,3.53-1.96,5.03-6.73,4.5-.79-.1-1.47-.58-1.83-1.32l-2.49-5.33c-5.56-36.04-22.68-65.09-51.35-87.14-.51-.38-.63-1.09-.28-1.63l.03-.05c.36-.53,1.07-.69,1.6-.36,10.13,6.17,17.5,11.58,22.12,16.28,19.84,20.11,32.81,45.13,38.93,75.05h0Z"/>
    <path class="cls-43" d="M231.08,138.7c-.81.69-1.32,2.54-1.5,5.56l-36.65-.97-1.32-5.56c-.18-.71.33-1.4,1.07-1.45,12.22-.79,24.38-.53,36.45.76.56.08.97.23,1.22.48.28.28.53.69.74,1.17h0Z"/>
    <path class="cls-35" d="M235.32,139.42c-1.09,3.73-1.52,6.81-1.3,9.19.18,2.01,1.78,3.58,3.78,3.73,2.01.15,3.83-1.14,4.32-3.1l2.06-8.18c.58,1.9,1.65,3.35,3.23,4.37,0,5.18-1.4,8.61-4.19,10.31-4.39,2.67-8.46,2.16-12.19-1.57-.76-.74-1.19-1.73-1.22-2.77l-.23-7.14c.18-3.02.69-4.88,1.5-5.56l4.24.71h0Z"/>
    <path class="cls-43" d="M173.83,145.49l-22.12,6.48c-1.6-1.9-3.4-3.25-5.38-4.04l-.89-.43c-.66-.33-.56-1.3.15-1.5l24.99-6.6c.79-.2,1.6.1,2.06.76,1.02,1.45,1.42,3.23,1.19,5.33h0Z"/>
    <path class="cls-36" d="M276.57,146.25c-1.78,2.34-4.04,4.17-6.78,5.49-8.31-.18-15.57-2.62-21.79-7.31,0-1.45.23-2.64.66-3.53.38-.74,1.19-1.12,1.98-.91l25.93,6.27h0Z"/>
    <path class="cls-38" d="M229.58,144.27l.23,7.14c.03,1.04.46,2.03,1.22,2.77,3.73,3.73,7.8,4.24,12.19,1.57,2.79-1.7,4.19-5.13,4.19-10.31l.58-1.02c6.22,4.7,13.49,7.14,21.79,7.31-.53,1.22-1.35,2.36-2.44,3.45-3.07-1.07-5.97-1.14-8.66-.23-.61.2-1.14.56-1.55,1.02-4.95,5.61-11.05,8.74-18.34,9.37-.86.08-1.75-.15-2.51-.61-4.57-2.79-8.64-3.76-12.22-2.9-3.66.86-6.6.94-8.84.2-1.32-.43-4.8-.33-10.44.28-2.34.25-3.89,2.57-3.23,4.83l.33,1.04c.97,3.3,4.06,5.54,7.52,5.44,3-.1,5.26-.48,6.81-1.14.76-.36,1.37-.94,1.73-1.7l2.11-4.5c.51-1.07,1.9-1.4,2.82-.63,3.66,2.97,7.75,3.43,12.29,1.42,1.57-.69,3.12,1.04,2.24,2.51-2.39,4.04-5.79,5.84-10.21,5.41-3.35-.3-6.17,1.22-8.43,4.57-4.34,6.37-9.3,7.57-14.88,3.58-1.88-1.35-3.53-3.94-5.05-5.46-.71-.71-1.63-1.12-2.62-1.19-4.29-.3-8.38-1.5-12.27-3.58-1.88-1.02-1.6-3.81.46-4.42l12.75-3.76c.76-.23.84-1.27.13-1.6l-2.01-.94c-.53-.25-1.17-.3-1.75-.15l-13.59,4.04c-1.09.33-2.29.18-3.3-.41-6.15-3.48-12.42-5.84-18.82-7.06l-6.1-6.65,22.12-6.48c.28.03.53.08.79.1.18,3.05,1.02,5.84,2.49,8.36.41.74,1.04,1.3,1.8,1.6,5.59,2.29,9.93,1.12,13.03-3.5l.99-8.74,36.65.97h0Z"/>
    <path class="cls-43" d="M143.33,150.59l4.65,5.31c-15.98-2.26-26.13-3-30.5-2.18-10.29,1.9-18.06,6.76-23.32,14.55-.86,1.3-2.21,2.18-3.73,2.49l-1.75.33c-1.45.28-2.64-1.19-2.03-2.54l4.52-10.18c13.18-14.93,35.56-18.72,52.17-7.77h0Z"/>
    <path class="cls-35" d="M188.74,146.35c.53,3.45,1.6,5.36,3.2,5.69-3.1,4.62-7.44,5.79-13.03,3.5-.76-.3-1.4-.86-1.8-1.6-1.47-2.51-2.31-5.31-2.49-8.36,1.3-.15,2.31-.61,3.07-1.4l2.49,5.33c.36.74,1.04,1.22,1.83,1.32,4.77.53,7.01-.97,6.73-4.5h0Z"/>
    <path class="cls-43" d="M339.42,173.68c.03.84-.03,1.35-.18,1.5-1.14,1.24-3.17.94-3.91-.61-3.48-7.44-11-10.97-18.77-15.95-2.39-1.52-4.93-2.74-7.64-3.68-3.63-1.27-6.37-1.9-8.25-1.9-5.46-.03-14.71,1.55-27.68,4.75l9.02-9.4c23.29-9.55,50.08.03,57.42,25.3h0Z"/>
    <path class="cls-35" d="M282,148.38l-9.02,9.4c-14.4,16.94-20.34,38.68-17.83,65.25,1.52,21.18,14.02,35.76,37.03,31.75l-.74,5.64-17.96.3c-14.96-8.15-22.98-22.63-24.03-43.43-.97-19.07,2.82-36.04,11.38-50.9,2.18-3.78,4.34-7.52,6.5-11.2,1.09-1.09,1.9-2.24,2.44-3.45,2.74-1.32,5-3.15,6.78-5.49,1.45,1.7,3.28,2.41,5.44,2.13h0Z"/>
    <path class="cls-35" d="M151.71,151.96l6.1,6.65c9.35,16.03,14.2,33.88,14.53,53.61.41,22.91-7.04,38.68-22.32,47.34-6.78,1.32-13.66,1.27-20.65-.15l-1.24-5.13c25.68,5.99,38.43-13.56,38.53-36.7,1.5-23.65-4.72-44.19-18.67-61.69l-4.65-5.31c1.12-.43,2.11-1.32,3-2.67,1.98.79,3.78,2.13,5.38,4.04h0Z"/>
    <path class="cls-41" d="M339.42,173.68c2.51,10.64,2.06,21.77-1.37,33.4-3.53-.99-5.54-.18-6.07,2.39-.08.38-.23.74-.46,1.07-17.5,25.42-56.08,43.96-75.48,8.38-.25-.46-.94-.36-1.07.15-.28,1.27-.2,2.59.18,3.96-2.51-26.57,3.43-48.31,17.83-65.25,12.98-3.2,22.22-4.77,27.68-4.75,1.88,0,4.62.63,8.25,1.9,2.72.94,5.26,2.16,7.64,3.68,7.77,4.98,15.29,8.51,18.77,15.95.74,1.55,2.77,1.85,3.91.61.15-.15.2-.66.18-1.5M288.58,169.05c-.05,5.11,5.69,9.33,12.86,9.4,7.17.08,13.04-3.99,13.09-9.09.05-5.11-5.69-9.33-12.86-9.4-7.17-.08-13.04,3.99-13.09,9.09M297.19,204.79c0-6.78-5.51-12.29-12.29-12.29s-12.29,5.51-12.29,12.29,5.51,12.29,12.29,12.29,12.29-5.51,12.29-12.29h0Z"/>
    <path class="cls-41" d="M147.98,155.9c13.94,17.5,20.17,38.05,18.67,61.69-11.23,14.35-22.1,23.29-40.79,19.2-19.94-4.37-28.78-17.37-42.21-30.86-4.83-16.18-4.39-34.52,7.52-47.57l-4.52,10.18c-.61,1.35.58,2.82,2.03,2.54l1.75-.33c1.52-.3,2.87-1.19,3.73-2.49,5.26-7.8,13.03-12.65,23.32-14.55,4.37-.81,14.53-.08,30.5,2.18M132.79,167.97c-.3-4.91-6.45-8.49-13.74-8.04-7.29.47-12.93,4.81-12.62,9.7.3,4.91,6.45,8.49,13.74,8.04,7.29-.47,12.93-4.81,12.62-9.7M134.73,192.85c-6.39,1.01-10.68,7.29-9.62,13.96,1.07,6.68,7.12,11.28,13.5,10.26,6.39-1.01,10.68-7.29,9.62-13.96-1.07-6.68-7.12-11.28-13.5-10.26h0Z"/>
    <path class="cls-45" d="M267.35,155.19c-2.16,3.68-4.32,7.42-6.5,11.2-8.56,14.86-12.34,31.82-11.38,50.9,1.04,20.8,9.07,35.28,24.03,43.43-5.23,8.31-11.99,13.99-20.24,17.04-10.11-15.52-25.78-22.53-46.99-21.05-6.63.46-13.44,2.11-20.39,4.93-8.46,3.43-14.22,8.91-17.32,16.46-3.45.15-6.55-1.09-9.32-3.76-4.9-4.7-7.97-9.6-9.22-14.76,15.29-8.66,22.73-24.43,22.32-47.34-.33-19.73-5.18-37.59-14.53-53.61,6.4,1.22,12.67,3.58,18.82,7.06,1.02.58,2.21.74,3.3.41l13.59-4.04c.58-.15,1.22-.1,1.75.15l2.01.94c.71.33.63,1.37-.13,1.6l-12.75,3.76c-2.06.61-2.34,3.4-.46,4.42,3.89,2.08,7.97,3.28,12.27,3.58.99.08,1.9.48,2.62,1.19,1.52,1.52,3.17,4.11,5.05,5.46,5.59,3.99,10.54,2.79,14.88-3.58,2.26-3.35,5.08-4.88,8.43-4.57,4.42.43,7.82-1.37,10.21-5.41.89-1.47-.66-3.2-2.24-2.51-4.55,2.01-8.64,1.55-12.29-1.42-.91-.76-2.31-.43-2.82.63l-2.11,4.5c-.36.76-.97,1.35-1.73,1.7-1.55.66-3.81,1.04-6.81,1.14-3.45.1-6.55-2.13-7.52-5.44l-.33-1.04c-.66-2.26.89-4.57,3.23-4.83,5.64-.61,9.12-.71,10.44-.28,2.24.74,5.18.66,8.84-.2,3.58-.86,7.64.1,12.22,2.9.76.46,1.65.69,2.51.61,7.29-.63,13.38-3.76,18.34-9.37.41-.46.94-.81,1.55-1.02,2.69-.91,5.59-.84,8.66.23M234.15,234.18c-.07-1.51-2.54-2.65-5.54-2.52-2.99.12-5.38,1.45-5.32,2.96.07,1.51,2.54,2.65,5.54,2.52,2.99-.12,5.38-1.45,5.32-2.96M198.38,234.3c-.09-1.52-2.66-2.62-5.78-2.46-3.1.17-5.56,1.55-5.48,3.07.09,1.52,2.66,2.62,5.78,2.46,3.1-.17,5.56-1.55,5.48-3.07M199.57,245.91c-.14-1.93-2.78-3.36-5.91-3.15-3.14.22-5.58,1.95-5.44,3.9.14,1.93,2.78,3.36,5.91,3.15,3.14-.22,5.58-1.95,5.44-3.9M222.2,246.1c-.11,1.69,2.2,3.24,5.19,3.43,2.98.21,5.49-1.01,5.61-2.7.11-1.69-2.2-3.24-5.19-3.43-2.98-.21-5.49,1.01-5.61,2.7h0Z"/>
    <path class="cls-39" d="M132.79,167.97c.31,4.89-5.33,9.24-12.62,9.7-7.29.45-13.43-3.13-13.74-8.04-.31-4.89,5.33-9.24,12.62-9.7,7.29-.45,13.43,3.13,13.74,8.04h0Z"/>
    <path class="cls-39" d="M288.58,169.05c.05-5.1,5.92-9.16,13.09-9.09,7.18.08,12.92,4.29,12.86,9.4-.05,5.1-5.92,9.16-13.09,9.09-7.18-.08-12.92-4.29-12.86-9.4h0Z"/>
    <path class="cls-35" d="M134.73,192.85c6.38-1.02,12.43,3.58,13.5,10.26,1.06,6.68-3.23,12.95-9.62,13.96-6.38,1.02-12.43-3.58-13.5-10.26-1.06-6.68,3.23-12.95,9.62-13.96h0Z"/>
    <path class="cls-35" d="M297.19,204.79c0,6.78-5.51,12.29-12.29,12.29s-12.29-5.51-12.29-12.29,5.51-12.29,12.29-12.29,12.29,5.51,12.29,12.29h0Z"/>
    <path class="cls-45" d="M166.64,217.59c-.1,23.14-12.85,42.69-38.53,36.7-22.2-9.27-37.03-25.4-44.47-48.36,13.44,13.49,22.27,26.49,42.21,30.86,18.69,4.09,29.56-4.85,40.79-19.2h0Z"/>
    <path class="cls-45" d="M338.05,207.08c-8.43,22.53-23.72,38.43-45.87,47.7-23.01,4.01-35.51-10.57-37.03-31.75-.38-1.37-.46-2.69-.18-3.96.13-.51.81-.61,1.07-.15,19.4,35.58,57.98,17.04,75.48-8.38.23-.33.38-.69.46-1.07.53-2.57,2.54-3.38,6.07-2.39h0Z"/>
    <path class="cls-40" d="M234.15,234.18c.06,1.51-2.33,2.83-5.32,2.96-3.01.13-5.47-1.01-5.54-2.52-.06-1.51,2.33-2.83,5.32-2.96,3.01-.13,5.47,1.01,5.54,2.52h0Z"/>
    <path class="cls-40" d="M198.38,234.3c.08,1.52-2.38,2.9-5.48,3.07-3.12.16-5.69-.94-5.78-2.46-.08-1.52,2.38-2.9,5.48-3.07,3.12-.16,5.69.94,5.78,2.46h0Z"/>
    <path class="cls-40" d="M199.57,245.91c.14,1.95-2.3,3.68-5.44,3.9-3.13.21-5.77-1.21-5.91-3.15-.14-1.95,2.3-3.68,5.44-3.9,3.13-.21,5.77,1.21,5.91,3.15h0Z"/>
    <path class="cls-40" d="M222.2,246.1c.11-1.69,2.63-2.91,5.61-2.7,2.99.2,5.3,1.75,5.19,3.43-.11,1.69-2.63,2.91-5.61,2.7-2.99-.2-5.3-1.75-5.19-3.43h0Z"/>
    <path class="cls-35" d="M253.25,277.76c-2.21,7.47-3.89,14.6-5.08,21.38-.89,4.95-2.95,9.17-6.17,12.65-.84.89-2.34.28-2.34-.94l.03-4.9c2.59-5.82,9.68-23.14,6.48-28.93-11.1-20.04-57.35-18.01-70.15-1.3-4.75,6.22-.94,16.81,2.31,23.37-.84,3.23-.43,6.27,1.17,9.14.28.48.15,1.09-.28,1.42-.43.33-1.07.3-1.45-.08-2.13-2.11-3.71-4.32-4.72-6.65-.23-.53-.38-1.07-.48-1.65l-4.01-23.19c3.1-7.54,8.86-13.03,17.32-16.46,6.96-2.82,13.77-4.47,20.39-4.93,21.21-1.47,36.88,5.54,46.99,21.05h0Z"/>
    <path class="cls-37" d="M150.01,259.57c1.24,5.16,4.32,10.06,9.22,14.76,2.77,2.67,5.87,3.91,9.32,3.76l4.01,23.19c.1.58.25,1.12.48,1.65,1.02,2.34,2.59,4.55,4.72,6.65.38.38,1.02.41,1.45.08.43-.33.56-.94.28-1.42-1.6-2.87-2.01-5.92-1.17-9.14,3.02,3.28,5.89,6.6,8.64,10.01,6.27,7.72,14.43,11.61,24.46,11.66,5.51.03,10.46-1.55,14.88-4.72,4.52-3.23,8.99-6.58,13.38-10.08l-.03,4.9c0,1.22,1.5,1.83,2.34.94,3.23-3.48,5.28-7.7,6.17-12.65,1.19-6.78,2.87-13.92,5.08-21.38,8.25-3.05,15.01-8.74,20.24-17.04l17.96-.3c-18.69,27.63-43.53,49.91-69.92,67.96-8.15,5.59-16.28,3.05-24.41-2.39-26.34-17.65-48.92-39.82-67.76-66.57,6.98,1.42,13.87,1.47,20.65.15h0Z"/>
    <path class="cls-45" d="M239.69,305.95c-4.39,3.51-8.86,6.86-13.38,10.08-4.42,3.17-9.37,4.75-14.88,4.72-10.03-.05-18.18-3.94-24.46-11.66-2.74-3.4-5.61-6.73-8.64-10.01-3.25-6.55-7.06-17.14-2.31-23.37,12.8-16.71,59.05-18.74,70.15,1.3,3.2,5.79-3.89,23.11-6.48,28.93h0Z"/>
    <path class="cls-42" d="M294.42,268.64c-4.14,9.4-9.12,18.36-14.98,26.9-.97,1.42-2.39,5.87-4.27,13.31-1.09,4.29-1.27,16.84-.53,37.59.03.74.81,1.19,1.45.84.43-.23.74-.33.97-.3.53.03,1.04-.3,1.19-.81,8.1-24.46,17.5-44.42,37.26-61.82,14.4-12.67,29.31-13.31,36.67,6.73l-7.26-10.24c-.36-.53-.86-.96-1.42-1.27-7.72-4.09-14.83-2.87-21.36,3.63-24.97,24.86-41.17,60.95-51.61,94.86-.36,1.14-2.01,1.02-2.18-.15l-.76-4.62c-.13-.79-.18-1.57-.13-2.36,1.5-23.14,1.09-45.46-1.22-66.92-.15-1.65.36-3.28,1.42-4.52l26.77-30.83h0Z"/>
    <path class="cls-45" d="M156.66,418.23c-3.94,1.04-8.84,1.27-14.68.74-3.45-7.92-6.15-16.46-8.08-25.6-.38-1.93-.97-3.81-1.73-5.61-4.5-10.67-8.91-21.38-13.26-32.15-5.21-12.83-13.89-26.03-21.33-38.71.18-9.75-2.54-18.36-8.2-25.85-.48-.63-1.14-1.14-1.9-1.4-2.95-1.09-5-2.46-6.17-4.17,3.78-4.67,10.79.43,14.22,3.94,19.96,20.32,31.47,43.33,42.82,70.94,7.67,18.64,13.77,37.94,18.31,57.88h0Z"/>
    <path class="cls-45" d="M339.37,284.69l-13.05,16.43c-13.89,20.5-26.06,45.18-36.5,74.06-6.2,17.19-9.91,31.72-11.15,43.58-5,.84-9.4.56-13.16-.84,4.01-17.5,9.22-34.34,15.59-50.57,11.38-28.93,21.72-51.28,40.2-73.75,5.87-7.14,11.89-10.11,18.06-8.91h0Z"/>
    <path class="cls-35" d="M81.31,285.48c1.17,1.7,3.23,3.07,6.17,4.17.76.25,1.42.76,1.9,1.4,5.66,7.49,8.38,16.1,8.2,25.85l-3.56,18.97-.79-1.37c-.41-.71-1.35-.94-2.06-.48-.74.51-1.47,1.24-2.16,2.24l-.2-5.99c2.77-10.44,2.67-20.27-.3-29.44-1.17-3.63-3.43-6.55-6.81-8.71-1.65-1.02-3-1.42-4.09-1.19.69-2.13,1.9-3.94,3.68-5.44h0Z"/>
    <path class="cls-35" d="M343.56,290.76c-1.85.38-3.66,1.45-5.38,3.2-8.61,9.5-7.75,22.91-6.07,34.97-1.78-1.7-3.15.28-4.09,5.97-.38-3.63-1.19-7.21-2.44-10.77-1.17-3.33-.91-11,.74-23.01l13.05-16.43,4.19,6.07h0Z"/>
    <path class="cls-41" d="M81.71,292.11c-4.27,13.79-8.89,27.35-13.87,40.71-6.2,16.56-9.55,37.64-10.06,63.21-.13,6.37,1.14,14.1,3.86,23.16l-6.07.3c-5.16-27.2-4.5-54.61,2.03-82.24,4.04-17.07,10.69-32.51,20.01-46.35,1.09-.23,2.44.18,4.09,1.19h0Z"/>
    <path class="cls-36" d="M343.56,290.76c9.22,14.17,15.8,29.41,19.71,45.74,6.55,27.35,7.21,54.81,1.96,82.34l-4.06.08c.63-9.93,2.16-20.5,2.01-29.51-.28-16.86-2.49-33.42-6.58-49.7-3.43-13.61-12.85-30.3-18.41-45.74,1.73-1.75,3.53-2.82,5.38-3.2h0Z"/>
    <path class="cls-45" d="M88.83,330.25c-10.34,22.53-18.36,54.78-9.83,78.91l.03,6.76c.18,1.52-.13,2.54-.89,3.02-.13.08-.25.13-.38.13l-16.1.13c-2.72-9.07-3.99-16.79-3.86-23.16.51-25.58,3.86-46.66,10.06-63.21,4.98-13.36,9.6-26.92,13.87-40.71,3.38,2.16,5.64,5.08,6.81,8.71,2.97,9.17,3.07,19,.3,29.44h0Z"/>
    <path class="cls-45" d="M338.18,293.96c5.56,15.44,14.98,32.13,18.41,45.74,4.09,16.28,6.3,32.84,6.58,49.7.15,9.02-1.37,19.58-2.01,29.51l-18.31.23-.3-12.37c1.8-17.65.43-35.51-4.14-53.61l-6.3-24.23c-1.68-12.06-2.54-25.47,6.07-34.97h0Z"/>
    <path class="cls-37" d="M326.32,301.12c-1.65,12.01-1.9,19.68-.74,23.01,1.24,3.56,2.06,7.14,2.44,10.77-1.96,4.09-3.56,8.28-4.8,12.57-7.04,24.28-15.75,48.03-26.13,71.24l-18.41.05c1.24-11.86,4.95-26.39,11.15-43.58,10.44-28.88,22.6-53.56,36.5-74.06h0Z"/>
    <path class="cls-46" d="M260.36,319.59c-1.93,4.9-2.84,10.18-2.77,15.85.03.76-.15,1.52-.48,2.21-6.73,13.74-16.76,23.72-30.1,29.94-15.62,7.29-32.51,1.5-45.69-8.03-6.78-4.9-11.84-12.17-15.19-21.74-.18-.51-.25-1.04-.28-1.57l-.76-25.8,9.47,6.73c.69.48,1.04,1.3.97,2.11-1.37,14.55,4.17,25.52,16.64,32.86,3,1.78,6.6,2.51,10.82,2.24,1.83-.13,3.07-1.85,2.62-3.63l-3.78-14.3c-.15-.56.41-1.07.97-.86,5.77,2.13,10.77,2.06,14.96-.2.66-.36,1.45.23,1.27.97l-3.17,14.35c-.46,2.03.99,3.99,3.05,4.17,2.97.28,6.22-.43,9.75-2.11,14.78-7.04,20.7-18.11,17.78-33.19-.2-1.07.2-2.13,1.04-2.79l11.58-9.09c.48-.41,1.22-.1,1.32.51.84,5.08.84,8.89,0,11.4h0Z"/>
    <path class="cls-45" d="M165.09,310.44l.76,25.8c.03.53.1,1.07.28,1.57,3.35,9.57,8.41,16.84,15.19,21.74,13.18,9.52,30.07,15.31,45.69,8.03,13.33-6.22,23.37-16.2,30.1-29.94.33-.69.51-1.45.48-2.21-.08-5.66.84-10.95,2.77-15.85,1.85,13.69,2.01,26.9.48,39.6-6.93,11.66-17.4,21.61-31.34,29.92-10.59,6.27-20.67,7.67-30.25,4.14-6.27-2.31-13.38-6.81-21.28-13.54-6.07-5.16-11.53-11.58-16.36-19.28-1.78-15.82-1.83-32.76-.15-50.82.08-.79.84-1.32,1.6-1.14.89.2,1.57.86,2.03,1.98h0Z"/>
    <path class="cls-37" d="M141.98,418.97l-16.46-.2c-13.41-27-20.17-48.99-31.49-82.9l3.56-18.97c7.44,12.67,16.13,25.88,21.33,38.71,4.34,10.77,8.76,21.49,13.26,32.15.76,1.8,1.35,3.68,1.73,5.61,1.93,9.14,4.62,17.68,8.08,25.6h0Z"/>
    <path class="cls-36" d="M198.37,348.21c-9.55-3.96-18.67-12.37-17.3-23.77.13-1.07,1.4-1.57,2.24-.89l11.12,8.86c.71.58,1.22,1.35,1.45,2.21l3.45,12.72c.15.58-.41,1.09-.97.86h0Z"/>
    <path class="cls-36" d="M223.54,348.41c-.56.23-1.12-.3-.94-.86l3.5-12.65c.25-.86.76-1.63,1.47-2.18l11.12-8.76c.84-.66,2.08-.15,2.21.91,1.3,11.35-7.85,19.66-17.37,23.54h0Z"/>
    <path class="cls-34" d="M332.11,328.93l6.3,24.23c.58,6.48-.23,12.85-2.46,19.12-.2.63.3,1.24.97,1.17,2.51-.33,3.99.99,4.37,4.01,1.09,8.76-5.74,18.36-10.26,25.73-.38.63.1,1.45.84,1.4,4.39-.25,7.95.48,10.69,2.18l.3,12.37c-2.31,1.14-4.29,1.02-5.99-.43-.63-.53-1.02-1.32-1.04-2.13l-.08-3.43c-.03-1.07-.91-1.93-2.01-1.93h-8.3c-3.15,0-5.1-3.4-3.53-6.12l11.61-20.14c.58-1.02-.15-2.29-1.32-2.29h-3.89c-.81,0-1.6-.25-2.24-.71-4.04-2.9-2.54-6.96,1.04-9.8,2.21-1.75,3.81-3.81,4.75-6.2.15-.36.23-.76.2-1.14l-.53-14.25c-.05-1.42-1.78-2.08-2.77-1.04-.56.61-.94,1.6-1.17,2.97-1.37,8.51-3.5,16.81-6.4,24.86-5.59,15.62-11.63,29.77-18.13,42.44-3.73.05-5.71-.3-5.97-1.09,10.39-23.21,19.1-46.96,26.13-71.24,1.24-4.29,2.84-8.48,4.8-12.57.94-5.69,2.31-7.67,4.09-5.97h0Z"/>
    <path class="cls-37" d="M88.83,330.25l.2,5.99c-3.33,7.85-5.46,16.05-6.4,24.61-.18,1.47.56,5.49,2.16,12.06.23.91-.33,1.85-1.24,2.08l-1.19.33c-1.09.28-1.9,1.17-2.13,2.26-1.9,10.21,5.18,17.6,9.93,25.27.38.63.08,1.42-.63,1.63-2.84.76-9.98-.28-10.51,4.67-8.53-24.13-.51-56.38,9.83-78.91h0Z"/>
    <path class="cls-34" d="M94.03,335.87c11.33,33.91,18.08,55.9,31.49,82.9-2.21,1.57-4.34,1.78-6.45.61-.66-.36-1.19-.86-1.57-1.52-4.47-7.9-8.38-16.91-11.71-27.02-8.46-25.73-12.8-38.99-13.03-39.77-.13-.41-.41-.81-.86-1.24-.71-.64-1.83-.18-1.9.76l-1.4,16.15c-.1,1.32.53,2.59,1.68,3.3,1.35.84,3.43,2.69,6.2,5.54,2.08,2.13,1.68,5.54-.74,6.22-1.55.43-3.12.03-4.72-1.24-1.78-1.4-4.32.28-3.71,2.46,2.26,8.1,6.15,15.44,11.66,22.05,1.93,2.31.33,5.87-2.69,5.94l-9.17.25c-1.42.03-2.46,1.32-2.24,2.72.63,3.78-.56,5.92-3.58,6.4-.79.13-1.57-.36-1.8-1.12-.33-1.02-.48-2.13-.46-3.33l-.03-6.76c.53-4.95,7.67-3.91,10.51-4.67.71-.2,1.02-.99.63-1.63-4.75-7.67-11.84-15.06-9.93-25.27.23-1.09,1.04-1.98,2.13-2.26l1.19-.33c.91-.23,1.47-1.17,1.24-2.08-1.6-6.58-2.34-10.59-2.16-12.06.94-8.56,3.07-16.76,6.4-24.61.69-.99,1.42-1.73,2.16-2.24.71-.46,1.65-.23,2.06.48l.79,1.37h0Z"/>
    <path class="cls-42" d="M125.53,418.77l16.46.2c5.84.53,10.74.3,14.68-.74.23.71,1.35.86,3.38.43l15.26.2c2.54.63,4.44.69,5.74.13h65.58c4.95.03,9.7-.03,14.27-.15.48-.03.79-.33.89-.94.3.74.86,1.04,1.65.91,1.09-.18,1.8-.46,2.08-.89,3.76,1.4,8.15,1.68,13.16.84l18.41-.05c.25.79,2.24,1.14,5.97,1.09-7.9,2.77-16.76,4.88-26.62,6.3-19.99,2.87-35.07,4.01-45.26,3.38-34.72-2.16-71.24-1.35-96.84-4.01-5.33-.53-14.15-2.18-26.41-4.9-3.81-.81-7.7-.99-11.56-.51-16.74,2.13-27.99,4.22-44.5.41,2.72-.08,3.96-.38,3.71-.97l6.07-.3,16.1-.13c.13,0,.25-.05.38-.13.76-.48,1.07-1.5.89-3.02-.03,1.19.13,2.31.46,3.33.23.76,1.02,1.24,1.8,1.12,3.02-.48,4.22-2.62,3.58-6.4-.23-1.4.81-2.69,2.24-2.72l9.17-.25c3.02-.08,4.62-3.63,2.69-5.94-5.51-6.6-9.4-13.94-11.66-22.05-.61-2.18,1.93-3.86,3.71-2.46,1.6,1.27,3.17,1.68,4.72,1.24,2.41-.69,2.82-4.09.74-6.22-2.77-2.84-4.85-4.7-6.2-5.54-1.14-.71-1.78-1.98-1.68-3.3l1.4-16.15c.08-.94,1.19-1.4,1.9-.76.46.43.74.84.86,1.24.23.79,4.57,14.04,13.03,39.77,3.33,10.11,7.24,19.12,11.71,27.02.38.66.91,1.17,1.57,1.52,2.11,1.17,4.24.97,6.45-.61h0Z"/>
    <path class="cls-46" d="M342.55,406.78c-2.74-1.7-6.3-2.44-10.69-2.18-.74.05-1.22-.76-.84-1.4,4.52-7.37,11.35-16.97,10.26-25.73-.38-3.02-1.85-4.34-4.37-4.01-.66.08-1.17-.53-.97-1.17,2.24-6.27,3.05-12.65,2.46-19.12,4.57,18.11,5.94,35.96,4.14,53.61h0Z"/>
    <path class="cls-35" d="M260.84,359.18c.89,3.89.86,7.04-.08,9.4l-15.31,16.53c-.86.94-1.32,2.21-1.22,3.5l2.39,30.38h-6.37l-1.35-26.9c-.03-.53-.61-.84-1.07-.56-20.6,13.03-34.46,13.18-54.81-.23-.48-.3-1.12.03-1.14.61l-.84,27.07c-1.3.56-3.2.51-5.74-.13l1.4-30.38c.05-1.17-.38-2.31-1.17-3.15l-14.02-15.01c-1.55,1.45-1.5-1.85.1-9.91,4.83,7.7,10.29,14.12,16.36,19.28,7.9,6.73,15.01,11.23,21.28,13.54,9.57,3.53,19.66,2.13,30.25-4.14,13.94-8.31,24.41-18.26,31.34-29.92h0Z"/>
    <path class="cls-45" d="M260.77,368.58l1.02,49.32c-.1.61-.41.91-.89.94-4.57.13-9.32.18-14.27.15l-2.39-30.38c-.1-1.3.36-2.57,1.22-3.5l15.31-16.53h0Z"/>
    <path class="cls-45" d="M175.3,418.87l-15.26-.2,1.47-48.33,14.02,15.01c.79.84,1.22,1.98,1.17,3.15l-1.4,30.38h0Z"/>
    <path class="cls-37" d="M240.25,418.99h-59.2l.84-27.07c.03-.58.66-.91,1.14-.61,20.34,13.41,34.21,13.26,54.81.23.46-.28,1.04.03,1.07.56l1.35,26.9h0Z"/>
  </g>
</svg>