<?xml version="1.0" encoding="UTF-8"?>
<svg id="Camada_1" data-name="Camada 1" xmlns="http://www.w3.org/2000/svg" xmlns:xlink="http://www.w3.org/1999/xlink" viewBox="0 0 422.07 422.07">
  <defs>
    <style>
      .cls-1 {
        fill: #9d5e2e;
      }

      .cls-2 {
        fill: #d49015;
      }

      .cls-3 {
        stroke: #c87e49;
      }

      .cls-3, .cls-4, .cls-5, .cls-6, .cls-7, .cls-8, .cls-9, .cls-10, .cls-11, .cls-12, .cls-13, .cls-14, .cls-15, .cls-16, .cls-17, .cls-18, .cls-19, .cls-20, .cls-21, .cls-22, .cls-23, .cls-24, .cls-25, .cls-26, .cls-27, .cls-28, .cls-29, .cls-30, .cls-31, .cls-32, .cls-33, .cls-34, .cls-35, .cls-36, .cls-37, .cls-38, .cls-39, .cls-40, .cls-41, .cls-42, .cls-43, .cls-44, .cls-45, .cls-46, .cls-47, .cls-48, .cls-49, .cls-50, .cls-51, .cls-52, .cls-53, .cls-54, .cls-55, .cls-56 {
        fill: none;
        stroke-miterlimit: 10;
      }

      .cls-4 {
        stroke: #5b4e76;
      }

      .cls-5 {
        stroke: #876244;
      }

      .cls-57 {
        fill: #45494b;
      }

      .cls-6 {
        stroke: #986b4d;
      }

      .cls-7 {
        stroke: #fefbc4;
      }

      .cls-8 {
        stroke: #5f4c42;
      }

      .cls-58 {
        fill: #69737c;
      }

      .cls-59 {
        fill: #fff;
      }

      .cls-9 {
        stroke: #af7240;
      }

      .cls-10 {
        stroke: #6b4911;
      }

      .cls-11 {
        stroke: #52525e;
      }

      .cls-12 {
        stroke: #24262c;
      }

      .cls-13 {
        stroke: #997156;
      }

      .cls-60 {
        fill: #fdee30;
      }

      .cls-14 {
        stroke: #6c5454;
      }

      .cls-15 {
        stroke: #1e202c;
      }

      .cls-16 {
        stroke: #e7a838;
      }

      .cls-61 {
        fill: #794e38;
      }

      .cls-17 {
        stroke: #e9bf23;
      }

      .cls-62 {
        fill: #5e5a70;
      }

      .cls-63 {
        fill: #fac833;
      }

      .cls-18 {
        stroke: #363b45;
      }

      .cls-64 {
        fill: #f3b322;
      }

      .cls-19 {
        stroke: #fff096;
      }

      .cls-20 {
        stroke: #8c9096;
      }

      .cls-21 {
        stroke: #e6bc8f;
      }

      .cls-22 {
        stroke: #1b113f;
      }

      .cls-23 {
        stroke: #45307e;
      }

      .cls-24 {
        stroke: #1b1047;
      }

      .cls-25 {
        stroke: #68485a;
      }

      .cls-26 {
        stroke: #9c5441;
      }

      .cls-27 {
        stroke: #fef683;
      }

      .cls-65 {
        fill: #fdf8b2;
      }

      .cls-28 {
        stroke: #8d6763;
      }

      .cls-29 {
        stroke: #745b5a;
      }

      .cls-30 {
        stroke: #eac88a;
      }

      .cls-66 {
        fill: #cc791e;
      }

      .cls-67 {
        fill: #a67a57;
      }

      .cls-68 {
        fill: #fee355;
      }

      .cls-31 {
        stroke: #a19c3e;
      }

      .cls-32 {
        stroke: #6b4525;
      }

      .cls-69 {
        fill: #332070;
      }

      .cls-33 {
        stroke: #3c3366;
      }

      .cls-34 {
        stroke: #fcd644;
      }

      .cls-35 {
        stroke: #80781f;
      }

      .cls-70 {
        fill: #02020d;
      }

      .cls-36 {
        stroke: #4f2f48;
      }

      .cls-37 {
        stroke: #d48c29;
      }

      .cls-38 {
        stroke: #8d6844;
      }

      .cls-71 {
        fill: #7f7c83;
      }

      .cls-39 {
        stroke: #6e383f;
      }

      .cls-72 {
        fill: #d4873c;
      }

      .cls-73 {
        fill: #632145;
      }

      .cls-40 {
        stroke: #494063;
      }

      .cls-41 {
        stroke: #a76b3a;
      }

      .cls-42 {
        stroke: #372f5e;
      }

      .cls-74 {
        fill: url(#Gradiente_sem_nome_10);
      }

      .cls-43 {
        stroke: #372d66;
      }

      .cls-75 {
        fill: #aeacaf;
      }

      .cls-44 {
        stroke: #fee943;
      }

      .cls-45 {
        stroke: #413f48;
      }

      .cls-76 {
        fill: #fffdd6;
      }

      .cls-46 {
        stroke: #fcdb32;
      }

      .cls-77 {
        fill: #bb7455;
      }

      .cls-47 {
        stroke: #e9bb36;
      }

      .cls-48 {
        stroke: #7e5c4f;
      }

      .cls-49 {
        stroke: #fdf371;
      }

      .cls-50 {
        stroke: #4e4663;
      }

      .cls-78 {
        fill: #57427b;
      }

      .cls-79 {
        fill: #3a3d4b;
      }

      .cls-51 {
        stroke: #58575e;
      }

      .cls-80 {
        fill: #895c43;
      }

      .cls-52 {
        stroke: #331f79;
      }

      .cls-53 {
        stroke: #e9b549;
      }

      .cls-54 {
        stroke: #81553e;
      }

      .cls-55 {
        stroke: #feee84;
      }

      .cls-56 {
        stroke: #5a4642;
      }
    </style>
    <linearGradient id="Gradiente_sem_nome_10" data-name="Gradiente sem nome 10" x1="15.59" y1="49.92" x2="371.99" y2="343.72" gradientUnits="userSpaceOnUse">
      <stop offset="0" stop-color="#331d81"/>
      <stop offset="1" stop-color="#16085e"/>
    </linearGradient>
  </defs>
  <rect class="cls-74" x="-.57" width="423.22" height="422.07"/>
  <g>
    <g>
      <path class="cls-60" d="M148.23,398.93l-9.61-12.41s3.58-10.97,6.71-12.53,18.9-11.32,18.9-11.32c0,0,41.48,3.79,42.37,5.65s13.33,20.32,16.55,20.32,15.52-15.27,19.28-17.2,11.17-8.77,11.17-8.77c0,0,7.35-.89,8.02-1.83s14.09,10.02,14.98,11.14,4.92,4.86,5.59,7.91-7.16,21.16-8.5,22.28-46.29,11.85-56.57,13.42-70.86-16.65-70.86-16.65"/>
      <path class="cls-64" d="M263.23,366.18c-3.26,12.4-11.64,22.03-25.34,27.37-21.14,8.23-42.72,6.95-61.19-3.44-10.19-5.73-16.34-13.94-18.73-23.83l9.18-5.31c16.62,21.62,51.14,24.65,75.26,10.47,3.92-2.31,7.86-5.9,11.69-10.6l9.13,5.34h0Z"/>
      <path class="cls-64" d="M177.07,385.45s-13.25-15.26-13.89-15.93-3.83-10.64,0-11.47,10.44-6.42,10.44-6.42l4.4-5.52s51.66.01,55.32.79,14.44-.03,15.2,0,11.12,4.06,11.12,4.06c0,0,3.93,4.57,4.05,7.09s-.77,6.68-2.56,7.73-5.19,5.75-12.54,10-21.27,13.2-22.25,12.86-12.2,1.9-15.76,1.9-32.64-5.09-32.64-5.09"/>
      <path class="cls-60" d="M145.27,378.34c7.28,10.99,17.16,19.02,29.67,24.13,20.5,8.37,41.82,9.34,63.96,2.89,15.59-4.54,28.03-13.58,37.29-27.14,16.32,9.36,28.88,24.33,37.62,44.95l-206.01.25c8.31-20.3,20.81-35.32,37.48-45.07h0Z"/>
      <path class="cls-72" d="M177.96,349.32c1.4,2.69-22.43,22.3-23.5,22.42l-9.19,6.59c-16.67,9.76-29.16,24.77-37.48,45.07-.2,1.88-1.7,1.83-4.5-.12-.53-.37-.77-1.16-.59-1.88,5.76-21.66,25.55-40.87,41.63-50.6,1.05-.64,27.38-23.86,26.42-24.7M262.62,347.38c.43,8.56,5.48,12.56,7.4,14.83,2.34,2.77,7.45,6.41,7.45,6.41h0c17.7,10.35,32.35,29.62,41.72,51.9.59,1.38.02,3.09-1.18,3.58-2.01.81-3.41.49-4.2-.94-8.74-20.62-21.29-35.59-37.62-44.95-2.22-.95-7.69-3.62-11.84-9.74-4.14-6.09-8.52-13.24-8.59-15.65"/>
    </g>
    <path class="cls-33" d="M160.61,300.57c.31-.93.72-1.63,1.28-2.06l4.69,16.58"/>
    <path class="cls-24" d="M166.58,315.09c-1.22.64-2.25,1.49-3.08,2.54"/>
    <path class="cls-52" d="M163.51,317.63c-.14-1.49-.54-2.66-1.18-3.51-.29-.39-.89-.27-1.01.19-.56,2.33-.6,4.85-.08,7.54"/>
    <path class="cls-24" d="M161.23,321.84c-.35.81-.56,1.61-.58,2.4"/>
    <path class="cls-52" d="M160.66,324.23c-3.24,13.46-2.95,28.17,3.68,40.18"/>
    <path class="cls-24" d="M164.33,364.42c2.95,5.82,7.48,8.76,13.59,8.8,1.36.02,2.58.74,3.24,1.92,9.25,16.54,32.4,17.53,48.07,11.87,4.6-1.67,9.13-5.74,13.59-12.24.35-.5.85-.87,1.42-1.07.35-.1,1.8-.37,4.32-.78,5.53-.91,9.31-4.48,11.34-10.74.14-.45.21-.91.19-1.38l-.19-7.35c-.02-.6.14-1.22.43-1.76,2.91-5.08,3.12-10.12.6-15.09-.31-.62-.37-1.32-.17-1.98.04-.19.56-1.28,1.55-3.3,1.86-3.84,1.4-7.99-1.36-12.43"/>
    <path class="cls-43" d="M260.95,318.87c.35-.14.66-.21.91-.19"/>
    <path class="cls-52" d="M261.86,318.68c1.65-2.17,2.02-3.86,1.14-5.12"/>
    <line class="cls-43" x1="262.99" y1="313.56" x2="266.21" y2="301.09"/>
    <path class="cls-23" d="M266.21,301.09c28.14-18.83,52.24-42.21,67.34-72.05,52.39-103.7-36.2-216.92-148.98-194.14-108.78,21.97-143.57,148.26-72.4,228.59,14.95,16.87,31.1,29.24,48.44,37.09"/>
    <line class="cls-40" x1="266.21" y1="301.09" x2="263.98" y2="301.85"/>
    <line class="cls-25" x1="263.98" y1="301.85" x2="266.85" y2="287.89"/>
    <path class="cls-4" d="M266.85,287.89c7.31-6.81,14.72-13.59,22.24-20.32,10.45-9.31,17.61-16.33,21.48-21.02,18.63-22.57,28.37-48.86,29.24-78.86.83-28.6-8.73-52.78-25.13-76.03-18.4-26.1-47.58-43.03-78.4-50.34-21.02-4.98-37.93-2.37-60.13,3.51-21.58,5.7-39.81,16.37-54.72,32.03-21.87,22.96-39.56,57.2-38.78,89.23,1.01,41.22,19.39,81.17,53.44,105.93,8.01,5.82,15.88,11.71,23.62,17.66"/>
    <line class="cls-50" x1="159.71" y1="289.67" x2="160.61" y2="300.57"/>
    <path class="cls-14" d="M266.85,287.89c3.14-6.19,5.88-10.37,8.22-12.49,9.09-8.26,17.43-17.04,25.03-26.31"/>
    <path class="cls-29" d="M300.1,249.09c6.13-7.58,11.15-15.53,15.01-23.87"/>
    <path class="cls-13" d="M315.11,225.22c5.86-11.63,10.26-23.81,13.22-36.59"/>
    <line class="cls-13" x1="325.35" y1="132.26" x2="313.11" y2="106.78"/>
    <path class="cls-29" d="M313.11,106.78c-5.14-12.7-13.79-22.73-25.96-30.09"/>
    <line class="cls-13" x1="287.15" y1="76.69" x2="272.39" y2="66.12"/>
    <path class="cls-29" d="M272.39,66.12c7.29,3.18,13.9,7.39,19.86,12.64.21.19.52.17.7-.04l.02-.02c.19-.21.17-.52-.04-.7-16.97-14.64-36.59-23.68-58.83-27.09"/>
    <path class="cls-13" d="M234.1,50.9c-9.81-2.6-20.11-3.32-30.89-2.17"/>
    <line class="cls-28" x1="203.21" y1="48.73" x2="192.62" y2="51"/>
    <path class="cls-13" d="M192.62,51c-16.66,2.77-31.94,8.69-45.88,17.76-1.69,1.09-4.98,3.57-9.83,7.39-9.58,7.52-17.08,13.55-24.08,24.57-3.86,6.09-8.88,15.57-15.01,28.41"/>
    <path class="cls-29" d="M97.82,129.14c-1.55,3.12-2.95,8.4-4.25,15.86-3.35,19.33-2.71,36.43,1.94,51.27.08.27.37.41.64.35h.02c.25-.06.41-.33.37-.62l-2.33-14.76"/>
    <path class="cls-13" d="M94.21,181.24c1.26,9.6,3.55,19.02,6.88,28.25"/>
    <path class="cls-29" d="M101.08,209.49l-4.3-10.72c-.04-.08-.12-.12-.21-.1-.08.04-.12.12-.12.21,1.38,12.95,6.48,23.77,15.3,32.44"/>
    <path class="cls-13" d="M111.76,231.31c8.28,12.31,18.36,23.02,30.19,32.13.33.25.68.47,1.03.66,5.1,2.79,8.4,6.22,9.91,10.26.06.14.12.29.23.43l5.62,7.95c.19.25.06.62-.25.7-.12.06-.37,0-.76-.17-.58-.23-.83-.45-.76-.68.19-.56.14-.93-.17-1.11-.29-.19-.64.14-.45.45l2.04,3.37"/>
    <line class="cls-11" x1="158.38" y1="285.31" x2="159.71" y2="289.67"/>
    <line class="cls-42" x1="262.99" y1="313.56" x2="261.86" y2="318.68"/>
    <path class="cls-15" d="M260.95,318.87c-1.8-2.83-4.29-4.34-7.48-4.52"/>
    <line class="cls-56" x1="263.98" y1="301.85" x2="260.78" y2="306.6"/>
    <path class="cls-39" d="M260.78,306.6c.89-3.72.23-6.24-1.96-7.54"/>
    <path class="cls-54" d="M263.06,285.15c7.37-7.83,14.97-15.36,22.84-22.65,2.04-1.88,4.52-5.06,7.47-9.5"/>
    <path class="cls-12" d="M172.12,314.41c-2-.27-3.86-.04-5.53.68"/>
    <path class="cls-8" d="M161.89,298.51l1.09.31c.7.19,1.12.91.95,1.61-.23.89-.17,2.06.14,3.53.06.33.52.35.62.04.76-2.37.39-4.29-1.14-5.72-.27-.27-.58-.35-.89-.29-.31.06-.56.23-.78.52"/>
    <path class="cls-9" d="M234.1,50.9c1.8.7,5.55,1.88,11.3,3.51,5.51,1.57,14.5,5.47,26.99,11.71M287.15,76.69c10.51,8.49,19.16,18.5,25.96,30.09M325.35,132.26c4.69,18.58,5.68,37.38,2.97,56.37M315.11,225.22l-16.46,22.16"/>
    <line class="cls-41" x1="298.65" y1="247.38" x2="293.37" y2="253"/>
    <path class="cls-9" d="M293.37,253c-7.35,6.75-14.74,13.44-22.18,20.07-2.04,1.82-4.75,5.84-8.14,12.08"/>
    <line class="cls-41" x1="263.06" y1="285.15" x2="258.82" y2="299.06"/>
    <line class="cls-26" x1="258.82" y1="299.06" x2="257.6" y2="307.34"/>
    <path class="cls-5" d="M257.6,307.34c-.06,5.37-1.45,7.7-4.13,7"/>
    <line class="cls-32" x1="253.47" y1="314.34" x2="249.01" y2="314.41"/>
    <path class="cls-47" d="M249.01,314.41l1.22-.7c.6-.35.97-.97,1.01-1.65.85-15.09,6.11-34.09,17.12-43.9,17.57-15.65,32.36-27.88,41.77-46.4,2.37-4.65,5.22-11.19,8.57-19.64,1.26-3.22.33-5.72,2.44-8.94.14-.23.52-.08.45.19l-1.55,6.92c-.08.37.41.56.62.25l.91-1.34c.19-.27.29-.6.31-.93l2.27-37.09"/>
    <path class="cls-53" d="M324.16,161.17c-.56-13.57-3.74-27.32-9.5-41.3-1.03-2.5-2.09-4.32-3.14-5.45-.19-.21-.35-.43-.5-.7l-2.15-4.46"/>
    <path class="cls-16" d="M308.88,109.26c.19-.21.41-.12.64.27.12.21.45.12.45-.12v-.21c-.02-.29-.12-.58-.31-.78-3.24-3.63-5.89-7.78-7.93-12.47-.27-.58-1.49-1.61-3.7-3.12-.06-.04-.14-.04-.21.02-.04.06-.04.14,0,.21l3.74,4.56c.14.19.21.41.12.64h-.02c-.17.14-.43.12-.56-.06-4.67-6.11-10.08-11.48-16.23-16.11"/>
    <path class="cls-47" d="M284.88,82.08l-14.06-10.78c-.12-.1-.23-.21-.33-.33-1.84-2.46-4.69-4.17-8.57-5.16"/>
    <path class="cls-53" d="M261.92,65.81c-9.02-4.13-18.48-7.1-28.41-8.94"/>
    <path class="cls-47" d="M233.51,56.87l-13.9-1.78c-.1-.02-.17-.14-.1-.25.1-.19.27-.27.5-.23.47.08.74.1.78.08.35-.23.25-.76-.17-.87-5.1-1.14-10.26-1.22-15.45-.27-.12.02-.23.14-.21.27,0,.12.12.23.25.23,6.34-.1,10.39.06,12.1.45.23.06.41.08.56.1.1,0,.1.04.02.1-.08.04-.23.08-.33.08-29.71-.83-55.67,7.64-77.91,25.38-13.22,10.53-23.5,24.16-30.87,40.91"/>
    <path class="cls-37" d="M108.78,121.09c-.08-.23-.17-.35-.25-.35t0,0c.08,0,.17.12.25.35"/>
    <path class="cls-47" d="M108.78,121.09c-13.81,33.62-12.45,66.78,4.11,99.51,6.03,11.91,13.88,22.28,23.54,31.1,7.93,7.25,17.61,14.02,23.04,21.23,8.16,10.86,12.29,23.77,12.35,38.72,0,.39-.06.6-.19.62-.31.08-.52.19-.58.33-.14.29-.02.66.31.85l.81.43"/>
    <path class="cls-38" d="M172.18,313.87c-2.04.5-3.55.47-4.52-.06-.87-.47-1.28-1.86-1.24-4.13.17-8.32-1.73-16.02-5.7-23.15-.27-.5-.74-.87-1.3-.99l-1.03-.23"/>
    <path class="cls-9" d="M111.76,231.31l-10.68-21.83M94.21,181.24c-.81-9.95-1.16-16.27-1.05-18.96.21-5.02,1.76-16.07,4.67-33.14"/>
    <path class="cls-3" d="M192.62,51c8.61-1.53,16.19-1.78,22.73-.72,7.37,1.18,12.89,1.57,16.54,1.18.19-.02.27-.23.14-.37-.1-.14-.31-.1-.6.12-.19.14-.45.14-.83-.02-4.19-1.8-9.15-2.33-14.87-1.59-.12.02-.25.04-.35.02l-12.18-.89"/>
    <line class="cls-54" x1="300.1" y1="249.09" x2="298.65" y2="247.38"/>
    <path class="cls-36" d="M260.78,306.6c-.89.64-1.96.89-3.18.74"/>
    <path class="cls-22" d="M164.33,364.42c-.89-3.2-1.14-6.61-.74-10.24.1-.97-.12-1.96-.6-2.81-3.41-6.03-1.78-9.97-.25-15.96.17-.64.08-1.34-.27-1.92-1.71-2.89-2.33-5.97-1.82-9.25"/>
    <path class="cls-44" d="M233.51,56.87l33.82,13.5c.29.1.54-.23.35-.48-1.28-1.71-3.2-3.08-5.76-4.09"/>
    <line class="cls-46" x1="284.88" y1="82.08" x2="297.04" y2="96.47"/>
    <path class="cls-44" d="M297.04,96.47c1.84,3.7,5.08,9.5,9.75,17.45,8.28,14.12,10.84,31.7,17.37,47.25"/>
    <line class="cls-35" x1="249.01" y1="314.41" x2="226.55" y2="314.32"/>
    <path class="cls-17" d="M226.55,314.32l.78-52.82c.02-.91.68-1.69,1.59-1.84,10.59-1.76,26.16-10.32,22.43-23.02-1.88-6.42-6.57-9.44-14.04-9.04-11.46.62-13.5,17.99-14.99,26.41-.12.78-.81,1.36-1.61,1.36h-17.74c-.91,0-1.67-.68-1.78-1.59-1.07-9.75-3.57-23.71-14.48-25.98-7.74-1.63-14.87,4.4-15.03,12.39-.23,11.09,13.44,17.88,22.78,19.41,1.12.19,1.94,1.14,1.96,2.25l1.16,52.57"/>
    <line class="cls-35" x1="197.58" y1="314.43" x2="172.12" y2="314.41"/>
    <path class="cls-31" d="M172.12,314.41c.02-.19.04-.35.06-.54"/>
    <path class="cls-34" d="M308.88,109.26c-3.06-5.43-7-9.7-11.83-12.78"/>
    <line class="cls-10" x1="226.55" y1="314.32" x2="221.47" y2="314.41"/>
    <path class="cls-17" d="M221.47,314.41c-1.28-17.94-1.36-35.5-.23-52.63.02-.31-.21-.56-.52-.56h-18.03c-.31,0-.54.25-.52.56,1.36,17.24,1.45,34.81.23,52.72"/>
    <line class="cls-10" x1="202.41" y1="314.49" x2="197.58" y2="314.43"/>
    <line class="cls-35" x1="221.47" y1="314.41" x2="202.41" y2="314.49"/>
    <path class="cls-22" d="M163.51,317.63c-1.05,1.26-1.8,2.66-2.27,4.21"/>
    <path class="cls-48" d="M150.29,272.69c.39.68.7,1.05.89,1.14.52.25,1.01-.37.68-.83-.54-.72-.81-1.09-.83-1.09-.5-.27-1.03.29-.74.78"/>
    <path class="cls-44" d="M136.87,116.69c1.4,1.61,2.97,2.68,4.73,3.24"/>
    <path class="cls-49" d="M141.6,119.93c.39.27,1.12.45,2.13.56"/>
    <path class="cls-27" d="M143.72,120.49c4.11,1.38,7.95,1.61,11.52.7,14.1-3.57,26.16-11.21,36.18-22.92.41-.48.68-1.05.81-1.69l2.31-12.45c.21-1.07-.1-2.19-.85-3.01-5.51-6.15-12.37-8.03-20.59-5.66-14.35,4.17-20.9,10.76-31.14,21.66-.5.52-.85,1.14-1.07,1.82l-.91,2.97c-.19.6-.81.93-1.4.76-.74-.19-1.26.04-1.53.68-1.92,4.63-1.98,9.07-.19,13.34"/>
    <line class="cls-7" x1="143.72" y1="120.49" x2="138.75" y2="103.91"/>
    <line class="cls-19" x1="138.75" y1="103.91" x2="136.87" y2="116.69"/>
    <path class="cls-55" d="M141.6,119.93c-2.19-3.32-3.14-8.65-2.85-16.02"/>
    <path class="cls-49" d="M134.38,126.69c-3.95-2.19-9.51.29-12.43,5.55-2.9,5.27-2.08,11.29,1.88,13.48,3.95,2.19,9.51-.29,12.43-5.55,2.9-5.27,2.08-11.29-1.88-13.48"/>
    <path class="cls-17" d="M148.45,154.06l31.08-6.71c1.38-.31,2.27-1.67,1.98-3.08l-.33-1.45c-.85-3.96-7-5.99-13.73-4.52l-11.75,2.54c-6.73,1.45-11.5,5.84-10.63,9.79l.31,1.47c.31,1.38,1.67,2.27,3.08,1.96M261.55,139.36c-5.33-1.14-12.08-1.88-17.41.23-3.63,1.42-3.16,6.4-.54,8.36.64.5,2.27.81,4.87.93,4.89.27,8.49.64,10.82,1.14,2.31.5,5.76,1.61,10.35,3.37,2.42.95,4.03,1.32,4.81,1.14,3.2-.72,5.66-5.06,2.93-7.85-4.03-4.09-10.51-6.17-15.84-7.31M170.72,160.58c-16.08-3.13-31.67,7.54-34.84,23.83-3.17,16.29,7.3,32.03,23.37,35.15,16.08,3.13,31.67-7.54,34.84-23.83,3.17-16.29-7.3-32.03-23.37-35.15M287.96,190.2c0-16.44-13.34-29.78-29.78-29.78s-29.78,13.34-29.78,29.78,13.34,29.78,29.78,29.78,29.78-13.34,29.78-29.78"/>
    <path class="cls-6" d="M311.33,103.66c-.1.09-.08.25.04.38.11.12.27.16.38.08.1-.09.08-.25-.04-.38-.11-.12-.27-.16-.38-.08"/>
    <path class="cls-30" d="M190,190.1c0-13.61-11.05-24.66-24.66-24.66s-24.66,11.05-24.66,24.66,11.05,24.66,24.66,24.66,24.66-11.05,24.66-24.66M282.73,190.04c0-13.67-11.09-24.76-24.76-24.76s-24.76,11.09-24.76,24.76,11.09,24.76,24.76,24.76,24.76-11.09,24.76-24.76"/>
    <path class="cls-21" d="M182.96,190.55c0-7.12-5.76-12.89-12.89-12.89s-12.89,5.76-12.89,12.89,5.76,12.89,12.89,12.89,12.89-5.76,12.89-12.89M265.51,190.51c0-6.96-5.66-12.62-12.62-12.62s-12.62,5.66-12.62,12.62,5.66,12.62,12.62,12.62,12.62-5.66,12.62-12.62"/>
    <path class="cls-17" d="M194.27,252.79c-.35-5.31-1.82-10.68-4.42-16.06-1.47-3.06-5.1-4.38-8.2-2.99l-.41.19c-3.2,1.45-4.56,5.24-2.99,8.38,2.87,5.74,7.99,9.44,15.36,11.07.37.08.7-.21.66-.58M228.45,254.01s.04.04.08.06c.04.04.12.04.19.02,4.85-1.78,8.92-3.86,12.18-6.26,4.19-3.1,7.5-9.62,2.64-13.36-4.83-3.74-10.32,1.09-12.24,5.93-1.51,3.76-2.52,8.22-3.01,13.36,0,.06.02.14.08.19.02.02.06.04.08.06"/>
    <path class="cls-18" d="M169.29,331.65c.97,1.84,1.09,3.65.39,5.41"/>
    <path class="cls-51" d="M169.68,337.06c-4.85,4.46-4.71,8.47.47,12.04"/>
    <path class="cls-18" d="M170.15,349.1c1.3.97,1.61,2.73.93,5.22"/>
    <path class="cls-51" d="M171.08,354.32c-2.79,2.77-2.99,5.7-.62,8.82,1.96,2.56,4.44,3.84,7.48,3.84,20.03.06,40.08.12,60.13.19,5.88.02,10.08-.62,12.58-1.88,4.19-2.13,4.81-5.76,1.9-10.92"/>
    <path class="cls-18" d="M252.54,354.36c-.97-1.78-.89-3.51.23-5.22"/>
    <path class="cls-51" d="M252.77,349.14c2.6-.23,3.99-2.13,4.17-5.74.17-3.12-1.03-5.2-3.57-6.28"/>
    <path class="cls-18" d="M253.37,337.12c-.7-2.17-.54-3.96.5-5.39"/>
    <path class="cls-51" d="M253.87,331.73c4.03-2.54,4.52-5.8,1.51-9.77-.89-1.18-2.27-1.86-3.74-1.86h-79.58c-1.94,0-3.72,1.07-4.63,2.81-1.96,3.74-1.34,6.65,1.86,8.73"/>
    <path class="cls-20" d="M253.87,331.73l-84.58-.08M253.37,337.12c-27.75,1.05-55.65,1.03-83.69-.06M252.77,349.14c-27.4-1.2-54.93-1.22-82.62-.04M252.54,354.36c-27.59.95-54.74.93-81.46-.04"/>
    <path class="cls-45" d="M211.8,384.26c9.4-.02,18.56-2.09,24.35-10.04.39-.54.06-1.32-.62-1.4-.33-.06-8.26-.08-23.75-.08-15.49.02-23.4.04-23.75.08-.66.1-.99.89-.6,1.42,5.78,7.93,14.95,10.01,24.37,10.01"/>
    <path class="cls-78" d="M266.21,301.09l-2.23.76,2.87-13.96c7.31-6.81,14.72-13.59,22.24-20.32,10.45-9.31,17.61-16.33,21.48-21.02,18.63-22.57,28.37-48.86,29.24-78.86.83-28.6-8.73-52.78-25.13-76.03-18.4-26.1-47.58-43.03-78.4-50.34-21.02-4.98-37.93-2.37-60.13,3.51-21.58,5.7-39.81,16.37-54.72,32.03-21.87,22.96-39.56,57.2-38.78,89.23,1.01,41.22,19.39,81.17,53.44,105.93,8.01,5.82,15.88,11.71,23.62,17.66l.91,10.9c-17.35-7.85-33.49-20.22-48.44-37.09C40.99,183.16,75.79,56.87,184.57,34.9c112.79-22.78,201.37,90.44,148.98,194.14-15.09,29.84-39.19,53.21-67.34,72.05h0Z"/>
    <path class="cls-62" d="M266.85,287.89c3.14-6.19,5.88-10.37,8.22-12.49,9.09-8.26,17.43-17.04,25.03-26.31,6.13-7.58,11.15-15.53,15.01-23.87,5.86-11.63,10.26-23.81,13.22-36.59-.45,10.41-3.06,20.38-7.78,29.9-.14.27-.04.58.23.7l.12.08c.27.12.6.02.72-.25,3.61-7.21,6.17-14.74,7.72-22.61,4.44-22.49,3.1-43.88-3.99-64.2l-12.24-25.48c-5.14-12.7-13.79-22.73-25.96-30.09l-14.76-10.57c7.29,3.18,13.9,7.39,19.86,12.64.21.19.52.17.7-.04l.02-.02c.19-.21.17-.52-.04-.7-16.97-14.64-36.59-23.68-58.83-27.09-9.81-2.6-20.11-3.32-30.89-2.17l-10.59,2.27c-16.66,2.77-31.94,8.69-45.88,17.76-1.69,1.09-4.98,3.57-9.83,7.39-9.58,7.52-17.08,13.55-24.08,24.57-3.86,6.09-8.88,15.57-15.01,28.41-1.55,3.12-2.95,8.4-4.25,15.86-3.35,19.33-2.71,36.43,1.94,51.27.08.27.37.41.64.35h.02c.25-.06.41-.33.37-.62l-2.33-14.76c1.26,9.6,3.55,19.02,6.88,28.25l-4.3-10.72c-.04-.08-.12-.12-.21-.1-.08.04-.12.12-.12.21,1.38,12.95,6.48,23.77,15.3,32.44,8.28,12.31,18.36,23.02,30.19,32.13.33.25.68.47,1.03.66,5.1,2.79,8.4,6.22,9.91,10.26.06.14.12.29.23.43l5.62,7.95c.19.25.06.62-.25.7-.12.06-.37,0-.76-.17-.58-.23-.83-.45-.76-.68.19-.56.14-.93-.17-1.11-.29-.19-.64.14-.45.45l2.04,3.37,1.32,4.36c-7.74-5.95-15.61-11.83-23.62-17.66-34.05-24.76-52.43-64.71-53.44-105.93-.78-32.03,16.91-66.26,38.78-89.23,14.91-15.65,33.14-26.33,54.72-32.03,22.2-5.89,39.11-8.49,60.13-3.51,30.83,7.31,60.01,24.24,78.4,50.34,16.4,23.25,25.96,47.43,25.13,76.03-.87,30-10.61,56.29-29.24,78.86-3.86,4.69-11.03,11.71-21.48,21.02-7.52,6.73-14.93,13.5-22.24,20.32M150.29,272.69c.39.68.7,1.05.89,1.14.52.25,1.01-.37.68-.83-.54-.72-.81-1.09-.83-1.09-.5-.27-1.03.29-.74.78h0Z"/>
    <path class="cls-72" d="M234.1,50.9c1.8.7,5.55,1.88,11.3,3.51,5.51,1.57,14.5,5.47,26.99,11.71l14.76,10.57c10.51,8.49,19.16,18.5,25.96,30.09l12.24,25.48c4.69,18.58,5.68,37.38,2.97,56.37-2.95,12.78-7.35,24.97-13.22,36.59l-16.46,22.16-5.29,5.62c-7.35,6.75-14.74,13.44-22.18,20.07-2.04,1.82-4.75,5.84-8.14,12.08l-4.23,13.92-1.22,8.28c-.06,5.37-1.45,7.7-4.13,7l-4.46.06,1.22-.7c.6-.35.97-.97,1.01-1.65.85-15.09,6.11-34.09,17.12-43.9,17.57-15.65,32.36-27.88,41.77-46.4,2.37-4.65,5.22-11.19,8.57-19.64,1.26-3.22.33-5.72,2.44-8.94.14-.23.52-.08.45.19l-1.55,6.92c-.08.37.41.56.62.25l.91-1.34c.19-.27.29-.6.31-.93l2.27-37.09c-.56-13.57-3.74-27.32-9.5-41.3-1.03-2.5-2.09-4.32-3.14-5.45-.19-.21-.35-.43-.5-.7l-2.15-4.46c.19-.21.41-.12.64.27.12.21.45.12.45-.12v-.21c-.02-.29-.12-.58-.31-.78-3.24-3.63-5.89-7.78-7.93-12.47-.27-.58-1.49-1.61-3.7-3.12-.06-.04-.14-.04-.21.02-.04.06-.04.14,0,.21l3.74,4.56c.14.19.21.41.12.64h-.02c-.17.14-.43.12-.56-.06-4.67-6.11-10.08-11.48-16.23-16.11l-14.06-10.78c-.12-.1-.23-.21-.33-.33-1.84-2.46-4.69-4.17-8.57-5.16-9.02-4.13-18.48-7.1-28.41-8.94l-13.9-1.78c-.1-.02-.17-.14-.1-.25.1-.19.27-.27.5-.23.47.08.74.1.78.08.35-.23.25-.76-.17-.87-5.1-1.14-10.26-1.22-15.45-.27-.12.02-.23.14-.21.27,0,.12.12.23.25.23,6.34-.1,10.39.06,12.1.45.23.06.41.08.56.1.1,0,.1.04.02.1-.08.04-.23.08-.33.08-29.71-.83-55.67,7.64-77.91,25.38-13.22,10.53-23.5,24.16-30.87,40.91-.08-.23-.17-.35-.25-.35t0,0c.08,0,.17.12.25.35-13.81,33.62-12.45,66.78,4.11,99.51,6.03,11.91,13.88,22.28,23.54,31.1,7.93,7.25,17.61,14.02,23.04,21.23,8.16,10.86,12.29,23.77,12.35,38.72,0,.39-.06.6-.19.62-.31.08-.52.19-.58.33-.14.29-.02.66.31.85l.81.43c-2.04.5-3.55.47-4.52-.06-.87-.47-1.28-1.86-1.24-4.13.17-8.32-1.73-16.02-5.7-23.15-.27-.5-.74-.87-1.3-.99l-1.03-.23-2.04-3.37c-.19-.31.17-.64.45-.45.31.19.35.56.17,1.11-.06.23.19.45.76.68.39.17.64.23.76.17.31-.08.43-.45.25-.7l-5.62-7.95c-.1-.14-.17-.29-.23-.43-1.51-4.05-4.81-7.48-9.91-10.26-.35-.19-.7-.41-1.03-.66-11.83-9.11-21.91-19.82-30.19-32.13l-10.68-21.83c-3.32-9.23-5.62-18.65-6.88-28.25-.81-9.95-1.16-16.27-1.05-18.96.21-5.02,1.76-16.07,4.67-33.14,6.13-12.84,11.15-22.32,15.01-28.41,7-11.03,14.5-17.06,24.08-24.57,4.85-3.82,8.14-6.3,9.83-7.39,13.94-9.07,29.22-14.99,45.88-17.76,8.61-1.53,16.19-1.78,22.73-.72,7.37,1.18,12.89,1.57,16.54,1.18.19-.02.27-.23.14-.37-.1-.14-.31-.1-.6.12-.19.14-.45.14-.83-.02-4.19-1.8-9.15-2.33-14.87-1.59-.12.02-.25.04-.35.02l-12.18-.89c10.78-1.16,21.08-.43,30.89,2.17h0Z"/>
    <path class="cls-77" d="M203.21,48.73l12.18.89c.1.02.23,0,.35-.02,5.72-.74,10.68-.21,14.87,1.59.37.17.64.17.83.02.29-.23.5-.27.6-.12.12.14.04.35-.14.37-3.65.39-9.17,0-16.54-1.18-6.55-1.05-14.12-.81-22.73.72l10.59-2.27h0Z"/>
    <path class="cls-80" d="M234.1,50.9c22.24,3.41,41.86,12.45,58.83,27.09.21.19.23.5.04.7l-.02.02c-.19.21-.5.23-.7.04-5.97-5.24-12.58-9.46-19.86-12.64-12.49-6.24-21.48-10.14-26.99-11.71-5.74-1.63-9.5-2.81-11.3-3.51h0Z"/>
    <path class="cls-60" d="M233.51,56.87l33.82,13.5c.29.1.54-.23.35-.48-1.28-1.71-3.2-3.08-5.76-4.09,3.88.99,6.73,2.71,8.57,5.16.1.12.21.23.33.33l14.06,10.78,12.16,14.39c1.84,3.7,5.08,9.5,9.75,17.45,8.28,14.12,10.84,31.7,17.37,47.25l-2.27,37.09c-.02.33-.12.66-.31.93l-.91,1.34c-.21.31-.7.12-.62-.25l1.55-6.92c.06-.27-.31-.41-.45-.19-2.11,3.22-1.18,5.72-2.44,8.94-3.35,8.45-6.19,14.99-8.57,19.64-9.42,18.52-24.2,30.75-41.77,46.4-11.01,9.81-16.27,28.81-17.12,43.9-.04.68-.41,1.3-1.01,1.65l-1.22.7-22.47-.08.78-52.82c.02-.91.68-1.69,1.59-1.84,10.59-1.76,26.16-10.32,22.43-23.02-1.88-6.42-6.57-9.44-14.04-9.04-11.46.62-13.5,17.99-14.99,26.41-.12.78-.81,1.36-1.61,1.36h-17.74c-.91,0-1.67-.68-1.78-1.59-1.07-9.75-3.57-23.71-14.48-25.98-7.74-1.63-14.87,4.4-15.03,12.39-.23,11.09,13.44,17.88,22.78,19.41,1.12.19,1.94,1.14,1.96,2.25l1.16,52.57-25.46-.02c.02-.19.04-.35.06-.54l-.81-.43c-.33-.19-.45-.56-.31-.85.06-.14.27-.25.58-.33.12-.02.19-.23.19-.62-.06-14.95-4.19-27.86-12.35-38.72-5.43-7.21-15.12-13.98-23.04-21.23-9.66-8.82-17.51-19.18-23.54-31.1-16.56-32.73-17.92-65.89-4.11-99.51,7.37-16.75,17.66-30.38,30.87-40.91,22.24-17.74,48.2-26.2,77.91-25.38.1,0,.25-.04.33-.08.08-.06.08-.1-.02-.1-.14-.02-.33-.04-.56-.1-1.71-.39-5.76-.56-12.1-.45-.12,0-.25-.1-.25-.23-.02-.12.08-.25.21-.27,5.18-.95,10.35-.87,15.45.27.41.1.52.64.17.87-.04.02-.31,0-.78-.08-.23-.04-.39.04-.5.23-.06.1,0,.23.1.25l13.9,1.78M136.87,116.69c1.4,1.61,2.97,2.68,4.73,3.24.39.27,1.12.45,2.13.56,4.11,1.38,7.95,1.61,11.52.7,14.1-3.57,26.16-11.21,36.18-22.92.41-.48.68-1.05.81-1.69l2.31-12.45c.21-1.07-.1-2.19-.85-3.01-5.51-6.15-12.37-8.03-20.59-5.66-14.35,4.17-20.9,10.76-31.14,21.66-.5.52-.85,1.14-1.07,1.82l-.91,2.97c-.19.6-.81.93-1.4.76-.74-.19-1.26.04-1.53.68-1.92,4.63-1.98,9.07-.19,13.34M134.38,126.69c-3.95-2.19-9.51.29-12.43,5.55-2.9,5.27-2.08,11.29,1.88,13.48,3.95,2.19,9.51-.29,12.43-5.55,2.9-5.27,2.08-11.29-1.88-13.48M148.45,154.06l31.08-6.71c1.38-.31,2.27-1.67,1.98-3.08l-.33-1.45c-.85-3.96-7-5.99-13.73-4.52l-11.75,2.54c-6.73,1.45-11.5,5.84-10.63,9.79l.31,1.47c.31,1.38,1.67,2.27,3.08,1.96M261.55,139.36c-5.33-1.14-12.08-1.88-17.41.23-3.63,1.42-3.16,6.4-.54,8.36.64.5,2.27.81,4.87.93,4.89.27,8.49.64,10.82,1.14,2.31.5,5.76,1.61,10.35,3.37,2.42.95,4.03,1.32,4.81,1.14,3.2-.72,5.66-5.06,2.93-7.85-4.03-4.09-10.51-6.17-15.84-7.31M170.72,160.58c-16.08-3.13-31.67,7.54-34.84,23.83-3.17,16.29,7.3,32.03,23.37,35.15,16.08,3.13,31.67-7.54,34.84-23.83,3.17-16.29-7.3-32.03-23.37-35.15M287.96,190.2c0-16.44-13.34-29.78-29.78-29.78s-29.78,13.34-29.78,29.78,13.34,29.78,29.78,29.78,29.78-13.34,29.78-29.78h0Z"/>
    <path class="cls-68" d="M261.92,65.81c2.56,1.01,4.48,2.37,5.76,4.09.19.25-.06.58-.35.48l-33.82-13.5c9.93,1.84,19.39,4.81,28.41,8.94h0Z"/>
    <path class="cls-76" d="M143.72,120.49l-4.98-16.58-1.88,12.78c-1.8-4.27-1.73-8.71.19-13.34.27-.64.78-.87,1.53-.68.6.17,1.22-.17,1.4-.76l.91-2.97c.23-.68.58-1.3,1.07-1.82,10.24-10.9,16.79-17.49,31.14-21.66,8.22-2.37,15.07-.5,20.59,5.66.74.83,1.05,1.94.85,3.01l-2.31,12.45c-.12.64-.39,1.22-.81,1.69-10.01,11.71-22.07,19.35-36.18,22.92-3.57.91-7.41.68-11.52-.7h0Z"/>
    <path class="cls-80" d="M313.11,106.78c-6.79-11.58-15.45-21.6-25.96-30.09,12.16,7.35,20.81,17.39,25.96,30.09M311.33,103.66c-.1.09-.08.25.04.38.11.12.27.16.38.08.1-.09.08-.25-.04-.38-.11-.12-.27-.16-.38-.08h0Z"/>
    <path class="cls-63" d="M308.88,109.26c-3.06-5.43-7-9.7-11.83-12.78l-12.16-14.39c6.15,4.63,11.56,9.99,16.23,16.11.12.19.39.21.56.06h.02c.08-.23.02-.45-.12-.64l-3.74-4.56c-.04-.06-.04-.14,0-.21.06-.06.14-.06.21-.02,2.21,1.51,3.43,2.54,3.7,3.12,2.04,4.69,4.69,8.84,7.93,12.47.19.21.29.5.31.78v.21c0,.25-.33.33-.45.12-.23-.39-.45-.47-.64-.27h0Z"/>
    <path class="cls-68" d="M308.88,109.26l2.15,4.46c.14.27.31.5.5.7,1.05,1.14,2.11,2.95,3.14,5.45,5.76,13.98,8.94,27.73,9.5,41.3-6.53-15.55-9.09-33.12-17.37-47.25-4.67-7.95-7.91-13.75-9.75-17.45,4.83,3.08,8.78,7.35,11.83,12.78h0Z"/>
    <path class="cls-65" d="M143.72,120.49c-1.01-.1-1.73-.29-2.13-.56-2.19-3.32-3.14-8.65-2.85-16.02l4.98,16.58h0Z"/>
    <path class="cls-67" d="M311.33,103.66c.1-.08.27-.04.38.08.12.13.14.3.04.38-.1.08-.27.04-.38-.08-.12-.13-.14-.3-.04-.38h0Z"/>
    <path class="cls-68" d="M138.75,103.91c-.29,7.37.66,12.7,2.85,16.02-1.76-.56-3.32-1.63-4.73-3.24l1.88-12.78h0Z"/>
    <path class="cls-2" d="M108.78,121.09c-.08-.23-.17-.35-.25-.35t0,0c.08,0,.17.12.25.35h0Z"/>
    <path class="cls-80" d="M97.82,129.14c-2.91,17.08-4.46,28.12-4.67,33.14-.1,2.68.25,9,1.05,18.96l2.33,14.76c.04.29-.12.56-.37.62h-.02c-.27.06-.56-.08-.64-.35-4.65-14.85-5.29-31.94-1.94-51.27,1.3-7.45,2.71-12.74,4.25-15.86h0Z"/>
    <path class="cls-65" d="M134.38,126.69c3.95,2.19,4.78,8.22,1.88,13.48-2.92,5.27-8.47,7.74-12.43,5.55-3.95-2.19-4.78-8.22-1.88-13.48,2.92-5.27,8.47-7.74,12.43-5.55h0Z"/>
    <path class="cls-2" d="M148.45,154.06c-1.4.31-2.77-.58-3.08-1.96l-.31-1.47c-.87-3.94,3.9-8.34,10.63-9.79l11.75-2.54c6.73-1.47,12.89.56,13.73,4.52l.33,1.45c.29,1.4-.6,2.77-1.98,3.08l-31.08,6.71h0Z"/>
    <path class="cls-2" d="M261.55,139.36c5.33,1.14,11.81,3.22,15.84,7.31,2.73,2.79.27,7.12-2.93,7.85-.78.19-2.4-.19-4.81-1.14-4.58-1.76-8.03-2.87-10.35-3.37-2.33-.5-5.93-.87-10.82-1.14-2.6-.12-4.23-.43-4.87-.93-2.62-1.96-3.1-6.94.54-8.36,5.33-2.11,12.08-1.36,17.41-.23h0Z"/>
    <path class="cls-2" d="M170.72,160.58c16.07,3.12,26.54,18.86,23.37,35.15-3.17,16.29-18.76,26.97-34.84,23.83-16.07-3.12-26.54-18.86-23.37-35.15,3.17-16.29,18.76-26.97,34.84-23.83M190,190.1c0-13.61-11.05-24.66-24.66-24.66s-24.66,11.05-24.66,24.66,11.05,24.66,24.66,24.66,24.66-11.05,24.66-24.66h0Z"/>
    <path class="cls-2" d="M287.96,190.2c0,16.44-13.34,29.78-29.78,29.78s-29.78-13.34-29.78-29.78,13.34-29.78,29.78-29.78,29.78,13.34,29.78,29.78M282.73,190.04c0-13.67-11.09-24.76-24.76-24.76s-24.76,11.09-24.76,24.76,11.09,24.76,24.76,24.76,24.76-11.09,24.76-24.76h0Z"/>
    <path class="cls-59" d="M190,190.1c0,13.61-11.05,24.66-24.66,24.66s-24.66-11.05-24.66-24.66,11.05-24.66,24.66-24.66,24.66,11.05,24.66,24.66M182.96,190.55c0-7.12-5.76-12.89-12.89-12.89s-12.89,5.76-12.89,12.89,5.76,12.89,12.89,12.89,12.89-5.76,12.89-12.89h0Z"/>
    <path class="cls-59" d="M282.73,190.04c0,13.67-11.09,24.76-24.76,24.76s-24.76-11.09-24.76-24.76,11.09-24.76,24.76-24.76,24.76,11.09,24.76,24.76M265.51,190.51c0-6.96-5.66-12.62-12.62-12.62s-12.62,5.66-12.62,12.62,5.66,12.62,12.62,12.62,12.62-5.66,12.62-12.62h0Z"/>
    <path class="cls-66" d="M182.96,190.55c0,7.12-5.76,12.89-12.89,12.89s-12.89-5.76-12.89-12.89,5.76-12.89,12.89-12.89,12.89,5.76,12.89,12.89h0Z"/>
    <path class="cls-66" d="M265.51,190.51c0,6.96-5.66,12.62-12.62,12.62s-12.62-5.66-12.62-12.62,5.66-12.62,12.62-12.62,12.62,5.66,12.62,12.62h0Z"/>
    <path class="cls-80" d="M101.08,209.49l10.68,21.83c-8.82-8.67-13.92-19.49-15.3-32.44,0-.08.04-.17.12-.21.08-.02.17.02.21.1l4.3,10.72h0Z"/>
    <path class="cls-80" d="M315.11,225.22c-3.86,8.34-8.88,16.29-15.01,23.87l-1.45-1.71,16.46-22.16h0Z"/>
    <path class="cls-2" d="M226.55,314.32l-5.08.08c-1.28-17.94-1.36-35.5-.23-52.63.02-.31-.21-.56-.52-.56h-18.03c-.31,0-.54.25-.52.56,1.36,17.24,1.45,34.81.23,52.72l-4.83-.06-1.16-52.57c-.02-1.11-.85-2.06-1.96-2.25-9.33-1.53-23-8.32-22.78-19.41.17-7.99,7.29-14.02,15.03-12.39,10.9,2.27,13.4,16.23,14.48,25.98.1.91.87,1.59,1.78,1.59h17.74c.81,0,1.49-.58,1.61-1.36,1.49-8.42,3.53-25.79,14.99-26.41,7.48-.39,12.16,2.62,14.04,9.04,3.74,12.7-11.83,21.27-22.43,23.02-.91.14-1.57.93-1.59,1.84l-.78,52.82M194.27,252.79c-.35-5.31-1.82-10.68-4.42-16.06-1.47-3.06-5.1-4.38-8.2-2.99l-.41.19c-3.2,1.45-4.56,5.24-2.99,8.38,2.87,5.74,7.99,9.44,15.36,11.07.37.08.7-.21.66-.58M228.45,254.01s.04.04.08.06c.04.04.12.04.19.02,4.85-1.78,8.92-3.86,12.18-6.26,4.19-3.1,7.5-9.62,2.64-13.36-4.83-3.74-10.32,1.09-12.24,5.93-1.51,3.76-2.52,8.22-3.01,13.36,0,.06.02.14.08.19.02.02.06.04.08.06h0Z"/>
    <path class="cls-60" d="M194.27,252.79c.04.37-.29.66-.66.58-7.37-1.63-12.49-5.33-15.36-11.07-1.57-3.14-.21-6.94,2.99-8.38l.41-.19c3.1-1.38,6.73-.06,8.2,2.99,2.6,5.39,4.07,10.76,4.42,16.06h0Z"/>
    <path class="cls-60" d="M243.54,234.47c4.85,3.74,1.55,10.26-2.64,13.36-3.26,2.4-7.33,4.48-12.18,6.26-.06.02-.14.02-.19-.02-.04-.02-.08-.04-.08-.06-.02-.02-.06-.04-.08-.06-.06-.04-.08-.12-.08-.19.5-5.14,1.51-9.6,3.01-13.36,1.92-4.83,7.41-9.66,12.24-5.93h0Z"/>
    <path class="cls-61" d="M298.65,247.38l1.45,1.71c-7.6,9.27-15.94,18.05-25.03,26.31-2.33,2.13-5.08,6.3-8.22,12.49l-2.87,13.96-3.2,4.75c.89-3.72.23-6.24-1.96-7.54l4.23-13.92c7.37-7.83,14.97-15.36,22.84-22.65,2.04-1.88,4.52-5.06,7.47-9.5l5.29-5.62h0Z"/>
    <path class="cls-80" d="M293.37,253c-2.95,4.44-5.43,7.62-7.47,9.5-7.87,7.29-15.47,14.83-22.84,22.65,3.39-6.24,6.09-10.26,8.14-12.08,7.43-6.63,14.83-13.32,22.18-20.07h0Z"/>
    <path class="cls-60" d="M221.47,314.41l-19.06.08c1.22-17.9,1.14-35.48-.23-52.72-.02-.31.21-.56.52-.56h18.03c.31,0,.54.25.52.56-1.14,17.14-1.05,34.69.23,52.63h0Z"/>
    <path class="cls-1" d="M151.03,271.91s.29.37.83,1.09c.33.45-.17,1.07-.68.83-.19-.08-.5-.45-.89-1.14-.29-.5.25-1.05.74-.78h0Z"/>
    <path class="cls-57" d="M172.18,313.87c-.02.19-.04.35-.06.54-2-.27-3.86-.04-5.53.68l-4.69-16.58,1.09.31c.7.19,1.12.91.95,1.61-.23.89-.17,2.06.14,3.53.06.33.52.35.62.04.76-2.37.39-4.29-1.14-5.72-.27-.27-.58-.35-.89-.29-.31.06-.56.23-.78.52-.56.43-.97,1.14-1.28,2.06l-.91-10.9-1.32-4.36,1.03.23c.56.12,1.03.5,1.3.99,3.96,7.12,5.86,14.83,5.7,23.15-.04,2.27.37,3.65,1.24,4.13.97.54,2.48.56,4.52.06h0Z"/>
    <path class="cls-61" d="M161.89,298.51c.23-.29.47-.45.78-.52.31-.06.62.02.89.29,1.53,1.42,1.9,3.35,1.14,5.72-.1.31-.56.29-.62-.04-.31-1.47-.37-2.64-.14-3.53.17-.7-.25-1.42-.95-1.61l-1.09-.31h0Z"/>
    <path class="cls-73" d="M260.78,306.6c-.89.64-1.96.89-3.18.74l1.22-8.28c2.19,1.3,2.85,3.82,1.96,7.54h0Z"/>
    <path class="cls-79" d="M266.21,301.09l-3.22,12.47-1.14,5.12c-.25-.02-.56.04-.91.19-1.8-2.83-4.29-4.34-7.48-4.52,2.68.7,4.07-1.63,4.13-7,1.22.14,2.29-.1,3.18-.74l3.2-4.75,2.23-.76h0Z"/>
    <path class="cls-69" d="M163.51,317.63c-1.05,1.26-1.8,2.66-2.27,4.21-.52-2.68-.47-5.2.08-7.54.12-.45.72-.58,1.01-.19.64.85,1.03,2.02,1.18,3.51h0Z"/>
    <path class="cls-69" d="M261.86,318.68l1.14-5.12c.89,1.26.52,2.95-1.14,5.12h0Z"/>
    <path class="cls-70" d="M197.58,314.43l4.83.06,19.06-.08,5.08-.08,22.47.08,4.46-.06c3.18.19,5.68,1.69,7.48,4.52,2.77,4.44,3.22,8.59,1.36,12.43-.99,2.02-1.51,3.12-1.55,3.3-.21.66-.14,1.36.17,1.98,2.52,4.98,2.31,10.01-.6,15.09-.29.54-.45,1.16-.43,1.76l.19,7.35c.02.47-.04.93-.19,1.38-2.02,6.26-5.8,9.83-11.34,10.74-2.52.41-3.96.68-4.32.78-.58.21-1.07.58-1.42,1.07-4.46,6.5-8.98,10.57-13.59,12.24-15.67,5.66-38.82,4.67-48.07-11.87-.66-1.18-1.88-1.9-3.24-1.92-6.11-.04-10.63-2.97-13.59-8.8-.89-3.2-1.14-6.61-.74-10.24.1-.97-.12-1.96-.6-2.81-3.41-6.03-1.78-9.97-.25-15.96.17-.64.08-1.34-.27-1.92-1.71-2.89-2.33-5.97-1.82-9.25.02-.78.23-1.59.58-2.4.47-1.55,1.22-2.95,2.27-4.21.83-1.05,1.86-1.9,3.08-2.54,1.67-.72,3.53-.95,5.53-.68l25.46.02M169.29,331.65c.97,1.84,1.09,3.65.39,5.41-4.85,4.46-4.71,8.47.47,12.04,1.3.97,1.61,2.73.93,5.22-2.79,2.77-2.99,5.7-.62,8.82,1.96,2.56,4.44,3.84,7.48,3.84,20.03.06,40.08.12,60.13.19,5.88.02,10.08-.62,12.58-1.88,4.19-2.13,4.81-5.76,1.9-10.92-.97-1.78-.89-3.51.23-5.22,2.6-.23,3.99-2.13,4.17-5.74.17-3.12-1.03-5.2-3.57-6.28-.7-2.17-.54-3.96.5-5.39,4.03-2.54,4.52-5.8,1.51-9.77-.89-1.18-2.27-1.86-3.74-1.86h-79.58c-1.94,0-3.72,1.07-4.63,2.81-1.96,3.74-1.34,6.65,1.86,8.73M211.8,384.26c9.4-.02,18.56-2.09,24.35-10.04.39-.54.06-1.32-.62-1.4-.33-.06-8.26-.08-23.75-.08-15.49.02-23.4.04-23.75.08-.66.1-.99.89-.6,1.42,5.78,7.93,14.95,10.01,24.37,10.01h0Z"/>
    <path class="cls-75" d="M253.87,331.73l-84.58-.08c-3.2-2.09-3.82-5-1.86-8.73.91-1.73,2.68-2.81,4.63-2.81h79.58c1.47,0,2.85.68,3.74,1.86,3.01,3.96,2.52,7.23-1.51,9.77h0Z"/>
    <path class="cls-69" d="M160.66,324.23c-.52,3.28.1,6.36,1.82,9.25.35.58.43,1.28.27,1.92-1.53,5.99-3.16,9.93.25,15.96.48.85.7,1.84.6,2.81-.39,3.63-.14,7.04.74,10.24-6.63-12.02-6.92-26.72-3.68-40.18h0Z"/>
    <path class="cls-58" d="M253.87,331.73c-1.03,1.42-1.2,3.22-.5,5.39-27.75,1.05-55.65,1.03-83.69-.06.7-1.76.58-3.57-.39-5.41l84.58.08h0Z"/>
    <path class="cls-75" d="M169.68,337.06c28.04,1.09,55.94,1.12,83.69.06,2.54,1.07,3.74,3.16,3.57,6.28-.19,3.61-1.57,5.51-4.17,5.74-27.4-1.2-54.93-1.22-82.62-.04-5.18-3.57-5.33-7.58-.47-12.04h0Z"/>
    <path class="cls-58" d="M252.77,349.14c-1.12,1.71-1.2,3.45-.23,5.22-27.59.95-54.74.93-81.46-.04.68-2.5.37-4.25-.93-5.22,27.69-1.18,55.22-1.16,82.62.04h0Z"/>
    <path class="cls-75" d="M252.54,354.36c2.91,5.16,2.29,8.8-1.9,10.92-2.5,1.26-6.69,1.9-12.58,1.88-20.05-.06-40.1-.12-60.13-.19-3.04,0-5.51-1.28-7.48-3.84-2.37-3.12-2.17-6.05.62-8.82,26.72.97,53.87.99,81.46.04h0Z"/>
    <path class="cls-71" d="M211.78,372.74c15.49,0,23.42.02,23.75.08.68.08,1.01.87.62,1.4-5.78,7.95-14.95,10.01-24.35,10.04-9.42,0-18.58-2.09-24.37-10.01-.39-.54-.06-1.32.6-1.42.35-.04,8.26-.06,23.75-.08h0Z"/>
  </g>
</svg>