<?xml version="1.0" encoding="UTF-8"?>
<svg id="Camada_1" data-name="Camada 1" xmlns="http://www.w3.org/2000/svg" xmlns:xlink="http://www.w3.org/1999/xlink" viewBox="0 0 422.07 422.07">
  <defs>
    <style>
      .cls-1 {
        fill: #020304;
      }

      .cls-2 {
        stroke: #395a2b;
      }

      .cls-2, .cls-3, .cls-4, .cls-5, .cls-6, .cls-7, .cls-8, .cls-9, .cls-10, .cls-11, .cls-12, .cls-13, .cls-14, .cls-15, .cls-16, .cls-17, .cls-18, .cls-19, .cls-20, .cls-21, .cls-22, .cls-23, .cls-24, .cls-25, .cls-26, .cls-27, .cls-28, .cls-29, .cls-30, .cls-31, .cls-32, .cls-33, .cls-34, .cls-35, .cls-36, .cls-37, .cls-38, .cls-39, .cls-40, .cls-41, .cls-42, .cls-43 {
        fill: none;
        stroke-miterlimit: 10;
      }

      .cls-44 {
        fill: #7b211d;
      }

      .cls-45 {
        fill: #f17074;
      }

      .cls-3 {
        stroke: #6b0f1d;
      }

      .cls-4 {
        stroke: #e07150;
      }

      .cls-5 {
        stroke: #a32428;
      }

      .cls-6 {
        stroke: #bd908e;
      }

      .cls-7 {
        stroke: #b42b2b;
      }

      .cls-46 {
        fill: #fff;
      }

      .cls-8 {
        stroke: #53a34a;
      }

      .cls-9 {
        stroke: #211040;
      }

      .cls-10 {
        stroke: #1b123a;
      }

      .cls-11 {
        stroke: #1a031a;
      }

      .cls-12 {
        stroke: #09020a;
      }

      .cls-13 {
        stroke: #bca79c;
      }

      .cls-47 {
        fill: #794e38;
      }

      .cls-14 {
        stroke: #651018;
      }

      .cls-48 {
        fill: #63b250;
      }

      .cls-15 {
        stroke: #f27d57;
      }

      .cls-16 {
        stroke: #761228;
      }

      .cls-49 {
        fill: #ec3539;
      }

      .cls-17 {
        stroke: #d66e3e;
      }

      .cls-18 {
        stroke: #a21d36;
      }

      .cls-50 {
        fill: #0e0106;
      }

      .cls-19 {
        stroke: #335b2a;
      }

      .cls-20 {
        stroke: #851023;
      }

      .cls-51 {
        fill: #240624;
      }

      .cls-21 {
        stroke: #210f48;
      }

      .cls-22 {
        stroke: #6b0f19;
      }

      .cls-23 {
        stroke: #1b1043;
      }

      .cls-24 {
        stroke: #da2932;
      }

      .cls-25 {
        stroke: #9d251f;
      }

      .cls-52 {
        fill: #332070;
      }

      .cls-26 {
        stroke: #693128;
      }

      .cls-53 {
        fill: #02020d;
      }

      .cls-54 {
        fill: #591317;
      }

      .cls-55 {
        fill: #ba2d1b;
      }

      .cls-56 {
        fill: #4d1504;
      }

      .cls-57 {
        fill: #f8c574;
      }

      .cls-58 {
        fill: #0f000f;
      }

      .cls-27 {
        stroke: #3b104e;
      }

      .cls-28 {
        stroke: #ac898b;
      }

      .cls-29 {
        stroke: #63321e;
      }

      .cls-30 {
        stroke: #294a25;
      }

      .cls-59 {
        fill: #8555a2;
      }

      .cls-60 {
        fill: url(#Gradiente_sem_nome_10);
      }

      .cls-31 {
        stroke: #b64949;
      }

      .cls-32 {
        stroke: #a68a82;
      }

      .cls-33 {
        stroke: #210f44;
      }

      .cls-34 {
        stroke: #ef5357;
      }

      .cls-35 {
        stroke: #60102e;
      }

      .cls-36 {
        stroke: #c12523;
      }

      .cls-37 {
        stroke: #0f010b;
      }

      .cls-38 {
        stroke: #460f28;
      }

      .cls-39 {
        stroke: #290215;
      }

      .cls-40 {
        stroke: #080205;
      }

      .cls-61 {
        fill: #43031b;
      }

      .cls-41 {
        stroke: #7d1b20;
      }

      .cls-62 {
        fill: #f2af60;
      }

      .cls-63 {
        fill: #7d1d41;
      }

      .cls-64 {
        fill: #439343;
      }

      .cls-42 {
        stroke: #331f79;
      }

      .cls-65 {
        fill: #c71d2b;
      }

      .cls-43 {
        stroke: #234b24;
      }
    </style>
    <linearGradient id="Gradiente_sem_nome_10" data-name="Gradiente sem nome 10" x1="15.59" y1="49.92" x2="371.99" y2="343.72" gradientUnits="userSpaceOnUse">
      <stop offset="0" stop-color="#331d81"/>
      <stop offset="1" stop-color="#16085e"/>
    </linearGradient>
  </defs>
  <rect class="cls-60" x="-.57" width="423.22" height="422.07"/>
  <g>
    <path class="cls-53" d="M156.16,364.81c1.4,2.69,1.54,4.1.47,4.22l-9.19,6.59c-16.67,9.76-29.16,24.77-37.48,45.07-.2,1.88-1.7,1.83-4.5-.12-.53-.37-.77-1.16-.59-1.88,5.76-21.66,25.55-40.87,41.63-50.6,1.05-.64,1.18-2.44.22-3.28M269.25,368.86l-.77-.65v-.56s1.53-2.24,1.64-2.35,1.38-2.42,1.64-2.72,4.47-3.2,4.47-3.2l1.62.91s-1.65.99-3.28,3.95,6.18,4.62,6.18,4.62c17.7,10.35,31.23,26.67,40.6,48.95.59,1.38.02,3.09-1.18,3.58-2.01.81-3.41.49-4.2-.94-8.74-20.62-21.29-35.59-37.62-44.95l-9.11-6.64"/>
    <path class="cls-59" d="M160.4,364.88c5.25,4.82,11.05,8.59,17.4,11.39,30.88,13.58,60.76,9.78,89.57-11.43.16,2.05.79,3.38,1.89,4.03-6.77,5.88-12.88,10.1-18.29,12.69-29.73,14.23-67.81,11.41-94.34-12.52,1.07-.12.93-1.53-.47-4.22l4.24.07h0Z"/>
    <path class="cls-65" d="M278.36,375.5c-9.27,13.56-21.7,22.6-37.29,27.14-22.14,6.45-43.46,5.48-63.96-2.89-12.51-5.11-22.39-13.14-29.67-24.13l9.19-6.59c26.52,23.93,64.61,26.75,94.34,12.52,5.41-2.59,11.52-6.82,18.29-12.69l9.11,6.64h0Z"/>
    <path class="cls-49" d="M147.44,375.62c7.28,10.99,17.16,19.02,29.67,24.13,20.5,8.37,41.82,9.34,63.96,2.89,15.59-4.54,28.03-13.58,37.29-27.14,16.32,9.36,28.88,24.33,37.62,44.95l-206.01.25c8.31-20.3,20.81-35.32,37.48-45.07h0Z"/>
    <path class="cls-23" d="M189.76,57.08c5.71,8.62,9.01,17.89,9.91,27.81.07.88-.93,1.41-1.62.86-12.64-10.32-26.71-19.23-42.22-26.73-.19-.1-.38-.22-.55-.33-3.99-3.08-8.43-4.25-13.31-3.46-.74.1-1.39.57-1.7,1.27-3.08,6.47-4.61,13.47-4.59,21"/>
    <path class="cls-42" d="M135.7,77.48l1.55-16.58c.02-.36-.17-.67-.45-.74l-.02-.02c-.33-.07-.67.1-.79.41-3.18,8.82-3.34,17.68-.5,26.59"/>
    <path class="cls-23" d="M135.48,87.13c1.43,2.82,2.22,5.71,2.39,8.7.02.74-.6,1.34-1.31,1.29-11.11-.79-22.53-2.82-34.21-6.12-2.82-.79-5.76.88-6.47,3.73-1.27,5.06-.33,10.18,2.82,15.31"/>
    <path class="cls-33" d="M98.69,110.04c3.73,7.91,9.05,14.57,15.96,19.97,1.08.84.93,2.51-.26,3.15-17.32,9.48-29.31,23.03-35.98,40.64-5.64,14.88-7.79,29.17-6.43,42.81.79,7.98,1.27,12.71,1.39,14.19.1.98.29,1.91.57,2.84,1.6,5.09,2.75,10.34,3.44,15.77.1.79.26,1.55.53,2.29,6.71,19.64,14.45,36.7,23.22,51.17,6.19,10.2,14.48,22,24.85,35.38"/>
    <path class="cls-21" d="M125.97,338.27l18.3,23.25c.14.19.31.36.5.53l6.07,5.16"/>
    <path class="cls-27" d="M150.84,367.2c7.22,6.9,15,12.81,23.34,17.73"/>
    <path class="cls-21" d="M275.43,362.88c27.95-29.53,49.45-63.19,64.48-100.99,11.47-28.86,14.72-58.8,4.18-88.49-5.9-16.6-17.32-29.51-34.28-38.73"/>
    <path class="cls-23" d="M309.81,134.67c-2.48-.81-3.87-1.96-4.16-3.44-.12-.6.12-1.24.65-1.6,10.75-7.62,20.38-20.16,20-33.61-.1-3.23-3.03-5.59-6.19-4.97l-34.52,6.79c-.81.17-1.51-.53-1.36-1.34,1.39-7.33,2.05-14.45,2.01-21.38-.02-8.34-2.29-15.27-6.81-20.81"/>
    <path class="cls-42" d="M279.42,54.3l-6.28-3.44c-.69-.38-1.53-.41-2.22-.02-7.91,4.23-15.29,7.31-22.12,9.27-18.56,5.33-25.78-9.39-31.8-23.65-.69-1.67-1.55-3.25-2.56-4.75l-2.51-3.75c-.48-.72-1.24-1.19-2.1-1.29l-7.76-1.03c-1.05-.14-2.13.17-2.96.84l-14.84,11.66c-2.58,2.03-3.2,5.71-1.39,8.46l6.88,10.49"/>
    <path class="cls-10" d="M279.42,54.3c-3.27.14-5.85.74-7.76,1.77-16.56,8.96-31.61,17.85-45.11,26.66-.76.5-1.79,0-1.86-.91-1.12-15.89-4.44-30.17-9.96-42.86-6.98-16.01-23.25-8.5-29.65,2.27-.38.67-.57,1.46-.53,2.25.33,4.73,2.08,9.27,5.21,13.59"/>
    <path class="cls-12" d="M309.81,134.67c-.55,2.22-1.6,4.18-3.13,5.92"/>
    <line class="cls-14" x1="306.68" y1="140.6" x2="295.53" y2="135.01"/>
    <path class="cls-40" d="M295.53,135.01c-.74-2.6-.86-4.9-.41-6.9"/>
    <path class="cls-43" d="M295.12,128.1c10.92-5.23,18.44-12.78,22.58-22.7"/>
    <path class="cls-19" d="M317.7,105.41c1.22-1.7,1.86-3.49,1.98-5.38.02-.65-.53-1.15-1.15-1.05l-33.4,5.04c-1.65.26-3.25.81-4.68,1.67l-14.21,8.53"/>
    <path class="cls-43" d="M266.23,114.22c-1.17-1.79-.43-4.06,2.25-6.81,2.53-2.6,4.18-4.56,4.92-5.9,4.8-8.74,6.62-18.06,5.45-27.98"/>
    <path class="cls-19" d="M278.85,73.54c.24-4.11-.53-7.5-2.27-10.18-.38-.57-1.15-.79-1.74-.45-17.85,9.2-30.1,16.03-36.79,20.45-7.53,4.95-14.53,12.14-20.98,21.53"/>
    <path class="cls-43" d="M217.07,104.88c-2.41,1.12-5.21,1.72-8.34,1.77"/>
    <path class="cls-19" d="M208.73,106.65c-4.63-4.73-8.74-9.32-12.3-13.74-2.53-3.15-9.46-7.96-20.76-14.43-9.17-5.26-18.49-10.44-27.93-15.55-1.27-.67-2.84.02-3.2,1.43l-1.82,7.48"/>
    <path class="cls-43" d="M142.72,71.84c-2.03,15.91,4.23,29.89,15.1,41.19.67.69-.05,1.79-.96,1.48l-5.3-1.82"/>
    <path class="cls-19" d="M151.56,112.69c-10.2-8.53-17.8-9.51-31.99-10.82-5.97-.57-10.01-1.91-14.53-2.94-.6-.12-1.22.12-1.53.65-.6.98-.57,2.34.07,4.09"/>
    <path class="cls-40" d="M103.59,103.66c-2.13,1.36-3.75,3.49-4.9,6.38"/>
    <line class="cls-10" x1="135.48" y1="87.13" x2="135.7" y2="77.48"/>
    <path class="cls-30" d="M107.19,111.43c4.63,7.12,10.73,12.26,18.25,15.41.69.29,1.46.36,2.2.19l22.86-5.02"/>
    <line class="cls-22" x1="295.53" y1="135.01" x2="284.7" y2="131.85"/>
    <path class="cls-41" d="M284.7,131.85c-22.5-6.04-47.4-8.77-74.66-8.15-23.05.53-41.09,1.89-54.09,4.09-11.2,1.91-26.06,6.33-33.83,10.01-48.19,22.84-50.29,74.04-34.09,119.12,6.76,18.75,14.79,34.74,24.11,47.95"/>
    <path class="cls-22" d="M112.14,304.87c4.56,9.44,9.99,18.2,16.32,26.28"/>
    <path class="cls-37" d="M128.46,331.15l18.49,24.94c.31.43.14,1.03-.33,1.24-.33.14-.67.19-1,.12-.22-.02-.43-.14-.57-.29l-19.07-18.9"/>
    <line class="cls-9" x1="275.43" y1="362.88" x2="256.01" y2="379.67"/>
    <path class="cls-39" d="M174.18,384.93c-6.62-7.6-14.38-13.5-23.34-17.73M148.5,353.44c6.93,10.85,16.05,18.78,27.4,23.8"/>
    <line class="cls-38" x1="175.9" y1="377.24" x2="184.38" y2="381.85"/>
    <path class="cls-11" d="M195.11,386.89c8.27,4.73,17.61,5.21,28.02,1.46"/>
    <path class="cls-38" d="M235.63,383.66c10.23-5.14,19.47-11.61,27.74-19.42"/>
    <path class="cls-8" d="M266.23,114.22c-2.65.93-3.73,2.32-3.25,4.13.19.79.88,1.34,1.67,1.36,13.74.55,24.23-1.41,37.7-7.6,5.02-2.32,10.13-4.54,15.34-6.71"/>
    <path class="cls-30" d="M295.12,128.1c-43.29-11.97-87.54-14.65-132.74-8.03"/>
    <path class="cls-8" d="M162.38,120.08l-10.82-7.38M208.73,106.65c-29.6,3.87-51.6-7.74-66.01-34.81"/>
    <path class="cls-3" d="M306.68,140.6c18.13,10.23,29.58,25.04,34.31,44.41,6.79,27.71.17,54.14-10.99,82.38-5.69,14.36-11.59,26.38-17.73,36.03-14.93,23.48-29.1,42.86-48.9,60.83"/>
    <path class="cls-18" d="M263.37,364.24l1.74-3.03c.17-.29-.17-.6-.45-.41-10.44,7.05-19.06,12.4-25.92,16.05-11.25,5.97-22.77,7.96-36.12,7.96,11.37.17,21.81.31,33.02-1.15"/>
    <line class="cls-3" x1="235.63" y1="383.66" x2="223.14" y2="388.35"/>
    <path class="cls-16" d="M223.14,388.35c-9.6,1.77-18.95,1.29-28.02-1.46"/>
    <line class="cls-3" x1="195.11" y1="386.89" x2="184.38" y2="381.85"/>
    <path class="cls-18" d="M184.38,381.85c11.01,3.99,22.39,5.97,34.12,5.9.5,0,.91-.41.88-.91v-.05c-.02-.5-.43-.91-.93-.88-16.6.57-26.07-4.13-39.44-10.06"/>
    <path class="cls-20" d="M179.01,375.85c-6.36-1.27-11.63-4.25-15.82-8.98.07-1.05-.33-1.72-1.24-2.01-3.97-1.22-10.25-8.36-13.45-11.42"/>
    <line class="cls-3" x1="148.5" y1="353.44" x2="128.46" y2="331.15"/>
    <path class="cls-4" d="M160.14,338.96c.88,2.87,2.6,5.52,5.16,7.93,1.29,1.19,3.23,1.34,4.66.33.5-.36.98-1.08,1.41-2.2"/>
    <line class="cls-2" x1="162.38" y1="120.08" x2="150.51" y2="122.01"/>
    <line class="cls-8" x1="150.51" y1="122.01" x2="107.19" y2="111.43"/>
    <line class="cls-2" x1="107.19" y1="111.43" x2="103.59" y2="103.66"/>
    <path class="cls-8" d="M278.85,73.54l-.33,4.3c-.07.69-.41,1.36-.98,1.82-3.94,3.13-9.63,8.51-17.06,16.08-11.44,11.68-25.92,14.72-43.41,9.15"/>
    <path class="cls-24" d="M284.7,131.85c13.79,8.74,22.84,21.76,27.16,39.04,3.89,15.65,4.42,29.84,1.58,42.53-2.75,12.26-6.24,24.58-10.46,36.98-2.65,7.79-5.42,14.17-8.36,19.16-8.84,14.96-17.75,27.74-26.73,38.37-20.55,24.3-48.14,39.87-80.3,37.8-5.45-.36-10.85-.57-16.22-.69"/>
    <path class="cls-15" d="M171.36,345.03c.1-3.03-.76-6.35-2.6-9.99-1.41-2.77-4.9-3.75-7.53-2.1-1.29.79-1.65,2.8-1.1,6.02"/>
    <path class="cls-24" d="M160.14,338.96c-5.88-1.84-10.46-3.87-13.74-6.04-10.44-6.93-21.86-16.27-34.26-28.05"/>
    <path class="cls-35" d="M179.01,375.85c-.79.79-1.82,1.27-3.11,1.39"/>
    <path class="cls-42" d="M301.05,337.2c-.32-.22-1.27.69-2.12,1.99-.85,1.31-1.28,2.53-.95,2.74.32.22,1.27-.69,2.12-1.99.85-1.31,1.28-2.53.95-2.74"/>
    <path class="cls-19" d="M213.48,97.02c2.37-1.08,3.92-3.37,4.01-5.95.72-18.3-2.22-35.22-8.79-50.77-1.65-3.92-6.45-5.35-9.99-2.99l-3.58,2.39c-3.61,2.39-4.49,7.31-1.96,10.8,9.17,12.69,14.48,27.38,15.91,44.13.17,2.05,2.34,3.32,4.23,2.46l.17-.07"/>
    <path class="cls-15" d="M180.3,141.05c-2.41-.64-5.33,2.42-6.51,6.86-1.18,4.44-.2,8.55,2.21,9.2,2.41.64,5.33-2.42,6.51-6.86,1.18-4.44.2-8.55-2.21-9.2M243.15,140.95c-2.43.53-3.63,4.47-2.69,8.81.95,4.33,3.69,7.42,6.13,6.87,2.43-.53,3.63-4.47,2.69-8.81-.95-4.33-3.69-7.42-6.13-6.87"/>
    <path class="cls-7" d="M135.15,183.91c-.41,7.38,4.61,8.31,10.58,6.24,7.05-2.46,14.74-3.61,23.08-3.44,2.94.07,5.42-2.17,5.61-5.11l.02-.24c.19-2.87-1.86-5.4-4.71-5.81-8.67-1.22-16.75-.55-24.18,2.01"/>
    <path class="cls-34" d="M145.56,177.56c2.56-4.25,5.23-8.24,7.98-11.95,1.94-2.58,3.01-5.69,3.23-9.32,1.08-17.27-21.12-7.24-27.09-3.2-6.33,4.28-10.27,6.76-11.85,7.41-.6.26-1.15.6-1.65,1.03-6.64,5.69-17.99,20.83-15.77,30.6,1.6,7.07,11.44,6.16,15.89,2.8,2.91-2.17,6.14-2.7,8.67-6.76.38-.62.98-1.1,1.65-1.34l8.53-2.91"/>
    <path class="cls-31" d="M145.56,177.56c-4.32,1.12-7.79,3.25-10.42,6.35"/>
    <path class="cls-15" d="M299.18,156.35c-2.41.62-3.41,4.77-2.24,9.27,1.17,4.49,4.06,7.64,6.45,7.02,2.41-.62,3.41-4.77,2.24-9.27-1.17-4.49-4.06-7.64-6.45-7.02"/>
    <path class="cls-5" d="M269.48,176.17c-5.61-1.12-12.71-1.84-18.25.43-3.8,1.53-3.23,6.74-.48,8.77.69.5,2.39.81,5.11.93,5.14.22,8.91.55,11.35,1.05,2.44.48,6.07,1.62,10.89,3.42,2.56.96,4.23,1.31,5.06,1.12,3.32-.81,5.85-5.38,2.96-8.27-4.25-4.23-11.06-6.33-16.65-7.45"/>
    <path class="cls-15" d="M210.44,177.23c-2.4.13-4.17,3.98-3.93,8.63.23,4.64,2.38,8.3,4.81,8.17,2.4-.13,4.17-3.98,3.93-8.63-.23-4.64-2.38-8.3-4.81-8.17"/>
    <path class="cls-7" d="M191.27,234.37c0-18.97-15.36-34.33-34.33-34.33s-34.33,15.36-34.33,34.33,15.36,34.33,34.33,34.33,34.33-15.36,34.33-34.33"/>
    <path class="cls-5" d="M298.97,234.42c0-18.87-15.29-34.16-34.16-34.16s-34.16,15.29-34.16,34.16,15.29,34.16,34.16,34.16,34.16-15.29,34.16-34.16"/>
    <path class="cls-15" d="M99.05,224c1.82,0,3.3-2.65,4.42-7.96.76-3.58-.05-9.37-4.35-9.39-4.3,0-5.16,5.76-4.44,9.34,1.1,5.33,2.56,7.98,4.37,8M122.18,276.53c-2.54.91-3.31,5.21-1.73,9.59,1.58,4.39,4.92,7.19,7.44,6.28,2.54-.91,3.31-5.21,1.73-9.59-1.58-4.39-4.92-7.19-7.44-6.28"/>
    <path class="cls-25" d="M210.59,334.11c21.05.19,41.47-9.89,50.91-29.58,4.99-10.39,7.38-29.1-10.97-24.66-13.45,3.25-25.9,6.04-39.49,5.92-13.62-.12-26.02-3.15-39.37-6.67-18.28-4.78-16.25,13.98-11.44,24.46,9.08,19.85,29.31,30.32,50.36,30.51"/>
    <path class="cls-4" d="M325.91,207.78l-5.14-.45c-1.05-.1-1.98.67-2.08,1.72l-.33,3.77c-.55,6.02,1,11.06,3.44,11.28l.05.02c2.46.22,4.9-4.47,5.45-10.49l.36-3.77c.1-1.05-.69-1.98-1.74-2.08M301.33,276.2c-2.41-.83-5.59,2.01-7.08,6.33-1.49,4.33-.73,8.51,1.68,9.35,2.41.83,5.59-2.01,7.08-6.33,1.49-4.33.73-8.51-1.68-9.35M260.9,332.99c-2.36-1.17-5.94,1.25-8,5.38-2.08,4.15-1.84,8.45.51,9.63,2.36,1.17,5.94-1.24,8-5.38,2.08-4.15,1.84-8.45-.51-9.63"/>
    <path class="cls-36" d="M216.95,374.04l2.84-12.81c.07-.31.02-.67-.14-.96-3.15-5.47-7.79-7.88-13.88-7.22-.74.1-1.34.62-1.51,1.31-1.39,5.81-1.74,11.56-1.08,17.32.1.81.69,1.48,1.48,1.65l9.91,2.2c1.07.24,2.13-.43,2.37-1.51"/>
    <path class="cls-6" d="M150.7,206.53c-15.12,3.44-24.53,18.76-21.02,34.2,3.51,15.45,18.61,25.2,33.73,21.76,15.12-3.44,24.53-18.76,21.02-34.2-3.51-15.45-18.61-25.2-33.73-21.76"/>
    <path class="cls-28" d="M258.41,206.65c-15.13,3.55-24.47,18.86-20.89,34.2,3.6,15.34,18.78,24.89,33.91,21.35,15.13-3.55,24.47-18.86,20.89-34.2-3.6-15.34-18.78-24.89-33.91-21.35"/>
    <path class="cls-6" d="M177.91,235.33c0-8.36-6.76-15.12-15.12-15.12s-15.12,6.76-15.12,15.12,6.76,15.12,15.12,15.12,15.12-6.76,15.12-15.12M274.05,235.52c0-8.19-6.64-14.84-14.84-14.84s-14.84,6.64-14.84,14.84,6.64,14.84,14.84,14.84,14.84-6.64,14.84-14.84"/>
    <path class="cls-32" d="M174.49,311.99c8.96,9.87,21,14.88,36.15,15.03,15.6.14,28.12-4.85,37.56-14.98"/>
    <path class="cls-29" d="M248.2,312.04c5.11-5.14,8.79-12.33,11.01-21.6.45-1.89-.79-3.77-3.68-5.66"/>
    <path class="cls-32" d="M255.53,284.78c-29.27,9.48-58.82,9.48-88.61.05"/>
    <path class="cls-29" d="M166.92,284.83c-3.23,3.18-4.23,6.78-3.01,10.82,2.13,7.1,5.66,12.54,10.58,16.34"/>
    <path class="cls-13" d="M166.92,284.83c1.7,10.77,8.15,16.87,19.35,18.23"/>
    <path class="cls-26" d="M186.27,303.06l-5.57.12c-.96.02-1.29,1.27-.48,1.79l6.12,3.89"/>
    <path class="cls-13" d="M186.34,308.86c-5.21-1.39-9.15-.33-11.85,3.13"/>
    <path class="cls-28" d="M242.7,308.12c-18.83,2.32-37.6,2.58-56.36.74"/>
    <path class="cls-13" d="M255.53,284.78c-.72,7.19-4.2,12.54-10.46,16.05"/>
    <path class="cls-28" d="M245.07,300.83c-19.23,5.42-38.85,6.16-58.8,2.22"/>
    <path class="cls-13" d="M248.2,312.04c-1.41-1.79-3.23-3.11-5.49-3.92"/>
    <path class="cls-26" d="M242.7,308.12c1.94-2.34,2.72-4.78,2.37-7.29"/>
    <path class="cls-17" d="M212.98,357.72l-5.02.1c-1,.02-1.82.88-1.79,1.89l.1,4.04c.12,5.64,2.15,10.18,4.54,10.13h.1c2.37-.05,4.18-4.68,4.06-10.32l-.1-4.04c-.02-1.03-.86-1.82-1.89-1.79"/>
    <path class="cls-52" d="M279.42,54.3c-3.27.14-5.85.74-7.76,1.77-16.56,8.96-31.61,17.85-45.11,26.66-.76.5-1.79,0-1.86-.91-1.12-15.89-4.44-30.17-9.96-42.86-6.98-16.01-23.25-8.5-29.65,2.27-.38.67-.57,1.46-.53,2.25.33,4.73,2.08,9.27,5.21,13.59l-6.88-10.49c-1.82-2.75-1.19-6.43,1.39-8.46l14.84-11.66c.84-.67,1.91-.98,2.96-.84l7.76,1.03c.86.1,1.62.57,2.1,1.29l2.51,3.75c1,1.51,1.86,3.08,2.56,4.75,6.02,14.26,13.24,28.98,31.8,23.65,6.83-1.96,14.22-5.04,22.12-9.27.69-.38,1.53-.36,2.22.02l6.28,3.44h0Z"/>
    <path class="cls-1" d="M279.42,54.3c4.52,5.54,6.78,12.47,6.81,20.81.05,6.93-.62,14.05-2.01,21.38-.14.81.55,1.51,1.36,1.34l34.52-6.79c3.15-.62,6.09,1.74,6.19,4.97.38,13.45-9.25,25.99-20,33.61-.53.36-.76,1-.65,1.6.29,1.48,1.67,2.63,4.16,3.44-.55,2.22-1.6,4.18-3.13,5.92l-11.16-5.59c-.74-2.6-.86-4.9-.41-6.9,10.92-5.23,18.44-12.78,22.58-22.7,1.22-1.7,1.86-3.49,1.98-5.38.02-.65-.53-1.15-1.15-1.05l-33.4,5.04c-1.65.26-3.25.81-4.68,1.67l-14.21,8.53c-1.17-1.79-.43-4.06,2.25-6.81,2.53-2.6,4.18-4.56,4.92-5.9,4.8-8.74,6.62-18.06,5.45-27.98.24-4.11-.53-7.5-2.27-10.18-.38-.57-1.15-.79-1.74-.45-17.85,9.2-30.1,16.03-36.79,20.45-7.53,4.95-14.53,12.14-20.98,21.53-2.41,1.12-5.21,1.72-8.34,1.77-4.63-4.73-8.74-9.32-12.3-13.74-2.53-3.15-9.46-7.96-20.76-14.43-9.17-5.26-18.49-10.44-27.93-15.55-1.27-.67-2.84.02-3.2,1.43l-1.82,7.48c-2.03,15.91,4.23,29.89,15.1,41.19.67.69-.05,1.79-.96,1.48l-5.3-1.82c-10.2-8.53-17.8-9.51-31.99-10.82-5.97-.57-10.01-1.91-14.53-2.94-.6-.12-1.22.12-1.53.65-.6.98-.57,2.34.07,4.09-2.13,1.36-3.75,3.49-4.9,6.38-3.15-5.14-4.09-10.25-2.82-15.31.72-2.84,3.66-4.52,6.47-3.73,11.68,3.3,23.1,5.33,34.21,6.12.72.05,1.34-.55,1.31-1.29-.17-2.99-.96-5.88-2.39-8.7l.22-9.65c-.02-7.53,1.51-14.53,4.59-21,.31-.69.96-1.17,1.7-1.27,4.87-.79,9.32.38,13.31,3.46.17.12.36.24.55.33,15.51,7.5,29.58,16.41,42.22,26.73.69.55,1.7.02,1.62-.86-.91-9.91-4.2-19.18-9.91-27.81-3.13-4.32-4.87-8.86-5.21-13.59-.05-.79.14-1.58.53-2.25,6.4-10.77,22.67-18.28,29.65-2.27,5.52,12.69,8.84,26.97,9.96,42.86.07.91,1.1,1.41,1.86.91,13.5-8.82,28.55-17.7,45.11-26.66,1.91-1.03,4.49-1.62,7.76-1.77M213.48,97.02c2.37-1.08,3.92-3.37,4.01-5.95.72-18.3-2.22-35.22-8.79-50.77-1.65-3.92-6.45-5.35-9.99-2.99l-3.58,2.39c-3.61,2.39-4.49,7.31-1.96,10.8,9.17,12.69,14.48,27.38,15.91,44.13.17,2.05,2.34,3.32,4.23,2.46l.17-.07h0Z"/>
    <path class="cls-48" d="M213.48,97.02l-.17.07c-1.89.86-4.06-.41-4.23-2.46-1.43-16.75-6.74-31.44-15.91-44.13-2.53-3.49-1.65-8.41,1.96-10.8l3.58-2.39c3.54-2.37,8.34-.93,9.99,2.99,6.57,15.55,9.51,32.47,8.79,50.77-.1,2.58-1.65,4.87-4.01,5.95h0Z"/>
    <path class="cls-52" d="M135.7,77.48l-.22,9.65c-2.84-8.91-2.68-17.77.5-26.59.12-.31.45-.48.79-.41l.02.02c.29.07.48.38.45.74l-1.55,16.58h0Z"/>
    <path class="cls-48" d="M208.73,106.65c-29.6,3.87-51.6-7.74-66.01-34.81l1.82-7.48c.36-1.41,1.94-2.1,3.2-1.43,9.44,5.11,18.75,10.3,27.93,15.55,11.3,6.47,18.23,11.28,20.76,14.43,3.56,4.42,7.67,9.01,12.3,13.74h0Z"/>
    <path class="cls-48" d="M278.85,73.54l-.33,4.3c-.07.69-.41,1.36-.98,1.82-3.94,3.13-9.63,8.51-17.06,16.08-11.44,11.68-25.92,14.72-43.41,9.15,6.45-9.39,13.45-16.58,20.98-21.53,6.69-4.42,18.95-11.25,36.79-20.45.6-.33,1.36-.12,1.74.45,1.74,2.68,2.51,6.07,2.27,10.18h0Z"/>
    <path class="cls-64" d="M142.72,71.84c14.41,27.07,36.41,38.68,66.01,34.81,3.13-.05,5.92-.65,8.34-1.77,17.49,5.57,31.97,2.53,43.41-9.15,7.43-7.57,13.12-12.95,17.06-16.08.57-.45.91-1.12.98-1.82l.33-4.3c1.17,9.91-.64,19.23-5.45,27.98-.74,1.34-2.39,3.3-4.92,5.9-2.68,2.75-3.42,5.02-2.25,6.81-2.65.93-3.73,2.32-3.25,4.13.19.79.88,1.34,1.67,1.36,13.74.55,24.23-1.41,37.7-7.6,5.02-2.32,10.13-4.54,15.34-6.71-4.13,9.91-11.66,17.46-22.58,22.7-43.29-11.97-87.54-14.65-132.74-8.03l-10.82-7.38,5.3,1.82c.91.31,1.62-.79.96-1.48-10.87-11.3-17.13-25.28-15.1-41.19h0Z"/>
    <path class="cls-48" d="M317.7,105.41c-5.21,2.17-10.32,4.4-15.34,6.71-13.47,6.19-23.96,8.15-37.7,7.6-.79-.02-1.48-.57-1.67-1.36-.48-1.82.6-3.2,3.25-4.13l14.21-8.53c1.43-.86,3.03-1.41,4.68-1.67l33.4-5.04c.62-.1,1.17.41,1.15,1.05-.12,1.89-.76,3.68-1.98,5.38h0Z"/>
    <path class="cls-48" d="M151.56,112.69l10.82,7.38-11.87,1.94-43.31-10.58-3.61-7.76c-.65-1.74-.67-3.11-.07-4.09.31-.53.93-.76,1.53-.65,4.52,1.03,8.55,2.37,14.53,2.94,14.19,1.31,21.79,2.29,31.99,10.82h0Z"/>
    <path class="cls-50" d="M103.59,103.66l3.61,7.76c4.63,7.12,10.73,12.26,18.25,15.41.69.29,1.46.36,2.2.19l22.86-5.02,11.87-1.94c45.2-6.62,89.45-3.94,132.74,8.03-.45,2.01-.33,4.3.41,6.9l-10.82-3.15c-22.5-6.04-47.4-8.77-74.66-8.15-23.05.53-41.09,1.89-54.09,4.09-11.2,1.91-26.06,6.33-33.83,10.01-48.19,22.84-50.29,74.04-34.09,119.12,6.76,18.75,14.79,34.74,24.11,47.95,4.56,9.44,9.99,18.2,16.32,26.28l18.49,24.94c.31.43.14,1.03-.33,1.24-.33.14-.67.19-1,.12-.22-.02-.43-.14-.57-.29l-19.07-18.9c-10.37-13.38-18.66-25.18-24.85-35.38-8.77-14.48-16.51-31.54-23.22-51.17-.26-.74-.43-1.51-.53-2.29-.69-5.42-1.84-10.68-3.44-15.77-.29-.93-.48-1.86-.57-2.84-.12-1.48-.6-6.21-1.39-14.19-1.36-13.64.79-27.93,6.43-42.81,6.67-17.61,18.66-31.15,35.98-40.64,1.19-.64,1.34-2.32.26-3.15-6.9-5.4-12.23-12.06-15.96-19.97,1.15-2.89,2.77-5.02,4.9-6.38h0Z"/>
    <path class="cls-64" d="M150.51,122.01l-22.86,5.02c-.74.17-1.51.1-2.2-.19-7.53-3.15-13.62-8.29-18.25-15.41l43.31,10.58h0Z"/>
    <path class="cls-49" d="M284.7,131.85c13.79,8.74,22.84,21.76,27.16,39.04,3.89,15.65,4.42,29.84,1.58,42.53-2.75,12.26-6.24,24.58-10.46,36.98-2.65,7.79-5.42,14.17-8.36,19.16-8.84,14.96-17.75,27.74-26.73,38.37-20.55,24.3-48.14,39.87-80.3,37.8-5.45-.36-10.85-.57-16.22-.69.1-3.03-.76-6.35-2.6-9.99-1.41-2.77-4.9-3.75-7.53-2.1-1.29.79-1.65,2.8-1.1,6.02-5.88-1.84-10.46-3.87-13.74-6.04-10.44-6.93-21.86-16.27-34.26-28.05-9.32-13.21-17.34-29.19-24.11-47.95-16.2-45.08-14.1-96.28,34.09-119.12,7.76-3.68,22.62-8.1,33.83-10.01,13-2.2,31.03-3.56,54.09-4.09,27.26-.62,52.15,2.1,74.66,8.15M180.3,141.05c-2.41-.64-5.33,2.42-6.51,6.86-1.18,4.44-.2,8.55,2.21,9.2,2.41.64,5.33-2.42,6.51-6.86,1.18-4.44.2-8.55-2.21-9.2M243.15,140.95c-2.43.53-3.63,4.47-2.69,8.81.95,4.33,3.69,7.42,6.13,6.87,2.43-.53,3.63-4.47,2.69-8.81-.95-4.33-3.69-7.42-6.13-6.87M135.15,183.91c-.41,7.38,4.61,8.31,10.58,6.24,7.05-2.46,14.74-3.61,23.08-3.44,2.94.07,5.42-2.17,5.61-5.11l.02-.24c.19-2.87-1.86-5.4-4.71-5.81-8.67-1.22-16.75-.55-24.18,2.01,2.56-4.25,5.23-8.24,7.98-11.95,1.94-2.58,3.01-5.69,3.23-9.32,1.08-17.27-21.12-7.24-27.09-3.2-6.33,4.28-10.27,6.76-11.85,7.41-.6.26-1.15.6-1.65,1.03-6.64,5.69-17.99,20.83-15.77,30.6,1.6,7.07,11.44,6.16,15.89,2.8,2.91-2.17,6.14-2.7,8.67-6.76.38-.62.98-1.1,1.65-1.34l8.53-2.91M299.18,156.35c-2.41.62-3.41,4.77-2.24,9.27,1.17,4.49,4.06,7.64,6.45,7.02,2.41-.62,3.41-4.77,2.24-9.27-1.17-4.49-4.06-7.64-6.45-7.02M269.48,176.17c-5.61-1.12-12.71-1.84-18.25.43-3.8,1.53-3.23,6.74-.48,8.77.69.5,2.39.81,5.11.93,5.14.22,8.91.55,11.35,1.05,2.44.48,6.07,1.62,10.89,3.42,2.56.96,4.23,1.31,5.06,1.12,3.32-.81,5.85-5.38,2.96-8.27-4.25-4.23-11.06-6.33-16.65-7.45M210.44,177.23c-2.4.13-4.17,3.98-3.93,8.63.23,4.64,2.38,8.3,4.81,8.17,2.4-.13,4.17-3.98,3.93-8.63-.23-4.64-2.38-8.3-4.81-8.17M191.27,234.37c0-18.97-15.36-34.33-34.33-34.33s-34.33,15.36-34.33,34.33,15.36,34.33,34.33,34.33,34.33-15.36,34.33-34.33M298.97,234.42c0-18.87-15.29-34.16-34.16-34.16s-34.16,15.29-34.16,34.16,15.29,34.16,34.16,34.16,34.16-15.29,34.16-34.16M99.05,224c1.82,0,3.3-2.65,4.42-7.96.76-3.58-.05-9.37-4.35-9.39-4.3,0-5.16,5.76-4.44,9.34,1.1,5.33,2.56,7.98,4.37,8M122.18,276.53c-2.54.91-3.31,5.21-1.73,9.59,1.58,4.39,4.92,7.19,7.44,6.28,2.54-.91,3.31-5.21,1.73-9.59-1.58-4.39-4.92-7.19-7.44-6.28M210.59,334.11c21.05.19,41.47-9.89,50.91-29.58,4.99-10.39,7.38-29.1-10.97-24.66-13.45,3.25-25.9,6.04-39.49,5.92-13.62-.12-26.02-3.15-39.37-6.67-18.28-4.78-16.25,13.98-11.44,24.46,9.08,19.85,29.31,30.32,50.36,30.51h0Z"/>
    <path class="cls-65" d="M295.53,135.01l11.16,5.59c18.13,10.23,29.58,25.04,34.31,44.41,6.79,27.71.17,54.14-10.99,82.38-5.69,14.36-11.59,26.38-17.73,36.03-14.93,23.48-29.1,42.86-48.9,60.83l1.74-3.03c.17-.29-.17-.6-.45-.41-10.44,7.05-19.06,12.4-25.92,16.05-11.25,5.97-22.77,7.96-36.12,7.96,11.37.17,21.81.31,33.02-1.15l-12.5,4.68c-9.6,1.77-18.95,1.29-28.02-1.46l-10.73-5.04c11.01,3.99,22.39,5.97,34.12,5.9.5,0,.91-.41.88-.91v-.05c-.02-.5-.43-.91-.93-.88-16.6.57-26.07-4.13-39.44-10.06-6.36-1.27-11.63-4.25-15.82-8.98.07-1.05-.33-1.72-1.24-2.01-3.97-1.22-10.25-8.36-13.45-11.42l-20.04-22.29c-6.33-8.08-11.75-16.84-16.32-26.28,12.4,11.78,23.82,21.12,34.26,28.05,3.27,2.17,7.86,4.2,13.74,6.04.88,2.87,2.6,5.52,5.16,7.93,1.29,1.19,3.23,1.34,4.66.33.5-.36.98-1.08,1.41-2.2,5.38.12,10.77.33,16.22.69,32.16,2.08,59.75-13.5,80.3-37.8,8.98-10.63,17.89-23.41,26.73-38.37,2.94-4.99,5.71-11.37,8.36-19.16,4.23-12.4,7.72-24.73,10.46-36.98,2.84-12.69,2.32-26.88-1.58-42.53-4.32-17.27-13.38-30.29-27.16-39.04l10.82,3.15M325.91,207.78l-5.14-.45c-1.05-.1-1.98.67-2.08,1.72l-.33,3.77c-.55,6.02,1,11.06,3.44,11.28l.05.02c2.46.22,4.9-4.47,5.45-10.49l.36-3.77c.1-1.05-.69-1.98-1.74-2.08M301.33,276.2c-2.41-.83-5.59,2.01-7.08,6.33-1.49,4.33-.73,8.51,1.68,9.35,2.41.83,5.59-2.01,7.08-6.33,1.49-4.33.73-8.51-1.68-9.35M260.9,332.99c-2.36-1.17-5.94,1.25-8,5.38-2.08,4.15-1.84,8.45.51,9.63,2.36,1.17,5.94-1.24,8-5.38,2.08-4.15,1.84-8.45-.51-9.63M216.95,374.04l2.84-12.81c.07-.31.02-.67-.14-.96-3.15-5.47-7.79-7.88-13.88-7.22-.74.1-1.34.62-1.51,1.31-1.39,5.81-1.74,11.56-1.08,17.32.1.81.69,1.48,1.48,1.65l9.91,2.2c1.07.24,2.13-.43,2.37-1.51h0Z"/>
    <path class="cls-58" d="M275.43,362.88l-19.42,16.8c-3.7,2.41-7.48,4.73-11.37,6.98-23.53,13.64-47.02,13.07-70.45-1.72-6.62-7.6-14.38-13.5-23.34-17.73l-6.07-5.16c-.19-.17-.36-.33-.5-.53l-18.3-23.25,19.07,18.9c.14.14.36.26.57.29.33.07.67.02,1-.12.48-.22.64-.81.33-1.24l-18.49-24.94,20.04,22.29c6.93,10.85,16.05,18.78,27.4,23.8l8.48,4.61,10.73,5.04c8.27,4.73,17.61,5.21,28.02,1.46l12.5-4.68c10.23-5.14,19.47-11.61,27.74-19.42,19.81-17.97,33.97-37.34,48.9-60.83,6.14-9.65,12.04-21.67,17.73-36.03,11.16-28.24,17.77-54.66,10.99-82.38-4.73-19.38-16.17-34.19-34.31-44.41,1.53-1.74,2.58-3.7,3.13-5.92,16.96,9.22,28.38,22.12,34.28,38.73,10.54,29.7,7.29,59.63-4.18,88.49-15.03,37.8-36.53,71.46-64.48,100.99h0Z"/>
    <path class="cls-57" d="M180.3,141.05c2.41.65,3.39,4.76,2.21,9.2-1.18,4.45-4.1,7.5-6.51,6.86-2.41-.65-3.39-4.76-2.21-9.2,1.18-4.45,4.1-7.5,6.51-6.86h0Z"/>
    <path class="cls-57" d="M243.15,140.95c2.44-.55,5.19,2.54,6.13,6.87.94,4.34-.25,8.28-2.69,8.81-2.44.55-5.19-2.54-6.13-6.87-.94-4.34.25-8.28,2.69-8.81h0Z"/>
    <path class="cls-45" d="M145.56,177.56c-4.32,1.12-7.79,3.25-10.42,6.35l-8.53,2.91c-.67.24-1.27.72-1.65,1.34-2.53,4.06-5.76,4.59-8.67,6.76-4.44,3.37-14.29,4.28-15.89-2.8-2.22-9.77,9.13-24.92,15.77-30.6.5-.43,1.05-.76,1.65-1.03,1.58-.65,5.52-3.13,11.85-7.41,5.97-4.04,28.17-14.07,27.09,3.2-.22,3.63-1.29,6.74-3.23,9.32-2.75,3.7-5.42,7.69-7.98,11.95h0Z"/>
    <path class="cls-57" d="M299.18,156.35c2.39-.63,5.28,2.53,6.45,7.02,1.17,4.49.17,8.65-2.24,9.27-2.39.63-5.28-2.53-6.45-7.02-1.17-4.49-.17-8.65,2.24-9.27h0Z"/>
    <path class="cls-44" d="M135.15,183.91c2.63-3.11,6.09-5.23,10.42-6.35,7.43-2.56,15.51-3.23,24.18-2.01,2.84.41,4.9,2.94,4.71,5.81l-.02.24c-.19,2.94-2.68,5.18-5.61,5.11-8.34-.17-16.03.98-23.08,3.44-5.97,2.08-10.99,1.15-10.58-6.24h0Z"/>
    <path class="cls-54" d="M269.48,176.17c5.59,1.12,12.4,3.23,16.65,7.45,2.89,2.89.36,7.45-2.96,8.27-.84.19-2.51-.17-5.06-1.12-4.83-1.79-8.46-2.94-10.89-3.42-2.44-.5-6.21-.84-11.35-1.05-2.72-.12-4.42-.43-5.11-.93-2.75-2.03-3.32-7.24.48-8.77,5.54-2.27,12.64-1.55,18.25-.43h0Z"/>
    <path class="cls-57" d="M210.44,177.23c2.42-.13,4.57,3.52,4.81,8.17.24,4.65-1.52,8.5-3.93,8.63-2.42.13-4.57-3.52-4.81-8.17-.24-4.65,1.52-8.5,3.93-8.63h0Z"/>
    <path class="cls-44" d="M191.27,234.37c0,18.97-15.36,34.33-34.33,34.33s-34.33-15.36-34.33-34.33,15.36-34.33,34.33-34.33,34.33,15.36,34.33,34.33M150.7,206.53c-15.12,3.44-24.53,18.76-21.02,34.2,3.51,15.45,18.61,25.2,33.73,21.76,15.12-3.44,24.53-18.76,21.02-34.2-3.51-15.45-18.61-25.2-33.73-21.76h0Z"/>
    <path class="cls-54" d="M298.97,234.42c0,18.87-15.29,34.16-34.16,34.16s-34.16-15.29-34.16-34.16,15.29-34.16,34.16-34.16,34.16,15.29,34.16,34.16M258.41,206.65c-15.13,3.55-24.47,18.86-20.89,34.2,3.6,15.34,18.78,24.89,33.91,21.35,15.13-3.55,24.47-18.86,20.89-34.2-3.6-15.34-18.78-24.89-33.91-21.35h0Z"/>
    <path class="cls-46" d="M150.7,206.53c15.12-3.44,30.22,6.31,33.73,21.76,3.52,15.44-5.9,30.76-21.02,34.2-15.12,3.44-30.22-6.31-33.73-21.76-3.52-15.44,5.9-30.76,21.02-34.2M177.91,235.33c0-8.36-6.76-15.12-15.12-15.12s-15.12,6.76-15.12,15.12,6.76,15.12,15.12,15.12,15.12-6.76,15.12-15.12h0Z"/>
    <path class="cls-46" d="M258.41,206.65c15.14-3.55,30.31,6.01,33.91,21.35,3.59,15.34-5.75,30.65-20.89,34.2-15.14,3.55-30.31-6.01-33.91-21.35-3.59-15.34,5.75-30.65,20.89-34.2M274.05,235.52c0-8.19-6.64-14.84-14.84-14.84s-14.84,6.64-14.84,14.84,6.64,14.84,14.84,14.84,14.84-6.64,14.84-14.84h0Z"/>
    <path class="cls-57" d="M99.12,206.66c4.3.02,5.11,5.81,4.35,9.39-1.12,5.3-2.6,7.96-4.42,7.96-1.82-.02-3.27-2.68-4.37-8-.72-3.58.14-9.34,4.44-9.34h0Z"/>
    <path class="cls-57" d="M325.91,207.78c1.05.1,1.84,1.03,1.74,2.08l-.36,3.77c-.55,6.02-2.99,10.7-5.45,10.49l-.05-.02c-2.44-.22-3.99-5.26-3.44-11.28l.33-3.77c.1-1.05,1.03-1.82,2.08-1.72l5.14.45h0Z"/>
    <path class="cls-44" d="M177.91,235.33c0,8.36-6.76,15.12-15.12,15.12s-15.12-6.76-15.12-15.12,6.76-15.12,15.12-15.12,15.12,6.76,15.12,15.12h0Z"/>
    <path class="cls-44" d="M274.05,235.52c0,8.19-6.64,14.84-14.84,14.84s-14.84-6.64-14.84-14.84,6.64-14.84,14.84-14.84,14.84,6.64,14.84,14.84h0Z"/>
    <path class="cls-57" d="M122.18,276.53c2.52-.9,5.87,1.89,7.44,6.28,1.58,4.37.81,8.67-1.73,9.59-2.52.9-5.87-1.89-7.44-6.28-1.58-4.37-.81-8.67,1.73-9.59h0Z"/>
    <path class="cls-57" d="M301.33,276.2c2.41.84,3.18,5.02,1.68,9.35-1.49,4.32-4.67,7.16-7.08,6.33-2.41-.84-3.18-5.02-1.68-9.35,1.49-4.32,4.67-7.16,7.08-6.33h0Z"/>
    <path class="cls-56" d="M211.05,285.81c13.59.12,26.04-2.68,39.49-5.92,18.35-4.44,15.96,14.26,10.97,24.66-9.44,19.69-29.86,29.77-50.91,29.58-21.05-.19-41.28-10.66-50.36-30.51-4.8-10.49-6.83-29.24,11.44-24.46,13.36,3.51,25.75,6.55,39.37,6.67M174.49,311.99c8.96,9.87,21,14.88,36.15,15.03,15.6.14,28.12-4.85,37.56-14.98,5.11-5.14,8.79-12.33,11.01-21.6.45-1.89-.79-3.77-3.68-5.66-29.27,9.48-58.82,9.48-88.61.05-3.23,3.18-4.23,6.78-3.01,10.82,2.13,7.1,5.66,12.54,10.58,16.34h0Z"/>
    <path class="cls-47" d="M166.92,284.83c1.7,10.77,8.15,16.87,19.35,18.23l-5.57.12c-.96.02-1.29,1.27-.48,1.79l6.12,3.89c-5.21-1.39-9.15-.33-11.85,3.13-4.92-3.8-8.46-9.25-10.58-16.34-1.22-4.04-.22-7.65,3.01-10.82h0Z"/>
    <path class="cls-46" d="M255.53,284.78c-.72,7.19-4.2,12.54-10.46,16.05-19.23,5.42-38.85,6.16-58.8,2.22-11.2-1.36-17.66-7.45-19.35-18.23,29.79,9.44,59.34,9.44,88.61-.05h0Z"/>
    <path class="cls-47" d="M248.2,312.04c-1.41-1.79-3.23-3.11-5.49-3.92,1.94-2.34,2.72-4.78,2.37-7.29,6.26-3.51,9.75-8.86,10.46-16.05,2.89,1.89,4.13,3.77,3.68,5.66-2.22,9.27-5.9,16.46-11.01,21.6h0Z"/>
    <path class="cls-54" d="M245.07,300.83c.36,2.51-.43,4.95-2.37,7.29-18.83,2.32-37.6,2.58-56.36.74l-6.12-3.89c-.81-.53-.48-1.77.48-1.79l5.57-.12c19.95,3.94,39.56,3.2,58.8-2.22h0Z"/>
    <path class="cls-46" d="M242.7,308.12c2.27.81,4.09,2.13,5.49,3.92-9.44,10.13-21.96,15.12-37.56,14.98-15.15-.14-27.19-5.16-36.15-15.03,2.7-3.46,6.64-4.52,11.85-3.13,18.75,1.84,37.53,1.58,56.36-.74h0Z"/>
    <path class="cls-52" d="M301.05,337.2c.33.21-.1,1.43-.95,2.74-.84,1.3-1.8,2.2-2.12,1.99-.33-.21.1-1.43.95-2.74.84-1.3,1.8-2.2,2.12-1.99h0Z"/>
    <path class="cls-57" d="M171.36,345.03c-.43,1.12-.91,1.84-1.41,2.2-1.43,1-3.37.86-4.66-.33-2.56-2.41-4.28-5.06-5.16-7.93-.55-3.23-.19-5.23,1.1-6.02,2.63-1.65,6.12-.67,7.53,2.1,1.84,3.63,2.7,6.95,2.6,9.99h0Z"/>
    <path class="cls-57" d="M260.9,332.99c2.35,1.17,2.59,5.47.51,9.63-2.06,4.14-5.64,6.55-8,5.38-2.35-1.17-2.59-5.47-.51-9.63,2.06-4.14,5.64-6.55,8-5.38h0Z"/>
    <path class="cls-55" d="M214.58,375.54l-9.91-2.2c-.79-.17-1.39-.84-1.48-1.65-.67-5.76-.31-11.52,1.08-17.32.17-.69.76-1.22,1.51-1.31,6.09-.67,10.73,1.74,13.88,7.22.17.29.21.65.14.96l-2.84,12.81c-.24,1.08-1.29,1.74-2.37,1.51M212.98,357.72l-5.02.1c-1,.02-1.82.88-1.79,1.89l.1,4.04c.12,5.64,2.15,10.18,4.54,10.13h.1c2.37-.05,4.18-4.68,4.06-10.32l-.1-4.04c-.02-1.03-.86-1.82-1.89-1.79h0Z"/>
    <path class="cls-61" d="M179.01,375.85c-.79.79-1.82,1.27-3.11,1.39-11.35-5.02-20.47-12.95-27.4-23.8,3.2,3.06,9.48,10.2,13.45,11.42.91.29,1.31.96,1.24,2.01,4.18,4.73,9.46,7.72,15.82,8.98h0Z"/>
    <path class="cls-62" d="M212.98,357.72c1.03-.02,1.86.76,1.89,1.79l.1,4.04c.12,5.64-1.7,10.27-4.06,10.32h-.1c-2.39.05-4.42-4.49-4.54-10.13l-.1-4.04c-.02-1,.79-1.86,1.79-1.89l5.02-.1h0Z"/>
    <path class="cls-63" d="M263.37,364.24c-8.27,7.81-17.51,14.29-27.74,19.42-11.2,1.46-21.65,1.31-33.02,1.15,13.35,0,24.87-1.98,36.12-7.96,6.86-3.66,15.48-9.01,25.92-16.05.29-.19.62.12.45.41l-1.74,3.03h0Z"/>
    <path class="cls-61" d="M174.18,384.93c-8.34-4.92-16.13-10.82-23.34-17.73,8.96,4.23,16.72,10.13,23.34,17.73h0Z"/>
    <path class="cls-63" d="M184.38,381.85l-8.48-4.61c1.29-.12,2.32-.6,3.11-1.39,13.38,5.92,22.84,10.63,39.44,10.06.5-.02.91.38.93.88v.05c.02.5-.38.91-.88.91-11.73.07-23.1-1.91-34.12-5.9h0Z"/>
    <path class="cls-51" d="M223.14,388.35c-10.42,3.75-19.76,3.27-28.02-1.46,9.08,2.75,18.42,3.23,28.02,1.46h0Z"/>
  </g>
</svg>