<?xml version="1.0" encoding="UTF-8"?>
<svg id="Camada_1" data-name="Camada 1" xmlns="http://www.w3.org/2000/svg" xmlns:xlink="http://www.w3.org/1999/xlink" viewBox="0 0 422.07 422.07">
  <defs>
    <style>
      .cls-1 {
        stroke: #acd262;
      }

      .cls-1, .cls-2, .cls-3, .cls-4, .cls-5, .cls-6, .cls-7, .cls-8, .cls-9, .cls-10, .cls-11, .cls-12, .cls-13, .cls-14, .cls-15, .cls-16, .cls-17, .cls-18, .cls-19, .cls-20, .cls-21, .cls-22, .cls-23, .cls-24, .cls-25, .cls-26, .cls-27, .cls-28, .cls-29, .cls-30, .cls-31 {
        fill: none;
      }

      .cls-1, .cls-2, .cls-3, .cls-4, .cls-5, .cls-6, .cls-7, .cls-8, .cls-9, .cls-10, .cls-11, .cls-13, .cls-14, .cls-15, .cls-16, .cls-17, .cls-18, .cls-19, .cls-20, .cls-21, .cls-22, .cls-23, .cls-24, .cls-25, .cls-26, .cls-27, .cls-28, .cls-29, .cls-30, .cls-31 {
        stroke-miterlimit: 10;
      }

      .cls-2 {
        stroke: #f9c754;
      }

      .cls-3 {
        stroke: #566979;
      }

      .cls-32 {
        fill: #cdd2d4;
      }

      .cls-4 {
        stroke: #1c5268;
      }

      .cls-5 {
        stroke: #7699bb;
      }

      .cls-6 {
        stroke: #977452;
      }

      .cls-7 {
        stroke: #96717b;
      }

      .cls-8 {
        stroke: #7d6441;
      }

      .cls-33 {
        fill: #fff;
      }

      .cls-9 {
        stroke: #545775;
      }

      .cls-10 {
        stroke: #9caaaf;
      }

      .cls-11 {
        stroke: #1c6482;
      }

      .cls-13 {
        stroke: #4c653f;
      }

      .cls-34 {
        fill: #fac833;
      }

      .cls-14 {
        stroke: #35475e;
      }

      .cls-15 {
        stroke: #1b113f;
      }

      .cls-35 {
        fill: #240624;
      }

      .cls-36 {
        fill: #38545e;
      }

      .cls-16 {
        stroke: #1b1047;
      }

      .cls-17 {
        stroke: #021428;
      }

      .cls-37 {
        fill: #c3db53;
      }

      .cls-18 {
        stroke: #40709d;
      }

      .cls-38 {
        fill: #332070;
      }

      .cls-39 {
        fill: #02020d;
      }

      .cls-19 {
        stroke: #676b84;
      }

      .cls-20 {
        stroke: #6f76b3;
      }

      .cls-21 {
        stroke: #130419;
      }

      .cls-40 {
        fill: #f8c574;
      }

      .cls-22 {
        stroke: #967372;
      }

      .cls-23 {
        stroke: #43556a;
      }

      .cls-24 {
        stroke: #1b2162;
      }

      .cls-25 {
        stroke: #46496a;
      }

      .cls-41 {
        fill: url(#Gradiente_sem_nome_10);
      }

      .cls-26 {
        stroke: #7ec7d5;
      }

      .cls-42 {
        fill: #2fbcd5;
      }

      .cls-27 {
        stroke: #97bbd5;
      }

      .cls-28 {
        stroke: #436684;
      }

      .cls-29 {
        stroke: #5e7e92;
      }

      .cls-30 {
        stroke: #27747d;
      }

      .cls-43 {
        fill: #022542;
      }

      .cls-44 {
        fill: #84a7c6;
      }

      .cls-45 {
        fill: #aacfe4;
      }

      .cls-46 {
        fill: #678baf;
      }

      .cls-31 {
        stroke: #331f79;
      }
    </style>
    <linearGradient id="Gradiente_sem_nome_10" data-name="Gradiente sem nome 10" x1="15.59" y1="49.92" x2="371.99" y2="343.72" gradientUnits="userSpaceOnUse">
      <stop offset="0" stop-color="#331d81"/>
      <stop offset="1" stop-color="#16085e"/>
    </linearGradient>
  </defs>
  <rect class="cls-41" x="-.57" width="423.22" height="422.07"/>
  <g>
    <g>
      <path class="cls-16" d="M109.76,323.85c.5.36.66,1.17.33,1.78-14.37,25.98-23.64,54.64-27.79,86.03-.14.99.12,1.99.66,2.71,2.04,2.74,4.27,2.74,6.71.03"/>
      <line class="cls-24" x1="120.27" y1="414.19" x2="127.31" y2="414.58"/>
      <path class="cls-31" d="M144.34,414.73c6.43,4.79,14.39,7.22,23.9,7.29,37.26.27,67.61-.48,91.09-2.32,6.73-.54,13.35-2.29,19.85-5.24"/>
      <line class="cls-18" x1="292.17" y1="414.19" x2="310.72" y2="413.52"/>
      <path class="cls-24" d="M310.72,413.52c1.87,2.44,4.08,2.83,6.57,1.11"/>
      <path class="cls-16" d="M348.9,413.43c.97,1.72,2.51,2.23,4.62,1.6,1.33-.39,2.18-2.05,1.92-3.73-4.55-30.61-13.3-59.91-26.25-85.31-.47-.96-.28-2.2.43-2.89"/>
      <line class="cls-17" x1="299.59" y1="340.7" x2="295.99" y2="341.91"/>
      <line class="cls-4" x1="295.99" y1="341.91" x2="261.68" y2="356"/>
      <path class="cls-13" d="M261.68,356c-2.51.69-5.15.42-7.87-.81-1.68-.75-1.57-3.79.14-4.36,21.46-7.19,42.35-16.92,62.68-29.11"/>
      <path class="cls-13" d="M129.92,327.01c17.45,9.18,35.41,17.25,53.86,24.17,1.45.54,1.38,3.19-.09,3.61l-3.34.93"/>
      <path class="cls-4" d="M180.34,355.73c-13.19-3.4-25.99-8.22-38.42-14.42"/>
      <line class="cls-17" x1="141.92" y1="341.31" x2="138.46" y2="339.92"/>
      <line class="cls-11" x1="141.92" y1="341.31" x2="137.51" y2="359.19"/>
      <path class="cls-30" d="M137.51,359.19c-5.34,18.42-8.73,36.88-10.2,55.39"/>
      <path class="cls-30" d="M310.72,413.52c-1.94-19.03-5.41-37.24-10.39-54.61"/>
      <line class="cls-11" x1="300.33" y1="358.92" x2="295.99" y2="341.91"/>
      <path class="cls-1" d="M262.86,329.42c15.3-3.46,35.67-11.89,48.66-16.68"/>
      <path class="cls-26" d="M92.38,414.21l10.62.04c.09,0,.17-.01.24-.05"/>
      <path class="cls-37" d="M311.52,312.74c-13,4.79-33.37,13.22-48.66,16.68"/>
      <path class="cls-44" d="M310.08,351.45c-5.03.35-10.07.23-15.09-.35-.96-.11-1.92-.24-2.83-.59-2.4-.92-4.31-3.26-6.64-4.43-1.39-.7-2.89-.97-4.37-1.25-3.92-.75-7.9-1.7-11.35-4.17-3.45-2.47-6.33-6.72-6.73-11.72-.13-1.57,0-3.15.23-4.7.83-5.52,3.18-10.65,6.55-14.31,1.72-1.87,3.68-3.35,5.63-4.81,2.55-1.9,5.17-3.83,8.08-4.5,2.61-.61,5.29-.17,7.92.26,3.47.57,6.94,1.15,10.38,1.99,2.73.67,5.49,1.53,7.84,3.4,2.28,1.82,4.04,4.48,5.7,7.17,5.75,9.34,9.95,19.46,14.46,29.74,6.38,15.77,11.32,31.81,14.85,48.16,1.68,4.06,2.51,8.37,2.51,12.86l1.69,9.24-10.67.44c-2.66.63-5.1.67-7.33.13l-13.61.63-1.74-14.18c-3.2-21.2-8.51-41.13-15.96-59.76l21.96-13.13c.67-.38,1.43-.05,1.78.72,0,0,1.27,2.9,2.69,6.13"/>
      <path class="cls-44" d="M138.46,339.93c-9.56,22.66-15.63,47.41-18.19,74.26h-17.03s-10.86.03-10.86.03c-1.09-.27-1.99-.2-2.7.19l1.61-13.76,2.84-13.1c2.97-13.51,7.14-26.63,12.48-39.38,2.2-6.92,5.33-13.11,9.44-18.57.49-.66,3.55-6.86,4.22-6.53l18.19,16.86Z"/>
      <path class="cls-42" d="M103.24,414.2c-.07.04-.15.05-.24.05l-10.62-.04h10.86Z"/>
      <path class="cls-46" d="M278.26,355.98c-12.8,1.97-25.96,3.99-39.51,4.51-8.81.34-17.75.04-26.82-.27-10.52-.35-21.31-.72-31.89-2.93-8.51-1.78-16.76-4.72-24.8-8.22-6.95-3.02-13.88-6.55-19.11-11.77-7.77-7.76-10.96-19.1-7.61-29.1,3.32-9.93,13.14-17.88,24.5-19.41,5.03-.68,10.16-.17,15.14.52,23.37,3.2,45.64,10.13,67.32,8.71,11.23-.74,21.87-3.7,32.57-5.02,10.48-1.29,21.55-.81,30.46,4.53,6.3,3.78,11.35,8.31,14.78,14.76,5.04,9.46,14.08,18.69,17.84,28.61-7.27,8.78-21.46,17.78-29.98,21.18l1.96,4.13c-8.97,3.04-18.18,6.5-27.64,10.39-18.98,7.79-35.2,13.12-53.66,12.42-5.36-.21-18.89-1.66-41.17-4.45-1.45.75-3,1.07-4.62.87l1.92-4.83c-1.63,1.2-2.89,1.65-3.73,1.29-6.92-2.94-13.95-5.75-21.17-8.25-5.34-1.85-13.36-3.72-16.2-9.97-1.78-3.91-1.46-9.37-4.83-11.7-1.31-.9-2.9-1.08-4.42-1.34-4.11-.7-8.15-2.21-11.87-4.42-1.85-1.1-3.7-2.47-4.67-4.52-.62-1.31-.83-2.78-1.02-4.23-.35-2.63-.7-5.29-.54-7.93.6-9.78,8.83-17.61,17.67-17.75,3.45-.05,6.87.89,10.21,1.85,2.78.79,5.56,1.61,8.12,3.05,3.77,2.12,6.86,5.46,10.17,8.36,12.93,11.34,29.78,15.71,44.49,11.84"/>
      <path class="cls-39" d="M122.03,316.53c-.67-.33-5.49,12.4-5.98,13.06-4.11,5.46-7.24,11.65-9.44,18.57-5.34,12.74-9.51,25.87-12.48,39.38l-2.84,13.1-1.61,13.76c-2.45,2.7-4.68,2.7-6.72-.04-.54-.72-.8-1.71-.66-2.7,4.15-31.4,13.42-60.06,27.79-86.04.34-.6,6.81-10.14,6.31-10.5"/>
      <path class="cls-39" d="M308.93,290.58c1.85,4.13,5.96,5.51,8.86,8.52,1.02,1.06,1.9,2.33,2.76,3.6,2.61,3.83,4.12,9.32,5.75,13.93,1.92,5.44,3.77,10.94,6.18,16.07,11.32,24.15,18.87,51.02,22.97,78.59.26,1.69-.59,3.35-1.92,3.73-2.11.63-3.65.13-4.62-1.59l-1.69-9.24c0-4.49-.83-8.8-2.51-12.86-3.53-16.35-8.47-32.4-14.85-48.16-3.92-8.94-7.72-17.65-12.93-25.46-1.21-1.81-2.42-3.62-3.63-5.44"/>
      <path class="cls-43" d="M141.92,341.31l-4.41,17.87c-5.34,18.43-8.73,36.88-10.2,55.4l-7.04-.39c2.56-26.85,8.63-51.6,18.19-74.26l3.46,1.38Z"/>
      <path class="cls-43" d="M317.29,414.64c-2.49,1.71-4.7,1.32-6.57-1.12-1.95-19.03-5.41-37.24-10.39-54.61l-4.34-17.01,3.6-1.21c7.45,18.63,12.76,38.56,15.96,59.76l1.74,14.18Z"/>
      <path class="cls-44" d="M310.72,413.53l-18.55.66-12.99.27-75.87-.11-56.25.11-2.72.28-17.03-.15c1.47-18.52,4.86-36.96,10.2-55.4-.07.24,10.78,6.11,11.8,6.73,3.72,2.27,7.32,4.74,11.15,6.84,1.15.63,2.8,1.14,3.59.09-.61,1.25-1.22,2.5-1.83,3.75,5.92.21,11.59,2.28,17.2,4.18,7.27,2.45,14.66,4.65,22.24,5.88,38.03,3.07,72.05-5.74,98.67-27.74,4.98,17.37,8.44,35.58,10.39,54.61Z"/>
      <path class="cls-32" d="M103.24,414.2c-.07.04-.15.05-.24.05l-10.62-.04h10.86Z"/>
      <path class="cls-38" d="M279.18,414.45c-6.5,2.96-13.12,4.7-19.85,5.24-23.48,1.84-53.83,2.59-91.09,2.32-9.51-.06-17.48-2.5-23.9-7.29l2.72-.28,56.25-.11,75.87.11Z"/>
      <path class="cls-12" d="M320.39,321.7c-.89-1.12-1.68-2.36-2.35-3.7-.9-1.78-1.59-3.73-2.56-5.45-1.17-2.09-2.72-3.79-4.17-5.57-2.53-3.09-4.84-6.48-6.88-10.1"/>
      <path class="cls-12" d="M196.29,359.08c-7.61,3.04-15.73,3.99-23.65,2.78-1.61-.25-3.23-.59-4.76-1.29-1.46-.67-2.82-1.66-4.17-2.64-5.87-4.28-11.74-8.56-17.61-12.83-1.32-.96-2.65-1.94-3.69-3.34-.63-.85-1.15-1.85-1.89-2.56-.75-.72-1.66-1.08-2.54-1.47-7.47-3.32-14.04-9.81-18.4-18.18-.75-1.44-1.47-3.08-1.31-4.8.2-2.2,1.74-3.77,3.18-5.02,4.38-3.8,9.22-7.16,14.51-7.69,3.52-.35,7.04.57,10.48,1.61,7.5,2.27,14.9,5.14,22.52,6.68,2.14.43,4.3.76,6.38,1.51,2.8,1.02,5.39,2.78,7.95,4.55,2.76,1.9,5.52,3.82,8.06,6.16,3.94,3.63,7.27,8.22,10.57,12.77,1.49,2.06,3.02,4.18,3.85,6.78.74,2.31.87,4.84.98,7.33.23,5.4.21,11.38-2.57,15.48"/>
    </g>
    <path class="cls-31" d="M93.93,164.76c-1.62,1.19-3.04,2.76-4.23,4.76-.15.26-.54.11-.5-.17,1.1-8.11,16.04-21.3,21.78-25.18.24-.17.3-.5.13-.73l-.02-.02c-.17-.24-.5-.3-.73-.13-12.2,8.34-21.19,15.24-25.4,28.14-1.36,4.14-3.17,10.05-5.43,17.72-.5,1.64-1.16,3.23-2.03,4.74-1.32,2.29-3.54,5.41-5.48,6.94-7.74,6.1-14.17,13.28-19.3,21.56-.13.22-.09.52.11.69l.54.43s.11.04.15,0l15.01-16.6c.09-.09.17-.11.22-.04.02.06.06.06.13.02.06-.04.13,0,.13.09,0,.06-.04.17-.11.24-14.6,12.12-21.84,27.62-21.73,46.51"/>
    <path class="cls-16" d="M47.16,253.72c-2.05,24.6,12.14,49.2,34.67,59.49,17.14,7.85,30.72,7.01,48.08,4.2"/>
    <path class="cls-20" d="M129.91,317.41l-7.44,23.35c-.26.86.37,1.72,1.25,1.72h10.05c.69,0,1.16.67.97,1.34l-6.49,20.98c-.24.73.71,1.25,1.21.67l26.24-31.41c.45-.54.06-1.38-.65-1.38h-11.38c-.71,0-1.19-.75-.88-1.4l7.29-15.52"/>
    <path class="cls-16" d="M150.07,315.75c9.16,5.74,17.27,9.81,24.28,12.25,4.81,1.68,12.2,3.51,22.16,5.52"/>
    <path class="cls-7" d="M196.86,396.49c.06.71.5.99,1.32.82"/>
    <path class="cls-16" d="M227.11,334.81c19.17-3.17,37.47-9.9,54.92-20.18"/>
    <path class="cls-20" d="M282.03,314.63l-9.96,26.67c-.22.58.22,1.19.82,1.19h11.3c.69,0,1.19.69.99,1.36l-6.68,21.58c-.22.67.65,1.14,1.1.6l27.27-32.62c.37-.45.04-1.14-.54-1.14h-12.14c-.82,0-1.36-.86-.99-1.62l7.2-14.47"/>
    <path class="cls-16" d="M300.4,316.18c7.65,2.22,15.22,3.43,22.66,3.62,27.27.71,47.39-10.74,60.33-34.39,5.28-9.64,7.31-20.96,6.08-33.96-2.31-24.62-13.58-37.47-32.92-49.57-1.14-.71-1.79-2.01-1.68-3.34,2.91-35.3-23.24-65.57-59.88-61.43-6.49.73-10.46,1.25-11.94,1.55-.97.19-1.96-.28-2.39-1.19-1.66-3.41-4.51-7.87-8.52-13.41-15.27-21.11-39.8-30.81-64.79-27.92-19.51,2.26-35.83,10.85-48.94,25.74-4.83,5.48-8.6,12.85-12.46,19.25-.5.82-1.44,1.29-2.41,1.19-21.22-2.52-37.75,4.96-49.59,22.42"/>
    <path class="cls-3" d="M300.4,316.18l-12.48-4.51c-.6-.22-1.25-.22-1.85,0-1.57.6-2.91,1.6-4.03,2.95"/>
    <path class="cls-15" d="M227.11,334.81c-1.01.65-1.85.8-2.52.43"/>
    <line class="cls-8" x1="224.59" y1="335.24" x2="198.93" y2="334.25"/>
    <path class="cls-15" d="M198.93,334.25c-1.06.58-1.88.32-2.41-.73"/>
    <path class="cls-3" d="M150.07,315.75l-5.43-3.58c-.65-.41-1.47-.47-2.18-.17l-12.55,5.41"/>
    <path class="cls-15" d="M47.16,253.72c1.49-10.2,2.89-16.84,4.2-19.97,6.79-15.89,18.07-27.1,33.83-33.64.69-.28,1.1-.97,1.06-1.7-.71-12.1,1.85-23.33,7.68-33.66"/>
    <line class="cls-22" x1="224.59" y1="335.24" x2="218.36" y2="346.54"/>
    <path class="cls-2" d="M218.36,346.54l-4.01-7.22c-.43-.75-1.25-1.21-2.11-1.16l-9.47.65c-.86.06-1.6.6-1.92,1.4-2.85,7.18-4.12,14.9-3.82,23.14"/>
    <path class="cls-22" d="M198.18,397.31l41.18-46.33c.47-.52.11-1.36-.58-1.36l-13.45-.19"/>
    <path class="cls-6" d="M225.32,349.43c-6.1.56-8.43-.41-6.96-2.89"/>
    <path class="cls-22" d="M198.93,334.25l-10.82,27.32c-.22.54.15,1.12.73,1.16l8.19.6"/>
    <path class="cls-6" d="M197.03,363.33c9.29-.8,12.44.45,9.44,3.77"/>
    <line class="cls-22" x1="206.48" y1="367.11" x2="196.86" y2="396.49"/>
    <path class="cls-2" d="M225.32,349.43c.84,11.47-5.56,23.39-18.84,17.68"/>
    <path class="cls-31" d="M113.27,142.83c5.58-.82,12.68-2.05,21.26-3.71,12.05-2.33,15.11-8.9,23.42-19.86,7.89-10.41,18.05-17.68,30.49-21.82.11-.04.17-.17.13-.28l-.17-.56c-.13-.34-.47-.52-.82-.43-10.76,3.13-20.16,8.17-28.16,15.16-6.45,5.61-12.48,19.84-22.96,23.18-4.74,1.51-12.79,3.79-24.11,6.88-.04.02-.06.04-.06.09l.15.75c.09.41.45.67.84.6"/>
    <path class="cls-21" d="M53.44,255.18c-.34.63-.45,1.42-.3,2.39"/>
    <path class="cls-14" d="M53.14,257.58c-.11,10.37,2.37,19.64,7.42,27.86,12.4,20.2,30.72,29.52,54.98,27.96,8.6-.54,15.07-2.13,19.38-4.74,2.39-1.47,5.3-2.98,8.69-4.53.58-.26,1.25-.17,1.75.22,17.87,14.23,37.04,22.06,57.46,23.5,31.46,2.24,58.54-3.95,83.2-24.77.5-.41,1.21-.47,1.77-.13,14.19,8.56,28.33,12.14,42.41,10.78,29.78-2.87,47.48-19.3,53.11-49.25"/>
    <line class="cls-23" x1="383.3" y1="264.48" x2="383.75" y2="254.45"/>
    <path class="cls-3" d="M383.75,254.45c-1.14-18.78-9.62-33.55-25.4-44.29-1.44-.99-4.74-2.78-9.88-5.39-.69-.34-1.1-1.08-1.01-1.85.32-3.69,1.27-8.69,1.21-11.86-.41-16.11-6.47-28.81-18.15-38.06-14.73-11.66-33.55-14.08-50.69-5.76-.93.45-2.03,0-2.39-.97-7.44-19.97-21-33.59-40.64-40.86-31.37-11.64-63.69,2.82-80.96,30.66-.78,1.25-2.82,5.39-6.14,12.4-.28.58-.91.93-1.53.86-.6-.06-3.08-.41-7.44-1.01-12.38-1.72-23.46,1.83-33.27,10.67-12.33,11.1-17.14,25.33-14.42,42.67.17,1.1-.47,2.18-1.53,2.52-22.06,7.35-37.84,27.47-38.06,50.99"/>
    <path class="cls-27" d="M383.75,254.45l-1.1,1.53c-.45.65-1.47.39-1.57-.39-1.27-10.16-4.53-17.9-9.77-23.22-8.02-8.19-17.62-14.23-28.78-18.11-1.81-.65-2.65-2.72-1.81-4.44,3.15-6.45,3.92-12.87,2.33-19.3-2.76-11.1-9.14-22.73-19.06-28.94-13.91-8.71-31.63-8.17-46.36-2.09-.93.39-1.98-.04-2.39-.95-2.5-5.52-5.63-11.34-9.38-17.46-1.57-2.59-5.5-6.58-11.77-11.99-9.88-8.54-20.66-13.24-32.34-14.12-33.98-2.57-57.03,11.69-69.17,42.73-.45,1.19-1.72,1.88-2.98,1.62-24.52-5-48.02,5.82-53.64,30.6-1.49,6.51-.39,16.02-.41,22.14,0,.69-.45,1.32-1.12,1.53-12.55,4.27-19.34,10.5-28.61,19.62-6.34,6.25-9.62,13.86-9.81,22.81-.02.5-.47.86-.97.73l-1.44-.32"/>
    <line class="cls-19" x1="53.59" y1="256.43" x2="53.44" y2="255.18"/>
    <path class="cls-5" d="M383.3,264.48c-3.15-1.25-6.34.47-9.59,5.2-3.39,4.89-5.67,7.81-6.86,8.73-9.62,7.5-20.59,12.87-33.64,13.37-15.91.63-30.27-3.47-43.08-12.33-.82-.58-1.94-.5-2.67.22-6.21,5.97-12.4,12.18-20.81,16-11.79,5.35-18.18,8.17-19.19,8.45-26.37,7.14-52.13,5.52-77.34-4.87-9.72-4.01-17.9-9.68-24.47-17.03-1.01-1.12-2.67-1.4-3.99-.67-11.1,6.17-21.76,10.69-34.13,10.48-10.03-.17-20.63-4.51-30.16-8.84-12.01-5.5-17.51-15.05-23.76-26.22"/>
    <path class="cls-9" d="M53.61,256.95c0-.17,0-.35-.02-.52"/>
    <path class="cls-25" d="M53.61,256.95c-.15.3-.3.52-.47.63"/>
    <path class="cls-27" d="M204.16,126.33c-2.75-4.69-11.59-4.59-19.76.19-8.16,4.79-12.55,12.47-9.81,17.15,2.75,4.69,11.59,4.59,19.76-.19,8.16-4.79,12.55-12.47,9.81-17.15M138.5,165.56c-1.88-3.54-8.76-3.58-15.4-.09-6.64,3.5-10.5,9.21-8.63,12.76,1.88,3.54,8.76,3.58,15.4.09,6.64-3.49,10.5-9.21,8.63-12.76M303.71,164.56c-2.23,3.36.46,9.05,6.02,12.75,5.56,3.7,11.86,3.96,14.09.61,2.23-3.36-.46-9.05-6.02-12.75-5.56-3.7-11.86-3.96-14.09-.61"/>
    <path class="cls-29" d="M167.11,193.02c3.88-.02,7.98.5,12.27,1.62,6.14,1.57,10.41,1.47,11.62-5.09.41-2.26-.88-4.51-3.06-5.28-6.12-2.13-13.11-3.17-20.96-3.08-7.85.06-14.79,1.25-20.87,3.51-2.18.8-3.43,3.08-2.98,5.35,1.34,6.53,5.63,6.53,11.73,4.83,4.27-1.19,8.34-1.81,12.25-1.85M269.26,193.11c3.95.04,8.09.65,12.42,1.85,6.19,1.7,10.52,1.68,11.86-4.94.45-2.31-.82-4.59-3.02-5.41-6.17-2.29-13.22-3.45-21.17-3.51-7.93-.06-15.01,1.01-21.22,3.19-2.2.8-3.51,3.06-3.1,5.37,1.25,6.64,5.58,6.73,11.79,5.11,4.36-1.12,8.5-1.68,12.44-1.66M161.19,201.92c-15.94,4.51-25.13,21.35-20.52,37.63,4.6,16.26,21.25,25.81,37.19,21.29,15.94-4.51,25.13-21.35,20.52-37.63-4.6-16.26-21.25-25.81-37.19-21.29M297.64,231.27c0-16.82-13.63-30.44-30.44-30.44s-30.44,13.63-30.44,30.44,13.63,30.44,30.44,30.44,30.44-13.63,30.44-30.44"/>
    <path class="cls-28" d="M217.88,280.75c8.21-.02,19.41-3.77,24.26-11.06.82-1.21.47-2.87-.73-3.69l-.97-.67c-.97-.65-2.26-.41-2.95.52-4.79,6.45-11.36,9.14-19.62,9.16-8.26.02-14.86-2.63-19.66-9.06-.69-.93-2.01-1.14-2.95-.5l-.97.67c-1.21.84-1.53,2.48-.71,3.69,4.89,7.29,16.11,10.95,24.32,10.93"/>
    <path class="cls-10" d="M194.86,231.29c0-13.93-11.3-25.23-25.23-25.23s-25.23,11.3-25.23,25.23,11.3,25.23,25.23,25.23,25.23-11.3,25.23-25.23M292.64,231.21c0-14.08-11.41-25.49-25.49-25.49s-25.49,11.41-25.49,25.49,11.41,25.49,25.49,25.49,25.49-11.41,25.49-25.49"/>
    <path class="cls-10" d="M188.73,231.72c0-7.55-6.1-13.65-13.65-13.65s-13.65,6.1-13.65,13.65,6.1,13.65,13.65,13.65,13.65-6.1,13.65-13.65M264.28,231.55c-1.23.54-2.31-1.03-1.36-1.98l5.99-5.99c1.1-1.1.75-2.98-.67-3.62-2.7-1.21-5.95-1.66-9.72-1.38-13.69,1.06-13.95,23.46-.82,26.18,9.72,2.01,16.75-4.94,16.02-14.79-.09-1.23-1.38-1.98-2.5-1.49l-6.94,3.08"/>
    <path class="cls-10" d="M183.14,225.24c-.79-.95-2.75-.67-4.35.67-1.59,1.33-2.26,3.19-1.46,4.15.79.95,2.75.67,4.35-.67,1.59-1.33,2.26-3.19,1.46-4.15"/>
    <path class="cls-39" d="M300.4,316.18l-12.48-4.51c-.6-.22-1.25-.22-1.85,0-1.57.6-2.91,1.6-4.03,2.95-17.44,10.28-35.75,17.01-54.92,20.18-1.01.65-1.85.8-2.52.43l-25.66-.99c-1.06.58-1.88.32-2.41-.73-9.96-2.01-17.36-3.84-22.16-5.52-7.01-2.44-15.11-6.51-24.28-12.25l-5.43-3.58c-.65-.41-1.47-.47-2.18-.17l-12.55,5.41c-17.36,2.8-30.94,3.64-48.08-4.2-22.53-10.28-36.72-34.89-34.67-59.49,1.49-10.2,2.89-16.84,4.2-19.97,6.79-15.89,18.07-27.1,33.83-33.64.69-.28,1.1-.97,1.06-1.7-.71-12.1,1.85-23.33,7.68-33.66,11.84-17.46,28.37-24.95,49.59-22.42.97.11,1.92-.37,2.41-1.19,3.86-6.4,7.63-13.78,12.46-19.25,13.11-14.9,29.43-23.48,48.94-25.74,24.99-2.89,49.53,6.81,64.79,27.92,4.01,5.54,6.86,10,8.52,13.41.43.91,1.42,1.38,2.39,1.19,1.49-.3,5.46-.82,11.94-1.55,36.63-4.14,62.79,26.13,59.88,61.43-.11,1.34.54,2.63,1.68,3.34,19.34,12.1,30.62,24.95,32.92,49.57,1.23,13-.8,24.32-6.08,33.96-12.94,23.65-33.05,35.1-60.33,34.39-7.44-.19-15.01-1.4-22.66-3.62M53.44,255.18c-.34.63-.45,1.42-.3,2.39-.11,10.37,2.37,19.64,7.42,27.86,12.4,20.2,30.72,29.52,54.98,27.96,8.6-.54,15.07-2.13,19.38-4.74,2.39-1.47,5.3-2.98,8.69-4.53.58-.26,1.25-.17,1.75.22,17.87,14.23,37.04,22.06,57.46,23.5,31.46,2.24,58.54-3.95,83.2-24.77.5-.41,1.21-.47,1.77-.13,14.19,8.56,28.33,12.14,42.41,10.78,29.78-2.87,47.48-19.3,53.11-49.25l.45-10.03c-1.14-18.78-9.62-33.55-25.4-44.29-1.44-.99-4.74-2.78-9.88-5.39-.69-.34-1.1-1.08-1.01-1.85.32-3.69,1.27-8.69,1.21-11.86-.41-16.11-6.47-28.81-18.15-38.06-14.73-11.66-33.55-14.08-50.69-5.76-.93.45-2.03,0-2.39-.97-7.44-19.97-21-33.59-40.64-40.86-31.37-11.64-63.69,2.82-80.96,30.66-.78,1.25-2.82,5.39-6.14,12.4-.28.58-.91.93-1.53.86-.6-.06-3.08-.41-7.44-1.01-12.38-1.72-23.46,1.83-33.27,10.67-12.33,11.1-17.14,25.33-14.42,42.67.17,1.1-.47,2.18-1.53,2.52-22.06,7.35-37.84,27.47-38.06,50.99h0Z"/>
    <path class="cls-38" d="M113.27,142.83c-.39.06-.75-.19-.84-.6l-.15-.75s.02-.06.06-.09c11.32-3.08,19.36-5.37,24.11-6.88,10.48-3.34,16.52-17.57,22.96-23.18,8-6.99,17.4-12.03,28.16-15.16.35-.09.69.09.82.43l.17.56c.04.11-.02.24-.13.28-12.44,4.14-22.6,11.41-30.49,21.82-8.3,10.95-11.36,17.53-23.42,19.86-8.58,1.66-15.67,2.89-21.26,3.71h0Z"/>
    <path class="cls-45" d="M383.75,254.45l-1.1,1.53c-.45.65-1.47.39-1.57-.39-1.27-10.16-4.53-17.9-9.77-23.22-8.02-8.19-17.62-14.23-28.78-18.11-1.81-.65-2.65-2.72-1.81-4.44,3.15-6.45,3.92-12.87,2.33-19.3-2.76-11.1-9.14-22.73-19.06-28.94-13.91-8.71-31.63-8.17-46.36-2.09-.93.39-1.98-.04-2.39-.95-2.5-5.52-5.63-11.34-9.38-17.46-1.57-2.59-5.5-6.58-11.77-11.99-9.88-8.54-20.66-13.24-32.34-14.12-33.98-2.57-57.03,11.69-69.17,42.73-.45,1.19-1.72,1.88-2.98,1.62-24.52-5-48.02,5.82-53.64,30.6-1.49,6.51-.39,16.02-.41,22.14,0,.69-.45,1.32-1.12,1.53-12.55,4.27-19.34,10.5-28.61,19.62-6.34,6.25-9.62,13.86-9.81,22.81-.02.5-.47.86-.97.73l-1.44-.32-.15-1.25c.22-23.52,16-43.64,38.06-50.99,1.06-.34,1.7-1.42,1.53-2.52-2.72-17.34,2.09-31.57,14.42-42.67,9.81-8.84,20.89-12.4,33.27-10.67,4.36.6,6.83.95,7.44,1.01.63.06,1.25-.28,1.53-.86,3.32-7.01,5.37-11.15,6.14-12.4,17.27-27.84,49.59-42.3,80.96-30.66,19.64,7.27,33.2,20.89,40.64,40.86.37.97,1.47,1.42,2.39.97,17.14-8.32,35.96-5.91,50.69,5.76,11.69,9.25,17.74,21.95,18.15,38.06.06,3.17-.88,8.17-1.21,11.86-.09.78.32,1.51,1.01,1.85,5.13,2.61,8.43,4.4,9.88,5.39,15.78,10.74,24.26,25.51,25.4,44.29h0Z"/>
    <path class="cls-44" d="M383.75,254.45l-.45,10.03c-3.15-1.25-6.34.47-9.59,5.2-3.39,4.89-5.67,7.81-6.86,8.73-9.62,7.5-20.59,12.87-33.64,13.37-15.91.63-30.27-3.47-43.08-12.33-.82-.58-1.94-.5-2.67.22-6.21,5.97-12.4,12.18-20.81,16-11.79,5.35-18.18,8.17-19.19,8.45-26.37,7.14-52.13,5.52-77.34-4.87-9.72-4.01-17.9-9.68-24.47-17.03-1.01-1.12-2.67-1.4-3.99-.67-11.1,6.17-21.76,10.69-34.13,10.48-10.03-.17-20.63-4.51-30.16-8.84-12.01-5.5-17.51-15.05-23.76-26.22,0-.17,0-.35-.02-.52l1.44.32c.5.13.95-.24.97-.73.19-8.95,3.47-16.56,9.81-22.81,9.27-9.12,16.06-15.35,28.61-19.62.67-.22,1.12-.84,1.12-1.53.02-6.12-1.08-15.63.41-22.14,5.63-24.77,29.13-35.6,53.64-30.6,1.25.26,2.52-.43,2.98-1.62,12.14-31.05,35.19-45.3,69.17-42.73,11.69.88,22.47,5.58,32.34,14.12,6.27,5.41,10.2,9.4,11.77,11.99,3.75,6.12,6.88,11.94,9.38,17.46.41.91,1.47,1.34,2.39.95,14.73-6.08,32.45-6.62,46.36,2.09,9.92,6.21,16.3,17.83,19.06,28.94,1.6,6.43.82,12.85-2.33,19.3-.84,1.72,0,3.79,1.81,4.44,11.17,3.88,20.76,9.92,28.78,18.11,5.24,5.33,8.5,13.07,9.77,23.22.11.78,1.12,1.03,1.57.39l1.1-1.53M204.16,126.33c-2.75-4.69-11.59-4.59-19.76.19-8.16,4.79-12.55,12.47-9.81,17.15,2.75,4.69,11.59,4.59,19.76-.19,8.16-4.79,12.55-12.47,9.81-17.15M138.5,165.56c-1.88-3.54-8.76-3.58-15.4-.09-6.64,3.5-10.5,9.21-8.63,12.76,1.88,3.54,8.76,3.58,15.4.09,6.64-3.49,10.5-9.21,8.63-12.76M303.71,164.56c-2.23,3.36.46,9.05,6.02,12.75,5.56,3.7,11.86,3.96,14.09.61,2.23-3.36-.46-9.05-6.02-12.75-5.56-3.7-11.86-3.96-14.09-.61M167.11,193.02c3.88-.02,7.98.5,12.27,1.62,6.14,1.57,10.41,1.47,11.62-5.09.41-2.26-.88-4.51-3.06-5.28-6.12-2.13-13.11-3.17-20.96-3.08-7.85.06-14.79,1.25-20.87,3.51-2.18.8-3.43,3.08-2.98,5.35,1.34,6.53,5.63,6.53,11.73,4.83,4.27-1.19,8.34-1.81,12.25-1.85M269.26,193.11c3.95.04,8.09.65,12.42,1.85,6.19,1.7,10.52,1.68,11.86-4.94.45-2.31-.82-4.59-3.02-5.41-6.17-2.29-13.22-3.45-21.17-3.51-7.93-.06-15.01,1.01-21.22,3.19-2.2.8-3.51,3.06-3.1,5.37,1.25,6.64,5.58,6.73,11.79,5.11,4.36-1.12,8.5-1.68,12.44-1.66M161.19,201.92c-15.94,4.51-25.13,21.35-20.52,37.63,4.6,16.26,21.25,25.81,37.19,21.29,15.94-4.51,25.13-21.35,20.52-37.63-4.6-16.26-21.25-25.81-37.19-21.29M297.64,231.27c0-16.82-13.63-30.44-30.44-30.44s-30.44,13.63-30.44,30.44,13.63,30.44,30.44,30.44,30.44-13.63,30.44-30.44M217.88,280.75c8.21-.02,19.41-3.77,24.26-11.06.82-1.21.47-2.87-.73-3.69l-.97-.67c-.97-.65-2.26-.41-2.95.52-4.79,6.45-11.36,9.14-19.62,9.16-8.26.02-14.86-2.63-19.66-9.06-.69-.93-2.01-1.14-2.95-.5l-.97.67c-1.21.84-1.53,2.48-.71,3.69,4.89,7.29,16.11,10.95,24.32,10.93h0Z"/>
    <path class="cls-45" d="M204.16,126.33c2.74,4.69-1.65,12.36-9.81,17.15-8.17,4.78-17.01,4.89-19.76.19-2.74-4.69,1.65-12.36,9.81-17.15,8.17-4.78,17.01-4.89,19.76-.19h0Z"/>
    <path class="cls-38" d="M93.93,164.76c-5.82,10.33-8.39,21.56-7.68,33.66.04.73-.37,1.42-1.06,1.7-15.76,6.53-27.04,17.74-33.83,33.64-1.32,3.13-2.72,9.77-4.2,19.97-.11-18.89,7.14-34.39,21.73-46.51.06-.06.11-.17.11-.24,0-.09-.06-.13-.13-.09-.06.04-.11.04-.13-.02-.04-.06-.13-.04-.22.04l-15.01,16.6s-.11.04-.15,0l-.54-.43c-.19-.17-.24-.47-.11-.69,5.13-8.28,11.56-15.46,19.3-21.56,1.94-1.53,4.16-4.66,5.48-6.94.86-1.51,1.53-3.1,2.03-4.74,2.26-7.68,4.08-13.58,5.43-17.72,4.2-12.89,13.2-19.79,25.4-28.14.24-.17.56-.11.73.13l.02.02c.17.24.11.56-.13.73-5.74,3.88-20.68,17.08-21.78,25.18-.04.28.34.43.5.17,1.19-2.01,2.61-3.58,4.23-4.76h0Z"/>
    <path class="cls-45" d="M138.5,165.56c1.87,3.55-1.99,9.27-8.63,12.76-6.64,3.49-13.52,3.45-15.4-.09-1.87-3.55,1.99-9.27,8.63-12.76,6.64-3.49,13.52-3.45,15.4.09h0Z"/>
    <path class="cls-45" d="M303.71,164.56c2.23-3.34,8.53-3.09,14.09.61,5.56,3.7,8.26,9.39,6.02,12.75-2.23,3.34-8.53,3.09-14.09-.61-5.56-3.7-8.26-9.39-6.02-12.75h0Z"/>
    <path class="cls-36" d="M167.11,193.02c-3.9.04-7.98.67-12.25,1.85-6.1,1.7-10.39,1.7-11.73-4.83-.45-2.26.8-4.55,2.98-5.35,6.08-2.26,13.02-3.45,20.87-3.51,7.85-.09,14.83.95,20.96,3.08,2.18.78,3.47,3.02,3.06,5.28-1.21,6.55-5.48,6.66-11.62,5.09-4.29-1.12-8.39-1.64-12.27-1.62h0Z"/>
    <path class="cls-36" d="M269.35,181.1c7.96.06,15.01,1.23,21.17,3.51,2.2.82,3.47,3.1,3.02,5.41-1.34,6.62-5.67,6.64-11.86,4.94-4.33-1.21-8.47-1.81-12.42-1.85-3.95-.02-8.09.54-12.44,1.66-6.21,1.62-10.54,1.53-11.79-5.11-.41-2.31.91-4.57,3.1-5.37,6.21-2.18,13.28-3.26,21.22-3.19h0Z"/>
    <path class="cls-36" d="M161.19,201.92c15.95-4.52,32.59,5.03,37.19,21.29,4.6,16.27-4.58,33.11-20.52,37.63-15.95,4.52-32.59-5.03-37.19-21.29-4.6-16.27,4.58-33.11,20.52-37.63M194.86,231.29c0-13.93-11.3-25.23-25.23-25.23s-25.23,11.3-25.23,25.23,11.3,25.23,25.23,25.23,25.23-11.3,25.23-25.23h0Z"/>
    <path class="cls-36" d="M297.64,231.27c0,16.82-13.63,30.44-30.44,30.44s-30.44-13.63-30.44-30.44,13.63-30.44,30.44-30.44,30.44,13.63,30.44,30.44M292.64,231.21c0-14.08-11.41-25.49-25.49-25.49s-25.49,11.41-25.49,25.49,11.41,25.49,25.49,25.49,25.49-11.41,25.49-25.49h0Z"/>
    <path class="cls-33" d="M194.86,231.29c0,13.93-11.3,25.23-25.23,25.23s-25.23-11.3-25.23-25.23,11.3-25.23,25.23-25.23,25.23,11.3,25.23,25.23M188.73,231.72c0-7.55-6.1-13.65-13.65-13.65s-13.65,6.1-13.65,13.65,6.1,13.65,13.65,13.65,13.65-6.1,13.65-13.65h0Z"/>
    <path class="cls-33" d="M292.64,231.21c0,14.08-11.41,25.49-25.49,25.49s-25.49-11.41-25.49-25.49,11.41-25.49,25.49-25.49,25.49,11.41,25.49,25.49M264.28,231.55c-1.23.54-2.31-1.03-1.36-1.98l5.99-5.99c1.1-1.1.75-2.98-.67-3.62-2.7-1.21-5.95-1.66-9.72-1.38-13.69,1.06-13.95,23.46-.82,26.18,9.72,2.01,16.75-4.94,16.02-14.79-.09-1.23-1.38-1.98-2.5-1.49l-6.94,3.08h0Z"/>
    <path class="cls-36" d="M188.73,231.72c0,7.55-6.1,13.65-13.65,13.65s-13.65-6.1-13.65-13.65,6.1-13.65,13.65-13.65,13.65,6.1,13.65,13.65M183.14,225.24c-.79-.95-2.75-.67-4.35.67-1.59,1.33-2.26,3.19-1.46,4.15.79.95,2.75.67,4.35-.67,1.59-1.33,2.26-3.19,1.46-4.15h0Z"/>
    <path class="cls-36" d="M264.28,231.55l6.94-3.08c1.12-.5,2.41.26,2.5,1.49.73,9.85-6.3,16.8-16.02,14.79-13.13-2.72-12.87-25.12.82-26.18,3.77-.28,7.03.17,9.72,1.38,1.42.65,1.77,2.52.67,3.62l-5.99,5.99c-.95.95.13,2.52,1.36,1.98h0Z"/>
    <path class="cls-33" d="M183.14,225.24c.81.97.14,2.82-1.46,4.15-1.6,1.34-3.56,1.62-4.35.67-.81-.97-.14-2.82,1.46-4.15,1.6-1.34,3.56-1.62,4.35-.67h0Z"/>
    <path class="cls-35" d="M53.44,255.18l.15,1.25c.02.17.02.34.02.52-.15.3-.3.52-.47.63-.15-.97-.04-1.77.3-2.39h0Z"/>
    <path class="cls-46" d="M383.3,264.48c-5.63,29.95-23.33,46.38-53.11,49.25-14.08,1.36-28.22-2.22-42.41-10.78-.56-.34-1.27-.28-1.77.13-24.67,20.83-51.75,27.02-83.2,24.77-20.42-1.44-39.59-9.27-57.46-23.5-.5-.39-1.16-.47-1.75-.22-3.39,1.55-6.3,3.06-8.69,4.53-4.31,2.61-10.78,4.2-19.38,4.74-24.26,1.55-42.58-7.76-54.98-27.96-5.05-8.21-7.52-17.49-7.42-27.86.17-.11.32-.32.47-.63,6.25,11.17,11.75,20.72,23.76,26.22,9.53,4.33,20.14,8.67,30.16,8.84,12.38.22,23.03-4.31,34.13-10.48,1.32-.73,2.98-.45,3.99.67,6.58,7.35,14.75,13.02,24.47,17.03,25.2,10.39,50.97,12.01,77.34,4.87,1.01-.28,7.4-3.1,19.19-8.45,8.41-3.82,14.6-10.03,20.81-16,.73-.71,1.85-.8,2.67-.22,12.81,8.86,27.17,12.96,43.08,12.33,13.04-.5,24.02-5.86,33.64-13.37,1.19-.93,3.47-3.84,6.86-8.73,3.26-4.72,6.45-6.45,9.59-5.2h0Z"/>
    <path class="cls-43" d="M217.86,275.02c8.26-.02,14.83-2.72,19.62-9.16.69-.93,1.98-1.16,2.95-.52l.97.67c1.21.82,1.55,2.48.73,3.69-4.85,7.29-16.04,11.04-24.26,11.06-8.21.02-19.43-3.64-24.32-10.93-.82-1.21-.5-2.85.71-3.69l.97-.67c.95-.65,2.26-.43,2.95.5,4.81,6.43,11.41,9.08,19.66,9.06h0Z"/>
    <path class="cls-45" d="M150.07,315.75l-7.29,15.52c-.3.65.17,1.4.88,1.4h11.38c.71,0,1.1.84.65,1.38l-26.24,31.41c-.5.58-1.44.06-1.21-.67l6.49-20.98c.19-.67-.28-1.34-.97-1.34h-10.05c-.88,0-1.51-.86-1.25-1.72l7.44-23.35,12.55-5.41c.71-.3,1.53-.24,2.18.17l5.43,3.58h0Z"/>
    <path class="cls-45" d="M300.4,316.18l-7.2,14.47c-.37.75.17,1.62.99,1.62h12.14c.58,0,.91.69.54,1.14l-27.27,32.62c-.45.54-1.32.06-1.1-.6l6.68-21.58c.19-.67-.3-1.36-.99-1.36h-11.3c-.6,0-1.03-.6-.82-1.19l9.96-26.67c1.12-1.36,2.46-2.35,4.03-2.95.6-.22,1.25-.22,1.85,0l12.48,4.51h0Z"/>
    <path class="cls-40" d="M224.59,335.24l-6.23,11.3-4.01-7.22c-.43-.75-1.25-1.21-2.11-1.16l-9.47.65c-.86.06-1.6.6-1.92,1.4-2.85,7.18-4.12,14.9-3.82,23.14l-8.19-.6c-.58-.04-.95-.63-.73-1.16l10.82-27.32,25.66.99h0Z"/>
    <path class="cls-34" d="M218.36,346.54c-1.47,2.48.86,3.45,6.96,2.89.84,11.47-5.56,23.39-18.84,17.68,3-3.32-.15-4.57-9.44-3.77-.3-8.24.97-15.96,3.82-23.14.32-.8,1.06-1.34,1.92-1.4l9.47-.65c.86-.04,1.68.41,2.11,1.16l4.01,7.22h0Z"/>
    <path class="cls-40" d="M198.18,397.31c-.82.17-1.25-.11-1.32-.82l9.62-29.39c13.28,5.71,19.69-6.21,18.84-17.68l13.45.19c.69,0,1.06.84.58,1.36l-41.18,46.33h0Z"/>
  </g>
</svg>