<?xml version="1.0" encoding="UTF-8"?>
<svg id="Camada_1" data-name="Camada 1" xmlns="http://www.w3.org/2000/svg" xmlns:xlink="http://www.w3.org/1999/xlink" viewBox="0 0 422.07 422.07">
  <defs>
    <style>
      .cls-1 {
        stroke: #21113b;
      }

      .cls-1, .cls-2, .cls-3, .cls-4, .cls-5, .cls-6, .cls-7, .cls-8, .cls-9, .cls-10, .cls-11, .cls-12, .cls-13, .cls-14, .cls-15, .cls-16, .cls-17, .cls-18, .cls-19, .cls-20, .cls-21, .cls-22, .cls-23, .cls-24, .cls-25, .cls-26, .cls-27, .cls-28, .cls-29, .cls-30, .cls-31, .cls-32, .cls-33, .cls-34, .cls-35, .cls-36, .cls-37, .cls-38, .cls-39, .cls-40, .cls-41, .cls-42, .cls-43, .cls-44, .cls-45, .cls-46, .cls-47, .cls-48, .cls-49 {
        fill: none;
        stroke-miterlimit: 10;
      }

      .cls-2 {
        stroke: #2e0b05;
      }

      .cls-3 {
        stroke: #906448;
      }

      .cls-4 {
        stroke: #5e3d62;
      }

      .cls-5 {
        stroke: #6c3b24;
      }

      .cls-50 {
        fill: #361005;
      }

      .cls-6 {
        stroke: #815c44;
      }

      .cls-7 {
        stroke: #5d3b2a;
      }

      .cls-8 {
        stroke: #986b4d;
      }

      .cls-9 {
        stroke: #64412d;
      }

      .cls-10 {
        stroke: #220906;
      }

      .cls-11 {
        stroke: #6d5444;
      }

      .cls-12 {
        stroke: #4c2f25;
      }

      .cls-13 {
        stroke: #582f1f;
      }

      .cls-14 {
        stroke: #3b1b1b;
      }

      .cls-15 {
        stroke: #aa8263;
      }

      .cls-16 {
        stroke: #180504;
      }

      .cls-17 {
        stroke: #6b3924;
      }

      .cls-18 {
        stroke: #694d3c;
      }

      .cls-19 {
        stroke: #5a3e2f;
      }

      .cls-20 {
        stroke: #673f2b;
      }

      .cls-21 {
        stroke: #956749;
      }

      .cls-51 {
        fill: #794e38;
      }

      .cls-52 {
        fill: #402630;
      }

      .cls-53 {
        fill: #976e51;
      }

      .cls-22 {
        stroke: #885e45;
      }

      .cls-54 {
        fill: #cba782;
      }

      .cls-23 {
        stroke: #6e452e;
      }

      .cls-55 {
        fill: #0e0106;
      }

      .cls-24 {
        stroke: #44281f;
      }

      .cls-56 {
        fill: #a67a57;
      }

      .cls-25 {
        stroke: #8c5e43;
      }

      .cls-26 {
        stroke: #7a482e;
      }

      .cls-57 {
        fill: #332070;
      }

      .cls-27 {
        stroke: #775842;
      }

      .cls-58 {
        fill: #ecd095;
      }

      .cls-59 {
        fill: #220802;
      }

      .cls-28 {
        stroke: #91704d;
      }

      .cls-60 {
        fill: #5f2710;
      }

      .cls-29 {
        stroke: #492440;
      }

      .cls-30 {
        stroke: #53382c;
      }

      .cls-31 {
        stroke: #5e3e5a;
      }

      .cls-32 {
        stroke: #4b1c0b;
      }

      .cls-33 {
        stroke: #563223;
      }

      .cls-34 {
        stroke: #9f7454;
      }

      .cls-35 {
        stroke: #9f7355;
      }

      .cls-61 {
        fill: #4d1504;
      }

      .cls-36 {
        stroke: #37140b;
      }

      .cls-37 {
        stroke: #56365d;
      }

      .cls-38 {
        stroke: #926041;
      }

      .cls-39 {
        stroke: #b9916d;
      }

      .cls-62 {
        fill: url(#Gradiente_sem_nome_10);
      }

      .cls-40 {
        stroke: #4e2b1d;
      }

      .cls-41 {
        stroke: #210f44;
      }

      .cls-42 {
        stroke: #654761;
      }

      .cls-43 {
        stroke: #603624;
      }

      .cls-44 {
        stroke: #a27b5d;
      }

      .cls-45 {
        stroke: #835134;
      }

      .cls-46 {
        stroke: #74422a;
      }

      .cls-63 {
        fill: #895c43;
      }

      .cls-47 {
        stroke: #331f79;
      }

      .cls-48 {
        stroke: #563754;
      }

      .cls-64 {
        fill: #c49871;
      }

      .cls-49 {
        stroke: #81553e;
      }
    </style>
    <linearGradient id="Gradiente_sem_nome_10" data-name="Gradiente sem nome 10" x1="15.59" y1="49.92" x2="371.99" y2="343.72" gradientUnits="userSpaceOnUse">
      <stop offset="0" stop-color="#331d81"/>
      <stop offset="1" stop-color="#16085e"/>
    </linearGradient>
  </defs>
  <rect class="cls-62" x="-.57" width="423.22" height="422.07"/>
  <g>
    <path class="cls-41" d="M52.13,232.82c-1.32,9.46-2.7,18.97-4.12,28.53-1.47,9.86,4.42,18.34,8.24,26.8"/>
    <path class="cls-47" d="M56.25,288.15c1.5,9.41,3.82,18.57,6.94,27.48,2.75,7.76,4.37,15.25-1.45,21.01-14.95,14.75-27.58,25.08-27.45,44.02.1,13.15,2,26.05,5.67,38.68,1.02,3.57,4.22,6.09,7.94,6.26,15.95.72,31.25.97,45.87.75,28.95-.42,47.79,2.55,83.06,5.64,5.67.47,10.23.55,13.7.22,23.53-2.32,36.84-3.64,39.86-3.97,1.4-.15,6.41,0,15.02.42,17.35.87,34.64,1.07,51.94.57,8.49-.27,18.72-2.17,30.72-5.69"/>
    <path class="cls-41" d="M328.05,423.57c3.97.17,5.57-.77,4.79-2.89"/>
    <line class="cls-37" x1="332.84" y1="420.67" x2="368.13" y2="422.37"/>
    <path class="cls-4" d="M368.13,422.37c8.56-1.1,14.35,2.42,23.53-.8.72-.25,1.2-.95,1.2-1.72l-.35-45.55"/>
    <path class="cls-37" d="M392.52,374.3c.25-1.2-.15-2.35-1.22-3.42"/>
    <path class="cls-41" d="M391.29,370.88c.42-.1.7-.12.85-.1.77.12,1.45-.55,1.32-1.32-.32-1.95-.65-4.54-1.02-7.76-.92-8.19-7.24-16.25-14.3-19.12-.07-.03-.12-.05-.2-.07l-15.95-4.22c-.7-.17-1-1.05-.52-1.6l14.4-17.25c.65-.77,1.1-1.7,1.27-2.67,3.77-19.67,6.51-35.51,8.21-47.57.17-1.37.55-2.45,1.12-3.22.37-.5.6-1.1.62-1.72.25-5.27,1.67-13.9,4.24-25.96,1.45-6.66,1.7-11.65.75-14.92-.08-.27-.22-.52-.4-.75l-28.6-36.39c-.7-.9-1.2-1.92-1.47-2.99l-9.18-36.69"/>
    <path class="cls-47" d="M352.43,146.57c-.72-14.72-6.46-42.4-19.92-51.16-10.78-7.01-28.33-13.73-43.13-15.57-14.87-1.85-22.04-2.17-35.66-6.94-26.33-9.18-46.79-13.9-75.12-4.77-25.41,8.21-42.83,14.45-52.26,18.74-20.26,9.23-35.34,33.69-46.94,53.76-4.82,8.29-11.03,15.47-16.75,23.01-15.67,20.69-16.67,43.87-10.53,69.18"/>
    <path class="cls-1" d="M352.43,146.57l-13.65-41.18c-.87-2.67-3.02-4.77-5.72-5.59l-47.52-14.72c-2.27-.7-4.77-.25-6.66,1.25l-11.28,8.88c-1.02.8-2.52.05-2.47-1.25.12-3.29-.37-6.06-1.5-8.29-.37-.75-.82-1.42-1.37-2.05-2.82-3.22-7.66-5.91-14.47-8.04-12.38-3.89-23.48-7.24-33.34-10.03-.7-.22-1.45-.32-2.2-.3-2.94.02-5.91.5-8.93,1.4-11.36,3.42-36.11,11.38-74.3,23.91-.45.15-.9.25-1.37.3-8.49,1.07-12.5,5.39-18.49,12.03-.55.62-1,1.3-1.35,2.05-2.52,5.39-4.12,8.66-4.84,9.83-2.02,3.32-7.56,12.13-16.57,26.43-3.22,5.09-7.89,10.63-14,16.65-8.96,8.78-12.3,13.55-13.6,25.53-.77,7.09-2.99,23.56-6.66,49.44"/>
    <path class="cls-24" d="M391.29,370.88c-2.17-4.24-3.42-5.62-3.74-4.12"/>
    <path class="cls-18" d="M387.55,366.76c-3.37-9.63-7.96-15.77-13.83-18.39"/>
    <path class="cls-24" d="M373.72,348.37c-5.77-.02-11.78-1.5-18.04-4.42-.77-.35-1.7-.25-2.37.25-3.12,2.35-5.59,4.54-7.41,6.59-12.28,13.85-19.87,22.09-22.74,24.66-1.37,1.22-4.12,2.6-8.26,4.17-.62.25-.9.97-.62,1.57l18.57,39.48"/>
    <path class="cls-1" d="M328.05,423.57c-1.65-.15-3.12-1.6-4.44-4.37"/>
    <line class="cls-30" x1="323.61" y1="419.2" x2="314.63" y2="399.46"/>
    <path class="cls-24" d="M314.63,399.46l-7.64-17.07c-.32-.72-1.1-1.12-1.87-.97-11.85,2.05-24.11,4.32-36.71,6.79-27.4,5.37-41.8,5.72-73.45,7.89-1.7.12-3.39-.05-5.02-.52l-50.56-14.05c-.7-.17-1.42.1-1.82.67l-9.98,14.42"/>
    <path class="cls-30" d="M127.57,396.61c-4.54,6.74-8.49,15.25-11.83,25.51"/>
    <path class="cls-24" d="M107.31,422.57c3.04-6.84,5.79-13.73,8.21-20.69,1.02-2.89,5.94-9.91,14.77-21.06.4-.52.2-1.27-.42-1.5-15.15-5.49-24.03-8.91-26.6-10.28-7.79-4.09-13.28-14.87-17.69-22.51-.4-.7-1.2-1.05-2-.92l-14.28,2.45"/>
    <path class="cls-18" d="M69.3,348.05c-9.43,3.37-18.34,17.82-22.56,24.83"/>
    <path class="cls-36" d="M46.74,372.88c-.65.47-1.25,1.57-1.77,3.24"/>
    <path class="cls-12" d="M44.97,376.12c-.32.12-.65.25-.97.37"/>
    <path class="cls-1" d="M43.99,376.5c-2.52-3.92-2.5-8.54.12-13.8,4.12-8.34,10.33-15.2,18.62-20.61.27-.17.55-.3.87-.37l15.87-3.59c.67-.15,1.05-.92.72-1.55l-23.96-48.42"/>
    <path class="cls-22" d="M314.63,399.46c-20.34,2.42-40.45,5.99-60.35,10.71-11.01,2.62-19.72,3.99-29.27,10.61-.82.55-.45,1.85.55,1.87l14.03.35M216.62,422.27c2.52-3.67,5.64-6.79,9.36-9.33,1.1-.75.35-2.45-.95-2.15l-6.61,1.55c-.85.2-1.7.3-2.57.32-17.35.47-33.92-1.42-49.76-5.74-12.55-3.42-25.41-6.86-38.51-10.31"/>
    <path class="cls-5" d="M81.2,420.8c1.02-12.95-.17-25.21-3.59-36.74"/>
    <path class="cls-35" d="M77.61,384.06c4.97-1.25,9.28-4.12,13-8.59,1.27-1.52,1.02-3.79-.52-5.02-7.94-6.24-14.87-13.7-20.79-22.41"/>
    <path class="cls-46" d="M78.03,420.57l-2.15-28.28c-.15-1.9-1.32-3.57-3.09-4.32l-27.83-11.85"/>
    <path class="cls-31" d="M43.99,376.5l.2,43.25c.02,1.52,1.22,2.72,2.72,2.75,10.06.07,19.74.12,29.07.15.67,0,1.17-.17,1.45-.55.32-.4.52-.9.6-1.52"/>
    <line class="cls-29" x1="78.03" y1="420.57" x2="81.2" y2="420.8"/>
    <path class="cls-48" d="M81.2,420.8c1.02,1.52,2.55,2.35,4.54,2.45,7.26.35,14.45.12,21.56-.67"/>
    <path class="cls-42" d="M239.58,422.99c26.2,0,52.43.12,78.69.35,3.97.02,5.77-1.35,5.34-4.14"/>
    <path class="cls-38" d="M77.61,384.06c-9.96-4.84-20.24-8.56-30.87-11.18"/>
    <path class="cls-35" d="M373.72,348.37l-15.07,10.71c-.87.62-1.15,1.82-.6,2.75l5.79,10.03c.65,1.12,1.92,1.72,3.19,1.55,7.71-1.05,14.55-3.27,20.51-6.64"/>
    <path class="cls-49" d="M392.52,374.3l-22.14,10.73c-1.02.5-1.67,1.52-1.7,2.65l-.55,34.69"/>
    <line class="cls-11" x1="209.01" y1="72.35" x2="122.76" y2="99.68"/>
    <path class="cls-24" d="M122.76,99.68c-2.27.4-4.12,1.85-5.54,4.32"/>
    <path class="cls-19" d="M117.22,103.99c-9.43,17.94-19.87,35.09-31.3,51.49"/>
    <path class="cls-11" d="M85.92,155.48c-6.39,4.77-19.67,15-18.24,24.01"/>
    <path class="cls-10" d="M67.68,179.49c-.22,1.17-.42,1.42-.6.75"/>
    <path class="cls-30" d="M67.08,180.24c-3.34,22.29-6.61,44.32-9.78,66.16-.8,5.42-1.27,12.73-1.4,21.94"/>
    <line class="cls-16" x1="55.9" y1="268.33" x2="57.55" y2="272.28"/>
    <path class="cls-12" d="M57.55,272.28c13.68,30.35,28.28,59.32,43.77,86.92,1.82,3.24,4.27,4.52,7.31,3.84"/>
    <line class="cls-2" x1="108.63" y1="363.05" x2="112.4" y2="364.34"/>
    <path class="cls-12" d="M112.4,364.34c.97.82,1.87,1.35,2.65,1.62,24.61,8.66,50.14,16.35,76.59,23.11,1.8.47,3.67.6,5.52.4l37.73-4.09"/>
    <line class="cls-10" x1="234.89" y1="385.38" x2="241.35" y2="385.46"/>
    <path class="cls-12" d="M241.35,385.46c25.18-3.42,49.02-7.86,71.5-13.3,2.52-.6,4.79-1.92,6.56-3.77l47.62-49.19c1.97-2.02,3.29-4.62,3.79-7.39,5.02-27.23,9.43-55.05,13.28-83.48.12-1.07-.37-2.47-1.5-4.14"/>
    <line class="cls-19" x1="382.61" y1="224.19" x2="357.18" y2="191.19"/>
    <path class="cls-24" d="M357.18,191.19c-.2-.85-1.05-2.02-2.52-3.54"/>
    <path class="cls-12" d="M354.66,187.65c.32-1.92.07-4.44-.75-7.51-6.19-22.89-12.78-45.62-19.79-68.26-.82-2.7-2.6-4.44-5.27-5.27"/>
    <path class="cls-11" d="M328.85,106.61l-43.65-14c-.75-.25-1.57-.15-2.25.3-4.17,2.82-7.91,6.79-11.18,11.95"/>
    <path class="cls-10" d="M271.77,104.87c-6.64-3.02-11.33-7.41-14.1-13.18"/>
    <path class="cls-11" d="M257.67,91.69c.62-3.07-1.9-5.57-7.54-7.49-11.7-3.97-23.56-7.84-35.56-11.6"/>
    <line class="cls-12" x1="214.57" y1="72.6" x2="209.01" y2="72.35"/>
    <path class="cls-15" d="M214.57,72.6c-.45,6.64-2.45,14.23-5.96,22.74"/>
    <path class="cls-8" d="M208.61,95.33c-3.79,3.44-10.61,7.96-20.41,13.55-13.38,7.64-26.05,12.5-38.03,14.62"/>
    <path class="cls-15" d="M150.16,123.51l50.49-25.01c.85-.4,1.47-1.17,1.72-2.07l6.64-24.08"/>
    <path class="cls-39" d="M150.16,123.51c-2.67.55-5.54,1.92-8.59,4.09"/>
    <line class="cls-21" x1="141.57" y1="127.6" x2="138.26" y2="129.4"/>
    <line class="cls-44" x1="138.26" y1="129.4" x2="122.76" y2="99.68"/>
    <path class="cls-23" d="M312.93,128.7l1.82,50.06c.05,1.3-1.05,2.32-2.32,2.2l-57.48-4.89c-2.72-.22-5.27,1.35-6.26,3.89l-10.53,26.8c-.25.62-1.1.7-1.42.12-.17-.32-.37-.8-.6-1.45-.37-1.12-.82-1.87-1.35-2.25-.82-.57-1.62-.92-2.4-1-.95-.1-1.62.87-1.25,1.72,1.62,3.67,3.22,7.04,4.04,11.23,2.42,12.58,5.04,24.61,7.86,36.06"/>
    <path class="cls-3" d="M243.05,251.21l-20.66,8.93c-2.05.9-4.39.9-6.46,0l-22.19-9.53"/>
    <path class="cls-23" d="M193.73,250.62c2.17-12.85,4.37-25.18,6.54-37.04.72-3.87,2.4-7.31,5.02-10.31.37-.42.37-1.02.02-1.47-.35-.42-.97-.52-1.45-.25l-6.99,4.04c-.42.25-1,.05-1.15-.42-2.55-8.01-5.54-15.8-8.96-23.36-2.32-5.09-6.31-6.99-11.98-5.72-9.56,2.15-28.5,5.64-56.78,10.46"/>
    <path class="cls-45" d="M118.02,186.55l17.3-49.46c.92-2.67,3.84-4.09,6.51-3.19l46.12,15.62c.12.05.27-.05.3-.17l.57-1.82c.1-.27-.07-.6-.35-.67-16.25-5.42-31.87-11.83-46.89-19.24"/>
    <path class="cls-6" d="M257.67,91.69c-2.15,3.79-4.72,7.21-7.74,10.23-.9.92-.37,3.04,1.55,6.36"/>
    <line class="cls-39" x1="251.48" y1="108.29" x2="208.61" y2="95.33"/>
    <line class="cls-5" x1="138.26" y1="129.4" x2="132.89" y2="134.39"/>
    <path class="cls-3" d="M132.89,134.39c-2.4-7.16-5.99-14.85-10.81-23.01-.42-.72-1.02-1.5-1.77-2.27-.87-.92-1.1-2.2-.72-3.87.22-.95-.67-1.77-1.6-1.5l-.77.25"/>
    <path class="cls-6" d="M271.77,104.87c-1.75,4.37.12,9.46,5.59,15.25"/>
    <path class="cls-23" d="M277.36,120.12c5.02,6.36,8.34,12.4,9.96,18.17.42,1.55-1.47,2.65-2.6,1.52-1.82-1.85-4.39-4.39-7.71-7.64-2.82-2.75-5.81-2.92-9.01-.52-8.66,6.56-18.14,14.18-28.45,22.79-.95.8-2.3-.27-1.75-1.4,4.62-9.26,11.08-16.95,19.37-23.04,1.87-1.35,2.65-3.77,1.95-5.96-2.07-6.51-4.62-11.75-7.64-15.75"/>
    <path class="cls-15" d="M328.85,106.61c-.02,1.27-.5,2.3-1.37,3.04"/>
    <line class="cls-6" x1="327.48" y1="109.66" x2="312.93" y2="128.7"/>
    <line class="cls-39" x1="312.93" y1="128.7" x2="277.36" y2="120.12"/>
    <path class="cls-13" d="M334.42,197.76c.47,3.87.3,7.66-.52,11.38"/>
    <path class="cls-43" d="M333.89,209.14c-4.32-11.95-7.96-21.99-21.26-23.46-18.97-2.1-37.53-3.77-55.7-4.99-1.65-.1-3.14.92-3.64,2.5l-7.36,23.78c-.3.97.2,2,1.15,2.35.95.32,2.7.62,5.27.85,28.68,2.55,51.44,4.59,68.26,6.14,3.97.37,8.68.12,14.13-.75"/>
    <path class="cls-13" d="M334.72,215.55c2.5-.82,3.84-.52,4.02.87.27,2.17-1.52,4.17-3.94,4.39-8.31.72-14.65.8-18.99.17-.77-.12-1.52.37-1.7,1.15-2.85,11.73-9.08,27.28-22.64,29.32-17.12,2.57-33.67-5.67-36.21-23.83-.67-4.74-.97-7.31-.9-7.71.25-1.7-1.07-3.19-2.8-3.19-2.87.02-5.84-.67-8.88-2.07-1.12-.52-2.35.52-2.02,1.72l8.24,29.37"/>
    <path class="cls-23" d="M248.89,245.75l3.17,15.97c.15.82-.22,1.67-.92,2.1-6.79,4.32-25.26,15.27-33.97,13.1-9.83-2.47-19.37-6.29-28.63-11.51-1.65-.92-2.57-2.75-2.37-4.64l2.37-19.77"/>
    <path class="cls-13" d="M188.54,241.01l5.72-26.05c.07-.32-.25-.6-.57-.5l-10.96,3.22c-.55.17-.92.7-.9,1.27.52,9.16-1.47,16.67-5.96,22.54-7.21,9.36-23.11,12.08-33.34,8.44-14.13-5.02-15.32-14.77-19.94-26.98-.3-.82-1.12-1.35-2-1.27l-20.16,1.7"/>
    <path class="cls-20" d="M100.42,223.36l-8.73-7.76c-.42-.37-.8-.82-1.07-1.35-6.59-11.9-14.43-23.23-23.53-34.02"/>
    <path class="cls-6" d="M67.68,179.49c10.46,8.01,17.12,15.05,20.02,21.11,1.7,3.57,3.62,6.89,5.74,9.96.6.85,1.87.77,2.35-.15.42-.8.72-1.8.85-3.02"/>
    <line class="cls-32" x1="105.66" y1="188.35" x2="118.02" y2="186.55"/>
    <path class="cls-13" d="M193.73,250.62c-1.77,2.8-2.3,5.86-1.57,9.23.17.77.7,1.4,1.42,1.7,14.77,6.01,22.26,9.08,22.49,9.16,6.76,2.57,22.69-7.34,28.25-10.33,1-.52,1.52-1.67,1.3-2.8-.47-2.17-1.35-4.29-2.57-6.36"/>
    <path class="cls-45" d="M132.89,134.39c-3.24,4.57-5.42,8.49-6.54,11.73-4.27,12.5-8.49,25.11-12.63,37.81-.25.75-.75,1.42-1.42,1.85-1.62,1.05-3.84,1.9-6.64,2.57"/>
    <line class="cls-23" x1="105.66" y1="188.35" x2="96.63" y2="207.39"/>
    <path class="cls-39" d="M96.63,207.39l-.92-9.76c-.17-1.8-.65-3.52-1.4-5.17-2.57-5.67-5.12-11.33-7.59-17.05-3.12-7.21-3.39-13.85-.8-19.94"/>
    <path class="cls-49" d="M354.66,187.65l-13.08,18.97c-1.1,1.6-3.59,1.05-3.89-.87-.42-2.6-1.5-5.27-3.27-7.99"/>
    <path class="cls-43" d="M334.42,197.76c-3.47-6.34-8.04-11.98-13.73-16.95-.6-.52-.97-1.27-1.02-2.07l-3.07-45c-.1-1.55.37-3.07,1.35-4.29,3.82-4.77,7.34-10.31,10.51-16.62.82-1.67.5-2.75-.97-3.17"/>
    <path class="cls-3" d="M357.18,191.19c-12.48,18.94-24.43,38.13-35.89,57.63-3.17,5.42-7.46,11.08-13.18,12.05-10.53,1.77-22.04,1.4-34.54-1.15-9.96-2.02-15.02-5.91-20.76-13.95-1.05-1.47-2.35-1.5-3.92-.02"/>
    <line class="cls-49" x1="333.89" y1="209.14" x2="334.72" y2="215.55"/>
    <path class="cls-8" d="M382.61,224.19l-.4,2.7c-.1.72-.57,1.32-1.25,1.6-4.24,1.72-7.84,4.39-10.78,8.04"/>
    <path class="cls-9" d="M370.18,236.52l-15.62,15c-.57.55-1.52.2-1.6-.6-.52-5.86-2.02-11.41-4.49-16.65-.32-.7-1.37-.42-1.32.35.32,5.96.8,11.98,1.47,18.09.45,4.27-1.3,8.04-5.24,11.31-12.6,10.51-25.48,21.86-38.63,34.02"/>
    <path class="cls-3" d="M304.74,298.03c-11.48-1.22-23.28-3.87-35.44-7.96-.77-.27-1.6-.42-2.4-.45-4.37-.12-7.44.17-9.26.85-7.51,2.89-12.25,4.27-14.25,4.09-22.66-1.9-43.45-2.62-62.39-2.2-13.5.32-27,5.52-41.48,9.88-4.02,1.2-7.76.77-11.28-1.25"/>
    <line class="cls-9" x1="128.25" y1="301" x2="88.99" y2="262.79"/>
    <path class="cls-3" d="M88.99,262.79l6.79-31.2M101.29,225.43c3.72,5.81,7.09,11.83,10.16,18.09,8.09,16.47,23.96,20.02,42.38,19.37,13.7-.47,25.28-7.79,34.72-21.89"/>
    <path class="cls-22" d="M100.42,223.36c.4.55.7,1.25.87,2.07"/>
    <path class="cls-34" d="M101.29,225.43c-2.7,1.72-4.54,3.77-5.52,6.16"/>
    <path class="cls-22" d="M95.78,231.6c-.47-.87-.7-1.72-.62-2.5.02-.27-.17-.52-.45-.57-.27-.05-.55.1-.65.37l-11.13,33.89"/>
    <line class="cls-7" x1="82.93" y1="262.79" x2="55.9" y2="268.33"/>
    <path class="cls-27" d="M342.68,273.28l-41.33,38.76c-.6.57-1.42.9-2.25.92-8.71.25-21.16-5.02-30.25-8.09-1.22-.4-2.52-.55-3.79-.37-12.78,1.52-18.97,8.76-18.57,21.71"/>
    <path class="cls-9" d="M246.49,326.21l-2.05,16.7c-.2,1.7-2.25,2.47-3.52,1.32-1.1-.97-1.67-2.42-1.72-4.32-.1-4.77-.27-9.48-.5-14.15"/>
    <path class="cls-27" d="M238.71,325.76c-3.59-6.86-8.21-12.7-13.85-17.49-.87-.75-2-1.15-3.14-1.12-16.92.4-35.89-.9-54.43,1.37-.2.02-.4.05-.6.12l-28.58,10.11c-1.27.45-2.7.1-3.64-.85l-37.81-38.33"/>
    <path class="cls-33" d="M96.65,279.57l-11.83-11.13c-.57-.52-1.37-.77-2.15-.62l-25.13,4.47"/>
    <path class="cls-40" d="M128.25,301c1.37,4.07,4.32,7.44,8.83,10.06.85.5,1.87.62,2.82.3,10.66-3.54,19.94-7.94,29.5-9.38,19.39-2.94,40.83-.2,53.51-.17,7.79.05,11.78,2.55,16.3,8.46.5.65,1.5.57,1.9-.12,4.54-8.16,15.07-11.03,23.33-11.93,7.06-.8,20.99,5.37,31.67,8.73.95.3,2,.07,2.75-.6,3.17-2.82,5.14-5.59,5.89-8.31"/>
    <path class="cls-43" d="M241.35,385.46c-4.24-3.67-7.74-9.76-10.48-18.27-.35-1.05-1.67-1.4-2.5-.65-1.62,1.5-2.45,3.24-2.5,5.24-.02.8.2,1.57.67,2.2l8.34,11.41"/>
    <line class="cls-17" x1="112.4" y1="364.34" x2="124.23" y2="347.6"/>
    <path class="cls-8" d="M124.23,347.6c25.63,2.94,55.6,5.42,89.97,7.39,4.72.27,9.56,2.07,14.57,5.42.77.5,1.7.65,2.57.42l73.02-19.29c.8-.2,1.37-.9,1.45-1.72l.4-4.74"/>
    <path class="cls-46" d="M306.21,335.07l5.99,32.24c.2,1.05,1.25,1.7,2.3,1.47l.07-.03c1.05-.25,1.75-1.25,1.6-2.32l-6.19-45.1"/>
    <path class="cls-15" d="M309.98,321.34c8.98-10.73,16.95-20.96,23.86-30.67,3.62-5.09,6.56-10.88,8.83-17.39"/>
    <path class="cls-33" d="M342.68,273.28c2.27-2.94,4.52-5.99,6.71-9.11,6.14-8.68,13.38-15.62,20.76-22.84.57-.57,1-1.27,1.25-2.05.62-2.05.22-2.97-1.22-2.77"/>
    <line class="cls-21" x1="309.98" y1="321.34" x2="307.66" y2="323.96"/>
    <path class="cls-39" d="M307.66,323.96c-5.27.97-9.78.85-13.55-.42-8.11-2.7-16.25-5.32-24.46-7.86-8.31-2.6-16.02.92-23.16,10.53M238.71,325.76l-.2,2.1c-.05.75-1.02,1-1.45.37-4.97-7.31-12.5-11.01-22.06-11.03-5.02-.02-16.12-.2-33.37-.55-3.32-.07-7.56.55-12.73,1.92-9.16,2.42-18.94,5.17-29.35,8.21-2.99.87-5.64.7-7.91-.55-.42-.22-.77-1.02-1.1-2.35"/>
    <line class="cls-25" x1="130.54" y1="323.89" x2="129.92" y2="322.64"/>
    <path class="cls-15" d="M96.65,279.57c9.78,15.1,18.32,27.15,25.61,36.16,1.42,1.77,3.67,3.42,6.74,4.94.5.25.85.75.9,1.3.02.2.02.42.02.67"/>
    <path class="cls-17" d="M129.92,322.64c-1.05-.57-1.92-.9-2.65-1-.97-.15-1.9.57-1.97,1.57-.62,8.01-2.42,15.67-5.42,23.01-1.1,2.67-4.84,8.29-11.26,16.82"/>
    <line class="cls-45" x1="307.66" y1="323.96" x2="306.21" y2="335.07"/>
    <path class="cls-26" d="M124.23,347.6c3.62-8.31,5.74-16.22,6.31-23.71"/>
    <path class="cls-14" d="M264.21,129.15l7.06-4.07c.67-.4.95-1.22.62-1.95l-9.48-21.39c-.32-.72-1.22-1-1.9-.55-1.27.85-2.32,1.82-3.17,2.9-.57.75-.6,1.77-.07,2.55,4.59,6.84,6.51,14.1,5.77,21.79-.05.62.62,1.05,1.17.72"/>
    <path class="cls-43" d="M182.1,183.36c-.77-2.25-3.07-3.54-5.37-3.09l-65.94,12.95c-1.72.35-3.09,1.57-3.59,3.24l-4.27,13.75c-1,3.14,1.52,6.31,4.82,6.09l77.59-5.29c3.09-.22,5.14-3.32,4.14-6.24l-7.39-21.41"/>
    <path class="cls-28" d="M306.89,220.84l-45.82-2.72c-.4-.03-.72.27-.75.67l-.02.47c-.82,13.73,7.69,25.43,19.02,26.1l6.24.35c11.31.67,21.16-9.91,21.99-23.66l.03-.47c.02-.37-.27-.72-.67-.75M175.62,218.3l-45.45,2.55c-.35.02-.6.3-.6.65l.02.37c.8,13.93,10.91,24.68,22.59,24.03l4.34-.25c11.7-.65,20.56-12.48,19.77-26.4v-.37c-.02-.32-.32-.6-.67-.57"/>
    <path class="cls-57" d="M352.43,146.57l-13.65-41.18c-.87-2.67-3.02-4.77-5.72-5.59l-47.52-14.72c-2.27-.7-4.77-.25-6.66,1.25l-11.28,8.88c-1.02.8-2.52.05-2.47-1.25.12-3.29-.37-6.06-1.5-8.29-.37-.75-.82-1.42-1.37-2.05-2.82-3.22-7.66-5.91-14.47-8.04-12.38-3.89-23.48-7.24-33.34-10.03-.7-.22-1.45-.32-2.2-.3-2.94.02-5.91.5-8.93,1.4-11.36,3.42-36.11,11.38-74.3,23.91-.45.15-.9.25-1.37.3-8.49,1.07-12.5,5.39-18.49,12.03-.55.62-1,1.3-1.35,2.05-2.52,5.39-4.12,8.66-4.84,9.83-2.02,3.32-7.56,12.13-16.57,26.43-3.22,5.09-7.89,10.63-14,16.65-8.96,8.78-12.3,13.55-13.6,25.53-.77,7.09-2.99,23.56-6.66,49.44-6.14-25.31-5.14-48.49,10.53-69.18,5.72-7.54,11.93-14.72,16.75-23.01,11.6-20.07,26.68-44.52,46.94-53.76,9.43-4.29,26.85-10.53,52.26-18.74,28.33-9.13,48.79-4.42,75.12,4.77,13.63,4.77,20.79,5.09,35.66,6.94,14.8,1.85,32.34,8.56,43.13,15.57,13.45,8.76,19.19,36.44,19.92,51.16h0Z"/>
    <path class="cls-55" d="M352.43,146.57l9.18,36.69c.27,1.07.77,2.1,1.47,2.99l28.6,36.39c.17.22.32.47.4.75.95,3.27.7,8.26-.75,14.92-2.57,12.05-3.99,20.69-4.24,25.96-.02.62-.25,1.22-.62,1.72-.57.77-.95,1.85-1.12,3.22-1.7,12.05-4.44,27.9-8.21,47.57-.17.97-.62,1.9-1.27,2.67l-14.4,17.25c-.47.55-.17,1.42.52,1.6l15.95,4.22c.07.02.12.05.2.07,7.06,2.87,13.38,10.93,14.3,19.12.37,3.22.7,5.81,1.02,7.76.12.77-.55,1.45-1.32,1.32-.15-.02-.42,0-.85.1-2.17-4.24-3.42-5.62-3.74-4.12-3.37-9.63-7.96-15.77-13.83-18.39-5.77-.02-11.78-1.5-18.04-4.42-.77-.35-1.7-.25-2.37.25-3.12,2.35-5.59,4.54-7.41,6.59-12.28,13.85-19.87,22.09-22.74,24.66-1.37,1.22-4.12,2.6-8.26,4.17-.62.25-.9.97-.62,1.57l18.57,39.48c.77,2.12-.82,3.07-4.79,2.89-1.65-.15-3.12-1.6-4.44-4.37l-8.98-19.74-7.64-17.07c-.32-.72-1.1-1.12-1.87-.97-11.85,2.05-24.11,4.32-36.71,6.79-27.4,5.37-41.8,5.72-73.45,7.89-1.7.12-3.39-.05-5.02-.52l-50.56-14.05c-.7-.17-1.42.1-1.82.67l-9.98,14.42c-4.54,6.74-8.49,15.25-11.83,25.51-1.62,1.8-4.44,1.95-8.44.45,3.04-6.84,5.79-13.73,8.21-20.69,1.02-2.89,5.94-9.91,14.77-21.06.4-.52.2-1.27-.42-1.5-15.15-5.49-24.03-8.91-26.6-10.28-7.79-4.09-13.28-14.87-17.69-22.51-.4-.7-1.2-1.05-2-.92l-14.28,2.45c-9.43,3.37-18.34,17.82-22.56,24.83-.65.47-1.25,1.57-1.77,3.24-.32.12-.65.25-.97.37-2.52-3.92-2.5-8.54.12-13.8,4.12-8.34,10.33-15.2,18.62-20.61.27-.17.55-.3.87-.37l15.87-3.59c.67-.15,1.05-.92.72-1.55l-23.96-48.42c-3.82-8.46-9.71-16.95-8.24-26.8,1.42-9.56,2.8-19.07,4.12-28.53,3.67-25.88,5.89-42.35,6.66-49.44,1.3-11.98,4.64-16.75,13.6-25.53,6.11-6.01,10.78-11.55,14-16.65,9.01-14.3,14.55-23.11,16.57-26.43.72-1.17,2.32-4.44,4.84-9.83.35-.75.8-1.42,1.35-2.05,5.99-6.64,10.01-10.96,18.49-12.03.47-.05.92-.15,1.37-.3,38.18-12.53,62.94-20.49,74.3-23.91,3.02-.9,5.99-1.37,8.93-1.4.75-.02,1.5.07,2.2.3,9.86,2.8,20.96,6.14,33.34,10.03,6.81,2.12,11.65,4.82,14.47,8.04.55.62,1,1.3,1.37,2.05,1.12,2.22,1.62,4.99,1.5,8.29-.05,1.3,1.45,2.05,2.47,1.25l11.28-8.88c1.9-1.5,4.39-1.95,6.66-1.25l47.52,14.72c2.7.82,4.84,2.92,5.72,5.59l13.65,41.18M209.01,72.35l-86.25,27.33c-2.27.4-4.12,1.85-5.54,4.32-9.43,17.94-19.87,35.09-31.3,51.49-6.39,4.77-19.67,15-18.24,24.01-.22,1.17-.42,1.42-.6.75-3.34,22.29-6.61,44.32-9.78,66.16-.8,5.42-1.27,12.73-1.4,21.94l1.65,3.94c13.68,30.35,28.28,59.32,43.77,86.92,1.82,3.24,4.27,4.52,7.31,3.84l3.77,1.3c.97.82,1.87,1.35,2.65,1.62,24.61,8.66,50.14,16.35,76.59,23.11,1.8.47,3.67.6,5.52.4l37.73-4.09,6.46.07c25.18-3.42,49.02-7.86,71.5-13.3,2.52-.6,4.79-1.92,6.56-3.77l47.62-49.19c1.97-2.02,3.29-4.62,3.79-7.39,5.02-27.23,9.43-55.05,13.28-83.48.12-1.07-.37-2.47-1.5-4.14l-25.43-32.99c-.2-.85-1.05-2.02-2.52-3.54.32-1.92.07-4.44-.75-7.51-6.19-22.89-12.78-45.62-19.79-68.26-.82-2.7-2.6-4.44-5.27-5.27l-43.65-14c-.75-.25-1.57-.15-2.25.3-4.17,2.82-7.91,6.79-11.18,11.95-6.64-3.02-11.33-7.41-14.1-13.18.62-3.07-1.9-5.57-7.54-7.49-11.7-3.97-23.56-7.84-35.56-11.6l-5.57-.25h0Z"/>
    <path class="cls-63" d="M214.57,72.6c-.45,6.64-2.45,14.23-5.96,22.74-3.79,3.44-10.61,7.96-20.41,13.55-13.38,7.64-26.05,12.5-38.03,14.62l50.49-25.01c.85-.4,1.47-1.17,1.72-2.07l6.64-24.08,5.57.25h0Z"/>
    <path class="cls-54" d="M209.01,72.35l-6.64,24.08c-.25.9-.87,1.67-1.72,2.07l-50.49,25.01c-2.67.55-5.54,1.92-8.59,4.09l-3.32,1.8-15.5-29.72,86.25-27.33h0Z"/>
    <path class="cls-54" d="M214.57,72.6c12,3.77,23.86,7.64,35.56,11.6,5.64,1.92,8.16,4.42,7.54,7.49-2.15,3.79-4.72,7.21-7.74,10.23-.9.92-.37,3.04,1.55,6.36l-42.88-12.95c3.52-8.51,5.52-16.1,5.96-22.74h0Z"/>
    <path class="cls-50" d="M257.67,91.69c2.77,5.77,7.46,10.16,14.1,13.18-1.75,4.37.12,9.46,5.59,15.25,5.02,6.36,8.34,12.4,9.96,18.17.42,1.55-1.47,2.65-2.6,1.52-1.82-1.85-4.39-4.39-7.71-7.64-2.82-2.75-5.81-2.92-9.01-.52-8.66,6.56-18.14,14.18-28.45,22.79-.95.8-2.3-.27-1.75-1.4,4.62-9.26,11.08-16.95,19.37-23.04,1.87-1.35,2.65-3.77,1.95-5.96-2.07-6.51-4.62-11.75-7.64-15.75-1.92-3.32-2.45-5.44-1.55-6.36,3.02-3.02,5.59-6.44,7.74-10.23M264.21,129.15l7.06-4.07c.67-.4.95-1.22.62-1.95l-9.48-21.39c-.32-.72-1.22-1-1.9-.55-1.27.85-2.32,1.82-3.17,2.9-.57.75-.6,1.77-.07,2.55,4.59,6.84,6.51,14.1,5.77,21.79-.05.62.62,1.05,1.17.72h0Z"/>
    <path class="cls-54" d="M328.85,106.61c-.02,1.27-.5,2.3-1.37,3.04l-14.55,19.04-35.56-8.59c-5.47-5.79-7.34-10.88-5.59-15.25,3.27-5.17,7.01-9.13,11.18-11.95.67-.45,1.5-.55,2.25-.3l43.65,14h0Z"/>
    <path class="cls-56" d="M208.61,95.33l42.88,12.95c3.02,3.99,5.57,9.23,7.64,15.75.7,2.2-.07,4.62-1.95,5.96-8.29,6.09-14.75,13.78-19.37,23.04-.55,1.12.8,2.2,1.75,1.4,10.31-8.61,19.79-16.22,28.45-22.79,3.19-2.4,6.19-2.22,9.01.52,3.32,3.24,5.89,5.79,7.71,7.64,1.12,1.12,3.02.02,2.6-1.52-1.62-5.77-4.94-11.8-9.96-18.17l35.56,8.59,1.82,50.06c.05,1.3-1.05,2.32-2.32,2.2l-57.48-4.89c-2.72-.22-5.27,1.35-6.26,3.89l-10.53,26.8c-.25.62-1.1.7-1.42.12-.17-.32-.37-.8-.6-1.45-.37-1.12-.82-1.87-1.35-2.25-.82-.57-1.62-.92-2.4-1-.95-.1-1.62.87-1.25,1.72,1.62,3.67,3.22,7.04,4.04,11.23,2.42,12.58,5.04,24.61,7.86,36.06l-20.66,8.93c-2.05.9-4.39.9-6.46,0l-22.19-9.53c2.17-12.85,4.37-25.18,6.54-37.04.72-3.87,2.4-7.31,5.02-10.31.37-.42.37-1.02.02-1.47-.35-.42-.97-.52-1.45-.25l-6.99,4.04c-.42.25-1,.05-1.15-.42-2.55-8.01-5.54-15.8-8.96-23.36-2.32-5.09-6.31-6.99-11.98-5.72-9.56,2.15-28.5,5.64-56.78,10.46l17.3-49.46c.92-2.67,3.84-4.09,6.51-3.19l46.12,15.62c.12.05.27-.05.3-.17l.57-1.82c.1-.27-.07-.6-.35-.67-16.25-5.42-31.87-11.83-46.89-19.24,3.04-2.17,5.91-3.54,8.59-4.09,11.98-2.12,24.66-6.99,38.03-14.62,9.81-5.59,16.62-10.11,20.41-13.55h0Z"/>
    <path class="cls-51" d="M122.76,99.68l15.5,29.72-5.37,4.99c-2.4-7.16-5.99-14.85-10.81-23.01-.42-.72-1.02-1.5-1.77-2.27-.87-.92-1.1-2.2-.72-3.87.22-.95-.67-1.77-1.6-1.5l-.77.25c1.42-2.47,3.27-3.92,5.54-4.32h0Z"/>
    <path class="cls-52" d="M264.21,129.15c-.55.32-1.22-.1-1.17-.72.75-7.69-1.17-14.95-5.77-21.79-.52-.77-.5-1.8.07-2.55.85-1.07,1.9-2.05,3.17-2.9.67-.45,1.57-.17,1.9.55l9.48,21.39c.32.72.05,1.55-.62,1.95l-7.06,4.07h0Z"/>
    <path class="cls-56" d="M132.89,134.39c-3.24,4.57-5.42,8.49-6.54,11.73-4.27,12.5-8.49,25.11-12.63,37.81-.25.75-.75,1.42-1.42,1.85-1.62,1.05-3.84,1.9-6.64,2.57l-9.03,19.04-.92-9.76c-.17-1.8-.65-3.52-1.4-5.17-2.57-5.67-5.12-11.33-7.59-17.05-3.12-7.21-3.39-13.85-.8-19.94,11.43-16.4,21.86-33.54,31.3-51.49l.77-.25c.92-.27,1.82.55,1.6,1.5-.37,1.67-.15,2.94.72,3.87.75.77,1.35,1.55,1.77,2.27,4.82,8.16,8.41,15.85,10.81,23.01h0Z"/>
    <path class="cls-63" d="M354.66,187.65l-13.08,18.97c-1.1,1.6-3.59,1.05-3.89-.87-.42-2.6-1.5-5.27-3.27-7.99-3.47-6.34-8.04-11.98-13.73-16.95-.6-.52-.97-1.27-1.02-2.07l-3.07-45c-.1-1.55.37-3.07,1.35-4.29,3.82-4.77,7.34-10.31,10.51-16.62.82-1.67.5-2.75-.97-3.17.87-.75,1.35-1.77,1.37-3.04,2.67.82,4.44,2.57,5.27,5.27,7.01,22.64,13.6,45.37,19.79,68.26.82,3.07,1.07,5.59.75,7.51h0Z"/>
    <path class="cls-50" d="M327.48,109.66c1.47.42,1.8,1.5.97,3.17-3.17,6.31-6.69,11.85-10.51,16.62-.97,1.22-1.45,2.75-1.35,4.29l3.07,45c.05.8.42,1.55,1.02,2.07,5.69,4.97,10.26,10.61,13.73,16.95.47,3.87.3,7.66-.52,11.38-4.32-11.95-7.96-21.99-21.26-23.46-18.97-2.1-37.53-3.77-55.7-4.99-1.65-.1-3.14.92-3.64,2.5l-7.36,23.78c-.3.97.2,2,1.15,2.35.95.32,2.7.62,5.27.85,28.68,2.55,51.44,4.59,68.26,6.14,3.97.37,8.68.12,14.13-.75,2.5-.82,3.84-.52,4.02.87.27,2.17-1.52,4.17-3.94,4.39-8.31.72-14.65.8-18.99.17-.77-.12-1.52.37-1.7,1.15-2.85,11.73-9.08,27.28-22.64,29.32-17.12,2.57-33.67-5.67-36.21-23.83-.67-4.74-.97-7.31-.9-7.71.25-1.7-1.07-3.19-2.8-3.19-2.87.02-5.84-.67-8.88-2.07-1.12-.52-2.35.52-2.02,1.72l8.24,29.37,3.17,15.97c.15.82-.22,1.67-.92,2.1-6.79,4.32-25.26,15.27-33.97,13.1-9.83-2.47-19.37-6.29-28.63-11.51-1.65-.92-2.57-2.75-2.37-4.64l2.37-19.77,5.72-26.05c.07-.32-.25-.6-.57-.5l-10.96,3.22c-.55.17-.92.7-.9,1.27.52,9.16-1.47,16.67-5.96,22.54-7.21,9.36-23.11,12.08-33.34,8.44-14.13-5.02-15.32-14.77-19.94-26.98-.3-.82-1.12-1.35-2-1.27l-20.16,1.7-8.73-7.76c-.42-.37-.8-.82-1.07-1.35-6.59-11.9-14.43-23.23-23.53-34.02.17.67.37.42.6-.75,10.46,8.01,17.12,15.05,20.02,21.11,1.7,3.57,3.62,6.89,5.74,9.96.6.85,1.87.77,2.35-.15.42-.8.72-1.8.85-3.02l9.03-19.04,12.35-1.8c28.28-4.82,47.22-8.31,56.78-10.46,5.67-1.27,9.66.62,11.98,5.72,3.42,7.56,6.41,15.35,8.96,23.36.15.47.72.67,1.15.42l6.99-4.04c.47-.27,1.1-.17,1.45.25.35.45.35,1.05-.02,1.47-2.62,2.99-4.29,6.44-5.02,10.31-2.17,11.85-4.37,24.18-6.54,37.04-1.77,2.8-2.3,5.86-1.57,9.23.17.77.7,1.4,1.42,1.7,14.77,6.01,22.26,9.08,22.49,9.16,6.76,2.57,22.69-7.34,28.25-10.33,1-.52,1.52-1.67,1.3-2.8-.47-2.17-1.35-4.29-2.57-6.36-2.82-11.46-5.44-23.48-7.86-36.06-.82-4.19-2.42-7.56-4.04-11.23-.37-.85.3-1.82,1.25-1.72.77.07,1.57.42,2.4,1,.52.37.97,1.12,1.35,2.25.22.65.42,1.12.6,1.45.32.57,1.17.5,1.42-.12l10.53-26.8c1-2.55,3.54-4.12,6.26-3.89l57.48,4.89c1.27.12,2.37-.9,2.32-2.2l-1.82-50.06,14.55-19.04M182.1,183.36c-.77-2.25-3.07-3.54-5.37-3.09l-65.94,12.95c-1.72.35-3.09,1.57-3.59,3.24l-4.27,13.75c-1,3.14,1.52,6.31,4.82,6.09l77.59-5.29c3.09-.22,5.14-3.32,4.14-6.24l-7.39-21.41M306.89,220.84l-45.82-2.72c-.4-.03-.72.27-.75.67l-.02.47c-.82,13.73,7.69,25.43,19.02,26.1l6.24.35c11.31.67,21.16-9.91,21.99-23.66l.03-.47c.02-.37-.27-.72-.67-.75M175.62,218.3l-45.45,2.55c-.35.02-.6.3-.6.65l.02.37c.8,13.93,10.91,24.68,22.59,24.03l4.34-.25c11.7-.65,20.56-12.48,19.77-26.4v-.37c-.02-.32-.32-.6-.67-.57h0Z"/>
    <path class="cls-60" d="M141.57,127.6c15.02,7.41,30.65,13.83,46.89,19.24.27.07.45.4.35.67l-.57,1.82c-.02.12-.17.22-.3.17l-46.12-15.62c-2.67-.9-5.59.52-6.51,3.19l-17.3,49.46-12.35,1.8c2.8-.67,5.02-1.52,6.64-2.57.67-.42,1.17-1.1,1.42-1.85,4.14-12.7,8.36-25.31,12.63-37.81,1.12-3.24,3.29-7.16,6.54-11.73l5.37-4.99,3.32-1.8h0Z"/>
    <path class="cls-54" d="M85.92,155.48c-2.6,6.09-2.32,12.73.8,19.94,2.47,5.72,5.02,11.38,7.59,17.05.75,1.65,1.22,3.37,1.4,5.17l.92,9.76c-.12,1.22-.42,2.22-.85,3.02-.47.92-1.75,1-2.35.15-2.12-3.07-4.04-6.39-5.74-9.96-2.89-6.06-9.56-13.1-20.02-21.11-1.42-9.01,11.85-19.24,18.24-24.01h0Z"/>
    <path class="cls-63" d="M182.1,183.36l7.39,21.41c1,2.92-1.05,6.01-4.14,6.24l-77.59,5.29c-3.29.22-5.81-2.94-4.82-6.09l4.27-13.75c.5-1.67,1.87-2.89,3.59-3.24l65.94-12.95c2.3-.45,4.59.85,5.37,3.09h0Z"/>
    <path class="cls-63" d="M333.89,209.14l.82,6.41c-5.44.87-10.16,1.12-14.13.75-16.82-1.55-39.58-3.59-68.26-6.14-2.57-.22-4.32-.52-5.27-.85-.95-.35-1.45-1.37-1.15-2.35l7.36-23.78c.5-1.57,2-2.6,3.64-2.5,18.17,1.22,36.74,2.89,55.7,4.99,13.3,1.47,16.95,11.51,21.26,23.46h0Z"/>
    <path class="cls-53" d="M67.08,180.24c9.11,10.78,16.95,22.11,23.53,34.02.27.52.65.97,1.07,1.35l8.73,7.76c.4.55.7,1.25.87,2.07-2.7,1.72-4.54,3.77-5.52,6.16-.47-.87-.7-1.72-.62-2.5.02-.27-.17-.52-.45-.57-.27-.05-.55.1-.65.37l-11.13,33.89-27.03,5.54c.12-9.21.6-16.52,1.4-21.94,3.17-21.84,6.44-43.87,9.78-66.16h0Z"/>
    <path class="cls-51" d="M354.66,187.65c1.47,1.52,2.32,2.7,2.52,3.54-12.48,18.94-24.43,38.13-35.89,57.63-3.17,5.42-7.46,11.08-13.18,12.05-10.53,1.77-22.04,1.4-34.54-1.15-9.96-2.02-15.02-5.91-20.76-13.95-1.05-1.47-2.35-1.5-3.92-.02l-8.24-29.37c-.32-1.2.9-2.25,2.02-1.72,3.04,1.4,6.01,2.1,8.88,2.07,1.72,0,3.04,1.5,2.8,3.19-.07.4.22,2.97.9,7.71,2.55,18.17,19.09,26.4,36.21,23.83,13.55-2.05,19.79-17.59,22.64-29.32.17-.77.92-1.27,1.7-1.15,4.34.62,10.68.55,18.99-.17,2.42-.22,4.22-2.22,3.94-4.39-.17-1.4-1.52-1.7-4.02-.87l-.82-6.41c.82-3.72,1-7.51.52-11.38,1.77,2.72,2.85,5.39,3.27,7.99.3,1.92,2.8,2.47,3.89.87l13.08-18.97h0Z"/>
    <path class="cls-56" d="M357.18,191.19l25.43,32.99-.4,2.7c-.1.72-.57,1.32-1.25,1.6-4.24,1.72-7.84,4.39-10.78,8.04l-15.62,15c-.57.55-1.52.2-1.6-.6-.52-5.86-2.02-11.41-4.49-16.65-.32-.7-1.37-.42-1.32.35.32,5.96.8,11.98,1.47,18.09.45,4.27-1.3,8.04-5.24,11.31-12.6,10.51-25.48,21.86-38.63,34.02-11.48-1.22-23.28-3.87-35.44-7.96-.77-.27-1.6-.42-2.4-.45-4.37-.12-7.44.17-9.26.85-7.51,2.89-12.25,4.27-14.25,4.09-22.66-1.9-43.45-2.62-62.39-2.2-13.5.32-27,5.52-41.48,9.88-4.02,1.2-7.76.77-11.28-1.25l-39.26-38.21,6.79-31.2c.97-2.4,2.82-4.44,5.52-6.16,3.72,5.81,7.09,11.83,10.16,18.09,8.09,16.47,23.96,20.02,42.38,19.37,13.7-.47,25.28-7.79,34.72-21.89l-2.37,19.77c-.2,1.9.72,3.72,2.37,4.64,9.26,5.22,18.79,9.03,28.63,11.51,8.71,2.17,27.18-8.78,33.97-13.1.7-.42,1.07-1.27.92-2.1l-3.17-15.97c1.57-1.47,2.87-1.45,3.92.02,5.74,8.04,10.81,11.93,20.76,13.95,12.5,2.55,24.01,2.92,34.54,1.15,5.72-.97,10.01-6.64,13.18-12.05,11.46-19.49,23.41-38.68,35.89-57.63h0Z"/>
    <path class="cls-51" d="M188.54,241.01c-9.43,14.1-21.01,21.41-34.72,21.89-18.42.65-34.29-2.89-42.38-19.37-3.07-6.26-6.44-12.28-10.16-18.09-.17-.82-.47-1.52-.87-2.07l20.16-1.7c.87-.07,1.7.45,2,1.27,4.62,12.2,5.81,21.96,19.94,26.98,10.23,3.64,26.13.92,33.34-8.44,4.49-5.86,6.49-13.38,5.96-22.54-.02-.57.35-1.1.9-1.27l10.96-3.22c.32-.1.65.17.57.5l-5.72,26.05h0Z"/>
    <path class="cls-58" d="M306.89,220.84c.4.02.7.37.67.75l-.03.47c-.82,13.75-10.68,24.33-21.99,23.66l-6.24-.35c-11.33-.67-19.84-12.38-19.02-26.1l.02-.47c.02-.4.35-.7.75-.67l45.82,2.72h0Z"/>
    <path class="cls-58" d="M175.62,218.3c.35-.02.65.25.67.57v.37c.8,13.93-8.06,25.76-19.77,26.4l-4.34.25c-11.68.65-21.79-10.11-22.59-24.03l-.02-.37c0-.35.25-.62.6-.65l45.45-2.55h0Z"/>
    <path class="cls-63" d="M241.35,385.46c-4.24-3.67-7.74-9.76-10.48-18.27-.35-1.05-1.67-1.4-2.5-.65-1.62,1.5-2.45,3.24-2.5,5.24-.02.8.2,1.57.67,2.2l8.34,11.41-37.73,4.09c-1.85.2-3.72.07-5.52-.4-26.45-6.76-51.99-14.45-76.59-23.11-.77-.27-1.67-.8-2.65-1.62l11.83-16.75c25.63,2.94,55.6,5.42,89.97,7.39,4.72.27,9.56,2.07,14.57,5.42.77.5,1.7.65,2.57.42l73.02-19.29c.8-.2,1.37-.9,1.45-1.72l.4-4.74,5.99,32.24c.2,1.05,1.25,1.7,2.3,1.47l.07-.03c1.05-.25,1.75-1.25,1.6-2.32l-6.19-45.1c8.98-10.73,16.95-20.96,23.86-30.67,3.62-5.09,6.56-10.88,8.83-17.39,2.27-2.94,4.52-5.99,6.71-9.11,6.14-8.68,13.38-15.62,20.76-22.84.57-.57,1-1.27,1.25-2.05.62-2.05.22-2.97-1.22-2.77,2.94-3.64,6.54-6.31,10.78-8.04.67-.27,1.15-.87,1.25-1.6l.4-2.7c1.12,1.67,1.62,3.07,1.5,4.14-3.84,28.43-8.26,56.25-13.28,83.48-.5,2.77-1.82,5.37-3.79,7.39l-47.62,49.19c-1.77,1.85-4.04,3.17-6.56,3.77-22.49,5.44-46.32,9.88-71.5,13.3h0Z"/>
    <path class="cls-51" d="M95.78,231.6l-6.79,31.2h-6.06l11.13-33.89c.1-.27.37-.42.65-.37.27.05.47.3.45.57-.07.77.15,1.62.62,2.5h0Z"/>
    <path class="cls-59" d="M370.18,236.52c1.45-.2,1.85.72,1.22,2.77-.25.77-.67,1.47-1.25,2.05-7.39,7.21-14.62,14.15-20.76,22.84-2.2,3.12-4.44,6.16-6.71,9.11l-41.33,38.76c-.6.57-1.42.9-2.25.92-8.71.25-21.16-5.02-30.25-8.09-1.22-.4-2.52-.55-3.79-.37-12.78,1.52-18.97,8.76-18.57,21.71l-2.05,16.7c-.2,1.7-2.25,2.47-3.52,1.32-1.1-.97-1.67-2.42-1.72-4.32-.1-4.77-.27-9.48-.5-14.15-3.59-6.86-8.21-12.7-13.85-17.49-.87-.75-2-1.15-3.14-1.12-16.92.4-35.89-.9-54.43,1.37-.2.02-.4.05-.6.12l-28.58,10.11c-1.27.45-2.7.1-3.64-.85l-37.81-38.33-11.83-11.13c-.57-.52-1.37-.77-2.15-.62l-25.13,4.47-1.65-3.94,27.03-5.54h6.06l39.26,38.21c1.37,4.07,4.32,7.44,8.83,10.06.85.5,1.87.62,2.82.3,10.66-3.54,19.94-7.94,29.5-9.38,19.39-2.94,40.83-.2,53.51-.17,7.79.05,11.78,2.55,16.3,8.46.5.65,1.5.57,1.9-.12,4.54-8.16,15.07-11.03,23.33-11.93,7.06-.8,20.99,5.37,31.67,8.73.95.3,2,.07,2.75-.6,3.17-2.82,5.14-5.59,5.89-8.31,13.15-12.15,26.03-23.51,38.63-34.02,3.94-3.27,5.69-7.04,5.24-11.31-.67-6.11-1.15-12.13-1.47-18.09-.05-.77,1-1.05,1.32-.35,2.47,5.24,3.97,10.78,4.49,16.65.07.8,1.02,1.15,1.6.6l15.62-15h0Z"/>
    <path class="cls-51" d="M193.73,250.62l22.19,9.53c2.07.9,4.42.9,6.46,0l20.66-8.93c1.22,2.07,2.1,4.19,2.57,6.36.22,1.12-.3,2.27-1.3,2.8-5.57,2.99-21.49,12.9-28.25,10.33-.22-.07-7.71-3.14-22.49-9.16-.72-.3-1.25-.92-1.42-1.7-.72-3.37-.2-6.44,1.57-9.23h0Z"/>
    <path class="cls-63" d="M96.65,279.57c9.78,15.1,18.32,27.15,25.61,36.16,1.42,1.77,3.67,3.42,6.74,4.94.5.25.85.75.9,1.3.02.2.02.42.02.67-1.05-.57-1.92-.9-2.65-1-.97-.15-1.9.57-1.97,1.57-.62,8.01-2.42,15.67-5.42,23.01-1.1,2.67-4.84,8.29-11.26,16.82-3.04.67-5.49-.6-7.31-3.84-15.5-27.6-30.1-56.58-43.77-86.92l25.13-4.47c.77-.15,1.57.1,2.15.62l11.83,11.13h0Z"/>
    <path class="cls-54" d="M342.68,273.28c-2.27,6.51-5.22,12.3-8.83,17.39-6.91,9.71-14.87,19.94-23.86,30.67l-2.32,2.62c-5.27.97-9.78.85-13.55-.42-8.11-2.7-16.25-5.32-24.46-7.86-8.31-2.6-16.02.92-23.16,10.53-.4-12.95,5.79-20.19,18.57-21.71,1.27-.17,2.57-.03,3.79.37,9.08,3.07,21.54,8.34,30.25,8.09.82-.02,1.65-.35,2.25-.92l41.33-38.76h0Z"/>
    <path class="cls-54" d="M96.65,279.57l37.81,38.33c.95.95,2.37,1.3,3.64.85l28.58-10.11c.2-.07.4-.1.6-.12,18.54-2.27,37.51-.97,54.43-1.37,1.15-.02,2.27.37,3.14,1.12,5.64,4.79,10.26,10.63,13.85,17.49l-.2,2.1c-.05.75-1.02,1-1.45.37-4.97-7.31-12.5-11.01-22.06-11.03-5.02-.02-16.12-.2-33.37-.55-3.32-.07-7.56.55-12.73,1.92-9.16,2.42-18.94,5.17-29.35,8.21-2.99.87-5.64.7-7.91-.55-.42-.22-.77-1.02-1.1-2.35l-.62-1.25c0-.25,0-.47-.02-.67-.05-.55-.4-1.05-.9-1.3-3.07-1.52-5.32-3.17-6.74-4.94-7.29-9.01-15.82-21.06-25.61-36.16h0Z"/>
    <path class="cls-57" d="M43.99,376.5l.2,43.25c.02,1.52,1.22,2.72,2.72,2.75,10.06.07,19.74.12,29.07.15.67,0,1.17-.17,1.45-.55.32-.4.52-.9.6-1.52l3.17.22c1.02,1.52,2.55,2.35,4.54,2.45,7.26.35,14.45.12,21.56-.67,3.99,1.5,6.81,1.35,8.44-.45,24.28.97,48.44,1.22,72.5.77,6.69-.12,18.84,1.1,28.38-.62l22.96.72c26.2,0,52.43.12,78.69.35,3.97.02,5.77-1.35,5.34-4.14,1.32,2.77,2.8,4.22,4.44,4.37-12,3.52-22.24,5.42-30.72,5.69-17.3.5-34.59.3-51.94-.57-8.61-.42-13.63-.57-15.02-.42-3.02.32-16.32,1.65-39.86,3.97-3.47.32-8.04.25-13.7-.22-35.26-3.09-54.11-6.06-83.06-5.64-14.62.22-29.92-.02-45.87-.75-3.72-.17-6.91-2.7-7.94-6.26-3.67-12.63-5.57-25.53-5.67-38.68-.12-18.94,12.5-29.27,27.45-44.02,5.81-5.77,4.19-13.25,1.45-21.01-3.12-8.91-5.44-18.07-6.94-27.48l23.96,48.42c.32.62-.05,1.4-.72,1.55l-15.87,3.59c-.32.07-.6.2-.87.37-8.29,5.42-14.5,12.28-18.62,20.61-2.62,5.27-2.65,9.88-.12,13.8h0Z"/>
    <path class="cls-51" d="M304.74,298.03c-.75,2.72-2.72,5.49-5.89,8.31-.75.67-1.8.9-2.75.6-10.68-3.37-24.61-9.53-31.67-8.73-8.26.9-18.79,3.77-23.33,11.93-.4.7-1.4.77-1.9.12-4.52-5.91-8.51-8.41-16.3-8.46-12.68-.02-34.12-2.77-53.51.17-9.56,1.45-18.84,5.84-29.5,9.38-.95.32-1.97.2-2.82-.3-4.52-2.62-7.46-5.99-8.83-10.06,3.52,2.02,7.26,2.45,11.28,1.25,14.47-4.37,27.98-9.56,41.48-9.88,18.94-.42,39.73.3,62.39,2.2,2,.17,6.74-1.2,14.25-4.09,1.82-.67,4.89-.97,9.26-.85.8.02,1.62.17,2.4.45,12.15,4.09,23.96,6.74,35.44,7.96h0Z"/>
    <path class="cls-56" d="M307.66,323.96l-1.45,11.11-.4,4.74c-.07.82-.65,1.52-1.45,1.72l-73.02,19.29c-.87.22-1.8.07-2.57-.42-5.02-3.34-9.86-5.14-14.57-5.42-34.37-1.97-64.34-4.44-89.97-7.39,3.62-8.31,5.74-16.22,6.31-23.71.32,1.32.67,2.12,1.1,2.35,2.27,1.25,4.92,1.42,7.91.55,10.41-3.04,20.19-5.79,29.35-8.21,5.17-1.37,9.41-2,12.73-1.92,17.25.35,28.35.52,33.37.55,9.56.02,17.1,3.72,22.06,11.03.42.62,1.4.37,1.45-.37l.2-2.1c.22,4.67.4,9.38.5,14.15.05,1.9.62,3.34,1.72,4.32,1.27,1.15,3.32.37,3.52-1.32l2.05-16.7c7.14-9.61,14.85-13.13,23.16-10.53,8.21,2.55,16.35,5.17,24.46,7.86,3.77,1.27,8.29,1.4,13.55.42h0Z"/>
    <path class="cls-61" d="M129.92,322.64l.62,1.25c-.57,7.49-2.7,15.4-6.31,23.71l-11.83,16.75-3.77-1.3c6.41-8.54,10.16-14.15,11.26-16.82,2.99-7.34,4.79-15,5.42-23.01.07-1,1-1.72,1.97-1.57.72.1,1.6.42,2.65,1h0Z"/>
    <path class="cls-60" d="M309.98,321.34l6.19,45.1c.15,1.07-.55,2.07-1.6,2.32l-.07.03c-1.05.22-2.1-.42-2.3-1.47l-5.99-32.24,1.45-11.11,2.32-2.62h0Z"/>
    <path class="cls-51" d="M373.72,348.37l-15.07,10.71c-.87.62-1.15,1.82-.6,2.75l5.79,10.03c.65,1.12,1.92,1.72,3.19,1.55,7.71-1.05,14.55-3.27,20.51-6.64.32-1.5,1.57-.12,3.74,4.12,1.07,1.07,1.47,2.22,1.22,3.42l-22.14,10.73c-1.02.5-1.67,1.52-1.7,2.65l-.55,34.69-35.29-1.7-18.57-39.48c-.27-.6,0-1.32.62-1.57,4.14-1.57,6.89-2.94,8.26-4.17,2.87-2.57,10.46-10.81,22.74-24.66,1.82-2.05,4.29-4.24,7.41-6.59.67-.5,1.6-.6,2.37-.25,6.26,2.92,12.28,4.39,18.04,4.42h0Z"/>
    <path class="cls-51" d="M107.31,422.57c-7.11.8-14.3,1.02-21.56.67-2-.1-3.52-.92-4.54-2.45,1.02-12.95-.17-25.21-3.59-36.74,4.97-1.25,9.28-4.12,13-8.59,1.27-1.52,1.02-3.79-.52-5.02-7.94-6.24-14.87-13.7-20.79-22.41l14.28-2.45c.8-.12,1.6.22,2,.92,4.42,7.64,9.91,18.42,17.69,22.51,2.57,1.37,11.46,4.79,26.6,10.28.62.22.82.97.42,1.5-8.83,11.16-13.75,18.17-14.77,21.06-2.42,6.96-5.17,13.85-8.21,20.69h0Z"/>
    <path class="cls-64" d="M69.3,348.05c5.91,8.71,12.85,16.17,20.79,22.41,1.55,1.22,1.8,3.49.52,5.02-3.72,4.47-8.04,7.34-13,8.59-9.96-4.84-20.24-8.56-30.87-11.18,4.22-7.01,13.13-21.46,22.56-24.83h0Z"/>
    <path class="cls-64" d="M373.72,348.37c5.86,2.62,10.46,8.76,13.83,18.39-5.96,3.37-12.8,5.59-20.51,6.64-1.27.17-2.55-.42-3.19-1.55l-5.79-10.03c-.55-.92-.27-2.12.6-2.75l15.07-10.71h0Z"/>
    <path class="cls-50" d="M241.35,385.46l-6.46-.07-8.34-11.41c-.47-.62-.7-1.4-.67-2.2.05-2,.87-3.74,2.5-5.24.82-.75,2.15-.4,2.5.65,2.75,8.51,6.24,14.6,10.48,18.27h0Z"/>
    <path class="cls-60" d="M46.74,372.88c10.63,2.62,20.91,6.34,30.87,11.18,3.42,11.53,4.62,23.78,3.59,36.74l-3.17-.22-2.15-28.28c-.15-1.9-1.32-3.57-3.09-4.32l-27.83-11.85c.52-1.67,1.12-2.77,1.77-3.24h0Z"/>
    <path class="cls-63" d="M392.52,374.3l.35,45.55c0,.77-.47,1.47-1.2,1.72-9.18,3.22-14.97-.3-23.53.8l.55-34.69c.02-1.12.67-2.15,1.7-2.65l22.14-10.73h0Z"/>
    <path class="cls-63" d="M44.97,376.12l27.83,11.85c1.77.75,2.94,2.42,3.09,4.32l2.15,28.28c-.07.62-.27,1.12-.6,1.52-.27.37-.77.55-1.45.55-9.33-.02-19.02-.07-29.07-.15-1.5-.02-2.7-1.22-2.72-2.75l-.2-43.25c.32-.12.65-.25.97-.37h0Z"/>
    <path class="cls-51" d="M314.63,399.46c-20.34,2.42-40.45,5.99-60.35,10.71-11.01,2.62-19.72,3.99-29.27,10.61-.82.55-.45,1.85.55,1.87l14.03.35-22.96-.72c2.52-3.67,5.64-6.79,9.36-9.33,1.1-.75.35-2.45-.95-2.15l-6.61,1.55c-.85.2-1.7.3-2.57.32-17.35.47-33.92-1.42-49.76-5.74-12.55-3.42-25.41-6.86-38.51-10.31l9.98-14.42c.4-.57,1.12-.85,1.82-.67l50.56,14.05c1.62.47,3.32.65,5.02.52,31.65-2.17,46.05-2.52,73.45-7.89,12.6-2.47,24.86-4.74,36.71-6.79.77-.15,1.55.25,1.87.97l7.64,17.07h0Z"/>
    <path class="cls-53" d="M127.57,396.61c13.1,3.44,25.95,6.89,38.51,10.31,15.85,4.32,32.42,6.21,49.76,5.74.87-.02,1.72-.12,2.57-.32l6.61-1.55c1.3-.3,2.05,1.4.95,2.15-3.72,2.55-6.84,5.67-9.36,9.33-9.53,1.72-21.69.5-28.38.62-24.06.45-48.22.2-72.5-.77,3.34-10.26,7.29-18.77,11.83-25.51h0Z"/>
    <path class="cls-53" d="M314.63,399.46l8.98,19.74c.42,2.8-1.37,4.17-5.34,4.14-26.25-.22-52.48-.35-78.69-.35l-14.03-.35c-1-.02-1.37-1.32-.55-1.87,9.56-6.61,18.27-7.99,29.27-10.61,19.89-4.72,40.01-8.29,60.35-10.71h0Z"/>
  </g>
</svg>