<?xml version="1.0" encoding="UTF-8"?>
<svg id="Camada_1" data-name="Camada 1" xmlns="http://www.w3.org/2000/svg" xmlns:xlink="http://www.w3.org/1999/xlink" viewBox="0 0 422.07 422.07">
  <defs>
    <style>
      .cls-1 {
        stroke: #f58637;
      }

      .cls-1, .cls-2, .cls-3, .cls-4, .cls-5, .cls-6, .cls-7, .cls-8, .cls-9, .cls-10, .cls-11, .cls-12, .cls-13, .cls-14, .cls-15, .cls-16, .cls-17, .cls-18, .cls-19, .cls-20, .cls-21, .cls-22, .cls-23, .cls-24, .cls-25, .cls-26, .cls-27, .cls-28, .cls-29, .cls-30, .cls-31, .cls-32, .cls-33, .cls-34, .cls-35, .cls-36, .cls-37, .cls-38, .cls-39 {
        fill: none;
        stroke-miterlimit: 10;
      }

      .cls-2 {
        stroke: #21113b;
      }

      .cls-3 {
        stroke: #d7701f;
      }

      .cls-40 {
        fill: #fed635;
      }

      .cls-4 {
        stroke: #e5a82a;
      }

      .cls-5 {
        stroke: #7b481f;
      }

      .cls-6 {
        stroke: #f2cb85;
      }

      .cls-7 {
        stroke: #6e1b0f;
      }

      .cls-8 {
        stroke: #815a14;
      }

      .cls-41 {
        fill: #361005;
      }

      .cls-9 {
        stroke: #7d694e;
      }

      .cls-42 {
        fill: #f17074;
      }

      .cls-10 {
        stroke: #94403d;
      }

      .cls-43 {
        fill: #fff;
      }

      .cls-11 {
        stroke: #efc07b;
      }

      .cls-12 {
        stroke: #180504;
      }

      .cls-13 {
        stroke: #d3312a;
      }

      .cls-14 {
        stroke: #e05e3b;
      }

      .cls-44 {
        fill: #fac833;
      }

      .cls-45 {
        fill: #f3b322;
      }

      .cls-46 {
        fill: #ec3539;
      }

      .cls-15 {
        stroke: #f0742e;
      }

      .cls-47 {
        fill: #0e0106;
      }

      .cls-16 {
        stroke: #e9af39;
      }

      .cls-17 {
        stroke: #f9c52c;
      }

      .cls-18 {
        stroke: #a54246;
      }

      .cls-19 {
        stroke: #e39b4e;
      }

      .cls-48 {
        fill: #cc791e;
      }

      .cls-49 {
        fill: #fee355;
      }

      .cls-20 {
        stroke: #714421;
      }

      .cls-50 {
        fill: #332070;
      }

      .cls-51 {
        fill: #ecd095;
      }

      .cls-52 {
        fill: #220802;
      }

      .cls-53 {
        fill: #02020d;
      }

      .cls-54 {
        fill: #591317;
      }

      .cls-21 {
        stroke: #fedd45;
      }

      .cls-22 {
        stroke: #c09e84;
      }

      .cls-23 {
        stroke: #84651d;
      }

      .cls-55 {
        fill: #d4873c;
      }

      .cls-24 {
        stroke: #805833;
      }

      .cls-56 {
        fill: #ba2d1b;
      }

      .cls-25 {
        stroke: #fccf34;
      }

      .cls-26 {
        stroke: #6d3d12;
      }

      .cls-57 {
        fill: #f8c574;
      }

      .cls-27 {
        stroke: #c08a1f;
      }

      .cls-58 {
        fill: #813d08;
      }

      .cls-59 {
        fill: url(#Gradiente_sem_nome_10);
      }

      .cls-28 {
        stroke: #f37f36;
      }

      .cls-29 {
        stroke: #210f44;
      }

      .cls-30 {
        stroke: #dc572c;
      }

      .cls-31 {
        stroke: #48120e;
      }

      .cls-32 {
        stroke: #8b5e12;
      }

      .cls-33 {
        stroke: #f5ba6a;
      }

      .cls-34 {
        stroke: #f7be2b;
      }

      .cls-35 {
        stroke: #7d1b20;
      }

      .cls-60 {
        fill: #f2af60;
      }

      .cls-36 {
        stroke: #9a7a2d;
      }

      .cls-37 {
        stroke: #331f79;
      }

      .cls-38 {
        stroke: #9a731d;
      }

      .cls-39 {
        stroke: #866c1e;
      }
    </style>
    <linearGradient id="Gradiente_sem_nome_10" data-name="Gradiente sem nome 10" x1="15.59" y1="49.92" x2="371.99" y2="343.72" gradientUnits="userSpaceOnUse">
      <stop offset="0" stop-color="#331d81"/>
      <stop offset="1" stop-color="#16085e"/>
    </linearGradient>
  </defs>
  <rect class="cls-59" x="-.57" width="423.22" height="422.07"/>
  <g>
    <g>
      <path class="cls-40" d="M151.13,398.93l-9.61-12.41s3.58-10.97,6.71-12.53,18.9-11.32,18.9-11.32c0,0,41.48,3.79,42.37,5.65s13.33,20.32,16.55,20.32,15.52-15.27,19.28-17.2,11.17-8.77,11.17-8.77c0,0,7.35-.89,8.02-1.83s14.09,10.02,14.98,11.14,4.92,4.86,5.59,7.91-7.16,21.16-8.5,22.28-46.29,11.85-56.57,13.42-70.86-16.65-70.86-16.65"/>
      <path class="cls-45" d="M266.13,366.18c-3.26,12.4-11.64,22.03-25.34,27.37-21.14,8.23-42.72,6.95-61.19-3.44-10.19-5.73-16.34-13.94-18.73-23.83l9.18-5.31c16.62,21.62,51.14,24.65,75.26,10.47,3.92-2.31,7.86-5.9,11.69-10.6l9.13,5.34h0Z"/>
      <path class="cls-45" d="M179.98,385.45s-13.25-15.26-13.89-15.93-3.83-10.64,0-11.47,10.44-6.42,10.44-6.42l4.4-5.52s51.66.01,55.32.79,14.44-.03,15.2,0,11.12,4.06,11.12,4.06c0,0,3.93,4.57,4.05,7.09s-.77,6.68-2.56,7.73-5.19,5.75-12.54,10-21.27,13.2-22.25,12.86-12.2,1.9-15.76,1.9-32.64-5.09-32.64-5.09"/>
      <path class="cls-40" d="M148.18,378.34c7.28,10.99,17.16,19.02,29.67,24.13,20.5,8.37,41.82,9.34,63.96,2.89,15.59-4.54,28.03-13.58,37.29-27.14,16.32,9.36,28.88,24.33,37.62,44.95l-206.01.25c8.31-20.3,20.81-35.32,37.48-45.07h0Z"/>
      <path class="cls-53" d="M180.87,349.32c1.4,2.69-22.43,22.3-23.5,22.42l-9.19,6.59c-16.67,9.76-29.16,24.77-37.48,45.07-.2,1.88-1.7,1.83-4.5-.12-.53-.37-.77-1.16-.59-1.88,5.76-21.66,25.55-40.87,41.63-50.6,1.05-.64,27.38-23.86,26.42-24.7M269.42,348.5c-.42,7.45,1.58,11.44,3.5,13.71,2.34,2.77,7.45,6.41,7.45,6.41h0c17.7,10.35,32.35,29.62,41.72,51.9.59,1.38.02,3.09-1.18,3.58-2.01.81-3.41.49-4.2-.94-8.74-20.62-21.29-35.59-37.62-44.95-2.22-.95-7.69-3.62-11.84-9.74-4.14-6.09-4.63-12.12-4.69-14.53"/>
    </g>
    <path class="cls-29" d="M68.23,95.37c-7.5,6.83-10.26,15.5-8.29,25.97,1.53,8.07,5.64,13.76,12.39,17.03,4.64,2.26,6.06,5.4,7.52,9.47,9.36,26.25,21.1,54.12,35.21,83.65,2.46,5.15,5.33,12.17,8.6,21.03.2.55.31,1.11.35,1.7.55,7.19.6,17.23.13,30.15-.24,6.61.42,11.28,1.97,13.98,4.67,8.16,15.15,11.66,23.14,6.48,1.37-.88,3.23-.38,3.96,1.11,10.59,21.39,21.76,41.94,33.55,61.6,3.16,5.26,9.42,14.31,14.6,17.69,11.24,7.32,20.64,1.95,27.32-7.65,7.43-10.64,13.27-19.95,17.54-27.96.33-.64,1.17-.84,1.75-.42.15.11.42.44.77,1,4.56,6.95,13.69,6.28,19.53,1.57.58-.44,1.04-1,1.42-1.61,5.09-8.74,3.94-20.35,2.85-30.28-1.02-9.53.53-18.56,4.64-27.03,14.33-29.48,33.97-67.73,49.01-104.16.91-2.23,7.03-17.47,18.36-45.72.33-.82.91-1.53,1.64-2.01,3.76-2.52,7.03-4.14,10.04-7.96,7.32-9.31,8.47-19.62,3.41-30.92"/>
    <path class="cls-37" d="M359.65,102.07c-2.61-7.45-7.96-13.49-16.04-18.07-24.77-14.02-50.78-22.67-78.06-25.97-8.74-1.06-19.42-1.66-32.09-1.81-27.16-.35-55.52-5.15-82.17,1.75-16.79,4.34-33.44,9.58-49.97,15.7-13.27,4.93-25.59,9.75-33.09,21.7"/>
    <path class="cls-2" d="M359.65,102.07c-5.42-8.43-12.34-12.28-22.34-16.85-28.95-13.27-59.3-21.65-91-25.13-52.75-5.82-103.12,1.02-151.05,20.46-10.2,4.14-19.22,9.09-27.03,14.82"/>
    <path class="cls-24" d="M66.51,119.04c.07.73.24,1.35.53,1.84"/>
    <path class="cls-20" d="M67.04,120.87c.77,4.42,2.63,8.01,5.57,10.77,9.69,9.07,22.27-1.17,33.16-7.98,1.24-.8,2.61-1.39,4.05-1.79,10.17-2.81,20.59-4.53,31.28-5.22"/>
    <path class="cls-12" d="M141.09,116.65c.35,1.55.35,3.36-.02,5.46"/>
    <path class="cls-8" d="M141.07,122.11c-9.78,1.26-24.79,1.37-32.74,6.77-7.19,4.89-14.84,8.94-22.96,12.14-.62.24-.97.88-.88,1.53.22,1.64.75,3.12,1.61,4.42"/>
    <line class="cls-35" x1="86.11" y1="146.97" x2="107.89" y2="201.3"/>
    <line class="cls-20" x1="107.89" y1="201.3" x2="130.17" y2="248.41"/>
    <path class="cls-39" d="M130.17,248.41c.38,12.03.38,23.87,0,35.52-.15,4.51.49,8.23,1.92,11.17,5,10.15,15.37,5.53,17.05-3.87"/>
    <path class="cls-26" d="M149.14,291.23l.75-.88c.73-.86,2.12-.71,2.63.29l7.3,13.96"/>
    <line class="cls-35" x1="159.83" y1="304.59" x2="188.05" y2="358.05"/>
    <path class="cls-8" d="M188.05,358.05c7.1,11.92,18.65,32.96,31.83,18.96,6.39-6.79,12.54-15.75,18.45-26.9"/>
    <path class="cls-35" d="M238.33,350.11c3.56-5.24,6.35-10.86,8.38-16.81.71-2.06,3.52-2.26,4.49-.31.29.6.38,1.33.27,2.19"/>
    <path class="cls-23" d="M251.46,335.18c-.15,5.15.51,8.67,1.97,10.59,5.93,7.87,12.87,1.22,13.03-6.06.24-11.08-1.53-27.43.8-41.63"/>
    <line class="cls-8" x1="267.26" y1="298.09" x2="313.57" y2="202.45"/>
    <line class="cls-35" x1="313.57" y1="202.45" x2="336.55" y2="145.11"/>
    <path class="cls-8" d="M336.55,145.11c1.99-4.05,2.17-5.4.53-4"/>
    <path class="cls-12" d="M337.08,141.11c1.57-2.81,3.32-4.78,5.24-5.95"/>
    <path class="cls-20" d="M342.33,135.16c-.33.02-.69.07-1.02.11"/>
    <path class="cls-24" d="M341.31,135.27c12.28-3.83,17.19-12.98,14.71-27.52"/>
    <path class="cls-9" d="M356.02,107.76c-4.25-6.79-11.37-12.43-21.37-16.88-80.51-35.92-173.34-36.08-252.77,2.59-9.91,4.82-18.38,13.62-15.37,25.57"/>
    <path class="cls-11" d="M356.02,107.76c-.51,1.48-1.31,2.04-2.39,1.66-.29-.09-.53-.31-.66-.6-.69-1.39-1.59-2.57-2.7-3.56"/>
    <path class="cls-6" d="M350.27,105.26c-3.83-3.65-7.56-6.37-11.19-8.14-63.1-30.9-136.49-35.85-204.53-19.51-19.09,4.58-36.69,11.88-52.86,21.9"/>
    <path class="cls-11" d="M81.68,99.51c-8.54,3.56-12.85,9.62-12.94,18.18-.02.71-.58,1.28-1.26,1.3l-.97.04"/>
    <path class="cls-19" d="M341.31,135.27l10.66-10.77c1.08-1.11.04-2.96-1.46-2.59-18.16,4.36-29.75-9.18-44.48-12.83-11.1-2.74-18.84-4.45-29.31-8.78-9.07-3.78-15.59-5.77-19.6-5.97-8.65-.44-22.58-1.17-41.85-2.17-3.87-.2-14.55.27-32.05,1.44-9.4.64-19.88,2.52-31.45,5.68-6.57,1.79-18.58,4.14-36.05,7.08-10.86,1.84-16.54,6.52-25.99,13.29-8.45,6.04-13.43,3.36-22.69,1.22"/>
    <path class="cls-33" d="M350.27,105.26c-2.39-.38-3.89-.73-4.49-1.02-36.21-17.74-74.56-27.74-115.04-29.99-.58-.02-9.16-.09-25.77-.18-24.26-.13-47.86,4.09-70.76,8.71-6.37,1.28-15.2,3.85-26.48,7.68-8.69,2.94-17.36,5.95-26.06,9.05"/>
    <path class="cls-5" d="M342.33,135.16c-4.14.2-7.83-.69-11.04-2.65-7.59-4.67-16.9-8.91-26.83-10.82-8.52-1.61-17.92-4.36-28.16-8.18-8.29-3.1-16.23-5.2-23.82-6.33-25.1-3.72-49.68-3.91-73.68-.62-11.9,1.66-25.19,6.64-37.71,10.09"/>
    <path class="cls-32" d="M337.08,141.11c-12.98-7.12-22.63-11.32-28.91-12.63-10.86-2.23-23.36-5.95-37.51-11.13-6.75-2.45-14.91-4.22-24.49-5.29"/>
    <path class="cls-7" d="M246.18,112.07c-20.15-1.95-40.21-2.17-60.14-.69"/>
    <path class="cls-32" d="M186.04,111.38c-11.35,1.06-22.21,3.69-32.58,7.9-2.57,1.04-6.7,1.99-12.39,2.83"/>
    <line class="cls-15" x1="336.55" y1="145.11" x2="318.22" y2="146.99"/>
    <path class="cls-17" d="M318.22,146.99c-5.26-4.11-11.28-6.72-18.05-7.81-8.91-1.44-16.04-3.16-21.34-5.18-.91-.33-1.79-.77-2.61-1.3-6.75-4.25-13.67-7.37-20.79-9.38-4.31-1.22-7.23-.6-8.71,1.88"/>
    <line class="cls-15" x1="246.71" y1="125.21" x2="246.93" y2="121.27"/>
    <line class="cls-3" x1="246.18" y1="112.07" x2="246.93" y2="121.27"/>
    <path class="cls-13" d="M246.93,121.27c-1.35.95-2.37,1.39-3.05,1.37-18.2-.97-36.38-1.88-54.59-2.72-.58-.02-1.13-.2-1.61-.51l-2.17-1.39"/>
    <line class="cls-3" x1="185.51" y1="118.02" x2="186.04" y2="111.38"/>
    <path class="cls-15" d="M185.51,118.02c-.15.44-.2.84-.18,1.19"/>
    <path class="cls-17" d="M185.33,119.21c-7.59,2.12-14.75,4.91-21.52,8.38-5.46,2.76-9.09,4.49-10.88,5.15-7.83,2.85-15.39,3.05-24.68,3.03-4.6-.02-8.8.75-12.63,2.3-4.87,1.97-8.71,4.67-11.57,8.14"/>
    <path class="cls-15" d="M104.04,146.22l-17.94.75M313.57,202.45l-4.27-4.31"/>
    <path class="cls-1" d="M318.22,146.99c-9.47,3.54-15.64,9.36-18.54,17.45-5.09,14.24.77,22.94,9.62,33.69"/>
    <path class="cls-17" d="M309.3,198.13c-3.56,7.59-7.21,15.13-10.95,22.63-1.66,3.3-5.71,10.62-12.19,21.96-7.96,13.96-14.49,28.64-19.55,44.02"/>
    <path class="cls-25" d="M266.61,286.74c-5.46,5.79-13.47,7.32-20.9,9.36"/>
    <path class="cls-1" d="M245.71,296.1c-21.7,5.73-27.07,30.97-13.6,47.6"/>
    <path class="cls-17" d="M232.11,343.69c-5.4,9.53-16.59,29.22-30.13,20.99-3.61-2.19-7.21-5.35-10.86-9.51"/>
    <path class="cls-1" d="M191.12,355.17c22.3-19.02,7.54-53.86-21.74-51.36-2.28.2-4.51.24-6.7.13"/>
    <path class="cls-4" d="M162.68,303.95l-7.32-18.56c-.69-1.75-2.96-2.19-4.25-.82-1.26,1.35-1.9,3.56-1.97,6.66"/>
    <path class="cls-16" d="M130.17,248.41c-1.44-15.5-7.28-30.21-17.52-44.08-.44-.6-.8-1.75-1.08-3.41"/>
    <path class="cls-1" d="M111.56,200.92c7.32-6.7,11.44-14.62,12.3-23.71,1.44-14.73-5.18-25.06-19.82-30.99M246.71,125.21c-1.66,9-5.86,15.5-12.56,19.55-20.24,12.12-50.1.93-48.82-25.55"/>
    <line class="cls-14" x1="111.56" y1="200.92" x2="107.89" y2="201.3"/>
    <line class="cls-34" x1="267.26" y1="298.09" x2="266.61" y2="286.74"/>
    <path class="cls-28" d="M251.46,335.18c3.32-12.21,7.41-24.66,8.34-37.29.11-1.37-1.02-2.5-2.39-2.43l-11.7.64"/>
    <path class="cls-15" d="M191.12,355.17l-3.07,2.88M238.33,350.11c-1.39-2.9-3.45-5.02-6.22-6.41"/>
    <line class="cls-30" x1="162.68" y1="303.95" x2="159.83" y2="304.59"/>
    <path class="cls-27" d="M245.54,160.91l32.93,6.1c.97.2,1.92-.46,2.1-1.44l.29-1.48c.88-4.87-4.67-9.95-12.43-11.39l-8.38-1.57c-7.76-1.44-14.78,1.35-15.68,6.19l-.27,1.48c-.2.97.46,1.92,1.44,2.1M158.15,151.93c-5.37,1-10.09,2.74-14.13,5.24-2.06,1.26-3.14,3.52-2.76,5.64,1,5.42,5.26,5.29,10.04,3.21,3.01-1.33,5.99-2.26,8.96-2.81,2.96-.55,6.08-.75,9.36-.6,5.22.24,9.25-1.17,8.23-6.59-.4-2.12-2.23-3.83-4.6-4.27-4.67-.88-9.71-.84-15.08.18M192.34,203.51c0-17.36-14.09-31.45-31.45-31.45s-31.45,14.09-31.45,31.45,14.09,31.45,31.45,31.45,31.45-14.09,31.45-31.45M292.47,203.53c0-17.45-14.16-31.61-31.61-31.61s-31.61,14.16-31.61,31.61,14.16,31.61,31.61,31.61,31.61-14.16,31.61-31.61"/>
    <path class="cls-38" d="M176.53,244.98c-5.42,1.42-8.14,4.49-8.12,9.25.07,10.93,7.41,20.9,17.23,26.65,18.73,10.97,37.07,10.04,55.01-2.76,7.56-5.42,17.83-20.5,11.24-29.64-2.23-3.07-5.95-3.61-11.19-1.59"/>
    <path class="cls-21" d="M240.69,246.88c-6.39-1-12.78-1.39-19.22-1.17-5.22.2-10.17-.02-14.86-.64-10.33-1.39-20.37-1.42-30.08-.09"/>
    <path class="cls-36" d="M240.69,246.88c-15.88,6.52-31.92,7.81-48.09,3.85-5.35-1.3-10.71-3.23-16.08-5.75"/>
    <path class="cls-22" d="M187.34,203.55c0-14.53-11.77-26.3-26.3-26.3s-26.3,11.77-26.3,26.3,11.77,26.3,26.3,26.3,26.3-11.77,26.3-26.3M287.1,203.49c0-14.58-11.81-26.39-26.39-26.39s-26.39,11.81-26.39,26.39,11.81,26.39,26.39,26.39,26.39-11.81,26.39-26.39"/>
    <path class="cls-22" d="M179.98,204.52c0-7.68-6.22-13.89-13.89-13.89s-13.89,6.22-13.89,13.89,6.22,13.89,13.89,13.89,13.89-6.22,13.89-13.89M269.18,204.55c0-7.54-6.1-13.65-13.65-13.65s-13.65,6.1-13.65,13.65,6.1,13.65,13.65,13.65,13.65-6.1,13.65-13.65"/>
    <path class="cls-10" d="M186.48,274.77c16.3,10.55,32.71,10.48,49.28-.24"/>
    <path class="cls-31" d="M235.76,274.53c7.3-4.4,11.92-11.5,13.87-21.26.07-.35-.2-.66-.55-.66-8.6,0-16.83,3.12-24.97,4.07-16.99,1.97-33.11-.27-48.4-6.7-1-.42-2.1.35-2.03,1.44.64,9.91,4.91,17.69,12.81,23.36"/>
    <path class="cls-18" d="M235.76,274.53c-16.83-9.93-33.27-9.86-49.28.24"/>
    <path class="cls-50" d="M359.65,102.07c-5.42-8.43-12.34-12.28-22.34-16.85-28.95-13.27-59.3-21.65-91-25.13-52.75-5.82-103.12,1.02-151.05,20.46-10.2,4.14-19.22,9.09-27.03,14.82,7.5-11.94,19.82-16.77,33.09-21.7,16.52-6.13,33.18-11.37,49.97-15.7,26.65-6.9,55.01-2.1,82.17-1.75,12.67.15,23.36.75,32.09,1.81,27.27,3.3,53.28,11.94,78.06,25.97,8.07,4.58,13.43,10.62,16.04,18.07h0Z"/>
    <path class="cls-47" d="M359.65,102.07c5.07,11.3,3.91,21.61-3.41,30.92-3.01,3.83-6.28,5.44-10.04,7.96-.73.49-1.31,1.19-1.64,2.01-11.32,28.25-17.45,43.48-18.36,45.72-15.04,36.43-34.68,74.67-49.01,104.16-4.11,8.47-5.66,17.5-4.64,27.03,1.08,9.93,2.23,21.54-2.85,30.28-.38.62-.84,1.17-1.42,1.61-5.84,4.71-14.97,5.37-19.53-1.57-.35-.55-.62-.88-.77-1-.58-.42-1.42-.22-1.75.42-4.27,8.01-10.11,17.32-17.54,27.96-6.68,9.6-16.08,14.97-27.32,7.65-5.18-3.38-11.44-12.43-14.6-17.69-11.79-19.66-22.96-40.21-33.55-61.6-.73-1.48-2.59-1.99-3.96-1.11-7.98,5.18-18.47,1.68-23.14-6.48-1.55-2.7-2.21-7.37-1.97-13.98.46-12.92.42-22.96-.13-30.15-.04-.6-.15-1.15-.35-1.7-3.27-8.87-6.15-15.88-8.6-21.03-14.11-29.53-25.86-57.4-35.21-83.65-1.46-4.07-2.88-7.21-7.52-9.47-6.75-3.27-10.86-8.96-12.39-17.03-1.97-10.46.8-19.13,8.29-25.97,7.81-5.73,16.83-10.68,27.03-14.82,47.93-19.44,98.29-26.28,151.05-20.46,31.7,3.47,62.04,11.86,91,25.13,10,4.58,16.92,8.43,22.34,16.85M66.51,119.04c.07.73.24,1.35.53,1.84.77,4.42,2.63,8.01,5.57,10.77,9.69,9.07,22.27-1.17,33.16-7.98,1.24-.8,2.61-1.39,4.05-1.79,10.17-2.81,20.59-4.53,31.28-5.22.35,1.55.35,3.36-.02,5.46-9.78,1.26-24.79,1.37-32.74,6.77-7.19,4.89-14.84,8.94-22.96,12.14-.62.24-.97.88-.88,1.53.22,1.64.75,3.12,1.61,4.42l21.79,54.32,22.27,47.11c.38,12.03.38,23.87,0,35.52-.15,4.51.49,8.23,1.92,11.17,5,10.15,15.37,5.53,17.05-3.87l.75-.88c.73-.86,2.12-.71,2.63.29l7.3,13.96,28.22,53.46c7.1,11.92,18.65,32.96,31.83,18.96,6.39-6.79,12.54-15.75,18.45-26.9,3.56-5.24,6.35-10.86,8.38-16.81.71-2.06,3.52-2.26,4.49-.31.29.6.38,1.33.27,2.19-.15,5.15.51,8.67,1.97,10.59,5.93,7.87,12.87,1.22,13.03-6.06.24-11.08-1.53-27.43.8-41.63l46.32-95.64,22.98-57.33c1.99-4.05,2.17-5.4.53-4,1.57-2.81,3.32-4.78,5.24-5.95-.33.02-.69.07-1.02.11,12.28-3.83,17.19-12.98,14.71-27.52-4.25-6.79-11.37-12.43-21.37-16.88-80.51-35.92-173.34-36.08-252.77,2.59-9.91,4.82-18.38,13.62-15.37,25.57h0Z"/>
    <path class="cls-51" d="M356.02,107.76c-.51,1.48-1.31,2.04-2.39,1.66-.29-.09-.53-.31-.66-.6-.69-1.39-1.59-2.57-2.7-3.56-3.83-3.65-7.56-6.37-11.19-8.14-63.1-30.9-136.49-35.85-204.53-19.51-19.09,4.58-36.69,11.88-52.86,21.9-8.54,3.56-12.85,9.62-12.94,18.18-.02.71-.58,1.28-1.26,1.3l-.97.04c-3.01-11.94,5.46-20.75,15.37-25.57,79.43-38.66,172.26-38.51,252.77-2.59,10,4.45,17.12,10.09,21.37,16.88h0Z"/>
    <path class="cls-57" d="M350.27,105.26c-2.39-.38-3.89-.73-4.49-1.02-36.21-17.74-74.56-27.74-115.04-29.99-.58-.02-9.16-.09-25.77-.18-24.26-.13-47.86,4.09-70.76,8.71-6.37,1.28-15.2,3.85-26.48,7.68-8.69,2.94-17.36,5.95-26.06,9.05,16.17-10.02,33.77-17.32,52.86-21.9,68.04-16.35,141.43-11.39,204.53,19.51,3.63,1.77,7.37,4.49,11.19,8.14h0Z"/>
    <path class="cls-60" d="M350.27,105.26c1.11,1,2.01,2.17,2.7,3.56.13.29.38.51.66.6,1.08.38,1.88-.18,2.39-1.66,2.48,14.53-2.43,23.69-14.71,27.52l10.66-10.77c1.08-1.11.04-2.96-1.46-2.59-18.16,4.36-29.75-9.18-44.48-12.83-11.1-2.74-18.84-4.45-29.31-8.78-9.07-3.78-15.59-5.77-19.6-5.97-8.65-.44-22.58-1.17-41.85-2.17-3.87-.2-14.55.27-32.05,1.44-9.4.64-19.88,2.52-31.45,5.68-6.57,1.79-18.58,4.14-36.05,7.08-10.86,1.84-16.54,6.52-25.99,13.29-8.45,6.04-13.43,3.36-22.69,1.22-.29-.49-.46-1.11-.53-1.84l.97-.04c.69-.02,1.24-.6,1.26-1.3.09-8.56,4.4-14.62,12.94-18.18,8.69-3.1,17.36-6.1,26.06-9.05,11.28-3.83,20.11-6.39,26.48-7.68,22.89-4.62,46.49-8.85,70.76-8.71,16.61.09,25.19.15,25.77.18,40.48,2.26,78.83,12.25,115.04,29.99.6.29,2.1.64,4.49,1.02h0Z"/>
    <path class="cls-55" d="M341.31,135.27c.33-.04.69-.09,1.02-.11-4.14.2-7.83-.69-11.04-2.65-7.59-4.67-16.9-8.91-26.83-10.82-8.52-1.61-17.92-4.36-28.16-8.18-8.29-3.1-16.23-5.2-23.82-6.33-25.1-3.72-49.68-3.91-73.68-.62-11.9,1.66-25.19,6.64-37.71,10.09-10.68.69-21.1,2.41-31.28,5.22-1.44.4-2.81,1-4.05,1.79-10.88,6.81-23.47,17.05-33.16,7.98-2.94-2.76-4.8-6.35-5.57-10.77,9.27,2.15,14.24,4.82,22.69-1.22,9.44-6.77,15.13-11.46,25.99-13.29,17.47-2.94,29.48-5.29,36.05-7.08,11.57-3.16,22.05-5.04,31.45-5.68,17.5-1.17,28.18-1.64,32.05-1.44,19.27,1,33.2,1.73,41.85,2.17,4,.2,10.53,2.19,19.6,5.97,10.46,4.34,18.2,6.04,29.31,8.78,14.73,3.65,26.32,17.19,44.48,12.83,1.5-.38,2.54,1.48,1.46,2.59l-10.66,10.77h0Z"/>
    <path class="cls-52" d="M342.33,135.16c-1.92,1.17-3.67,3.14-5.24,5.95-12.98-7.12-22.63-11.32-28.91-12.63-10.86-2.23-23.36-5.95-37.51-11.13-6.75-2.45-14.91-4.22-24.49-5.29-20.15-1.95-40.21-2.17-60.14-.69-11.35,1.06-22.21,3.69-32.58,7.9-2.57,1.04-6.7,1.99-12.39,2.83.38-2.1.38-3.91.02-5.46,12.52-3.45,25.81-8.43,37.71-10.09,24-3.3,48.57-3.1,73.68.62,7.59,1.13,15.53,3.23,23.82,6.33,10.24,3.83,19.64,6.57,28.16,8.18,9.93,1.9,19.24,6.15,26.83,10.82,3.21,1.97,6.9,2.85,11.04,2.65h0Z"/>
    <path class="cls-56" d="M246.18,112.07l.75,9.2c-1.35.95-2.37,1.39-3.05,1.37-18.2-.97-36.38-1.88-54.59-2.72-.58-.02-1.13-.2-1.61-.51l-2.17-1.39.53-6.64c19.93-1.48,39.99-1.26,60.14.69h0Z"/>
    <path class="cls-45" d="M186.04,111.38l-.53,6.64c-.15.44-.2.84-.18,1.19-7.59,2.12-14.75,4.91-21.52,8.38-5.46,2.76-9.09,4.49-10.88,5.15-7.83,2.85-15.39,3.05-24.68,3.03-4.6-.02-8.8.75-12.63,2.3-4.87,1.97-8.71,4.67-11.57,8.14l-17.94.75c-.86-1.31-1.39-2.79-1.61-4.42-.09-.64.27-1.28.88-1.53,8.12-3.21,15.77-7.25,22.96-12.14,7.94-5.4,22.96-5.51,32.74-6.77,5.68-.84,9.82-1.79,12.39-2.83,10.37-4.2,21.23-6.83,32.58-7.9h0Z"/>
    <path class="cls-45" d="M337.08,141.11c1.64-1.39,1.46-.04-.53,4l-18.34,1.88c-5.26-4.11-11.28-6.72-18.05-7.81-8.91-1.44-16.04-3.16-21.34-5.18-.91-.33-1.79-.77-2.61-1.3-6.75-4.25-13.67-7.37-20.79-9.38-4.31-1.22-7.23-.6-8.71,1.88l.22-3.94-.75-9.2c9.58,1.06,17.74,2.83,24.49,5.29,14.16,5.18,26.65,8.89,37.51,11.13,6.28,1.31,15.93,5.51,28.91,12.63h0Z"/>
    <path class="cls-46" d="M246.93,121.27l-.22,3.94c-1.66,9-5.86,15.5-12.56,19.55-20.24,12.12-50.1.93-48.82-25.55-.02-.35.02-.75.18-1.19l2.17,1.39c.49.31,1.04.49,1.61.51,18.2.84,36.38,1.75,54.59,2.72.69.02,1.7-.42,3.05-1.37h0Z"/>
    <path class="cls-40" d="M185.33,119.21c-1.28,26.48,28.58,37.67,48.82,25.55,6.7-4.05,10.9-10.55,12.56-19.55,1.48-2.48,4.4-3.1,8.71-1.88,7.12,2.01,14.05,5.13,20.79,9.38.82.53,1.7.97,2.61,1.3,5.31,2.01,12.43,3.74,21.34,5.18,6.77,1.08,12.78,3.69,18.05,7.81-9.47,3.54-15.64,9.36-18.54,17.45-5.09,14.24.77,22.94,9.62,33.69-3.56,7.59-7.21,15.13-10.95,22.63-1.66,3.3-5.71,10.62-12.19,21.96-7.96,13.96-14.49,28.64-19.55,44.02-5.46,5.79-13.47,7.32-20.9,9.36-21.7,5.73-27.07,30.97-13.6,47.6-5.4,9.53-16.59,29.22-30.13,20.99-3.61-2.19-7.21-5.35-10.86-9.51,22.3-19.02,7.54-53.86-21.74-51.36-2.28.2-4.51.24-6.7.13l-7.32-18.56c-.69-1.75-2.96-2.19-4.25-.82-1.26,1.35-1.9,3.56-1.97,6.66-1.68,9.4-12.05,14.02-17.05,3.87-1.44-2.94-2.08-6.66-1.92-11.17.38-11.66.38-23.49,0-35.52-1.44-15.5-7.28-30.21-17.52-44.08-.44-.6-.8-1.75-1.08-3.41,7.32-6.7,11.44-14.62,12.3-23.71,1.44-14.73-5.18-25.06-19.82-30.99,2.85-3.47,6.7-6.17,11.57-8.14,3.83-1.55,8.03-2.32,12.63-2.3,9.29.02,16.85-.18,24.68-3.03,1.79-.66,5.42-2.39,10.88-5.15,6.77-3.47,13.93-6.26,21.52-8.38M245.54,160.91l32.93,6.1c.97.2,1.92-.46,2.1-1.44l.29-1.48c.88-4.87-4.67-9.95-12.43-11.39l-8.38-1.57c-7.76-1.44-14.78,1.35-15.68,6.19l-.27,1.48c-.2.97.46,1.92,1.44,2.1M158.15,151.93c-5.37,1-10.09,2.74-14.13,5.24-2.06,1.26-3.14,3.52-2.76,5.64,1,5.42,5.26,5.29,10.04,3.21,3.01-1.33,5.99-2.26,8.96-2.81,2.96-.55,6.08-.75,9.36-.6,5.22.24,9.25-1.17,8.23-6.59-.4-2.12-2.23-3.83-4.6-4.27-4.67-.88-9.71-.84-15.08.18M192.34,203.51c0-17.36-14.09-31.45-31.45-31.45s-31.45,14.09-31.45,31.45,14.09,31.45,31.45,31.45,31.45-14.09,31.45-31.45M292.47,203.53c0-17.45-14.16-31.61-31.61-31.61s-31.61,14.16-31.61,31.61,14.16,31.61,31.61,31.61,31.61-14.16,31.61-31.61M176.53,244.98c-5.42,1.42-8.14,4.49-8.12,9.25.07,10.93,7.41,20.9,17.23,26.65,18.73,10.97,37.07,10.04,55.01-2.76,7.56-5.42,17.83-20.5,11.24-29.64-2.23-3.07-5.95-3.61-11.19-1.59-6.39-1-12.78-1.39-19.22-1.17-5.22.2-10.17-.02-14.86-.64-10.33-1.39-20.37-1.42-30.08-.09h0Z"/>
    <path class="cls-46" d="M336.55,145.11l-22.98,57.33-4.27-4.31c-8.85-10.75-14.71-19.44-9.62-33.69,2.9-8.1,9.07-13.91,18.54-17.45l18.34-1.88h0Z"/>
    <path class="cls-46" d="M104.04,146.22c14.64,5.93,21.26,16.26,19.82,30.99-.86,9.09-4.98,17.01-12.3,23.71l-3.67.38-21.79-54.32,17.94-.75h0Z"/>
    <path class="cls-58" d="M245.54,160.91c-.97-.18-1.64-1.13-1.44-2.1l.27-1.48c.91-4.84,7.92-7.63,15.68-6.19l8.38,1.57c7.76,1.44,13.32,6.52,12.43,11.39l-.29,1.48c-.18.97-1.13,1.64-2.1,1.44l-32.93-6.1h0Z"/>
    <path class="cls-58" d="M160.25,163.21c-2.96.55-5.95,1.48-8.96,2.81-4.78,2.08-9.05,2.21-10.04-3.21-.38-2.12.71-4.38,2.76-5.64,4.05-2.5,8.76-4.25,14.13-5.24,5.37-1.02,10.42-1.06,15.08-.18,2.37.44,4.2,2.15,4.6,4.27,1.02,5.42-3.01,6.83-8.23,6.59-3.27-.15-6.39.04-9.36.6h0Z"/>
    <path class="cls-58" d="M192.34,203.51c0,17.36-14.09,31.45-31.45,31.45s-31.45-14.09-31.45-31.45,14.09-31.45,31.45-31.45,31.45,14.09,31.45,31.45M187.34,203.55c0-14.53-11.77-26.3-26.3-26.3s-26.3,11.77-26.3,26.3,11.77,26.3,26.3,26.3,26.3-11.77,26.3-26.3h0Z"/>
    <path class="cls-58" d="M292.47,203.53c0,17.45-14.16,31.61-31.61,31.61s-31.61-14.16-31.61-31.61,14.16-31.61,31.61-31.61,31.61,14.16,31.61,31.61M287.1,203.49c0-14.58-11.81-26.39-26.39-26.39s-26.39,11.81-26.39,26.39,11.81,26.39,26.39,26.39,26.39-11.81,26.39-26.39h0Z"/>
    <path class="cls-43" d="M187.34,203.55c0,14.53-11.77,26.3-26.3,26.3s-26.3-11.77-26.3-26.3,11.77-26.3,26.3-26.3,26.3,11.77,26.3,26.3M179.98,204.52c0-7.68-6.22-13.89-13.89-13.89s-13.89,6.22-13.89,13.89,6.22,13.89,13.89,13.89,13.89-6.22,13.89-13.89h0Z"/>
    <path class="cls-43" d="M287.1,203.49c0,14.58-11.81,26.39-26.39,26.39s-26.39-11.81-26.39-26.39,11.81-26.39,26.39-26.39,26.39,11.81,26.39,26.39M269.18,204.55c0-7.54-6.1-13.65-13.65-13.65s-13.65,6.1-13.65,13.65,6.1,13.65,13.65,13.65,13.65-6.1,13.65-13.65h0Z"/>
    <path class="cls-58" d="M179.98,204.52c0,7.68-6.22,13.89-13.89,13.89s-13.89-6.22-13.89-13.89,6.22-13.89,13.89-13.89,13.89,6.22,13.89,13.89h0Z"/>
    <path class="cls-58" d="M269.18,204.55c0,7.54-6.1,13.65-13.65,13.65s-13.65-6.1-13.65-13.65,6.1-13.65,13.65-13.65,13.65,6.1,13.65,13.65h0Z"/>
    <path class="cls-45" d="M313.57,202.45l-46.32,95.64-.64-11.35c5.07-15.37,11.59-30.06,19.55-44.02,6.48-11.35,10.53-18.67,12.19-21.96,3.74-7.5,7.39-15.04,10.95-22.63l4.27,4.31h0Z"/>
    <path class="cls-55" d="M111.56,200.92c.29,1.66.64,2.81,1.08,3.41,10.24,13.87,16.08,28.58,17.52,44.08l-22.27-47.11,3.67-.38h0Z"/>
    <path class="cls-49" d="M240.69,246.88c-15.88,6.52-31.92,7.81-48.09,3.85-5.35-1.3-10.71-3.23-16.08-5.75,9.71-1.33,19.75-1.31,30.08.09,4.69.62,9.64.84,14.86.64,6.44-.22,12.83.18,19.22,1.17h0Z"/>
    <path class="cls-41" d="M176.53,244.98c5.37,2.52,10.73,4.45,16.08,5.75,16.17,3.96,32.2,2.68,48.09-3.85,5.24-2.01,8.96-1.48,11.19,1.59,6.59,9.13-3.67,24.22-11.24,29.64-17.94,12.81-36.27,13.74-55.01,2.76-9.82-5.75-17.16-15.73-17.23-26.65-.02-4.76,2.7-7.83,8.12-9.25M186.48,274.77c16.3,10.55,32.71,10.48,49.28-.24,7.3-4.4,11.92-11.5,13.87-21.26.07-.35-.2-.66-.55-.66-8.6,0-16.83,3.12-24.97,4.07-16.99,1.97-33.11-.27-48.4-6.7-1-.42-2.1.35-2.03,1.44.64,9.91,4.91,17.69,12.81,23.36h0Z"/>
    <path class="cls-54" d="M235.76,274.53c-16.83-9.93-33.27-9.86-49.28.24-7.9-5.66-12.17-13.45-12.81-23.36-.07-1.08,1.04-1.86,2.03-1.44,15.28,6.44,31.41,8.67,48.4,6.7,8.14-.95,16.37-4.07,24.97-4.07.35,0,.62.31.55.66-1.95,9.75-6.57,16.85-13.87,21.26h0Z"/>
    <path class="cls-42" d="M235.76,274.53c-16.57,10.73-32.98,10.79-49.28.24,16.01-10.11,32.45-10.17,49.28-.24h0Z"/>
    <path class="cls-48" d="M162.68,303.95l-2.85.64-7.3-13.96c-.51-1-1.9-1.15-2.63-.29l-.75.88c.07-3.1.71-5.31,1.97-6.66,1.28-1.37,3.56-.93,4.25.82l7.32,18.56h0Z"/>
    <path class="cls-44" d="M266.61,286.74l.64,11.35c-2.32,14.2-.55,30.55-.8,41.63-.15,7.28-7.1,13.93-13.03,6.06-1.46-1.92-2.12-5.44-1.97-10.59,3.32-12.21,7.41-24.66,8.34-37.29.11-1.37-1.02-2.5-2.39-2.43l-11.7.64c7.43-2.03,15.44-3.56,20.9-9.36h0Z"/>
    <path class="cls-46" d="M251.46,335.18c.11-.86.02-1.59-.27-2.19-.97-1.95-3.78-1.75-4.49.31-2.03,5.95-4.82,11.57-8.38,16.81-1.39-2.9-3.45-5.02-6.22-6.41-13.47-16.63-8.1-41.87,13.6-47.6l11.7-.64c1.37-.07,2.5,1.06,2.39,2.43-.93,12.63-5.02,25.08-8.34,37.29h0Z"/>
    <path class="cls-46" d="M162.68,303.95c2.19.11,4.42.07,6.7-.13,29.28-2.5,44.04,32.34,21.74,51.36l-3.07,2.88-28.22-53.46,2.85-.64h0Z"/>
    <path class="cls-45" d="M238.33,350.11c-5.91,11.15-12.05,20.11-18.45,26.9-13.18,14-24.73-7.03-31.83-18.96l3.07-2.88c3.65,4.16,7.25,7.32,10.86,9.51,13.54,8.23,24.73-11.46,30.13-20.99,2.76,1.39,4.82,3.52,6.22,6.41h0Z"/>
  </g>
</svg>