<?xml version="1.0" encoding="UTF-8"?>
<svg id="Camada_1" data-name="Camada 1" xmlns="http://www.w3.org/2000/svg" xmlns:xlink="http://www.w3.org/1999/xlink" viewBox="0 0 422.07 422.07">
  <defs>
    <style>
      .cls-1 {
        stroke: #21113b;
      }

      .cls-1, .cls-2, .cls-3, .cls-4, .cls-5, .cls-6, .cls-7, .cls-8, .cls-9, .cls-10, .cls-11, .cls-12, .cls-13, .cls-14, .cls-15, .cls-16, .cls-17, .cls-18, .cls-19, .cls-20, .cls-21, .cls-22, .cls-23, .cls-24, .cls-25, .cls-26, .cls-27, .cls-28, .cls-29 {
        fill: none;
        stroke-miterlimit: 10;
      }

      .cls-30 {
        fill: #322328;
      }

      .cls-2 {
        stroke: #7f6282;
      }

      .cls-31 {
        fill: #361005;
      }

      .cls-3 {
        stroke: #7d694e;
      }

      .cls-4 {
        stroke: #6d5444;
      }

      .cls-5 {
        stroke: #d8b483;
      }

      .cls-32 {
        fill: #fff;
      }

      .cls-6 {
        stroke: #c6a587;
      }

      .cls-7 {
        stroke: #6b3924;
      }

      .cls-33 {
        fill: #f5dcbd;
      }

      .cls-8 {
        stroke: #694d3c;
      }

      .cls-9 {
        stroke: #5a3e2f;
      }

      .cls-10 {
        stroke: #9b8882;
      }

      .cls-11 {
        stroke: #673f2b;
      }

      .cls-34 {
        fill: #794e38;
      }

      .cls-12 {
        stroke: #ceab8a;
      }

      .cls-35 {
        fill: #976e51;
      }

      .cls-13 {
        stroke: #885e45;
      }

      .cls-36 {
        fill: #cba782;
      }

      .cls-37 {
        fill: #0e0106;
      }

      .cls-14 {
        stroke: #967661;
      }

      .cls-15 {
        stroke: #561e0a;
      }

      .cls-16 {
        stroke: #999194;
      }

      .cls-38 {
        fill: #a67a57;
      }

      .cls-39 {
        fill: #332070;
      }

      .cls-40 {
        fill: #ecd095;
      }

      .cls-41 {
        fill: #5f2710;
      }

      .cls-42 {
        fill: url(#Gradiente_sem_nome_7);
      }

      .cls-17 {
        stroke: #e0c2a0;
      }

      .cls-18 {
        stroke: #7c5b79;
      }

      .cls-19 {
        stroke: #4b1c0b;
      }

      .cls-20 {
        stroke: #9f7355;
      }

      .cls-43 {
        fill: #4d1504;
      }

      .cls-21 {
        stroke: #aa8267;
      }

      .cls-22 {
        stroke: #c8a07a;
      }

      .cls-23 {
        stroke: #b9916d;
      }

      .cls-24 {
        stroke: #210f44;
      }

      .cls-25 {
        stroke: #a17961;
      }

      .cls-26 {
        stroke: #b7957b;
      }

      .cls-27 {
        stroke: #74422a;
      }

      .cls-44 {
        fill: #895c43;
      }

      .cls-28 {
        stroke: #331f79;
      }

      .cls-45 {
        fill: #c49871;
      }

      .cls-29 {
        stroke: #b58964;
      }
    </style>
    <linearGradient id="Gradiente_sem_nome_7" data-name="Gradiente sem nome 7" x1="15.59" y1="49.92" x2="371.99" y2="343.72" gradientUnits="userSpaceOnUse">
      <stop offset="0" stop-color="#331d81"/>
      <stop offset="1" stop-color="#16085e"/>
    </linearGradient>
  </defs>
  <rect class="cls-42" x="-.57" width="423.22" height="422.07"/>
  <g>
    <path class="cls-24" d="M51.55,249.69c-1.3,21.88,2.49,43.77,11.98,63.55,3.96,8.22,6.56,14.16,7.79,17.83,8.41,25.18-.54,46.09-12.81,69.49-3.01,5.71-5.16,11.89-7.44,18.26-.57,1.56.59,3.22,2.25,3.24,1.89.02,3.06-.33,3.51-1.11"/>
    <line class="cls-18" x1="56.84" y1="420.96" x2="72.09" y2="420.88"/>
    <path class="cls-2" d="M72.09,420.88c97.25.26,194.52.26,291.8.05,1.02,0,1.68-.5,1.94-1.47"/>
    <path class="cls-24" d="M365.83,419.46c1.21,1.97,2.42,2.82,3.6,2.56,2.27-.5,3.51-3.01,2.51-5.16-3.13-6.8-8.83-18.78-17.15-35.93-4.45-9.17-6.61-19.42-6.44-30.79.24-15.4,8.46-30.58,14.38-44.88,14.33-34.67,11.18-76.24-3.15-110.39"/>
    <path class="cls-28" d="M359.57,194.86c-5.57-23.78-23.09-47.39-43.65-60.73-7.08-4.62-14.9-9.43-23.45-14.42-7.48-4.38-11.49-20.3-22.88-22.38-7.01-1.28-13.71-3.24-20.13-5.9"/>
    <path class="cls-24" d="M249.46,91.43c.26-4.29-1.87-6.94-6.37-7.98"/>
    <path class="cls-28" d="M243.09,83.45c-10.75-7.7-20.84-1.87-31.03,1.14-2.46.73-5.02,1.14-7.58,1.23-4.74.14-13.03-1.02-18.05.43-9,2.63-14.57,7.67-22.67,15.35-3.65,3.46-10.11,8.48-13.36,9.83-14.05,5.94-27.02,12.46-38.91,19.56-28.18,16.86-43.6,42.63-56.06,73.21-5.87,14.42-7.18,29.58-3.88,45.5"/>
    <path class="cls-1" d="M243.09,83.45c-15.94-2.49-29.01,3.77-42.11,12.15-.66.43-1.52-.09-1.44-.88.4-3.91-1.26-6.13-4.97-6.63-10.97-1.47-26.22,15.25-31.9,23.52-1.54,2.23-3.79,3.86-6.39,4.62-18.5,5.26-35.15,13.41-49.95,24.42-34.82,25.89-53.65,66.32-54.76,109.04M249.46,91.43l-3.13,7.2c-.26.59.26,1.23.9,1.11,7.89-1.59,29.72-2.44,31.74,8.5.14.71,0,1.44-.36,2.06l-2.75,4.78c-.54.97-.19,2.18.81,2.68,6.42,3.2,12.96,6.51,19.63,9.95,28.26,14.59,49.83,38.08,63.26,67.15"/>
    <line class="cls-4" x1="365.83" y1="419.46" x2="347.61" y2="383.34"/>
    <path class="cls-8" d="M347.61,383.34c-.19-1.07-.45-1.71-.76-1.97"/>
    <path class="cls-9" d="M346.86,381.38c-4.71-14.33-6.21-29.11-4.43-44.29"/>
    <path class="cls-8" d="M342.43,337.09c.78-2.51,1.59-5.26,2.46-8.22,3.13-10.71,9.71-21.72,12.27-28.63,7.13-19.26,9.45-40.1,6.94-62.53"/>
    <path class="cls-3" d="M364.1,237.71c-5.57-49.22-35.5-89.34-81.24-109.12-6.21-2.68-12.34-5.16-18.38-7.44-.97-.36-1.42-1.52-.92-2.44,1.99-3.74,4.59-6.63,7.82-8.69,1.02-.64.88-2.16-.24-2.61-11.98-4.83-22.38-1.52-34.56,3.36-.92.36-1.94-.07-2.3-.99-2.42-6.35,2.89-12.2,7.34-17.76.88-1.09.14-2.72-1.26-2.79-17.31-.88-29.89,8.15-43.15,18.1-.69.52-1.66.43-2.23-.21-2.51-2.77-2.94-6.25-1.3-10.44.57-1.44-.88-2.84-2.3-2.25-10.85,4.59-17.03,13.24-25.65,23.8-1.04,1.28-2.44,2.23-4.03,2.72-10.78,3.46-19.47,6.75-26.08,9.88-38.39,18.12-62.88,48.03-73.49,89.79"/>
    <path class="cls-8" d="M62.14,220.61c-8.34,35.81-3.88,69.94,13.36,102.37,1.61,3.01,2.98,7.29,4.12,12.86"/>
    <path class="cls-9" d="M79.62,335.83c2.63,16.46,1.21,32.5-4.26,48.1"/>
    <line class="cls-8" x1="75.36" y1="383.94" x2="56.84" y2="420.96"/>
    <path class="cls-29" d="M342.43,337.09c-13.33,15.13-11.84,29.89,4.43,44.29"/>
    <path class="cls-22" d="M347.61,383.34c2.94,11.65,1.66,23.26-11.63,26.69-8.03,2.11-15.23,3.17-21.6,3.2-29.98.21-59.59.64-88.79,1.28-41.54.92-86.73.57-130.15.95-8.27.07-16.06,1.87-23.35,5.42"/>
    <path class="cls-29" d="M75.36,383.94c16.32-16.03,17.74-32.07,4.26-48.1"/>
    <path class="cls-5" d="M364.1,237.71l-.47,3.29c-.12.81-.83,1.42-1.63,1.4-.83,0-1.52-.62-1.61-1.44-1.14-10-1.92-19.56-5.12-28.49-4.03-11.2-8.76-20.51-14.19-27.9-8.86-12.01-20.63-23.07-35.34-33.16-7.46-5.14-20.53-11.79-39.17-19.97-.45-.19-.9-.33-1.35-.45l-6.51-1.59c-.88-.21-1.59-.88-1.87-1.75-1.82-5.76-.21-9.97,4.83-12.62,1.3-.69.83-2.63-.64-2.65-9.4-.12-19.8,4.97-28.16,9.36-2.2,1.16-4.81-.57-4.59-3.06l1.42-16.48c.12-1.3-.97-2.37-2.27-2.25-3.62.33-7.93,1.82-12.98,4.45-7.18,3.74-12.67,11.42-20.8,15.09-1.59.71-3.46,0-4.17-1.59l-2.82-6.37c-.81-1.82-3.2-2.25-4.59-.85l-15.68,15.66c-1.92,1.92-4.24,3.39-6.77,4.33-15.92,5.76-31.36,13.59-46.3,23.47-4.38,2.89-11.91,9.66-22.62,20.35-7.84,7.79-13.24,14.95-16.22,21.51-4.17,9.12-7.46,17.6-9.9,25.39-.28.9-1.37,1.21-2.08.59-.05-.05-.17-.5-.33-1.35"/>
    <path class="cls-20" d="M211.31,359.45c61.65.12,124.65-28.07,134.34-94.69,3.17-21.79-1.75-46.8-13.31-65.32-14.64-23.47-35.93-35.88-63.85-37.28-14.5-.73-27.85,1.87-40.07,7.77-4.41,2.13-9.57,4.55-15.49,7.25-.05.02-.47.05-1.28.02-.81,0-1.21,0-1.26-.02-5.92-2.72-11.06-5.16-15.47-7.32-12.2-5.94-25.53-8.6-40.05-7.91-27.92,1.28-49.26,13.62-64,37.02-11.63,18.47-16.65,43.46-13.55,65.28,9.43,66.65,72.31,95.09,133.98,95.21"/>
    <path class="cls-29" d="M134.14,359.23c-.4.43-.43,1.09-.07,1.54,14.54,18.09,33.13,27.85,55.87,33.85,22.26,5.85,44.08,4.59,65.46-3.77,15.63-6.11,29.06-16.39,37.8-30.6.54-.88-.36-1.94-1.33-1.56-37.56,14.78-76.71,18.83-117.48,12.13-11.79-1.92-24.68-5.78-38.63-11.53-.78-.33-1.33-.36-1.63-.05"/>
    <path class="cls-13" d="M82.63,243.58c-.69,12.77-.45,22.33.76,28.75,1.73,9.17,6.8,19.73,15.23,31.64"/>
    <path class="cls-26" d="M98.62,303.98c13.12,18.69,30.27,31.78,51.44,39.34,35.43,12.62,72.36,13.9,110.8,3.84,24.21-6.35,49.07-21.06,62.88-42.02.43-.64.52-1.26.28-1.82-.24-.59-.64-1.14-1.21-1.63"/>
    <path class="cls-13" d="M322.82,301.68c.71-.4,1.63-.54,2.79-.45.73.05,1.42-.28,1.78-.9,7.37-12.15,11.89-23.97,13.57-35.43.73-4.95.5-12.1-.69-21.41"/>
    <path class="cls-26" d="M340.27,243.49c-1.18-16.84-6.02-31.33-14.47-43.49-18.07-25.98-43.67-36.26-76.79-30.84-8.24,1.35-19.21,5.9-32.87,13.67-.57.33-1.21.54-1.85.66-3.41.59-6.28.12-8.57-1.37-9.45-6.13-19.92-10.37-31.41-12.69-50.24-10.11-87.04,25.32-91.68,74.16"/>
    <path class="cls-6" d="M340.27,243.49c-9.71-12.67-21.2-22.67-34.46-29.96-15.13-8.34-32-11.01-47.32-1.85-20.96,12.55-20.25,42.11-1.02,55.37,12.01,8.27,27.64,10.47,37.16,13.81,11.13,3.86,20.53,10.8,28.18,20.82M98.62,303.98c8.41-11.72,19.07-19.56,32-23.54,6.56-2.01,13.26-4.07,20.06-6.16,5.9-1.8,10.94-4.22,15.13-7.25,22.93-16.51,17.93-50.31-9.17-59.14-9.78-3.2-19.82-2.7-30.17,1.49-16.96,6.87-31.57,18.26-43.84,34.2"/>
    <path class="cls-26" d="M115.5,205.12l39.36-14.57c.19-.07.31-.31.24-.52l-.5-1.33c-2.25-6.11-12.06-8.1-21.91-4.45l-4.48,1.66c-9.85,3.65-15.99,11.53-13.74,17.62l.5,1.35c.07.19.31.31.52.24M268.48,190.62l38.37,13.97c.36.12.76-.05.88-.4l.73-1.99c1.97-5.42-4.33-12.72-14.09-16.27l-4.31-1.56c-9.76-3.55-19.28-2.04-21.27,3.39l-.71,1.99c-.14.36.05.76.4.88"/>
    <path class="cls-21" d="M220.69,287.21c8.83-2.49,14.92-7.7,18.26-15.63"/>
    <path class="cls-25" d="M238.95,271.58c3.39-10.37.43-17.34-8.93-20.89-10.63-4.05-22.67-4.03-36.1.09-17.88,5.47-11.58,25.3.38,32.73,8.15,5.04,16.93,6.28,26.38,3.69"/>
    <path class="cls-15" d="M238.95,271.58c-2.53-5.47-5.4-9.83-8.57-13.03"/>
    <path class="cls-7" d="M230.37,258.55c-10.11-7.15-27.33-5.19-38.01-.85-.95.38-1.44,1.4-1.21,2.37.24.99,1.14,1.66,2.16,1.56.97-.07,1.89,0,2.72.26"/>
    <path class="cls-15" d="M196.03,261.89c3.53,3.01,6.32,6.39,8.34,10.14.38.66.52,1.44.4,2.2l-.97,7.48c-.12.92.5,1.8,1.4,1.99l15.49,3.51"/>
    <path class="cls-27" d="M230.37,258.55c-.33,1.8-2.51,2.65-6.56,2.56-3.53-.07-6.02.17-7.44.71-7.41,2.91-12.77.31-20.35.07"/>
    <path class="cls-14" d="M211.73,307.77c20.16-.02,40.83-4.69,56.04-18.69,1.59-1.49,1.73-3.96.31-5.59l-.09-.12c-1.35-1.56-3.74-1.61-5.14-.12-12.55,13.52-33.44,17.5-51.11,17.5s-38.58-3.96-51.11-17.46c-1.42-1.52-3.81-1.47-5.16.09l-.09.12c-1.4,1.66-1.26,4.12.33,5.59,15.18,14,35.88,18.66,56.04,18.66"/>
    <path class="cls-17" d="M191.96,321.98c5.61,10.71,14.85,14.87,27.71,12.48,7.06-1.3,11.13-5.45,12.24-12.43"/>
    <path class="cls-12" d="M231.91,322.02c1.09-.81,1.56-1.85,1.42-3.15-.07-.71-.78-1.18-1.47-.97-13,3.91-26.01,3.93-39.03.05-.92-.28-1.78.54-1.54,1.47l.66,2.56"/>
    <path class="cls-23" d="M231.91,322.02c-10.23,2.58-16.56,5.76-28.61,3.74-.76-.12-1.52-.36-2.2-.71-2.96-1.44-5.99-2.49-9.14-3.08"/>
    <path class="cls-11" d="M111.13,237.68c-2.02,15.4,9.16,29.59,24.98,31.67,15.82,2.09,30.29-8.71,32.32-24.13,2.02-15.4-9.16-29.59-24.98-31.67-15.82-2.09-30.29,8.71-32.32,24.13M312.06,241.4c0-15.82-12.81-28.63-28.63-28.63s-28.63,12.81-28.63,28.63,12.81,28.63,28.63,28.63,28.63-12.81,28.63-28.63"/>
    <path class="cls-10" d="M306.95,241.43c0-13-10.54-23.54-23.54-23.54s-23.54,10.54-23.54,23.54,10.54,23.54,23.54,23.54,23.54-10.54,23.54-23.54"/>
    <path class="cls-10" d="M118.63,231.21c-5.54,11.54-.47,25.49,11.3,31.12,11.77,5.64,25.79.86,31.34-10.7,5.54-11.54.47-25.49-11.3-31.12-11.77-5.64-25.79-.86-31.34,10.7"/>
    <path class="cls-16" d="M157.61,241.8c0-7.7-6.23-13.93-13.93-13.93s-13.93,6.23-13.93,13.93,6.23,13.93,13.93,13.93,13.93-6.23,13.93-13.93M293.47,241.97c0-7.79-6.32-14.12-14.12-14.12s-14.12,6.32-14.12,14.12,6.32,14.12,14.12,14.12,14.12-6.32,14.12-14.12"/>
    <path class="cls-19" d="M229.9,265.72c-1.73-1.56-5.52-.14-8.51,3.16-2.98,3.31-3.99,7.24-2.29,8.79,1.73,1.56,5.52.14,8.51-3.16,2.98-3.31,3.99-7.24,2.29-8.79"/>
    <path class="cls-39" d="M243.09,83.45c-15.94-2.49-29.01,3.77-42.11,12.15-.66.43-1.52-.09-1.44-.88.4-3.91-1.26-6.13-4.97-6.63-10.97-1.47-26.22,15.25-31.9,23.52-1.54,2.23-3.79,3.86-6.39,4.62-18.5,5.26-35.15,13.41-49.95,24.42-34.82,25.89-53.65,66.32-54.76,109.04-3.29-15.92-1.99-31.07,3.88-45.5,12.46-30.58,27.88-56.35,56.06-73.21,11.89-7.11,24.87-13.62,38.91-19.56,3.24-1.35,9.71-6.37,13.36-9.83,8.1-7.67,13.67-12.72,22.67-15.35,5.02-1.44,13.31-.28,18.05-.43,2.56-.09,5.12-.5,7.58-1.23,10.18-3.01,20.27-8.83,31.03-1.14h0Z"/>
    <path class="cls-37" d="M243.09,83.45c4.5,1.04,6.63,3.69,6.37,7.98l-3.13,7.2c-.26.59.26,1.23.9,1.11,7.89-1.59,29.72-2.44,31.74,8.5.14.71,0,1.44-.36,2.06l-2.75,4.78c-.54.97-.19,2.18.81,2.68,6.42,3.2,12.96,6.51,19.63,9.95,28.26,14.59,49.83,38.08,63.26,67.15,14.33,34.15,17.48,75.72,3.15,110.39-5.92,14.31-14.14,29.49-14.38,44.88-.17,11.37,1.99,21.62,6.44,30.79,8.31,17.15,14.02,29.13,17.15,35.93.99,2.16-.24,4.67-2.51,5.16-1.18.26-2.39-.59-3.6-2.56l-18.21-36.12c-.19-1.07-.45-1.71-.76-1.97-4.71-14.33-6.21-29.11-4.43-44.29.78-2.51,1.59-5.26,2.46-8.22,3.13-10.71,9.71-21.72,12.27-28.63,7.13-19.26,9.45-40.1,6.94-62.53-5.57-49.22-35.5-89.34-81.24-109.12-6.21-2.68-12.34-5.16-18.38-7.44-.97-.36-1.42-1.52-.92-2.44,1.99-3.74,4.59-6.63,7.82-8.69,1.02-.64.88-2.16-.24-2.61-11.98-4.83-22.38-1.52-34.56,3.36-.92.36-1.94-.07-2.3-.99-2.42-6.35,2.89-12.2,7.34-17.76.88-1.09.14-2.72-1.26-2.79-17.31-.88-29.89,8.15-43.15,18.1-.69.52-1.66.43-2.23-.21-2.51-2.77-2.94-6.25-1.3-10.44.57-1.44-.88-2.84-2.3-2.25-10.85,4.59-17.03,13.24-25.65,23.8-1.04,1.28-2.44,2.23-4.03,2.72-10.78,3.46-19.47,6.75-26.08,9.88-38.39,18.12-62.88,48.03-73.49,89.79-8.34,35.81-3.88,69.94,13.36,102.37,1.61,3.01,2.98,7.29,4.12,12.86,2.63,16.46,1.21,32.5-4.26,48.1l-18.52,37.02c-.45.78-1.61,1.14-3.51,1.11-1.66-.02-2.82-1.68-2.25-3.24,2.27-6.37,4.43-12.55,7.44-18.26,12.27-23.4,21.22-44.31,12.81-69.49-1.23-3.67-3.84-9.62-7.79-17.83-9.5-19.78-13.29-41.66-11.98-63.55,1.11-42.73,19.94-83.16,54.76-109.04,14.8-11.01,31.45-19.16,49.95-24.42,2.61-.76,4.86-2.39,6.39-4.62,5.68-8.27,20.94-24.99,31.9-23.52,3.72.5,5.38,2.72,4.97,6.63-.07.78.78,1.3,1.44.88,13.1-8.38,26.17-14.64,42.11-12.15h0Z"/>
    <path class="cls-40" d="M364.1,237.71l-.47,3.29c-.12.81-.83,1.42-1.63,1.4-.83,0-1.52-.62-1.61-1.44-1.14-10-1.92-19.56-5.12-28.49-4.03-11.2-8.76-20.51-14.19-27.9-8.86-12.01-20.63-23.07-35.34-33.16-7.46-5.14-20.53-11.79-39.17-19.97-.45-.19-.9-.33-1.35-.45l-6.51-1.59c-.88-.21-1.59-.88-1.87-1.75-1.82-5.76-.21-9.97,4.83-12.62,1.3-.69.83-2.63-.64-2.65-9.4-.12-19.8,4.97-28.16,9.36-2.2,1.16-4.81-.57-4.59-3.06l1.42-16.48c.12-1.3-.97-2.37-2.27-2.25-3.62.33-7.93,1.82-12.98,4.45-7.18,3.74-12.67,11.42-20.8,15.09-1.59.71-3.46,0-4.17-1.59l-2.82-6.37c-.81-1.82-3.2-2.25-4.59-.85l-15.68,15.66c-1.92,1.92-4.24,3.39-6.77,4.33-15.92,5.76-31.36,13.59-46.3,23.47-4.38,2.89-11.91,9.66-22.62,20.35-7.84,7.79-13.24,14.95-16.22,21.51-4.17,9.12-7.46,17.6-9.9,25.39-.28.9-1.37,1.21-2.08.59-.05-.05-.17-.5-.33-1.35,10.61-41.76,35.1-71.67,73.49-89.79,6.61-3.13,15.3-6.42,26.08-9.88,1.59-.5,2.98-1.44,4.03-2.72,8.62-10.56,14.8-19.21,25.65-23.8,1.42-.59,2.87.81,2.3,2.25-1.63,4.19-1.21,7.67,1.3,10.44.57.64,1.54.73,2.23.21,13.26-9.95,25.84-18.97,43.15-18.1,1.4.07,2.13,1.71,1.26,2.79-4.45,5.57-9.76,11.42-7.34,17.76.36.92,1.37,1.35,2.3.99,12.17-4.88,22.57-8.19,34.56-3.36,1.11.45,1.26,1.97.24,2.61-3.22,2.06-5.83,4.95-7.82,8.69-.5.92-.05,2.08.92,2.44,6.04,2.27,12.17,4.76,18.38,7.44,45.74,19.78,75.67,59.9,81.24,109.12h0Z"/>
    <path class="cls-39" d="M249.46,91.43c6.42,2.65,13.12,4.62,20.13,5.9,11.39,2.08,15.4,18,22.88,22.38,8.55,5,16.37,9.81,23.45,14.42,20.56,13.33,38.08,36.95,43.65,60.73-13.43-29.06-35.01-52.56-63.26-67.15-6.68-3.43-13.22-6.75-19.63-9.95-.99-.5-1.35-1.71-.81-2.68l2.75-4.78c.36-.62.5-1.35.36-2.06-2.01-10.94-23.85-10.09-31.74-8.5-.64.12-1.16-.52-.9-1.11l3.13-7.2h0Z"/>
    <path class="cls-45" d="M364.1,237.71c2.51,22.43.19,43.27-6.94,62.53-2.56,6.92-9.14,17.93-12.27,28.63-.88,2.96-1.68,5.71-2.46,8.22-13.33,15.13-11.84,29.89,4.43,44.29.31.26.57.9.76,1.97,2.94,11.65,1.66,23.26-11.63,26.69-8.03,2.11-15.23,3.17-21.6,3.2-29.98.21-59.59.64-88.79,1.28-41.54.92-86.73.57-130.15.95-8.27.07-16.06,1.87-23.35,5.42l-15.25.07,18.52-37.02c16.32-16.03,17.74-32.07,4.26-48.1-1.14-5.57-2.51-9.85-4.12-12.86-17.24-32.42-21.7-66.55-13.36-102.37.17.85.28,1.3.33,1.35.71.62,1.8.31,2.08-.59,2.44-7.79,5.73-16.27,9.9-25.39,2.98-6.56,8.38-13.71,16.22-21.51,10.71-10.68,18.24-17.46,22.62-20.35,14.95-9.88,30.39-17.72,46.3-23.47,2.53-.95,4.86-2.42,6.77-4.33l15.68-15.66c1.4-1.4,3.79-.97,4.59.85l2.82,6.37c.71,1.59,2.58,2.3,4.17,1.59,8.12-3.67,13.62-11.35,20.8-15.09,5.04-2.63,9.36-4.12,12.98-4.45,1.3-.12,2.39.95,2.27,2.25l-1.42,16.48c-.21,2.49,2.39,4.22,4.59,3.06,8.36-4.38,18.76-9.47,28.16-9.36,1.47.02,1.94,1.97.64,2.65-5.04,2.65-6.66,6.87-4.83,12.62.28.88.99,1.54,1.87,1.75l6.51,1.59c.45.12.9.26,1.35.45,18.64,8.17,31.71,14.83,39.17,19.97,14.71,10.09,26.48,21.15,35.34,33.16,5.42,7.39,10.16,16.7,14.19,27.9,3.2,8.93,3.98,18.5,5.12,28.49.09.83.78,1.44,1.61,1.44.81.02,1.52-.59,1.63-1.4l.47-3.29M211.31,359.45c61.65.12,124.65-28.07,134.34-94.69,3.17-21.79-1.75-46.8-13.31-65.32-14.64-23.47-35.93-35.88-63.85-37.28-14.5-.73-27.85,1.87-40.07,7.77-4.41,2.13-9.57,4.55-15.49,7.25-.05.02-.47.05-1.28.02-.81,0-1.21,0-1.26-.02-5.92-2.72-11.06-5.16-15.47-7.32-12.2-5.94-25.53-8.6-40.05-7.91-27.92,1.28-49.26,13.62-64,37.02-11.63,18.47-16.65,43.46-13.55,65.28,9.43,66.65,72.31,95.09,133.98,95.21M134.14,359.23c-.4.43-.43,1.09-.07,1.54,14.54,18.09,33.13,27.85,55.87,33.85,22.26,5.85,44.08,4.59,65.46-3.77,15.63-6.11,29.06-16.39,37.8-30.6.54-.88-.36-1.94-1.33-1.56-37.56,14.78-76.71,18.83-117.48,12.13-11.79-1.92-24.68-5.78-38.63-11.53-.78-.33-1.33-.36-1.63-.05h0Z"/>
    <path class="cls-34" d="M211.64,177.19c.81.02,1.23,0,1.28-.02,5.92-2.7,11.08-5.12,15.49-7.25,12.22-5.9,25.58-8.5,40.07-7.77,27.92,1.4,49.22,13.81,63.85,37.28,11.56,18.52,16.48,43.53,13.31,65.32-9.69,66.63-72.69,94.81-134.34,94.69-61.67-.12-124.56-28.56-133.98-95.21-3.1-21.81,1.92-46.8,13.55-65.28,14.73-23.4,36.07-35.74,64-37.02,14.52-.69,27.85,1.97,40.05,7.91,4.41,2.16,9.55,4.59,15.47,7.32.05.02.45.02,1.26.02M82.63,243.58c-.69,12.77-.45,22.33.76,28.75,1.73,9.17,6.8,19.73,15.23,31.64,13.12,18.69,30.27,31.78,51.44,39.34,35.43,12.62,72.36,13.9,110.8,3.84,24.21-6.35,49.07-21.06,62.88-42.02.43-.64.52-1.26.28-1.82-.24-.59-.64-1.14-1.21-1.63.71-.4,1.63-.54,2.79-.45.73.05,1.42-.28,1.78-.9,7.37-12.15,11.89-23.97,13.57-35.43.73-4.95.5-12.1-.69-21.41-1.18-16.84-6.02-31.33-14.47-43.49-18.07-25.98-43.67-36.26-76.79-30.84-8.24,1.35-19.21,5.9-32.87,13.67-.57.33-1.21.54-1.85.66-3.41.59-6.28.12-8.57-1.37-9.45-6.13-19.92-10.37-31.41-12.69-50.24-10.11-87.04,25.32-91.68,74.16h0Z"/>
    <path class="cls-33" d="M340.27,243.49c-9.71-12.67-21.2-22.67-34.46-29.96-15.13-8.34-32-11.01-47.32-1.85-20.96,12.55-20.25,42.11-1.02,55.37,12.01,8.27,27.64,10.47,37.16,13.81,11.13,3.86,20.53,10.8,28.18,20.82.57.5.97,1.04,1.21,1.63.24.57.14,1.18-.28,1.82-13.81,20.96-38.68,35.67-62.88,42.02-38.44,10.07-75.36,8.79-110.8-3.84-21.17-7.56-38.32-20.65-51.44-39.34,8.41-11.72,19.07-19.56,32-23.54,6.56-2.01,13.26-4.07,20.06-6.16,5.9-1.8,10.94-4.22,15.13-7.25,22.93-16.51,17.93-50.31-9.17-59.14-9.78-3.2-19.82-2.7-30.17,1.49-16.96,6.87-31.57,18.26-43.84,34.2,4.64-48.84,41.45-84.27,91.68-74.16,11.49,2.32,21.96,6.56,31.41,12.69,2.3,1.49,5.16,1.97,8.57,1.37.64-.12,1.28-.33,1.85-.66,13.67-7.77,24.63-12.32,32.87-13.67,33.11-5.42,58.71,4.86,76.79,30.84,8.46,12.15,13.29,26.65,14.47,43.49M115.5,205.12l39.36-14.57c.19-.07.31-.31.24-.52l-.5-1.33c-2.25-6.11-12.06-8.1-21.91-4.45l-4.48,1.66c-9.85,3.65-15.99,11.53-13.74,17.62l.5,1.35c.07.19.31.31.52.24M268.48,190.62l38.37,13.97c.36.12.76-.05.88-.4l.73-1.99c1.97-5.42-4.33-12.72-14.09-16.27l-4.31-1.56c-9.76-3.55-19.28-2.04-21.27,3.39l-.71,1.99c-.14.36.05.76.4.88M220.69,287.21c8.83-2.49,14.92-7.7,18.26-15.63,3.39-10.37.43-17.34-8.93-20.89-10.63-4.05-22.67-4.03-36.1.09-17.88,5.47-11.58,25.3.38,32.73,8.15,5.04,16.93,6.28,26.38,3.69M211.73,307.77c20.16-.02,40.83-4.69,56.04-18.69,1.59-1.49,1.73-3.96.31-5.59l-.09-.12c-1.35-1.56-3.74-1.61-5.14-.12-12.55,13.52-33.44,17.5-51.11,17.5s-38.58-3.96-51.11-17.46c-1.42-1.52-3.81-1.47-5.16.09l-.09.12c-1.4,1.66-1.26,4.12.33,5.59,15.18,14,35.88,18.66,56.04,18.66M191.96,321.98c5.61,10.71,14.85,14.87,27.71,12.48,7.06-1.3,11.13-5.45,12.24-12.43,1.09-.81,1.56-1.85,1.42-3.15-.07-.71-.78-1.18-1.47-.97-13,3.91-26.01,3.93-39.03.05-.92-.28-1.78.54-1.54,1.47l.66,2.56h0Z"/>
    <path class="cls-34" d="M115.5,205.12c-.21.07-.45-.05-.52-.24l-.5-1.35c-2.25-6.09,3.88-13.97,13.74-17.62l4.48-1.66c9.85-3.65,19.66-1.66,21.91,4.45l.5,1.33c.07.21-.05.45-.24.52l-39.36,14.57h0Z"/>
    <path class="cls-34" d="M268.48,190.62c-.36-.12-.54-.52-.4-.88l.71-1.99c1.99-5.42,11.51-6.94,21.27-3.39l4.31,1.56c9.76,3.55,16.06,10.85,14.09,16.27l-.73,1.99c-.12.36-.52.52-.88.4l-38.37-13.97h0Z"/>
    <path class="cls-35" d="M98.62,303.98c-8.43-11.91-13.5-22.48-15.23-31.64-1.21-6.42-1.44-15.99-.76-28.75,12.27-15.94,26.88-27.33,43.84-34.2,10.35-4.19,20.39-4.69,30.17-1.49,27.1,8.83,32.09,42.63,9.17,59.14-4.19,3.03-9.24,5.45-15.13,7.25-6.8,2.08-13.5,4.14-20.06,6.16-12.93,3.98-23.59,11.82-32,23.54M111.13,237.68c-2.02,15.4,9.16,29.59,24.98,31.67,15.82,2.09,30.29-8.71,32.32-24.13,2.02-15.4-9.16-29.59-24.98-31.67-15.82-2.09-30.29,8.71-32.32,24.13h0Z"/>
    <path class="cls-35" d="M340.27,243.49c1.18,9.31,1.42,16.46.69,21.41-1.68,11.46-6.21,23.28-13.57,35.43-.36.62-1.04.95-1.78.9-1.16-.09-2.08.05-2.79.45-7.65-10.02-17.05-16.96-28.18-20.82-9.52-3.34-25.15-5.54-37.16-13.81-19.23-13.26-19.94-42.82,1.02-55.37,15.32-9.17,32.19-6.49,47.32,1.85,13.26,7.29,24.75,17.29,34.46,29.96M312.06,241.4c0-15.82-12.81-28.63-28.63-28.63s-28.63,12.81-28.63,28.63,12.81,28.63,28.63,28.63,28.63-12.81,28.63-28.63h0Z"/>
    <path class="cls-31" d="M312.06,241.4c0,15.82-12.81,28.63-28.63,28.63s-28.63-12.81-28.63-28.63,12.81-28.63,28.63-28.63,28.63,12.81,28.63,28.63M306.95,241.43c0-13-10.54-23.54-23.54-23.54s-23.54,10.54-23.54,23.54,10.54,23.54,23.54,23.54,23.54-10.54,23.54-23.54h0Z"/>
    <path class="cls-31" d="M111.13,237.68c2.03-15.41,16.5-26.21,32.32-24.13,15.82,2.08,27,16.27,24.98,31.67-2.03,15.41-16.5,26.21-32.32,24.13-15.82-2.08-27-16.27-24.98-31.67M118.63,231.21c-5.54,11.54-.47,25.49,11.3,31.12,11.77,5.64,25.79.86,31.34-10.7,5.54-11.54.47-25.49-11.3-31.12-11.77-5.64-25.79-.86-31.34,10.7h0Z"/>
    <path class="cls-32" d="M118.63,231.21c5.54-11.55,19.56-16.34,31.34-10.7,11.77,5.63,16.84,19.58,11.3,31.12-5.54,11.55-19.56,16.34-31.34,10.7-11.77-5.63-16.84-19.58-11.3-31.12M157.61,241.8c0-7.7-6.23-13.93-13.93-13.93s-13.93,6.23-13.93,13.93,6.23,13.93,13.93,13.93,13.93-6.23,13.93-13.93h0Z"/>
    <path class="cls-32" d="M306.95,241.43c0,13-10.54,23.54-23.54,23.54s-23.54-10.54-23.54-23.54,10.54-23.54,23.54-23.54,23.54,10.54,23.54,23.54M293.47,241.97c0-7.79-6.32-14.12-14.12-14.12s-14.12,6.32-14.12,14.12,6.32,14.12,14.12,14.12,14.12-6.32,14.12-14.12h0Z"/>
    <path class="cls-30" d="M157.61,241.8c0,7.7-6.23,13.93-13.93,13.93s-13.93-6.23-13.93-13.93,6.23-13.93,13.93-13.93,13.93,6.23,13.93,13.93h0Z"/>
    <path class="cls-30" d="M287.48,241.97c0,7.79-4.98,14.12-11.12,14.12s-11.12-6.32-11.12-14.12,4.98-14.12,11.12-14.12,11.12,6.32,11.12,14.12h0Z"/>
    <path class="cls-43" d="M238.95,271.58c-2.53-5.47-5.4-9.83-8.57-13.03-10.11-7.15-27.33-5.19-38.01-.85-.95.38-1.44,1.4-1.21,2.37.24.99,1.14,1.66,2.16,1.56.97-.07,1.89,0,2.72.26,3.53,3.01,6.32,6.39,8.34,10.14.38.66.52,1.44.4,2.2l-.97,7.48c-.12.92.5,1.8,1.4,1.99l15.49,3.51c-9.45,2.58-18.24,1.35-26.38-3.69-11.96-7.44-18.26-27.26-.38-32.73,13.43-4.12,25.46-4.14,36.1-.09,9.36,3.55,12.32,10.52,8.93,20.89h0Z"/>
    <path class="cls-44" d="M230.37,258.55c-.33,1.8-2.51,2.65-6.56,2.56-3.53-.07-6.02.17-7.44.71-7.41,2.91-12.77.31-20.35.07-.83-.26-1.75-.33-2.72-.26-1.02.09-1.92-.57-2.16-1.56-.24-.97.26-1.99,1.21-2.37,10.68-4.33,27.9-6.3,38.01.85h0Z"/>
    <path class="cls-41" d="M238.95,271.58c-3.34,7.93-9.43,13.15-18.26,15.63l-15.49-3.51c-.9-.19-1.52-1.07-1.4-1.99l.97-7.48c.12-.76-.02-1.54-.4-2.2-2.01-3.74-4.81-7.13-8.34-10.14,7.58.24,12.93,2.84,20.35-.07,1.42-.54,3.91-.78,7.44-.71,4.05.09,6.23-.76,6.56-2.56,3.17,3.2,6.04,7.56,8.57,13.03M229.9,265.72c-1.73-1.56-5.52-.14-8.51,3.16-2.98,3.31-3.99,7.24-2.29,8.79,1.73,1.56,5.52.14,8.51-3.16,2.98-3.31,3.99-7.24,2.29-8.79h0Z"/>
    <path class="cls-31" d="M229.9,265.72c1.71,1.55.69,5.48-2.29,8.79-2.99,3.3-6.78,4.72-8.51,3.16-1.71-1.55-.69-5.48,2.29-8.79,2.99-3.3,6.78-4.72,8.51-3.16h0Z"/>
    <path class="cls-31" d="M211.73,300.76c17.67,0,38.56-3.98,51.11-17.5,1.4-1.49,3.79-1.44,5.14.12l.09.12c1.42,1.63,1.28,4.1-.31,5.59-15.21,14-35.88,18.66-56.04,18.69-20.16,0-40.86-4.67-56.04-18.66-1.59-1.47-1.73-3.93-.33-5.59l.09-.12c1.35-1.56,3.74-1.61,5.16-.09,12.53,13.5,33.44,17.46,51.11,17.46h0Z"/>
    <path class="cls-38" d="M231.91,322.02c-10.23,2.58-16.56,5.76-28.61,3.74-.76-.12-1.52-.36-2.2-.71-2.96-1.44-5.99-2.49-9.14-3.08l-.66-2.56c-.24-.92.62-1.75,1.54-1.47,13.03,3.88,26.03,3.86,39.03-.05.69-.21,1.4.26,1.47.97.14,1.3-.33,2.34-1.42,3.15h0Z"/>
    <path class="cls-36" d="M231.91,322.02c-1.11,6.99-5.19,11.13-12.24,12.43-12.86,2.39-22.1-1.78-27.71-12.48,3.15.59,6.18,1.63,9.14,3.08.69.36,1.44.59,2.2.71,12.06,2.01,18.38-1.16,28.61-3.74h0Z"/>
    <path class="cls-38" d="M75.36,383.94c5.47-15.61,6.89-31.64,4.26-48.1,13.48,16.03,12.06,32.07-4.26,48.1h0Z"/>
    <path class="cls-38" d="M342.43,337.09c-1.78,15.18-.28,29.96,4.43,44.29-16.27-14.4-17.76-29.16-4.43-44.29h0Z"/>
    <path class="cls-38" d="M134.14,359.23c.31-.31.85-.28,1.63.05,13.95,5.76,26.83,9.62,38.63,11.53,40.76,6.7,79.91,2.65,117.48-12.13.97-.38,1.87.69,1.33,1.56-8.74,14.21-22.17,24.49-37.8,30.6-21.39,8.36-43.2,9.62-65.46,3.77-22.74-5.99-41.33-15.75-55.87-33.85-.36-.45-.33-1.11.07-1.54h0Z"/>
    <path class="cls-36" d="M347.61,383.34l18.21,36.12c-.26.97-.92,1.47-1.94,1.47-97.27.21-194.55.21-291.8-.05,7.29-3.55,15.09-5.35,23.35-5.42,43.41-.38,88.6-.02,130.15-.95,29.2-.64,58.81-1.07,88.79-1.28,6.37-.02,13.57-1.09,21.6-3.2,13.29-3.43,14.57-15.04,11.63-26.69h0Z"/>
  </g>
</svg>