<?xml version="1.0" encoding="UTF-8"?>
<svg id="Camada_1" data-name="Camada 1" xmlns="http://www.w3.org/2000/svg" xmlns:xlink="http://www.w3.org/1999/xlink" viewBox="0 0 422.07 422.07">
  <defs>
    <style>
      .cls-1 {
        stroke: #0d383f;
      }

      .cls-1, .cls-2, .cls-3, .cls-4, .cls-5, .cls-6, .cls-7, .cls-8, .cls-9, .cls-10, .cls-11, .cls-12, .cls-13, .cls-14, .cls-15, .cls-16, .cls-17, .cls-18 {
        fill: none;
        stroke-miterlimit: 10;
      }

      .cls-19 {
        fill: #020304;
      }

      .cls-20 {
        fill: #92ece0;
      }

      .cls-2 {
        stroke: #3aaea9;
      }

      .cls-3 {
        stroke: #55ada8;
      }

      .cls-4 {
        stroke: #346a60;
      }

      .cls-5 {
        stroke: #276263;
      }

      .cls-6 {
        stroke: #4d789a;
      }

      .cls-7 {
        stroke: #4b857e;
      }

      .cls-8 {
        stroke: #55a4a2;
      }

      .cls-9 {
        stroke: #1b1047;
      }

      .cls-10 {
        stroke: #59cab5;
      }

      .cls-11 {
        stroke: #40709d;
      }

      .cls-12 {
        stroke: #0d2f34;
      }

      .cls-13 {
        stroke: #18646a;
      }

      .cls-21 {
        fill: #02020d;
      }

      .cls-22 {
        fill: url(#Gradiente_sem_nome_7);
      }

      .cls-23 {
        fill: #041e1c;
      }

      .cls-14 {
        stroke: #6fd7cc;
      }

      .cls-15 {
        stroke: #154e53;
      }

      .cls-24 {
        fill: #4cc2b8;
      }

      .cls-25 {
        fill: #176d70;
      }

      .cls-26 {
        fill: #289999;
      }

      .cls-27 {
        fill: #66d2b2;
      }

      .cls-16 {
        stroke: #27635e;
      }

      .cls-28 {
        fill: #185b63;
      }

      .cls-17 {
        stroke: #28706a;
      }

      .cls-18 {
        stroke: #4a7777;
      }
    </style>
    <linearGradient id="Gradiente_sem_nome_7" data-name="Gradiente sem nome 7" x1="15.59" y1="49.92" x2="371.99" y2="343.72" gradientUnits="userSpaceOnUse">
      <stop offset="0" stop-color="#331d81"/>
      <stop offset="1" stop-color="#16085e"/>
    </linearGradient>
  </defs>
  <rect class="cls-22" x="-.57" width="423.22" height="422.07"/>
  <g>
    <line class="cls-5" x1="57.83" y1="246.7" x2="57.99" y2="280.21"/>
    <path class="cls-14" d="M201.41,80.57c-.39,4.32,1.2,6.87,4.71,7.63.83.18,1.68.12,2.48-.18,4.16-1.59,5.24-4.83,3.26-9.77-.64-1.63-2.53-2.39-4.14-1.68l-5.06,2.23c-.71.32-1.2.99-1.26,1.77"/>
    <path class="cls-20" d="M202.68,78.8l5.06-2.23c1.61-.71,3.49.05,4.14,1.68,1.98,4.94.9,8.18-3.26,9.77-.8.3-1.66.37-2.48.18-3.52-.76-5.1-3.31-4.71-7.63.07-.78.55-1.45,1.26-1.77h0Z"/>
    <g>
      <line class="cls-6" x1="109.34" y1="420.27" x2="183.3" y2="420.32"/>
      <path class="cls-11" d="M183.3,420.32l122.48.09c.25,0,.48-.05.71-.16.3-.14.51-.28.64-.41"/>
      <path class="cls-9" d="M307.14,419.84c.94,1.13,1.77,1.72,2.46,1.77,2.07.16,3.75-1.7,3.47-3.82-.57-4.28-2.11-8.27-4.57-12.02-11.15-16.8-27.03-25.28-47.67-25.4-1.59,0-2.87-1.26-2.92-2.85l-.16-6.64c-.05-1.52,1.17-2.78,2.71-2.78,4.07,0,15.26-.23,33.63-.71,20.71-.53,34.75-10.23,42.08-29.05,2.55-6.53,3.15-15.77,1.84-27.74-.21-1.84-.07-4.18.41-7.01.12-.74.69-1.31,1.43-1.47,25.63-5.33,26.66-17.15,26.46-40.31-.09-11.26-.16-17.63-.23-19.12-.8-16.55-9.56-25.58-26.27-27.08-.8-.07-1.4-.76-1.38-1.56.28-9.4.23-18.02-.16-25.88-1.06-21.63-18.41-39.69-40.77-39.83-20.41-.14-35.44-.16-45.07-.07-1.33,0-2.57-.6-3.4-1.61-6.96-8.46-16.27-13.97-27.97-16.55-.85-.18-1.47-.94-1.49-1.84l-.44-16.23c-.02-1.24.57-2.44,1.59-3.17,6.18-4.46,9.4-10.41,9.65-17.88.97-28.09-39-31.67-43.35-5.1-1.49,9.17,1.49,16.55,8.96,22.13,1.2.87,1.88,2.25,1.88,3.72v16.39c0,.9-.64,1.63-1.54,1.77-8.85,1.29-16.64,5.4-23.37,12.34-2.85,2.94-4.6,4.71-5.24,5.31-.53.51-1.22.78-1.95.8-13.29.16-25.33.11-36.15-.18-23.01-.62-41.12,6.6-48.38,29.53-3.13,9.91-2.55,27.42-2.32,35.9.05,1.22-.87,2.28-2.09,2.37-9.86.92-17.19,5.01-21.95,12.27-2.78,4.23-4.11,11.97-4,23.21.12,12.62.23,21.54.35,26.75.02.67.11,1.33.28,2,2.87,12.3,11.17,19.51,24.85,21.65,1.61.25,2.78,1.65,2.74,3.29-.39,11.4-1.38,24,2.85,34.71,8.89,22.5,27.51,28.34,50.73,27.81,4.83-.11,13.26-.05,25.31.23,1.01.02,1.82.83,1.82,1.84v9.1c0,1.06-.87,1.91-1.93,1.86-23.47-.85-40.71,9.26-51.76,30.34-.9,1.7-1.47,3.98-1.77,6.85-.21,2.07.25,3.54,1.38,4.39,1.26.94,2.48.28,3.68-2"/>
      <path class="cls-5" d="M307.14,419.84c-5.1-14.43-14.02-24.23-26.73-29.4-5.31-2.14-13.17-3.24-23.6-3.29-54.15-.28-89.18-.25-105.06.05-14.6.25-26.2,6.3-34.82,18.11"/>
      <line class="cls-4" x1="116.92" y1="405.31" x2="109.34" y2="420.27"/>
      <path class="cls-10" d="M183.3,420.32c-11.1-5.22-22.98-4.94-36.04-5.45-14.71-.6-22.41.57-30.34-9.56"/>
      <path class="cls-5" d="M224.28,89.74c0-8.64-6.99-15.63-15.63-15.63s-15.63,6.99-15.63,15.63,6.99,15.63,15.63,15.63,15.63-6.99,15.63-15.63"/>
      <path class="cls-18" d="M212.02,112.52c0-.58-.46-1.04-1.04-1.03l-4.73.02c-.57.01-1.03.47-1.03,1.04l.08,15.77c0,.58.46,1.04,1.04,1.03l4.73-.02c.57-.01,1.03-.47,1.03-1.04l-.08-15.77"/>
      <path class="cls-5" d="M208.82,148.09c9.95.02,20.55.23,31.81.57.64.02,1.1-.64.83-1.24-.57-1.24-1.54-2.32-2.92-3.22-9.63-6.39-18.46-8.3-29.7-8.34-11.24-.02-20.07,1.82-29.74,8.14-1.38.9-2.34,1.95-2.94,3.19-.25.6.18,1.26.85,1.26,11.24-.28,21.84-.41,31.81-.37M85.57,191.63l-.09,129.79"/>
      <path class="cls-15" d="M85.48,321.42c-.69,11.15,2.16,20.39,8.53,27.7,11.22,12.85,24.13,12.02,44.22,12.2,48.38.46,98.14.46,149.33,0,10.6-.09,18.62-1.33,24.04-3.72,15.33-6.73,22.23-20.92,20.69-42.54"/>
      <line class="cls-5" x1="332.29" y1="315.05" x2="331.85" y2="197.56"/>
      <path class="cls-18" d="M331.85,197.56c1.24-13.86-2.46-25.03-11.12-33.51-7.65-7.52-15.67-9.49-26.09-9.52-78.1-.12-134.04-.16-167.81-.18-8.09,0-14.16.8-18.18,2.41-14.02,5.61-23.28,19.35-23.08,34.87"/>
      <path class="cls-14" d="M331.85,197.56c-3.98-22.09-16.76-33.42-38.38-34.02-35.53-.99-71.48.44-103.43-.09-35.26-.6-57.85-.74-67.78-.39-17.12.57-29.35,10.09-36.68,28.57"/>
      <path class="cls-2" d="M332.29,315.05c-.37,5.15-.94,8.34-1.7,9.56-.94,1.52-4.92,6.25-11.97,14.2-.48.53-1.01.99-1.63,1.36-6.32,3.75-12.23,5.61-17.77,5.56-17.81-.16-33.51,0-47.12.51-36.2,1.36-84.08.14-109.38-.34-12.8-.23-31.74,2.92-41.97-5.29-5.86-4.73-10.96-11.12-15.26-19.19"/>
      <path class="cls-15" d="M57.99,280.21c3.15,9.31,9.86,14.48,20.09,15.51.55.07,1.03-.37,1.03-.92l-.05-12.32"/>
      <line class="cls-5" x1="79.07" y1="282.48" x2="79.02" y2="228.56"/>
      <path class="cls-18" d="M79.02,228.56l-.34-5.36c-.05-.74-.74-1.26-1.47-1.13-13.74,2.71-20.2,10.92-19.38,24.62"/>
      <path class="cls-14" d="M79.02,228.56c-4.83,1.59-8.39,3.84-10.69,6.76-4.25,5.4-7.77,9.19-10.5,11.38"/>
      <line class="cls-2" x1="79.07" y1="282.48" x2="57.99" y2="280.21"/>
      <line class="cls-5" x1="338.19" y1="229.55" x2="338.06" y2="281.52"/>
      <path class="cls-15" d="M338.06,281.52l.34,12.76c.02.67.57,1.17,1.24,1.15,9.58-.32,16.14-5.17,19.65-14.53"/>
      <line class="cls-5" x1="359.29" y1="280.9" x2="359.66" y2="245.29"/>
      <path class="cls-18" d="M359.66,245.29c.34-14.62-6.37-22.29-20.16-23.05-.67-.05-1.24.48-1.24,1.15l-.07,6.16"/>
      <path class="cls-14" d="M359.66,245.29c-7.29-8.14-14.46-13.38-21.47-15.74"/>
      <line class="cls-2" x1="359.29" y1="280.9" x2="338.06" y2="281.52"/>
      <path class="cls-1" d="M251.11,369.04c0-1.06-.87-1.93-1.93-1.93h-81.32c-1.06,0-1.93.87-1.93,1.93v10.39c0,1.06.87,1.93,1.93,1.93h81.32c1.06,0,1.93-.87,1.93-1.93v-10.39"/>
      <path class="cls-16" d="M310.87,213.26c-.03-12-9.77-21.73-21.78-21.71l-160.8.28c-12.01.02-21.73,9.77-21.71,21.78l.08,47.85c.03,12,9.77,21.73,21.78,21.71l160.8-.28c12.01-.02,21.73-9.77,21.71-21.78l-.08-47.85"/>
      <path class="cls-17" d="M208.54,336.8c16.34.05,33.79-3.79,45.33-15.86.64-.67,1.17-1.4,1.59-2.21,3.93-7.68,3.17-14.39-2.3-20.13-.55-.6-1.22-1.08-1.95-1.47-4.99-2.62-10.39-3.03-16.23-1.26-9.24,2.8-18.04,4.21-26.39,4.18-8.34,0-17.15-1.42-26.36-4.28-5.84-1.79-11.24-1.38-16.23,1.22-.74.39-1.4.87-1.98,1.47-5.47,5.72-6.27,12.43-2.34,20.13.39.8.92,1.54,1.56,2.21,11.49,12.11,28.94,15.97,45.3,16"/>
      <path class="cls-12" d="M305.67,213.39c0-9.03-7.31-16.34-16.34-16.34h-160.84c-9.03,0-16.34,7.31-16.34,16.34v47.62c0,9.03,7.31,16.34,16.34,16.34h160.84c9.03,0,16.34-7.31,16.34-16.34v-47.62"/>
      <path class="cls-13" d="M169.79,211.14c-15.42-6.41-30.66,3.13-33.76,19.08-3.1,16.07,10.16,36.98,29.53,31.79,8.3-2.23,13.42-7.86,15.33-16.94,2.34-10.94,1.33-28.78-11.1-33.92"/>
      <path class="cls-8" d="M245.73,254.1c4.64,5.52,10.39,6.64,17.26,3.36"/>
      <path class="cls-13" d="M262.99,257.45c12.6-8.57,11.91-21.26,11.72-34.91-.05-3.29-2.21-6.14-5.33-7.1-32.18-9.88-35.19,17.9-23.65,38.66"/>
      <path class="cls-3" d="M262.99,257.45c7.7-5.95,6.71-18.3,5.72-27.35-1.4-12.66-15.95-17.15-23.1-6.83-.39.57-.67,1.2-.87,1.86-3.03,9.98-2.71,19.63.99,28.96"/>
      <path class="cls-3" d="M174.76,230.49c.15-6.73-5.2-12.32-11.95-12.46l-1.75-.04c-6.75-.15-12.31,5.21-12.46,11.95l-.35,16.59c-.15,6.73,5.2,12.32,11.95,12.46l1.75.04c6.75.15,12.31-5.21,12.46-11.95l.35-16.59"/>
      <path class="cls-7" d="M238.86,324.45c5.36-2.32,9.06-4.96,11.15-7.88,6.85-9.61-.11-18.18-11.22-16.41-.85.14-1.47.87-1.47,1.75v21.54c0,.8.83,1.33,1.54,1.01M180.22,324.04v-21.24c0-.85-.53-1.61-1.33-1.88-9.29-3.26-16.71,4.3-12.43,13.79,1.77,3.88,5.86,7.31,12.32,10.25.67.32,1.45-.18,1.45-.92M232.42,303.7c0-.57-.53-1.03-1.1-.92l-19.05,3.75c-.53.11-.92.57-.92,1.13v21.84c0,1.36,1.24,2.37,2.57,2.11l15.97-3.15c1.47-.28,2.53-1.56,2.53-3.06v-21.7M185.49,303.9v21.86c0,1.72,1.29,3.17,2.99,3.4l15.7,2.07c1.13.14,2.11-.74,2.11-1.86v-22.13c0-.6-.46-1.13-1.06-1.2l-19.31-2.53c-.23-.02-.44.16-.44.39"/>
      <path class="cls-21" d="M307.14,419.84c-5.1-14.43-14.02-24.23-26.73-29.4-5.31-2.14-13.17-3.24-23.6-3.29-54.15-.28-89.18-.25-105.06.05-14.6.25-26.2,6.3-34.82,18.11l-7.58,14.96c-1.2,2.28-2.41,2.94-3.68,2-1.13-.85-1.59-2.32-1.38-4.39.3-2.87.87-5.15,1.77-6.85,11.06-21.08,28.29-31.19,51.76-30.34,1.06.05,1.93-.8,1.93-1.86v-9.1c0-1.01-.8-1.82-1.82-1.84-12.04-.28-20.48-.34-25.31-.23-23.21.53-41.83-5.31-50.73-27.81-4.23-10.71-3.24-23.31-2.85-34.71.05-1.63-1.13-3.03-2.74-3.29-13.68-2.14-21.97-9.35-24.85-21.65-.16-.67-.25-1.33-.28-2-.12-5.22-.23-14.14-.35-26.75-.11-11.24,1.22-18.99,4-23.21,4.76-7.26,12.09-11.35,21.95-12.27,1.22-.09,2.14-1.15,2.09-2.37-.23-8.48-.8-26,2.32-35.9,7.26-22.94,25.37-30.16,48.38-29.53,10.83.3,22.87.34,36.15.18.74-.02,1.42-.3,1.95-.8.64-.6,2.39-2.37,5.24-5.31,6.73-6.94,14.53-11.06,23.37-12.34.9-.14,1.54-.87,1.54-1.77v-16.39c0-1.47-.69-2.85-1.88-3.72-7.47-5.59-10.46-12.96-8.96-22.13,4.34-26.57,44.31-22.98,43.35,5.1-.25,7.47-3.47,13.42-9.65,17.88-1.01.74-1.61,1.93-1.59,3.17l.44,16.23c.02.9.64,1.65,1.49,1.84,11.7,2.57,21.01,8.09,27.97,16.55.83,1.01,2.07,1.61,3.4,1.61,9.63-.09,24.66-.07,45.07.07,22.36.14,39.72,18.2,40.77,39.83.39,7.86.44,16.48.16,25.88-.02.8.57,1.49,1.38,1.56,16.71,1.49,25.47,10.53,26.27,27.08.07,1.49.14,7.86.23,19.12.21,23.17-.83,34.98-26.46,40.31-.74.16-1.31.74-1.43,1.47-.48,2.83-.62,5.17-.41,7.01,1.31,11.97.71,21.21-1.84,27.74-7.33,18.82-21.38,28.52-42.08,29.05-18.36.48-29.56.71-33.63.71-1.54,0-2.76,1.26-2.71,2.78l.16,6.64c.05,1.59,1.33,2.85,2.92,2.85,20.64.12,36.52,8.6,47.67,25.4,2.46,3.75,4,7.75,4.57,12.02.28,2.11-1.4,3.98-3.47,3.82-.69-.05-1.52-.64-2.46-1.77M224.28,89.74c0-8.64-6.99-15.63-15.63-15.63s-15.63,6.99-15.63,15.63,6.99,15.63,15.63,15.63,15.63-6.99,15.63-15.63M212.02,112.52c0-.58-.46-1.04-1.04-1.03l-4.73.02c-.57.01-1.03.47-1.03,1.04l.08,15.77c0,.58.46,1.04,1.04,1.03l4.73-.02c.57-.01,1.03-.47,1.03-1.04l-.08-15.77M208.82,148.09c9.95.02,20.55.23,31.81.57.64.02,1.1-.64.83-1.24-.57-1.24-1.54-2.32-2.92-3.22-9.63-6.39-18.46-8.3-29.7-8.34-11.24-.02-20.07,1.82-29.74,8.14-1.38.9-2.34,1.95-2.94,3.19-.25.6.18,1.26.85,1.26,11.24-.28,21.84-.41,31.81-.37M85.57,191.63l-.09,129.79c-.69,11.15,2.16,20.39,8.53,27.7,11.22,12.85,24.13,12.02,44.22,12.2,48.38.46,98.14.46,149.33,0,10.6-.09,18.62-1.33,24.04-3.72,15.33-6.73,22.23-20.92,20.69-42.54l-.44-117.5c1.24-13.86-2.46-25.03-11.12-33.51-7.65-7.52-15.67-9.49-26.09-9.52-78.1-.12-134.04-.16-167.81-.18-8.09,0-14.16.8-18.18,2.41-14.02,5.61-23.28,19.35-23.08,34.87M57.83,246.7l.16,33.51c3.15,9.31,9.86,14.48,20.09,15.51.55.07,1.03-.37,1.03-.92l-.05-12.32-.05-53.92-.34-5.36c-.05-.74-.74-1.26-1.47-1.13-13.74,2.71-20.2,10.92-19.38,24.62M338.19,229.55l-.14,51.97.34,12.76c.02.67.57,1.17,1.24,1.15,9.58-.32,16.14-5.17,19.65-14.53l.37-35.6c.34-14.62-6.37-22.29-20.16-23.05-.67-.05-1.24.48-1.24,1.15l-.07,6.16M251.11,369.04c0-1.06-.87-1.93-1.93-1.93h-81.32c-1.06,0-1.93.87-1.93,1.93v10.39c0,1.06.87,1.93,1.93,1.93h81.32c1.06,0,1.93-.87,1.93-1.93v-10.39h0Z"/>
      <path class="cls-24" d="M224.28,89.74c0,8.64-6.99,15.63-15.63,15.63s-15.63-6.99-15.63-15.63,6.99-15.63,15.63-15.63,15.63,6.99,15.63,15.63M201.41,80.57c-.39,4.32,1.2,6.87,4.71,7.63.83.18,1.68.12,2.48-.18,4.16-1.59,5.24-4.83,3.26-9.77-.64-1.63-2.53-2.39-4.14-1.68l-5.06,2.23c-.71.32-1.2.99-1.26,1.77h0Z"/>
      <path class="cls-20" d="M212.1,128.29c0,.57-.45,1.03-1.03,1.04l-4.73.02c-.58.01-1.04-.45-1.04-1.03l-.08-15.77c0-.57.45-1.03,1.03-1.04l4.73-.02c.58-.01,1.04.45,1.04,1.03l.08,15.77h0Z"/>
      <path class="cls-24" d="M208.84,135.87c11.24.05,20.07,1.95,29.7,8.34,1.38.9,2.34,1.98,2.92,3.22.28.6-.18,1.26-.83,1.24-11.26-.34-21.86-.55-31.81-.57-9.98-.05-20.57.09-31.81.37-.67,0-1.1-.67-.85-1.26.6-1.24,1.56-2.3,2.94-3.19,9.68-6.32,18.5-8.16,29.74-8.14h0Z"/>
      <path class="cls-20" d="M331.85,197.56c-3.98-22.09-16.76-33.42-38.38-34.02-35.53-.99-71.48.44-103.43-.09-35.26-.6-57.85-.74-67.78-.39-17.12.57-29.35,10.09-36.68,28.57-.21-15.51,9.06-29.26,23.08-34.87,4.02-1.61,10.09-2.41,18.18-2.41,33.76.02,89.71.07,167.81.18,10.41.02,18.43,2,26.09,9.52,8.67,8.48,12.37,19.65,11.12,33.51h0Z"/>
      <path class="cls-24" d="M331.85,197.56l.44,117.5c-.37,5.15-.94,8.34-1.7,9.56-.94,1.52-4.92,6.25-11.97,14.2-.48.53-1.01.99-1.63,1.36-6.32,3.75-12.23,5.61-17.77,5.56-17.81-.16-33.51,0-47.12.51-36.2,1.36-84.08.14-109.38-.34-12.8-.23-31.74,2.92-41.97-5.29-5.86-4.73-10.96-11.12-15.26-19.19l.09-129.79c7.33-18.48,19.56-27.99,36.68-28.57,9.93-.34,32.52-.21,67.78.39,31.95.53,67.9-.9,103.43.09,21.63.6,34.41,11.93,38.38,34.02M310.87,213.26c-.03-12-9.77-21.73-21.78-21.71l-160.8.28c-12.01.02-21.73,9.77-21.71,21.78l.08,47.85c.03,12,9.77,21.73,21.78,21.71l160.8-.28c12.01-.02,21.73-9.77,21.71-21.78l-.08-47.85M208.54,336.8c16.34.05,33.79-3.79,45.33-15.86.64-.67,1.17-1.4,1.59-2.21,3.93-7.68,3.17-14.39-2.3-20.13-.55-.6-1.22-1.08-1.95-1.47-4.99-2.62-10.39-3.03-16.23-1.26-9.24,2.8-18.04,4.21-26.39,4.18-8.34,0-17.15-1.42-26.36-4.28-5.84-1.79-11.24-1.38-16.23,1.22-.74.39-1.4.87-1.98,1.47-5.47,5.72-6.27,12.43-2.34,20.13.39.8.92,1.54,1.56,2.21,11.49,12.11,28.94,15.97,45.3,16h0Z"/>
      <path class="cls-19" d="M310.95,261.11c.03,12.02-9.7,21.76-21.71,21.78l-160.8.28c-12.01.02-21.75-9.7-21.78-21.71l-.08-47.85c-.03-12.02,9.7-21.76,21.71-21.78l160.8-.28c12.01-.02,21.75,9.7,21.78,21.71l.08,47.85M305.67,213.39c0-9.03-7.31-16.34-16.34-16.34h-160.84c-9.03,0-16.34,7.31-16.34,16.34v47.62c0,9.03,7.31,16.34,16.34,16.34h160.84c9.03,0,16.34-7.31,16.34-16.34v-47.62h0Z"/>
      <path class="cls-28" d="M305.67,261.02c0,9.03-7.31,16.34-16.34,16.34h-160.84c-9.03,0-16.34-7.31-16.34-16.34v-47.62c0-9.03,7.31-16.34,16.34-16.34h160.84c9.03,0,16.34,7.31,16.34,16.34v47.62M169.79,211.14c-15.42-6.41-30.66,3.13-33.76,19.08-3.1,16.07,10.16,36.98,29.53,31.79,8.3-2.23,13.42-7.86,15.33-16.94,2.34-10.94,1.33-28.78-11.1-33.92M245.73,254.1c4.64,5.52,10.39,6.64,17.26,3.36,12.6-8.57,11.91-21.26,11.72-34.91-.05-3.29-2.21-6.14-5.33-7.1-32.18-9.88-35.19,17.9-23.65,38.66h0Z"/>
      <path class="cls-25" d="M169.79,211.14c12.43,5.15,13.45,22.98,11.1,33.92-1.91,9.08-7.03,14.71-15.33,16.94-19.38,5.19-32.64-15.72-29.53-31.79,3.1-15.95,18.34-25.49,33.76-19.08M174.76,230.49c.15-6.73-5.2-12.32-11.95-12.46l-1.75-.04c-6.75-.15-12.31,5.21-12.46,11.95l-.35,16.59c-.15,6.73,5.2,12.32,11.95,12.46l1.75.04c6.75.15,12.31-5.21,12.46-11.95l.35-16.59h0Z"/>
      <path class="cls-25" d="M262.99,257.45c7.7-5.95,6.71-18.3,5.72-27.35-1.4-12.66-15.95-17.15-23.1-6.83-.39.57-.67,1.2-.87,1.86-3.03,9.98-2.71,19.63.99,28.96-11.54-20.75-8.53-48.54,23.65-38.66,3.13.97,5.29,3.82,5.33,7.1.18,13.65.87,26.34-11.72,34.91h0Z"/>
      <path class="cls-20" d="M174.42,247.08c-.15,6.74-5.71,12.09-12.46,11.95l-1.75-.04c-6.74-.14-12.1-5.72-11.95-12.46l.35-16.59c.15-6.74,5.71-12.09,12.46-11.95l1.75.04c6.74.14,12.1,5.72,11.95,12.46l-.35,16.59h0Z"/>
      <path class="cls-20" d="M262.99,257.45c-6.87,3.29-12.62,2.16-17.26-3.36-3.7-9.33-4.02-18.98-.99-28.96.21-.67.48-1.29.87-1.86,7.15-10.32,21.7-5.84,23.1,6.83.99,9.06,1.98,21.4-5.72,27.35h0Z"/>
      <path class="cls-20" d="M79.02,228.56c-4.83,1.59-8.39,3.84-10.69,6.76-4.25,5.4-7.77,9.19-10.5,11.38-.83-13.7,5.63-21.9,19.38-24.62.74-.14,1.43.39,1.47,1.13l.34,5.36h0Z"/>
      <path class="cls-20" d="M359.66,245.29c-7.29-8.14-14.46-13.38-21.47-15.74l.07-6.16c0-.67.57-1.2,1.24-1.15,13.79.76,20.5,8.44,20.16,23.05h0Z"/>
      <path class="cls-24" d="M79.02,228.56l.05,53.92-21.08-2.28-.16-33.51c2.74-2.18,6.25-5.98,10.5-11.38,2.3-2.92,5.86-5.17,10.69-6.76h0Z"/>
      <path class="cls-24" d="M359.66,245.29l-.37,35.6-21.24.62.14-51.97c7.01,2.37,14.18,7.61,21.47,15.74h0Z"/>
      <path class="cls-26" d="M79.07,282.48l.05,12.32c0,.55-.48.99-1.03.92-10.23-1.03-16.94-6.21-20.09-15.51l21.08,2.28h0Z"/>
      <path class="cls-26" d="M359.29,280.9c-3.52,9.35-10.07,14.2-19.65,14.53-.67.02-1.22-.48-1.24-1.15l-.34-12.76,21.24-.62h0Z"/>
      <path class="cls-23" d="M208.59,300.04c8.34.02,17.15-1.38,26.39-4.18,5.84-1.77,11.24-1.36,16.23,1.26.74.39,1.4.87,1.95,1.47,5.47,5.75,6.23,12.46,2.3,20.13-.41.8-.94,1.54-1.59,2.21-11.54,12.07-28.98,15.91-45.33,15.86-16.36-.02-33.81-3.88-45.3-16-.64-.67-1.17-1.4-1.56-2.21-3.93-7.7-3.13-14.41,2.34-20.13.57-.6,1.24-1.08,1.98-1.47,4.99-2.6,10.39-3.01,16.23-1.22,9.22,2.85,18.02,4.28,26.36,4.28M238.86,324.45c5.36-2.32,9.06-4.96,11.15-7.88,6.85-9.61-.11-18.18-11.22-16.41-.85.14-1.47.87-1.47,1.75v21.54c0,.8.83,1.33,1.54,1.01M180.22,324.04v-21.24c0-.85-.53-1.61-1.33-1.88-9.29-3.26-16.71,4.3-12.43,13.79,1.77,3.88,5.86,7.31,12.32,10.25.67.32,1.45-.18,1.45-.92M232.42,303.7c0-.57-.53-1.03-1.1-.92l-19.05,3.75c-.53.11-.92.57-.92,1.13v21.84c0,1.36,1.24,2.37,2.57,2.11l15.97-3.15c1.47-.28,2.53-1.56,2.53-3.06v-21.7M185.49,303.9v21.86c0,1.72,1.29,3.17,2.99,3.4l15.7,2.07c1.13.14,2.11-.74,2.11-1.86v-22.13c0-.6-.46-1.13-1.06-1.2l-19.31-2.53c-.23-.02-.44.16-.44.39h0Z"/>
      <path class="cls-20" d="M237.32,323.44v-21.54c0-.87.62-1.61,1.47-1.75,11.1-1.77,18.07,6.8,11.22,16.41-2.09,2.92-5.79,5.56-11.15,7.88-.71.32-1.54-.21-1.54-1.01h0Z"/>
      <path class="cls-20" d="M178.78,324.96c-6.46-2.94-10.55-6.37-12.32-10.25-4.28-9.49,3.15-17.05,12.43-13.79.8.28,1.33,1.03,1.33,1.88v21.24c0,.74-.78,1.24-1.45.92h0Z"/>
      <path class="cls-20" d="M232.42,303.7v21.7c0,1.49-1.06,2.78-2.53,3.06l-15.97,3.15c-1.33.25-2.57-.76-2.57-2.11v-21.84c0-.55.39-1.01.92-1.13l19.05-3.75c.57-.11,1.1.34,1.1.92h0Z"/>
      <path class="cls-20" d="M185.49,303.9c0-.23.21-.41.44-.39l19.31,2.53c.6.07,1.06.6,1.06,1.2v22.13c0,1.13-.99,2-2.11,1.86l-15.7-2.07c-1.7-.23-2.99-1.68-2.99-3.4v-21.86h0Z"/>
      <path class="cls-26" d="M332.29,315.05c1.54,21.63-5.36,35.81-20.69,42.54-5.42,2.39-13.45,3.63-24.04,3.72-51.19.46-100.95.46-149.33,0-20.09-.18-33.01.64-44.22-12.2-6.37-7.31-9.22-16.55-8.53-27.7,4.3,8.07,9.4,14.46,15.26,19.19,10.23,8.21,29.17,5.06,41.97,5.29,25.31.48,73.18,1.7,109.38.34,13.61-.51,29.31-.67,47.12-.51,5.54.05,11.45-1.82,17.77-5.56.62-.37,1.15-.83,1.63-1.36,7.06-7.95,11.03-12.69,11.97-14.2.76-1.22,1.33-4.41,1.7-9.56h0Z"/>
      <path class="cls-25" d="M251.11,379.43c0,1.06-.87,1.93-1.93,1.93h-81.32c-1.06,0-1.93-.87-1.93-1.93v-10.39c0-1.06.87-1.93,1.93-1.93h81.32c1.06,0,1.93.87,1.93,1.93v10.39h0Z"/>
      <path class="cls-24" d="M307.14,419.84c-.14.14-.35.28-.64.41-.23.11-.46.16-.71.16l-122.48-.09c-11.1-5.22-22.98-4.94-36.04-5.45-14.71-.6-22.41.57-30.34-9.56,8.62-11.81,20.23-17.86,34.82-18.11,15.88-.3,50.91-.32,105.06-.05,10.43.05,18.3,1.15,23.6,3.29,12.71,5.17,21.63,14.96,26.73,29.4h0Z"/>
      <path class="cls-27" d="M116.92,405.31c7.93,10.14,15.63,8.96,30.34,9.56,13.06.51,24.94.23,36.04,5.45l-73.96-.05,7.58-14.96h0Z"/>
    </g>
  </g>
</svg>