<?xml version="1.0" encoding="UTF-8"?>
<svg id="Camada_1" data-name="Camada 1" xmlns="http://www.w3.org/2000/svg" xmlns:xlink="http://www.w3.org/1999/xlink" viewBox="0 0 422.07 422.07">
  <defs>
    <style>
      .cls-1 {
        stroke: #f1cda4;
      }

      .cls-1, .cls-2, .cls-3, .cls-4, .cls-5, .cls-6, .cls-7, .cls-8, .cls-9, .cls-10, .cls-11, .cls-12, .cls-13, .cls-14, .cls-15, .cls-16, .cls-17, .cls-18, .cls-19, .cls-20, .cls-21, .cls-22, .cls-23, .cls-24, .cls-25, .cls-26, .cls-27, .cls-28, .cls-29, .cls-30, .cls-31, .cls-32, .cls-33, .cls-34, .cls-35, .cls-36, .cls-37, .cls-38, .cls-39, .cls-40, .cls-41, .cls-42, .cls-43, .cls-44, .cls-45, .cls-46, .cls-47, .cls-48, .cls-49, .cls-50, .cls-51, .cls-52, .cls-53, .cls-54 {
        fill: none;
        stroke-miterlimit: 10;
      }

      .cls-2 {
        stroke: #7d7d6d;
      }

      .cls-3 {
        stroke: #978f88;
      }

      .cls-55 {
        fill: #322328;
      }

      .cls-56 {
        fill: #72e294;
      }

      .cls-4 {
        stroke: #90ad94;
      }

      .cls-57 {
        fill: #3db477;
      }

      .cls-58 {
        fill: #77d9ab;
      }

      .cls-5 {
        stroke: #f0a7a4;
      }

      .cls-6 {
        stroke: #7c8058;
      }

      .cls-7 {
        stroke: #7d6441;
      }

      .cls-59 {
        fill: #f5cab2;
      }

      .cls-8 {
        stroke: #6b6c4f;
      }

      .cls-60 {
        fill: #fff;
      }

      .cls-9 {
        stroke: #418563;
      }

      .cls-10 {
        stroke: #f5d3b8;
      }

      .cls-11 {
        stroke: #97988e;
      }

      .cls-12 {
        stroke: #3d6e5c;
      }

      .cls-13 {
        stroke: #21694a;
      }

      .cls-61 {
        fill: #f5dcbd;
      }

      .cls-14 {
        stroke: #9caaaf;
      }

      .cls-62 {
        fill: #fc8ab6;
      }

      .cls-15 {
        stroke: #85aaa5;
      }

      .cls-16 {
        stroke: #2c5744;
      }

      .cls-17 {
        stroke: #245465;
      }

      .cls-63 {
        fill: #fdadb2;
      }

      .cls-18 {
        stroke: #24536d;
      }

      .cls-19 {
        stroke: #ddb192;
      }

      .cls-20 {
        stroke: #38697c;
      }

      .cls-64 {
        fill: #cba782;
      }

      .cls-21 {
        stroke: #53808b;
      }

      .cls-65 {
        fill: #38545e;
      }

      .cls-22 {
        stroke: #1b1047;
      }

      .cls-23 {
        stroke: #1f2a22;
      }

      .cls-24 {
        stroke: #f9bcb2;
      }

      .cls-25 {
        stroke: #205b42;
      }

      .cls-26 {
        stroke: #8b9b73;
      }

      .cls-27 {
        stroke: #1b2122;
      }

      .cls-28 {
        stroke: #7f6555;
      }

      .cls-29 {
        stroke: #68634f;
      }

      .cls-66 {
        fill: #332070;
      }

      .cls-67 {
        fill: #ecd095;
      }

      .cls-68 {
        fill: #f4b0e4;
      }

      .cls-69 {
        fill: #0b301b;
      }

      .cls-30 {
        stroke: #f89dcd;
      }

      .cls-70 {
        fill: #02020d;
      }

      .cls-31 {
        stroke: #0b4333;
      }

      .cls-32 {
        stroke: #80866c;
      }

      .cls-71 {
        fill: #eb8396;
      }

      .cls-33 {
        stroke: #1f2846;
      }

      .cls-72 {
        fill: #f8c574;
      }

      .cls-73 {
        fill: #041e1c;
      }

      .cls-34 {
        stroke: #58cb86;
      }

      .cls-35 {
        stroke: #08271c;
      }

      .cls-36 {
        stroke: #8f7a5f;
      }

      .cls-37 {
        stroke: #947e97;
      }

      .cls-74 {
        fill: #8555a2;
      }

      .cls-75 {
        fill: url(#Gradiente_sem_nome_10);
      }

      .cls-38 {
        stroke: #807d67;
      }

      .cls-39 {
        stroke: #7b5979;
      }

      .cls-40 {
        stroke: #299e68;
      }

      .cls-41 {
        stroke: #7d7467;
      }

      .cls-42 {
        stroke: #787759;
      }

      .cls-43 {
        stroke: #43b577;
      }

      .cls-44 {
        stroke: #1c1f46;
      }

      .cls-45 {
        stroke: #7f4662;
      }

      .cls-46 {
        stroke: #247249;
      }

      .cls-47 {
        stroke: #0c533b;
      }

      .cls-48 {
        stroke: #e0b99a;
      }

      .cls-49 {
        stroke: #8b926e;
      }

      .cls-50 {
        stroke: #bd83c3;
      }

      .cls-51 {
        stroke: #331f79;
      }

      .cls-76 {
        fill: #205a29;
      }

      .cls-52 {
        stroke: #3a7251;
      }

      .cls-77 {
        fill: #c49871;
      }

      .cls-78 {
        fill: #0b554a;
      }

      .cls-53 {
        stroke: #105c3a;
      }

      .cls-54 {
        stroke: #41977b;
      }

      .cls-79 {
        fill: #148859;
      }
    </style>
    <linearGradient id="Gradiente_sem_nome_10" data-name="Gradiente sem nome 10" x1="15.59" y1="49.92" x2="371.99" y2="343.72" gradientUnits="userSpaceOnUse">
      <stop offset="0" stop-color="#331d81"/>
      <stop offset="1" stop-color="#16085e"/>
    </linearGradient>
  </defs>
  <rect class="cls-75" x="-.57" width="423.22" height="422.07"/>
  <g>
    <line class="cls-21" x1="51.57" y1="421.68" x2="55.19" y2="421.43"/>
    <path class="cls-20" d="M55.19,421.43c1.66.43,3.24.49,4.77.2"/>
    <line class="cls-18" x1="59.96" y1="421.64" x2="95.57" y2="422.17"/>
    <path class="cls-51" d="M95.57,422.17l-16.04.16c-.25.02-.45.22-.45.47v.02c-.02.29.25.54.54.51,4.27-.02,9.28-.07,15.08-.18,11.34-.2,24.77,2.21,33.11,3.65,3.92.67,10,1.16,18.23,1.45,24.23.87,41.99.89,53.31.04,12.1-.92,26.67-1.3,43.69-1.19,17.9.13,38.61-1.14,62.15-3.85.04-.02,1.28.11,3.69.36,1.34.13,2.39-.4,3.15-1.63"/>
    <line class="cls-18" x1="312.05" y1="421.99" x2="352.79" y2="422.17"/>
    <line class="cls-20" x1="352.79" y1="422.17" x2="367.35" y2="421.64"/>
    <path class="cls-21" d="M367.35,421.64c.11-.36.31-.58.58-.67"/>
    <path class="cls-22" d="M367.93,420.97c-.29,1.5.43,2.37,2.19,2.57.56.07,1.14-.02,1.68-.27,3.62-1.79,3.04-5.39,3.56-8.84,2.21-14.65,1.1-27.03-3.36-37.14-4.45-10.11-11.34-22.6-20.67-37.43-10.02-15.93-11.77-32.42-7.83-51.12,2.55-12.22,5.03-21.77,5.79-33.54,2.28-34.52-5.57-69.85-27.47-96.89-17.29-21.32-38.88-36.29-64.77-44.86-.92-.31-1.68-.92-2.19-1.72-3.83-6.15-11.01-8.57-21.54-7.25-1.36.16-2.73-.45-3.49-1.61-6.76-10.25-16-14.92-28.21-11.28-5.21,1.54-9.62,5.5-13.22,11.86-.34.6-.98.98-1.66.98h-12.3c-.29,0-.56.04-.83.13-3.98,1.45-7.16,3.8-9.53,7.09-.56.81-1.36,1.41-2.26,1.75-13.94,5.21-25.3,10.69-34.07,16.44-30.36,19.84-49.47,48.06-57.32,84.61-3.67,17.11-3.78,33.87-.34,50.32.78,3.76,2.82,12.53,6.06,26.31,5.08,21.46-3.56,39.6-15.66,58.62-5.84,9.19-10.07,17.09-12.69,23.69-5.44,13.74-6.96,28.52-4.59,44.34.38,2.57,2.3,4.63,4.79,5.08,1.74.34,2.93-.04,3.56-1.14"/>
    <path class="cls-52" d="M367.93,420.97c4.39-19.8,2.06-37.23-6.96-52.26-5.88-9.82-11.75-19.64-17.54-29.51-5.35-9.11-8.59-20.29-9.71-33.6"/>
    <path class="cls-25" d="M333.73,305.59c1.61-11.21,2.91-18.75,3.87-22.6,3.83-15.3,5.66-28.79,5.53-40.45"/>
    <path class="cls-52" d="M343.12,242.55c.47-10.94-1.21-23.2-5.03-36.78-8.01-28.37-23.78-51.14-47.29-68.35-.72-.51-1.72-.09-1.83.78l-1.21,8.66"/>
    <path class="cls-25" d="M287.75,146.86l-7.36,14.79c-.31.65-.4,1.39-.25,2.1.2.98.63,1.81,1.23,2.46,1.52,1.68.56,4.39-1.7,4.85-2.57.54-5.26.43-8.08-.36-13.45-3.74-24.5-7.05-33.16-9.96-.65-.22-1.32.25-1.34.94-.2,7.02-4.45,10.54-12.75,10.51-7.99,0-17.88-.11-29.67-.36-5.95-.13-15.48-3.67-11.52-11.54.25-.47-.2-1.03-.72-.89-11.7,2.71-23.07,6.17-34.1,10.38-2.93,1.12-5.73,1.45-8.41,1.01-2.35-.4-3.58-3.07-2.37-5.21.51-.89.87-1.66,1.12-2.28.27-.67.13-1.43-.31-1.99-3.42-4.18-6.11-9.4-8.05-15.68"/>
    <path class="cls-52" d="M130.32,145.63l-1.68-7.05c-.13-.54-.76-.78-1.23-.49-6.02,3.69-12.08,8.84-18.23,15.44-24.23,26.02-35.73,56.53-34.54,91.5"/>
    <path class="cls-25" d="M74.63,245.03c-.67,5.39-.27,10.92,1.19,16.58,5.17,20.18,8.79,31.97,8.68,49"/>
    <path class="cls-52" d="M84.5,310.6c-1.72,11.48-4.81,20.69-9.31,27.63-16.87,26.11-31.97,48.37-25.03,81.48.16.69.63,1.34,1.41,1.97"/>
    <path class="cls-34" d="M343.12,242.55l-.83,1.01c-.47.58-1.41.2-1.36-.54.29-4.12.07-8.03-.63-11.75-3.09-16.22-9.42-31.9-18.99-47.05-8.01-12.66-22.08-25.55-33.56-37.36M130.32,145.63c-5.3,5.48-10.49,10.87-15.55,16.18-5.88,6.17-10.54,11.99-13.96,17.43-12.37,19.6-21.1,41.52-26.18,65.8M333.73,305.59c-3.96,6.09-4.92,13.67-2.89,22.73,3.24,14.41,7.99,27.16,16.42,40.63,6.35,10.13,10.4,17.96,12.15,23.49,2.62,8.26,4.16,17.14,4.68,26.62.04,1.01.36,1.72.92,2.1.6.43,1.39.58,2.35.47"/>
    <path class="cls-40" d="M352.79,422.17c.54-8.64-.45-16.82-2.95-24.59-3.76-11.72-11.34-18.68-20.54-28.52-7-7.49-12.37-15.59-16.15-24.3-1.45-3.36-2.66-9.08-3.62-17.18-.69-5.84-1.52-11.63-2.51-17.43"/>
    <path class="cls-13" d="M307.01,310.16c2.98-15.28,4.5-30.78,4.52-46.56"/>
    <path class="cls-46" d="M311.53,263.6l-.78-14.39c-.04-.76.89-1.16,1.43-.63l9.64,9.64c.49.49,1.34.16,1.34-.54.09-5.91-5.19-11.59-9.26-14.74-7.09-5.53-12.66-9.75-16.69-12.73-19.08-14.07-31.21-33.58-36.53-56.27-.45-1.88-2.93-2.3-3.96-.69-9.93,15.37-23.89,26.29-41.86,32.71"/>
    <line class="cls-40" x1="214.86" y1="205.97" x2="217.1" y2="196.82"/>
    <path class="cls-34" d="M217.1,196.82c7.36-2.57,13.83-7.11,19.4-13.58.67-.78.13-2.01-.92-2.04-.43-.02-1.07.22-1.92.72-7.47,4.27-14.27,7.29-20.43,9.08-14.99,4.36-30.92,7.34-47.81,8.9"/>
    <path class="cls-40" d="M165.42,199.9c-2.35.45-6.22.45-11.57.02-28.26-2.3-47.74,9.33-58.5,34.9-2.53,6.02-2.28,10.31.76,12.91"/>
    <path class="cls-46" d="M96.11,247.74c-4.5,7.45-6.67,15.97-6.56,25.62,0,.11.07.18.18.2.11,0,.2-.07.22-.16,3.51-12.42,9.31-22.55,17.38-30.45.22-.22.58-.04.56.27-2.42,22.64-1.23,44.88,3.53,66.71"/>
    <path class="cls-40" d="M111.44,309.93c-1.1,7.05-2.24,13.96-3.47,20.76-2.1,11.7-5.64,19.06-11.86,27.97-5.7,8.21-11.77,15.71-18.19,22.53-8.84,9.37-11.34,25.93-11.07,38.53.02.76-.47,1.43-1.19,1.63-1.79.51-3.69.6-5.7.29"/>
    <path class="cls-34" d="M55.19,421.43c-1.97-12.35-.56-24.25,4.23-35.73,3.51-8.43,10.76-17.67,15.24-24.45,10.63-16.09,14.81-33.54,12.55-52.31-.09-.78-.96-1.21-1.63-.78-.67.43-1.03,1.23-1.07,2.44"/>
    <line class="cls-17" x1="312.05" y1="421.99" x2="309.32" y2="421.52"/>
    <line class="cls-35" x1="311.53" y1="263.6" x2="305.85" y2="249.39"/>
    <path class="cls-8" d="M305.85,249.39c-1.92-5.15-6.02-10.11-12.26-14.9-8.23-6.29-12.77-9.89-13.62-10.76-10.83-11.3-18.26-24.74-22.28-40.31-.13-.56-.87-.69-1.21-.22-19.15,25.88-52.91,34.88-83.83,37.05"/>
    <path class="cls-38" d="M172.65,220.24c-21.66,1.23-37.72,4.68-54.36,14.72-1.92,1.16-3.24,3.13-3.58,5.35-4,26.06-3.18,59.33,8.37,83.92"/>
    <path class="cls-6" d="M123.07,324.23c10.27,25.28,30.47,43.49,54.79,55.1"/>
    <path class="cls-23" d="M177.86,379.33c-.07,2.51-.56,4.39-1.5,5.64"/>
    <path class="cls-8" d="M176.36,384.97c-1.14,2.62-1.74,5.17-1.79,7.67"/>
    <line class="cls-38" x1="174.57" y1="392.64" x2="169.54" y2="400.79"/>
    <path class="cls-32" d="M169.54,400.79c-4.3,4.14-8.99,7.05-14.09,8.77-11.84,3.96-22.46,8.03-31.84,12.22"/>
    <line class="cls-33" x1="123.61" y1="421.77" x2="112.62" y2="420.05"/>
    <path class="cls-53" d="M112.62,420.05c3.18-2.53,6.58-4.41,10.2-5.66,12.46-4.36,23.63-8.48,33.45-12.39,7.9-3.11,12.37-8.93,13.4-17.43.16-1.34-.49-2.64-1.68-3.29-27.56-15.28-48.35-40.25-56.56-71.35M96.11,247.74c13.49-16.71,30.54-26.65,51.19-29.76,12.82-1.92,25.64-3.6,38.41-5.06,7.96-.92,17.67-3.22,29.15-6.96"/>
    <path class="cls-17" d="M112.62,420.05c-4.59,2.21-10.27,2.93-17.05,2.13"/>
    <path class="cls-47" d="M307.01,310.16c-2.86,9.91-5.3,16.73-7.34,20.52-11.52,21.63-27.97,38.46-49.33,50.52-1.28.72-1.97,2.17-1.7,3.62,1.72,9.4,6.89,15.53,15.5,18.39,10.13,3.38,20,6.62,29.55,9.78,5.19,1.7,10.4,4.54,15.62,8.55"/>
    <path class="cls-44" d="M309.32,421.52l-.29.6c-.13.27-.38.45-.67.49-4.36.49-8.59.22-12.69-.83"/>
    <path class="cls-2" d="M295.67,421.79c-3.6-2.37-7.29-4.16-11.07-5.35-9.55-3-18.77-6.29-27.67-9.89"/>
    <path class="cls-41" d="M256.92,406.56c-6.64-2.8-10.85-7.52-12.66-14.16"/>
    <line class="cls-29" x1="244.26" y1="392.4" x2="242.76" y2="384.61"/>
    <line class="cls-27" x1="242.76" y1="384.61" x2="244.26" y2="377.72"/>
    <path class="cls-42" d="M244.26,377.72c22.73-12.62,43.76-31.66,52.42-56.49"/>
    <path class="cls-43" d="M217.1,196.82c-17.11,5.62-34.34,6.64-51.68,3.09"/>
    <path class="cls-41" d="M305.29,251.2c1.43,22.93-.31,48.53-8.61,70.03"/>
    <path class="cls-1" d="M296.68,321.23l-5.44,5.39c-.96.96-1.79,2.06-2.48,3.22-4.97,8.55-11.48,16.47-19.51,23.76-3.92,3.56-8.9,6.78-14.99,9.71-22.6,10.9-41.46,24.39-67.05,11.86-12.19-5.97-20.49-10.54-24.88-13.74-8.43-6.13-14.74-10.6-18.93-13.45-4.14-2.77-10.92-10.69-20.34-23.76"/>
    <path class="cls-36" d="M244.26,377.72c-10.76,5.53-19.93,8.84-27.52,9.89-13.83,1.95-26.06-2.3-38.88-8.28"/>
    <path class="cls-29" d="M305.85,249.39c-.2.6-.38,1.21-.56,1.81"/>
    <path class="cls-48" d="M305.29,251.2c-7.94-2.89-14.25-6.73-18.9-11.57-3.56-3.69-11.81-13.13-24.81-28.28-3.83-4.45-6.26-9.82-7.36-16.11-.2-1.1-1.61-1.41-2.26-.51-1.77,2.42-3.92,4.63-6.44,6.64-11.23,8.88-25.17,15.5-41.84,19.82-8.32,2.15-17.61,3.87-27.83,5.15-.85.11-1.3-.98-.63-1.5.65-.51,1.07-1.03,1.28-1.54.29-.78-.02-1.66-.74-2.06-.89-.51-1.92-.85-3.11-1.01"/>
    <path class="cls-28" d="M242.76,384.61c-22.13,11.75-44.25,11.88-66.4.36"/>
    <path class="cls-48" d="M244.26,392.4c-3.62,5.01-7.87,8.5-12.75,10.45-13.67,5.44-27.65,5.75-41.97.92-5.88-1.99-10.87-5.7-14.97-11.12"/>
    <path class="cls-10" d="M256.92,406.56c-3.58,5.39-9.44,8.28-17.58,8.66-27.29,1.28-54.7.96-82.22-.92-.92-.07-1.21-1.25-.45-1.75,4.83-3.09,9.13-7,12.86-11.77"/>
    <line class="cls-37" x1="295.67" y1="421.79" x2="123.61" y2="421.77"/>
    <path class="cls-45" d="M191.71,158.92c-2.33,1.23-3.51,2.55-3.56,4-.02,1.23.89,2.28,2.1,2.42,12.86,1.59,25.93,1.59,39.24-.04,1.3-.16,2.24-1.3,2.15-2.57-.13-1.86-1.23-3.31-3.27-4.34"/>
    <path class="cls-39" d="M228.38,158.38c5.57-6.33,10.76-12.39,15.57-18.21,3.24-3.92,5.53-8.17,6.82-12.77,4.23-14.86-8.17-21.19-20.67-15.44-1.19.54-2.6.07-3.2-1.1-3.33-6.38-7.52-12.53-14.81-13.85-12.3-2.19-15.03,5.64-21.3,14.21-.45.63-1.28.85-1.97.51-.83-.4-3.36-1.01-7.56-1.81-9.8-1.9-17.03,8.14-13.07,17.41,4.7,10.98,12.53,21.5,23.51,31.59"/>
    <path class="cls-30" d="M228.38,158.38c-12.19,2.3-24.41,2.48-36.67.54"/>
    <path class="cls-12" d="M143.38,127.93c-.69.31-.65,1.32.09,1.54l15.39,4.77c2.57.78,4.88-1.81,3.78-4.27-.96-2.19-1.39-5.12-1.28-8.77,0-.58-.58-1.01-1.12-.76l-16.87,7.49M275.34,126.86l-18.17-5.64c-.34-.09-.67.13-.72.47l-1.59,12.08c-.11.89.76,1.59,1.61,1.3l18.9-6.53c.81-.27.78-1.43-.04-1.68"/>
    <path class="cls-7" d="M276.54,165.72l-2.37-.65c-1.01-.29-1.5-1.43-1.03-2.35,4.85-9.44,9.55-16.76,10.69-27.52.16-1.52-1.25-2.73-2.73-2.35-9.15,2.39-16.82,5.57-23.04,9.58-1.23.78-2.15,1.05-2.8.76-.96-.45-1.74-1.07-2.35-1.86-.63-.81-1.83-.83-2.48-.04l-11.01,13.15c-.18.22-.09.58.2.65l31.86,8.86c.56.16,1.07.51,1.43.98,1.36,1.86,2.6,2.33,3.74,1.41.22-.18.16-.56-.11-.63M145.42,164.18l32.71-9.66c.47-.13.65-.69.36-1.07l-10.6-13.49c-.31-.38-.87-.45-1.25-.16l-3.18,2.51c-.85.69-2.06.76-3,.18-6.22-3.87-15.35-9.37-22.93-9.55-2.13-.04-3.78,1.83-3.45,3.92,1.5,9.6,4.74,17.07,9.71,22.37.56.63.83,1.48.74,2.3l-.22,1.7c-.09.63.51,1.14,1.12.96"/>
    <path class="cls-50" d="M195.24,115.27c-.09-.54-.67-.87-1.16-.65l-1.19.56c-.22.09-.36.29-.36.51-.13,11.54,2.13,22.51,6.8,32.86.58,1.32,2.28,1.7,3.38.76l.13-.11c1.28-1.07,1.7-2.84,1.03-4.36-4.36-10.13-7.25-20-8.64-29.58M224.19,115.36c-1.54,9.42-4.54,19.08-9.02,29.02-.67,1.48-.29,3.24.94,4.32l.13.11c1.07.94,2.75.6,3.36-.69,4.77-10.13,7.18-20.92,7.25-32.31,0-.22-.13-.43-.34-.51l-1.16-.56c-.49-.25-1.07.07-1.16.63"/>
    <path class="cls-3" d="M240.26,302.71c8.21,5.62,16.87,7.14,25.97,4.56,16.26-4.59,23.63-15.84,22.06-33.76"/>
    <path class="cls-49" d="M288.29,273.51c1.05-1.79,2.93-3.71,5.59-5.75,2.62-1.97,2.01-6.06-1.05-7.2-.02-.02-1.14.25-3.31.76-1.34.31-2.42-1.1-1.77-2.3,1.68-3.11,3.62-6.44,2.44-8.7-.56-1.05-1.97-1.41-3.24-.83-1.95.92-4,2.06-6.17,3.47-.67.43-1.48.51-2.21.22l-9.51-3.83"/>
    <line class="cls-10" x1="269.05" y1="249.35" x2="262.4" y2="235.95"/>
    <path class="cls-49" d="M262.4,235.95l13.47,4.65c2.95,1.01,5.41-2.46,3.45-4.9-1.45-1.81-3.76-3.42-6.91-4.85"/>
    <path class="cls-10" d="M272.41,230.85c-6.06-8.97-19.91-9.78-28.84-4.65-7.11,4.12-5.1,12.75-5.35,17.54-.16,2.77-1.12,5.46-2.82,7.7-9.22,12.04-14.81,23.87-9.33,39.55,1.77,5.06,6.49,8.97,14.18,11.72"/>
    <path class="cls-26" d="M272.41,230.85c-9.19-3.92-18.41-4.21-27.61-.83-1.68.6-2.75,1.16-3.24,1.68-2.26,2.33-.07,6.17,3.09,5.39,6.06-1.5,11.99-1.88,17.76-1.14M269.05,249.35c-15.48-3.18-27.32,1.12-35.53,12.89"/>
    <path class="cls-11" d="M233.52,262.23c-8.55,13.45-5.88,30.72,6.73,40.47"/>
    <line class="cls-16" x1="288.29" y1="273.51" x2="283.61" y2="274.45"/>
    <path class="cls-4" d="M283.61,274.45c-4.9-23.07-33.07-28.48-46.36-9.11"/>
    <line class="cls-16" x1="237.26" y1="265.34" x2="233.52" y2="262.23"/>
    <path class="cls-14" d="M283.61,274.45c.43,14.25-5.24,23.4-17,27.47-23.8,8.26-40.29-15.48-29.35-36.58"/>
    <path class="cls-49" d="M156.72,228.07c-6.47.67-13.47,2.71-18.39,7.11-1.3,1.16-1.12,3.24.36,4.18.89.56,1.92.65,3.11.22,5.84-2.06,11.1-3.31,15.73-3.78,4.63-.49,10.02-.31,16.18.49,1.23.16,2.24-.13,3-.87,1.25-1.21,1.01-3.27-.51-4.16-5.7-3.31-12.98-3.87-19.46-3.2"/>
    <path class="cls-3" d="M129.45,271.63c-.94,9.87,1.07,18.01,6.04,24.43,15.17,19.6,45.46,14.81,53.07-8.43,3.13-9.6.31-20.18-6.15-27.85"/>
    <path class="cls-49" d="M182.4,259.77c-10.45-13.62-28.37-14.07-42.84-6.87-1.1.54-2.39.49-3.45-.11l-6.04-3.49c-1.03-.6-2.33.18-2.3,1.36.09,2.93,1.03,5.84,2.84,8.73.51.81-.22,1.81-1.14,1.61l-4.38-.98c-1.79-.4-3.33,1.3-2.77,3.04,1.39,4.32,3.76,7.16,7.14,8.57"/>
    <path class="cls-16" d="M182.4,259.77c-.92,1.05-2.1,1.83-3.51,2.35"/>
    <path class="cls-4" d="M178.89,262.12c-12.04-13.71-33.02-11.12-41.68,4.97"/>
    <path class="cls-16" d="M137.21,267.09l-2.35.18c-.51.04-.98.25-1.36.6l-4.05,3.76"/>
    <path class="cls-14" d="M178.89,262.12c6.11,8.03,7.76,16.09,4.94,24.21-11.28,32.42-59.85,14.65-46.62-19.24"/>
    <path class="cls-19" d="M219.09,309.33c-2.42,0-5.68,1.57-8.84,1.63-1.1.02-4.41-.76-9.89-2.35-1.23-.36-2.51.49-2.64,1.77v.09c-.16,1.45.6,2.84,1.92,3.47,8.66,4.14,15.5,3.42,20.54-2.1.87-.96.2-2.51-1.1-2.51"/>
    <path class="cls-24" d="M162.58,319.7c-.02-4.93-6.98-8.92-15.54-8.89-8.56.02-15.49,4.07-15.47,9,.02,4.94,6.98,8.92,15.54,8.89,8.56-.02,15.49-4.07,15.47-9"/>
    <path class="cls-5" d="M255.09,319.75c0,4.7,6.91,8.5,15.46,8.5s15.46-3.8,15.46-8.5-6.91-8.5-15.46-8.5-15.46,3.8-15.46,8.5"/>
    <path class="cls-38" d="M247.35,330.38c-1.23-4.5-3.85-6.35-7.87-5.53-13.71,2.82-26.67,5.44-40.74,3.65"/>
    <path class="cls-10" d="M198.73,328.5c-6.53-5.35-13.98-8.32-22.33-8.97-.98-.09-1.95.34-2.55,1.1-7.96,9.82-7.41,22.28.74,31.77,2.98,3.49,7.83,6.56,14.52,9.17,19.02,7.47,36.02,4.92,50.99-7.65,7-5.88,9.42-13.71,7.25-23.54"/>
    <path class="cls-32" d="M198.73,328.5c-6.47-.87-12.95-2.01-19.44-3.45-2.64-.58-5.39.49-6.98,2.71-1.16,1.61-1.36,3.8-.63,6.56,10.56,39.4,69.15,36.69,75.66-3.94"/>
    <path class="cls-15" d="M178.84,279.17c0-7.7-6.22-13.92-13.92-13.92s-13.92,6.22-13.92,13.92,6.22,13.92,13.92,13.92,13.92-6.22,13.92-13.92M266.86,279.44c0-7.58-6.15-13.74-13.74-13.74s-13.74,6.15-13.74,13.74,6.15,13.74,13.74,13.74,13.74-6.15,13.74-13.74"/>
    <path class="cls-9" d="M188.22,351.01c7.74,5.3,16.6,7.14,26.58,5.5,5.35-.87,10.47-2.91,15.39-6.09"/>
    <path class="cls-31" d="M230.19,350.43c7.9-2.37,12.24-8.77,13.07-19.17.07-.72-.4-1.39-1.12-1.59-2.57-.67-4.94-.65-7.11.09-14.54,4.9-27.16,6.53-41.39,2.95-2.77-.69-7.45-1.86-14.03-3.53-2.04-.51-4.03,1.05-3.98,3.15.16,8.75,4.36,14.97,12.6,18.68"/>
    <path class="cls-54" d="M230.19,350.43c-14.27-8.68-28.26-8.48-41.97.58"/>
    <path class="cls-70" d="M367.93,420.97c4.39-19.8,2.06-37.23-6.96-52.26-5.88-9.82-11.75-19.64-17.54-29.51-5.35-9.11-8.59-20.29-9.71-33.6,1.61-11.21,2.91-18.75,3.87-22.6,3.83-15.3,5.66-28.79,5.53-40.45.47-10.94-1.21-23.2-5.03-36.78-8.01-28.37-23.78-51.14-47.29-68.35-.72-.51-1.72-.09-1.83.78l-1.21,8.66-7.36,14.79c-.31.65-.4,1.39-.25,2.1.2.98.63,1.81,1.23,2.46,1.52,1.68.56,4.39-1.7,4.85-2.57.54-5.26.43-8.08-.36-13.45-3.74-24.5-7.05-33.16-9.96-.65-.22-1.32.25-1.34.94-.2,7.02-4.45,10.54-12.75,10.51-7.99,0-17.88-.11-29.67-.36-5.95-.13-15.48-3.67-11.52-11.54.25-.47-.2-1.03-.72-.89-11.7,2.71-23.07,6.17-34.1,10.38-2.93,1.12-5.73,1.45-8.41,1.01-2.35-.4-3.58-3.07-2.37-5.21.51-.89.87-1.66,1.12-2.28.27-.67.13-1.43-.31-1.99-3.42-4.18-6.11-9.4-8.05-15.68l-1.68-7.05c-.13-.54-.76-.78-1.23-.49-6.02,3.69-12.08,8.84-18.23,15.44-24.23,26.02-35.73,56.53-34.54,91.5-.67,5.39-.27,10.92,1.19,16.58,5.17,20.18,8.79,31.97,8.68,49-1.72,11.48-4.81,20.69-9.31,27.63-16.87,26.11-31.97,48.37-25.03,81.48.16.69.63,1.34,1.41,1.97-.63,1.1-1.81,1.48-3.56,1.14-2.48-.45-4.41-2.51-4.79-5.08-2.37-15.82-.85-30.61,4.59-44.34,2.62-6.6,6.85-14.5,12.69-23.69,12.1-19.02,20.74-37.16,15.66-58.62-3.24-13.78-5.28-22.55-6.06-26.31-3.45-16.44-3.33-33.2.34-50.32,7.85-36.56,26.96-64.77,57.32-84.61,8.77-5.75,20.14-11.23,34.07-16.44.89-.34,1.7-.94,2.26-1.75,2.37-3.29,5.55-5.64,9.53-7.09.27-.09.54-.13.83-.13h12.3c.67,0,1.32-.38,1.66-.98,3.6-6.35,8.01-10.31,13.22-11.86,12.22-3.65,21.46,1.03,28.21,11.28.76,1.16,2.13,1.77,3.49,1.61,10.54-1.32,17.72,1.1,21.54,7.25.51.81,1.28,1.41,2.19,1.72,25.88,8.57,47.47,23.54,64.77,44.86,21.9,27.05,29.76,62.37,27.47,96.89-.76,11.77-3.24,21.32-5.79,33.54-3.94,18.7-2.19,35.19,7.83,51.12,9.33,14.83,16.22,27.32,20.67,37.43,4.45,10.11,5.57,22.48,3.36,37.14-.51,3.45.07,7.05-3.56,8.84-.54.25-1.12.34-1.68.27-1.77-.2-2.48-1.07-2.19-2.57M191.71,158.92c-2.33,1.23-3.51,2.55-3.56,4-.02,1.23.89,2.28,2.1,2.42,12.86,1.59,25.93,1.59,39.24-.04,1.3-.16,2.24-1.3,2.15-2.57-.13-1.86-1.23-3.31-3.27-4.34,5.57-6.33,10.76-12.39,15.57-18.21,3.24-3.92,5.53-8.17,6.82-12.77,4.23-14.86-8.17-21.19-20.67-15.44-1.19.54-2.6.07-3.2-1.1-3.33-6.38-7.52-12.53-14.81-13.85-12.3-2.19-15.03,5.64-21.3,14.21-.45.63-1.28.85-1.97.51-.83-.4-3.36-1.01-7.56-1.81-9.8-1.9-17.03,8.14-13.07,17.41,4.7,10.98,12.53,21.5,23.51,31.59M143.38,127.93c-.69.31-.65,1.32.09,1.54l15.39,4.77c2.57.78,4.88-1.81,3.78-4.27-.96-2.19-1.39-5.12-1.28-8.77,0-.58-.58-1.01-1.12-.76l-16.87,7.49M275.34,126.86l-18.17-5.64c-.34-.09-.67.13-.72.47l-1.59,12.08c-.11.89.76,1.59,1.61,1.3l18.9-6.53c.81-.27.78-1.43-.04-1.68M276.54,165.72l-2.37-.65c-1.01-.29-1.5-1.43-1.03-2.35,4.85-9.44,9.55-16.76,10.69-27.52.16-1.52-1.25-2.73-2.73-2.35-9.15,2.39-16.82,5.57-23.04,9.58-1.23.78-2.15,1.05-2.8.76-.96-.45-1.74-1.07-2.35-1.86-.63-.81-1.83-.83-2.48-.04l-11.01,13.15c-.18.22-.09.58.2.65l31.86,8.86c.56.16,1.07.51,1.43.98,1.36,1.86,2.6,2.33,3.74,1.41.22-.18.16-.56-.11-.63M145.42,164.18l32.71-9.66c.47-.13.65-.69.36-1.07l-10.6-13.49c-.31-.38-.87-.45-1.25-.16l-3.18,2.51c-.85.69-2.06.76-3,.18-6.22-3.87-15.35-9.37-22.93-9.55-2.13-.04-3.78,1.83-3.45,3.92,1.5,9.6,4.74,17.07,9.71,22.37.56.63.83,1.48.74,2.3l-.22,1.7c-.09.63.51,1.14,1.12.96h0Z"/>
    <path class="cls-68" d="M228.38,158.38c-12.19,2.3-24.41,2.48-36.67.54-10.98-10.09-18.82-20.6-23.51-31.59-3.96-9.26,3.27-19.31,13.07-17.41,4.21.81,6.73,1.41,7.56,1.81.69.34,1.52.11,1.97-.51,6.26-8.57,8.99-16.4,21.3-14.21,7.29,1.32,11.48,7.47,14.81,13.85.6,1.16,2.01,1.63,3.2,1.1,12.51-5.75,24.9.58,20.67,15.44-1.3,4.61-3.58,8.86-6.82,12.77-4.81,5.82-10,11.88-15.57,18.21M195.24,115.27c-.09-.54-.67-.87-1.16-.65l-1.19.56c-.22.09-.36.29-.36.51-.13,11.54,2.13,22.51,6.8,32.86.58,1.32,2.28,1.7,3.38.76l.13-.11c1.28-1.07,1.7-2.84,1.03-4.36-4.36-10.13-7.25-20-8.64-29.58M224.19,115.36c-1.54,9.42-4.54,19.08-9.02,29.02-.67,1.48-.29,3.24.94,4.32l.13.11c1.07.94,2.75.6,3.36-.69,4.77-10.13,7.18-20.92,7.25-32.31,0-.22-.13-.43-.34-.51l-1.16-.56c-.49-.25-1.07.07-1.16.63h0Z"/>
    <path class="cls-74" d="M195.24,115.27c1.39,9.58,4.27,19.44,8.64,29.58.67,1.52.25,3.29-1.03,4.36l-.13.11c-1.1.94-2.8.56-3.38-.76-4.68-10.36-6.94-21.32-6.8-32.86,0-.22.13-.43.36-.51l1.19-.56c.49-.22,1.07.11,1.16.65h0Z"/>
    <path class="cls-74" d="M224.19,115.36c.09-.56.67-.87,1.16-.63l1.16.56c.2.09.34.29.34.51-.07,11.39-2.48,22.17-7.25,32.31-.6,1.3-2.28,1.63-3.36.69l-.13-.11c-1.23-1.07-1.61-2.84-.94-4.32,4.47-9.93,7.47-19.6,9.02-29.02h0Z"/>
    <path class="cls-58" d="M143.38,127.93l16.87-7.49c.54-.25,1.12.18,1.12.76-.11,3.65.31,6.58,1.28,8.77,1.1,2.46-1.21,5.06-3.78,4.27l-15.39-4.77c-.74-.22-.78-1.23-.09-1.54h0Z"/>
    <path class="cls-58" d="M275.34,126.86c.83.25.85,1.41.04,1.68l-18.9,6.53c-.85.29-1.72-.4-1.61-1.3l1.59-12.08c.04-.34.38-.56.72-.47l18.17,5.64h0Z"/>
    <path class="cls-72" d="M276.66,166.35c-1.14.92-2.37.45-3.74-1.41-.36-.47-.87-.83-1.43-.98l-31.86-8.86c-.29-.07-.38-.43-.2-.65l11.01-13.15c.65-.78,1.86-.76,2.48.04.6.78,1.39,1.41,2.35,1.86.65.29,1.57.02,2.8-.76,6.22-4,13.89-7.18,23.04-9.58,1.48-.38,2.89.83,2.73,2.35-1.14,10.76-5.84,18.08-10.69,27.52-.47.92.02,2.06,1.03,2.35l2.37.65c.27.07.34.45.11.63h0Z"/>
    <path class="cls-72" d="M144.3,163.21l.22-1.7c.09-.83-.18-1.68-.74-2.3-4.97-5.3-8.21-12.77-9.71-22.37-.34-2.08,1.32-3.96,3.45-3.92,7.58.18,16.71,5.68,22.93,9.55.94.58,2.15.51,3-.18l3.18-2.51c.38-.29.94-.22,1.25.16l10.6,13.49c.29.38.11.94-.36,1.07l-32.71,9.66c-.6.18-1.21-.34-1.12-.96h0Z"/>
    <path class="cls-56" d="M130.32,145.63c-5.3,5.48-10.49,10.87-15.55,16.18-5.88,6.17-10.54,11.99-13.96,17.43-12.37,19.6-21.1,41.52-26.18,65.8-1.19-34.97,10.31-65.48,34.54-91.5,6.15-6.6,12.22-11.75,18.23-15.44.47-.29,1.1-.04,1.23.49l1.68,7.05h0Z"/>
    <path class="cls-56" d="M343.12,242.55l-.83,1.01c-.47.58-1.41.2-1.36-.54.29-4.12.07-8.03-.63-11.75-3.09-16.22-9.42-31.9-18.99-47.05-8.01-12.66-22.08-25.55-33.56-37.36l1.21-8.66c.11-.87,1.12-1.3,1.83-.78,23.51,17.2,39.29,39.98,47.29,68.35,3.83,13.58,5.5,25.84,5.03,36.78h0Z"/>
    <path class="cls-57" d="M287.75,146.86c11.48,11.81,25.55,24.7,33.56,37.36,9.58,15.15,15.91,30.83,18.99,47.05.69,3.71.92,7.63.63,11.75-.04.74.89,1.12,1.36.54l.83-1.01c.13,11.66-1.7,25.15-5.53,40.45-.96,3.85-2.26,11.39-3.87,22.6-3.96,6.09-4.92,13.67-2.89,22.73,3.24,14.41,7.99,27.16,16.42,40.63,6.35,10.13,10.4,17.96,12.15,23.49,2.62,8.26,4.16,17.14,4.68,26.62.04,1.01.36,1.72.92,2.1.6.43,1.39.58,2.35.47l-14.56.54c.54-8.64-.45-16.82-2.95-24.59-3.76-11.72-11.34-18.68-20.54-28.52-7-7.49-12.37-15.59-16.15-24.3-1.45-3.36-2.66-9.08-3.62-17.18-.69-5.84-1.52-11.63-2.51-17.43,2.98-15.28,4.5-30.78,4.52-46.56l-.78-14.39c-.04-.76.89-1.16,1.43-.63l9.64,9.64c.49.49,1.34.16,1.34-.54.09-5.91-5.19-11.59-9.26-14.74-7.09-5.53-12.66-9.75-16.69-12.73-19.08-14.07-31.21-33.58-36.53-56.27-.45-1.88-2.93-2.3-3.96-.69-9.93,15.37-23.89,26.29-41.86,32.71l2.24-9.15c7.36-2.57,13.83-7.11,19.4-13.58.67-.78.13-2.01-.92-2.04-.43-.02-1.07.22-1.92.72-7.47,4.27-14.27,7.29-20.43,9.08-14.99,4.36-30.92,7.34-47.81,8.9-2.35.45-6.22.45-11.57.02-28.26-2.3-47.74,9.33-58.5,34.9-2.53,6.02-2.28,10.31.76,12.91-4.5,7.45-6.67,15.97-6.56,25.62,0,.11.07.18.18.2.11,0,.2-.07.22-.16,3.51-12.42,9.31-22.55,17.38-30.45.22-.22.58-.04.56.27-2.42,22.64-1.23,44.88,3.53,66.71-1.1,7.05-2.24,13.96-3.47,20.76-2.1,11.7-5.64,19.06-11.86,27.97-5.7,8.21-11.77,15.71-18.19,22.53-8.84,9.37-11.34,25.93-11.07,38.53.02.76-.47,1.43-1.19,1.63-1.79.51-3.69.6-5.7.29-1.52.29-3.11.22-4.77-.2-1.97-12.35-.56-24.25,4.23-35.73,3.51-8.43,10.76-17.67,15.24-24.45,10.63-16.09,14.81-33.54,12.55-52.31-.09-.78-.96-1.21-1.63-.78-.67.43-1.03,1.23-1.07,2.44.11-17.03-3.51-28.82-8.68-49-1.45-5.66-1.86-11.19-1.19-16.58,5.08-24.27,13.8-46.2,26.18-65.8,3.42-5.44,8.08-11.25,13.96-17.43,5.06-5.3,10.25-10.69,15.55-16.18,1.95,6.29,4.63,11.5,8.05,15.68.45.56.58,1.32.31,1.99-.25.63-.6,1.39-1.12,2.28-1.21,2.15.02,4.81,2.37,5.21,2.68.45,5.48.11,8.41-1.01,11.03-4.21,22.39-7.67,34.1-10.38.51-.13.96.43.72.89-3.96,7.88,5.57,11.41,11.52,11.54,11.79.25,21.68.36,29.67.36,8.3.02,12.55-3.49,12.75-10.51.02-.69.69-1.16,1.34-.94,8.66,2.91,19.71,6.22,33.16,9.96,2.82.78,5.5.89,8.08.36,2.26-.47,3.22-3.18,1.7-4.85-.6-.65-1.03-1.48-1.23-2.46-.16-.72-.07-1.45.25-2.1l7.36-14.79h0Z"/>
    <path class="cls-62" d="M191.71,158.92c12.26,1.95,24.48,1.77,36.67-.54,2.04,1.03,3.13,2.48,3.27,4.34.09,1.28-.85,2.42-2.15,2.57-13.31,1.63-26.38,1.63-39.24.04-1.21-.13-2.13-1.19-2.1-2.42.04-1.45,1.23-2.77,3.56-4h0Z"/>
    <path class="cls-69" d="M311.53,263.6l-5.68-14.21c-1.92-5.15-6.02-10.11-12.26-14.9-8.23-6.29-12.77-9.89-13.62-10.76-10.83-11.3-18.26-24.74-22.28-40.31-.13-.56-.87-.69-1.21-.22-19.15,25.88-52.91,34.88-83.83,37.05-21.66,1.23-37.72,4.68-54.36,14.72-1.92,1.16-3.24,3.13-3.58,5.35-4,26.06-3.18,59.33,8.37,83.92,10.27,25.28,30.47,43.49,54.79,55.1-.07,2.51-.56,4.39-1.5,5.64-1.14,2.62-1.74,5.17-1.79,7.67l-5.03,8.14c-4.3,4.14-8.99,7.05-14.09,8.77-11.84,3.96-22.46,8.03-31.84,12.22l-10.98-1.72c3.18-2.53,6.58-4.41,10.2-5.66,12.46-4.36,23.63-8.48,33.45-12.39,7.9-3.11,12.37-8.93,13.4-17.43.16-1.34-.49-2.64-1.68-3.29-27.56-15.28-48.35-40.25-56.56-71.35-4.77-21.84-5.95-44.07-3.53-66.71.02-.31-.34-.49-.56-.27-8.08,7.9-13.87,18.03-17.38,30.45-.02.09-.11.16-.22.16-.11-.02-.18-.09-.18-.2-.11-9.64,2.06-18.17,6.56-25.62,13.49-16.71,30.54-26.65,51.19-29.76,12.82-1.92,25.64-3.6,38.41-5.06,7.96-.92,17.67-3.22,29.15-6.96,17.96-6.42,31.93-17.34,41.86-32.71,1.03-1.61,3.51-1.19,3.96.69,5.32,22.69,17.45,42.19,36.53,56.27,4.03,2.98,9.6,7.2,16.69,12.73,4.07,3.15,9.35,8.84,9.26,14.74,0,.69-.85,1.03-1.34.54l-9.64-9.64c-.54-.54-1.48-.13-1.43.63l.78,14.39h0Z"/>
    <path class="cls-56" d="M217.1,196.82c-17.11,5.62-34.34,6.64-51.68,3.09,16.89-1.57,32.82-4.54,47.81-8.9,6.15-1.79,12.95-4.81,20.43-9.08.85-.49,1.5-.74,1.92-.72,1.05.02,1.59,1.25.92,2.04-5.57,6.47-12.04,11.01-19.4,13.58h0Z"/>
    <path class="cls-64" d="M305.85,249.39c-.2.6-.38,1.21-.56,1.81-7.94-2.89-14.25-6.73-18.9-11.57-3.56-3.69-11.81-13.13-24.81-28.28-3.83-4.45-6.26-9.82-7.36-16.11-.2-1.1-1.61-1.41-2.26-.51-1.77,2.42-3.92,4.63-6.44,6.64-11.23,8.88-25.17,15.5-41.84,19.82-8.32,2.15-17.61,3.87-27.83,5.15-.85.11-1.3-.98-.63-1.5.65-.51,1.07-1.03,1.28-1.54.29-.78-.02-1.66-.74-2.06-.89-.51-1.92-.85-3.11-1.01,30.92-2.17,64.68-11.16,83.83-37.05.34-.47,1.07-.34,1.21.22,4.03,15.57,11.45,29.02,22.28,40.31.85.87,5.39,4.47,13.62,10.76,6.24,4.79,10.34,9.75,12.26,14.9h0Z"/>
    <path class="cls-59" d="M305.29,251.2c1.43,22.93-.31,48.53-8.61,70.03l-5.44,5.39c-.96.96-1.79,2.06-2.48,3.22-4.97,8.55-11.48,16.47-19.51,23.76-3.92,3.56-8.9,6.78-14.99,9.71-22.6,10.9-41.46,24.39-67.05,11.86-12.19-5.97-20.49-10.54-24.88-13.74-8.43-6.13-14.74-10.6-18.93-13.45-4.14-2.77-10.92-10.69-20.34-23.76-11.54-24.59-12.37-57.85-8.37-83.92.34-2.21,1.66-4.18,3.58-5.35,16.64-10.04,32.71-13.49,54.36-14.72,1.19.16,2.21.49,3.11,1.01.72.4,1.03,1.28.74,2.06-.2.51-.63,1.03-1.28,1.54-.67.51-.22,1.61.63,1.5,10.22-1.28,19.51-3,27.83-5.15,16.67-4.32,30.61-10.94,41.84-19.82,2.53-2.01,4.68-4.23,6.44-6.64.65-.89,2.06-.58,2.26.51,1.1,6.29,3.53,11.66,7.36,16.11,13,15.15,21.25,24.59,24.81,28.28,4.65,4.83,10.96,8.68,18.9,11.57M240.26,302.71c8.21,5.62,16.87,7.14,25.97,4.56,16.26-4.59,23.63-15.84,22.06-33.76,1.05-1.79,2.93-3.71,5.59-5.75,2.62-1.97,2.01-6.06-1.05-7.2-.02-.02-1.14.25-3.31.76-1.34.31-2.42-1.1-1.77-2.3,1.68-3.11,3.62-6.44,2.44-8.7-.56-1.05-1.97-1.41-3.24-.83-1.95.92-4,2.06-6.17,3.47-.67.43-1.48.51-2.21.22l-9.51-3.83-6.64-13.4,13.47,4.65c2.95,1.01,5.41-2.46,3.45-4.9-1.45-1.81-3.76-3.42-6.91-4.85-6.06-8.97-19.91-9.78-28.84-4.65-7.11,4.12-5.1,12.75-5.35,17.54-.16,2.77-1.12,5.46-2.82,7.7-9.22,12.04-14.81,23.87-9.33,39.55,1.77,5.06,6.49,8.97,14.18,11.72M156.72,228.07c-6.47.67-13.47,2.71-18.39,7.11-1.3,1.16-1.12,3.24.36,4.18.89.56,1.92.65,3.11.22,5.84-2.06,11.1-3.31,15.73-3.78,4.63-.49,10.02-.31,16.18.49,1.23.16,2.24-.13,3-.87,1.25-1.21,1.01-3.27-.51-4.16-5.7-3.31-12.98-3.87-19.46-3.2M129.45,271.63c-.94,9.87,1.07,18.01,6.04,24.43,15.17,19.6,45.46,14.81,53.07-8.43,3.13-9.6.31-20.18-6.15-27.85-10.45-13.62-28.37-14.07-42.84-6.87-1.1.54-2.39.49-3.45-.11l-6.04-3.49c-1.03-.6-2.33.18-2.3,1.36.09,2.93,1.03,5.84,2.84,8.73.51.81-.22,1.81-1.14,1.61l-4.38-.98c-1.79-.4-3.33,1.3-2.77,3.04,1.39,4.32,3.76,7.16,7.14,8.57M219.09,309.33c-2.42,0-5.68,1.57-8.84,1.63-1.1.02-4.41-.76-9.89-2.35-1.23-.36-2.51.49-2.64,1.77v.09c-.16,1.45.6,2.84,1.92,3.47,8.66,4.14,15.5,3.42,20.54-2.1.87-.96.2-2.51-1.1-2.51M162.58,319.7c-.02-4.93-6.98-8.92-15.54-8.89-8.56.02-15.49,4.07-15.47,9,.02,4.94,6.98,8.92,15.54,8.89,8.56-.02,15.49-4.07,15.47-9M255.09,319.75c0,4.7,6.91,8.5,15.46,8.5s15.46-3.8,15.46-8.5-6.91-8.5-15.46-8.5-15.46,3.8-15.46,8.5M247.35,330.38c-1.23-4.5-3.85-6.35-7.87-5.53-13.71,2.82-26.67,5.44-40.74,3.65-6.53-5.35-13.98-8.32-22.33-8.97-.98-.09-1.95.34-2.55,1.1-7.96,9.82-7.41,22.28.74,31.77,2.98,3.49,7.83,6.56,14.52,9.17,19.02,7.47,36.02,4.92,50.99-7.65,7-5.88,9.42-13.71,7.25-23.54h0Z"/>
    <path class="cls-79" d="M217.1,196.82l-2.24,9.15c-11.48,3.74-21.19,6.04-29.15,6.96-12.77,1.45-25.59,3.13-38.41,5.06-20.65,3.11-37.7,13.04-51.19,29.76-3.04-2.6-3.29-6.89-.76-12.91,10.76-25.57,30.25-37.21,58.5-34.9,5.35.43,9.22.43,11.57-.02,17.34,3.56,34.57,2.53,51.68-3.09h0Z"/>
    <path class="cls-61" d="M272.41,230.85c-9.19-3.92-18.41-4.21-27.61-.83-1.68.6-2.75,1.16-3.24,1.68-2.26,2.33-.07,6.17,3.09,5.39,6.06-1.5,11.99-1.88,17.76-1.14l6.64,13.4c-15.48-3.18-27.32,1.12-35.53,12.89-8.55,13.45-5.88,30.72,6.73,40.47-7.7-2.75-12.42-6.67-14.18-11.72-5.48-15.68.11-27.52,9.33-39.55,1.7-2.24,2.66-4.92,2.82-7.7.25-4.79-1.77-13.42,5.35-17.54,8.93-5.12,22.78-4.32,28.84,4.65h0Z"/>
    <path class="cls-76" d="M157.52,235.81c-4.63.47-9.89,1.72-15.73,3.78-1.19.43-2.21.34-3.11-.22-1.48-.94-1.66-3.02-.36-4.18,4.92-4.41,11.92-6.44,18.39-7.11,6.49-.67,13.76-.11,19.46,3.2,1.52.89,1.77,2.95.51,4.16-.76.74-1.77,1.03-3,.87-6.15-.81-11.54-.98-16.18-.49h0Z"/>
    <path class="cls-76" d="M272.41,230.85c3.15,1.43,5.46,3.04,6.91,4.85,1.97,2.44-.49,5.91-3.45,4.9l-13.47-4.65c-5.77-.74-11.7-.36-17.76,1.14-3.15.78-5.35-3.06-3.09-5.39.49-.51,1.57-1.07,3.24-1.68,9.19-3.38,18.41-3.09,27.61.83h0Z"/>
    <path class="cls-76" d="M182.4,259.77c-.92,1.05-2.1,1.83-3.51,2.35-12.04-13.71-33.02-11.12-41.68,4.97l-2.35.18c-.51.04-.98.25-1.36.6l-4.05,3.76c-3.38-1.41-5.75-4.25-7.14-8.57-.56-1.75.98-3.45,2.77-3.04l4.38.98c.92.2,1.66-.81,1.14-1.61-1.81-2.89-2.75-5.79-2.84-8.73-.02-1.19,1.28-1.97,2.3-1.36l6.04,3.49c1.05.6,2.35.65,3.45.11,14.47-7.2,32.4-6.76,42.84,6.87h0Z"/>
    <path class="cls-76" d="M269.05,249.35l9.51,3.83c.74.29,1.54.2,2.21-.22,2.17-1.41,4.23-2.55,6.17-3.47,1.28-.58,2.68-.22,3.24.83,1.19,2.26-.76,5.59-2.44,8.7-.65,1.21.43,2.62,1.77,2.3,2.17-.51,3.29-.78,3.31-.76,3.06,1.14,3.67,5.24,1.05,7.2-2.66,2.04-4.54,3.96-5.59,5.75l-4.68.94c-4.9-23.07-33.07-28.48-46.36-9.11l-3.74-3.11c8.21-11.77,20.05-16.06,35.53-12.89h0Z"/>
    <path class="cls-73" d="M311.53,263.6c-.02,15.77-1.54,31.28-4.52,46.56-2.86,9.91-5.3,16.73-7.34,20.52-11.52,21.63-27.97,38.46-49.33,50.52-1.28.72-1.97,2.17-1.7,3.62,1.72,9.4,6.89,15.53,15.5,18.39,10.13,3.38,20,6.62,29.55,9.78,5.19,1.7,10.4,4.54,15.62,8.55l-.29.6c-.13.27-.38.45-.67.49-4.36.49-8.59.22-12.69-.83-3.6-2.37-7.29-4.16-11.07-5.35-9.55-3-18.77-6.29-27.67-9.89-6.64-2.8-10.85-7.52-12.66-14.16l-1.5-7.79,1.5-6.89c22.73-12.62,43.76-31.66,52.42-56.49,8.3-21.5,10.04-47.09,8.61-70.03.18-.6.36-1.21.56-1.81l5.68,14.21h0Z"/>
    <path class="cls-60" d="M178.89,262.12c6.11,8.03,7.76,16.09,4.94,24.21-11.28,32.42-59.85,14.65-46.62-19.24,8.66-16.09,29.64-18.68,41.68-4.97M178.84,279.17c0-7.7-6.22-13.92-13.92-13.92s-13.92,6.22-13.92,13.92,6.22,13.92,13.92,13.92,13.92-6.22,13.92-13.92h0Z"/>
    <path class="cls-60" d="M283.61,274.45c.43,14.25-5.24,23.4-17,27.47-23.8,8.26-40.29-15.48-29.35-36.58,13.29-19.37,41.46-13.96,46.36,9.11M266.86,279.44c0-7.58-6.15-13.74-13.74-13.74s-13.74,6.15-13.74,13.74,6.15,13.74,13.74,13.74,13.74-6.15,13.74-13.74h0Z"/>
    <path class="cls-65" d="M129.45,271.63l4.05-3.76c.38-.36.85-.56,1.36-.6l2.35-.18c-13.22,33.89,35.35,51.66,46.62,19.24,2.82-8.12,1.16-16.18-4.94-24.21,1.41-.51,2.6-1.3,3.51-2.35,6.47,7.67,9.28,18.26,6.15,27.85-7.61,23.24-37.9,28.03-53.07,8.43-4.97-6.42-6.98-14.56-6.04-24.43h0Z"/>
    <path class="cls-65" d="M233.52,262.23l3.74,3.11c-10.94,21.1,5.55,44.83,29.35,36.58,11.77-4.07,17.43-13.22,17-27.47l4.68-.94c1.57,17.92-5.79,29.17-22.06,33.76-9.11,2.57-17.76,1.05-25.97-4.56-12.62-9.75-15.28-27.03-6.73-40.47h0Z"/>
    <path class="cls-78" d="M178.84,279.17c0,7.7-6.22,13.92-13.92,13.92s-13.92-6.22-13.92-13.92,6.22-13.92,13.92-13.92,13.92,6.22,13.92,13.92h0Z"/>
    <path class="cls-78" d="M266.86,279.44c0,7.58-6.15,13.74-13.74,13.74s-13.74-6.15-13.74-13.74,6.15-13.74,13.74-13.74,13.74,6.15,13.74,13.74h0Z"/>
    <path class="cls-56" d="M333.73,305.59c1.12,13.31,4.36,24.5,9.71,33.6,5.79,9.87,11.66,19.69,17.54,29.51,9.02,15.03,11.34,32.46,6.96,52.26-.27.09-.47.31-.58.67-.96.11-1.75-.04-2.35-.47-.56-.38-.87-1.1-.92-2.1-.51-9.49-2.06-18.37-4.68-26.62-1.75-5.53-5.79-13.36-12.15-23.49-8.43-13.47-13.18-26.22-16.42-40.63-2.04-9.06-1.07-16.64,2.89-22.73h0Z"/>
    <path class="cls-56" d="M55.19,421.43l-3.62.25c-.78-.63-1.25-1.28-1.41-1.97-6.94-33.11,8.17-55.37,25.03-81.48,4.5-6.94,7.58-16.15,9.31-27.63.04-1.21.4-2.01,1.07-2.44.67-.43,1.54,0,1.63.78,2.26,18.77-1.92,36.22-12.55,52.31-4.47,6.78-11.72,16.02-15.24,24.45-4.79,11.48-6.2,23.38-4.23,35.73h0Z"/>
    <path class="cls-77" d="M219.09,309.33c1.3,0,1.97,1.54,1.1,2.51-5.03,5.53-11.88,6.24-20.54,2.1-1.32-.63-2.08-2.01-1.92-3.47v-.09c.13-1.28,1.41-2.13,2.64-1.77,5.48,1.59,8.79,2.37,9.89,2.35,3.15-.07,6.42-1.63,8.84-1.63h0Z"/>
    <path class="cls-79" d="M112.62,420.05c-4.59,2.21-10.27,2.93-17.05,2.13l-35.62-.54c2.01.31,3.92.22,5.7-.29.72-.2,1.21-.87,1.19-1.63-.27-12.6,2.24-29.15,11.07-38.53,6.42-6.82,12.48-14.32,18.19-22.53,6.22-8.9,9.75-16.26,11.86-27.97,1.23-6.8,2.37-13.71,3.47-20.76,8.21,31.1,28.99,56.06,56.56,71.35,1.19.65,1.83,1.95,1.68,3.29-1.03,8.5-5.5,14.32-13.4,17.43-9.82,3.92-20.99,8.03-33.45,12.39-3.62,1.25-7.02,3.13-10.2,5.66h0Z"/>
    <path class="cls-79" d="M307.01,310.16c.98,5.79,1.81,11.59,2.51,17.43.96,8.1,2.17,13.83,3.62,17.18,3.78,8.7,9.15,16.8,16.15,24.3,9.2,9.84,16.78,16.8,20.54,28.52,2.51,7.76,3.49,15.95,2.95,24.59l-40.74-.18-2.73-.47c-5.21-4-10.43-6.85-15.62-8.55-9.55-3.15-19.42-6.4-29.55-9.78-8.61-2.86-13.78-8.99-15.5-18.39-.27-1.45.43-2.91,1.7-3.62,21.37-12.06,37.81-28.88,49.33-50.52,2.04-3.78,4.47-10.6,7.34-20.52h0Z"/>
    <path class="cls-63" d="M162.58,319.7c.02,4.93-6.91,8.98-15.47,9-8.56.02-15.51-3.96-15.54-8.89-.02-4.93,6.91-8.98,15.47-9,8.56-.02,15.51,3.96,15.54,8.89h0Z"/>
    <path class="cls-71" d="M255.09,319.75c0-4.7,6.91-8.5,15.46-8.5s15.46,3.8,15.46,8.5-6.91,8.5-15.46,8.5-15.46-3.8-15.46-8.5h0Z"/>
    <path class="cls-61" d="M198.73,328.5c-6.47-.87-12.95-2.01-19.44-3.45-2.64-.58-5.39.49-6.98,2.71-1.16,1.61-1.36,3.8-.63,6.56,10.56,39.4,69.15,36.69,75.66-3.94,2.17,9.82-.25,17.65-7.25,23.54-14.97,12.57-31.97,15.12-50.99,7.65-6.69-2.62-11.54-5.68-14.52-9.17-8.14-9.49-8.7-21.95-.74-31.77.6-.76,1.57-1.19,2.55-1.1,8.34.65,15.79,3.62,22.33,8.97h0Z"/>
    <path class="cls-67" d="M296.68,321.23c-8.66,24.83-29.69,43.87-52.42,56.49-10.76,5.53-19.93,8.84-27.52,9.89-13.83,1.95-26.06-2.3-38.88-8.28-24.32-11.61-44.52-29.82-54.79-55.1,9.42,13.07,16.2,20.99,20.34,23.76,4.18,2.84,10.49,7.32,18.93,13.45,4.39,3.2,12.69,7.76,24.88,13.74,25.59,12.53,44.45-.96,67.05-11.86,6.09-2.93,11.07-6.15,14.99-9.71,8.03-7.29,14.54-15.21,19.51-23.76.69-1.16,1.52-2.26,2.48-3.22l5.44-5.39h0Z"/>
    <path class="cls-69" d="M247.35,330.38c-6.51,40.63-65.1,43.34-75.66,3.94-.74-2.75-.54-4.94.63-6.56,1.59-2.21,4.34-3.29,6.98-2.71,6.49,1.43,12.98,2.57,19.44,3.45,14.07,1.79,27.03-.83,40.74-3.65,4.03-.83,6.64,1.03,7.87,5.53M188.22,351.01c7.74,5.3,16.6,7.14,26.58,5.5,5.35-.87,10.47-2.91,15.39-6.09,7.9-2.37,12.24-8.77,13.07-19.17.07-.72-.4-1.39-1.12-1.59-2.57-.67-4.94-.65-7.11.09-14.54,4.9-27.16,6.53-41.39,2.95-2.77-.69-7.45-1.86-14.03-3.53-2.04-.51-4.03,1.05-3.98,3.15.16,8.75,4.36,14.97,12.6,18.68h0Z"/>
    <path class="cls-78" d="M230.19,350.43c-14.27-8.68-28.26-8.48-41.97.58-8.23-3.71-12.44-9.93-12.6-18.68-.04-2.1,1.95-3.67,3.98-3.15,6.58,1.68,11.25,2.84,14.03,3.53,14.23,3.58,26.85,1.95,41.39-2.95,2.17-.74,4.54-.76,7.11-.09.72.2,1.19.87,1.12,1.59-.83,10.4-5.17,16.8-13.07,19.17h0Z"/>
    <path class="cls-58" d="M230.19,350.43c-4.92,3.18-10.05,5.21-15.39,6.09-9.98,1.63-18.84-.2-26.58-5.5,13.71-9.06,27.7-9.26,41.97-.58h0Z"/>
    <path class="cls-55" d="M244.26,377.72l-1.5,6.89c-22.13,11.75-44.25,11.88-66.4.36.94-1.25,1.43-3.13,1.5-5.64,12.82,5.97,25.06,10.22,38.88,8.28,7.58-1.05,16.76-4.36,27.52-9.89h0Z"/>
    <path class="cls-64" d="M176.36,384.97c22.15,11.52,44.27,11.39,66.4-.36l1.5,7.79c-3.62,5.01-7.87,8.5-12.75,10.45-13.67,5.44-27.65,5.75-41.97.92-5.88-1.99-10.87-5.7-14.97-11.12.04-2.51.65-5.06,1.79-7.67h0Z"/>
    <path class="cls-59" d="M244.26,392.4c1.81,6.64,6.02,11.37,12.66,14.16-3.58,5.39-9.44,8.28-17.58,8.66-27.29,1.28-54.7.96-82.22-.92-.92-.07-1.21-1.25-.45-1.75,4.83-3.09,9.13-7,12.86-11.77l5.03-8.14c4.09,5.41,9.08,9.13,14.97,11.12,14.32,4.83,28.3,4.52,41.97-.92,4.88-1.95,9.13-5.44,12.75-10.45h0Z"/>
    <path class="cls-61" d="M169.54,400.79c-3.74,4.77-8.03,8.68-12.86,11.77-.76.49-.47,1.68.45,1.75,27.52,1.88,54.92,2.19,82.22.92,8.14-.38,14-3.27,17.58-8.66,8.9,3.6,18.12,6.89,27.67,9.89,3.78,1.19,7.47,2.98,11.07,5.35l-172.07-.02c9.37-4.18,20-8.26,31.84-12.22,5.1-1.72,9.8-4.63,14.09-8.77h0Z"/>
    <path class="cls-66" d="M112.62,420.05l10.98,1.72,172.07.02c4.09,1.05,8.32,1.32,12.69.83.29-.04.54-.22.67-.49l.29-.6,2.73.47c-.76,1.23-1.81,1.77-3.15,1.63-2.42-.25-3.65-.38-3.69-.36-23.54,2.71-44.25,3.98-62.15,3.85-17.03-.11-31.59.27-43.69,1.19-11.32.85-29.08.83-53.31-.04-8.23-.29-14.32-.78-18.23-1.45-8.34-1.43-21.77-3.85-33.11-3.65-5.79.11-10.81.16-15.08.18-.29.02-.56-.22-.54-.51v-.02c0-.25.2-.45.45-.47l16.04-.16c6.78.81,12.46.09,17.05-2.13h0Z"/>
  </g>
</svg>