<?xml version="1.0" encoding="UTF-8"?>
<svg id="Camada_1" data-name="Camada 1" xmlns="http://www.w3.org/2000/svg" xmlns:xlink="http://www.w3.org/1999/xlink" viewBox="0 0 422.07 422.07">
  <defs>
    <style>
      .cls-1 {
        stroke: #594d82;
      }

      .cls-1, .cls-2, .cls-3, .cls-4, .cls-5, .cls-6, .cls-7, .cls-8, .cls-9, .cls-10, .cls-11, .cls-12, .cls-13, .cls-14, .cls-15, .cls-16, .cls-17, .cls-18, .cls-19, .cls-20, .cls-21, .cls-22, .cls-23, .cls-24, .cls-25, .cls-26, .cls-27, .cls-28, .cls-29, .cls-30, .cls-31, .cls-32, .cls-33, .cls-34, .cls-35 {
        fill: none;
        stroke-miterlimit: 10;
      }

      .cls-2 {
        stroke: #d59ea7;
      }

      .cls-36 {
        fill: #322328;
      }

      .cls-3 {
        stroke: #70686c;
      }

      .cls-4 {
        stroke: #7a7b7d;
      }

      .cls-37 {
        fill: #cdd2d4;
      }

      .cls-5 {
        stroke: #9f9b9e;
      }

      .cls-38 {
        fill: #45494b;
      }

      .cls-6 {
        stroke: #8e8a94;
      }

      .cls-7 {
        stroke: #774352;
      }

      .cls-39 {
        fill: #69737c;
      }

      .cls-8 {
        stroke: #bebfc2;
      }

      .cls-40 {
        fill: #fff;
      }

      .cls-9 {
        stroke: #605e63;
      }

      .cls-10 {
        stroke: #d6adb1;
      }

      .cls-11 {
        stroke: #868390;
      }

      .cls-12 {
        stroke: #c6c6c6;
      }

      .cls-13 {
        stroke: #473e49;
      }

      .cls-41 {
        fill: #402630;
      }

      .cls-42 {
        fill: #5e5a70;
      }

      .cls-43 {
        fill: #fdadb2;
      }

      .cls-14 {
        stroke: #595056;
      }

      .cls-15 {
        stroke: #363b45;
      }

      .cls-16 {
        stroke: #9696a2;
      }

      .cls-17 {
        stroke: #7f7074;
      }

      .cls-18 {
        stroke: #8c9096;
      }

      .cls-19 {
        stroke: #1b113f;
      }

      .cls-20 {
        stroke: #1b1047;
      }

      .cls-21 {
        stroke: #999194;
      }

      .cls-22 {
        stroke: #686a71;
      }

      .cls-23 {
        stroke: #716598;
      }

      .cls-44 {
        fill: #332070;
      }

      .cls-45 {
        fill: #beb9b8;
      }

      .cls-46 {
        fill: #02020d;
      }

      .cls-47 {
        fill: #7f7c83;
      }

      .cls-48 {
        fill: #eb8396;
      }

      .cls-49 {
        fill: #0f000f;
      }

      .cls-24 {
        stroke: #786e70;
      }

      .cls-50 {
        fill: url(#Gradiente_sem_nome_10);
      }

      .cls-25 {
        stroke: #b6b3b4;
      }

      .cls-51 {
        fill: #aeacaf;
      }

      .cls-26 {
        stroke: #9f6a71;
      }

      .cls-27 {
        stroke: #413f48;
      }

      .cls-28 {
        stroke: #776970;
      }

      .cls-29 {
        stroke: #a09398;
      }

      .cls-30 {
        stroke: #965563;
      }

      .cls-31 {
        stroke: #979499;
      }

      .cls-52 {
        fill: #3a3d4b;
      }

      .cls-32 {
        stroke: #805860;
      }

      .cls-33 {
        stroke: #58575e;
      }

      .cls-34 {
        stroke: #331f79;
      }

      .cls-35 {
        stroke: #74757d;
      }
    </style>
    <linearGradient id="Gradiente_sem_nome_10" data-name="Gradiente sem nome 10" x1="15.59" y1="49.92" x2="371.99" y2="343.72" gradientUnits="userSpaceOnUse">
      <stop offset="0" stop-color="#331d81"/>
      <stop offset="1" stop-color="#16085e"/>
    </linearGradient>
  </defs>
  <rect class="cls-50" x="-.57" width="423.22" height="422.07"/>
  <g>
    <path class="cls-34" d="M78.87,120.91c-1.03,8.5-.02,14.99,2.96,19.48,7.93,11.9,18.3,22.7,15.82,34.66-2.16,10.3-4.97,19.35-5.77,29.6-.93,12.06-1.37,18.62-3.37,29.21-4.56,23.95-10.85,46.37-14.49,70.96-6.45,43.64-10.69,73.47-12.67,89.45-1.14,9.14.48,18.05,4.85,26.73"/>
    <path class="cls-20" d="M66.19,421.02c2.89,1.64,5.04,1.37,6.43-.84"/>
    <path class="cls-23" d="M72.62,420.17c-.25.73.3,1.09,1.62,1.09,41.86-.25,84.25-.39,127.21-.36"/>
    <line class="cls-1" x1="201.44" y1="420.9" x2="238.41" y2="420.93"/>
    <path class="cls-23" d="M238.41,420.93l114.69-.07c.21,0,.41-.07.59-.21.34-.25.64-.59.89-1"/>
    <path class="cls-20" d="M354.58,419.65c.77,1.75,2.32,2.48,4.63,2.14,1.12-.16,1.94-1.16,1.87-2.28-1.94-33.75-5.65-67.91-11.12-102.5-1.6-10.07-7.04-35.64-16.36-76.73-1.66-7.34-1.87-12.51-2.01-19.55-.41-19.69-7.43-40.79-17.21-57.5-.66-1.12-.21-2.58,1-3.1,17.87-7.82,28.78-20.9,32.77-39.22,2.14-9.87-2.03-26.98-12.58-31.88-15.36-7.13-34.09,11.92-41.82,23.72-2.85,4.38-5.56,9.23-8.14,14.56-.62,1.25-2.16,1.75-3.4,1.07-42.34-23.43-94.66-23.29-137-.16-1.57.87-3.53.18-4.24-1.46-6.36-14.9-15.79-26.41-28.28-34.5-23.47-15.22-36.42,8.64-33.84,28.65"/>
    <path class="cls-33" d="M354.58,419.65c-3.56-42.14-6.29-69-8.2-80.56-4.83-29.19-10.44-58.09-16.84-86.71-.11-.57-.93-.57-1.07,0l-3.24,14.04"/>
    <path class="cls-27" d="M325.23,266.42c-7.09,16.43-16.91,29.42-29.49,38.99-5.77,4.38-12.76,9.53-21.01,15.45-17.8,12.76-23.29,29.15-26.14,51.11-1.44,11.03-2.96,18.07-4.53,21.13-4.22,8.09-11.28,12.97-21.22,14.63-20.35,3.44-39.74-2.85-42.68-25.91-3.12-24.61-5.99-44.51-26.71-60.34-3.49-2.67-9.37-6.86-17.68-12.58-16.02-11.05-27.69-26.39-35-46.06"/>
    <path class="cls-33" d="M100.76,262.84l-2.07-10.3c-.11-.55-.91-.55-1.03,0-8.75,39.13-16.93,80.69-20.49,118.57-1.53,16.36-3.03,32.72-4.56,49.06"/>
    <path class="cls-19" d="M66.19,421.02c.39-3.71.71-7.47.96-11.23,1.46-23.13,3.56-45.35,6.29-66.66,4.53-35.37,13.04-71.72,21.03-106.72.62-2.64.91-5.33.89-8.04-.11-22.95,5.74-44.8,17.59-65.54.41-.73.14-1.66-.62-2.05-17.57-9.18-29.24-19.83-33.48-39.86"/>
    <path class="cls-31" d="M238.41,420.93l-5.7-.16c-1-.02-1.23-1.44-.27-1.78,7.93-2.89,13.95-8.14,18.07-15.77,3.35-6.22,7.84-17.11,13.49-32.72,6.93-19.23,19.6-32.77,34.18-48.93,5.33-5.9,11.03-13.31,17.11-22.2,6.9-10.07,10.21-21.06,9.94-32.95M100.76,262.84c-.59,8.55,1.23,17.27,5.47,26.14,6.2,12.97,14.36,24.77,24.45,35.37,9.55,10.03,15.31,16.23,17.25,18.62,11.99,14.65,16.86,29.35,22.9,48.29,4.44,13.92,14.63,23.81,30.61,29.65"/>
    <path class="cls-32" d="M87.46,105.12c-6.4,16.16,3.19,34.43,16.89,43.3,5.36,3.49,10.92,6.59,16.68,9.32"/>
    <path class="cls-33" d="M121.02,157.74l.27,2.51c.11.96-.09,1.91-.55,2.73-1.98,3.56-3.87,7.13-5.67,10.71-16.84,33.8-18.96,77.25,3.46,109.59"/>
    <path class="cls-32" d="M118.54,283.28c9.02,11.53,20.03,20.85,33.02,27.96"/>
    <line class="cls-33" x1="151.56" y1="311.24" x2="164.05" y2="321.45"/>
    <line class="cls-15" x1="164.05" y1="321.45" x2="174.6" y2="333.78"/>
    <path class="cls-33" d="M174.6,333.78c-.18.48.16,1.14,1,1.96"/>
    <path class="cls-9" d="M175.6,335.74c6.36,13.76,10.19,28.58,11.53,44.42"/>
    <path class="cls-27" d="M187.13,380.16c.14,8.25,3.58,14.33,10.3,18.23,7.18,4.17,15.82,4.92,25.86,2.3,11.19-2.89,16.93-9.73,17.21-20.49"/>
    <line class="cls-9" x1="240.5" y1="380.2" x2="242.58" y2="364.09"/>
    <path class="cls-33" d="M242.58,364.09c1.98-10.19,5.17-20.01,9.62-29.42"/>
    <line class="cls-15" x1="252.19" y1="334.67" x2="260.63" y2="323.44"/>
    <line class="cls-33" x1="260.63" y1="323.44" x2="272.43" y2="313.11"/>
    <path class="cls-32" d="M272.43,313.11c14.54-7.7,27.89-17.64,36.69-31.56"/>
    <path class="cls-33" d="M309.12,281.55c2.85-3.65,5.42-8.2,7.7-13.67,5.45-13.13,8.27-26.75,8.48-40.88.25-18.53-4.72-37.56-14.86-57.09"/>
    <path class="cls-9" d="M310.44,169.91c-4.76-6.04-5.74-10.19-2.94-12.47"/>
    <path class="cls-7" d="M307.5,157.44c11.55-6.97,22.24-11.94,28.94-24.16"/>
    <path class="cls-9" d="M336.44,133.29c6.13-11.23,6.68-22.13,1.64-32.68-3.97-8.32-11.44-7.68-18.66-3.28-15.11,9.23-25.27,25.16-31.31,42.2-.09.25-.3.43-.55.5-.68.16-1.32-.16-1.89-.96"/>
    <path class="cls-22" d="M285.67,139.08c-15.63-10.82-33.32-17.57-53.07-20.24-34.37-4.65-65.29,2.58-92.75,21.67"/>
    <path class="cls-33" d="M139.85,140.51c-1.41-3.19-4.12-8.73-8.14-16.64-6.22-12.31-23.54-34.16-38.9-28.85-.75.25-1.39.75-1.82,1.44-1.66,2.64-2.85,5.54-3.53,8.66"/>
    <path class="cls-8" d="M139.85,140.51c1.25,4.53,3.12,6.06,5.61,4.58,8-4.79,14.88-7.86,20.62-9.23"/>
    <path class="cls-11" d="M166.08,135.86c-2.16.8-3.87,1.94-5.13,3.44-.48.57-.68,1.34-.55,2.07,1.71,10.28,7.66,15.36,17.87,15.25,3.53-.02,6.47-2.53,6.95-5.9,1.46-10.35-2.71-15.91-12.49-16.68"/>
    <path class="cls-8" d="M172.73,134.04c28.46-10.35,61.37-9.39,89.72.96"/>
    <path class="cls-11" d="M262.45,135c-9.78-1.07-15.68,2.48-17.75,10.71-1.57,6.31.48,9.66,6.13,10.1,8.27.64,19.1-7.91,16.36-17.5"/>
    <line class="cls-8" x1="267.19" y1="138.3" x2="282.12" y2="144.41"/>
    <path class="cls-25" d="M282.12,144.41l11.83-1.8c.59-.09,1.14.32,1.21.89,1.46,10.78,6.56,19.58,15.29,26.41"/>
    <path class="cls-10" d="M309.12,281.55c-16.5-8.16-28.94-4.72-37.3,10.32-1.05,1.89-1.48,4.06-1.21,6.2l1.82,15.04"/>
    <path class="cls-18" d="M260.63,323.44c.21-7.25,2.67-13.83,7.43-19.73.27-.36.11-.91-.34-1.03l-.82-.23c-.91-.25-1.87.09-2.42.87-7.16,10.37-11.26,20.81-12.28,31.36"/>
    <path class="cls-25" d="M242.58,364.09c-1.87-7.32-2.55-13.83-2.03-19.51,2.37-25.5,10.1-54.12,16.59-80.53"/>
    <path class="cls-3" d="M257.14,264.05c15.22,11.67,36.46,10.32,47.13-5.92,10.32-15.72,3.44-38.22-13.83-45.71-9.46-4.1-18.85-3.6-28.21,1.48"/>
    <path class="cls-25" d="M262.22,213.89l.32-17.87c.05-2.44-1.82-4.47-4.26-4.63-8.93-.62-12.92-6.52-11.99-17.68.02-.14-.09-.25-.23-.3l-.82-.23c-.34-.09-.68.18-.66.55.39,6.08-1.5,11.14-5.65,15.18"/>
    <path class="cls-11" d="M238.93,188.92c4.63-6.77,7.95-21.74-4.92-19.03-.73.16-1.41.43-2.05.82-7.27,4.51-9.75,10.89-7.45,19.14"/>
    <path class="cls-25" d="M224.51,189.85c-6.08-.3-11.8.39-17.16,2.07"/>
    <path class="cls-11" d="M207.35,191.92c.48-8.18-3.28-24.59-14.61-22.9-11.01,1.64-7.54,13.17-4.24,20.46"/>
    <line class="cls-25" x1="188.5" y1="189.49" x2="158.06" y2="210.72"/>
    <path class="cls-3" d="M158.06,210.72c-17.91-2.99-30.17,2.58-36.8,16.64-5.4,11.46-3.92,25.77,5.06,34.71,11.6,11.55,25.16,13.13,40.63,4.74"/>
    <path class="cls-25" d="M166.94,266.81l3.58,2.05c.55.3.96.82,1.14,1.44,7.32,26,12.62,52.39,15.88,79.19.05.43-.48.66-.75.32l-11.19-14.06"/>
    <path class="cls-18" d="M174.6,333.78c-.91-5.86-2.44-11.51-4.56-16.91-1.64-4.12-3.9-7.91-6.79-11.37-.87-1.03-1.64-1.48-2.32-1.32-.87.21-1.25,1.23-.73,1.96,1.5,2.05,1.96,4.19,1.34,6.45-.23.89-.18,1.82.14,2.69l2.37,6.18"/>
    <path class="cls-10" d="M151.56,311.24c5.81-13.99,4.56-26.34-11.01-32.56-4.79-1.91-8.14-2.92-10.05-2.99-.77-.02-1.53.18-2.19.59-2.39,1.48-4.28,3.62-5.67,6.43-.3.57-1,.82-1.57.52-.68-.34-1.53-.34-2.53.05M121.02,157.74c.48-.48,1.16-.82,2.07-1.03"/>
    <path class="cls-28" d="M123.1,156.72c1.12,1.64,2.1,2.05,2.96,1.23,2.85-2.67,1.75-7.16,1.55-10.46-.71-11.96-4.47-22.88-11.23-32.75-3.69-5.38-8.25-8.43-13.65-9.18"/>
    <line class="cls-10" x1="102.72" y1="105.56" x2="87.46" y2="105.12"/>
    <path class="cls-16" d="M267.19,138.3c-1.21-1.25-2.78-2.35-4.74-3.3M172.73,134.04l-6.65,1.82"/>
    <path class="cls-6" d="M207.35,191.92c-4.47,10.69-10.76,9.87-18.85-2.44"/>
    <path class="cls-2" d="M336.44,133.29l.73-25c.05-1.07-.89-1.94-1.96-1.85l-14.47,1.39"/>
    <path class="cls-17" d="M320.74,107.83c.8-.55,1.12-.96.96-1.23-.52-.87-1.71-1.05-2.51-.41-13.9,10.96-19.35,27.53-19.69,44.51-.02.8.09,1.6.34,2.35,2.03,6.29,3.58,7.11,4.69,2.44"/>
    <path class="cls-2" d="M304.54,155.48c.11,1.16,1.12,1.8,2.96,1.96"/>
    <path class="cls-12" d="M282.12,144.41c1.71-1.23,2.89-3.01,3.56-5.33"/>
    <path class="cls-26" d="M102.72,105.56c6.24,5.9,10.53,11.12,12.88,15.7,5.36,10.44,7.84,22.26,7.5,35.46"/>
    <path class="cls-24" d="M262.22,213.89c-17.98,10.98-20.51,35.85-5.08,50.16"/>
    <path class="cls-5" d="M240.5,380.2c-7.77-9.62-17.78-13.86-30.06-12.74-9.66.89-17.43,5.13-23.31,12.69"/>
    <path class="cls-24" d="M166.94,266.81c8.09-5.54,12.44-12.99,13.01-22.36.98-16.25-6.31-27.51-21.9-33.73"/>
    <path class="cls-6" d="M238.93,188.92c-4.08,4.74-10.25,7.38-14.43.93"/>
    <path class="cls-30" d="M320.74,107.83c-12.12,12.76-17.52,28.65-16.2,47.65"/>
    <path class="cls-11" d="M214.86,132.31c-7.1.18-12.68,7.49-12.45,16.33.22,8.82,6.17,15.84,13.29,15.66,7.1-.18,12.68-7.49,12.45-16.33-.22-8.82-6.17-15.84-13.29-15.66"/>
    <path class="cls-35" d="M127.5,199.63c1.3,2.51,4.69,3.3,7.57,1.78,6.2-3.3,12.92-5.26,20.17-5.83,2.96-.23,5.1-2.92,4.69-5.88l-.05-.36c-.43-3.03-3.05-5.24-6.13-5.17-10.25.25-18.32,3.3-24.2,9.16-2.35,2.32-3.03,4.42-2.05,6.31"/>
    <path class="cls-4" d="M266.87,192.88l30.38,9.12c.91.27,1.89-.25,2.16-1.16l.27-.93c1.48-4.92-4.06-10.92-12.35-13.4l-3.67-1.09c-8.29-2.48-16.2-.52-17.68,4.38l-.27.93c-.27.91.25,1.89,1.16,2.16"/>
    <path class="cls-6" d="M215.98,208.58c-3.87-.27-7.31,3.49-7.68,8.44-.36,4.94,2.49,9.18,6.37,9.47,3.87.27,7.31-3.49,7.68-8.44.36-4.94-2.49-9.18-6.37-9.47"/>
    <path class="cls-21" d="M174.87,240.96c0-14.22-11.53-25.75-25.75-25.75s-25.75,11.53-25.75,25.75,11.53,25.75,25.75,25.75,25.75-11.53,25.75-25.75M298.93,225.2c-8.56-11.28-24.81-13.36-36.3-4.63-11.48,8.73-13.85,24.93-5.3,36.21,8.56,11.28,24.81,13.36,36.3,4.63,11.48-8.73,13.85-24.93,5.3-36.21"/>
    <path class="cls-29" d="M167.88,242.01c0-7.73-6.24-13.97-13.97-13.97s-13.97,6.24-13.97,13.97,6.24,13.97,13.97,13.97,13.97-6.24,13.97-13.97"/>
    <path class="cls-21" d="M287.36,241.94c0-7.77-6.29-14.06-14.06-14.06s-14.06,6.29-14.06,14.06,6.29,14.06,14.06,14.06,14.06-6.29,14.06-14.06"/>
    <path class="cls-11" d="M97.86,298.7c-2.54-.12-4.75,2.39-4.91,5.62-.17,3.23,1.77,5.95,4.33,6.08,2.54.12,4.75-2.39,4.91-5.62.16-3.23-1.77-5.95-4.33-6.08M102.65,321.2c-6.96.46-12.09,8.58-11.45,18.14.63,9.55,6.79,16.94,13.75,16.47,6.96-.46,12.09-8.58,11.45-18.14-.63-9.55-6.79-16.94-13.75-16.47M86.69,359.98c-4.04.53-6.73,5.45-6,10.97.73,5.53,4.59,9.59,8.64,9.05,4.04-.53,6.73-5.45,6-10.97-.73-5.53-4.59-9.59-8.64-9.05M118.46,364.46c-5.07,1.52-7.44,8.66-5.26,15.93,2.18,7.29,8.05,11.96,13.13,10.45,5.07-1.52,7.44-8.66,5.26-15.93-2.18-7.29-8.05-11.96-13.13-10.45M96.84,386.88c-6.13-.14-11.21,5.51-11.36,12.64-.16,7.11,4.67,13.01,10.78,13.15,6.13.14,11.21-5.51,11.36-12.64.16-7.11-4.67-13.01-10.78-13.15M329.38,298.65c-2.42.15-4.22,2.88-4.03,6.14.2,3.26,2.29,5.79,4.71,5.64,2.42-.15,4.22-2.88,4.03-6.14-.2-3.26-2.29-5.79-4.71-5.64M325.87,321.05c-6.84-.94-13.45,6.01-14.76,15.53-1.33,9.53,3.14,18.01,9.98,18.96,6.84.94,13.45-6.01,14.76-15.53,1.33-9.53-3.14-18.01-9.98-18.96M338.74,360.77c-4.05.07-7.24,4.49-7.14,9.86.09,5.36,3.44,9.67,7.48,9.6,4.05-.07,7.24-4.49,7.14-9.86-.09-5.36-3.44-9.67-7.48-9.6M309.02,364.44c-5.19-1.54-11.18,3.18-13.37,10.54-2.19,7.38.23,14.6,5.41,16.14,5.19,1.54,11.18-3.18,13.37-10.54,2.19-7.38-.23-14.6-5.41-16.14M331.73,387.11c-6.23-.52-11.77,4.81-12.34,11.9-.58,7.08,4,13.26,10.23,13.76,6.23.52,11.77-4.81,12.34-11.9.58-7.08-4-13.26-10.23-13.76"/>
    <path class="cls-14" d="M196.17,379.94c-1.81,1.65-1.02,5.45,1.78,8.52,2.79,3.06,6.51,4.2,8.32,2.57,1.81-1.65,1.02-5.45-1.78-8.52-2.79-3.06-6.51-4.2-8.32-2.57"/>
    <path class="cls-13" d="M231.56,380.26c-1.63-1.63-5.28-.63-8.13,2.22-2.84,2.87-3.84,6.51-2.19,8.14,1.63,1.63,5.28.63,8.13-2.22,2.84-2.87,3.84-6.51,2.19-8.14"/>
    <path class="cls-46" d="M354.58,419.65c-3.56-42.14-6.29-69-8.2-80.56-4.83-29.19-10.44-58.09-16.84-86.71-.11-.57-.93-.57-1.07,0l-3.24,14.04c-7.09,16.43-16.91,29.42-29.49,38.99-5.77,4.38-12.76,9.53-21.01,15.45-17.8,12.76-23.29,29.15-26.14,51.11-1.44,11.03-2.96,18.07-4.53,21.13-4.22,8.09-11.28,12.97-21.22,14.63-20.35,3.44-39.74-2.85-42.68-25.91-3.12-24.61-5.99-44.51-26.71-60.34-3.49-2.67-9.37-6.86-17.68-12.58-16.02-11.05-27.69-26.39-35-46.06l-2.07-10.3c-.11-.55-.91-.55-1.03,0-8.75,39.13-16.93,80.69-20.49,118.57-1.53,16.36-3.03,32.72-4.56,49.06-1.39,2.21-3.53,2.48-6.43.84.39-3.71.71-7.47.96-11.23,1.46-23.13,3.56-45.35,6.29-66.66,4.53-35.37,13.04-71.72,21.03-106.72.62-2.64.91-5.33.89-8.04-.11-22.95,5.74-44.8,17.59-65.54.41-.73.14-1.66-.62-2.05-17.57-9.18-29.24-19.83-33.48-39.86-2.58-20.01,10.37-43.87,33.84-28.65,12.49,8.09,21.92,19.6,28.28,34.5.71,1.64,2.67,2.32,4.24,1.46,42.34-23.13,94.66-23.27,137,.16,1.23.68,2.78.18,3.4-1.07,2.58-5.33,5.29-10.19,8.14-14.56,7.73-11.8,26.46-30.86,41.82-23.72,10.55,4.9,14.72,22.01,12.58,31.88-3.99,18.32-14.9,31.4-32.77,39.22-1.21.52-1.66,1.98-1,3.1,9.78,16.7,16.8,37.81,17.21,57.5.14,7.04.34,12.21,2.01,19.55,9.32,41.09,14.77,66.66,16.36,76.73,5.47,34.59,9.18,68.75,11.12,102.5.07,1.12-.75,2.12-1.87,2.28-2.3.34-3.85-.39-4.63-2.14M87.46,105.12c-6.4,16.16,3.19,34.43,16.89,43.3,5.36,3.49,10.92,6.59,16.68,9.32l.27,2.51c.11.96-.09,1.91-.55,2.73-1.98,3.56-3.87,7.13-5.67,10.71-16.84,33.8-18.96,77.25,3.46,109.59,9.02,11.53,20.03,20.85,33.02,27.96l12.49,10.21,10.55,12.33c-.18.48.16,1.14,1,1.96,6.36,13.76,10.19,28.58,11.53,44.42.14,8.25,3.58,14.33,10.3,18.23,7.18,4.17,15.82,4.92,25.86,2.3,11.19-2.89,16.93-9.73,17.21-20.49l2.07-16.11c1.98-10.19,5.17-20.01,9.62-29.42l8.43-11.23,11.8-10.32c14.54-7.7,27.89-17.64,36.69-31.56,2.85-3.65,5.42-8.2,7.7-13.67,5.45-13.13,8.27-26.75,8.48-40.88.25-18.53-4.72-37.56-14.86-57.09-4.76-6.04-5.74-10.19-2.94-12.47,11.55-6.97,22.24-11.94,28.94-24.16,6.13-11.23,6.68-22.13,1.64-32.68-3.97-8.32-11.44-7.68-18.66-3.28-15.11,9.23-25.27,25.16-31.31,42.2-.09.25-.3.43-.55.5-.68.16-1.32-.16-1.89-.96-15.63-10.82-33.32-17.57-53.07-20.24-34.37-4.65-65.29,2.58-92.75,21.67-1.41-3.19-4.12-8.73-8.14-16.64-6.22-12.31-23.54-34.16-38.9-28.85-.75.25-1.39.75-1.82,1.44-1.66,2.64-2.85,5.54-3.53,8.66h0Z"/>
    <path class="cls-51" d="M139.85,140.51c1.25,4.53,3.12,6.06,5.61,4.58,8-4.79,14.88-7.86,20.62-9.23-2.16.8-3.87,1.94-5.13,3.44-.48.57-.68,1.34-.55,2.07,1.71,10.28,7.66,15.36,17.87,15.25,3.53-.02,6.47-2.53,6.95-5.9,1.46-10.35-2.71-15.91-12.49-16.68,28.46-10.35,61.37-9.39,89.72.96-9.78-1.07-15.68,2.48-17.75,10.71-1.57,6.31.48,9.66,6.13,10.1,8.27.64,19.1-7.91,16.36-17.5l14.93,6.11,11.83-1.8c.59-.09,1.14.32,1.21.89,1.46,10.78,6.56,19.58,15.29,26.41,10.14,19.53,15.11,38.56,14.86,57.09-.21,14.13-3.03,27.76-8.48,40.88-2.28,5.47-4.85,10.03-7.7,13.67-16.5-8.16-28.94-4.72-37.3,10.32-1.05,1.89-1.48,4.06-1.21,6.2l1.82,15.04-11.8,10.32c.21-7.25,2.67-13.83,7.43-19.73.27-.36.11-.91-.34-1.03l-.82-.23c-.91-.25-1.87.09-2.42.87-7.16,10.37-11.26,20.81-12.28,31.36-4.44,9.41-7.63,19.23-9.62,29.42-1.87-7.32-2.55-13.83-2.03-19.51,2.37-25.5,10.1-54.12,16.59-80.53,15.22,11.67,36.46,10.32,47.13-5.92,10.32-15.72,3.44-38.22-13.83-45.71-9.46-4.1-18.85-3.6-28.21,1.48l.32-17.87c.05-2.44-1.82-4.47-4.26-4.63-8.93-.62-12.92-6.52-11.99-17.68.02-.14-.09-.25-.23-.3l-.82-.23c-.34-.09-.68.18-.66.55.39,6.08-1.5,11.14-5.65,15.18,4.63-6.77,7.95-21.74-4.92-19.03-.73.16-1.41.43-2.05.82-7.27,4.51-9.75,10.89-7.45,19.14-6.08-.3-11.8.39-17.16,2.07.48-8.18-3.28-24.59-14.61-22.9-11.01,1.64-7.54,13.17-4.24,20.46l-30.45,21.24c-17.91-2.99-30.17,2.58-36.8,16.64-5.4,11.46-3.92,25.77,5.06,34.71,11.6,11.55,25.16,13.13,40.63,4.74l3.58,2.05c.55.3.96.82,1.14,1.44,7.32,26,12.62,52.39,15.88,79.19.05.43-.48.66-.75.32l-11.19-14.06c-.84-.82-1.19-1.48-1-1.96-.91-5.86-2.44-11.51-4.56-16.91-1.64-4.12-3.9-7.91-6.79-11.37-.87-1.03-1.64-1.48-2.32-1.32-.87.21-1.25,1.23-.73,1.96,1.5,2.05,1.96,4.19,1.34,6.45-.23.89-.18,1.82.14,2.69l2.37,6.18-12.49-10.21c5.81-13.99,4.56-26.34-11.01-32.56-4.79-1.91-8.14-2.92-10.05-2.99-.77-.02-1.53.18-2.19.59-2.39,1.48-4.28,3.62-5.67,6.43-.3.57-1,.82-1.57.52-.68-.34-1.53-.34-2.53.05-22.42-32.34-20.3-75.79-3.46-109.59,1.8-3.58,3.69-7.16,5.67-10.71.46-.82.66-1.78.55-2.73l-.27-2.51c.48-.48,1.16-.82,2.07-1.03,1.12,1.64,2.1,2.05,2.96,1.23,2.85-2.67,1.75-7.16,1.55-10.46-.71-11.96-4.47-22.88-11.23-32.75-3.69-5.38-8.25-8.43-13.65-9.18l-15.27-.43c.68-3.12,1.87-6.02,3.53-8.66.43-.68,1.07-1.19,1.82-1.44,15.36-5.31,32.68,16.54,38.9,28.85,4.01,7.91,6.72,13.45,8.14,16.64M214.86,132.31c-7.1.18-12.68,7.49-12.45,16.33.22,8.82,6.17,15.84,13.29,15.66,7.1-.18,12.68-7.49,12.45-16.33-.22-8.82-6.17-15.84-13.29-15.66M127.5,199.63c1.3,2.51,4.69,3.3,7.57,1.78,6.2-3.3,12.92-5.26,20.17-5.83,2.96-.23,5.1-2.92,4.69-5.88l-.05-.36c-.43-3.03-3.05-5.24-6.13-5.17-10.25.25-18.32,3.3-24.2,9.16-2.35,2.32-3.03,4.42-2.05,6.31M266.87,192.88l30.38,9.12c.91.27,1.89-.25,2.16-1.16l.27-.93c1.48-4.92-4.06-10.92-12.35-13.4l-3.67-1.09c-8.29-2.48-16.2-.52-17.68,4.38l-.27.93c-.27.91.25,1.89,1.16,2.16h0Z"/>
    <path class="cls-45" d="M336.44,133.29l.73-25c.05-1.07-.89-1.94-1.96-1.85l-14.47,1.39c.8-.55,1.12-.96.96-1.23-.52-.87-1.71-1.05-2.51-.41-13.9,10.96-19.35,27.53-19.69,44.51-.02.8.09,1.6.34,2.35,2.03,6.29,3.58,7.11,4.69,2.44.11,1.16,1.12,1.8,2.96,1.96-2.8,2.28-1.82,6.43,2.94,12.47-8.73-6.84-13.83-15.63-15.29-26.41-.07-.57-.62-.98-1.21-.89l-11.83,1.8c1.71-1.23,2.89-3.01,3.56-5.33.57.8,1.21,1.12,1.89.96.25-.07.46-.25.55-.5,6.04-17.05,16.2-32.98,31.31-42.2,7.22-4.4,14.7-5.04,18.66,3.28,5.04,10.55,4.49,21.44-1.64,32.68h0Z"/>
    <path class="cls-43" d="M102.72,105.56c6.24,5.9,10.53,11.12,12.88,15.7,5.36,10.44,7.84,22.26,7.5,35.46-.91.21-1.6.55-2.07,1.03-5.77-2.73-11.33-5.83-16.68-9.32-13.7-8.86-23.29-27.14-16.89-43.3l15.27.43h0Z"/>
    <path class="cls-41" d="M123.1,156.72c.34-13.19-2.14-25.02-7.5-35.46-2.35-4.58-6.63-9.8-12.88-15.7,5.4.75,9.96,3.81,13.65,9.18,6.77,9.87,10.53,20.78,11.23,32.75.21,3.3,1.3,7.79-1.55,10.46-.87.82-1.85.41-2.96-1.23h0Z"/>
    <path class="cls-41" d="M320.74,107.83c-12.12,12.76-17.52,28.65-16.2,47.65-1.12,4.67-2.67,3.85-4.69-2.44-.25-.75-.36-1.55-.34-2.35.34-16.98,5.79-33.54,19.69-44.51.8-.64,1.98-.46,2.51.41.16.27-.16.68-.96,1.23h0Z"/>
    <path class="cls-48" d="M336.44,133.29c-6.7,12.21-17.39,17.18-28.94,24.16-1.85-.16-2.85-.8-2.96-1.96-1.32-19.01,4.08-34.89,16.2-47.65l14.47-1.39c1.07-.09,2.01.77,1.96,1.85l-.73,25h0Z"/>
    <path class="cls-37" d="M285.67,139.08c-.66,2.32-1.85,4.1-3.56,5.33l-14.93-6.11c-1.21-1.25-2.78-2.35-4.74-3.3-28.35-10.35-61.26-11.3-89.72-.96l-6.65,1.82c-5.74,1.37-12.62,4.44-20.62,9.23-2.48,1.48-4.35-.05-5.61-4.58,27.46-19.1,58.38-26.32,92.75-21.67,19.76,2.67,37.44,9.41,53.07,20.24h0Z"/>
    <path class="cls-44" d="M78.87,120.91c4.24,20.03,15.91,30.67,33.48,39.86.75.39,1.03,1.32.62,2.05-11.85,20.74-17.71,42.59-17.59,65.54.02,2.71-.27,5.4-.89,8.04-8,35-16.5,71.35-21.03,106.72-2.73,21.31-4.83,43.53-6.29,66.66-.25,3.76-.57,7.52-.96,11.23-4.38-8.68-5.99-17.59-4.85-26.73,1.98-15.97,6.22-45.8,12.67-89.45,3.65-24.59,9.94-47.01,14.49-70.96,2.01-10.6,2.44-17.16,3.37-29.21.8-10.25,3.6-19.3,5.77-29.6,2.48-11.96-7.88-22.77-15.82-34.66-2.99-4.49-3.99-10.98-2.96-19.48h0Z"/>
    <path class="cls-42" d="M214.86,132.31c7.12-.19,13.07,6.83,13.29,15.66.23,8.84-5.35,16.15-12.45,16.33-7.12.19-13.07-6.83-13.29-15.66-.23-8.84,5.35-16.15,12.45-16.33h0Z"/>
    <path class="cls-42" d="M166.08,135.86l6.65-1.82c9.78.77,13.95,6.34,12.49,16.68-.48,3.37-3.42,5.88-6.95,5.9-10.21.11-16.16-4.97-17.87-15.25-.14-.73.07-1.5.55-2.07,1.25-1.5,2.96-2.64,5.13-3.44h0Z"/>
    <path class="cls-42" d="M262.45,135c1.96.96,3.53,2.05,4.74,3.3,2.73,9.59-8.09,18.14-16.36,17.5-5.65-.43-7.7-3.78-6.13-10.1,2.07-8.23,7.98-11.78,17.75-10.71h0Z"/>
    <path class="cls-42" d="M207.35,191.92c-4.47,10.69-10.76,9.87-18.85-2.44-3.3-7.29-6.77-18.82,4.24-20.46,11.33-1.69,15.09,14.72,14.61,22.9h0Z"/>
    <path class="cls-42" d="M238.93,188.92c-4.08,4.74-10.25,7.38-14.43.93-2.3-8.25.18-14.63,7.45-19.14.64-.39,1.32-.66,2.05-.82,12.88-2.71,9.55,12.26,4.92,19.03h0Z"/>
    <path class="cls-45" d="M262.22,213.89c-17.98,10.98-20.51,35.85-5.08,50.16-6.49,26.41-14.22,55.03-16.59,80.53-.52,5.67.16,12.19,2.03,19.51l-2.07,16.11c-7.77-9.62-17.78-13.86-30.06-12.74-9.66.89-17.43,5.13-23.31,12.69-1.34-15.84-5.17-30.65-11.53-44.42l11.19,14.06c.27.34.8.11.75-.32-3.26-26.8-8.57-53.19-15.88-79.19-.18-.62-.59-1.14-1.14-1.44l-3.58-2.05c8.09-5.54,12.44-12.99,13.01-22.36.98-16.25-6.31-27.51-21.9-33.73l30.45-21.24c8.09,12.31,14.38,13.13,18.85,2.44,5.36-1.69,11.08-2.37,17.16-2.07,4.17,6.45,10.35,3.81,14.43-.93,4.15-4.03,6.04-9.09,5.65-15.18-.02-.36.32-.64.66-.55l.82.23c.14.05.25.16.23.3-.93,11.17,3.05,17.07,11.99,17.68,2.44.16,4.31,2.19,4.26,4.63l-.32,17.87M215.98,208.58c-3.87-.27-7.31,3.49-7.68,8.44-.36,4.94,2.49,9.18,6.37,9.47,3.87.27,7.31-3.49,7.68-8.44.36-4.94-2.49-9.18-6.37-9.47h0Z"/>
    <path class="cls-52" d="M127.5,199.63c-.98-1.89-.3-3.99,2.05-6.31,5.88-5.86,13.95-8.91,24.2-9.16,3.08-.07,5.7,2.14,6.13,5.17l.05.36c.41,2.96-1.73,5.65-4.69,5.88-7.25.57-13.97,2.53-20.17,5.83-2.87,1.53-6.27.73-7.57-1.78h0Z"/>
    <path class="cls-38" d="M266.87,192.88c-.91-.27-1.44-1.25-1.16-2.16l.27-.93c1.48-4.9,9.39-6.86,17.68-4.38l3.67,1.09c8.29,2.48,13.83,8.48,12.35,13.4l-.27.93c-.27.91-1.25,1.44-2.16,1.16l-30.38-9.12h0Z"/>
    <path class="cls-42" d="M215.98,208.58c3.88.29,6.73,4.53,6.37,9.47-.37,4.95-3.81,8.71-7.68,8.44-3.88-.29-6.73-4.53-6.37-9.47.37-4.95,3.81-8.71,7.68-8.44h0Z"/>
    <path class="cls-36" d="M158.06,210.72c15.59,6.22,22.88,17.48,21.9,33.73-.57,9.37-4.92,16.82-13.01,22.36-15.47,8.39-29.03,6.81-40.63-4.74-8.98-8.93-10.46-23.24-5.06-34.71,6.63-14.06,18.89-19.62,36.8-16.64M174.87,240.96c0-14.22-11.53-25.75-25.75-25.75s-25.75,11.53-25.75,25.75,11.53,25.75,25.75,25.75,25.75-11.53,25.75-25.75h0Z"/>
    <path class="cls-36" d="M257.14,264.05c-15.43-14.31-12.9-39.17,5.08-50.16,9.37-5.08,18.76-5.58,28.21-1.48,17.27,7.5,24.16,29.99,13.83,45.71-10.67,16.25-31.9,17.59-47.13,5.92M298.93,225.2c-8.56-11.28-24.81-13.36-36.3-4.63-11.48,8.73-13.85,24.93-5.3,36.21,8.56,11.28,24.81,13.36,36.3,4.63,11.48-8.73,13.85-24.93,5.3-36.21h0Z"/>
    <path class="cls-40" d="M174.87,240.96c0,14.22-11.53,25.75-25.75,25.75s-25.75-11.53-25.75-25.75,11.53-25.75,25.75-25.75,25.75,11.53,25.75,25.75M167.88,242.01c0-7.73-6.24-13.97-13.97-13.97s-13.97,6.24-13.97,13.97,6.24,13.97,13.97,13.97,13.97-6.24,13.97-13.97h0Z"/>
    <path class="cls-40" d="M298.93,225.2c8.55,11.28,6.18,27.48-5.3,36.21-11.49,8.73-27.74,6.65-36.3-4.63-8.55-11.28-6.18-27.48,5.3-36.21,11.49-8.73,27.74-6.65,36.3,4.63M287.36,241.94c0-7.77-6.29-14.06-14.06-14.06s-14.06,6.29-14.06,14.06,6.29,14.06,14.06,14.06,14.06-6.29,14.06-14.06h0Z"/>
    <path class="cls-41" d="M167.88,242.01c0,7.73-6.24,13.97-13.97,13.97s-13.97-6.24-13.97-13.97,6.24-13.97,13.97-13.97,13.97,6.24,13.97,13.97h0Z"/>
    <path class="cls-36" d="M287.36,241.94c0,7.77-6.29,14.06-14.06,14.06s-14.06-6.29-14.06-14.06,6.29-14.06,14.06-14.06,14.06,6.29,14.06,14.06h0Z"/>
    <path class="cls-51" d="M100.76,262.84c-.59,8.55,1.23,17.27,5.47,26.14,6.2,12.97,14.36,24.77,24.45,35.37,9.55,10.03,15.31,16.23,17.25,18.62,11.99,14.65,16.86,29.35,22.9,48.29,4.44,13.92,14.63,23.81,30.61,29.65-42.96-.02-85.34.11-127.21.36-1.32,0-1.87-.36-1.62-1.09,1.53-16.34,3.03-32.7,4.56-49.06,3.56-37.87,11.74-79.44,20.49-118.57.11-.55.91-.55,1.03,0l2.07,10.3M97.86,298.7c-2.54-.12-4.75,2.39-4.91,5.62-.17,3.23,1.77,5.95,4.33,6.08,2.54.12,4.75-2.39,4.91-5.62.16-3.23-1.77-5.95-4.33-6.08M102.65,321.2c-6.96.46-12.09,8.58-11.45,18.14.63,9.55,6.79,16.94,13.75,16.47,6.96-.46,12.09-8.58,11.45-18.14-.63-9.55-6.79-16.94-13.75-16.47M86.69,359.98c-4.04.53-6.73,5.45-6,10.97.73,5.53,4.59,9.59,8.64,9.05,4.04-.53,6.73-5.45,6-10.97-.73-5.53-4.59-9.59-8.64-9.05M118.46,364.46c-5.07,1.52-7.44,8.66-5.26,15.93,2.18,7.29,8.05,11.96,13.13,10.45,5.07-1.52,7.44-8.66,5.26-15.93-2.18-7.29-8.05-11.96-13.13-10.45M96.84,386.88c-6.13-.14-11.21,5.51-11.36,12.64-.16,7.11,4.67,13.01,10.78,13.15,6.13.14,11.21-5.51,11.36-12.64.16-7.11-4.67-13.01-10.78-13.15h0Z"/>
    <path class="cls-51" d="M354.58,419.65c-.25.41-.55.75-.89,1-.18.14-.39.21-.59.21l-114.69.07-5.7-.16c-1-.02-1.23-1.44-.27-1.78,7.93-2.89,13.95-8.14,18.07-15.77,3.35-6.22,7.84-17.11,13.49-32.72,6.93-19.23,19.6-32.77,34.18-48.93,5.33-5.9,11.03-13.31,17.11-22.2,6.9-10.07,10.21-21.06,9.94-32.95l3.24-14.04c.14-.57.96-.57,1.07,0,6.4,28.62,12.01,57.52,16.84,86.71,1.91,11.55,4.65,38.42,8.2,80.56M329.38,298.65c-2.42.15-4.22,2.88-4.03,6.14.2,3.26,2.29,5.79,4.71,5.64,2.42-.15,4.22-2.88,4.03-6.14-.2-3.26-2.29-5.79-4.71-5.64M325.87,321.05c-6.84-.94-13.45,6.01-14.76,15.53-1.33,9.53,3.14,18.01,9.98,18.96,6.84.94,13.45-6.01,14.76-15.53,1.33-9.53-3.14-18.01-9.98-18.96M338.74,360.77c-4.05.07-7.24,4.49-7.14,9.86.09,5.36,3.44,9.67,7.48,9.6,4.05-.07,7.24-4.49,7.14-9.86-.09-5.36-3.44-9.67-7.48-9.6M309.02,364.44c-5.19-1.54-11.18,3.18-13.37,10.54-2.19,7.38.23,14.6,5.41,16.14,5.19,1.54,11.18-3.18,13.37-10.54,2.19-7.38-.23-14.6-5.41-16.14M331.73,387.11c-6.23-.52-11.77,4.81-12.34,11.9-.58,7.08,4,13.26,10.23,13.76,6.23.52,11.77-4.81,12.34-11.9.58-7.08-4-13.26-10.23-13.76h0Z"/>
    <path class="cls-47" d="M100.76,262.84c7.32,19.67,18.98,35,35,46.06,8.32,5.72,14.2,9.91,17.68,12.58,20.71,15.84,23.59,35.73,26.71,60.34,2.94,23.06,22.33,29.35,42.68,25.91,9.94-1.66,17-6.54,21.22-14.63,1.57-3.05,3.1-10.1,4.53-21.13,2.85-21.97,8.34-38.35,26.14-51.11,8.25-5.93,15.25-11.08,21.01-15.45,12.58-9.57,22.4-22.56,29.49-38.99.27,11.9-3.03,22.88-9.94,32.95-6.08,8.89-11.78,16.29-17.11,22.2-14.58,16.16-27.26,29.69-34.18,48.93-5.65,15.61-10.14,26.5-13.49,32.72-4.12,7.63-10.14,12.88-18.07,15.77-.96.34-.73,1.75.27,1.78l5.7.16-36.96-.02c-15.97-5.83-26.16-15.72-30.61-29.65-6.04-18.94-10.92-33.64-22.9-48.29-1.94-2.39-7.7-8.59-17.25-18.62-10.1-10.6-18.25-22.4-24.45-35.37-4.24-8.86-6.06-17.59-5.47-26.14h0Z"/>
    <path class="cls-43" d="M151.56,311.24c-12.99-7.11-24-16.43-33.02-27.96,1-.39,1.85-.39,2.53-.05.57.3,1.28.05,1.57-.52,1.39-2.8,3.28-4.95,5.67-6.43.66-.41,1.41-.62,2.19-.59,1.91.07,5.26,1.07,10.05,2.99,15.56,6.22,16.82,18.57,11.01,32.56h0Z"/>
    <path class="cls-43" d="M309.12,281.55c-8.8,13.92-22.15,23.86-36.69,31.56l-1.82-15.04c-.27-2.14.16-4.31,1.21-6.2,8.36-15.04,20.81-18.48,37.3-10.32h0Z"/>
    <path class="cls-42" d="M97.86,298.7c2.56.13,4.5,2.84,4.33,6.08-.15,3.24-2.36,5.74-4.91,5.62-2.56-.13-4.5-2.84-4.33-6.08.15-3.24,2.36-5.74,4.91-5.62h0Z"/>
    <path class="cls-42" d="M329.38,298.65c2.41-.15,4.51,2.38,4.71,5.64.19,3.26-1.61,5.99-4.03,6.14-2.41.15-4.51-2.38-4.71-5.64-.19-3.26,1.61-5.99,4.03-6.14h0Z"/>
    <path class="cls-39" d="M260.63,323.44l-8.43,11.23c1.03-10.55,5.13-20.99,12.28-31.36.55-.77,1.5-1.12,2.42-.87l.82.23c.46.11.62.66.34,1.03-4.76,5.9-7.22,12.49-7.43,19.73h0Z"/>
    <path class="cls-39" d="M174.6,333.78l-10.55-12.33-2.37-6.18c-.32-.87-.36-1.8-.14-2.69.62-2.26.16-4.4-1.34-6.45-.52-.73-.14-1.75.73-1.96.68-.16,1.46.3,2.32,1.32,2.89,3.46,5.15,7.25,6.79,11.37,2.12,5.4,3.65,11.05,4.56,16.91h0Z"/>
    <path class="cls-42" d="M325.87,321.05c6.84.95,11.3,9.43,9.98,18.96-1.32,9.52-7.93,16.47-14.76,15.53-6.84-.95-11.3-9.43-9.98-18.96,1.32-9.52,7.93-16.47,14.76-15.53h0Z"/>
    <path class="cls-42" d="M102.65,321.2c6.96-.47,13.11,6.91,13.75,16.47.64,9.56-4.48,17.68-11.45,18.14-6.96.47-13.11-6.91-13.75-16.47-.64-9.56,4.48-17.68,11.45-18.14h0Z"/>
    <path class="cls-42" d="M86.69,359.98c4.05-.54,7.9,3.51,8.64,9.05.72,5.52-1.97,10.44-6,10.97-4.05.54-7.9-3.51-8.64-9.05-.72-5.52,1.97-10.44,6-10.97h0Z"/>
    <path class="cls-42" d="M338.74,360.77c4.04-.07,7.39,4.24,7.48,9.6.09,5.37-3.1,9.79-7.14,9.86-4.04.07-7.39-4.24-7.48-9.6-.09-5.37,3.1-9.79,7.14-9.86h0Z"/>
    <path class="cls-42" d="M118.46,364.46c5.07-1.51,10.95,3.16,13.13,10.45,2.18,7.28-.19,14.41-5.26,15.93-5.07,1.51-10.95-3.16-13.13-10.45-2.18-7.28.19-14.41,5.26-15.93h0Z"/>
    <path class="cls-42" d="M309.02,364.44c5.18,1.54,7.6,8.76,5.41,16.14-2.19,7.36-8.18,12.08-13.37,10.54-5.18-1.54-7.6-8.76-5.41-16.14,2.19-7.36,8.18-12.08,13.37-10.54h0Z"/>
    <path class="cls-47" d="M240.5,380.2c-.27,10.76-6.02,17.59-17.21,20.49-10.05,2.62-18.69,1.87-25.86-2.3-6.72-3.9-10.16-9.98-10.3-18.23,5.88-7.57,13.65-11.8,23.31-12.69,12.28-1.12,22.29,3.12,30.06,12.74M196.17,379.94c-1.81,1.65-1.02,5.45,1.78,8.52,2.79,3.06,6.51,4.2,8.32,2.57,1.81-1.65,1.02-5.45-1.78-8.52-2.79-3.06-6.51-4.2-8.32-2.57M231.56,380.26c-1.63-1.63-5.28-.63-8.13,2.22-2.84,2.87-3.84,6.51-2.19,8.14,1.63,1.63,5.28.63,8.13-2.22,2.84-2.87,3.84-6.51,2.19-8.14h0Z"/>
    <path class="cls-36" d="M196.17,379.94c1.81-1.63,5.52-.49,8.32,2.57,2.79,3.07,3.59,6.87,1.78,8.52-1.81,1.63-5.52.49-8.32-2.57-2.79-3.07-3.59-6.87-1.78-8.52h0Z"/>
    <path class="cls-49" d="M231.56,380.26c1.65,1.63.65,5.27-2.19,8.14-2.86,2.85-6.5,3.85-8.13,2.22-1.65-1.63-.65-5.27,2.19-8.14,2.86-2.85,6.5-3.85,8.13-2.22h0Z"/>
    <path class="cls-42" d="M96.84,386.88c6.11.13,10.94,6.04,10.78,13.15-.16,7.13-5.24,12.78-11.36,12.64-6.11-.13-10.94-6.04-10.78-13.15.16-7.13,5.24-12.78,11.36-12.64h0Z"/>
    <path class="cls-42" d="M331.73,387.11c6.24.5,10.82,6.68,10.23,13.76-.58,7.09-6.11,12.43-12.34,11.9-6.24-.5-10.82-6.68-10.23-13.76.58-7.09,6.11-12.43,12.34-11.9h0Z"/>
  </g>
</svg>